G75*
%MOIN*%
%OFA0B0*%
%FSLAX25Y25*%
%IPPOS*%
%LPD*%
%AMOC8*
5,1,8,0,0,1.08239X$1,22.5*
%
%ADD10C,0.06800*%
%ADD11C,0.09050*%
%ADD12C,0.12611*%
%ADD13C,0.04762*%
D10*
X0108300Y0052000D02*
X0108300Y0058000D01*
X0118300Y0058000D02*
X0118300Y0052000D01*
X0128300Y0052000D02*
X0128300Y0058000D01*
X0138300Y0058000D02*
X0138300Y0052000D01*
X0215300Y0100000D02*
X0221300Y0100000D01*
X0221300Y0110000D02*
X0215300Y0110000D01*
X0215300Y0125000D02*
X0221300Y0125000D01*
X0221300Y0135000D02*
X0215300Y0135000D01*
X0200800Y0172000D02*
X0200800Y0178000D01*
X0190800Y0178000D02*
X0190800Y0172000D01*
X0180800Y0172000D02*
X0180800Y0178000D01*
X0160800Y0178000D02*
X0160800Y0172000D01*
X0150800Y0172000D02*
X0150800Y0178000D01*
X0140800Y0178000D02*
X0140800Y0172000D01*
X0120800Y0172000D02*
X0120800Y0178000D01*
X0110800Y0178000D02*
X0110800Y0172000D01*
X0080800Y0172000D02*
X0080800Y0178000D01*
X0070800Y0178000D02*
X0070800Y0172000D01*
D11*
X0044925Y0125709D02*
X0036675Y0125709D01*
X0036675Y0105709D02*
X0044925Y0105709D01*
D12*
X0029048Y0050748D03*
X0029048Y0180669D03*
X0221961Y0180669D03*
X0221961Y0050748D03*
D13*
X0203300Y0095000D03*
X0173300Y0095000D03*
X0165800Y0095000D03*
X0133300Y0095000D03*
X0125800Y0095000D03*
X0093300Y0095000D03*
X0083300Y0095000D03*
X0053300Y0095000D03*
M02*
