G75*
%MOIN*%
%OFA0B0*%
%FSLAX25Y25*%
%IPPOS*%
%LPD*%
%AMOC8*
5,1,8,0,0,1.08239X$1,22.5*
%
%ADD10C,0.00000*%
%ADD11C,0.06000*%
%ADD12R,0.04331X0.03937*%
%ADD13R,0.03937X0.04331*%
%ADD14R,0.02200X0.05000*%
%ADD15R,0.07087X0.04724*%
%ADD16R,0.03150X0.03150*%
%ADD17C,0.08250*%
%ADD18R,0.09449X0.09449*%
%ADD19C,0.03937*%
%ADD20C,0.01000*%
%ADD21C,0.01600*%
%ADD22C,0.03962*%
%ADD23C,0.01200*%
D10*
X0029048Y0035000D02*
X0221961Y0035000D01*
X0216055Y0050748D02*
X0216057Y0050901D01*
X0216063Y0051055D01*
X0216073Y0051208D01*
X0216087Y0051360D01*
X0216105Y0051513D01*
X0216127Y0051664D01*
X0216152Y0051815D01*
X0216182Y0051966D01*
X0216216Y0052116D01*
X0216253Y0052264D01*
X0216294Y0052412D01*
X0216339Y0052558D01*
X0216388Y0052704D01*
X0216441Y0052848D01*
X0216497Y0052990D01*
X0216557Y0053131D01*
X0216621Y0053271D01*
X0216688Y0053409D01*
X0216759Y0053545D01*
X0216834Y0053679D01*
X0216911Y0053811D01*
X0216993Y0053941D01*
X0217077Y0054069D01*
X0217165Y0054195D01*
X0217256Y0054318D01*
X0217350Y0054439D01*
X0217448Y0054557D01*
X0217548Y0054673D01*
X0217652Y0054786D01*
X0217758Y0054897D01*
X0217867Y0055005D01*
X0217979Y0055110D01*
X0218093Y0055211D01*
X0218211Y0055310D01*
X0218330Y0055406D01*
X0218452Y0055499D01*
X0218577Y0055588D01*
X0218704Y0055675D01*
X0218833Y0055757D01*
X0218964Y0055837D01*
X0219097Y0055913D01*
X0219232Y0055986D01*
X0219369Y0056055D01*
X0219508Y0056120D01*
X0219648Y0056182D01*
X0219790Y0056240D01*
X0219933Y0056295D01*
X0220078Y0056346D01*
X0220224Y0056393D01*
X0220371Y0056436D01*
X0220519Y0056475D01*
X0220668Y0056511D01*
X0220818Y0056542D01*
X0220969Y0056570D01*
X0221120Y0056594D01*
X0221273Y0056614D01*
X0221425Y0056630D01*
X0221578Y0056642D01*
X0221731Y0056650D01*
X0221884Y0056654D01*
X0222038Y0056654D01*
X0222191Y0056650D01*
X0222344Y0056642D01*
X0222497Y0056630D01*
X0222649Y0056614D01*
X0222802Y0056594D01*
X0222953Y0056570D01*
X0223104Y0056542D01*
X0223254Y0056511D01*
X0223403Y0056475D01*
X0223551Y0056436D01*
X0223698Y0056393D01*
X0223844Y0056346D01*
X0223989Y0056295D01*
X0224132Y0056240D01*
X0224274Y0056182D01*
X0224414Y0056120D01*
X0224553Y0056055D01*
X0224690Y0055986D01*
X0224825Y0055913D01*
X0224958Y0055837D01*
X0225089Y0055757D01*
X0225218Y0055675D01*
X0225345Y0055588D01*
X0225470Y0055499D01*
X0225592Y0055406D01*
X0225711Y0055310D01*
X0225829Y0055211D01*
X0225943Y0055110D01*
X0226055Y0055005D01*
X0226164Y0054897D01*
X0226270Y0054786D01*
X0226374Y0054673D01*
X0226474Y0054557D01*
X0226572Y0054439D01*
X0226666Y0054318D01*
X0226757Y0054195D01*
X0226845Y0054069D01*
X0226929Y0053941D01*
X0227011Y0053811D01*
X0227088Y0053679D01*
X0227163Y0053545D01*
X0227234Y0053409D01*
X0227301Y0053271D01*
X0227365Y0053131D01*
X0227425Y0052990D01*
X0227481Y0052848D01*
X0227534Y0052704D01*
X0227583Y0052558D01*
X0227628Y0052412D01*
X0227669Y0052264D01*
X0227706Y0052116D01*
X0227740Y0051966D01*
X0227770Y0051815D01*
X0227795Y0051664D01*
X0227817Y0051513D01*
X0227835Y0051360D01*
X0227849Y0051208D01*
X0227859Y0051055D01*
X0227865Y0050901D01*
X0227867Y0050748D01*
X0227865Y0050595D01*
X0227859Y0050441D01*
X0227849Y0050288D01*
X0227835Y0050136D01*
X0227817Y0049983D01*
X0227795Y0049832D01*
X0227770Y0049681D01*
X0227740Y0049530D01*
X0227706Y0049380D01*
X0227669Y0049232D01*
X0227628Y0049084D01*
X0227583Y0048938D01*
X0227534Y0048792D01*
X0227481Y0048648D01*
X0227425Y0048506D01*
X0227365Y0048365D01*
X0227301Y0048225D01*
X0227234Y0048087D01*
X0227163Y0047951D01*
X0227088Y0047817D01*
X0227011Y0047685D01*
X0226929Y0047555D01*
X0226845Y0047427D01*
X0226757Y0047301D01*
X0226666Y0047178D01*
X0226572Y0047057D01*
X0226474Y0046939D01*
X0226374Y0046823D01*
X0226270Y0046710D01*
X0226164Y0046599D01*
X0226055Y0046491D01*
X0225943Y0046386D01*
X0225829Y0046285D01*
X0225711Y0046186D01*
X0225592Y0046090D01*
X0225470Y0045997D01*
X0225345Y0045908D01*
X0225218Y0045821D01*
X0225089Y0045739D01*
X0224958Y0045659D01*
X0224825Y0045583D01*
X0224690Y0045510D01*
X0224553Y0045441D01*
X0224414Y0045376D01*
X0224274Y0045314D01*
X0224132Y0045256D01*
X0223989Y0045201D01*
X0223844Y0045150D01*
X0223698Y0045103D01*
X0223551Y0045060D01*
X0223403Y0045021D01*
X0223254Y0044985D01*
X0223104Y0044954D01*
X0222953Y0044926D01*
X0222802Y0044902D01*
X0222649Y0044882D01*
X0222497Y0044866D01*
X0222344Y0044854D01*
X0222191Y0044846D01*
X0222038Y0044842D01*
X0221884Y0044842D01*
X0221731Y0044846D01*
X0221578Y0044854D01*
X0221425Y0044866D01*
X0221273Y0044882D01*
X0221120Y0044902D01*
X0220969Y0044926D01*
X0220818Y0044954D01*
X0220668Y0044985D01*
X0220519Y0045021D01*
X0220371Y0045060D01*
X0220224Y0045103D01*
X0220078Y0045150D01*
X0219933Y0045201D01*
X0219790Y0045256D01*
X0219648Y0045314D01*
X0219508Y0045376D01*
X0219369Y0045441D01*
X0219232Y0045510D01*
X0219097Y0045583D01*
X0218964Y0045659D01*
X0218833Y0045739D01*
X0218704Y0045821D01*
X0218577Y0045908D01*
X0218452Y0045997D01*
X0218330Y0046090D01*
X0218211Y0046186D01*
X0218093Y0046285D01*
X0217979Y0046386D01*
X0217867Y0046491D01*
X0217758Y0046599D01*
X0217652Y0046710D01*
X0217548Y0046823D01*
X0217448Y0046939D01*
X0217350Y0047057D01*
X0217256Y0047178D01*
X0217165Y0047301D01*
X0217077Y0047427D01*
X0216993Y0047555D01*
X0216911Y0047685D01*
X0216834Y0047817D01*
X0216759Y0047951D01*
X0216688Y0048087D01*
X0216621Y0048225D01*
X0216557Y0048365D01*
X0216497Y0048506D01*
X0216441Y0048648D01*
X0216388Y0048792D01*
X0216339Y0048938D01*
X0216294Y0049084D01*
X0216253Y0049232D01*
X0216216Y0049380D01*
X0216182Y0049530D01*
X0216152Y0049681D01*
X0216127Y0049832D01*
X0216105Y0049983D01*
X0216087Y0050136D01*
X0216073Y0050288D01*
X0216063Y0050441D01*
X0216057Y0050595D01*
X0216055Y0050748D01*
X0221961Y0035000D02*
X0222342Y0035005D01*
X0222722Y0035018D01*
X0223102Y0035041D01*
X0223481Y0035074D01*
X0223859Y0035115D01*
X0224236Y0035165D01*
X0224612Y0035225D01*
X0224987Y0035293D01*
X0225359Y0035371D01*
X0225730Y0035458D01*
X0226098Y0035553D01*
X0226464Y0035658D01*
X0226827Y0035771D01*
X0227188Y0035893D01*
X0227545Y0036023D01*
X0227899Y0036163D01*
X0228250Y0036310D01*
X0228597Y0036467D01*
X0228940Y0036631D01*
X0229279Y0036804D01*
X0229614Y0036985D01*
X0229945Y0037174D01*
X0230270Y0037371D01*
X0230591Y0037575D01*
X0230907Y0037788D01*
X0231217Y0038008D01*
X0231523Y0038235D01*
X0231822Y0038470D01*
X0232116Y0038712D01*
X0232404Y0038960D01*
X0232686Y0039216D01*
X0232961Y0039479D01*
X0233230Y0039748D01*
X0233493Y0040023D01*
X0233749Y0040305D01*
X0233997Y0040593D01*
X0234239Y0040887D01*
X0234474Y0041186D01*
X0234701Y0041492D01*
X0234921Y0041802D01*
X0235134Y0042118D01*
X0235338Y0042439D01*
X0235535Y0042764D01*
X0235724Y0043095D01*
X0235905Y0043430D01*
X0236078Y0043769D01*
X0236242Y0044112D01*
X0236399Y0044459D01*
X0236546Y0044810D01*
X0236686Y0045164D01*
X0236816Y0045521D01*
X0236938Y0045882D01*
X0237051Y0046245D01*
X0237156Y0046611D01*
X0237251Y0046979D01*
X0237338Y0047350D01*
X0237416Y0047722D01*
X0237484Y0048097D01*
X0237544Y0048473D01*
X0237594Y0048850D01*
X0237635Y0049228D01*
X0237668Y0049607D01*
X0237691Y0049987D01*
X0237704Y0050367D01*
X0237709Y0050748D01*
X0237709Y0180669D01*
X0216055Y0180669D02*
X0216057Y0180822D01*
X0216063Y0180976D01*
X0216073Y0181129D01*
X0216087Y0181281D01*
X0216105Y0181434D01*
X0216127Y0181585D01*
X0216152Y0181736D01*
X0216182Y0181887D01*
X0216216Y0182037D01*
X0216253Y0182185D01*
X0216294Y0182333D01*
X0216339Y0182479D01*
X0216388Y0182625D01*
X0216441Y0182769D01*
X0216497Y0182911D01*
X0216557Y0183052D01*
X0216621Y0183192D01*
X0216688Y0183330D01*
X0216759Y0183466D01*
X0216834Y0183600D01*
X0216911Y0183732D01*
X0216993Y0183862D01*
X0217077Y0183990D01*
X0217165Y0184116D01*
X0217256Y0184239D01*
X0217350Y0184360D01*
X0217448Y0184478D01*
X0217548Y0184594D01*
X0217652Y0184707D01*
X0217758Y0184818D01*
X0217867Y0184926D01*
X0217979Y0185031D01*
X0218093Y0185132D01*
X0218211Y0185231D01*
X0218330Y0185327D01*
X0218452Y0185420D01*
X0218577Y0185509D01*
X0218704Y0185596D01*
X0218833Y0185678D01*
X0218964Y0185758D01*
X0219097Y0185834D01*
X0219232Y0185907D01*
X0219369Y0185976D01*
X0219508Y0186041D01*
X0219648Y0186103D01*
X0219790Y0186161D01*
X0219933Y0186216D01*
X0220078Y0186267D01*
X0220224Y0186314D01*
X0220371Y0186357D01*
X0220519Y0186396D01*
X0220668Y0186432D01*
X0220818Y0186463D01*
X0220969Y0186491D01*
X0221120Y0186515D01*
X0221273Y0186535D01*
X0221425Y0186551D01*
X0221578Y0186563D01*
X0221731Y0186571D01*
X0221884Y0186575D01*
X0222038Y0186575D01*
X0222191Y0186571D01*
X0222344Y0186563D01*
X0222497Y0186551D01*
X0222649Y0186535D01*
X0222802Y0186515D01*
X0222953Y0186491D01*
X0223104Y0186463D01*
X0223254Y0186432D01*
X0223403Y0186396D01*
X0223551Y0186357D01*
X0223698Y0186314D01*
X0223844Y0186267D01*
X0223989Y0186216D01*
X0224132Y0186161D01*
X0224274Y0186103D01*
X0224414Y0186041D01*
X0224553Y0185976D01*
X0224690Y0185907D01*
X0224825Y0185834D01*
X0224958Y0185758D01*
X0225089Y0185678D01*
X0225218Y0185596D01*
X0225345Y0185509D01*
X0225470Y0185420D01*
X0225592Y0185327D01*
X0225711Y0185231D01*
X0225829Y0185132D01*
X0225943Y0185031D01*
X0226055Y0184926D01*
X0226164Y0184818D01*
X0226270Y0184707D01*
X0226374Y0184594D01*
X0226474Y0184478D01*
X0226572Y0184360D01*
X0226666Y0184239D01*
X0226757Y0184116D01*
X0226845Y0183990D01*
X0226929Y0183862D01*
X0227011Y0183732D01*
X0227088Y0183600D01*
X0227163Y0183466D01*
X0227234Y0183330D01*
X0227301Y0183192D01*
X0227365Y0183052D01*
X0227425Y0182911D01*
X0227481Y0182769D01*
X0227534Y0182625D01*
X0227583Y0182479D01*
X0227628Y0182333D01*
X0227669Y0182185D01*
X0227706Y0182037D01*
X0227740Y0181887D01*
X0227770Y0181736D01*
X0227795Y0181585D01*
X0227817Y0181434D01*
X0227835Y0181281D01*
X0227849Y0181129D01*
X0227859Y0180976D01*
X0227865Y0180822D01*
X0227867Y0180669D01*
X0227865Y0180516D01*
X0227859Y0180362D01*
X0227849Y0180209D01*
X0227835Y0180057D01*
X0227817Y0179904D01*
X0227795Y0179753D01*
X0227770Y0179602D01*
X0227740Y0179451D01*
X0227706Y0179301D01*
X0227669Y0179153D01*
X0227628Y0179005D01*
X0227583Y0178859D01*
X0227534Y0178713D01*
X0227481Y0178569D01*
X0227425Y0178427D01*
X0227365Y0178286D01*
X0227301Y0178146D01*
X0227234Y0178008D01*
X0227163Y0177872D01*
X0227088Y0177738D01*
X0227011Y0177606D01*
X0226929Y0177476D01*
X0226845Y0177348D01*
X0226757Y0177222D01*
X0226666Y0177099D01*
X0226572Y0176978D01*
X0226474Y0176860D01*
X0226374Y0176744D01*
X0226270Y0176631D01*
X0226164Y0176520D01*
X0226055Y0176412D01*
X0225943Y0176307D01*
X0225829Y0176206D01*
X0225711Y0176107D01*
X0225592Y0176011D01*
X0225470Y0175918D01*
X0225345Y0175829D01*
X0225218Y0175742D01*
X0225089Y0175660D01*
X0224958Y0175580D01*
X0224825Y0175504D01*
X0224690Y0175431D01*
X0224553Y0175362D01*
X0224414Y0175297D01*
X0224274Y0175235D01*
X0224132Y0175177D01*
X0223989Y0175122D01*
X0223844Y0175071D01*
X0223698Y0175024D01*
X0223551Y0174981D01*
X0223403Y0174942D01*
X0223254Y0174906D01*
X0223104Y0174875D01*
X0222953Y0174847D01*
X0222802Y0174823D01*
X0222649Y0174803D01*
X0222497Y0174787D01*
X0222344Y0174775D01*
X0222191Y0174767D01*
X0222038Y0174763D01*
X0221884Y0174763D01*
X0221731Y0174767D01*
X0221578Y0174775D01*
X0221425Y0174787D01*
X0221273Y0174803D01*
X0221120Y0174823D01*
X0220969Y0174847D01*
X0220818Y0174875D01*
X0220668Y0174906D01*
X0220519Y0174942D01*
X0220371Y0174981D01*
X0220224Y0175024D01*
X0220078Y0175071D01*
X0219933Y0175122D01*
X0219790Y0175177D01*
X0219648Y0175235D01*
X0219508Y0175297D01*
X0219369Y0175362D01*
X0219232Y0175431D01*
X0219097Y0175504D01*
X0218964Y0175580D01*
X0218833Y0175660D01*
X0218704Y0175742D01*
X0218577Y0175829D01*
X0218452Y0175918D01*
X0218330Y0176011D01*
X0218211Y0176107D01*
X0218093Y0176206D01*
X0217979Y0176307D01*
X0217867Y0176412D01*
X0217758Y0176520D01*
X0217652Y0176631D01*
X0217548Y0176744D01*
X0217448Y0176860D01*
X0217350Y0176978D01*
X0217256Y0177099D01*
X0217165Y0177222D01*
X0217077Y0177348D01*
X0216993Y0177476D01*
X0216911Y0177606D01*
X0216834Y0177738D01*
X0216759Y0177872D01*
X0216688Y0178008D01*
X0216621Y0178146D01*
X0216557Y0178286D01*
X0216497Y0178427D01*
X0216441Y0178569D01*
X0216388Y0178713D01*
X0216339Y0178859D01*
X0216294Y0179005D01*
X0216253Y0179153D01*
X0216216Y0179301D01*
X0216182Y0179451D01*
X0216152Y0179602D01*
X0216127Y0179753D01*
X0216105Y0179904D01*
X0216087Y0180057D01*
X0216073Y0180209D01*
X0216063Y0180362D01*
X0216057Y0180516D01*
X0216055Y0180669D01*
X0221961Y0196417D02*
X0222342Y0196412D01*
X0222722Y0196399D01*
X0223102Y0196376D01*
X0223481Y0196343D01*
X0223859Y0196302D01*
X0224236Y0196252D01*
X0224612Y0196192D01*
X0224987Y0196124D01*
X0225359Y0196046D01*
X0225730Y0195959D01*
X0226098Y0195864D01*
X0226464Y0195759D01*
X0226827Y0195646D01*
X0227188Y0195524D01*
X0227545Y0195394D01*
X0227899Y0195254D01*
X0228250Y0195107D01*
X0228597Y0194950D01*
X0228940Y0194786D01*
X0229279Y0194613D01*
X0229614Y0194432D01*
X0229945Y0194243D01*
X0230270Y0194046D01*
X0230591Y0193842D01*
X0230907Y0193629D01*
X0231217Y0193409D01*
X0231523Y0193182D01*
X0231822Y0192947D01*
X0232116Y0192705D01*
X0232404Y0192457D01*
X0232686Y0192201D01*
X0232961Y0191938D01*
X0233230Y0191669D01*
X0233493Y0191394D01*
X0233749Y0191112D01*
X0233997Y0190824D01*
X0234239Y0190530D01*
X0234474Y0190231D01*
X0234701Y0189925D01*
X0234921Y0189615D01*
X0235134Y0189299D01*
X0235338Y0188978D01*
X0235535Y0188653D01*
X0235724Y0188322D01*
X0235905Y0187987D01*
X0236078Y0187648D01*
X0236242Y0187305D01*
X0236399Y0186958D01*
X0236546Y0186607D01*
X0236686Y0186253D01*
X0236816Y0185896D01*
X0236938Y0185535D01*
X0237051Y0185172D01*
X0237156Y0184806D01*
X0237251Y0184438D01*
X0237338Y0184067D01*
X0237416Y0183695D01*
X0237484Y0183320D01*
X0237544Y0182944D01*
X0237594Y0182567D01*
X0237635Y0182189D01*
X0237668Y0181810D01*
X0237691Y0181430D01*
X0237704Y0181050D01*
X0237709Y0180669D01*
X0221961Y0196417D02*
X0029048Y0196417D01*
X0023142Y0180669D02*
X0023144Y0180822D01*
X0023150Y0180976D01*
X0023160Y0181129D01*
X0023174Y0181281D01*
X0023192Y0181434D01*
X0023214Y0181585D01*
X0023239Y0181736D01*
X0023269Y0181887D01*
X0023303Y0182037D01*
X0023340Y0182185D01*
X0023381Y0182333D01*
X0023426Y0182479D01*
X0023475Y0182625D01*
X0023528Y0182769D01*
X0023584Y0182911D01*
X0023644Y0183052D01*
X0023708Y0183192D01*
X0023775Y0183330D01*
X0023846Y0183466D01*
X0023921Y0183600D01*
X0023998Y0183732D01*
X0024080Y0183862D01*
X0024164Y0183990D01*
X0024252Y0184116D01*
X0024343Y0184239D01*
X0024437Y0184360D01*
X0024535Y0184478D01*
X0024635Y0184594D01*
X0024739Y0184707D01*
X0024845Y0184818D01*
X0024954Y0184926D01*
X0025066Y0185031D01*
X0025180Y0185132D01*
X0025298Y0185231D01*
X0025417Y0185327D01*
X0025539Y0185420D01*
X0025664Y0185509D01*
X0025791Y0185596D01*
X0025920Y0185678D01*
X0026051Y0185758D01*
X0026184Y0185834D01*
X0026319Y0185907D01*
X0026456Y0185976D01*
X0026595Y0186041D01*
X0026735Y0186103D01*
X0026877Y0186161D01*
X0027020Y0186216D01*
X0027165Y0186267D01*
X0027311Y0186314D01*
X0027458Y0186357D01*
X0027606Y0186396D01*
X0027755Y0186432D01*
X0027905Y0186463D01*
X0028056Y0186491D01*
X0028207Y0186515D01*
X0028360Y0186535D01*
X0028512Y0186551D01*
X0028665Y0186563D01*
X0028818Y0186571D01*
X0028971Y0186575D01*
X0029125Y0186575D01*
X0029278Y0186571D01*
X0029431Y0186563D01*
X0029584Y0186551D01*
X0029736Y0186535D01*
X0029889Y0186515D01*
X0030040Y0186491D01*
X0030191Y0186463D01*
X0030341Y0186432D01*
X0030490Y0186396D01*
X0030638Y0186357D01*
X0030785Y0186314D01*
X0030931Y0186267D01*
X0031076Y0186216D01*
X0031219Y0186161D01*
X0031361Y0186103D01*
X0031501Y0186041D01*
X0031640Y0185976D01*
X0031777Y0185907D01*
X0031912Y0185834D01*
X0032045Y0185758D01*
X0032176Y0185678D01*
X0032305Y0185596D01*
X0032432Y0185509D01*
X0032557Y0185420D01*
X0032679Y0185327D01*
X0032798Y0185231D01*
X0032916Y0185132D01*
X0033030Y0185031D01*
X0033142Y0184926D01*
X0033251Y0184818D01*
X0033357Y0184707D01*
X0033461Y0184594D01*
X0033561Y0184478D01*
X0033659Y0184360D01*
X0033753Y0184239D01*
X0033844Y0184116D01*
X0033932Y0183990D01*
X0034016Y0183862D01*
X0034098Y0183732D01*
X0034175Y0183600D01*
X0034250Y0183466D01*
X0034321Y0183330D01*
X0034388Y0183192D01*
X0034452Y0183052D01*
X0034512Y0182911D01*
X0034568Y0182769D01*
X0034621Y0182625D01*
X0034670Y0182479D01*
X0034715Y0182333D01*
X0034756Y0182185D01*
X0034793Y0182037D01*
X0034827Y0181887D01*
X0034857Y0181736D01*
X0034882Y0181585D01*
X0034904Y0181434D01*
X0034922Y0181281D01*
X0034936Y0181129D01*
X0034946Y0180976D01*
X0034952Y0180822D01*
X0034954Y0180669D01*
X0034952Y0180516D01*
X0034946Y0180362D01*
X0034936Y0180209D01*
X0034922Y0180057D01*
X0034904Y0179904D01*
X0034882Y0179753D01*
X0034857Y0179602D01*
X0034827Y0179451D01*
X0034793Y0179301D01*
X0034756Y0179153D01*
X0034715Y0179005D01*
X0034670Y0178859D01*
X0034621Y0178713D01*
X0034568Y0178569D01*
X0034512Y0178427D01*
X0034452Y0178286D01*
X0034388Y0178146D01*
X0034321Y0178008D01*
X0034250Y0177872D01*
X0034175Y0177738D01*
X0034098Y0177606D01*
X0034016Y0177476D01*
X0033932Y0177348D01*
X0033844Y0177222D01*
X0033753Y0177099D01*
X0033659Y0176978D01*
X0033561Y0176860D01*
X0033461Y0176744D01*
X0033357Y0176631D01*
X0033251Y0176520D01*
X0033142Y0176412D01*
X0033030Y0176307D01*
X0032916Y0176206D01*
X0032798Y0176107D01*
X0032679Y0176011D01*
X0032557Y0175918D01*
X0032432Y0175829D01*
X0032305Y0175742D01*
X0032176Y0175660D01*
X0032045Y0175580D01*
X0031912Y0175504D01*
X0031777Y0175431D01*
X0031640Y0175362D01*
X0031501Y0175297D01*
X0031361Y0175235D01*
X0031219Y0175177D01*
X0031076Y0175122D01*
X0030931Y0175071D01*
X0030785Y0175024D01*
X0030638Y0174981D01*
X0030490Y0174942D01*
X0030341Y0174906D01*
X0030191Y0174875D01*
X0030040Y0174847D01*
X0029889Y0174823D01*
X0029736Y0174803D01*
X0029584Y0174787D01*
X0029431Y0174775D01*
X0029278Y0174767D01*
X0029125Y0174763D01*
X0028971Y0174763D01*
X0028818Y0174767D01*
X0028665Y0174775D01*
X0028512Y0174787D01*
X0028360Y0174803D01*
X0028207Y0174823D01*
X0028056Y0174847D01*
X0027905Y0174875D01*
X0027755Y0174906D01*
X0027606Y0174942D01*
X0027458Y0174981D01*
X0027311Y0175024D01*
X0027165Y0175071D01*
X0027020Y0175122D01*
X0026877Y0175177D01*
X0026735Y0175235D01*
X0026595Y0175297D01*
X0026456Y0175362D01*
X0026319Y0175431D01*
X0026184Y0175504D01*
X0026051Y0175580D01*
X0025920Y0175660D01*
X0025791Y0175742D01*
X0025664Y0175829D01*
X0025539Y0175918D01*
X0025417Y0176011D01*
X0025298Y0176107D01*
X0025180Y0176206D01*
X0025066Y0176307D01*
X0024954Y0176412D01*
X0024845Y0176520D01*
X0024739Y0176631D01*
X0024635Y0176744D01*
X0024535Y0176860D01*
X0024437Y0176978D01*
X0024343Y0177099D01*
X0024252Y0177222D01*
X0024164Y0177348D01*
X0024080Y0177476D01*
X0023998Y0177606D01*
X0023921Y0177738D01*
X0023846Y0177872D01*
X0023775Y0178008D01*
X0023708Y0178146D01*
X0023644Y0178286D01*
X0023584Y0178427D01*
X0023528Y0178569D01*
X0023475Y0178713D01*
X0023426Y0178859D01*
X0023381Y0179005D01*
X0023340Y0179153D01*
X0023303Y0179301D01*
X0023269Y0179451D01*
X0023239Y0179602D01*
X0023214Y0179753D01*
X0023192Y0179904D01*
X0023174Y0180057D01*
X0023160Y0180209D01*
X0023150Y0180362D01*
X0023144Y0180516D01*
X0023142Y0180669D01*
X0013300Y0180669D02*
X0013305Y0181050D01*
X0013318Y0181430D01*
X0013341Y0181810D01*
X0013374Y0182189D01*
X0013415Y0182567D01*
X0013465Y0182944D01*
X0013525Y0183320D01*
X0013593Y0183695D01*
X0013671Y0184067D01*
X0013758Y0184438D01*
X0013853Y0184806D01*
X0013958Y0185172D01*
X0014071Y0185535D01*
X0014193Y0185896D01*
X0014323Y0186253D01*
X0014463Y0186607D01*
X0014610Y0186958D01*
X0014767Y0187305D01*
X0014931Y0187648D01*
X0015104Y0187987D01*
X0015285Y0188322D01*
X0015474Y0188653D01*
X0015671Y0188978D01*
X0015875Y0189299D01*
X0016088Y0189615D01*
X0016308Y0189925D01*
X0016535Y0190231D01*
X0016770Y0190530D01*
X0017012Y0190824D01*
X0017260Y0191112D01*
X0017516Y0191394D01*
X0017779Y0191669D01*
X0018048Y0191938D01*
X0018323Y0192201D01*
X0018605Y0192457D01*
X0018893Y0192705D01*
X0019187Y0192947D01*
X0019486Y0193182D01*
X0019792Y0193409D01*
X0020102Y0193629D01*
X0020418Y0193842D01*
X0020739Y0194046D01*
X0021064Y0194243D01*
X0021395Y0194432D01*
X0021730Y0194613D01*
X0022069Y0194786D01*
X0022412Y0194950D01*
X0022759Y0195107D01*
X0023110Y0195254D01*
X0023464Y0195394D01*
X0023821Y0195524D01*
X0024182Y0195646D01*
X0024545Y0195759D01*
X0024911Y0195864D01*
X0025279Y0195959D01*
X0025650Y0196046D01*
X0026022Y0196124D01*
X0026397Y0196192D01*
X0026773Y0196252D01*
X0027150Y0196302D01*
X0027528Y0196343D01*
X0027907Y0196376D01*
X0028287Y0196399D01*
X0028667Y0196412D01*
X0029048Y0196417D01*
X0013300Y0180669D02*
X0013300Y0050748D01*
X0023142Y0050748D02*
X0023144Y0050901D01*
X0023150Y0051055D01*
X0023160Y0051208D01*
X0023174Y0051360D01*
X0023192Y0051513D01*
X0023214Y0051664D01*
X0023239Y0051815D01*
X0023269Y0051966D01*
X0023303Y0052116D01*
X0023340Y0052264D01*
X0023381Y0052412D01*
X0023426Y0052558D01*
X0023475Y0052704D01*
X0023528Y0052848D01*
X0023584Y0052990D01*
X0023644Y0053131D01*
X0023708Y0053271D01*
X0023775Y0053409D01*
X0023846Y0053545D01*
X0023921Y0053679D01*
X0023998Y0053811D01*
X0024080Y0053941D01*
X0024164Y0054069D01*
X0024252Y0054195D01*
X0024343Y0054318D01*
X0024437Y0054439D01*
X0024535Y0054557D01*
X0024635Y0054673D01*
X0024739Y0054786D01*
X0024845Y0054897D01*
X0024954Y0055005D01*
X0025066Y0055110D01*
X0025180Y0055211D01*
X0025298Y0055310D01*
X0025417Y0055406D01*
X0025539Y0055499D01*
X0025664Y0055588D01*
X0025791Y0055675D01*
X0025920Y0055757D01*
X0026051Y0055837D01*
X0026184Y0055913D01*
X0026319Y0055986D01*
X0026456Y0056055D01*
X0026595Y0056120D01*
X0026735Y0056182D01*
X0026877Y0056240D01*
X0027020Y0056295D01*
X0027165Y0056346D01*
X0027311Y0056393D01*
X0027458Y0056436D01*
X0027606Y0056475D01*
X0027755Y0056511D01*
X0027905Y0056542D01*
X0028056Y0056570D01*
X0028207Y0056594D01*
X0028360Y0056614D01*
X0028512Y0056630D01*
X0028665Y0056642D01*
X0028818Y0056650D01*
X0028971Y0056654D01*
X0029125Y0056654D01*
X0029278Y0056650D01*
X0029431Y0056642D01*
X0029584Y0056630D01*
X0029736Y0056614D01*
X0029889Y0056594D01*
X0030040Y0056570D01*
X0030191Y0056542D01*
X0030341Y0056511D01*
X0030490Y0056475D01*
X0030638Y0056436D01*
X0030785Y0056393D01*
X0030931Y0056346D01*
X0031076Y0056295D01*
X0031219Y0056240D01*
X0031361Y0056182D01*
X0031501Y0056120D01*
X0031640Y0056055D01*
X0031777Y0055986D01*
X0031912Y0055913D01*
X0032045Y0055837D01*
X0032176Y0055757D01*
X0032305Y0055675D01*
X0032432Y0055588D01*
X0032557Y0055499D01*
X0032679Y0055406D01*
X0032798Y0055310D01*
X0032916Y0055211D01*
X0033030Y0055110D01*
X0033142Y0055005D01*
X0033251Y0054897D01*
X0033357Y0054786D01*
X0033461Y0054673D01*
X0033561Y0054557D01*
X0033659Y0054439D01*
X0033753Y0054318D01*
X0033844Y0054195D01*
X0033932Y0054069D01*
X0034016Y0053941D01*
X0034098Y0053811D01*
X0034175Y0053679D01*
X0034250Y0053545D01*
X0034321Y0053409D01*
X0034388Y0053271D01*
X0034452Y0053131D01*
X0034512Y0052990D01*
X0034568Y0052848D01*
X0034621Y0052704D01*
X0034670Y0052558D01*
X0034715Y0052412D01*
X0034756Y0052264D01*
X0034793Y0052116D01*
X0034827Y0051966D01*
X0034857Y0051815D01*
X0034882Y0051664D01*
X0034904Y0051513D01*
X0034922Y0051360D01*
X0034936Y0051208D01*
X0034946Y0051055D01*
X0034952Y0050901D01*
X0034954Y0050748D01*
X0034952Y0050595D01*
X0034946Y0050441D01*
X0034936Y0050288D01*
X0034922Y0050136D01*
X0034904Y0049983D01*
X0034882Y0049832D01*
X0034857Y0049681D01*
X0034827Y0049530D01*
X0034793Y0049380D01*
X0034756Y0049232D01*
X0034715Y0049084D01*
X0034670Y0048938D01*
X0034621Y0048792D01*
X0034568Y0048648D01*
X0034512Y0048506D01*
X0034452Y0048365D01*
X0034388Y0048225D01*
X0034321Y0048087D01*
X0034250Y0047951D01*
X0034175Y0047817D01*
X0034098Y0047685D01*
X0034016Y0047555D01*
X0033932Y0047427D01*
X0033844Y0047301D01*
X0033753Y0047178D01*
X0033659Y0047057D01*
X0033561Y0046939D01*
X0033461Y0046823D01*
X0033357Y0046710D01*
X0033251Y0046599D01*
X0033142Y0046491D01*
X0033030Y0046386D01*
X0032916Y0046285D01*
X0032798Y0046186D01*
X0032679Y0046090D01*
X0032557Y0045997D01*
X0032432Y0045908D01*
X0032305Y0045821D01*
X0032176Y0045739D01*
X0032045Y0045659D01*
X0031912Y0045583D01*
X0031777Y0045510D01*
X0031640Y0045441D01*
X0031501Y0045376D01*
X0031361Y0045314D01*
X0031219Y0045256D01*
X0031076Y0045201D01*
X0030931Y0045150D01*
X0030785Y0045103D01*
X0030638Y0045060D01*
X0030490Y0045021D01*
X0030341Y0044985D01*
X0030191Y0044954D01*
X0030040Y0044926D01*
X0029889Y0044902D01*
X0029736Y0044882D01*
X0029584Y0044866D01*
X0029431Y0044854D01*
X0029278Y0044846D01*
X0029125Y0044842D01*
X0028971Y0044842D01*
X0028818Y0044846D01*
X0028665Y0044854D01*
X0028512Y0044866D01*
X0028360Y0044882D01*
X0028207Y0044902D01*
X0028056Y0044926D01*
X0027905Y0044954D01*
X0027755Y0044985D01*
X0027606Y0045021D01*
X0027458Y0045060D01*
X0027311Y0045103D01*
X0027165Y0045150D01*
X0027020Y0045201D01*
X0026877Y0045256D01*
X0026735Y0045314D01*
X0026595Y0045376D01*
X0026456Y0045441D01*
X0026319Y0045510D01*
X0026184Y0045583D01*
X0026051Y0045659D01*
X0025920Y0045739D01*
X0025791Y0045821D01*
X0025664Y0045908D01*
X0025539Y0045997D01*
X0025417Y0046090D01*
X0025298Y0046186D01*
X0025180Y0046285D01*
X0025066Y0046386D01*
X0024954Y0046491D01*
X0024845Y0046599D01*
X0024739Y0046710D01*
X0024635Y0046823D01*
X0024535Y0046939D01*
X0024437Y0047057D01*
X0024343Y0047178D01*
X0024252Y0047301D01*
X0024164Y0047427D01*
X0024080Y0047555D01*
X0023998Y0047685D01*
X0023921Y0047817D01*
X0023846Y0047951D01*
X0023775Y0048087D01*
X0023708Y0048225D01*
X0023644Y0048365D01*
X0023584Y0048506D01*
X0023528Y0048648D01*
X0023475Y0048792D01*
X0023426Y0048938D01*
X0023381Y0049084D01*
X0023340Y0049232D01*
X0023303Y0049380D01*
X0023269Y0049530D01*
X0023239Y0049681D01*
X0023214Y0049832D01*
X0023192Y0049983D01*
X0023174Y0050136D01*
X0023160Y0050288D01*
X0023150Y0050441D01*
X0023144Y0050595D01*
X0023142Y0050748D01*
X0013300Y0050748D02*
X0013305Y0050367D01*
X0013318Y0049987D01*
X0013341Y0049607D01*
X0013374Y0049228D01*
X0013415Y0048850D01*
X0013465Y0048473D01*
X0013525Y0048097D01*
X0013593Y0047722D01*
X0013671Y0047350D01*
X0013758Y0046979D01*
X0013853Y0046611D01*
X0013958Y0046245D01*
X0014071Y0045882D01*
X0014193Y0045521D01*
X0014323Y0045164D01*
X0014463Y0044810D01*
X0014610Y0044459D01*
X0014767Y0044112D01*
X0014931Y0043769D01*
X0015104Y0043430D01*
X0015285Y0043095D01*
X0015474Y0042764D01*
X0015671Y0042439D01*
X0015875Y0042118D01*
X0016088Y0041802D01*
X0016308Y0041492D01*
X0016535Y0041186D01*
X0016770Y0040887D01*
X0017012Y0040593D01*
X0017260Y0040305D01*
X0017516Y0040023D01*
X0017779Y0039748D01*
X0018048Y0039479D01*
X0018323Y0039216D01*
X0018605Y0038960D01*
X0018893Y0038712D01*
X0019187Y0038470D01*
X0019486Y0038235D01*
X0019792Y0038008D01*
X0020102Y0037788D01*
X0020418Y0037575D01*
X0020739Y0037371D01*
X0021064Y0037174D01*
X0021395Y0036985D01*
X0021730Y0036804D01*
X0022069Y0036631D01*
X0022412Y0036467D01*
X0022759Y0036310D01*
X0023110Y0036163D01*
X0023464Y0036023D01*
X0023821Y0035893D01*
X0024182Y0035771D01*
X0024545Y0035658D01*
X0024911Y0035553D01*
X0025279Y0035458D01*
X0025650Y0035371D01*
X0026022Y0035293D01*
X0026397Y0035225D01*
X0026773Y0035165D01*
X0027150Y0035115D01*
X0027528Y0035074D01*
X0027907Y0035041D01*
X0028287Y0035018D01*
X0028667Y0035005D01*
X0029048Y0035000D01*
D11*
X0108300Y0052000D02*
X0108300Y0058000D01*
X0118300Y0058000D02*
X0118300Y0052000D01*
X0128300Y0052000D02*
X0128300Y0058000D01*
X0138300Y0058000D02*
X0138300Y0052000D01*
X0215300Y0100000D02*
X0221300Y0100000D01*
X0221300Y0110000D02*
X0215300Y0110000D01*
X0215300Y0125000D02*
X0221300Y0125000D01*
X0221300Y0135000D02*
X0215300Y0135000D01*
X0200800Y0172000D02*
X0200800Y0178000D01*
X0190800Y0178000D02*
X0190800Y0172000D01*
X0180800Y0172000D02*
X0180800Y0178000D01*
X0160800Y0178000D02*
X0160800Y0172000D01*
X0150800Y0172000D02*
X0150800Y0178000D01*
X0140800Y0178000D02*
X0140800Y0172000D01*
X0120800Y0172000D02*
X0120800Y0178000D01*
X0110800Y0178000D02*
X0110800Y0172000D01*
X0080800Y0172000D02*
X0080800Y0178000D01*
X0070800Y0178000D02*
X0070800Y0172000D01*
D12*
X0080800Y0163346D03*
X0080800Y0156654D03*
X0115800Y0156654D03*
X0115800Y0163346D03*
X0150800Y0163346D03*
X0150800Y0156654D03*
X0190800Y0156654D03*
X0190800Y0163346D03*
X0190800Y0095846D03*
X0190800Y0089154D03*
X0158300Y0089154D03*
X0158300Y0095846D03*
X0118300Y0095846D03*
X0118300Y0089154D03*
X0075800Y0089154D03*
X0075800Y0095846D03*
D13*
X0077454Y0102500D03*
X0084146Y0102500D03*
X0092454Y0102500D03*
X0099146Y0102500D03*
X0108300Y0095846D03*
X0108300Y0089154D03*
X0100800Y0075846D03*
X0100800Y0069154D03*
X0065800Y0089154D03*
X0065800Y0095846D03*
X0059146Y0102500D03*
X0052454Y0102500D03*
X0117454Y0102500D03*
X0124146Y0102500D03*
X0132454Y0102500D03*
X0139146Y0102500D03*
X0148300Y0095846D03*
X0148300Y0089154D03*
X0145800Y0075846D03*
X0145800Y0069154D03*
X0180800Y0089154D03*
X0180800Y0095846D03*
X0179146Y0102500D03*
X0172454Y0102500D03*
X0164146Y0102500D03*
X0157454Y0102500D03*
X0197454Y0102500D03*
X0204146Y0102500D03*
D14*
X0137000Y0077600D03*
X0133300Y0077600D03*
X0129600Y0077600D03*
X0129600Y0067400D03*
X0133300Y0067400D03*
X0137000Y0067400D03*
X0117000Y0067400D03*
X0113300Y0067400D03*
X0109600Y0067400D03*
X0109600Y0077600D03*
X0113300Y0077600D03*
X0117000Y0077600D03*
D15*
X0117020Y0112539D03*
X0117020Y0121201D03*
X0117020Y0129862D03*
X0117020Y0142461D03*
X0134580Y0142461D03*
X0134580Y0129862D03*
X0134580Y0121201D03*
X0134580Y0112539D03*
X0157020Y0112539D03*
X0157020Y0121201D03*
X0157020Y0129862D03*
X0157020Y0142461D03*
X0177080Y0142461D03*
X0177080Y0129862D03*
X0177080Y0121201D03*
X0177080Y0112539D03*
X0199520Y0112539D03*
X0199520Y0121201D03*
X0199520Y0129862D03*
X0199520Y0142461D03*
X0094580Y0142461D03*
X0094580Y0129862D03*
X0094580Y0121201D03*
X0094580Y0112539D03*
X0079520Y0112539D03*
X0079520Y0121201D03*
X0079520Y0129862D03*
X0079520Y0142461D03*
X0057080Y0142461D03*
X0057080Y0129862D03*
X0057080Y0121201D03*
X0057080Y0112539D03*
D16*
X0065347Y0102500D03*
X0071253Y0102500D03*
X0105347Y0102500D03*
X0111253Y0102500D03*
X0145347Y0102500D03*
X0151253Y0102500D03*
X0185347Y0102500D03*
X0191253Y0102500D03*
D17*
X0044925Y0105709D02*
X0036675Y0105709D01*
X0036675Y0125709D02*
X0044925Y0125709D01*
D18*
X0058300Y0153839D03*
X0058300Y0171161D03*
X0095800Y0171161D03*
X0095800Y0153839D03*
X0130800Y0153839D03*
X0130800Y0171161D03*
X0170800Y0171161D03*
X0170800Y0153839D03*
D19*
X0221961Y0157047D03*
X0221961Y0074370D03*
X0029048Y0074370D03*
X0029048Y0157047D03*
D20*
X0026019Y0155820D02*
X0017800Y0155820D01*
X0017800Y0156818D02*
X0025780Y0156818D01*
X0025780Y0156397D02*
X0025780Y0157697D01*
X0026277Y0158899D01*
X0027197Y0159818D01*
X0028398Y0160316D01*
X0029698Y0160316D01*
X0030899Y0159818D01*
X0031819Y0158899D01*
X0032317Y0157697D01*
X0032317Y0156397D01*
X0031819Y0155196D01*
X0030899Y0154276D01*
X0029698Y0153779D01*
X0028398Y0153779D01*
X0027197Y0154276D01*
X0026277Y0155196D01*
X0025780Y0156397D01*
X0025829Y0157817D02*
X0017800Y0157817D01*
X0017800Y0158815D02*
X0026243Y0158815D01*
X0027192Y0159814D02*
X0017800Y0159814D01*
X0017800Y0160812D02*
X0038700Y0160812D01*
X0038700Y0159814D02*
X0030904Y0159814D01*
X0031853Y0158815D02*
X0038700Y0158815D01*
X0038700Y0157817D02*
X0032267Y0157817D01*
X0032317Y0156818D02*
X0038700Y0156818D01*
X0038700Y0155820D02*
X0032077Y0155820D01*
X0031445Y0154821D02*
X0038700Y0154821D01*
X0038700Y0153823D02*
X0029805Y0153823D01*
X0028291Y0153823D02*
X0017800Y0153823D01*
X0017800Y0154821D02*
X0026652Y0154821D01*
X0017800Y0152824D02*
X0038700Y0152824D01*
X0038700Y0151826D02*
X0017800Y0151826D01*
X0017800Y0150827D02*
X0038700Y0150827D01*
X0038700Y0149829D02*
X0017800Y0149829D01*
X0017800Y0148830D02*
X0038700Y0148830D01*
X0038700Y0147832D02*
X0017800Y0147832D01*
X0017800Y0146833D02*
X0038700Y0146833D01*
X0038700Y0145835D02*
X0017800Y0145835D01*
X0017800Y0144836D02*
X0038700Y0144836D01*
X0038700Y0143838D02*
X0017800Y0143838D01*
X0017800Y0142839D02*
X0038700Y0142839D01*
X0038700Y0141841D02*
X0017800Y0141841D01*
X0017800Y0140842D02*
X0038700Y0140842D01*
X0038700Y0139844D02*
X0017800Y0139844D01*
X0017800Y0138845D02*
X0038700Y0138845D01*
X0038700Y0137847D02*
X0017800Y0137847D01*
X0017800Y0136848D02*
X0038700Y0136848D01*
X0038700Y0135850D02*
X0017800Y0135850D01*
X0017800Y0134851D02*
X0038700Y0134851D01*
X0038700Y0133853D02*
X0017800Y0133853D01*
X0017800Y0132854D02*
X0038700Y0132854D01*
X0038700Y0131856D02*
X0017800Y0131856D01*
X0017800Y0130857D02*
X0034928Y0130857D01*
X0035596Y0131134D02*
X0033602Y0130308D01*
X0032076Y0128782D01*
X0031250Y0126788D01*
X0031250Y0124630D01*
X0032076Y0122636D01*
X0033602Y0121110D01*
X0035596Y0120284D01*
X0046004Y0120284D01*
X0047998Y0121110D01*
X0049524Y0122636D01*
X0050350Y0124630D01*
X0050350Y0126788D01*
X0049524Y0128782D01*
X0047998Y0130308D01*
X0046004Y0131134D01*
X0042900Y0131134D01*
X0042900Y0164130D01*
X0049170Y0170400D01*
X0050400Y0171630D01*
X0050400Y0179130D01*
X0054170Y0182900D01*
X0062430Y0182900D01*
X0066500Y0178830D01*
X0066500Y0171145D01*
X0067155Y0169564D01*
X0068364Y0168355D01*
X0069945Y0167700D01*
X0071655Y0167700D01*
X0073236Y0168355D01*
X0074445Y0169564D01*
X0075100Y0171145D01*
X0075100Y0178855D01*
X0074445Y0180436D01*
X0073236Y0181645D01*
X0071655Y0182300D01*
X0069945Y0182300D01*
X0069255Y0182014D01*
X0068370Y0182900D01*
X0102430Y0182900D01*
X0106500Y0178830D01*
X0106500Y0171145D01*
X0107155Y0169564D01*
X0108364Y0168355D01*
X0109945Y0167700D01*
X0111655Y0167700D01*
X0113236Y0168355D01*
X0114445Y0169564D01*
X0115100Y0171145D01*
X0115100Y0178855D01*
X0114445Y0180436D01*
X0113236Y0181645D01*
X0111655Y0182300D01*
X0109945Y0182300D01*
X0109255Y0182014D01*
X0108370Y0182900D01*
X0132430Y0182900D01*
X0136500Y0178830D01*
X0136500Y0177032D01*
X0136445Y0177086D01*
X0136103Y0177284D01*
X0135722Y0177386D01*
X0131300Y0177386D01*
X0131300Y0171661D01*
X0130300Y0171661D01*
X0130300Y0177386D01*
X0125878Y0177386D01*
X0125497Y0177284D01*
X0125155Y0177086D01*
X0125100Y0177032D01*
X0125100Y0178855D01*
X0124445Y0180436D01*
X0123236Y0181645D01*
X0121655Y0182300D01*
X0119945Y0182300D01*
X0118364Y0181645D01*
X0117155Y0180436D01*
X0116500Y0178855D01*
X0116500Y0171145D01*
X0117155Y0169564D01*
X0118364Y0168355D01*
X0118891Y0168136D01*
X0117369Y0166615D01*
X0113096Y0166615D01*
X0112335Y0165853D01*
X0112335Y0160839D01*
X0113096Y0160078D01*
X0118504Y0160078D01*
X0119265Y0160839D01*
X0119265Y0163420D01*
X0122600Y0166754D01*
X0122600Y0168091D01*
X0123236Y0168355D01*
X0124445Y0169564D01*
X0124576Y0169879D01*
X0124576Y0166240D01*
X0124678Y0165858D01*
X0124875Y0165516D01*
X0125155Y0165237D01*
X0125497Y0165039D01*
X0125878Y0164937D01*
X0130300Y0164937D01*
X0130300Y0170661D01*
X0131300Y0170661D01*
X0131300Y0164937D01*
X0135722Y0164937D01*
X0136103Y0165039D01*
X0136445Y0165237D01*
X0136725Y0165516D01*
X0136922Y0165858D01*
X0137024Y0166240D01*
X0137024Y0169879D01*
X0137155Y0169564D01*
X0138364Y0168355D01*
X0139945Y0167700D01*
X0141655Y0167700D01*
X0143236Y0168355D01*
X0144445Y0169564D01*
X0145100Y0171145D01*
X0145100Y0178855D01*
X0144445Y0180436D01*
X0143236Y0181645D01*
X0141655Y0182300D01*
X0139945Y0182300D01*
X0139255Y0182014D01*
X0138370Y0182900D01*
X0172430Y0182900D01*
X0176500Y0178830D01*
X0176500Y0177032D01*
X0176445Y0177086D01*
X0176103Y0177284D01*
X0175722Y0177386D01*
X0171300Y0177386D01*
X0171300Y0171661D01*
X0170300Y0171661D01*
X0170300Y0177386D01*
X0165878Y0177386D01*
X0165497Y0177284D01*
X0165300Y0177170D01*
X0165300Y0178354D01*
X0165189Y0179054D01*
X0164970Y0179727D01*
X0164649Y0180359D01*
X0164232Y0180932D01*
X0163732Y0181432D01*
X0163159Y0181849D01*
X0162527Y0182170D01*
X0161854Y0182389D01*
X0161300Y0182477D01*
X0161300Y0175500D01*
X0160300Y0175500D01*
X0160300Y0182477D01*
X0159746Y0182389D01*
X0159073Y0182170D01*
X0158441Y0181849D01*
X0157868Y0181432D01*
X0157368Y0180932D01*
X0156951Y0180359D01*
X0156630Y0179727D01*
X0156411Y0179054D01*
X0156300Y0178354D01*
X0156300Y0175500D01*
X0160300Y0175500D01*
X0160300Y0174500D01*
X0161300Y0174500D01*
X0161300Y0167523D01*
X0161854Y0167611D01*
X0162527Y0167830D01*
X0163159Y0168151D01*
X0163732Y0168568D01*
X0164232Y0169068D01*
X0164576Y0169541D01*
X0164576Y0166240D01*
X0164678Y0165858D01*
X0164875Y0165516D01*
X0165155Y0165237D01*
X0165497Y0165039D01*
X0165878Y0164937D01*
X0170300Y0164937D01*
X0170300Y0170661D01*
X0171300Y0170661D01*
X0171300Y0164937D01*
X0175722Y0164937D01*
X0176103Y0165039D01*
X0176445Y0165237D01*
X0176725Y0165516D01*
X0176922Y0165858D01*
X0177024Y0166240D01*
X0177024Y0169879D01*
X0177155Y0169564D01*
X0178364Y0168355D01*
X0179945Y0167700D01*
X0181655Y0167700D01*
X0183236Y0168355D01*
X0184445Y0169564D01*
X0185100Y0171145D01*
X0185100Y0178855D01*
X0184445Y0180436D01*
X0183236Y0181645D01*
X0181655Y0182300D01*
X0179945Y0182300D01*
X0179255Y0182014D01*
X0174170Y0187100D01*
X0052430Y0187100D01*
X0051200Y0185870D01*
X0046200Y0180870D01*
X0046200Y0173370D01*
X0038700Y0165870D01*
X0038700Y0131134D01*
X0035596Y0131134D01*
X0033153Y0129859D02*
X0017800Y0129859D01*
X0017800Y0128860D02*
X0032154Y0128860D01*
X0031695Y0127862D02*
X0017800Y0127862D01*
X0017800Y0126863D02*
X0031281Y0126863D01*
X0031250Y0125865D02*
X0017800Y0125865D01*
X0017800Y0124866D02*
X0031250Y0124866D01*
X0031566Y0123868D02*
X0017800Y0123868D01*
X0017800Y0122869D02*
X0031979Y0122869D01*
X0032841Y0121870D02*
X0017800Y0121870D01*
X0017800Y0120872D02*
X0034176Y0120872D01*
X0035358Y0111195D02*
X0034516Y0110922D01*
X0033727Y0110520D01*
X0033011Y0109999D01*
X0032384Y0109373D01*
X0031864Y0108657D01*
X0031462Y0107868D01*
X0031189Y0107026D01*
X0031059Y0106209D01*
X0040300Y0106209D01*
X0040300Y0111334D01*
X0036232Y0111334D01*
X0035358Y0111195D01*
X0034448Y0110887D02*
X0017800Y0110887D01*
X0017800Y0111885D02*
X0052236Y0111885D01*
X0052236Y0110887D02*
X0047152Y0110887D01*
X0047084Y0110922D02*
X0046242Y0111195D01*
X0045368Y0111334D01*
X0041300Y0111334D01*
X0041300Y0106209D01*
X0040300Y0106209D01*
X0040300Y0105209D01*
X0031059Y0105209D01*
X0031189Y0104391D01*
X0031462Y0103549D01*
X0031864Y0102761D01*
X0032384Y0102044D01*
X0033011Y0101418D01*
X0033727Y0100898D01*
X0034516Y0100496D01*
X0035358Y0100222D01*
X0036232Y0100084D01*
X0040300Y0100084D01*
X0040300Y0105209D01*
X0041300Y0105209D01*
X0041300Y0106209D01*
X0050541Y0106209D01*
X0050411Y0107026D01*
X0050138Y0107868D01*
X0049736Y0108657D01*
X0049216Y0109373D01*
X0048589Y0109999D01*
X0047873Y0110520D01*
X0047084Y0110922D01*
X0048700Y0109888D02*
X0052236Y0109888D01*
X0052236Y0109639D02*
X0052998Y0108877D01*
X0061161Y0108877D01*
X0061923Y0109639D01*
X0061923Y0110700D01*
X0066546Y0110700D01*
X0074677Y0118832D01*
X0074677Y0118300D01*
X0075439Y0117539D01*
X0083602Y0117539D01*
X0084364Y0118300D01*
X0084364Y0124101D01*
X0083602Y0124863D01*
X0075439Y0124863D01*
X0074677Y0124101D01*
X0074677Y0123001D01*
X0073755Y0123001D01*
X0072701Y0121946D01*
X0065054Y0114300D01*
X0061923Y0114300D01*
X0061923Y0115440D01*
X0061161Y0116202D01*
X0052998Y0116202D01*
X0052236Y0115440D01*
X0052236Y0109639D01*
X0052985Y0108890D02*
X0049567Y0108890D01*
X0050126Y0107891D02*
X0075654Y0107891D01*
X0075654Y0108877D02*
X0075654Y0105965D01*
X0074947Y0105965D01*
X0074185Y0105204D01*
X0074185Y0104300D01*
X0074128Y0104300D01*
X0074128Y0104613D01*
X0073366Y0105375D01*
X0069139Y0105375D01*
X0068378Y0104613D01*
X0068378Y0100387D01*
X0069139Y0099625D01*
X0073366Y0099625D01*
X0074128Y0100387D01*
X0074128Y0100700D01*
X0074185Y0100700D01*
X0074185Y0099796D01*
X0074866Y0099115D01*
X0073096Y0099115D01*
X0072335Y0098353D01*
X0072335Y0093339D01*
X0073096Y0092578D01*
X0078504Y0092578D01*
X0079265Y0093339D01*
X0079265Y0098353D01*
X0079254Y0098365D01*
X0079254Y0099035D01*
X0079961Y0099035D01*
X0080722Y0099796D01*
X0080722Y0105204D01*
X0079961Y0105965D01*
X0079254Y0105965D01*
X0079254Y0108877D01*
X0083602Y0108877D01*
X0084364Y0109639D01*
X0084364Y0115440D01*
X0083602Y0116202D01*
X0075439Y0116202D01*
X0074677Y0115440D01*
X0074677Y0109639D01*
X0075439Y0108877D01*
X0075654Y0108877D01*
X0075426Y0108890D02*
X0061174Y0108890D01*
X0061923Y0109888D02*
X0074677Y0109888D01*
X0074677Y0110887D02*
X0066732Y0110887D01*
X0067731Y0111885D02*
X0074677Y0111885D01*
X0074677Y0112884D02*
X0068729Y0112884D01*
X0069728Y0113882D02*
X0074677Y0113882D01*
X0074677Y0114881D02*
X0070726Y0114881D01*
X0071725Y0115879D02*
X0075117Y0115879D01*
X0075101Y0117876D02*
X0073722Y0117876D01*
X0072723Y0116878D02*
X0105132Y0116878D01*
X0104134Y0115879D02*
X0098983Y0115879D01*
X0098661Y0116202D02*
X0090498Y0116202D01*
X0089736Y0115440D01*
X0089736Y0109639D01*
X0090498Y0108877D01*
X0098661Y0108877D01*
X0099423Y0109639D01*
X0099423Y0110739D01*
X0104085Y0110739D01*
X0112177Y0118832D01*
X0112177Y0118300D01*
X0112939Y0117539D01*
X0121102Y0117539D01*
X0121864Y0118300D01*
X0121864Y0124101D01*
X0121102Y0124863D01*
X0112939Y0124863D01*
X0112177Y0124101D01*
X0112177Y0123001D01*
X0111255Y0123001D01*
X0110201Y0121946D01*
X0102594Y0114339D01*
X0099423Y0114339D01*
X0099423Y0115440D01*
X0098661Y0116202D01*
X0098320Y0117339D02*
X0098702Y0117441D01*
X0099044Y0117638D01*
X0099323Y0117918D01*
X0099521Y0118260D01*
X0099623Y0118641D01*
X0099623Y0120701D01*
X0095080Y0120701D01*
X0095080Y0121701D01*
X0099623Y0121701D01*
X0099623Y0123760D01*
X0099521Y0124142D01*
X0099323Y0124484D01*
X0099044Y0124763D01*
X0098702Y0124961D01*
X0098320Y0125063D01*
X0095079Y0125063D01*
X0095079Y0121701D01*
X0094080Y0121701D01*
X0094080Y0125063D01*
X0090839Y0125063D01*
X0090457Y0124961D01*
X0090115Y0124763D01*
X0089836Y0124484D01*
X0089638Y0124142D01*
X0089536Y0123760D01*
X0089536Y0121701D01*
X0094079Y0121701D01*
X0094079Y0120701D01*
X0089536Y0120701D01*
X0089536Y0118641D01*
X0089638Y0118260D01*
X0089836Y0117918D01*
X0090115Y0117638D01*
X0090457Y0117441D01*
X0090839Y0117339D01*
X0094080Y0117339D01*
X0094080Y0120701D01*
X0095079Y0120701D01*
X0095079Y0117339D01*
X0098320Y0117339D01*
X0099282Y0117876D02*
X0106131Y0117876D01*
X0107129Y0118875D02*
X0099623Y0118875D01*
X0099623Y0119873D02*
X0108128Y0119873D01*
X0109126Y0120872D02*
X0095080Y0120872D01*
X0095079Y0121870D02*
X0094080Y0121870D01*
X0094079Y0120872D02*
X0084364Y0120872D01*
X0084364Y0121870D02*
X0089536Y0121870D01*
X0089536Y0122869D02*
X0084364Y0122869D01*
X0084364Y0123868D02*
X0089565Y0123868D01*
X0090293Y0124866D02*
X0061366Y0124866D01*
X0061202Y0124961D02*
X0060820Y0125063D01*
X0057579Y0125063D01*
X0057579Y0121701D01*
X0056580Y0121701D01*
X0056580Y0125063D01*
X0053339Y0125063D01*
X0052957Y0124961D01*
X0052615Y0124763D01*
X0052336Y0124484D01*
X0052138Y0124142D01*
X0052036Y0123760D01*
X0052036Y0121701D01*
X0056579Y0121701D01*
X0056579Y0120701D01*
X0052036Y0120701D01*
X0052036Y0118641D01*
X0052138Y0118260D01*
X0052336Y0117918D01*
X0052615Y0117638D01*
X0052957Y0117441D01*
X0053339Y0117339D01*
X0056580Y0117339D01*
X0056580Y0120701D01*
X0057579Y0120701D01*
X0057579Y0117339D01*
X0060820Y0117339D01*
X0061202Y0117441D01*
X0061544Y0117638D01*
X0061823Y0117918D01*
X0062021Y0118260D01*
X0062123Y0118641D01*
X0062123Y0120701D01*
X0057580Y0120701D01*
X0057580Y0121701D01*
X0062123Y0121701D01*
X0062123Y0123760D01*
X0062021Y0124142D01*
X0061823Y0124484D01*
X0061544Y0124763D01*
X0061202Y0124961D01*
X0061161Y0126200D02*
X0061923Y0126962D01*
X0061923Y0132763D01*
X0061161Y0133524D01*
X0052998Y0133524D01*
X0052236Y0132763D01*
X0052236Y0126962D01*
X0052998Y0126200D01*
X0061161Y0126200D01*
X0061824Y0126863D02*
X0074776Y0126863D01*
X0074677Y0126962D02*
X0075439Y0126200D01*
X0083602Y0126200D01*
X0084364Y0126962D01*
X0084364Y0132763D01*
X0083602Y0133524D01*
X0075439Y0133524D01*
X0074677Y0132763D01*
X0074677Y0126962D01*
X0074677Y0127862D02*
X0061923Y0127862D01*
X0061923Y0128860D02*
X0074677Y0128860D01*
X0074677Y0129859D02*
X0061923Y0129859D01*
X0061923Y0130857D02*
X0074677Y0130857D01*
X0074677Y0131856D02*
X0061923Y0131856D01*
X0061832Y0132854D02*
X0074768Y0132854D01*
X0075780Y0138598D02*
X0079020Y0138598D01*
X0079020Y0141961D01*
X0074477Y0141961D01*
X0074477Y0139901D01*
X0074579Y0139519D01*
X0074777Y0139177D01*
X0075056Y0138898D01*
X0075398Y0138701D01*
X0075780Y0138598D01*
X0075148Y0138845D02*
X0061208Y0138845D01*
X0061161Y0138798D02*
X0061923Y0139560D01*
X0061923Y0145361D01*
X0061161Y0146123D01*
X0060100Y0146123D01*
X0060100Y0147814D01*
X0063563Y0147814D01*
X0064324Y0148576D01*
X0064324Y0152039D01*
X0078731Y0152039D01*
X0080077Y0153385D01*
X0083504Y0153385D01*
X0084265Y0154147D01*
X0084265Y0159161D01*
X0083504Y0159922D01*
X0078096Y0159922D01*
X0077335Y0159161D01*
X0077335Y0155734D01*
X0077239Y0155639D01*
X0064324Y0155639D01*
X0064324Y0159101D01*
X0063563Y0159863D01*
X0053037Y0159863D01*
X0052276Y0159101D01*
X0052276Y0148576D01*
X0053037Y0147814D01*
X0056500Y0147814D01*
X0056500Y0146123D01*
X0052998Y0146123D01*
X0052236Y0145361D01*
X0052236Y0139560D01*
X0052998Y0138798D01*
X0061161Y0138798D01*
X0061923Y0139844D02*
X0074492Y0139844D01*
X0074477Y0140842D02*
X0061923Y0140842D01*
X0061923Y0141841D02*
X0074477Y0141841D01*
X0074477Y0142961D02*
X0079020Y0142961D01*
X0079020Y0141961D01*
X0080020Y0141961D01*
X0080020Y0138598D01*
X0083261Y0138598D01*
X0083643Y0138701D01*
X0083985Y0138898D01*
X0084264Y0139177D01*
X0084462Y0139519D01*
X0084564Y0139901D01*
X0084564Y0141961D01*
X0080021Y0141961D01*
X0080021Y0142961D01*
X0084564Y0142961D01*
X0084564Y0145020D01*
X0084462Y0145402D01*
X0084264Y0145744D01*
X0083985Y0146023D01*
X0083643Y0146221D01*
X0083261Y0146323D01*
X0080020Y0146323D01*
X0080020Y0142961D01*
X0079020Y0142961D01*
X0079020Y0146323D01*
X0075780Y0146323D01*
X0075398Y0146221D01*
X0075056Y0146023D01*
X0074777Y0145744D01*
X0074579Y0145402D01*
X0074477Y0145020D01*
X0074477Y0142961D01*
X0074477Y0143838D02*
X0061923Y0143838D01*
X0061923Y0144836D02*
X0074477Y0144836D01*
X0074868Y0145835D02*
X0061449Y0145835D01*
X0060100Y0146833D02*
X0094000Y0146833D01*
X0094000Y0146123D02*
X0090498Y0146123D01*
X0089736Y0145361D01*
X0089736Y0139560D01*
X0090498Y0138798D01*
X0098661Y0138798D01*
X0099423Y0139560D01*
X0099423Y0145361D01*
X0098661Y0146123D01*
X0097600Y0146123D01*
X0097600Y0147814D01*
X0101063Y0147814D01*
X0101824Y0148576D01*
X0101824Y0152039D01*
X0113731Y0152039D01*
X0115077Y0153385D01*
X0118504Y0153385D01*
X0119265Y0154147D01*
X0119265Y0159161D01*
X0118504Y0159922D01*
X0113096Y0159922D01*
X0112335Y0159161D01*
X0112335Y0155734D01*
X0112239Y0155639D01*
X0101824Y0155639D01*
X0101824Y0159101D01*
X0101063Y0159863D01*
X0090537Y0159863D01*
X0089776Y0159101D01*
X0089776Y0148576D01*
X0090537Y0147814D01*
X0094000Y0147814D01*
X0094000Y0146123D01*
X0095800Y0143681D02*
X0095800Y0153839D01*
X0112985Y0153839D01*
X0115800Y0156654D01*
X0119265Y0156818D02*
X0124776Y0156818D01*
X0124776Y0155820D02*
X0119265Y0155820D01*
X0119265Y0154821D02*
X0124776Y0154821D01*
X0124776Y0153823D02*
X0118942Y0153823D01*
X0119265Y0157817D02*
X0124776Y0157817D01*
X0124776Y0158815D02*
X0119265Y0158815D01*
X0118612Y0159814D02*
X0125488Y0159814D01*
X0125537Y0159863D02*
X0124776Y0159101D01*
X0124776Y0148576D01*
X0125537Y0147814D01*
X0132780Y0147814D01*
X0132780Y0146123D01*
X0130498Y0146123D01*
X0129736Y0145361D01*
X0129736Y0139560D01*
X0130498Y0138798D01*
X0138661Y0138798D01*
X0139423Y0139560D01*
X0139423Y0145361D01*
X0138661Y0146123D01*
X0136380Y0146123D01*
X0136380Y0148131D01*
X0136824Y0148576D01*
X0136824Y0152039D01*
X0148731Y0152039D01*
X0150077Y0153385D01*
X0153504Y0153385D01*
X0154265Y0154147D01*
X0154265Y0159161D01*
X0153504Y0159922D01*
X0148096Y0159922D01*
X0147335Y0159161D01*
X0147335Y0155734D01*
X0147239Y0155639D01*
X0136824Y0155639D01*
X0136824Y0159101D01*
X0136063Y0159863D01*
X0125537Y0159863D01*
X0119238Y0160812D02*
X0147362Y0160812D01*
X0147335Y0160839D02*
X0148096Y0160078D01*
X0153504Y0160078D01*
X0154265Y0160839D01*
X0154265Y0165853D01*
X0153504Y0166615D01*
X0152600Y0166615D01*
X0152600Y0168091D01*
X0153236Y0168355D01*
X0154445Y0169564D01*
X0155100Y0171145D01*
X0155100Y0178855D01*
X0154445Y0180436D01*
X0153236Y0181645D01*
X0151655Y0182300D01*
X0149945Y0182300D01*
X0148364Y0181645D01*
X0147155Y0180436D01*
X0146500Y0178855D01*
X0146500Y0171145D01*
X0147155Y0169564D01*
X0148364Y0168355D01*
X0149000Y0168091D01*
X0149000Y0166615D01*
X0148096Y0166615D01*
X0147335Y0165853D01*
X0147335Y0160839D01*
X0147335Y0161811D02*
X0119265Y0161811D01*
X0119265Y0162809D02*
X0147335Y0162809D01*
X0147335Y0163808D02*
X0119654Y0163808D01*
X0120652Y0164806D02*
X0147335Y0164806D01*
X0147335Y0165805D02*
X0136892Y0165805D01*
X0137024Y0166803D02*
X0149000Y0166803D01*
X0149000Y0167802D02*
X0141902Y0167802D01*
X0143682Y0168801D02*
X0147918Y0168801D01*
X0147057Y0169799D02*
X0144543Y0169799D01*
X0144956Y0170798D02*
X0146644Y0170798D01*
X0146500Y0171796D02*
X0145100Y0171796D01*
X0145100Y0172795D02*
X0146500Y0172795D01*
X0146500Y0173793D02*
X0145100Y0173793D01*
X0145100Y0174792D02*
X0146500Y0174792D01*
X0146500Y0175790D02*
X0145100Y0175790D01*
X0145100Y0176789D02*
X0146500Y0176789D01*
X0146500Y0177787D02*
X0145100Y0177787D01*
X0145100Y0178786D02*
X0146500Y0178786D01*
X0146885Y0179784D02*
X0144715Y0179784D01*
X0144098Y0180783D02*
X0147502Y0180783D01*
X0148692Y0181781D02*
X0142908Y0181781D01*
X0138490Y0182780D02*
X0172550Y0182780D01*
X0173549Y0181781D02*
X0163252Y0181781D01*
X0164341Y0180783D02*
X0174547Y0180783D01*
X0175546Y0179784D02*
X0164941Y0179784D01*
X0165232Y0178786D02*
X0176500Y0178786D01*
X0176500Y0177787D02*
X0165300Y0177787D01*
X0161300Y0177787D02*
X0160300Y0177787D01*
X0160300Y0176789D02*
X0161300Y0176789D01*
X0161300Y0175790D02*
X0160300Y0175790D01*
X0160300Y0174792D02*
X0155100Y0174792D01*
X0155100Y0175790D02*
X0156300Y0175790D01*
X0156300Y0176789D02*
X0155100Y0176789D01*
X0155100Y0177787D02*
X0156300Y0177787D01*
X0156368Y0178786D02*
X0155100Y0178786D01*
X0154715Y0179784D02*
X0156659Y0179784D01*
X0157259Y0180783D02*
X0154098Y0180783D01*
X0152908Y0181781D02*
X0158348Y0181781D01*
X0160300Y0181781D02*
X0161300Y0181781D01*
X0161300Y0180783D02*
X0160300Y0180783D01*
X0160300Y0179784D02*
X0161300Y0179784D01*
X0161300Y0178786D02*
X0160300Y0178786D01*
X0160300Y0174500D02*
X0156300Y0174500D01*
X0156300Y0171646D01*
X0156411Y0170946D01*
X0156630Y0170273D01*
X0156951Y0169641D01*
X0157368Y0169068D01*
X0157868Y0168568D01*
X0158441Y0168151D01*
X0159073Y0167830D01*
X0159746Y0167611D01*
X0160300Y0167523D01*
X0160300Y0174500D01*
X0160300Y0173793D02*
X0161300Y0173793D01*
X0161300Y0172795D02*
X0160300Y0172795D01*
X0160300Y0171796D02*
X0161300Y0171796D01*
X0161300Y0170798D02*
X0160300Y0170798D01*
X0160300Y0169799D02*
X0161300Y0169799D01*
X0161300Y0168801D02*
X0160300Y0168801D01*
X0160300Y0167802D02*
X0161300Y0167802D01*
X0162442Y0167802D02*
X0164576Y0167802D01*
X0164576Y0166803D02*
X0152600Y0166803D01*
X0152600Y0167802D02*
X0159158Y0167802D01*
X0157636Y0168801D02*
X0153682Y0168801D01*
X0154543Y0169799D02*
X0156871Y0169799D01*
X0156459Y0170798D02*
X0154956Y0170798D01*
X0155100Y0171796D02*
X0156300Y0171796D01*
X0156300Y0172795D02*
X0155100Y0172795D01*
X0155100Y0173793D02*
X0156300Y0173793D01*
X0150800Y0175000D02*
X0150800Y0163346D01*
X0154265Y0163808D02*
X0187335Y0163808D01*
X0187335Y0164806D02*
X0154265Y0164806D01*
X0154265Y0165805D02*
X0164708Y0165805D01*
X0164576Y0168801D02*
X0163964Y0168801D01*
X0170300Y0168801D02*
X0171300Y0168801D01*
X0171300Y0169799D02*
X0170300Y0169799D01*
X0170300Y0167802D02*
X0171300Y0167802D01*
X0171300Y0166803D02*
X0170300Y0166803D01*
X0170300Y0165805D02*
X0171300Y0165805D01*
X0176892Y0165805D02*
X0187335Y0165805D01*
X0187335Y0165853D02*
X0187335Y0160839D01*
X0188096Y0160078D01*
X0193504Y0160078D01*
X0194265Y0160839D01*
X0194265Y0165853D01*
X0193504Y0166615D01*
X0192700Y0166615D01*
X0192700Y0168133D01*
X0193236Y0168355D01*
X0194445Y0169564D01*
X0195100Y0171145D01*
X0195100Y0178855D01*
X0194445Y0180436D01*
X0193236Y0181645D01*
X0191655Y0182300D01*
X0189945Y0182300D01*
X0188364Y0181645D01*
X0187155Y0180436D01*
X0186500Y0178855D01*
X0186500Y0171145D01*
X0187155Y0169564D01*
X0188364Y0168355D01*
X0188900Y0168133D01*
X0188900Y0166615D01*
X0188096Y0166615D01*
X0187335Y0165853D01*
X0188900Y0166803D02*
X0177024Y0166803D01*
X0177024Y0167802D02*
X0179698Y0167802D01*
X0177918Y0168801D02*
X0177024Y0168801D01*
X0177024Y0169799D02*
X0177057Y0169799D01*
X0181902Y0167802D02*
X0188900Y0167802D01*
X0187918Y0168801D02*
X0183682Y0168801D01*
X0184543Y0169799D02*
X0187057Y0169799D01*
X0186644Y0170798D02*
X0184956Y0170798D01*
X0185100Y0171796D02*
X0186500Y0171796D01*
X0186500Y0172795D02*
X0185100Y0172795D01*
X0185100Y0173793D02*
X0186500Y0173793D01*
X0186500Y0174792D02*
X0185100Y0174792D01*
X0185100Y0175790D02*
X0186500Y0175790D01*
X0186500Y0176789D02*
X0185100Y0176789D01*
X0185100Y0177787D02*
X0186500Y0177787D01*
X0186500Y0178786D02*
X0185100Y0178786D01*
X0184715Y0179784D02*
X0186885Y0179784D01*
X0187502Y0180783D02*
X0184098Y0180783D01*
X0182908Y0181781D02*
X0188692Y0181781D01*
X0192908Y0181781D02*
X0198348Y0181781D01*
X0198441Y0181849D02*
X0197868Y0181432D01*
X0197368Y0180932D01*
X0196951Y0180359D01*
X0196630Y0179727D01*
X0196411Y0179054D01*
X0196300Y0178354D01*
X0196300Y0175500D01*
X0200300Y0175500D01*
X0200300Y0182477D01*
X0199746Y0182389D01*
X0199073Y0182170D01*
X0198441Y0181849D01*
X0197259Y0180783D02*
X0194098Y0180783D01*
X0194715Y0179784D02*
X0196659Y0179784D01*
X0196368Y0178786D02*
X0195100Y0178786D01*
X0195100Y0177787D02*
X0196300Y0177787D01*
X0196300Y0176789D02*
X0195100Y0176789D01*
X0195100Y0175790D02*
X0196300Y0175790D01*
X0196300Y0174500D02*
X0196300Y0171646D01*
X0196411Y0170946D01*
X0196630Y0170273D01*
X0196951Y0169641D01*
X0197368Y0169068D01*
X0197868Y0168568D01*
X0198441Y0168151D01*
X0199073Y0167830D01*
X0199746Y0167611D01*
X0200300Y0167523D01*
X0200300Y0174500D01*
X0196300Y0174500D01*
X0196300Y0173793D02*
X0195100Y0173793D01*
X0195100Y0172795D02*
X0196300Y0172795D01*
X0196300Y0171796D02*
X0195100Y0171796D01*
X0194956Y0170798D02*
X0196459Y0170798D01*
X0196871Y0169799D02*
X0194543Y0169799D01*
X0193682Y0168801D02*
X0197636Y0168801D01*
X0199158Y0167802D02*
X0192700Y0167802D01*
X0192700Y0166803D02*
X0213180Y0166803D01*
X0213711Y0166380D02*
X0213711Y0166380D01*
X0209866Y0169446D01*
X0209866Y0169446D01*
X0209866Y0169446D01*
X0207095Y0173510D01*
X0207095Y0173510D01*
X0205646Y0178210D01*
X0205646Y0183128D01*
X0207095Y0187828D01*
X0207095Y0187828D01*
X0209866Y0191892D01*
X0209866Y0191892D01*
X0209866Y0191892D01*
X0209898Y0191917D01*
X0040869Y0191917D01*
X0042681Y0189964D01*
X0042681Y0189964D01*
X0044815Y0185533D01*
X0044815Y0185533D01*
X0045548Y0180669D01*
X0044815Y0175806D01*
X0044815Y0175806D01*
X0042681Y0171375D01*
X0042681Y0171375D01*
X0039336Y0167769D01*
X0039336Y0167769D01*
X0039336Y0167769D01*
X0035076Y0165310D01*
X0035076Y0165310D01*
X0030281Y0164215D01*
X0030281Y0164215D01*
X0025376Y0164583D01*
X0025376Y0164583D01*
X0020798Y0166380D01*
X0020798Y0166380D01*
X0017800Y0168771D01*
X0017800Y0062647D01*
X0020798Y0065037D01*
X0020798Y0065037D01*
X0025376Y0066834D01*
X0030281Y0067202D01*
X0035076Y0066107D01*
X0035076Y0066107D01*
X0039336Y0063648D01*
X0039336Y0063648D01*
X0042681Y0060043D01*
X0042681Y0060043D01*
X0044815Y0055611D01*
X0044815Y0055611D01*
X0045548Y0050748D01*
X0044815Y0045885D01*
X0044815Y0045885D01*
X0042681Y0041453D01*
X0042681Y0041453D01*
X0040869Y0039500D01*
X0209898Y0039500D01*
X0209866Y0039525D01*
X0209866Y0039525D01*
X0207095Y0043589D01*
X0207095Y0043589D01*
X0205646Y0048289D01*
X0205646Y0053207D01*
X0207095Y0057907D01*
X0207095Y0057907D01*
X0209866Y0061971D01*
X0209866Y0061971D01*
X0213711Y0065037D01*
X0213711Y0065037D01*
X0218290Y0066834D01*
X0218290Y0066834D01*
X0223194Y0067202D01*
X0223194Y0067202D01*
X0227990Y0066107D01*
X0227990Y0066107D01*
X0232249Y0063648D01*
X0232249Y0063648D01*
X0233209Y0062613D01*
X0233209Y0168804D01*
X0232249Y0167769D01*
X0232249Y0167769D01*
X0227990Y0165310D01*
X0227990Y0165310D01*
X0223194Y0164215D01*
X0223194Y0164215D01*
X0218290Y0164583D01*
X0218290Y0164583D01*
X0213711Y0166380D01*
X0215176Y0165805D02*
X0194265Y0165805D01*
X0194265Y0164806D02*
X0217720Y0164806D01*
X0220110Y0159818D02*
X0219191Y0158899D01*
X0218693Y0157697D01*
X0218693Y0156397D01*
X0219191Y0155196D01*
X0220110Y0154276D01*
X0221311Y0153779D01*
X0222612Y0153779D01*
X0223813Y0154276D01*
X0224732Y0155196D01*
X0225230Y0156397D01*
X0225230Y0157697D01*
X0224732Y0158899D01*
X0223813Y0159818D01*
X0222612Y0160316D01*
X0221311Y0160316D01*
X0220110Y0159818D01*
X0220106Y0159814D02*
X0193612Y0159814D01*
X0193504Y0159922D02*
X0188096Y0159922D01*
X0187335Y0159161D01*
X0187335Y0155734D01*
X0187239Y0155639D01*
X0176824Y0155639D01*
X0176824Y0159101D01*
X0176063Y0159863D01*
X0165537Y0159863D01*
X0164776Y0159101D01*
X0164776Y0148576D01*
X0165537Y0147814D01*
X0169180Y0147814D01*
X0172236Y0144758D01*
X0172236Y0139560D01*
X0172998Y0138798D01*
X0181161Y0138798D01*
X0181923Y0139560D01*
X0181923Y0145361D01*
X0181161Y0146123D01*
X0175963Y0146123D01*
X0174272Y0147814D01*
X0176063Y0147814D01*
X0176824Y0148576D01*
X0176824Y0152039D01*
X0188731Y0152039D01*
X0189785Y0153093D01*
X0190077Y0153385D01*
X0193504Y0153385D01*
X0194265Y0154147D01*
X0194265Y0159161D01*
X0193504Y0159922D01*
X0194238Y0160812D02*
X0233209Y0160812D01*
X0233209Y0159814D02*
X0223817Y0159814D01*
X0224767Y0158815D02*
X0233209Y0158815D01*
X0233209Y0157817D02*
X0225180Y0157817D01*
X0225230Y0156818D02*
X0233209Y0156818D01*
X0233209Y0155820D02*
X0224991Y0155820D01*
X0224358Y0154821D02*
X0233209Y0154821D01*
X0233209Y0153823D02*
X0222718Y0153823D01*
X0221205Y0153823D02*
X0193942Y0153823D01*
X0194265Y0154821D02*
X0219565Y0154821D01*
X0218932Y0155820D02*
X0194265Y0155820D01*
X0194265Y0156818D02*
X0218693Y0156818D01*
X0218742Y0157817D02*
X0194265Y0157817D01*
X0194265Y0158815D02*
X0219156Y0158815D01*
X0225784Y0164806D02*
X0233209Y0164806D01*
X0233209Y0163808D02*
X0194265Y0163808D01*
X0194265Y0162809D02*
X0233209Y0162809D01*
X0233209Y0161811D02*
X0194265Y0161811D01*
X0190800Y0156654D02*
X0187985Y0153839D01*
X0170800Y0153839D01*
X0170800Y0148740D01*
X0177080Y0142461D01*
X0177119Y0142500D01*
X0172236Y0142839D02*
X0157521Y0142839D01*
X0157521Y0142961D02*
X0162064Y0142961D01*
X0162064Y0145020D01*
X0161962Y0145402D01*
X0161764Y0145744D01*
X0161485Y0146023D01*
X0161143Y0146221D01*
X0160761Y0146323D01*
X0157520Y0146323D01*
X0157520Y0142961D01*
X0156520Y0142961D01*
X0156520Y0141961D01*
X0151977Y0141961D01*
X0151977Y0139901D01*
X0152079Y0139519D01*
X0152277Y0139177D01*
X0152556Y0138898D01*
X0152898Y0138701D01*
X0153280Y0138598D01*
X0156520Y0138598D01*
X0156520Y0141961D01*
X0157520Y0141961D01*
X0157520Y0138598D01*
X0160761Y0138598D01*
X0161143Y0138701D01*
X0161485Y0138898D01*
X0161764Y0139177D01*
X0161962Y0139519D01*
X0162064Y0139901D01*
X0162064Y0141961D01*
X0157521Y0141961D01*
X0157521Y0142961D01*
X0157520Y0143838D02*
X0156520Y0143838D01*
X0156520Y0142961D02*
X0156520Y0146323D01*
X0153280Y0146323D01*
X0152898Y0146221D01*
X0152556Y0146023D01*
X0152277Y0145744D01*
X0152079Y0145402D01*
X0151977Y0145020D01*
X0151977Y0142961D01*
X0156520Y0142961D01*
X0156520Y0142839D02*
X0139423Y0142839D01*
X0139423Y0141841D02*
X0151977Y0141841D01*
X0151977Y0140842D02*
X0139423Y0140842D01*
X0139423Y0139844D02*
X0151992Y0139844D01*
X0152648Y0138845D02*
X0138708Y0138845D01*
X0134580Y0142461D02*
X0134580Y0150059D01*
X0130800Y0153839D01*
X0147985Y0153839D01*
X0150800Y0156654D01*
X0154265Y0156818D02*
X0164776Y0156818D01*
X0164776Y0155820D02*
X0154265Y0155820D01*
X0154265Y0154821D02*
X0164776Y0154821D01*
X0164776Y0153823D02*
X0153942Y0153823D01*
X0154265Y0157817D02*
X0164776Y0157817D01*
X0164776Y0158815D02*
X0154265Y0158815D01*
X0153612Y0159814D02*
X0165488Y0159814D01*
X0164776Y0152824D02*
X0149516Y0152824D01*
X0147335Y0155820D02*
X0136824Y0155820D01*
X0136824Y0156818D02*
X0147335Y0156818D01*
X0147335Y0157817D02*
X0136824Y0157817D01*
X0136824Y0158815D02*
X0147335Y0158815D01*
X0147988Y0159814D02*
X0136112Y0159814D01*
X0131300Y0165805D02*
X0130300Y0165805D01*
X0130300Y0166803D02*
X0131300Y0166803D01*
X0131300Y0167802D02*
X0130300Y0167802D01*
X0130300Y0168801D02*
X0131300Y0168801D01*
X0131300Y0169799D02*
X0130300Y0169799D01*
X0130300Y0171796D02*
X0131300Y0171796D01*
X0131300Y0172795D02*
X0130300Y0172795D01*
X0130300Y0173793D02*
X0131300Y0173793D01*
X0131300Y0174792D02*
X0130300Y0174792D01*
X0130300Y0175790D02*
X0131300Y0175790D01*
X0131300Y0176789D02*
X0130300Y0176789D01*
X0125100Y0177787D02*
X0136500Y0177787D01*
X0136500Y0178786D02*
X0125100Y0178786D01*
X0124715Y0179784D02*
X0135546Y0179784D01*
X0134547Y0180783D02*
X0124098Y0180783D01*
X0122908Y0181781D02*
X0133549Y0181781D01*
X0132550Y0182780D02*
X0108490Y0182780D01*
X0105546Y0179784D02*
X0084715Y0179784D01*
X0084445Y0180436D02*
X0083236Y0181645D01*
X0081655Y0182300D01*
X0079945Y0182300D01*
X0078364Y0181645D01*
X0077155Y0180436D01*
X0076500Y0178855D01*
X0076500Y0171145D01*
X0077155Y0169564D01*
X0078364Y0168355D01*
X0078900Y0168133D01*
X0078900Y0166615D01*
X0078096Y0166615D01*
X0077335Y0165853D01*
X0077335Y0160839D01*
X0078096Y0160078D01*
X0083504Y0160078D01*
X0084265Y0160839D01*
X0084265Y0165853D01*
X0083504Y0166615D01*
X0082700Y0166615D01*
X0082700Y0168133D01*
X0083236Y0168355D01*
X0084445Y0169564D01*
X0085100Y0171145D01*
X0085100Y0178855D01*
X0084445Y0180436D01*
X0084098Y0180783D02*
X0104547Y0180783D01*
X0103549Y0181781D02*
X0082908Y0181781D01*
X0085100Y0178786D02*
X0106500Y0178786D01*
X0106500Y0177787D02*
X0085100Y0177787D01*
X0085100Y0176789D02*
X0089865Y0176789D01*
X0089875Y0176807D02*
X0089678Y0176465D01*
X0089576Y0176083D01*
X0089576Y0171661D01*
X0095300Y0171661D01*
X0095300Y0170661D01*
X0096300Y0170661D01*
X0096300Y0164937D01*
X0100722Y0164937D01*
X0101103Y0165039D01*
X0101445Y0165237D01*
X0101725Y0165516D01*
X0101922Y0165858D01*
X0102024Y0166240D01*
X0102024Y0170661D01*
X0096300Y0170661D01*
X0096300Y0171661D01*
X0102024Y0171661D01*
X0102024Y0176083D01*
X0101922Y0176465D01*
X0101725Y0176807D01*
X0101445Y0177086D01*
X0101103Y0177284D01*
X0100722Y0177386D01*
X0096300Y0177386D01*
X0096300Y0171661D01*
X0095300Y0171661D01*
X0095300Y0177386D01*
X0090878Y0177386D01*
X0090497Y0177284D01*
X0090155Y0177086D01*
X0089875Y0176807D01*
X0089576Y0175790D02*
X0085100Y0175790D01*
X0085100Y0174792D02*
X0089576Y0174792D01*
X0089576Y0173793D02*
X0085100Y0173793D01*
X0085100Y0172795D02*
X0089576Y0172795D01*
X0089576Y0171796D02*
X0085100Y0171796D01*
X0084956Y0170798D02*
X0095300Y0170798D01*
X0095300Y0170661D02*
X0089576Y0170661D01*
X0089576Y0166240D01*
X0089678Y0165858D01*
X0089875Y0165516D01*
X0090155Y0165237D01*
X0090497Y0165039D01*
X0090878Y0164937D01*
X0095300Y0164937D01*
X0095300Y0170661D01*
X0095300Y0169799D02*
X0096300Y0169799D01*
X0096300Y0168801D02*
X0095300Y0168801D01*
X0095300Y0167802D02*
X0096300Y0167802D01*
X0096300Y0166803D02*
X0095300Y0166803D01*
X0095300Y0165805D02*
X0096300Y0165805D01*
X0096300Y0170798D02*
X0106644Y0170798D01*
X0106500Y0171796D02*
X0102024Y0171796D01*
X0102024Y0172795D02*
X0106500Y0172795D01*
X0106500Y0173793D02*
X0102024Y0173793D01*
X0102024Y0174792D02*
X0106500Y0174792D01*
X0106500Y0175790D02*
X0102024Y0175790D01*
X0101735Y0176789D02*
X0106500Y0176789D01*
X0107057Y0169799D02*
X0102024Y0169799D01*
X0102024Y0168801D02*
X0107918Y0168801D01*
X0109698Y0167802D02*
X0102024Y0167802D01*
X0102024Y0166803D02*
X0117558Y0166803D01*
X0118556Y0167802D02*
X0111902Y0167802D01*
X0113682Y0168801D02*
X0117918Y0168801D01*
X0117057Y0169799D02*
X0114543Y0169799D01*
X0114956Y0170798D02*
X0116644Y0170798D01*
X0116500Y0171796D02*
X0115100Y0171796D01*
X0115100Y0172795D02*
X0116500Y0172795D01*
X0116500Y0173793D02*
X0115100Y0173793D01*
X0115100Y0174792D02*
X0116500Y0174792D01*
X0116500Y0175790D02*
X0115100Y0175790D01*
X0115100Y0176789D02*
X0116500Y0176789D01*
X0116500Y0177787D02*
X0115100Y0177787D01*
X0115100Y0178786D02*
X0116500Y0178786D01*
X0116885Y0179784D02*
X0114715Y0179784D01*
X0114098Y0180783D02*
X0117502Y0180783D01*
X0118692Y0181781D02*
X0112908Y0181781D01*
X0120800Y0175000D02*
X0120800Y0167500D01*
X0116646Y0163346D01*
X0115800Y0163346D01*
X0112335Y0163808D02*
X0084265Y0163808D01*
X0084265Y0164806D02*
X0112335Y0164806D01*
X0112335Y0165805D02*
X0101892Y0165805D01*
X0096300Y0171796D02*
X0095300Y0171796D01*
X0095300Y0172795D02*
X0096300Y0172795D01*
X0096300Y0173793D02*
X0095300Y0173793D01*
X0095300Y0174792D02*
X0096300Y0174792D01*
X0096300Y0175790D02*
X0095300Y0175790D01*
X0095300Y0176789D02*
X0096300Y0176789D01*
X0102550Y0182780D02*
X0068490Y0182780D01*
X0072908Y0181781D02*
X0078692Y0181781D01*
X0077502Y0180783D02*
X0074098Y0180783D01*
X0074715Y0179784D02*
X0076885Y0179784D01*
X0076500Y0178786D02*
X0075100Y0178786D01*
X0075100Y0177787D02*
X0076500Y0177787D01*
X0076500Y0176789D02*
X0075100Y0176789D01*
X0075100Y0175790D02*
X0076500Y0175790D01*
X0076500Y0174792D02*
X0075100Y0174792D01*
X0075100Y0173793D02*
X0076500Y0173793D01*
X0076500Y0172795D02*
X0075100Y0172795D01*
X0075100Y0171796D02*
X0076500Y0171796D01*
X0076644Y0170798D02*
X0074956Y0170798D01*
X0074543Y0169799D02*
X0077057Y0169799D01*
X0077918Y0168801D02*
X0073682Y0168801D01*
X0071902Y0167802D02*
X0078900Y0167802D01*
X0078900Y0166803D02*
X0064524Y0166803D01*
X0064524Y0166240D02*
X0064524Y0170661D01*
X0058800Y0170661D01*
X0058800Y0164937D01*
X0063222Y0164937D01*
X0063603Y0165039D01*
X0063945Y0165237D01*
X0064225Y0165516D01*
X0064422Y0165858D01*
X0064524Y0166240D01*
X0064392Y0165805D02*
X0077335Y0165805D01*
X0077335Y0164806D02*
X0043576Y0164806D01*
X0042900Y0163808D02*
X0077335Y0163808D01*
X0077335Y0162809D02*
X0042900Y0162809D01*
X0042900Y0161811D02*
X0077335Y0161811D01*
X0077362Y0160812D02*
X0042900Y0160812D01*
X0042900Y0159814D02*
X0052988Y0159814D01*
X0052276Y0158815D02*
X0042900Y0158815D01*
X0042900Y0157817D02*
X0052276Y0157817D01*
X0052276Y0156818D02*
X0042900Y0156818D01*
X0042900Y0155820D02*
X0052276Y0155820D01*
X0052276Y0154821D02*
X0042900Y0154821D01*
X0042900Y0153823D02*
X0052276Y0153823D01*
X0052276Y0152824D02*
X0042900Y0152824D01*
X0042900Y0151826D02*
X0052276Y0151826D01*
X0052276Y0150827D02*
X0042900Y0150827D01*
X0042900Y0149829D02*
X0052276Y0149829D01*
X0052276Y0148830D02*
X0042900Y0148830D01*
X0042900Y0147832D02*
X0053020Y0147832D01*
X0052710Y0145835D02*
X0042900Y0145835D01*
X0042900Y0146833D02*
X0056500Y0146833D01*
X0058300Y0143681D02*
X0057080Y0142461D01*
X0058300Y0143681D02*
X0058300Y0153839D01*
X0077985Y0153839D01*
X0080800Y0156654D01*
X0084265Y0156818D02*
X0089776Y0156818D01*
X0089776Y0155820D02*
X0084265Y0155820D01*
X0084265Y0154821D02*
X0089776Y0154821D01*
X0089776Y0153823D02*
X0083942Y0153823D01*
X0079516Y0152824D02*
X0089776Y0152824D01*
X0089776Y0151826D02*
X0064324Y0151826D01*
X0064324Y0150827D02*
X0089776Y0150827D01*
X0089776Y0149829D02*
X0064324Y0149829D01*
X0064324Y0148830D02*
X0089776Y0148830D01*
X0090520Y0147832D02*
X0063580Y0147832D01*
X0061923Y0142839D02*
X0079020Y0142839D01*
X0079020Y0141841D02*
X0080020Y0141841D01*
X0080021Y0142839D02*
X0089736Y0142839D01*
X0089736Y0141841D02*
X0084564Y0141841D01*
X0084564Y0140842D02*
X0089736Y0140842D01*
X0089736Y0139844D02*
X0084548Y0139844D01*
X0083893Y0138845D02*
X0090451Y0138845D01*
X0094580Y0142461D02*
X0095800Y0143681D01*
X0099423Y0143838D02*
X0111977Y0143838D01*
X0111977Y0142961D02*
X0116520Y0142961D01*
X0116520Y0141961D01*
X0111977Y0141961D01*
X0111977Y0139901D01*
X0112079Y0139519D01*
X0112277Y0139177D01*
X0112556Y0138898D01*
X0112898Y0138701D01*
X0113280Y0138598D01*
X0116520Y0138598D01*
X0116520Y0141961D01*
X0117520Y0141961D01*
X0117520Y0138598D01*
X0120761Y0138598D01*
X0121143Y0138701D01*
X0121485Y0138898D01*
X0121764Y0139177D01*
X0121962Y0139519D01*
X0122064Y0139901D01*
X0122064Y0141961D01*
X0117521Y0141961D01*
X0117521Y0142961D01*
X0122064Y0142961D01*
X0122064Y0145020D01*
X0121962Y0145402D01*
X0121764Y0145744D01*
X0121485Y0146023D01*
X0121143Y0146221D01*
X0120761Y0146323D01*
X0117520Y0146323D01*
X0117520Y0142961D01*
X0116520Y0142961D01*
X0116520Y0146323D01*
X0113280Y0146323D01*
X0112898Y0146221D01*
X0112556Y0146023D01*
X0112277Y0145744D01*
X0112079Y0145402D01*
X0111977Y0145020D01*
X0111977Y0142961D01*
X0111977Y0141841D02*
X0099423Y0141841D01*
X0099423Y0142839D02*
X0116520Y0142839D01*
X0116520Y0141841D02*
X0117520Y0141841D01*
X0117521Y0142839D02*
X0129736Y0142839D01*
X0129736Y0141841D02*
X0122064Y0141841D01*
X0122064Y0140842D02*
X0129736Y0140842D01*
X0129736Y0139844D02*
X0122048Y0139844D01*
X0121393Y0138845D02*
X0130451Y0138845D01*
X0129736Y0143838D02*
X0122064Y0143838D01*
X0122064Y0144836D02*
X0129736Y0144836D01*
X0130210Y0145835D02*
X0121673Y0145835D01*
X0117520Y0145835D02*
X0116520Y0145835D01*
X0116520Y0144836D02*
X0117520Y0144836D01*
X0117520Y0143838D02*
X0116520Y0143838D01*
X0116520Y0140842D02*
X0117520Y0140842D01*
X0117520Y0139844D02*
X0116520Y0139844D01*
X0116520Y0138845D02*
X0117520Y0138845D01*
X0112648Y0138845D02*
X0098708Y0138845D01*
X0099423Y0139844D02*
X0111992Y0139844D01*
X0111977Y0140842D02*
X0099423Y0140842D01*
X0099423Y0144836D02*
X0111977Y0144836D01*
X0112368Y0145835D02*
X0098949Y0145835D01*
X0097600Y0146833D02*
X0132780Y0146833D01*
X0136380Y0146833D02*
X0170161Y0146833D01*
X0171160Y0145835D02*
X0161673Y0145835D01*
X0162064Y0144836D02*
X0172158Y0144836D01*
X0172236Y0143838D02*
X0162064Y0143838D01*
X0162064Y0141841D02*
X0172236Y0141841D01*
X0172236Y0140842D02*
X0162064Y0140842D01*
X0162048Y0139844D02*
X0172236Y0139844D01*
X0172951Y0138845D02*
X0161393Y0138845D01*
X0157520Y0138845D02*
X0156520Y0138845D01*
X0156520Y0139844D02*
X0157520Y0139844D01*
X0157520Y0140842D02*
X0156520Y0140842D01*
X0156520Y0141841D02*
X0157520Y0141841D01*
X0157520Y0144836D02*
X0156520Y0144836D01*
X0156520Y0145835D02*
X0157520Y0145835D01*
X0152368Y0145835D02*
X0138949Y0145835D01*
X0139423Y0144836D02*
X0151977Y0144836D01*
X0151977Y0143838D02*
X0139423Y0143838D01*
X0136380Y0147832D02*
X0165520Y0147832D01*
X0164776Y0148830D02*
X0136824Y0148830D01*
X0136824Y0149829D02*
X0164776Y0149829D01*
X0164776Y0150827D02*
X0136824Y0150827D01*
X0136824Y0151826D02*
X0164776Y0151826D01*
X0175252Y0146833D02*
X0233209Y0146833D01*
X0233209Y0145835D02*
X0204173Y0145835D01*
X0204264Y0145744D02*
X0203985Y0146023D01*
X0203643Y0146221D01*
X0203261Y0146323D01*
X0200020Y0146323D01*
X0200020Y0142961D01*
X0199020Y0142961D01*
X0199020Y0141961D01*
X0194477Y0141961D01*
X0194477Y0139901D01*
X0194579Y0139519D01*
X0194777Y0139177D01*
X0195056Y0138898D01*
X0195398Y0138701D01*
X0195780Y0138598D01*
X0199020Y0138598D01*
X0199020Y0141961D01*
X0200020Y0141961D01*
X0200020Y0138598D01*
X0203261Y0138598D01*
X0203643Y0138701D01*
X0203985Y0138898D01*
X0204264Y0139177D01*
X0204462Y0139519D01*
X0204564Y0139901D01*
X0204564Y0141961D01*
X0200021Y0141961D01*
X0200021Y0142961D01*
X0204564Y0142961D01*
X0204564Y0145020D01*
X0204462Y0145402D01*
X0204264Y0145744D01*
X0204564Y0144836D02*
X0233209Y0144836D01*
X0233209Y0143838D02*
X0204564Y0143838D01*
X0204564Y0141841D02*
X0233209Y0141841D01*
X0233209Y0142839D02*
X0200021Y0142839D01*
X0200020Y0141841D02*
X0199020Y0141841D01*
X0199020Y0142839D02*
X0181923Y0142839D01*
X0181923Y0141841D02*
X0194477Y0141841D01*
X0194477Y0140842D02*
X0181923Y0140842D01*
X0181923Y0139844D02*
X0194492Y0139844D01*
X0195148Y0138845D02*
X0181208Y0138845D01*
X0181923Y0143838D02*
X0194477Y0143838D01*
X0194477Y0142961D02*
X0199020Y0142961D01*
X0199020Y0146323D01*
X0195780Y0146323D01*
X0195398Y0146221D01*
X0195056Y0146023D01*
X0194777Y0145744D01*
X0194579Y0145402D01*
X0194477Y0145020D01*
X0194477Y0142961D01*
X0194477Y0144836D02*
X0181923Y0144836D01*
X0181449Y0145835D02*
X0194868Y0145835D01*
X0199020Y0145835D02*
X0200020Y0145835D01*
X0200020Y0144836D02*
X0199020Y0144836D01*
X0199020Y0143838D02*
X0200020Y0143838D01*
X0200020Y0140842D02*
X0199020Y0140842D01*
X0199020Y0139844D02*
X0200020Y0139844D01*
X0200020Y0138845D02*
X0199020Y0138845D01*
X0203893Y0138845D02*
X0213347Y0138845D01*
X0212864Y0138645D02*
X0214445Y0139300D01*
X0222155Y0139300D01*
X0223736Y0138645D01*
X0224945Y0137436D01*
X0225600Y0135855D01*
X0225600Y0134145D01*
X0224945Y0132564D01*
X0223736Y0131355D01*
X0222155Y0130700D01*
X0214445Y0130700D01*
X0212864Y0131355D01*
X0211655Y0132564D01*
X0211000Y0134145D01*
X0211000Y0135855D01*
X0211655Y0137436D01*
X0212864Y0138645D01*
X0212066Y0137847D02*
X0042900Y0137847D01*
X0042900Y0138845D02*
X0052951Y0138845D01*
X0052236Y0139844D02*
X0042900Y0139844D01*
X0042900Y0140842D02*
X0052236Y0140842D01*
X0052236Y0141841D02*
X0042900Y0141841D01*
X0042900Y0142839D02*
X0052236Y0142839D01*
X0052236Y0143838D02*
X0042900Y0143838D01*
X0042900Y0144836D02*
X0052236Y0144836D01*
X0042900Y0136848D02*
X0211411Y0136848D01*
X0211000Y0135850D02*
X0042900Y0135850D01*
X0042900Y0134851D02*
X0211000Y0134851D01*
X0211121Y0133853D02*
X0042900Y0133853D01*
X0042900Y0132854D02*
X0052327Y0132854D01*
X0052236Y0131856D02*
X0042900Y0131856D01*
X0046672Y0130857D02*
X0052236Y0130857D01*
X0052236Y0129859D02*
X0048447Y0129859D01*
X0049446Y0128860D02*
X0052236Y0128860D01*
X0052236Y0127862D02*
X0049905Y0127862D01*
X0050319Y0126863D02*
X0052335Y0126863D01*
X0052793Y0124866D02*
X0050350Y0124866D01*
X0050350Y0125865D02*
X0210881Y0125865D01*
X0210911Y0126054D02*
X0211130Y0126727D01*
X0211451Y0127359D01*
X0211868Y0127932D01*
X0212368Y0128432D01*
X0212941Y0128849D01*
X0213573Y0129170D01*
X0214246Y0129389D01*
X0214946Y0129500D01*
X0217800Y0129500D01*
X0217800Y0125500D01*
X0218800Y0125500D01*
X0218800Y0129500D01*
X0221654Y0129500D01*
X0222354Y0129389D01*
X0223027Y0129170D01*
X0223659Y0128849D01*
X0224232Y0128432D01*
X0224732Y0127932D01*
X0225149Y0127359D01*
X0225470Y0126727D01*
X0225689Y0126054D01*
X0225777Y0125500D01*
X0218800Y0125500D01*
X0218800Y0124500D01*
X0225777Y0124500D01*
X0225689Y0123946D01*
X0225470Y0123273D01*
X0225149Y0122641D01*
X0224732Y0122068D01*
X0224232Y0121568D01*
X0223659Y0121151D01*
X0223027Y0120830D01*
X0222354Y0120611D01*
X0221654Y0120500D01*
X0218800Y0120500D01*
X0218800Y0124500D01*
X0217800Y0124500D01*
X0217800Y0120500D01*
X0214946Y0120500D01*
X0214246Y0120611D01*
X0213573Y0120830D01*
X0212941Y0121151D01*
X0212368Y0121568D01*
X0211868Y0122068D01*
X0211451Y0122641D01*
X0211130Y0123273D01*
X0210911Y0123946D01*
X0210823Y0124500D01*
X0217800Y0124500D01*
X0217800Y0125500D01*
X0210823Y0125500D01*
X0210911Y0126054D01*
X0211199Y0126863D02*
X0204265Y0126863D01*
X0204364Y0126962D02*
X0204364Y0132763D01*
X0203602Y0133524D01*
X0195439Y0133524D01*
X0194677Y0132763D01*
X0194677Y0126962D01*
X0195439Y0126200D01*
X0203602Y0126200D01*
X0204364Y0126962D01*
X0204364Y0127862D02*
X0211817Y0127862D01*
X0212964Y0128860D02*
X0204364Y0128860D01*
X0204364Y0129859D02*
X0233209Y0129859D01*
X0233209Y0130857D02*
X0222535Y0130857D01*
X0224237Y0131856D02*
X0233209Y0131856D01*
X0233209Y0132854D02*
X0225065Y0132854D01*
X0225479Y0133853D02*
X0233209Y0133853D01*
X0233209Y0134851D02*
X0225600Y0134851D01*
X0225600Y0135850D02*
X0233209Y0135850D01*
X0233209Y0136848D02*
X0225189Y0136848D01*
X0224534Y0137847D02*
X0233209Y0137847D01*
X0233209Y0138845D02*
X0223253Y0138845D01*
X0223636Y0128860D02*
X0233209Y0128860D01*
X0233209Y0127862D02*
X0224783Y0127862D01*
X0225401Y0126863D02*
X0233209Y0126863D01*
X0233209Y0125865D02*
X0225719Y0125865D01*
X0225664Y0123868D02*
X0233209Y0123868D01*
X0233209Y0124866D02*
X0218800Y0124866D01*
X0218800Y0123868D02*
X0217800Y0123868D01*
X0217800Y0124866D02*
X0181366Y0124866D01*
X0181202Y0124961D02*
X0180820Y0125063D01*
X0177579Y0125063D01*
X0177579Y0121701D01*
X0176580Y0121701D01*
X0176580Y0125063D01*
X0173339Y0125063D01*
X0172957Y0124961D01*
X0172615Y0124763D01*
X0172336Y0124484D01*
X0172138Y0124142D01*
X0172036Y0123760D01*
X0172036Y0121701D01*
X0176579Y0121701D01*
X0176579Y0120701D01*
X0172036Y0120701D01*
X0172036Y0118641D01*
X0172138Y0118260D01*
X0172336Y0117918D01*
X0172615Y0117638D01*
X0172957Y0117441D01*
X0173339Y0117339D01*
X0176580Y0117339D01*
X0176580Y0120701D01*
X0177579Y0120701D01*
X0177579Y0117339D01*
X0180820Y0117339D01*
X0181202Y0117441D01*
X0181544Y0117638D01*
X0181823Y0117918D01*
X0182021Y0118260D01*
X0182123Y0118641D01*
X0182123Y0120701D01*
X0177580Y0120701D01*
X0177580Y0121701D01*
X0182123Y0121701D01*
X0182123Y0123760D01*
X0182021Y0124142D01*
X0181823Y0124484D01*
X0181544Y0124763D01*
X0181202Y0124961D01*
X0181161Y0126200D02*
X0181923Y0126962D01*
X0181923Y0132763D01*
X0181161Y0133524D01*
X0172998Y0133524D01*
X0172236Y0132763D01*
X0172236Y0126962D01*
X0172998Y0126200D01*
X0181161Y0126200D01*
X0181824Y0126863D02*
X0194776Y0126863D01*
X0194677Y0127862D02*
X0181923Y0127862D01*
X0181923Y0128860D02*
X0194677Y0128860D01*
X0194677Y0129859D02*
X0181923Y0129859D01*
X0181923Y0130857D02*
X0194677Y0130857D01*
X0194677Y0131856D02*
X0181923Y0131856D01*
X0181832Y0132854D02*
X0194768Y0132854D01*
X0195439Y0124863D02*
X0194677Y0124101D01*
X0194677Y0123001D01*
X0193755Y0123001D01*
X0192701Y0121946D01*
X0185054Y0114300D01*
X0181923Y0114300D01*
X0181923Y0115440D01*
X0181161Y0116202D01*
X0172998Y0116202D01*
X0172236Y0115440D01*
X0172236Y0109639D01*
X0172998Y0108877D01*
X0181161Y0108877D01*
X0181923Y0109639D01*
X0181923Y0110700D01*
X0186546Y0110700D01*
X0194677Y0118832D01*
X0194677Y0118300D01*
X0195439Y0117539D01*
X0203602Y0117539D01*
X0204364Y0118300D01*
X0204364Y0124101D01*
X0203602Y0124863D01*
X0195439Y0124863D01*
X0194677Y0123868D02*
X0182094Y0123868D01*
X0182123Y0122869D02*
X0193623Y0122869D01*
X0192625Y0121870D02*
X0182123Y0121870D01*
X0182123Y0119873D02*
X0190628Y0119873D01*
X0189629Y0118875D02*
X0182123Y0118875D01*
X0181782Y0117876D02*
X0188631Y0117876D01*
X0187632Y0116878D02*
X0150223Y0116878D01*
X0149225Y0115879D02*
X0152617Y0115879D01*
X0152939Y0116202D02*
X0152177Y0115440D01*
X0152177Y0109639D01*
X0152939Y0108877D01*
X0155220Y0108877D01*
X0155220Y0105965D01*
X0154947Y0105965D01*
X0154185Y0105204D01*
X0154185Y0104300D01*
X0154128Y0104300D01*
X0154128Y0104613D01*
X0153366Y0105375D01*
X0149139Y0105375D01*
X0148378Y0104613D01*
X0148378Y0100387D01*
X0149139Y0099625D01*
X0153366Y0099625D01*
X0154128Y0100387D01*
X0154128Y0100700D01*
X0154185Y0100700D01*
X0154185Y0099796D01*
X0154947Y0099035D01*
X0155516Y0099035D01*
X0154835Y0098353D01*
X0154835Y0093339D01*
X0155596Y0092578D01*
X0161004Y0092578D01*
X0161765Y0093339D01*
X0161765Y0098353D01*
X0161004Y0099115D01*
X0160100Y0099115D01*
X0160100Y0099174D01*
X0160722Y0099796D01*
X0160722Y0105204D01*
X0159961Y0105965D01*
X0158820Y0105965D01*
X0158820Y0108877D01*
X0161102Y0108877D01*
X0161864Y0109639D01*
X0161864Y0115440D01*
X0161102Y0116202D01*
X0152939Y0116202D01*
X0152939Y0117539D02*
X0152177Y0118300D01*
X0152177Y0118832D01*
X0144046Y0110700D01*
X0139423Y0110700D01*
X0139423Y0109639D01*
X0138661Y0108877D01*
X0130498Y0108877D01*
X0129736Y0109639D01*
X0129736Y0115440D01*
X0130498Y0116202D01*
X0138661Y0116202D01*
X0139423Y0115440D01*
X0139423Y0114300D01*
X0142554Y0114300D01*
X0150201Y0121946D01*
X0151255Y0123001D01*
X0152177Y0123001D01*
X0152177Y0124101D01*
X0152939Y0124863D01*
X0161102Y0124863D01*
X0161864Y0124101D01*
X0161864Y0118300D01*
X0161102Y0117539D01*
X0152939Y0117539D01*
X0152601Y0117876D02*
X0151222Y0117876D01*
X0152001Y0121201D02*
X0157020Y0121201D01*
X0161864Y0120872D02*
X0176579Y0120872D01*
X0176580Y0121870D02*
X0177579Y0121870D01*
X0177580Y0120872D02*
X0191626Y0120872D01*
X0194501Y0121201D02*
X0199520Y0121201D01*
X0204364Y0120872D02*
X0213490Y0120872D01*
X0212066Y0121870D02*
X0204364Y0121870D01*
X0204364Y0122869D02*
X0211335Y0122869D01*
X0210936Y0123868D02*
X0204364Y0123868D01*
X0204364Y0119873D02*
X0233209Y0119873D01*
X0233209Y0118875D02*
X0204364Y0118875D01*
X0203940Y0117876D02*
X0233209Y0117876D01*
X0233209Y0116878D02*
X0192723Y0116878D01*
X0191725Y0115879D02*
X0195117Y0115879D01*
X0195439Y0116202D02*
X0194677Y0115440D01*
X0194677Y0109639D01*
X0195439Y0108877D01*
X0195654Y0108877D01*
X0195654Y0105965D01*
X0194947Y0105965D01*
X0194185Y0105204D01*
X0194185Y0104300D01*
X0194128Y0104300D01*
X0194128Y0104613D01*
X0193366Y0105375D01*
X0189139Y0105375D01*
X0188378Y0104613D01*
X0188378Y0100387D01*
X0189139Y0099625D01*
X0189453Y0099625D01*
X0189453Y0099115D01*
X0188096Y0099115D01*
X0187335Y0098353D01*
X0187335Y0093339D01*
X0188096Y0092578D01*
X0193504Y0092578D01*
X0194265Y0093339D01*
X0194265Y0098353D01*
X0193504Y0099115D01*
X0193053Y0099115D01*
X0193053Y0099625D01*
X0193366Y0099625D01*
X0194128Y0100387D01*
X0194128Y0100700D01*
X0194185Y0100700D01*
X0194185Y0099796D01*
X0194947Y0099035D01*
X0199961Y0099035D01*
X0200722Y0099796D01*
X0200722Y0105204D01*
X0199961Y0105965D01*
X0199254Y0105965D01*
X0199254Y0108877D01*
X0203602Y0108877D01*
X0204364Y0109639D01*
X0204364Y0115440D01*
X0203602Y0116202D01*
X0195439Y0116202D01*
X0194677Y0114881D02*
X0190726Y0114881D01*
X0189728Y0113882D02*
X0194677Y0113882D01*
X0194677Y0112884D02*
X0188729Y0112884D01*
X0187731Y0111885D02*
X0194677Y0111885D01*
X0194677Y0110887D02*
X0186732Y0110887D01*
X0185800Y0112500D02*
X0194501Y0121201D01*
X0195101Y0117876D02*
X0193722Y0117876D01*
X0186634Y0115879D02*
X0181483Y0115879D01*
X0181923Y0114881D02*
X0185635Y0114881D01*
X0185800Y0112500D02*
X0177119Y0112500D01*
X0177080Y0112539D01*
X0172236Y0112884D02*
X0161864Y0112884D01*
X0161864Y0113882D02*
X0172236Y0113882D01*
X0172236Y0114881D02*
X0161864Y0114881D01*
X0161424Y0115879D02*
X0172676Y0115879D01*
X0172377Y0117876D02*
X0161440Y0117876D01*
X0161864Y0118875D02*
X0172036Y0118875D01*
X0172036Y0119873D02*
X0161864Y0119873D01*
X0161864Y0121870D02*
X0172036Y0121870D01*
X0172036Y0122869D02*
X0161864Y0122869D01*
X0161864Y0123868D02*
X0172065Y0123868D01*
X0172793Y0124866D02*
X0138866Y0124866D01*
X0138702Y0124961D02*
X0138320Y0125063D01*
X0135079Y0125063D01*
X0135079Y0121701D01*
X0134080Y0121701D01*
X0134080Y0125063D01*
X0130839Y0125063D01*
X0130457Y0124961D01*
X0130115Y0124763D01*
X0129836Y0124484D01*
X0129638Y0124142D01*
X0129536Y0123760D01*
X0129536Y0121701D01*
X0134079Y0121701D01*
X0134079Y0120701D01*
X0129536Y0120701D01*
X0129536Y0118641D01*
X0129638Y0118260D01*
X0129836Y0117918D01*
X0130115Y0117638D01*
X0130457Y0117441D01*
X0130839Y0117339D01*
X0134080Y0117339D01*
X0134080Y0120701D01*
X0135079Y0120701D01*
X0135079Y0117339D01*
X0138320Y0117339D01*
X0138702Y0117441D01*
X0139044Y0117638D01*
X0139323Y0117918D01*
X0139521Y0118260D01*
X0139623Y0118641D01*
X0139623Y0120701D01*
X0135080Y0120701D01*
X0135080Y0121701D01*
X0139623Y0121701D01*
X0139623Y0123760D01*
X0139521Y0124142D01*
X0139323Y0124484D01*
X0139044Y0124763D01*
X0138702Y0124961D01*
X0138661Y0126200D02*
X0139423Y0126962D01*
X0139423Y0132763D01*
X0138661Y0133524D01*
X0130498Y0133524D01*
X0129736Y0132763D01*
X0129736Y0126962D01*
X0130498Y0126200D01*
X0138661Y0126200D01*
X0139324Y0126863D02*
X0152276Y0126863D01*
X0152177Y0126962D02*
X0152939Y0126200D01*
X0161102Y0126200D01*
X0161864Y0126962D01*
X0161864Y0132763D01*
X0161102Y0133524D01*
X0152939Y0133524D01*
X0152177Y0132763D01*
X0152177Y0126962D01*
X0152177Y0127862D02*
X0139423Y0127862D01*
X0139423Y0128860D02*
X0152177Y0128860D01*
X0152177Y0129859D02*
X0139423Y0129859D01*
X0139423Y0130857D02*
X0152177Y0130857D01*
X0152177Y0131856D02*
X0139423Y0131856D01*
X0139332Y0132854D02*
X0152268Y0132854D01*
X0152177Y0123868D02*
X0139594Y0123868D01*
X0139623Y0122869D02*
X0151123Y0122869D01*
X0150125Y0121870D02*
X0139623Y0121870D01*
X0139623Y0119873D02*
X0148128Y0119873D01*
X0147129Y0118875D02*
X0139623Y0118875D01*
X0139282Y0117876D02*
X0146131Y0117876D01*
X0145132Y0116878D02*
X0110223Y0116878D01*
X0109225Y0115879D02*
X0112617Y0115879D01*
X0112939Y0116202D02*
X0112177Y0115440D01*
X0112177Y0109639D01*
X0112939Y0108877D01*
X0115220Y0108877D01*
X0115220Y0105965D01*
X0114947Y0105965D01*
X0114185Y0105204D01*
X0114185Y0104733D01*
X0114008Y0104733D01*
X0113366Y0105375D01*
X0109139Y0105375D01*
X0108378Y0104613D01*
X0108378Y0100387D01*
X0109139Y0099625D01*
X0113366Y0099625D01*
X0114128Y0100387D01*
X0114128Y0101133D01*
X0114185Y0101133D01*
X0114185Y0099796D01*
X0114947Y0099035D01*
X0115516Y0099035D01*
X0114835Y0098353D01*
X0114835Y0093339D01*
X0115596Y0092578D01*
X0121004Y0092578D01*
X0121765Y0093339D01*
X0121765Y0098353D01*
X0121004Y0099115D01*
X0120041Y0099115D01*
X0120722Y0099796D01*
X0120722Y0105204D01*
X0119961Y0105965D01*
X0118820Y0105965D01*
X0118820Y0108877D01*
X0121102Y0108877D01*
X0121864Y0109639D01*
X0121864Y0115440D01*
X0121102Y0116202D01*
X0112939Y0116202D01*
X0112177Y0114881D02*
X0108226Y0114881D01*
X0107228Y0113882D02*
X0112177Y0113882D01*
X0112177Y0112884D02*
X0106229Y0112884D01*
X0105231Y0111885D02*
X0112177Y0111885D01*
X0112177Y0110887D02*
X0104232Y0110887D01*
X0103339Y0112539D02*
X0112001Y0121201D01*
X0117020Y0121201D01*
X0112177Y0123868D02*
X0099594Y0123868D01*
X0099623Y0122869D02*
X0111123Y0122869D01*
X0110125Y0121870D02*
X0099623Y0121870D01*
X0098866Y0124866D02*
X0130293Y0124866D01*
X0129565Y0123868D02*
X0121864Y0123868D01*
X0121864Y0122869D02*
X0129536Y0122869D01*
X0129536Y0121870D02*
X0121864Y0121870D01*
X0121864Y0120872D02*
X0134079Y0120872D01*
X0134080Y0121870D02*
X0135079Y0121870D01*
X0135080Y0120872D02*
X0149126Y0120872D01*
X0152001Y0121201D02*
X0143300Y0112500D01*
X0134619Y0112500D01*
X0134580Y0112539D01*
X0138674Y0108890D02*
X0152926Y0108890D01*
X0152177Y0109888D02*
X0139423Y0109888D01*
X0141653Y0105965D02*
X0136639Y0105965D01*
X0135878Y0105204D01*
X0135878Y0099796D01*
X0136639Y0099035D01*
X0141653Y0099035D01*
X0142415Y0099796D01*
X0142415Y0100700D01*
X0142472Y0100700D01*
X0142472Y0100387D01*
X0143234Y0099625D01*
X0147461Y0099625D01*
X0148222Y0100387D01*
X0148222Y0104613D01*
X0147461Y0105375D01*
X0143234Y0105375D01*
X0142472Y0104613D01*
X0142472Y0104300D01*
X0142415Y0104300D01*
X0142415Y0105204D01*
X0141653Y0105965D01*
X0141724Y0105894D02*
X0154876Y0105894D01*
X0155220Y0106893D02*
X0118820Y0106893D01*
X0118820Y0107891D02*
X0155220Y0107891D01*
X0154185Y0104896D02*
X0153845Y0104896D01*
X0151253Y0102500D02*
X0157454Y0102500D01*
X0157020Y0102933D01*
X0157020Y0112539D01*
X0161115Y0108890D02*
X0172985Y0108890D01*
X0172236Y0109888D02*
X0161864Y0109888D01*
X0161864Y0110887D02*
X0172236Y0110887D01*
X0172236Y0111885D02*
X0161864Y0111885D01*
X0158820Y0107891D02*
X0195654Y0107891D01*
X0195654Y0106893D02*
X0158820Y0106893D01*
X0160032Y0105894D02*
X0161568Y0105894D01*
X0161639Y0105965D02*
X0160878Y0105204D01*
X0160878Y0099796D01*
X0161639Y0099035D01*
X0162046Y0099035D01*
X0162046Y0095784D01*
X0162519Y0095311D01*
X0162519Y0094347D01*
X0163018Y0093141D01*
X0163941Y0092218D01*
X0165147Y0091719D01*
X0166453Y0091719D01*
X0167659Y0092218D01*
X0168582Y0093141D01*
X0169081Y0094347D01*
X0169081Y0095653D01*
X0168582Y0096859D01*
X0167659Y0097782D01*
X0166453Y0098281D01*
X0166246Y0098281D01*
X0166246Y0099035D01*
X0166653Y0099035D01*
X0167415Y0099796D01*
X0167415Y0105204D01*
X0166653Y0105965D01*
X0161639Y0105965D01*
X0160878Y0104896D02*
X0160722Y0104896D01*
X0160722Y0103897D02*
X0160878Y0103897D01*
X0160878Y0102899D02*
X0160722Y0102899D01*
X0160722Y0101900D02*
X0160878Y0101900D01*
X0160878Y0100902D02*
X0160722Y0100902D01*
X0160722Y0099903D02*
X0160878Y0099903D01*
X0161214Y0098905D02*
X0162046Y0098905D01*
X0162046Y0097906D02*
X0161765Y0097906D01*
X0161765Y0096908D02*
X0162046Y0096908D01*
X0162046Y0095909D02*
X0161765Y0095909D01*
X0161765Y0094911D02*
X0162519Y0094911D01*
X0162699Y0093912D02*
X0161765Y0093912D01*
X0161340Y0092914D02*
X0163246Y0092914D01*
X0164674Y0091915D02*
X0161511Y0091915D01*
X0161765Y0091661D02*
X0161004Y0092422D01*
X0155596Y0092422D01*
X0154835Y0091661D01*
X0154835Y0090954D01*
X0151568Y0090954D01*
X0151568Y0091857D01*
X0151035Y0092391D01*
X0151190Y0092481D01*
X0151469Y0092760D01*
X0151666Y0093102D01*
X0151768Y0093484D01*
X0151768Y0095362D01*
X0148784Y0095362D01*
X0148784Y0096331D01*
X0147816Y0096331D01*
X0147816Y0099512D01*
X0146134Y0099512D01*
X0145753Y0099410D01*
X0145410Y0099212D01*
X0145131Y0098933D01*
X0144934Y0098591D01*
X0144831Y0098209D01*
X0144831Y0096331D01*
X0147816Y0096331D01*
X0147816Y0095362D01*
X0144831Y0095362D01*
X0144831Y0093484D01*
X0144934Y0093102D01*
X0145131Y0092760D01*
X0145410Y0092481D01*
X0145565Y0092391D01*
X0145031Y0091857D01*
X0145031Y0090954D01*
X0134208Y0090954D01*
X0133154Y0089899D01*
X0127800Y0084546D01*
X0127800Y0081238D01*
X0127200Y0080638D01*
X0127200Y0074600D01*
X0119400Y0074600D01*
X0119400Y0080638D01*
X0119192Y0080846D01*
X0120100Y0081754D01*
X0120100Y0085885D01*
X0121004Y0085885D01*
X0121765Y0086647D01*
X0121765Y0091661D01*
X0121004Y0092422D01*
X0115596Y0092422D01*
X0114835Y0091661D01*
X0114835Y0090954D01*
X0111568Y0090954D01*
X0111568Y0091857D01*
X0111035Y0092391D01*
X0111190Y0092481D01*
X0111469Y0092760D01*
X0111666Y0093102D01*
X0111768Y0093484D01*
X0111768Y0095362D01*
X0108784Y0095362D01*
X0108784Y0096331D01*
X0107816Y0096331D01*
X0107816Y0099512D01*
X0106134Y0099512D01*
X0105753Y0099410D01*
X0105410Y0099212D01*
X0105131Y0098933D01*
X0104934Y0098591D01*
X0104831Y0098209D01*
X0104831Y0096331D01*
X0107816Y0096331D01*
X0107816Y0095362D01*
X0104831Y0095362D01*
X0104831Y0093484D01*
X0104934Y0093102D01*
X0105131Y0092760D01*
X0105410Y0092481D01*
X0105565Y0092391D01*
X0105031Y0091857D01*
X0105031Y0086450D01*
X0105793Y0085688D01*
X0110807Y0085688D01*
X0111568Y0086450D01*
X0111568Y0087354D01*
X0114835Y0087354D01*
X0114835Y0086647D01*
X0115596Y0085885D01*
X0116500Y0085885D01*
X0116500Y0083246D01*
X0115200Y0081946D01*
X0115200Y0081370D01*
X0114979Y0081498D01*
X0114597Y0081600D01*
X0113350Y0081600D01*
X0113350Y0077650D01*
X0113250Y0077650D01*
X0113250Y0081600D01*
X0112003Y0081600D01*
X0111621Y0081498D01*
X0111400Y0081370D01*
X0111400Y0081946D01*
X0110100Y0083246D01*
X0109046Y0084300D01*
X0100699Y0084300D01*
X0094046Y0090954D01*
X0079265Y0090954D01*
X0079265Y0091661D01*
X0078504Y0092422D01*
X0073096Y0092422D01*
X0072335Y0091661D01*
X0072335Y0090954D01*
X0069068Y0090954D01*
X0069068Y0091857D01*
X0068535Y0092391D01*
X0068690Y0092481D01*
X0068969Y0092760D01*
X0069166Y0093102D01*
X0069268Y0093484D01*
X0069268Y0095362D01*
X0066284Y0095362D01*
X0066284Y0096331D01*
X0065316Y0096331D01*
X0065316Y0099512D01*
X0063634Y0099512D01*
X0063253Y0099410D01*
X0062910Y0099212D01*
X0062631Y0098933D01*
X0062434Y0098591D01*
X0062331Y0098209D01*
X0062331Y0096331D01*
X0065316Y0096331D01*
X0065316Y0095362D01*
X0062331Y0095362D01*
X0062331Y0093484D01*
X0062434Y0093102D01*
X0062631Y0092760D01*
X0062910Y0092481D01*
X0063065Y0092391D01*
X0062531Y0091857D01*
X0062531Y0086450D01*
X0063293Y0085688D01*
X0068307Y0085688D01*
X0069068Y0086450D01*
X0069068Y0087354D01*
X0072335Y0087354D01*
X0072335Y0086647D01*
X0073096Y0085885D01*
X0078504Y0085885D01*
X0079265Y0086647D01*
X0079265Y0087354D01*
X0092554Y0087354D01*
X0099208Y0080700D01*
X0107262Y0080700D01*
X0107200Y0080638D01*
X0107200Y0074600D01*
X0104930Y0074600D01*
X0104268Y0073938D01*
X0104268Y0075362D01*
X0101284Y0075362D01*
X0101284Y0076331D01*
X0100316Y0076331D01*
X0100316Y0079512D01*
X0098634Y0079512D01*
X0098253Y0079410D01*
X0097910Y0079212D01*
X0097631Y0078933D01*
X0097434Y0078591D01*
X0097331Y0078209D01*
X0097331Y0076331D01*
X0100316Y0076331D01*
X0100316Y0075362D01*
X0097331Y0075362D01*
X0097331Y0073484D01*
X0097434Y0073102D01*
X0097631Y0072760D01*
X0097910Y0072481D01*
X0098065Y0072391D01*
X0097531Y0071857D01*
X0097531Y0066450D01*
X0098293Y0065688D01*
X0103307Y0065688D01*
X0104068Y0066450D01*
X0104068Y0067799D01*
X0106670Y0070400D01*
X0107200Y0070400D01*
X0107200Y0064362D01*
X0107800Y0063762D01*
X0107800Y0062300D01*
X0107445Y0062300D01*
X0105864Y0061645D01*
X0104655Y0060436D01*
X0104000Y0058855D01*
X0104000Y0051145D01*
X0104655Y0049564D01*
X0105864Y0048355D01*
X0107445Y0047700D01*
X0109155Y0047700D01*
X0110736Y0048355D01*
X0111945Y0049564D01*
X0112600Y0051145D01*
X0112600Y0058855D01*
X0111945Y0060436D01*
X0111400Y0060981D01*
X0111400Y0063762D01*
X0111450Y0063812D01*
X0111662Y0063600D01*
X0114938Y0063600D01*
X0115150Y0063812D01*
X0115200Y0063762D01*
X0115200Y0060981D01*
X0114655Y0060436D01*
X0114000Y0058855D01*
X0114000Y0051145D01*
X0114655Y0049564D01*
X0115864Y0048355D01*
X0117445Y0047700D01*
X0119155Y0047700D01*
X0120736Y0048355D01*
X0121945Y0049564D01*
X0122600Y0051145D01*
X0122600Y0058855D01*
X0121945Y0060436D01*
X0120736Y0061645D01*
X0119155Y0062300D01*
X0118800Y0062300D01*
X0118800Y0063762D01*
X0119400Y0064362D01*
X0119400Y0070400D01*
X0127200Y0070400D01*
X0127200Y0064362D01*
X0127800Y0063762D01*
X0127800Y0062300D01*
X0127445Y0062300D01*
X0125864Y0061645D01*
X0124655Y0060436D01*
X0124000Y0058855D01*
X0124000Y0051145D01*
X0124655Y0049564D01*
X0125864Y0048355D01*
X0127445Y0047700D01*
X0129155Y0047700D01*
X0130736Y0048355D01*
X0131945Y0049564D01*
X0132600Y0051145D01*
X0132600Y0058855D01*
X0131945Y0060436D01*
X0131400Y0060981D01*
X0131400Y0063762D01*
X0131450Y0063812D01*
X0131662Y0063600D01*
X0134938Y0063600D01*
X0135150Y0063812D01*
X0135200Y0063762D01*
X0135200Y0060981D01*
X0134655Y0060436D01*
X0134000Y0058855D01*
X0134000Y0051145D01*
X0134655Y0049564D01*
X0135864Y0048355D01*
X0137445Y0047700D01*
X0139155Y0047700D01*
X0140736Y0048355D01*
X0141945Y0049564D01*
X0142600Y0051145D01*
X0142600Y0058855D01*
X0141945Y0060436D01*
X0140736Y0061645D01*
X0139155Y0062300D01*
X0138800Y0062300D01*
X0138800Y0063762D01*
X0139400Y0064362D01*
X0139400Y0070400D01*
X0141584Y0070400D01*
X0142531Y0069452D01*
X0142531Y0066450D01*
X0143293Y0065688D01*
X0148307Y0065688D01*
X0149068Y0066450D01*
X0149068Y0067054D01*
X0200823Y0067054D01*
X0209170Y0075400D01*
X0210400Y0076630D01*
X0210400Y0106630D01*
X0211561Y0107791D01*
X0211655Y0107564D01*
X0212864Y0106355D01*
X0214445Y0105700D01*
X0222155Y0105700D01*
X0223736Y0106355D01*
X0224945Y0107564D01*
X0225600Y0109145D01*
X0225600Y0110855D01*
X0224945Y0112436D01*
X0223736Y0113645D01*
X0222155Y0114300D01*
X0214445Y0114300D01*
X0212864Y0113645D01*
X0211655Y0112436D01*
X0211516Y0112100D01*
X0209930Y0112100D01*
X0208700Y0110870D01*
X0206200Y0108370D01*
X0206200Y0105965D01*
X0201639Y0105965D01*
X0200878Y0105204D01*
X0200878Y0099796D01*
X0201639Y0099035D01*
X0202046Y0099035D01*
X0202046Y0098032D01*
X0201441Y0097782D01*
X0200518Y0096859D01*
X0200019Y0095653D01*
X0200019Y0094347D01*
X0200518Y0093141D01*
X0201441Y0092218D01*
X0202647Y0091719D01*
X0203953Y0091719D01*
X0205159Y0092218D01*
X0206082Y0093141D01*
X0206200Y0093427D01*
X0206200Y0078370D01*
X0199084Y0071254D01*
X0149068Y0071254D01*
X0149068Y0071857D01*
X0148535Y0072391D01*
X0148690Y0072481D01*
X0148969Y0072760D01*
X0149166Y0073102D01*
X0149268Y0073484D01*
X0149268Y0075362D01*
X0146284Y0075362D01*
X0146284Y0076331D01*
X0145316Y0076331D01*
X0145316Y0079512D01*
X0143634Y0079512D01*
X0143253Y0079410D01*
X0142910Y0079212D01*
X0142631Y0078933D01*
X0142434Y0078591D01*
X0142331Y0078209D01*
X0142331Y0076331D01*
X0145316Y0076331D01*
X0145316Y0075362D01*
X0142331Y0075362D01*
X0142331Y0074600D01*
X0139400Y0074600D01*
X0139400Y0080638D01*
X0139338Y0080700D01*
X0179046Y0080700D01*
X0181546Y0083200D01*
X0182600Y0084254D01*
X0182600Y0085688D01*
X0183307Y0085688D01*
X0184068Y0086450D01*
X0184068Y0087354D01*
X0187335Y0087354D01*
X0187335Y0086647D01*
X0188096Y0085885D01*
X0193504Y0085885D01*
X0194265Y0086647D01*
X0194265Y0091661D01*
X0193504Y0092422D01*
X0188096Y0092422D01*
X0187335Y0091661D01*
X0187335Y0090954D01*
X0184068Y0090954D01*
X0184068Y0091857D01*
X0183535Y0092391D01*
X0183690Y0092481D01*
X0183969Y0092760D01*
X0184166Y0093102D01*
X0184268Y0093484D01*
X0184268Y0095362D01*
X0181284Y0095362D01*
X0181284Y0096331D01*
X0184268Y0096331D01*
X0184268Y0098209D01*
X0184166Y0098591D01*
X0183969Y0098933D01*
X0183690Y0099212D01*
X0183347Y0099410D01*
X0182966Y0099512D01*
X0182131Y0099512D01*
X0182415Y0099796D01*
X0182415Y0100700D01*
X0182472Y0100700D01*
X0182472Y0100387D01*
X0183234Y0099625D01*
X0187461Y0099625D01*
X0188222Y0100387D01*
X0188222Y0104613D01*
X0187461Y0105375D01*
X0183234Y0105375D01*
X0182472Y0104613D01*
X0182472Y0104300D01*
X0182415Y0104300D01*
X0182415Y0105204D01*
X0181653Y0105965D01*
X0176639Y0105965D01*
X0175878Y0105204D01*
X0175878Y0099796D01*
X0176639Y0099035D01*
X0177733Y0099035D01*
X0177631Y0098933D01*
X0177434Y0098591D01*
X0177331Y0098209D01*
X0177331Y0096331D01*
X0180316Y0096331D01*
X0180316Y0095362D01*
X0177331Y0095362D01*
X0177331Y0093484D01*
X0177434Y0093102D01*
X0177631Y0092760D01*
X0177910Y0092481D01*
X0178065Y0092391D01*
X0177531Y0091857D01*
X0177531Y0086450D01*
X0178293Y0085688D01*
X0178943Y0085688D01*
X0177554Y0084300D01*
X0137554Y0084300D01*
X0135200Y0081946D01*
X0135200Y0081370D01*
X0134979Y0081498D01*
X0134597Y0081600D01*
X0133350Y0081600D01*
X0133350Y0077650D01*
X0133250Y0077650D01*
X0133250Y0081600D01*
X0132003Y0081600D01*
X0131621Y0081498D01*
X0131400Y0081370D01*
X0131400Y0083054D01*
X0135699Y0087354D01*
X0145031Y0087354D01*
X0145031Y0086450D01*
X0145793Y0085688D01*
X0150807Y0085688D01*
X0151568Y0086450D01*
X0151568Y0087354D01*
X0154835Y0087354D01*
X0154835Y0086647D01*
X0155596Y0085885D01*
X0161004Y0085885D01*
X0161765Y0086647D01*
X0161765Y0091661D01*
X0161765Y0090917D02*
X0177531Y0090917D01*
X0177531Y0089918D02*
X0161765Y0089918D01*
X0161765Y0088920D02*
X0177531Y0088920D01*
X0177531Y0087921D02*
X0161765Y0087921D01*
X0161765Y0086923D02*
X0177531Y0086923D01*
X0178057Y0085924D02*
X0161043Y0085924D01*
X0158300Y0089154D02*
X0148300Y0089154D01*
X0134954Y0089154D01*
X0129600Y0083800D01*
X0129600Y0077600D01*
X0127200Y0077936D02*
X0119400Y0077936D01*
X0119400Y0078934D02*
X0127200Y0078934D01*
X0127200Y0079933D02*
X0119400Y0079933D01*
X0119277Y0080932D02*
X0127493Y0080932D01*
X0127800Y0081930D02*
X0120100Y0081930D01*
X0120100Y0082929D02*
X0127800Y0082929D01*
X0127800Y0083927D02*
X0120100Y0083927D01*
X0120100Y0084926D02*
X0128180Y0084926D01*
X0129178Y0085924D02*
X0121043Y0085924D01*
X0121765Y0086923D02*
X0130177Y0086923D01*
X0131176Y0087921D02*
X0121765Y0087921D01*
X0121765Y0088920D02*
X0132174Y0088920D01*
X0133173Y0089918D02*
X0121765Y0089918D01*
X0121765Y0090917D02*
X0134171Y0090917D01*
X0133953Y0091719D02*
X0135159Y0092218D01*
X0136082Y0093141D01*
X0136581Y0094347D01*
X0136581Y0095653D01*
X0136082Y0096859D01*
X0135159Y0097782D01*
X0134554Y0098032D01*
X0134554Y0099035D01*
X0134961Y0099035D01*
X0135722Y0099796D01*
X0135722Y0105204D01*
X0134961Y0105965D01*
X0129947Y0105965D01*
X0129185Y0105204D01*
X0129185Y0099796D01*
X0129947Y0099035D01*
X0130354Y0099035D01*
X0130354Y0096461D01*
X0130019Y0095653D01*
X0130019Y0094347D01*
X0130518Y0093141D01*
X0131441Y0092218D01*
X0132647Y0091719D01*
X0133953Y0091719D01*
X0134426Y0091915D02*
X0145089Y0091915D01*
X0145043Y0092914D02*
X0135854Y0092914D01*
X0136401Y0093912D02*
X0144831Y0093912D01*
X0144831Y0094911D02*
X0136581Y0094911D01*
X0136475Y0095909D02*
X0147816Y0095909D01*
X0148784Y0095909D02*
X0154835Y0095909D01*
X0154835Y0094911D02*
X0151768Y0094911D01*
X0151768Y0093912D02*
X0154835Y0093912D01*
X0155260Y0092914D02*
X0151557Y0092914D01*
X0151511Y0091915D02*
X0155089Y0091915D01*
X0154835Y0086923D02*
X0151568Y0086923D01*
X0151043Y0085924D02*
X0155557Y0085924D01*
X0148690Y0079212D02*
X0148347Y0079410D01*
X0147966Y0079512D01*
X0146284Y0079512D01*
X0146284Y0076331D01*
X0149268Y0076331D01*
X0149268Y0078209D01*
X0149166Y0078591D01*
X0148969Y0078933D01*
X0148690Y0079212D01*
X0148967Y0078934D02*
X0206200Y0078934D01*
X0206200Y0079933D02*
X0139400Y0079933D01*
X0139400Y0078934D02*
X0142633Y0078934D01*
X0142331Y0077936D02*
X0139400Y0077936D01*
X0139400Y0076937D02*
X0142331Y0076937D01*
X0142331Y0074940D02*
X0139400Y0074940D01*
X0139400Y0075939D02*
X0145316Y0075939D01*
X0146284Y0075939D02*
X0203769Y0075939D01*
X0202771Y0074940D02*
X0149268Y0074940D01*
X0149268Y0073942D02*
X0201772Y0073942D01*
X0200774Y0072943D02*
X0149075Y0072943D01*
X0148981Y0071945D02*
X0199775Y0071945D01*
X0203718Y0069948D02*
X0233209Y0069948D01*
X0233209Y0070946D02*
X0204716Y0070946D01*
X0205715Y0071945D02*
X0219764Y0071945D01*
X0220110Y0071599D02*
X0221311Y0071102D01*
X0222612Y0071102D01*
X0223813Y0071599D01*
X0224732Y0072519D01*
X0225230Y0073720D01*
X0225230Y0075020D01*
X0224732Y0076222D01*
X0223813Y0077141D01*
X0222612Y0077639D01*
X0221311Y0077639D01*
X0220110Y0077141D01*
X0219191Y0076222D01*
X0218693Y0075020D01*
X0218693Y0073720D01*
X0219191Y0072519D01*
X0220110Y0071599D01*
X0219015Y0072943D02*
X0206713Y0072943D01*
X0207712Y0073942D02*
X0218693Y0073942D01*
X0218693Y0074940D02*
X0208710Y0074940D01*
X0209709Y0075939D02*
X0219073Y0075939D01*
X0219906Y0076937D02*
X0210400Y0076937D01*
X0210400Y0077936D02*
X0233209Y0077936D01*
X0233209Y0078934D02*
X0210400Y0078934D01*
X0210400Y0079933D02*
X0233209Y0079933D01*
X0233209Y0080932D02*
X0210400Y0080932D01*
X0210400Y0081930D02*
X0233209Y0081930D01*
X0233209Y0082929D02*
X0210400Y0082929D01*
X0210400Y0083927D02*
X0233209Y0083927D01*
X0233209Y0084926D02*
X0210400Y0084926D01*
X0210400Y0085924D02*
X0233209Y0085924D01*
X0233209Y0086923D02*
X0210400Y0086923D01*
X0210400Y0087921D02*
X0233209Y0087921D01*
X0233209Y0088920D02*
X0210400Y0088920D01*
X0210400Y0089918D02*
X0233209Y0089918D01*
X0233209Y0090917D02*
X0210400Y0090917D01*
X0210400Y0091915D02*
X0233209Y0091915D01*
X0233209Y0092914D02*
X0210400Y0092914D01*
X0210400Y0093912D02*
X0233209Y0093912D01*
X0233209Y0094911D02*
X0210400Y0094911D01*
X0210400Y0095909D02*
X0213417Y0095909D01*
X0213573Y0095830D02*
X0214246Y0095611D01*
X0214946Y0095500D01*
X0217800Y0095500D01*
X0217800Y0099500D01*
X0218800Y0099500D01*
X0218800Y0100500D01*
X0217800Y0100500D01*
X0217800Y0104500D01*
X0214946Y0104500D01*
X0214246Y0104389D01*
X0213573Y0104170D01*
X0212941Y0103849D01*
X0212368Y0103432D01*
X0211868Y0102932D01*
X0211451Y0102359D01*
X0211130Y0101727D01*
X0210911Y0101054D01*
X0210823Y0100500D01*
X0217800Y0100500D01*
X0217800Y0099500D01*
X0210823Y0099500D01*
X0210911Y0098946D01*
X0211130Y0098273D01*
X0211451Y0097641D01*
X0211868Y0097068D01*
X0212368Y0096568D01*
X0212941Y0096151D01*
X0213573Y0095830D01*
X0212028Y0096908D02*
X0210400Y0096908D01*
X0210400Y0097906D02*
X0211316Y0097906D01*
X0210924Y0098905D02*
X0210400Y0098905D01*
X0210400Y0099903D02*
X0217800Y0099903D01*
X0217800Y0098905D02*
X0218800Y0098905D01*
X0218800Y0099500D02*
X0218800Y0095500D01*
X0221654Y0095500D01*
X0222354Y0095611D01*
X0223027Y0095830D01*
X0223659Y0096151D01*
X0224232Y0096568D01*
X0224732Y0097068D01*
X0225149Y0097641D01*
X0225470Y0098273D01*
X0225689Y0098946D01*
X0225777Y0099500D01*
X0218800Y0099500D01*
X0218800Y0099903D02*
X0233209Y0099903D01*
X0233209Y0098905D02*
X0225676Y0098905D01*
X0225284Y0097906D02*
X0233209Y0097906D01*
X0233209Y0096908D02*
X0224572Y0096908D01*
X0223183Y0095909D02*
X0233209Y0095909D01*
X0233209Y0100902D02*
X0225713Y0100902D01*
X0225689Y0101054D02*
X0225470Y0101727D01*
X0225149Y0102359D01*
X0224732Y0102932D01*
X0224232Y0103432D01*
X0223659Y0103849D01*
X0223027Y0104170D01*
X0222354Y0104389D01*
X0221654Y0104500D01*
X0218800Y0104500D01*
X0218800Y0100500D01*
X0225777Y0100500D01*
X0225689Y0101054D01*
X0225382Y0101900D02*
X0233209Y0101900D01*
X0233209Y0102899D02*
X0224756Y0102899D01*
X0223563Y0103897D02*
X0233209Y0103897D01*
X0233209Y0104896D02*
X0210400Y0104896D01*
X0210400Y0105894D02*
X0213976Y0105894D01*
X0212326Y0106893D02*
X0210663Y0106893D01*
X0210400Y0103897D02*
X0213037Y0103897D01*
X0211844Y0102899D02*
X0210400Y0102899D01*
X0210400Y0101900D02*
X0211218Y0101900D01*
X0210887Y0100902D02*
X0210400Y0100902D01*
X0206200Y0106893D02*
X0199254Y0106893D01*
X0199254Y0107891D02*
X0206200Y0107891D01*
X0206720Y0108890D02*
X0203615Y0108890D01*
X0204364Y0109888D02*
X0207719Y0109888D01*
X0208717Y0110887D02*
X0204364Y0110887D01*
X0204364Y0111885D02*
X0209716Y0111885D01*
X0212103Y0112884D02*
X0204364Y0112884D01*
X0204364Y0113882D02*
X0213437Y0113882D01*
X0217800Y0120872D02*
X0218800Y0120872D01*
X0218800Y0121870D02*
X0217800Y0121870D01*
X0217800Y0122869D02*
X0218800Y0122869D01*
X0218800Y0125865D02*
X0217800Y0125865D01*
X0217800Y0126863D02*
X0218800Y0126863D01*
X0218800Y0127862D02*
X0217800Y0127862D01*
X0217800Y0128860D02*
X0218800Y0128860D01*
X0214065Y0130857D02*
X0204364Y0130857D01*
X0204364Y0131856D02*
X0212363Y0131856D01*
X0211535Y0132854D02*
X0204273Y0132854D01*
X0204548Y0139844D02*
X0233209Y0139844D01*
X0233209Y0140842D02*
X0204564Y0140842D01*
X0189516Y0152824D02*
X0233209Y0152824D01*
X0233209Y0151826D02*
X0176824Y0151826D01*
X0176824Y0150827D02*
X0233209Y0150827D01*
X0233209Y0149829D02*
X0176824Y0149829D01*
X0176824Y0148830D02*
X0233209Y0148830D01*
X0233209Y0147832D02*
X0176080Y0147832D01*
X0176824Y0155820D02*
X0187335Y0155820D01*
X0187335Y0156818D02*
X0176824Y0156818D01*
X0176824Y0157817D02*
X0187335Y0157817D01*
X0187335Y0158815D02*
X0176824Y0158815D01*
X0176112Y0159814D02*
X0187988Y0159814D01*
X0187362Y0160812D02*
X0154238Y0160812D01*
X0154265Y0161811D02*
X0187335Y0161811D01*
X0187335Y0162809D02*
X0154265Y0162809D01*
X0139698Y0167802D02*
X0137024Y0167802D01*
X0137024Y0168801D02*
X0137918Y0168801D01*
X0137057Y0169799D02*
X0137024Y0169799D01*
X0124576Y0169799D02*
X0124543Y0169799D01*
X0124576Y0168801D02*
X0123682Y0168801D01*
X0124576Y0167802D02*
X0122600Y0167802D01*
X0122600Y0166803D02*
X0124576Y0166803D01*
X0124708Y0165805D02*
X0121651Y0165805D01*
X0112335Y0162809D02*
X0084265Y0162809D01*
X0084265Y0161811D02*
X0112335Y0161811D01*
X0112362Y0160812D02*
X0084238Y0160812D01*
X0083612Y0159814D02*
X0090488Y0159814D01*
X0089776Y0158815D02*
X0084265Y0158815D01*
X0084265Y0157817D02*
X0089776Y0157817D01*
X0093300Y0155000D02*
X0094639Y0155000D01*
X0095800Y0153839D01*
X0101824Y0155820D02*
X0112335Y0155820D01*
X0112335Y0156818D02*
X0101824Y0156818D01*
X0101824Y0157817D02*
X0112335Y0157817D01*
X0112335Y0158815D02*
X0101824Y0158815D01*
X0101112Y0159814D02*
X0112988Y0159814D01*
X0114516Y0152824D02*
X0124776Y0152824D01*
X0124776Y0151826D02*
X0101824Y0151826D01*
X0101824Y0150827D02*
X0124776Y0150827D01*
X0124776Y0149829D02*
X0101824Y0149829D01*
X0101824Y0148830D02*
X0124776Y0148830D01*
X0125520Y0147832D02*
X0101080Y0147832D01*
X0090210Y0145835D02*
X0084173Y0145835D01*
X0084564Y0144836D02*
X0089736Y0144836D01*
X0089736Y0143838D02*
X0084564Y0143838D01*
X0080020Y0143838D02*
X0079020Y0143838D01*
X0079020Y0144836D02*
X0080020Y0144836D01*
X0080020Y0145835D02*
X0079020Y0145835D01*
X0079020Y0140842D02*
X0080020Y0140842D01*
X0080020Y0139844D02*
X0079020Y0139844D01*
X0079020Y0138845D02*
X0080020Y0138845D01*
X0084273Y0132854D02*
X0089827Y0132854D01*
X0089736Y0132763D02*
X0089736Y0126962D01*
X0090498Y0126200D01*
X0098661Y0126200D01*
X0099423Y0126962D01*
X0099423Y0132763D01*
X0098661Y0133524D01*
X0090498Y0133524D01*
X0089736Y0132763D01*
X0089736Y0131856D02*
X0084364Y0131856D01*
X0084364Y0130857D02*
X0089736Y0130857D01*
X0089736Y0129859D02*
X0084364Y0129859D01*
X0084364Y0128860D02*
X0089736Y0128860D01*
X0089736Y0127862D02*
X0084364Y0127862D01*
X0084265Y0126863D02*
X0089835Y0126863D01*
X0094080Y0124866D02*
X0095079Y0124866D01*
X0095079Y0123868D02*
X0094080Y0123868D01*
X0094080Y0122869D02*
X0095079Y0122869D01*
X0095079Y0119873D02*
X0094080Y0119873D01*
X0094080Y0118875D02*
X0095079Y0118875D01*
X0095079Y0117876D02*
X0094080Y0117876D01*
X0089877Y0117876D02*
X0083940Y0117876D01*
X0084364Y0118875D02*
X0089536Y0118875D01*
X0089536Y0119873D02*
X0084364Y0119873D01*
X0079520Y0121201D02*
X0074501Y0121201D01*
X0065800Y0112500D01*
X0057119Y0112500D01*
X0057080Y0112539D01*
X0052236Y0112884D02*
X0017800Y0112884D01*
X0017800Y0113882D02*
X0052236Y0113882D01*
X0052236Y0114881D02*
X0017800Y0114881D01*
X0017800Y0115879D02*
X0052676Y0115879D01*
X0052377Y0117876D02*
X0017800Y0117876D01*
X0017800Y0116878D02*
X0067632Y0116878D01*
X0066634Y0115879D02*
X0061483Y0115879D01*
X0061923Y0114881D02*
X0065635Y0114881D01*
X0068631Y0117876D02*
X0061782Y0117876D01*
X0062123Y0118875D02*
X0069629Y0118875D01*
X0070628Y0119873D02*
X0062123Y0119873D01*
X0062123Y0121870D02*
X0072625Y0121870D01*
X0071626Y0120872D02*
X0057580Y0120872D01*
X0057579Y0121870D02*
X0056580Y0121870D01*
X0056579Y0120872D02*
X0047424Y0120872D01*
X0048759Y0121870D02*
X0052036Y0121870D01*
X0052036Y0122869D02*
X0049621Y0122869D01*
X0050034Y0123868D02*
X0052065Y0123868D01*
X0052036Y0119873D02*
X0017800Y0119873D01*
X0017800Y0118875D02*
X0052036Y0118875D01*
X0056580Y0118875D02*
X0057579Y0118875D01*
X0057579Y0119873D02*
X0056580Y0119873D01*
X0056580Y0117876D02*
X0057579Y0117876D01*
X0057579Y0122869D02*
X0056580Y0122869D01*
X0056580Y0123868D02*
X0057579Y0123868D01*
X0057579Y0124866D02*
X0056580Y0124866D01*
X0062094Y0123868D02*
X0074677Y0123868D01*
X0073623Y0122869D02*
X0062123Y0122869D01*
X0077454Y0110472D02*
X0079520Y0112539D01*
X0077454Y0110472D02*
X0077454Y0102500D01*
X0071253Y0102500D01*
X0068378Y0102899D02*
X0068222Y0102899D01*
X0068222Y0103897D02*
X0068378Y0103897D01*
X0068222Y0104613D02*
X0067461Y0105375D01*
X0063234Y0105375D01*
X0062472Y0104613D01*
X0062472Y0104300D01*
X0062415Y0104300D01*
X0062415Y0105204D01*
X0061653Y0105965D01*
X0056639Y0105965D01*
X0055878Y0105204D01*
X0055878Y0099796D01*
X0056639Y0099035D01*
X0061653Y0099035D01*
X0062415Y0099796D01*
X0062415Y0100700D01*
X0062472Y0100700D01*
X0062472Y0100387D01*
X0063234Y0099625D01*
X0067461Y0099625D01*
X0068222Y0100387D01*
X0068222Y0104613D01*
X0067940Y0104896D02*
X0068660Y0104896D01*
X0068378Y0101900D02*
X0068222Y0101900D01*
X0068222Y0100902D02*
X0068378Y0100902D01*
X0068861Y0099903D02*
X0067739Y0099903D01*
X0067966Y0099512D02*
X0066284Y0099512D01*
X0066284Y0096331D01*
X0069268Y0096331D01*
X0069268Y0098209D01*
X0069166Y0098591D01*
X0068969Y0098933D01*
X0068690Y0099212D01*
X0068347Y0099410D01*
X0067966Y0099512D01*
X0068985Y0098905D02*
X0072886Y0098905D01*
X0072335Y0097906D02*
X0069268Y0097906D01*
X0069268Y0096908D02*
X0072335Y0096908D01*
X0072335Y0095909D02*
X0066284Y0095909D01*
X0065316Y0095909D02*
X0056475Y0095909D01*
X0056581Y0095653D02*
X0056082Y0096859D01*
X0055159Y0097782D01*
X0054554Y0098032D01*
X0054554Y0099035D01*
X0054961Y0099035D01*
X0055722Y0099796D01*
X0055722Y0105204D01*
X0054961Y0105965D01*
X0049947Y0105965D01*
X0049190Y0105209D01*
X0041300Y0105209D01*
X0041300Y0100084D01*
X0045368Y0100084D01*
X0046242Y0100222D01*
X0047084Y0100496D01*
X0047873Y0100898D01*
X0048589Y0101418D01*
X0049185Y0102014D01*
X0049185Y0099796D01*
X0049947Y0099035D01*
X0050354Y0099035D01*
X0050354Y0096461D01*
X0050019Y0095653D01*
X0050019Y0094347D01*
X0050518Y0093141D01*
X0051441Y0092218D01*
X0052647Y0091719D01*
X0053953Y0091719D01*
X0055159Y0092218D01*
X0056082Y0093141D01*
X0056581Y0094347D01*
X0056581Y0095653D01*
X0056581Y0094911D02*
X0062331Y0094911D01*
X0062331Y0093912D02*
X0056401Y0093912D01*
X0055854Y0092914D02*
X0062543Y0092914D01*
X0062589Y0091915D02*
X0054426Y0091915D01*
X0052174Y0091915D02*
X0017800Y0091915D01*
X0017800Y0090917D02*
X0062531Y0090917D01*
X0062531Y0089918D02*
X0017800Y0089918D01*
X0017800Y0088920D02*
X0062531Y0088920D01*
X0062531Y0087921D02*
X0017800Y0087921D01*
X0017800Y0086923D02*
X0062531Y0086923D01*
X0063057Y0085924D02*
X0017800Y0085924D01*
X0017800Y0084926D02*
X0094982Y0084926D01*
X0093984Y0085924D02*
X0078543Y0085924D01*
X0079265Y0086923D02*
X0092985Y0086923D01*
X0093300Y0089154D02*
X0099954Y0082500D01*
X0108300Y0082500D01*
X0109600Y0081200D01*
X0109600Y0077600D01*
X0107200Y0077936D02*
X0104268Y0077936D01*
X0104268Y0078209D02*
X0104268Y0076331D01*
X0101284Y0076331D01*
X0101284Y0079512D01*
X0102966Y0079512D01*
X0103347Y0079410D01*
X0103690Y0079212D01*
X0103969Y0078933D01*
X0104166Y0078591D01*
X0104268Y0078209D01*
X0103967Y0078934D02*
X0107200Y0078934D01*
X0107200Y0079933D02*
X0017800Y0079933D01*
X0017800Y0078934D02*
X0097633Y0078934D01*
X0097331Y0077936D02*
X0017800Y0077936D01*
X0017800Y0076937D02*
X0026993Y0076937D01*
X0027197Y0077141D02*
X0026277Y0076222D01*
X0025780Y0075020D01*
X0025780Y0073720D01*
X0026277Y0072519D01*
X0027197Y0071599D01*
X0028398Y0071102D01*
X0029698Y0071102D01*
X0030899Y0071599D01*
X0031819Y0072519D01*
X0032317Y0073720D01*
X0032317Y0075020D01*
X0031819Y0076222D01*
X0030899Y0077141D01*
X0029698Y0077639D01*
X0028398Y0077639D01*
X0027197Y0077141D01*
X0026160Y0075939D02*
X0017800Y0075939D01*
X0017800Y0074940D02*
X0025780Y0074940D01*
X0025780Y0073942D02*
X0017800Y0073942D01*
X0017800Y0072943D02*
X0026101Y0072943D01*
X0026851Y0071945D02*
X0017800Y0071945D01*
X0017800Y0070946D02*
X0097531Y0070946D01*
X0097531Y0069948D02*
X0017800Y0069948D01*
X0017800Y0068949D02*
X0097531Y0068949D01*
X0097531Y0067951D02*
X0017800Y0067951D01*
X0017800Y0066952D02*
X0026952Y0066952D01*
X0023133Y0065954D02*
X0017800Y0065954D01*
X0017800Y0064955D02*
X0020695Y0064955D01*
X0019443Y0063957D02*
X0017800Y0063957D01*
X0017800Y0062958D02*
X0018191Y0062958D01*
X0031374Y0066952D02*
X0097531Y0066952D01*
X0098027Y0065954D02*
X0035342Y0065954D01*
X0037072Y0064955D02*
X0107200Y0064955D01*
X0107200Y0065954D02*
X0103573Y0065954D01*
X0104068Y0066952D02*
X0107200Y0066952D01*
X0107200Y0067951D02*
X0104221Y0067951D01*
X0105219Y0068949D02*
X0107200Y0068949D01*
X0107200Y0069948D02*
X0106218Y0069948D01*
X0109600Y0067400D02*
X0109600Y0056300D01*
X0108300Y0055000D01*
X0104000Y0054970D02*
X0044912Y0054970D01*
X0045062Y0053972D02*
X0104000Y0053972D01*
X0104000Y0052973D02*
X0045213Y0052973D01*
X0045363Y0051975D02*
X0104000Y0051975D01*
X0104070Y0050976D02*
X0045514Y0050976D01*
X0045432Y0049978D02*
X0104483Y0049978D01*
X0105240Y0048979D02*
X0045281Y0048979D01*
X0045131Y0047981D02*
X0106767Y0047981D01*
X0109833Y0047981D02*
X0116767Y0047981D01*
X0115240Y0048979D02*
X0111360Y0048979D01*
X0112117Y0049978D02*
X0114483Y0049978D01*
X0114070Y0050976D02*
X0112530Y0050976D01*
X0112600Y0051975D02*
X0114000Y0051975D01*
X0114000Y0052973D02*
X0112600Y0052973D01*
X0112600Y0053972D02*
X0114000Y0053972D01*
X0114000Y0054970D02*
X0112600Y0054970D01*
X0112600Y0055969D02*
X0114000Y0055969D01*
X0114000Y0056967D02*
X0112600Y0056967D01*
X0112600Y0057966D02*
X0114000Y0057966D01*
X0114045Y0058964D02*
X0112555Y0058964D01*
X0112141Y0059963D02*
X0114459Y0059963D01*
X0115180Y0060961D02*
X0111420Y0060961D01*
X0111400Y0061960D02*
X0115200Y0061960D01*
X0115200Y0062958D02*
X0111400Y0062958D01*
X0107800Y0062958D02*
X0039976Y0062958D01*
X0040902Y0061960D02*
X0106623Y0061960D01*
X0105180Y0060961D02*
X0041829Y0060961D01*
X0042720Y0059963D02*
X0104459Y0059963D01*
X0104045Y0058964D02*
X0043200Y0058964D01*
X0043681Y0057966D02*
X0104000Y0057966D01*
X0104000Y0056967D02*
X0044162Y0056967D01*
X0044643Y0055969D02*
X0104000Y0055969D01*
X0107605Y0063957D02*
X0038801Y0063957D01*
X0031245Y0071945D02*
X0097619Y0071945D01*
X0097525Y0072943D02*
X0031995Y0072943D01*
X0032317Y0073942D02*
X0097331Y0073942D01*
X0097331Y0074940D02*
X0032317Y0074940D01*
X0031936Y0075939D02*
X0100316Y0075939D01*
X0101284Y0075939D02*
X0107200Y0075939D01*
X0107200Y0076937D02*
X0104268Y0076937D01*
X0104268Y0074940D02*
X0107200Y0074940D01*
X0104272Y0073942D02*
X0104268Y0073942D01*
X0101284Y0076937D02*
X0100316Y0076937D01*
X0100316Y0077936D02*
X0101284Y0077936D01*
X0101284Y0078934D02*
X0100316Y0078934D01*
X0098976Y0080932D02*
X0017800Y0080932D01*
X0017800Y0081930D02*
X0097978Y0081930D01*
X0096979Y0082929D02*
X0017800Y0082929D01*
X0017800Y0083927D02*
X0095981Y0083927D01*
X0098077Y0086923D02*
X0105031Y0086923D01*
X0105031Y0087921D02*
X0097078Y0087921D01*
X0096080Y0088920D02*
X0105031Y0088920D01*
X0105031Y0089918D02*
X0095081Y0089918D01*
X0094082Y0090917D02*
X0105031Y0090917D01*
X0105089Y0091915D02*
X0094426Y0091915D01*
X0093953Y0091719D02*
X0095159Y0092218D01*
X0096082Y0093141D01*
X0096581Y0094347D01*
X0096581Y0095653D01*
X0096082Y0096859D01*
X0095159Y0097782D01*
X0094554Y0098032D01*
X0094554Y0099035D01*
X0094961Y0099035D01*
X0095722Y0099796D01*
X0095722Y0105204D01*
X0094961Y0105965D01*
X0089947Y0105965D01*
X0089185Y0105204D01*
X0089185Y0099796D01*
X0089947Y0099035D01*
X0090354Y0099035D01*
X0090354Y0096461D01*
X0090019Y0095653D01*
X0090019Y0094347D01*
X0090518Y0093141D01*
X0091441Y0092218D01*
X0092647Y0091719D01*
X0093953Y0091719D01*
X0092174Y0091915D02*
X0084426Y0091915D01*
X0083953Y0091719D02*
X0085159Y0092218D01*
X0086082Y0093141D01*
X0086581Y0094347D01*
X0086581Y0095653D01*
X0086246Y0096461D01*
X0086246Y0099035D01*
X0086653Y0099035D01*
X0087415Y0099796D01*
X0087415Y0105204D01*
X0086653Y0105965D01*
X0081639Y0105965D01*
X0080878Y0105204D01*
X0080878Y0099796D01*
X0081639Y0099035D01*
X0082046Y0099035D01*
X0082046Y0098032D01*
X0081441Y0097782D01*
X0080518Y0096859D01*
X0080019Y0095653D01*
X0080019Y0094347D01*
X0080518Y0093141D01*
X0081441Y0092218D01*
X0082647Y0091719D01*
X0083953Y0091719D01*
X0082174Y0091915D02*
X0079011Y0091915D01*
X0078840Y0092914D02*
X0080746Y0092914D01*
X0080199Y0093912D02*
X0079265Y0093912D01*
X0079265Y0094911D02*
X0080019Y0094911D01*
X0080125Y0095909D02*
X0079265Y0095909D01*
X0079265Y0096908D02*
X0080568Y0096908D01*
X0081742Y0097906D02*
X0079265Y0097906D01*
X0079254Y0098905D02*
X0082046Y0098905D01*
X0080878Y0099903D02*
X0080722Y0099903D01*
X0080722Y0100902D02*
X0080878Y0100902D01*
X0080878Y0101900D02*
X0080722Y0101900D01*
X0080722Y0102899D02*
X0080878Y0102899D01*
X0080878Y0103897D02*
X0080722Y0103897D01*
X0080722Y0104896D02*
X0080878Y0104896D01*
X0081568Y0105894D02*
X0080032Y0105894D01*
X0079254Y0106893D02*
X0115220Y0106893D01*
X0115220Y0107891D02*
X0079254Y0107891D01*
X0075654Y0106893D02*
X0050433Y0106893D01*
X0049876Y0105894D02*
X0041300Y0105894D01*
X0041300Y0104896D02*
X0040300Y0104896D01*
X0040300Y0105894D02*
X0017800Y0105894D01*
X0017800Y0104896D02*
X0031109Y0104896D01*
X0031349Y0103897D02*
X0017800Y0103897D01*
X0017800Y0102899D02*
X0031794Y0102899D01*
X0032528Y0101900D02*
X0017800Y0101900D01*
X0017800Y0100902D02*
X0033721Y0100902D01*
X0040300Y0100902D02*
X0041300Y0100902D01*
X0041300Y0101900D02*
X0040300Y0101900D01*
X0040300Y0102899D02*
X0041300Y0102899D01*
X0041300Y0103897D02*
X0040300Y0103897D01*
X0040300Y0106893D02*
X0041300Y0106893D01*
X0041300Y0107891D02*
X0040300Y0107891D01*
X0040300Y0108890D02*
X0041300Y0108890D01*
X0041300Y0109888D02*
X0040300Y0109888D01*
X0040300Y0110887D02*
X0041300Y0110887D01*
X0032900Y0109888D02*
X0017800Y0109888D01*
X0017800Y0108890D02*
X0032033Y0108890D01*
X0031474Y0107891D02*
X0017800Y0107891D01*
X0017800Y0106893D02*
X0031167Y0106893D01*
X0017800Y0099903D02*
X0049185Y0099903D01*
X0049185Y0100902D02*
X0047879Y0100902D01*
X0049072Y0101900D02*
X0049185Y0101900D01*
X0050354Y0098905D02*
X0017800Y0098905D01*
X0017800Y0097906D02*
X0050354Y0097906D01*
X0050354Y0096908D02*
X0017800Y0096908D01*
X0017800Y0095909D02*
X0050125Y0095909D01*
X0050019Y0094911D02*
X0017800Y0094911D01*
X0017800Y0093912D02*
X0050199Y0093912D01*
X0050746Y0092914D02*
X0017800Y0092914D01*
X0031103Y0076937D02*
X0097331Y0076937D01*
X0100074Y0084926D02*
X0116500Y0084926D01*
X0116500Y0083927D02*
X0109419Y0083927D01*
X0110417Y0082929D02*
X0116183Y0082929D01*
X0115200Y0081930D02*
X0111400Y0081930D01*
X0113250Y0080932D02*
X0113350Y0080932D01*
X0113350Y0079933D02*
X0113250Y0079933D01*
X0113250Y0078934D02*
X0113350Y0078934D01*
X0113350Y0077936D02*
X0113250Y0077936D01*
X0117000Y0077600D02*
X0117000Y0081200D01*
X0118300Y0082500D01*
X0118300Y0089154D01*
X0108300Y0089154D01*
X0111568Y0086923D02*
X0114835Y0086923D01*
X0115557Y0085924D02*
X0111043Y0085924D01*
X0105557Y0085924D02*
X0099075Y0085924D01*
X0093300Y0089154D02*
X0075800Y0089154D01*
X0065800Y0089154D01*
X0069068Y0086923D02*
X0072335Y0086923D01*
X0073057Y0085924D02*
X0068543Y0085924D01*
X0069011Y0091915D02*
X0072589Y0091915D01*
X0072760Y0092914D02*
X0069057Y0092914D01*
X0069268Y0093912D02*
X0072335Y0093912D01*
X0072335Y0094911D02*
X0069268Y0094911D01*
X0066284Y0096908D02*
X0065316Y0096908D01*
X0065316Y0097906D02*
X0066284Y0097906D01*
X0066284Y0098905D02*
X0065316Y0098905D01*
X0062956Y0099903D02*
X0062415Y0099903D01*
X0062615Y0098905D02*
X0054554Y0098905D01*
X0054858Y0097906D02*
X0062331Y0097906D01*
X0062331Y0096908D02*
X0056032Y0096908D01*
X0055878Y0099903D02*
X0055722Y0099903D01*
X0055722Y0100902D02*
X0055878Y0100902D01*
X0055878Y0101900D02*
X0055722Y0101900D01*
X0055722Y0102899D02*
X0055878Y0102899D01*
X0055878Y0103897D02*
X0055722Y0103897D01*
X0055722Y0104896D02*
X0055878Y0104896D01*
X0056568Y0105894D02*
X0055032Y0105894D01*
X0059146Y0102500D02*
X0065347Y0102500D01*
X0062755Y0104896D02*
X0062415Y0104896D01*
X0061724Y0105894D02*
X0074876Y0105894D01*
X0074185Y0104896D02*
X0073845Y0104896D01*
X0077454Y0102500D02*
X0077454Y0097500D01*
X0075800Y0095846D01*
X0074185Y0099903D02*
X0073644Y0099903D01*
X0083615Y0108890D02*
X0090485Y0108890D01*
X0089736Y0109888D02*
X0084364Y0109888D01*
X0084364Y0110887D02*
X0089736Y0110887D01*
X0089736Y0111885D02*
X0084364Y0111885D01*
X0084364Y0112884D02*
X0089736Y0112884D01*
X0089736Y0113882D02*
X0084364Y0113882D01*
X0084364Y0114881D02*
X0089736Y0114881D01*
X0090176Y0115879D02*
X0083924Y0115879D01*
X0086724Y0105894D02*
X0089876Y0105894D01*
X0089185Y0104896D02*
X0087415Y0104896D01*
X0087415Y0103897D02*
X0089185Y0103897D01*
X0089185Y0102899D02*
X0087415Y0102899D01*
X0087415Y0101900D02*
X0089185Y0101900D01*
X0089185Y0100902D02*
X0087415Y0100902D01*
X0087415Y0099903D02*
X0089185Y0099903D01*
X0090354Y0098905D02*
X0086246Y0098905D01*
X0086246Y0097906D02*
X0090354Y0097906D01*
X0090354Y0096908D02*
X0086246Y0096908D01*
X0086475Y0095909D02*
X0090125Y0095909D01*
X0090019Y0094911D02*
X0086581Y0094911D01*
X0086401Y0093912D02*
X0090199Y0093912D01*
X0090746Y0092914D02*
X0085854Y0092914D01*
X0094858Y0097906D02*
X0104831Y0097906D01*
X0104831Y0096908D02*
X0096032Y0096908D01*
X0096475Y0095909D02*
X0107816Y0095909D01*
X0108784Y0095909D02*
X0114835Y0095909D01*
X0114835Y0094911D02*
X0111768Y0094911D01*
X0111768Y0093912D02*
X0114835Y0093912D01*
X0115260Y0092914D02*
X0111557Y0092914D01*
X0111511Y0091915D02*
X0115089Y0091915D01*
X0118300Y0095846D02*
X0117454Y0096693D01*
X0117454Y0102500D01*
X0117020Y0102933D01*
X0111686Y0102933D01*
X0111253Y0102500D01*
X0108378Y0102899D02*
X0108222Y0102899D01*
X0108222Y0103897D02*
X0108378Y0103897D01*
X0108222Y0104613D02*
X0107461Y0105375D01*
X0103234Y0105375D01*
X0102472Y0104613D01*
X0102472Y0104300D01*
X0102415Y0104300D01*
X0102415Y0105204D01*
X0101653Y0105965D01*
X0096639Y0105965D01*
X0095878Y0105204D01*
X0095878Y0099796D01*
X0096639Y0099035D01*
X0101653Y0099035D01*
X0102415Y0099796D01*
X0102415Y0100700D01*
X0102472Y0100700D01*
X0102472Y0100387D01*
X0103234Y0099625D01*
X0107461Y0099625D01*
X0108222Y0100387D01*
X0108222Y0104613D01*
X0107940Y0104896D02*
X0108660Y0104896D01*
X0108378Y0101900D02*
X0108222Y0101900D01*
X0108222Y0100902D02*
X0108378Y0100902D01*
X0108861Y0099903D02*
X0107739Y0099903D01*
X0107816Y0098905D02*
X0108784Y0098905D01*
X0108784Y0099512D02*
X0108784Y0096331D01*
X0111768Y0096331D01*
X0111768Y0098209D01*
X0111666Y0098591D01*
X0111469Y0098933D01*
X0111190Y0099212D01*
X0110847Y0099410D01*
X0110466Y0099512D01*
X0108784Y0099512D01*
X0108784Y0097906D02*
X0107816Y0097906D01*
X0107816Y0096908D02*
X0108784Y0096908D01*
X0111768Y0096908D02*
X0114835Y0096908D01*
X0114835Y0097906D02*
X0111768Y0097906D01*
X0111485Y0098905D02*
X0115386Y0098905D01*
X0114185Y0099903D02*
X0113644Y0099903D01*
X0114128Y0100902D02*
X0114185Y0100902D01*
X0117020Y0102933D02*
X0117020Y0112539D01*
X0112926Y0108890D02*
X0098674Y0108890D01*
X0099423Y0109888D02*
X0112177Y0109888D01*
X0114876Y0105894D02*
X0101724Y0105894D01*
X0102415Y0104896D02*
X0102755Y0104896D01*
X0105347Y0102500D02*
X0099146Y0102500D01*
X0095878Y0102899D02*
X0095722Y0102899D01*
X0095722Y0103897D02*
X0095878Y0103897D01*
X0095878Y0104896D02*
X0095722Y0104896D01*
X0095032Y0105894D02*
X0096568Y0105894D01*
X0095878Y0101900D02*
X0095722Y0101900D01*
X0095722Y0100902D02*
X0095878Y0100902D01*
X0095878Y0099903D02*
X0095722Y0099903D01*
X0094554Y0098905D02*
X0105115Y0098905D01*
X0102956Y0099903D02*
X0102415Y0099903D01*
X0104831Y0094911D02*
X0096581Y0094911D01*
X0096401Y0093912D02*
X0104831Y0093912D01*
X0105043Y0092914D02*
X0095854Y0092914D01*
X0113845Y0104896D02*
X0114185Y0104896D01*
X0120032Y0105894D02*
X0121568Y0105894D01*
X0121639Y0105965D02*
X0120878Y0105204D01*
X0120878Y0099796D01*
X0121639Y0099035D01*
X0122046Y0099035D01*
X0122046Y0095784D01*
X0122519Y0095311D01*
X0122519Y0094347D01*
X0123018Y0093141D01*
X0123941Y0092218D01*
X0125147Y0091719D01*
X0126453Y0091719D01*
X0127659Y0092218D01*
X0128582Y0093141D01*
X0129081Y0094347D01*
X0129081Y0095653D01*
X0128582Y0096859D01*
X0127659Y0097782D01*
X0126453Y0098281D01*
X0126246Y0098281D01*
X0126246Y0099035D01*
X0126653Y0099035D01*
X0127415Y0099796D01*
X0127415Y0105204D01*
X0126653Y0105965D01*
X0121639Y0105965D01*
X0120878Y0104896D02*
X0120722Y0104896D01*
X0120722Y0103897D02*
X0120878Y0103897D01*
X0120878Y0102899D02*
X0120722Y0102899D01*
X0120722Y0101900D02*
X0120878Y0101900D01*
X0120878Y0100902D02*
X0120722Y0100902D01*
X0120722Y0099903D02*
X0120878Y0099903D01*
X0121214Y0098905D02*
X0122046Y0098905D01*
X0122046Y0097906D02*
X0121765Y0097906D01*
X0121765Y0096908D02*
X0122046Y0096908D01*
X0122046Y0095909D02*
X0121765Y0095909D01*
X0121765Y0094911D02*
X0122519Y0094911D01*
X0122699Y0093912D02*
X0121765Y0093912D01*
X0121340Y0092914D02*
X0123246Y0092914D01*
X0124674Y0091915D02*
X0121511Y0091915D01*
X0126926Y0091915D02*
X0132174Y0091915D01*
X0130746Y0092914D02*
X0128354Y0092914D01*
X0128901Y0093912D02*
X0130199Y0093912D01*
X0130019Y0094911D02*
X0129081Y0094911D01*
X0128975Y0095909D02*
X0130125Y0095909D01*
X0130354Y0096908D02*
X0128532Y0096908D01*
X0127358Y0097906D02*
X0130354Y0097906D01*
X0130354Y0098905D02*
X0126246Y0098905D01*
X0127415Y0099903D02*
X0129185Y0099903D01*
X0129185Y0100902D02*
X0127415Y0100902D01*
X0127415Y0101900D02*
X0129185Y0101900D01*
X0129185Y0102899D02*
X0127415Y0102899D01*
X0127415Y0103897D02*
X0129185Y0103897D01*
X0129185Y0104896D02*
X0127415Y0104896D01*
X0126724Y0105894D02*
X0129876Y0105894D01*
X0130485Y0108890D02*
X0121115Y0108890D01*
X0121864Y0109888D02*
X0129736Y0109888D01*
X0129736Y0110887D02*
X0121864Y0110887D01*
X0121864Y0111885D02*
X0129736Y0111885D01*
X0129736Y0112884D02*
X0121864Y0112884D01*
X0121864Y0113882D02*
X0129736Y0113882D01*
X0129736Y0114881D02*
X0121864Y0114881D01*
X0121424Y0115879D02*
X0130176Y0115879D01*
X0129877Y0117876D02*
X0121440Y0117876D01*
X0121864Y0118875D02*
X0129536Y0118875D01*
X0129536Y0119873D02*
X0121864Y0119873D01*
X0121102Y0126200D02*
X0121864Y0126962D01*
X0121864Y0132763D01*
X0121102Y0133524D01*
X0112939Y0133524D01*
X0112177Y0132763D01*
X0112177Y0126962D01*
X0112939Y0126200D01*
X0121102Y0126200D01*
X0121765Y0126863D02*
X0129835Y0126863D01*
X0129736Y0127862D02*
X0121864Y0127862D01*
X0121864Y0128860D02*
X0129736Y0128860D01*
X0129736Y0129859D02*
X0121864Y0129859D01*
X0121864Y0130857D02*
X0129736Y0130857D01*
X0129736Y0131856D02*
X0121864Y0131856D01*
X0121773Y0132854D02*
X0129827Y0132854D01*
X0134080Y0124866D02*
X0135079Y0124866D01*
X0135079Y0123868D02*
X0134080Y0123868D01*
X0134080Y0122869D02*
X0135079Y0122869D01*
X0135079Y0119873D02*
X0134080Y0119873D01*
X0134080Y0118875D02*
X0135079Y0118875D01*
X0135079Y0117876D02*
X0134080Y0117876D01*
X0138983Y0115879D02*
X0144134Y0115879D01*
X0143135Y0114881D02*
X0139423Y0114881D01*
X0144232Y0110887D02*
X0152177Y0110887D01*
X0152177Y0111885D02*
X0145231Y0111885D01*
X0146229Y0112884D02*
X0152177Y0112884D01*
X0152177Y0113882D02*
X0147228Y0113882D01*
X0148226Y0114881D02*
X0152177Y0114881D01*
X0148660Y0104896D02*
X0147940Y0104896D01*
X0148222Y0103897D02*
X0148378Y0103897D01*
X0148378Y0102899D02*
X0148222Y0102899D01*
X0148222Y0101900D02*
X0148378Y0101900D01*
X0148378Y0100902D02*
X0148222Y0100902D01*
X0147739Y0099903D02*
X0148861Y0099903D01*
X0148784Y0099512D02*
X0148784Y0096331D01*
X0151768Y0096331D01*
X0151768Y0098209D01*
X0151666Y0098591D01*
X0151469Y0098933D01*
X0151190Y0099212D01*
X0150847Y0099410D01*
X0150466Y0099512D01*
X0148784Y0099512D01*
X0148784Y0098905D02*
X0147816Y0098905D01*
X0147816Y0097906D02*
X0148784Y0097906D01*
X0148784Y0096908D02*
X0147816Y0096908D01*
X0145115Y0098905D02*
X0134554Y0098905D01*
X0134858Y0097906D02*
X0144831Y0097906D01*
X0144831Y0096908D02*
X0136032Y0096908D01*
X0135878Y0099903D02*
X0135722Y0099903D01*
X0135722Y0100902D02*
X0135878Y0100902D01*
X0135878Y0101900D02*
X0135722Y0101900D01*
X0135722Y0102899D02*
X0135878Y0102899D01*
X0135878Y0103897D02*
X0135722Y0103897D01*
X0135722Y0104896D02*
X0135878Y0104896D01*
X0136568Y0105894D02*
X0135032Y0105894D01*
X0139146Y0102500D02*
X0145347Y0102500D01*
X0142755Y0104896D02*
X0142415Y0104896D01*
X0142415Y0099903D02*
X0142956Y0099903D01*
X0151485Y0098905D02*
X0155386Y0098905D01*
X0154835Y0097906D02*
X0151768Y0097906D01*
X0151768Y0096908D02*
X0154835Y0096908D01*
X0154185Y0099903D02*
X0153644Y0099903D01*
X0157454Y0102500D02*
X0158300Y0101654D01*
X0158300Y0095846D01*
X0166246Y0098905D02*
X0170354Y0098905D01*
X0170354Y0099035D02*
X0170354Y0096461D01*
X0170019Y0095653D01*
X0170019Y0094347D01*
X0170518Y0093141D01*
X0171441Y0092218D01*
X0172647Y0091719D01*
X0173953Y0091719D01*
X0175159Y0092218D01*
X0176082Y0093141D01*
X0176581Y0094347D01*
X0176581Y0095653D01*
X0176082Y0096859D01*
X0175159Y0097782D01*
X0174554Y0098032D01*
X0174554Y0099035D01*
X0174961Y0099035D01*
X0175722Y0099796D01*
X0175722Y0105204D01*
X0174961Y0105965D01*
X0169947Y0105965D01*
X0169185Y0105204D01*
X0169185Y0099796D01*
X0169947Y0099035D01*
X0170354Y0099035D01*
X0170354Y0097906D02*
X0167358Y0097906D01*
X0168532Y0096908D02*
X0170354Y0096908D01*
X0170125Y0095909D02*
X0168975Y0095909D01*
X0169081Y0094911D02*
X0170019Y0094911D01*
X0170199Y0093912D02*
X0168901Y0093912D01*
X0168354Y0092914D02*
X0170746Y0092914D01*
X0172174Y0091915D02*
X0166926Y0091915D01*
X0174426Y0091915D02*
X0177589Y0091915D01*
X0177543Y0092914D02*
X0175854Y0092914D01*
X0176401Y0093912D02*
X0177331Y0093912D01*
X0177331Y0094911D02*
X0176581Y0094911D01*
X0176475Y0095909D02*
X0180316Y0095909D01*
X0181284Y0095909D02*
X0187335Y0095909D01*
X0187335Y0094911D02*
X0184268Y0094911D01*
X0184268Y0093912D02*
X0187335Y0093912D01*
X0187760Y0092914D02*
X0184057Y0092914D01*
X0184011Y0091915D02*
X0187589Y0091915D01*
X0190800Y0089154D02*
X0180800Y0089154D01*
X0180800Y0085000D01*
X0178300Y0082500D01*
X0138300Y0082500D01*
X0137000Y0081200D01*
X0137000Y0077600D01*
X0133350Y0077936D02*
X0133250Y0077936D01*
X0133250Y0078934D02*
X0133350Y0078934D01*
X0133350Y0079933D02*
X0133250Y0079933D01*
X0133250Y0080932D02*
X0133350Y0080932D01*
X0135200Y0081930D02*
X0131400Y0081930D01*
X0131400Y0082929D02*
X0136183Y0082929D01*
X0137181Y0083927D02*
X0132273Y0083927D01*
X0133271Y0084926D02*
X0178180Y0084926D01*
X0180276Y0081930D02*
X0206200Y0081930D01*
X0206200Y0080932D02*
X0179277Y0080932D01*
X0181274Y0082929D02*
X0206200Y0082929D01*
X0206200Y0083927D02*
X0182273Y0083927D01*
X0181546Y0083200D02*
X0181546Y0083200D01*
X0182600Y0084926D02*
X0206200Y0084926D01*
X0206200Y0085924D02*
X0193543Y0085924D01*
X0194265Y0086923D02*
X0206200Y0086923D01*
X0206200Y0087921D02*
X0194265Y0087921D01*
X0194265Y0088920D02*
X0206200Y0088920D01*
X0206200Y0089918D02*
X0194265Y0089918D01*
X0194265Y0090917D02*
X0206200Y0090917D01*
X0206200Y0091915D02*
X0204426Y0091915D01*
X0205854Y0092914D02*
X0206200Y0092914D01*
X0202174Y0091915D02*
X0194011Y0091915D01*
X0193840Y0092914D02*
X0200746Y0092914D01*
X0200199Y0093912D02*
X0194265Y0093912D01*
X0194265Y0094911D02*
X0200019Y0094911D01*
X0200125Y0095909D02*
X0194265Y0095909D01*
X0194265Y0096908D02*
X0200568Y0096908D01*
X0201742Y0097906D02*
X0194265Y0097906D01*
X0193714Y0098905D02*
X0202046Y0098905D01*
X0200878Y0099903D02*
X0200722Y0099903D01*
X0200722Y0100902D02*
X0200878Y0100902D01*
X0200878Y0101900D02*
X0200722Y0101900D01*
X0200722Y0102899D02*
X0200878Y0102899D01*
X0200878Y0103897D02*
X0200722Y0103897D01*
X0200722Y0104896D02*
X0200878Y0104896D01*
X0201568Y0105894D02*
X0200032Y0105894D01*
X0197454Y0102500D02*
X0197454Y0110472D01*
X0199520Y0112539D01*
X0204364Y0114881D02*
X0233209Y0114881D01*
X0233209Y0115879D02*
X0203924Y0115879D01*
X0195426Y0108890D02*
X0181174Y0108890D01*
X0181923Y0109888D02*
X0194677Y0109888D01*
X0194876Y0105894D02*
X0181724Y0105894D01*
X0182415Y0104896D02*
X0182755Y0104896D01*
X0185347Y0102500D02*
X0179146Y0102500D01*
X0175878Y0102899D02*
X0175722Y0102899D01*
X0175722Y0103897D02*
X0175878Y0103897D01*
X0175878Y0104896D02*
X0175722Y0104896D01*
X0175032Y0105894D02*
X0176568Y0105894D01*
X0175878Y0101900D02*
X0175722Y0101900D01*
X0175722Y0100902D02*
X0175878Y0100902D01*
X0175878Y0099903D02*
X0175722Y0099903D01*
X0174554Y0098905D02*
X0177615Y0098905D01*
X0177331Y0097906D02*
X0174858Y0097906D01*
X0176032Y0096908D02*
X0177331Y0096908D01*
X0182415Y0099903D02*
X0182956Y0099903D01*
X0183985Y0098905D02*
X0187886Y0098905D01*
X0187739Y0099903D02*
X0188861Y0099903D01*
X0188378Y0100902D02*
X0188222Y0100902D01*
X0188222Y0101900D02*
X0188378Y0101900D01*
X0188378Y0102899D02*
X0188222Y0102899D01*
X0188222Y0103897D02*
X0188378Y0103897D01*
X0188660Y0104896D02*
X0187940Y0104896D01*
X0191253Y0102500D02*
X0191253Y0096299D01*
X0190800Y0095846D01*
X0187335Y0096908D02*
X0184268Y0096908D01*
X0184268Y0097906D02*
X0187335Y0097906D01*
X0191253Y0102500D02*
X0197454Y0102500D01*
X0194185Y0104896D02*
X0193845Y0104896D01*
X0193644Y0099903D02*
X0194185Y0099903D01*
X0187335Y0086923D02*
X0184068Y0086923D01*
X0183543Y0085924D02*
X0188057Y0085924D01*
X0204768Y0076937D02*
X0149268Y0076937D01*
X0149268Y0077936D02*
X0205766Y0077936D01*
X0202719Y0068949D02*
X0233209Y0068949D01*
X0233209Y0067951D02*
X0201721Y0067951D01*
X0209859Y0061960D02*
X0139977Y0061960D01*
X0138800Y0062958D02*
X0211104Y0062958D01*
X0212356Y0063957D02*
X0138995Y0063957D01*
X0139400Y0064955D02*
X0213608Y0064955D01*
X0216046Y0065954D02*
X0148573Y0065954D01*
X0149068Y0066952D02*
X0219865Y0066952D01*
X0224288Y0066952D02*
X0233209Y0066952D01*
X0233209Y0065954D02*
X0228256Y0065954D01*
X0229985Y0064955D02*
X0233209Y0064955D01*
X0233209Y0063957D02*
X0231714Y0063957D01*
X0232889Y0062958D02*
X0233209Y0062958D01*
X0233209Y0071945D02*
X0224159Y0071945D01*
X0224908Y0072943D02*
X0233209Y0072943D01*
X0233209Y0073942D02*
X0225230Y0073942D01*
X0225230Y0074940D02*
X0233209Y0074940D01*
X0233209Y0075939D02*
X0224849Y0075939D01*
X0224016Y0076937D02*
X0233209Y0076937D01*
X0218800Y0095909D02*
X0217800Y0095909D01*
X0217800Y0096908D02*
X0218800Y0096908D01*
X0218800Y0097906D02*
X0217800Y0097906D01*
X0217800Y0100902D02*
X0218800Y0100902D01*
X0218800Y0101900D02*
X0217800Y0101900D01*
X0217800Y0102899D02*
X0218800Y0102899D01*
X0218800Y0103897D02*
X0217800Y0103897D01*
X0222624Y0105894D02*
X0233209Y0105894D01*
X0233209Y0106893D02*
X0224274Y0106893D01*
X0225081Y0107891D02*
X0233209Y0107891D01*
X0233209Y0108890D02*
X0225494Y0108890D01*
X0225600Y0109888D02*
X0233209Y0109888D01*
X0233209Y0110887D02*
X0225587Y0110887D01*
X0225173Y0111885D02*
X0233209Y0111885D01*
X0233209Y0112884D02*
X0224497Y0112884D01*
X0223163Y0113882D02*
X0233209Y0113882D01*
X0233209Y0120872D02*
X0223110Y0120872D01*
X0224534Y0121870D02*
X0233209Y0121870D01*
X0233209Y0122869D02*
X0225265Y0122869D01*
X0177579Y0122869D02*
X0176580Y0122869D01*
X0176580Y0123868D02*
X0177579Y0123868D01*
X0177579Y0124866D02*
X0176580Y0124866D01*
X0172335Y0126863D02*
X0161765Y0126863D01*
X0161864Y0127862D02*
X0172236Y0127862D01*
X0172236Y0128860D02*
X0161864Y0128860D01*
X0161864Y0129859D02*
X0172236Y0129859D01*
X0172236Y0130857D02*
X0161864Y0130857D01*
X0161864Y0131856D02*
X0172236Y0131856D01*
X0172327Y0132854D02*
X0161773Y0132854D01*
X0176580Y0119873D02*
X0177579Y0119873D01*
X0177579Y0118875D02*
X0176580Y0118875D01*
X0176580Y0117876D02*
X0177579Y0117876D01*
X0169876Y0105894D02*
X0166724Y0105894D01*
X0167415Y0104896D02*
X0169185Y0104896D01*
X0169185Y0103897D02*
X0167415Y0103897D01*
X0167415Y0102899D02*
X0169185Y0102899D01*
X0169185Y0101900D02*
X0167415Y0101900D01*
X0167415Y0100902D02*
X0169185Y0100902D01*
X0169185Y0099903D02*
X0167415Y0099903D01*
X0145031Y0086923D02*
X0135268Y0086923D01*
X0134270Y0085924D02*
X0145557Y0085924D01*
X0145316Y0078934D02*
X0146284Y0078934D01*
X0146284Y0077936D02*
X0145316Y0077936D01*
X0145316Y0076937D02*
X0146284Y0076937D01*
X0142036Y0069948D02*
X0139400Y0069948D01*
X0139400Y0068949D02*
X0142531Y0068949D01*
X0142531Y0067951D02*
X0139400Y0067951D01*
X0139400Y0066952D02*
X0142531Y0066952D01*
X0143027Y0065954D02*
X0139400Y0065954D01*
X0137000Y0067400D02*
X0137000Y0056300D01*
X0138300Y0055000D01*
X0134000Y0054970D02*
X0132600Y0054970D01*
X0132600Y0053972D02*
X0134000Y0053972D01*
X0134000Y0052973D02*
X0132600Y0052973D01*
X0132600Y0051975D02*
X0134000Y0051975D01*
X0134070Y0050976D02*
X0132530Y0050976D01*
X0132117Y0049978D02*
X0134483Y0049978D01*
X0135240Y0048979D02*
X0131360Y0048979D01*
X0129833Y0047981D02*
X0136767Y0047981D01*
X0139833Y0047981D02*
X0205741Y0047981D01*
X0205646Y0048979D02*
X0141360Y0048979D01*
X0142117Y0049978D02*
X0205646Y0049978D01*
X0205646Y0050976D02*
X0142530Y0050976D01*
X0142600Y0051975D02*
X0205646Y0051975D01*
X0205646Y0052973D02*
X0142600Y0052973D01*
X0142600Y0053972D02*
X0205882Y0053972D01*
X0206190Y0054970D02*
X0142600Y0054970D01*
X0142600Y0055969D02*
X0206498Y0055969D01*
X0206806Y0056967D02*
X0142600Y0056967D01*
X0142600Y0057966D02*
X0207135Y0057966D01*
X0207816Y0058964D02*
X0142555Y0058964D01*
X0142141Y0059963D02*
X0208497Y0059963D01*
X0209178Y0060961D02*
X0141420Y0060961D01*
X0135180Y0060961D02*
X0131420Y0060961D01*
X0131400Y0061960D02*
X0135200Y0061960D01*
X0135200Y0062958D02*
X0131400Y0062958D01*
X0132141Y0059963D02*
X0134459Y0059963D01*
X0134045Y0058964D02*
X0132555Y0058964D01*
X0132600Y0057966D02*
X0134000Y0057966D01*
X0134000Y0056967D02*
X0132600Y0056967D01*
X0132600Y0055969D02*
X0134000Y0055969D01*
X0129600Y0056300D02*
X0129600Y0067400D01*
X0127200Y0066952D02*
X0119400Y0066952D01*
X0119400Y0065954D02*
X0127200Y0065954D01*
X0127200Y0064955D02*
X0119400Y0064955D01*
X0118995Y0063957D02*
X0127605Y0063957D01*
X0127800Y0062958D02*
X0118800Y0062958D01*
X0119977Y0061960D02*
X0126623Y0061960D01*
X0125180Y0060961D02*
X0121420Y0060961D01*
X0122141Y0059963D02*
X0124459Y0059963D01*
X0124045Y0058964D02*
X0122555Y0058964D01*
X0122600Y0057966D02*
X0124000Y0057966D01*
X0124000Y0056967D02*
X0122600Y0056967D01*
X0122600Y0055969D02*
X0124000Y0055969D01*
X0124000Y0054970D02*
X0122600Y0054970D01*
X0122600Y0053972D02*
X0124000Y0053972D01*
X0124000Y0052973D02*
X0122600Y0052973D01*
X0122600Y0051975D02*
X0124000Y0051975D01*
X0124070Y0050976D02*
X0122530Y0050976D01*
X0122117Y0049978D02*
X0124483Y0049978D01*
X0125240Y0048979D02*
X0121360Y0048979D01*
X0119833Y0047981D02*
X0126767Y0047981D01*
X0128300Y0055000D02*
X0129600Y0056300D01*
X0118300Y0055000D02*
X0117000Y0056300D01*
X0117000Y0067400D01*
X0119400Y0067951D02*
X0127200Y0067951D01*
X0127200Y0068949D02*
X0119400Y0068949D01*
X0119400Y0069948D02*
X0127200Y0069948D01*
X0127200Y0074940D02*
X0119400Y0074940D01*
X0119400Y0075939D02*
X0127200Y0075939D01*
X0127200Y0076937D02*
X0119400Y0076937D01*
X0113300Y0070000D02*
X0113300Y0067400D01*
X0133300Y0067400D02*
X0133300Y0070000D01*
X0103339Y0112539D02*
X0094580Y0112539D01*
X0099423Y0114881D02*
X0103135Y0114881D01*
X0111222Y0117876D02*
X0112601Y0117876D01*
X0112276Y0126863D02*
X0099324Y0126863D01*
X0099423Y0127862D02*
X0112177Y0127862D01*
X0112177Y0128860D02*
X0099423Y0128860D01*
X0099423Y0129859D02*
X0112177Y0129859D01*
X0112177Y0130857D02*
X0099423Y0130857D01*
X0099423Y0131856D02*
X0112177Y0131856D01*
X0112268Y0132854D02*
X0099332Y0132854D01*
X0077335Y0155820D02*
X0064324Y0155820D01*
X0064324Y0156818D02*
X0077335Y0156818D01*
X0077335Y0157817D02*
X0064324Y0157817D01*
X0064324Y0158815D02*
X0077335Y0158815D01*
X0077988Y0159814D02*
X0063612Y0159814D01*
X0057800Y0164937D02*
X0057800Y0170661D01*
X0058800Y0170661D01*
X0058800Y0171661D01*
X0064524Y0171661D01*
X0064524Y0176083D01*
X0064422Y0176465D01*
X0064225Y0176807D01*
X0063945Y0177086D01*
X0063603Y0177284D01*
X0063222Y0177386D01*
X0058800Y0177386D01*
X0058800Y0171661D01*
X0057800Y0171661D01*
X0057800Y0170661D01*
X0052076Y0170661D01*
X0052076Y0166240D01*
X0052178Y0165858D01*
X0052375Y0165516D01*
X0052655Y0165237D01*
X0052997Y0165039D01*
X0053378Y0164937D01*
X0057800Y0164937D01*
X0057800Y0165805D02*
X0058800Y0165805D01*
X0058800Y0166803D02*
X0057800Y0166803D01*
X0057800Y0167802D02*
X0058800Y0167802D01*
X0058800Y0168801D02*
X0057800Y0168801D01*
X0057800Y0169799D02*
X0058800Y0169799D01*
X0058800Y0170798D02*
X0066644Y0170798D01*
X0066500Y0171796D02*
X0064524Y0171796D01*
X0064524Y0172795D02*
X0066500Y0172795D01*
X0066500Y0173793D02*
X0064524Y0173793D01*
X0064524Y0174792D02*
X0066500Y0174792D01*
X0066500Y0175790D02*
X0064524Y0175790D01*
X0064235Y0176789D02*
X0066500Y0176789D01*
X0066500Y0177787D02*
X0050400Y0177787D01*
X0050400Y0176789D02*
X0052365Y0176789D01*
X0052375Y0176807D02*
X0052178Y0176465D01*
X0052076Y0176083D01*
X0052076Y0171661D01*
X0057800Y0171661D01*
X0057800Y0177386D01*
X0053378Y0177386D01*
X0052997Y0177284D01*
X0052655Y0177086D01*
X0052375Y0176807D01*
X0052076Y0175790D02*
X0050400Y0175790D01*
X0050400Y0174792D02*
X0052076Y0174792D01*
X0052076Y0173793D02*
X0050400Y0173793D01*
X0050400Y0172795D02*
X0052076Y0172795D01*
X0052076Y0171796D02*
X0050400Y0171796D01*
X0049567Y0170798D02*
X0057800Y0170798D01*
X0057800Y0171796D02*
X0058800Y0171796D01*
X0058800Y0172795D02*
X0057800Y0172795D01*
X0057800Y0173793D02*
X0058800Y0173793D01*
X0058800Y0174792D02*
X0057800Y0174792D01*
X0057800Y0175790D02*
X0058800Y0175790D01*
X0058800Y0176789D02*
X0057800Y0176789D01*
X0052052Y0180783D02*
X0064547Y0180783D01*
X0063549Y0181781D02*
X0053051Y0181781D01*
X0054050Y0182780D02*
X0062550Y0182780D01*
X0065546Y0179784D02*
X0051054Y0179784D01*
X0050400Y0178786D02*
X0066500Y0178786D01*
X0067057Y0169799D02*
X0064524Y0169799D01*
X0064524Y0168801D02*
X0067918Y0168801D01*
X0069698Y0167802D02*
X0064524Y0167802D01*
X0052076Y0167802D02*
X0046572Y0167802D01*
X0047570Y0168801D02*
X0052076Y0168801D01*
X0052076Y0169799D02*
X0048569Y0169799D01*
X0045573Y0166803D02*
X0052076Y0166803D01*
X0052208Y0165805D02*
X0044575Y0165805D01*
X0041631Y0168801D02*
X0040293Y0168801D01*
X0040632Y0167802D02*
X0039366Y0167802D01*
X0039634Y0166803D02*
X0037663Y0166803D01*
X0038700Y0165805D02*
X0035934Y0165805D01*
X0038700Y0164806D02*
X0032871Y0164806D01*
X0038700Y0163808D02*
X0017800Y0163808D01*
X0017800Y0164806D02*
X0024807Y0164806D01*
X0022263Y0165805D02*
X0017800Y0165805D01*
X0017800Y0166803D02*
X0020267Y0166803D01*
X0019015Y0167802D02*
X0017800Y0167802D01*
X0017800Y0162809D02*
X0038700Y0162809D01*
X0038700Y0161811D02*
X0017800Y0161811D01*
X0041219Y0169799D02*
X0042629Y0169799D01*
X0042146Y0170798D02*
X0043628Y0170798D01*
X0042884Y0171796D02*
X0044626Y0171796D01*
X0045625Y0172795D02*
X0043365Y0172795D01*
X0043846Y0173793D02*
X0046200Y0173793D01*
X0046200Y0174792D02*
X0044327Y0174792D01*
X0044807Y0175790D02*
X0046200Y0175790D01*
X0046200Y0176789D02*
X0044963Y0176789D01*
X0045114Y0177787D02*
X0046200Y0177787D01*
X0046200Y0178786D02*
X0045264Y0178786D01*
X0045415Y0179784D02*
X0046200Y0179784D01*
X0046200Y0180783D02*
X0045531Y0180783D01*
X0045380Y0181781D02*
X0047111Y0181781D01*
X0048110Y0182780D02*
X0045230Y0182780D01*
X0045079Y0183778D02*
X0049108Y0183778D01*
X0050107Y0184777D02*
X0044929Y0184777D01*
X0044698Y0185775D02*
X0051105Y0185775D01*
X0052104Y0186774D02*
X0044217Y0186774D01*
X0043737Y0187772D02*
X0207078Y0187772D01*
X0206770Y0186774D02*
X0174496Y0186774D01*
X0175495Y0185775D02*
X0206462Y0185775D01*
X0206154Y0184777D02*
X0176493Y0184777D01*
X0177492Y0183778D02*
X0205846Y0183778D01*
X0205646Y0182780D02*
X0178490Y0182780D01*
X0171300Y0176789D02*
X0170300Y0176789D01*
X0170300Y0175790D02*
X0171300Y0175790D01*
X0171300Y0174792D02*
X0170300Y0174792D01*
X0170300Y0173793D02*
X0171300Y0173793D01*
X0171300Y0172795D02*
X0170300Y0172795D01*
X0170300Y0171796D02*
X0171300Y0171796D01*
X0195100Y0174792D02*
X0200300Y0174792D01*
X0200300Y0174500D02*
X0200300Y0175500D01*
X0201300Y0175500D01*
X0201300Y0182477D01*
X0201854Y0182389D01*
X0202527Y0182170D01*
X0203159Y0181849D01*
X0203732Y0181432D01*
X0204232Y0180932D01*
X0204649Y0180359D01*
X0204970Y0179727D01*
X0205189Y0179054D01*
X0205300Y0178354D01*
X0205300Y0175500D01*
X0201300Y0175500D01*
X0201300Y0174500D01*
X0205300Y0174500D01*
X0205300Y0171646D01*
X0205189Y0170946D01*
X0204970Y0170273D01*
X0204649Y0169641D01*
X0204232Y0169068D01*
X0203732Y0168568D01*
X0203159Y0168151D01*
X0202527Y0167830D01*
X0201854Y0167611D01*
X0201300Y0167523D01*
X0201300Y0174500D01*
X0200300Y0174500D01*
X0200300Y0173793D02*
X0201300Y0173793D01*
X0201300Y0172795D02*
X0200300Y0172795D01*
X0200300Y0171796D02*
X0201300Y0171796D01*
X0201300Y0170798D02*
X0200300Y0170798D01*
X0200300Y0169799D02*
X0201300Y0169799D01*
X0201300Y0168801D02*
X0200300Y0168801D01*
X0200300Y0167802D02*
X0201300Y0167802D01*
X0202442Y0167802D02*
X0211928Y0167802D01*
X0210676Y0168801D02*
X0203964Y0168801D01*
X0204729Y0169799D02*
X0209626Y0169799D01*
X0208945Y0170798D02*
X0205141Y0170798D01*
X0205300Y0171796D02*
X0208264Y0171796D01*
X0207583Y0172795D02*
X0205300Y0172795D01*
X0205300Y0173793D02*
X0207008Y0173793D01*
X0206700Y0174792D02*
X0201300Y0174792D01*
X0201300Y0175790D02*
X0200300Y0175790D01*
X0200300Y0176789D02*
X0201300Y0176789D01*
X0201300Y0177787D02*
X0200300Y0177787D01*
X0200300Y0178786D02*
X0201300Y0178786D01*
X0201300Y0179784D02*
X0200300Y0179784D01*
X0200300Y0180783D02*
X0201300Y0180783D01*
X0201300Y0181781D02*
X0200300Y0181781D01*
X0203252Y0181781D02*
X0205646Y0181781D01*
X0205646Y0180783D02*
X0204341Y0180783D01*
X0204941Y0179784D02*
X0205646Y0179784D01*
X0205646Y0178786D02*
X0205232Y0178786D01*
X0205300Y0177787D02*
X0205776Y0177787D01*
X0206084Y0176789D02*
X0205300Y0176789D01*
X0205300Y0175790D02*
X0206392Y0175790D01*
X0207738Y0188771D02*
X0043256Y0188771D01*
X0042775Y0189769D02*
X0208419Y0189769D01*
X0209099Y0190768D02*
X0041935Y0190768D01*
X0041009Y0191766D02*
X0209780Y0191766D01*
X0233206Y0168801D02*
X0233209Y0168801D01*
X0233209Y0167802D02*
X0232280Y0167802D01*
X0233209Y0166803D02*
X0230577Y0166803D01*
X0228847Y0165805D02*
X0233209Y0165805D01*
X0206049Y0046982D02*
X0044980Y0046982D01*
X0044830Y0045984D02*
X0206357Y0045984D01*
X0206665Y0044985D02*
X0044382Y0044985D01*
X0043901Y0043987D02*
X0206973Y0043987D01*
X0207505Y0042988D02*
X0043420Y0042988D01*
X0042939Y0041990D02*
X0208186Y0041990D01*
X0208867Y0040991D02*
X0042252Y0040991D01*
X0041326Y0039993D02*
X0209547Y0039993D01*
X0089708Y0165805D02*
X0084265Y0165805D01*
X0082700Y0166803D02*
X0089576Y0166803D01*
X0089576Y0167802D02*
X0082700Y0167802D01*
X0083682Y0168801D02*
X0089576Y0168801D01*
X0089576Y0169799D02*
X0084543Y0169799D01*
D21*
X0070800Y0175000D02*
X0070800Y0177500D01*
X0063300Y0185000D01*
X0053300Y0185000D01*
X0048300Y0180000D01*
X0048300Y0172500D01*
X0040800Y0165000D01*
X0040800Y0125709D01*
X0052454Y0102500D02*
X0052454Y0095846D01*
X0053300Y0095000D01*
X0083300Y0095000D02*
X0084146Y0095846D01*
X0084146Y0102500D01*
X0092454Y0102500D02*
X0092454Y0095846D01*
X0093300Y0095000D01*
X0105800Y0072500D02*
X0115800Y0072500D01*
X0113300Y0070000D01*
X0115800Y0072500D02*
X0135800Y0072500D01*
X0133300Y0070000D01*
X0135800Y0072500D02*
X0142454Y0072500D01*
X0145800Y0069154D01*
X0199954Y0069154D01*
X0208300Y0077500D01*
X0208300Y0107500D01*
X0210800Y0110000D01*
X0218300Y0110000D01*
X0204146Y0102500D02*
X0204146Y0095846D01*
X0203300Y0095000D01*
X0173300Y0095000D02*
X0172454Y0095846D01*
X0172454Y0102500D01*
X0164146Y0102500D02*
X0164146Y0096654D01*
X0165800Y0095000D01*
X0133300Y0095000D02*
X0132454Y0095846D01*
X0132454Y0102500D01*
X0124146Y0102500D02*
X0124146Y0096654D01*
X0125800Y0095000D01*
X0105800Y0072500D02*
X0102454Y0069154D01*
X0100800Y0069154D01*
X0110800Y0175000D02*
X0110800Y0177500D01*
X0103300Y0185000D01*
X0063300Y0185000D01*
X0103300Y0185000D02*
X0133300Y0185000D01*
X0140800Y0177500D01*
X0140800Y0175000D01*
X0133300Y0185000D02*
X0173300Y0185000D01*
X0180800Y0177500D01*
X0180800Y0175000D01*
D22*
X0173300Y0095000D03*
X0165800Y0095000D03*
X0133300Y0095000D03*
X0125800Y0095000D03*
X0093300Y0095000D03*
X0083300Y0095000D03*
X0053300Y0095000D03*
X0203300Y0095000D03*
D23*
X0134619Y0142500D02*
X0134580Y0142461D01*
X0080800Y0163346D02*
X0080800Y0175000D01*
X0190800Y0175000D02*
X0190800Y0163346D01*
M02*
