G75*
%MOIN*%
%OFA0B0*%
%FSLAX25Y25*%
%IPPOS*%
%LPD*%
%AMOC8*
5,1,8,0,0,1.08239X$1,22.5*
%
%ADD10C,0.06800*%
%ADD11R,0.05131X0.04737*%
%ADD12R,0.04737X0.05131*%
%ADD13R,0.03000X0.05800*%
%ADD14R,0.07887X0.05524*%
%ADD15R,0.03950X0.03950*%
%ADD16C,0.09050*%
%ADD17C,0.12611*%
%ADD18R,0.10249X0.10249*%
%ADD19C,0.04737*%
%ADD20C,0.04762*%
D10*
X0108300Y0052000D02*
X0108300Y0058000D01*
X0118300Y0058000D02*
X0118300Y0052000D01*
X0128300Y0052000D02*
X0128300Y0058000D01*
X0138300Y0058000D02*
X0138300Y0052000D01*
X0215300Y0100000D02*
X0221300Y0100000D01*
X0221300Y0110000D02*
X0215300Y0110000D01*
X0215300Y0125000D02*
X0221300Y0125000D01*
X0221300Y0135000D02*
X0215300Y0135000D01*
X0200800Y0172000D02*
X0200800Y0178000D01*
X0190800Y0178000D02*
X0190800Y0172000D01*
X0180800Y0172000D02*
X0180800Y0178000D01*
X0160800Y0178000D02*
X0160800Y0172000D01*
X0150800Y0172000D02*
X0150800Y0178000D01*
X0140800Y0178000D02*
X0140800Y0172000D01*
X0120800Y0172000D02*
X0120800Y0178000D01*
X0110800Y0178000D02*
X0110800Y0172000D01*
X0080800Y0172000D02*
X0080800Y0178000D01*
X0070800Y0178000D02*
X0070800Y0172000D01*
D11*
X0080800Y0163346D03*
X0080800Y0156654D03*
X0115800Y0156654D03*
X0115800Y0163346D03*
X0150800Y0163346D03*
X0150800Y0156654D03*
X0190800Y0156654D03*
X0190800Y0163346D03*
X0190800Y0095846D03*
X0190800Y0089154D03*
X0158300Y0089154D03*
X0158300Y0095846D03*
X0118300Y0095846D03*
X0118300Y0089154D03*
X0075800Y0089154D03*
X0075800Y0095846D03*
D12*
X0077454Y0102500D03*
X0084146Y0102500D03*
X0092454Y0102500D03*
X0099146Y0102500D03*
X0108300Y0095846D03*
X0108300Y0089154D03*
X0100800Y0075846D03*
X0100800Y0069154D03*
X0065800Y0089154D03*
X0065800Y0095846D03*
X0059146Y0102500D03*
X0052454Y0102500D03*
X0117454Y0102500D03*
X0124146Y0102500D03*
X0132454Y0102500D03*
X0139146Y0102500D03*
X0148300Y0095846D03*
X0148300Y0089154D03*
X0145800Y0075846D03*
X0145800Y0069154D03*
X0180800Y0089154D03*
X0180800Y0095846D03*
X0179146Y0102500D03*
X0172454Y0102500D03*
X0164146Y0102500D03*
X0157454Y0102500D03*
X0197454Y0102500D03*
X0204146Y0102500D03*
D13*
X0137000Y0077600D03*
X0133300Y0077600D03*
X0129600Y0077600D03*
X0129600Y0067400D03*
X0133300Y0067400D03*
X0137000Y0067400D03*
X0117000Y0067400D03*
X0113300Y0067400D03*
X0109600Y0067400D03*
X0109600Y0077600D03*
X0113300Y0077600D03*
X0117000Y0077600D03*
D14*
X0117020Y0112539D03*
X0117020Y0121201D03*
X0117020Y0129862D03*
X0117020Y0142461D03*
X0134580Y0142461D03*
X0134580Y0129862D03*
X0134580Y0121201D03*
X0134580Y0112539D03*
X0157020Y0112539D03*
X0157020Y0121201D03*
X0157020Y0129862D03*
X0157020Y0142461D03*
X0177080Y0142461D03*
X0177080Y0129862D03*
X0177080Y0121201D03*
X0177080Y0112539D03*
X0199520Y0112539D03*
X0199520Y0121201D03*
X0199520Y0129862D03*
X0199520Y0142461D03*
X0094580Y0142461D03*
X0094580Y0129862D03*
X0094580Y0121201D03*
X0094580Y0112539D03*
X0079520Y0112539D03*
X0079520Y0121201D03*
X0079520Y0129862D03*
X0079520Y0142461D03*
X0057080Y0142461D03*
X0057080Y0129862D03*
X0057080Y0121201D03*
X0057080Y0112539D03*
D15*
X0065347Y0102500D03*
X0071253Y0102500D03*
X0105347Y0102500D03*
X0111253Y0102500D03*
X0145347Y0102500D03*
X0151253Y0102500D03*
X0185347Y0102500D03*
X0191253Y0102500D03*
D16*
X0044925Y0105709D02*
X0036675Y0105709D01*
X0036675Y0125709D02*
X0044925Y0125709D01*
D17*
X0029048Y0050748D03*
X0029048Y0180669D03*
X0221961Y0180669D03*
X0221961Y0050748D03*
D18*
X0170800Y0153839D03*
X0170800Y0171161D03*
X0130800Y0171161D03*
X0130800Y0153839D03*
X0095800Y0153839D03*
X0095800Y0171161D03*
X0058300Y0171161D03*
X0058300Y0153839D03*
D19*
X0029048Y0157047D03*
X0029048Y0074370D03*
X0221961Y0074370D03*
X0221961Y0157047D03*
D20*
X0203300Y0095000D03*
X0173300Y0095000D03*
X0165800Y0095000D03*
X0133300Y0095000D03*
X0125800Y0095000D03*
X0093300Y0095000D03*
X0083300Y0095000D03*
X0053300Y0095000D03*
M02*
