%
M48
M72
T01C0.01378
T02C0.01969
T03C0.02756
T04C0.04000
T05C0.04921
T06C0.11811
%
T01
X84915Y59600
X182411Y69600
X225600Y77600
X230600Y78600
X237600Y78600
X242600Y78600
X253915Y79600
X233915Y94600
X196915Y114600
X149600Y110600
X103915Y116600
X76915Y113600
X137915Y140600
X133915Y144600
X129915Y147600
X124415Y148100
X181915Y152600
X184915Y148600
X187915Y144600
X190915Y140600
X231411Y161600
X210911Y166600
X180911Y167100
X254915Y159600
X315600Y131600
X318600Y122600
X314600Y118600
X318600Y114600
X318915Y105600
X317600Y99600
X317915Y94600
X319100Y89100
X292915Y97600
X278600Y104600
X296600Y111600
X284600Y121600
X281600Y125600
X287600Y125600
X290600Y129600
X332915Y149600
X338474Y153600
X343474Y153600
X347915Y158600
X367915Y148600
X356915Y141600
X323915Y162600
X290600Y86600
X284600Y86600
X281600Y82600
X287600Y82600
T02
X271915Y78600
X248600Y78600
X212600Y82600
X206915Y82600
X188600Y74600
X187600Y66600
X211600Y62600
X142100Y74100
X96600Y95600
X78600Y91600
X79600Y73100
X151600Y97600
X175600Y98600
X181600Y97600
X180600Y104100
X199600Y105600
X203600Y101600
X204600Y115600
X201915Y121600
X225915Y115600
X240915Y102600
X232915Y99600
X248915Y99600
X257915Y101600
X256915Y108600
X278600Y98600
X309600Y92600
X313600Y108600
X299600Y116600
X310600Y126600
X304600Y133600
X286600Y133600
X278915Y120600
X261128Y132734
X249915Y135600
X226915Y136600
X212915Y149600
X210915Y154600
X223600Y154600
X248600Y154600
X166600Y122600
X158600Y119600
X151600Y128600
X82600Y116600
X351600Y67600
X391915Y79600
X389415Y142100
X367730Y141100
T03
X72411Y125474
X72411Y109726
T04
X96600Y56600
X106600Y56600
X116600Y56600
X166600Y56600
X176600Y56600
X186600Y56600
X196600Y56600
X206600Y56600
X216600Y56600
X226600Y56600
X236600Y56600
X246600Y56600
X256600Y56600
X266600Y56600
X276600Y56600
X286600Y56600
X296600Y56600
X306600Y56600
X316600Y56600
X356600Y56600
X366600Y56600
X376600Y56600
X386600Y56600
X381600Y176600
X371600Y176600
X361600Y176600
X391600Y176600
X316600Y176600
X306600Y176600
X296600Y176600
X286600Y176600
X276600Y176600
X266600Y176600
X256600Y176600
X246600Y176600
X236600Y176600
X226600Y176600
X216600Y176600
X206600Y176600
X196600Y176600
X186600Y176600
X176600Y176600
X166600Y176600
X116600Y176600
X106600Y176600
X96600Y176600
X94230Y144100
X104230Y144100
X114230Y144100
X84230Y144100
X74230Y144100
X64230Y144100
T05
X62600Y97175
X62600Y69025
T06
X143529Y52348
X336443Y52348
X336443Y182269
X143529Y182269
M30
