G75*
%MOIN*%
%OFA0B0*%
%FSLAX25Y25*%
%IPPOS*%
%LPD*%
%AMOC8*
5,1,8,0,0,1.08239X$1,22.5*
%
%ADD10C,0.00400*%
%ADD11R,0.02520X0.04016*%
%ADD12R,0.04331X0.03937*%
%ADD13R,0.03937X0.04331*%
%ADD14R,0.04724X0.07874*%
%ADD15R,0.15000X0.15000*%
%ADD16R,0.17000X0.17000*%
%ADD17C,0.07480*%
%ADD18C,0.06000*%
%ADD19R,0.03346X0.01378*%
%ADD20R,0.03500X0.03100*%
%ADD21C,0.01200*%
%ADD22C,0.02953*%
%ADD23C,0.02362*%
%ADD24C,0.00700*%
%ADD25C,0.01600*%
D10*
X0079017Y0176800D02*
X0079017Y0181404D01*
X0081319Y0179102D01*
X0078250Y0179102D01*
D11*
X0211915Y0114860D03*
X0216954Y0114860D03*
D12*
X0217742Y0123214D03*
X0211049Y0123214D03*
X0220183Y0098198D03*
X0226876Y0098198D03*
X0258100Y0096446D03*
X0258100Y0089754D03*
X0261954Y0109002D03*
X0268647Y0109002D03*
X0267954Y0132502D03*
X0274647Y0132502D03*
X0361915Y0160754D03*
X0371915Y0160754D03*
X0381915Y0160754D03*
X0391915Y0160754D03*
X0391915Y0167446D03*
X0381915Y0167446D03*
X0371915Y0167446D03*
X0361915Y0167446D03*
X0205446Y0081600D03*
X0198754Y0081600D03*
X0116915Y0074946D03*
X0106915Y0074946D03*
X0096915Y0074946D03*
X0096915Y0068254D03*
X0106915Y0068254D03*
X0116915Y0068254D03*
D13*
X0191254Y0066600D03*
X0197946Y0066600D03*
X0206254Y0066600D03*
X0212946Y0066600D03*
X0248317Y0086868D03*
X0248317Y0093561D03*
X0264254Y0099100D03*
X0270946Y0099100D03*
X0323254Y0097600D03*
X0329946Y0097600D03*
X0329946Y0089100D03*
X0323254Y0089100D03*
X0323254Y0106100D03*
X0329946Y0106100D03*
X0329946Y0114600D03*
X0323254Y0114600D03*
X0323254Y0123100D03*
X0329946Y0123100D03*
X0329946Y0131600D03*
X0323254Y0131600D03*
X0249513Y0141639D03*
X0249513Y0148332D03*
X0226513Y0147332D03*
X0226513Y0140639D03*
D14*
X0240513Y0120498D03*
X0240513Y0109474D03*
D15*
X0378600Y0078809D03*
X0378600Y0141309D03*
D16*
X0378600Y0109809D03*
D17*
X0062600Y0097175D03*
X0062600Y0069025D03*
D18*
X0096600Y0059600D02*
X0096600Y0053600D01*
X0106600Y0053600D02*
X0106600Y0059600D01*
X0116600Y0059600D02*
X0116600Y0053600D01*
X0166600Y0053600D02*
X0166600Y0059600D01*
X0176600Y0059600D02*
X0176600Y0053600D01*
X0186600Y0053600D02*
X0186600Y0059600D01*
X0196600Y0059600D02*
X0196600Y0053600D01*
X0206600Y0053600D02*
X0206600Y0059600D01*
X0216600Y0059600D02*
X0216600Y0053600D01*
X0226600Y0053600D02*
X0226600Y0059600D01*
X0236600Y0059600D02*
X0236600Y0053600D01*
X0246600Y0053600D02*
X0246600Y0059600D01*
X0256600Y0059600D02*
X0256600Y0053600D01*
X0266600Y0053600D02*
X0266600Y0059600D01*
X0276600Y0059600D02*
X0276600Y0053600D01*
X0286600Y0053600D02*
X0286600Y0059600D01*
X0296600Y0059600D02*
X0296600Y0053600D01*
X0306600Y0053600D02*
X0306600Y0059600D01*
X0316600Y0059600D02*
X0316600Y0053600D01*
X0356600Y0053600D02*
X0356600Y0059600D01*
X0366600Y0059600D02*
X0366600Y0053600D01*
X0376600Y0053600D02*
X0376600Y0059600D01*
X0386600Y0059600D02*
X0386600Y0053600D01*
X0381600Y0173600D02*
X0381600Y0179600D01*
X0371600Y0179600D02*
X0371600Y0173600D01*
X0361600Y0173600D02*
X0361600Y0179600D01*
X0391600Y0179600D02*
X0391600Y0173600D01*
X0316600Y0173600D02*
X0316600Y0179600D01*
X0306600Y0179600D02*
X0306600Y0173600D01*
X0296600Y0173600D02*
X0296600Y0179600D01*
X0286600Y0179600D02*
X0286600Y0173600D01*
X0276600Y0173600D02*
X0276600Y0179600D01*
X0266600Y0179600D02*
X0266600Y0173600D01*
X0256600Y0173600D02*
X0256600Y0179600D01*
X0246600Y0179600D02*
X0246600Y0173600D01*
X0236600Y0173600D02*
X0236600Y0179600D01*
X0226600Y0179600D02*
X0226600Y0173600D01*
X0216600Y0173600D02*
X0216600Y0179600D01*
X0206600Y0179600D02*
X0206600Y0173600D01*
X0196600Y0173600D02*
X0196600Y0179600D01*
X0186600Y0179600D02*
X0186600Y0173600D01*
X0176600Y0173600D02*
X0176600Y0179600D01*
X0166600Y0179600D02*
X0166600Y0173600D01*
X0116600Y0173600D02*
X0116600Y0179600D01*
X0106600Y0179600D02*
X0106600Y0173600D01*
X0096600Y0173600D02*
X0096600Y0179600D01*
X0094230Y0147100D02*
X0094230Y0141100D01*
X0104230Y0141100D02*
X0104230Y0147100D01*
X0114230Y0147100D02*
X0114230Y0141100D01*
X0084230Y0141100D02*
X0084230Y0147100D01*
X0074230Y0147100D02*
X0074230Y0141100D01*
X0064230Y0141100D02*
X0064230Y0147100D01*
D19*
X0197769Y0077159D03*
X0206431Y0077159D03*
X0206431Y0074600D03*
X0206431Y0072041D03*
X0197769Y0072041D03*
X0197769Y0074600D03*
D20*
X0263650Y0088100D03*
X0271550Y0091800D03*
X0271550Y0084400D03*
D21*
X0067243Y0039262D02*
X0064041Y0041111D01*
X0061426Y0043726D01*
X0059577Y0046928D01*
X0058620Y0050499D01*
X0058499Y0052348D01*
X0058499Y0066153D01*
X0059807Y0064845D01*
X0061619Y0064094D01*
X0063581Y0064094D01*
X0065393Y0064845D01*
X0066780Y0066232D01*
X0067531Y0068044D01*
X0067531Y0070006D01*
X0066780Y0071818D01*
X0065393Y0073205D01*
X0063581Y0073956D01*
X0061619Y0073956D01*
X0059807Y0073205D01*
X0058499Y0071897D01*
X0058499Y0094303D01*
X0059807Y0092995D01*
X0061619Y0092244D01*
X0063581Y0092244D01*
X0065393Y0092995D01*
X0066780Y0094382D01*
X0067531Y0096194D01*
X0067531Y0098156D01*
X0066780Y0099968D01*
X0065496Y0101252D01*
X0068178Y0101252D01*
X0069370Y0101940D01*
X0069370Y0101940D01*
X0069370Y0101940D01*
X0070058Y0103132D01*
X0070058Y0107890D01*
X0070733Y0107215D01*
X0071822Y0106764D01*
X0073000Y0106764D01*
X0074089Y0107215D01*
X0074922Y0108048D01*
X0075373Y0109137D01*
X0075373Y0110315D01*
X0074922Y0111404D01*
X0074089Y0112237D01*
X0073000Y0112688D01*
X0071822Y0112688D01*
X0070733Y0112237D01*
X0069900Y0111404D01*
X0069449Y0110315D01*
X0069449Y0109501D01*
X0069370Y0109638D01*
X0068178Y0110326D01*
X0058499Y0110326D01*
X0058499Y0182269D01*
X0058620Y0184118D01*
X0059577Y0187690D01*
X0061426Y0190892D01*
X0064041Y0193506D01*
X0067243Y0195355D01*
X0070814Y0196312D01*
X0072663Y0196433D01*
X0134963Y0196433D01*
X0131360Y0193560D01*
X0128573Y0189472D01*
X0128573Y0189472D01*
X0127115Y0184743D01*
X0127115Y0179795D01*
X0128573Y0175067D01*
X0128573Y0175067D01*
X0131360Y0170978D01*
X0131360Y0170978D01*
X0131360Y0170978D01*
X0135229Y0167893D01*
X0139835Y0166085D01*
X0144770Y0165716D01*
X0149594Y0166817D01*
X0153879Y0169291D01*
X0157245Y0172918D01*
X0157245Y0172918D01*
X0159392Y0177376D01*
X0160129Y0182269D01*
X0159392Y0187162D01*
X0159392Y0187162D01*
X0157245Y0191620D01*
X0157245Y0191620D01*
X0153879Y0195248D01*
X0151826Y0196433D01*
X0327876Y0196433D01*
X0324274Y0193560D01*
X0321486Y0189472D01*
X0320028Y0184743D01*
X0320028Y0182098D01*
X0318974Y0183153D01*
X0317434Y0183791D01*
X0315766Y0183791D01*
X0314226Y0183153D01*
X0313047Y0181974D01*
X0312409Y0180434D01*
X0312409Y0172766D01*
X0313047Y0171226D01*
X0314226Y0170047D01*
X0315766Y0169409D01*
X0317434Y0169409D01*
X0318974Y0170047D01*
X0320153Y0171226D01*
X0320791Y0172766D01*
X0320791Y0177323D01*
X0321486Y0175067D01*
X0321486Y0175067D01*
X0324274Y0170978D01*
X0328143Y0167893D01*
X0332749Y0166085D01*
X0337683Y0165716D01*
X0342507Y0166817D01*
X0346792Y0169291D01*
X0350158Y0172918D01*
X0350158Y0172918D01*
X0352305Y0177376D01*
X0352305Y0177376D01*
X0353043Y0182269D01*
X0352305Y0187162D01*
X0352305Y0187162D01*
X0350158Y0191620D01*
X0350158Y0191620D01*
X0346792Y0195248D01*
X0344739Y0196433D01*
X0387624Y0196433D01*
X0389472Y0196312D01*
X0393044Y0195355D01*
X0396246Y0193506D01*
X0398861Y0190892D01*
X0400709Y0187690D01*
X0401666Y0184118D01*
X0401787Y0182269D01*
X0401787Y0052348D01*
X0401666Y0050499D01*
X0400709Y0046928D01*
X0398861Y0043726D01*
X0396246Y0041111D01*
X0393044Y0039262D01*
X0389472Y0038305D01*
X0387624Y0038184D01*
X0344739Y0038184D01*
X0346792Y0039370D01*
X0346792Y0039370D01*
X0350158Y0042997D01*
X0352305Y0047455D01*
X0352305Y0047455D01*
X0352878Y0051258D01*
X0353253Y0050742D01*
X0353742Y0050253D01*
X0354300Y0049848D01*
X0354916Y0049534D01*
X0355573Y0049321D01*
X0356200Y0049221D01*
X0356200Y0056200D01*
X0357000Y0056200D01*
X0357000Y0057000D01*
X0356200Y0057000D01*
X0356200Y0063979D01*
X0355573Y0063879D01*
X0354916Y0063666D01*
X0354300Y0063352D01*
X0353742Y0062947D01*
X0353253Y0062458D01*
X0352848Y0061899D01*
X0352534Y0061284D01*
X0352321Y0060627D01*
X0352213Y0059945D01*
X0352213Y0057433D01*
X0350158Y0061699D01*
X0350158Y0061699D01*
X0346792Y0065326D01*
X0342507Y0067801D01*
X0337683Y0068902D01*
X0337031Y0068853D01*
X0344238Y0076059D01*
X0345141Y0076962D01*
X0345141Y0127238D01*
X0340141Y0132238D01*
X0339238Y0133141D01*
X0333105Y0133141D01*
X0333105Y0134258D01*
X0332408Y0134956D01*
X0327485Y0134956D01*
X0326787Y0134258D01*
X0326787Y0128941D01*
X0327485Y0128244D01*
X0332408Y0128244D01*
X0333105Y0128941D01*
X0333105Y0130059D01*
X0337962Y0130059D01*
X0342059Y0125962D01*
X0342059Y0120319D01*
X0338641Y0123738D01*
X0337738Y0124641D01*
X0333105Y0124641D01*
X0333105Y0125758D01*
X0332408Y0126456D01*
X0327485Y0126456D01*
X0326787Y0125758D01*
X0326787Y0120441D01*
X0327485Y0119744D01*
X0332408Y0119744D01*
X0333105Y0120441D01*
X0333105Y0121559D01*
X0336462Y0121559D01*
X0340059Y0117962D01*
X0340059Y0113319D01*
X0338141Y0115238D01*
X0337238Y0116141D01*
X0333105Y0116141D01*
X0333105Y0117258D01*
X0332408Y0117956D01*
X0327485Y0117956D01*
X0326787Y0117258D01*
X0326787Y0111941D01*
X0327485Y0111244D01*
X0332408Y0111244D01*
X0333105Y0111941D01*
X0333105Y0113059D01*
X0335962Y0113059D01*
X0338059Y0110962D01*
X0338059Y0105319D01*
X0336641Y0106738D01*
X0335738Y0107641D01*
X0333105Y0107641D01*
X0333105Y0108758D01*
X0332408Y0109456D01*
X0327485Y0109456D01*
X0326787Y0108758D01*
X0326787Y0103441D01*
X0327485Y0102744D01*
X0332408Y0102744D01*
X0333105Y0103441D01*
X0333105Y0104559D01*
X0334462Y0104559D01*
X0336059Y0102962D01*
X0336059Y0097319D01*
X0335141Y0098238D01*
X0334238Y0099141D01*
X0333105Y0099141D01*
X0333105Y0100258D01*
X0332408Y0100956D01*
X0327485Y0100956D01*
X0326787Y0100258D01*
X0326787Y0094941D01*
X0327485Y0094244D01*
X0332408Y0094244D01*
X0333105Y0094941D01*
X0333105Y0095916D01*
X0334059Y0094962D01*
X0334059Y0082238D01*
X0330962Y0079141D01*
X0330319Y0079141D01*
X0330585Y0079406D01*
X0331487Y0080308D01*
X0331487Y0085744D01*
X0332408Y0085744D01*
X0333105Y0086441D01*
X0333105Y0091758D01*
X0332408Y0092456D01*
X0327485Y0092456D01*
X0326787Y0091758D01*
X0326787Y0086441D01*
X0327485Y0085744D01*
X0328406Y0085744D01*
X0328406Y0081585D01*
X0327962Y0081141D01*
X0289495Y0081141D01*
X0289972Y0081618D01*
X0289972Y0083582D01*
X0289141Y0084413D01*
X0289141Y0084705D01*
X0289618Y0084228D01*
X0291582Y0084228D01*
X0292972Y0085618D01*
X0292972Y0087582D01*
X0292141Y0088413D01*
X0292141Y0095228D01*
X0293897Y0095228D01*
X0294728Y0096059D01*
X0314277Y0096059D01*
X0315543Y0094793D01*
X0315543Y0093618D01*
X0316933Y0092228D01*
X0318897Y0092228D01*
X0320287Y0093618D01*
X0320287Y0094749D01*
X0320792Y0094244D01*
X0325715Y0094244D01*
X0326413Y0094941D01*
X0326413Y0100258D01*
X0325715Y0100956D01*
X0320792Y0100956D01*
X0320094Y0100258D01*
X0320094Y0099284D01*
X0319972Y0099407D01*
X0319972Y0100582D01*
X0318582Y0101972D01*
X0316618Y0101972D01*
X0315228Y0100582D01*
X0315228Y0099141D01*
X0294728Y0099141D01*
X0293897Y0099972D01*
X0292141Y0099972D01*
X0292141Y0127787D01*
X0292972Y0128618D01*
X0292972Y0130582D01*
X0291582Y0131972D01*
X0289618Y0131972D01*
X0288228Y0130582D01*
X0288228Y0128618D01*
X0289059Y0127787D01*
X0289059Y0127495D01*
X0288582Y0127972D01*
X0286618Y0127972D01*
X0285228Y0126582D01*
X0285228Y0124618D01*
X0286059Y0123787D01*
X0286059Y0123495D01*
X0285582Y0123972D01*
X0283618Y0123972D01*
X0283141Y0123495D01*
X0283141Y0123787D01*
X0283972Y0124618D01*
X0283972Y0126582D01*
X0282582Y0127972D01*
X0280618Y0127972D01*
X0279228Y0126582D01*
X0279228Y0124618D01*
X0280059Y0123787D01*
X0280059Y0123226D01*
X0279750Y0123354D01*
X0279197Y0123464D01*
X0278915Y0123464D01*
X0278915Y0120600D01*
X0278915Y0120600D01*
X0278915Y0117736D01*
X0279197Y0117736D01*
X0279750Y0117846D01*
X0280059Y0117974D01*
X0280059Y0106495D01*
X0279582Y0106972D01*
X0277618Y0106972D01*
X0276787Y0106141D01*
X0271882Y0106141D01*
X0271923Y0106181D01*
X0272105Y0106498D01*
X0272200Y0106850D01*
X0272200Y0108617D01*
X0269032Y0108617D01*
X0269032Y0109386D01*
X0272200Y0109386D01*
X0272200Y0111153D01*
X0272105Y0111506D01*
X0271923Y0111822D01*
X0271664Y0112080D01*
X0271348Y0112263D01*
X0270995Y0112357D01*
X0269031Y0112357D01*
X0269031Y0109386D01*
X0268263Y0109386D01*
X0268263Y0112357D01*
X0266299Y0112357D01*
X0265946Y0112263D01*
X0265630Y0112080D01*
X0265372Y0111822D01*
X0265218Y0111556D01*
X0264613Y0112161D01*
X0259296Y0112161D01*
X0258598Y0111463D01*
X0258598Y0110992D01*
X0258109Y0110992D01*
X0257445Y0111267D01*
X0256384Y0111267D01*
X0255455Y0110882D01*
X0255455Y0157228D01*
X0255897Y0157228D01*
X0257287Y0158618D01*
X0257287Y0160582D01*
X0256810Y0161059D01*
X0322101Y0161059D01*
X0322933Y0160228D01*
X0324897Y0160228D01*
X0326287Y0161618D01*
X0326287Y0163582D01*
X0324897Y0164972D01*
X0322933Y0164972D01*
X0322101Y0164141D01*
X0241332Y0164141D01*
X0237379Y0160188D01*
X0236477Y0159285D01*
X0236477Y0138340D01*
X0233277Y0135141D01*
X0229197Y0135141D01*
X0229582Y0136070D01*
X0229582Y0137130D01*
X0229359Y0137668D01*
X0229672Y0137981D01*
X0229672Y0143298D01*
X0229067Y0143903D01*
X0229334Y0144057D01*
X0229592Y0144315D01*
X0229775Y0144631D01*
X0229869Y0144984D01*
X0229869Y0146948D01*
X0226898Y0146948D01*
X0226898Y0147717D01*
X0226129Y0147717D01*
X0226129Y0150885D01*
X0224362Y0150885D01*
X0224009Y0150790D01*
X0223693Y0150608D01*
X0223435Y0150350D01*
X0223252Y0150033D01*
X0223157Y0149680D01*
X0223157Y0147717D01*
X0226129Y0147717D01*
X0226129Y0146948D01*
X0223157Y0146948D01*
X0223157Y0144984D01*
X0223252Y0144631D01*
X0223435Y0144315D01*
X0223693Y0144057D01*
X0223959Y0143903D01*
X0223354Y0143298D01*
X0223354Y0137981D01*
X0224052Y0137283D01*
X0224311Y0137283D01*
X0224248Y0137130D01*
X0224248Y0136070D01*
X0224633Y0135141D01*
X0200277Y0135141D01*
X0196277Y0131141D01*
X0195374Y0130238D01*
X0195374Y0116413D01*
X0195101Y0116141D01*
X0106553Y0116141D01*
X0106287Y0116407D01*
X0106287Y0117582D01*
X0104897Y0118972D01*
X0102933Y0118972D01*
X0101543Y0117582D01*
X0101543Y0115618D01*
X0102933Y0114228D01*
X0104108Y0114228D01*
X0105277Y0113059D01*
X0195101Y0113059D01*
X0195933Y0112228D01*
X0197897Y0112228D01*
X0199287Y0113618D01*
X0199287Y0115582D01*
X0198455Y0116413D01*
X0198455Y0128962D01*
X0201553Y0132059D01*
X0234553Y0132059D01*
X0235455Y0132962D01*
X0239558Y0137064D01*
X0239558Y0158009D01*
X0242608Y0161059D01*
X0253020Y0161059D01*
X0252543Y0160582D01*
X0252543Y0159407D01*
X0252374Y0159238D01*
X0252374Y0151567D01*
X0252334Y0151608D01*
X0252017Y0151790D01*
X0251665Y0151885D01*
X0249898Y0151885D01*
X0249898Y0148717D01*
X0249129Y0148717D01*
X0249129Y0151885D01*
X0247362Y0151885D01*
X0247009Y0151790D01*
X0246693Y0151608D01*
X0246435Y0151350D01*
X0246252Y0151033D01*
X0246157Y0150680D01*
X0246157Y0148717D01*
X0249129Y0148717D01*
X0249129Y0147948D01*
X0246157Y0147948D01*
X0246157Y0145984D01*
X0246252Y0145631D01*
X0246435Y0145315D01*
X0246693Y0145057D01*
X0246959Y0144903D01*
X0246354Y0144298D01*
X0246354Y0138981D01*
X0247052Y0138283D01*
X0247523Y0138283D01*
X0247523Y0136794D01*
X0247248Y0136130D01*
X0247248Y0135070D01*
X0247654Y0134089D01*
X0248404Y0133339D01*
X0249384Y0132933D01*
X0250445Y0132933D01*
X0251426Y0133339D01*
X0252176Y0134089D01*
X0252374Y0134569D01*
X0252374Y0081413D01*
X0251543Y0080582D01*
X0251543Y0078618D01*
X0252933Y0077228D01*
X0254897Y0077228D01*
X0256287Y0078618D01*
X0256287Y0080582D01*
X0255455Y0081413D01*
X0255455Y0086594D01*
X0256559Y0086594D01*
X0256559Y0077423D01*
X0256277Y0077141D01*
X0250882Y0077141D01*
X0251267Y0078070D01*
X0251267Y0079130D01*
X0250861Y0080111D01*
X0250111Y0080861D01*
X0249130Y0081267D01*
X0248070Y0081267D01*
X0247089Y0080861D01*
X0246339Y0080111D01*
X0245933Y0079130D01*
X0245933Y0078070D01*
X0246318Y0077141D01*
X0244495Y0077141D01*
X0244972Y0077618D01*
X0244972Y0079582D01*
X0244141Y0080413D01*
X0244141Y0089553D01*
X0243238Y0090455D01*
X0240553Y0093141D01*
X0235810Y0093141D01*
X0236287Y0093618D01*
X0236287Y0095582D01*
X0234897Y0096972D01*
X0233539Y0096972D01*
X0234426Y0097339D01*
X0235176Y0098089D01*
X0235582Y0099070D01*
X0235582Y0100130D01*
X0235176Y0101111D01*
X0234426Y0101861D01*
X0233445Y0102267D01*
X0232384Y0102267D01*
X0231404Y0101861D01*
X0230654Y0101111D01*
X0230272Y0100189D01*
X0230231Y0100189D01*
X0230231Y0100660D01*
X0229534Y0101357D01*
X0224217Y0101357D01*
X0223612Y0100752D01*
X0223458Y0101019D01*
X0223200Y0101277D01*
X0222884Y0101460D01*
X0222531Y0101554D01*
X0220567Y0101554D01*
X0220567Y0098583D01*
X0219798Y0098583D01*
X0219798Y0097814D01*
X0216630Y0097814D01*
X0216630Y0096141D01*
X0183882Y0096141D01*
X0184267Y0097070D01*
X0184267Y0098130D01*
X0183861Y0099111D01*
X0183111Y0099861D01*
X0182130Y0100267D01*
X0181070Y0100267D01*
X0180089Y0099861D01*
X0179339Y0099111D01*
X0178933Y0098130D01*
X0178933Y0097070D01*
X0179318Y0096141D01*
X0176631Y0096141D01*
X0177111Y0096339D01*
X0177861Y0097089D01*
X0178267Y0098070D01*
X0178267Y0099130D01*
X0177861Y0100111D01*
X0177111Y0100861D01*
X0176130Y0101267D01*
X0175070Y0101267D01*
X0174089Y0100861D01*
X0173339Y0100111D01*
X0172933Y0099130D01*
X0172933Y0098070D01*
X0173339Y0097089D01*
X0174089Y0096339D01*
X0174569Y0096141D01*
X0153882Y0096141D01*
X0154267Y0097070D01*
X0154267Y0098130D01*
X0153861Y0099111D01*
X0153111Y0099861D01*
X0152130Y0100267D01*
X0151070Y0100267D01*
X0150089Y0099861D01*
X0149339Y0099111D01*
X0148933Y0098130D01*
X0148933Y0097070D01*
X0149318Y0096141D01*
X0099277Y0096141D01*
X0099267Y0096131D01*
X0098861Y0097111D01*
X0098111Y0097861D01*
X0097130Y0098267D01*
X0096070Y0098267D01*
X0095089Y0097861D01*
X0094339Y0097111D01*
X0093933Y0096130D01*
X0093933Y0095070D01*
X0094339Y0094089D01*
X0095089Y0093339D01*
X0096069Y0092933D01*
X0083374Y0080238D01*
X0083374Y0061413D01*
X0082543Y0060582D01*
X0082543Y0058618D01*
X0083933Y0057228D01*
X0085897Y0057228D01*
X0087287Y0058618D01*
X0087287Y0060582D01*
X0086455Y0061413D01*
X0086455Y0078962D01*
X0100553Y0093059D01*
X0101196Y0093059D01*
X0096277Y0088141D01*
X0095374Y0087238D01*
X0095374Y0078105D01*
X0094256Y0078105D01*
X0093559Y0077408D01*
X0093559Y0072485D01*
X0094256Y0071787D01*
X0099573Y0071787D01*
X0100271Y0072485D01*
X0100271Y0077408D01*
X0099573Y0078105D01*
X0098455Y0078105D01*
X0098455Y0085962D01*
X0102553Y0090059D01*
X0108196Y0090059D01*
X0106277Y0088141D01*
X0105374Y0087238D01*
X0105374Y0078105D01*
X0104256Y0078105D01*
X0103559Y0077408D01*
X0103559Y0072485D01*
X0104256Y0071787D01*
X0109573Y0071787D01*
X0110271Y0072485D01*
X0110271Y0077408D01*
X0109573Y0078105D01*
X0108455Y0078105D01*
X0108455Y0085962D01*
X0110553Y0088059D01*
X0116196Y0088059D01*
X0115374Y0087238D01*
X0115374Y0078105D01*
X0114256Y0078105D01*
X0113559Y0077408D01*
X0113559Y0072485D01*
X0114256Y0071787D01*
X0119573Y0071787D01*
X0120271Y0072485D01*
X0120271Y0077408D01*
X0119573Y0078105D01*
X0118455Y0078105D01*
X0118455Y0085962D01*
X0118553Y0086059D01*
X0151881Y0086059D01*
X0142588Y0076767D01*
X0141570Y0076767D01*
X0140589Y0076361D01*
X0139839Y0075611D01*
X0139433Y0074630D01*
X0139433Y0073570D01*
X0139839Y0072589D01*
X0140589Y0071839D01*
X0141570Y0071433D01*
X0142630Y0071433D01*
X0143611Y0071839D01*
X0144361Y0072589D01*
X0144767Y0073570D01*
X0144767Y0074588D01*
X0154238Y0084059D01*
X0195283Y0084059D01*
X0195201Y0083751D01*
X0195201Y0081984D01*
X0198369Y0081984D01*
X0198369Y0081216D01*
X0195201Y0081216D01*
X0195201Y0079449D01*
X0195281Y0079150D01*
X0190335Y0079150D01*
X0188452Y0077267D01*
X0188070Y0077267D01*
X0187089Y0076861D01*
X0186339Y0076111D01*
X0185933Y0075130D01*
X0185933Y0074070D01*
X0186339Y0073089D01*
X0187089Y0072339D01*
X0187569Y0072141D01*
X0186962Y0072141D01*
X0184783Y0069961D01*
X0184783Y0070582D01*
X0183393Y0071972D01*
X0181429Y0071972D01*
X0180598Y0071141D01*
X0168962Y0071141D01*
X0165059Y0067238D01*
X0165059Y0063498D01*
X0164226Y0063153D01*
X0163047Y0061974D01*
X0162409Y0060434D01*
X0162409Y0052766D01*
X0163047Y0051226D01*
X0164226Y0050047D01*
X0165766Y0049409D01*
X0167434Y0049409D01*
X0168974Y0050047D01*
X0170153Y0051226D01*
X0170791Y0052766D01*
X0170791Y0060434D01*
X0170153Y0061974D01*
X0168974Y0063153D01*
X0168141Y0063498D01*
X0168141Y0065962D01*
X0170238Y0068059D01*
X0180598Y0068059D01*
X0181429Y0067228D01*
X0182059Y0067228D01*
X0182059Y0058962D01*
X0182409Y0058612D01*
X0182409Y0052766D01*
X0183047Y0051226D01*
X0184226Y0050047D01*
X0185766Y0049409D01*
X0187434Y0049409D01*
X0188974Y0050047D01*
X0190153Y0051226D01*
X0190791Y0052766D01*
X0190791Y0060434D01*
X0190153Y0061974D01*
X0188974Y0063153D01*
X0187434Y0063791D01*
X0185766Y0063791D01*
X0185141Y0063531D01*
X0185141Y0065569D01*
X0185339Y0065089D01*
X0186089Y0064339D01*
X0187070Y0063933D01*
X0188103Y0063933D01*
X0188792Y0063244D01*
X0193715Y0063244D01*
X0194413Y0063941D01*
X0194413Y0069258D01*
X0193715Y0069956D01*
X0191135Y0069956D01*
X0194238Y0073059D01*
X0194906Y0073059D01*
X0194906Y0070859D01*
X0195603Y0070161D01*
X0196406Y0070161D01*
X0196406Y0069956D01*
X0195485Y0069956D01*
X0194787Y0069258D01*
X0194787Y0063941D01*
X0195181Y0063548D01*
X0194226Y0063153D01*
X0193047Y0061974D01*
X0192409Y0060434D01*
X0192409Y0052766D01*
X0193047Y0051226D01*
X0194226Y0050047D01*
X0195766Y0049409D01*
X0197434Y0049409D01*
X0198974Y0050047D01*
X0200153Y0051226D01*
X0200791Y0052766D01*
X0200791Y0060434D01*
X0200153Y0061974D01*
X0199487Y0062639D01*
X0199487Y0063244D01*
X0200408Y0063244D01*
X0201105Y0063941D01*
X0201105Y0069258D01*
X0200408Y0069956D01*
X0199487Y0069956D01*
X0199487Y0070161D01*
X0199936Y0070161D01*
X0200633Y0070859D01*
X0200633Y0073223D01*
X0200536Y0073320D01*
X0200633Y0073418D01*
X0200633Y0075169D01*
X0203370Y0075169D01*
X0203370Y0074600D01*
X0206431Y0074600D01*
X0209491Y0074600D01*
X0209491Y0075472D01*
X0209397Y0075824D01*
X0209294Y0076002D01*
X0209294Y0078341D01*
X0208650Y0078986D01*
X0208802Y0079138D01*
X0208802Y0079672D01*
X0209905Y0080775D01*
X0209905Y0082425D01*
X0209582Y0082748D01*
X0209582Y0083130D01*
X0209197Y0084059D01*
X0210318Y0084059D01*
X0209933Y0083130D01*
X0209933Y0082070D01*
X0210339Y0081089D01*
X0211089Y0080339D01*
X0212070Y0079933D01*
X0213130Y0079933D01*
X0214111Y0080339D01*
X0214861Y0081089D01*
X0215267Y0082070D01*
X0215267Y0083130D01*
X0214882Y0084059D01*
X0216962Y0084059D01*
X0223228Y0077793D01*
X0223228Y0076618D01*
X0224618Y0075228D01*
X0226582Y0075228D01*
X0227972Y0076618D01*
X0227972Y0078582D01*
X0226582Y0079972D01*
X0225407Y0079972D01*
X0219319Y0086059D01*
X0220962Y0086059D01*
X0228228Y0078793D01*
X0228228Y0077618D01*
X0228991Y0076855D01*
X0224277Y0072141D01*
X0218277Y0072141D01*
X0215962Y0069826D01*
X0215750Y0069614D01*
X0215408Y0069956D01*
X0210485Y0069956D01*
X0209787Y0069258D01*
X0209787Y0064559D01*
X0209413Y0064184D01*
X0209413Y0069258D01*
X0208715Y0069956D01*
X0207971Y0069956D01*
X0207971Y0070161D01*
X0208597Y0070161D01*
X0209294Y0070859D01*
X0209294Y0073198D01*
X0209397Y0073376D01*
X0209491Y0073728D01*
X0209491Y0074600D01*
X0206431Y0074600D01*
X0206431Y0074600D01*
X0203370Y0074600D01*
X0203370Y0073728D01*
X0203465Y0073376D01*
X0203567Y0073198D01*
X0203567Y0070859D01*
X0204264Y0070161D01*
X0204890Y0070161D01*
X0204890Y0069956D01*
X0203792Y0069956D01*
X0203094Y0069258D01*
X0203094Y0063941D01*
X0203792Y0063244D01*
X0204447Y0063244D01*
X0204226Y0063153D01*
X0203047Y0061974D01*
X0202409Y0060434D01*
X0202409Y0052766D01*
X0203047Y0051226D01*
X0204226Y0050047D01*
X0205766Y0049409D01*
X0207434Y0049409D01*
X0208974Y0050047D01*
X0210153Y0051226D01*
X0210791Y0052766D01*
X0210791Y0060049D01*
X0211070Y0059933D01*
X0212130Y0059933D01*
X0212409Y0060049D01*
X0212409Y0052766D01*
X0213047Y0051226D01*
X0214226Y0050047D01*
X0215766Y0049409D01*
X0217434Y0049409D01*
X0218974Y0050047D01*
X0220153Y0051226D01*
X0220791Y0052766D01*
X0220791Y0060434D01*
X0220153Y0061974D01*
X0218974Y0063153D01*
X0218141Y0063498D01*
X0218141Y0067647D01*
X0219553Y0069059D01*
X0225059Y0069059D01*
X0225059Y0063498D01*
X0224226Y0063153D01*
X0223047Y0061974D01*
X0222409Y0060434D01*
X0222409Y0052766D01*
X0223047Y0051226D01*
X0224226Y0050047D01*
X0225766Y0049409D01*
X0227434Y0049409D01*
X0228974Y0050047D01*
X0230153Y0051226D01*
X0230791Y0052766D01*
X0230791Y0060434D01*
X0230153Y0061974D01*
X0228974Y0063153D01*
X0228141Y0063498D01*
X0228141Y0067962D01*
X0232238Y0072059D01*
X0238881Y0072059D01*
X0235059Y0068238D01*
X0235059Y0063498D01*
X0234226Y0063153D01*
X0233047Y0061974D01*
X0232409Y0060434D01*
X0232409Y0052766D01*
X0233047Y0051226D01*
X0234226Y0050047D01*
X0235766Y0049409D01*
X0237434Y0049409D01*
X0238974Y0050047D01*
X0240153Y0051226D01*
X0240791Y0052766D01*
X0240791Y0060434D01*
X0240153Y0061974D01*
X0238974Y0063153D01*
X0238141Y0063498D01*
X0238141Y0066962D01*
X0241238Y0070059D01*
X0246881Y0070059D01*
X0245059Y0068238D01*
X0245059Y0063498D01*
X0244226Y0063153D01*
X0243047Y0061974D01*
X0242409Y0060434D01*
X0242409Y0052766D01*
X0243047Y0051226D01*
X0244226Y0050047D01*
X0245766Y0049409D01*
X0247434Y0049409D01*
X0248974Y0050047D01*
X0250153Y0051226D01*
X0250791Y0052766D01*
X0250791Y0060434D01*
X0250153Y0061974D01*
X0248974Y0063153D01*
X0248141Y0063498D01*
X0248141Y0066962D01*
X0249238Y0068059D01*
X0255881Y0068059D01*
X0255059Y0067238D01*
X0255059Y0063498D01*
X0254226Y0063153D01*
X0253047Y0061974D01*
X0252409Y0060434D01*
X0252409Y0052766D01*
X0253047Y0051226D01*
X0254226Y0050047D01*
X0255766Y0049409D01*
X0257434Y0049409D01*
X0258974Y0050047D01*
X0260153Y0051226D01*
X0260791Y0052766D01*
X0260791Y0060434D01*
X0260153Y0061974D01*
X0258974Y0063153D01*
X0258141Y0063498D01*
X0258141Y0065962D01*
X0258238Y0066059D01*
X0266881Y0066059D01*
X0265059Y0064238D01*
X0265059Y0063498D01*
X0264226Y0063153D01*
X0263047Y0061974D01*
X0262409Y0060434D01*
X0262409Y0052766D01*
X0263047Y0051226D01*
X0264226Y0050047D01*
X0265766Y0049409D01*
X0267434Y0049409D01*
X0268974Y0050047D01*
X0270153Y0051226D01*
X0270791Y0052766D01*
X0270791Y0060434D01*
X0270153Y0061974D01*
X0268974Y0063153D01*
X0268519Y0063341D01*
X0269238Y0064059D01*
X0275881Y0064059D01*
X0275503Y0063681D01*
X0274226Y0063153D01*
X0273047Y0061974D01*
X0272409Y0060434D01*
X0272409Y0052766D01*
X0273047Y0051226D01*
X0274226Y0050047D01*
X0275766Y0049409D01*
X0277434Y0049409D01*
X0278974Y0050047D01*
X0280153Y0051226D01*
X0280791Y0052766D01*
X0280791Y0060434D01*
X0280153Y0061974D01*
X0280067Y0062059D01*
X0283133Y0062059D01*
X0283047Y0061974D01*
X0282409Y0060434D01*
X0282409Y0052766D01*
X0283047Y0051226D01*
X0284226Y0050047D01*
X0285766Y0049409D01*
X0287434Y0049409D01*
X0288974Y0050047D01*
X0290153Y0051226D01*
X0290791Y0052766D01*
X0290791Y0060434D01*
X0290153Y0061974D01*
X0288974Y0063153D01*
X0288519Y0063341D01*
X0293238Y0068059D01*
X0331545Y0068059D01*
X0328143Y0066724D01*
X0324274Y0063639D01*
X0321486Y0059550D01*
X0320791Y0057294D01*
X0320791Y0060434D01*
X0320153Y0061974D01*
X0318974Y0063153D01*
X0317434Y0063791D01*
X0315766Y0063791D01*
X0314226Y0063153D01*
X0313047Y0061974D01*
X0312409Y0060434D01*
X0312409Y0052766D01*
X0313047Y0051226D01*
X0314226Y0050047D01*
X0315766Y0049409D01*
X0317434Y0049409D01*
X0318974Y0050047D01*
X0320028Y0051102D01*
X0320028Y0049874D01*
X0321486Y0045146D01*
X0321486Y0045146D01*
X0324274Y0041057D01*
X0327876Y0038184D01*
X0151826Y0038184D01*
X0153879Y0039370D01*
X0157245Y0042997D01*
X0159392Y0047455D01*
X0159392Y0047455D01*
X0160129Y0052348D01*
X0159392Y0057241D01*
X0157245Y0061699D01*
X0157245Y0061699D01*
X0153879Y0065326D01*
X0149594Y0067801D01*
X0144770Y0068902D01*
X0144770Y0068902D01*
X0139835Y0068532D01*
X0135229Y0066724D01*
X0131360Y0063639D01*
X0128573Y0059550D01*
X0127115Y0054822D01*
X0127115Y0049874D01*
X0128573Y0045146D01*
X0128573Y0045146D01*
X0131360Y0041057D01*
X0131360Y0041057D01*
X0131360Y0041057D01*
X0134963Y0038184D01*
X0072663Y0038184D01*
X0070814Y0038305D01*
X0067243Y0039262D01*
X0068233Y0038997D02*
X0133944Y0038997D01*
X0132441Y0040196D02*
X0065627Y0040196D01*
X0063758Y0041394D02*
X0131131Y0041394D01*
X0130314Y0042593D02*
X0062559Y0042593D01*
X0061388Y0043791D02*
X0129497Y0043791D01*
X0128679Y0044990D02*
X0060696Y0044990D01*
X0060004Y0046188D02*
X0128251Y0046188D01*
X0127882Y0047387D02*
X0059454Y0047387D01*
X0059133Y0048585D02*
X0127512Y0048585D01*
X0127142Y0049784D02*
X0118337Y0049784D01*
X0118974Y0050047D02*
X0117434Y0049409D01*
X0115766Y0049409D01*
X0114226Y0050047D01*
X0113047Y0051226D01*
X0112409Y0052766D01*
X0112409Y0060434D01*
X0113047Y0061974D01*
X0114226Y0063153D01*
X0115059Y0063498D01*
X0115059Y0065094D01*
X0114256Y0065094D01*
X0113559Y0065792D01*
X0113559Y0070715D01*
X0114256Y0071413D01*
X0119573Y0071413D01*
X0120271Y0070715D01*
X0120271Y0065792D01*
X0119573Y0065094D01*
X0118141Y0065094D01*
X0118141Y0063498D01*
X0118974Y0063153D01*
X0120153Y0061974D01*
X0120791Y0060434D01*
X0120791Y0052766D01*
X0120153Y0051226D01*
X0118974Y0050047D01*
X0119908Y0050982D02*
X0127115Y0050982D01*
X0127115Y0052181D02*
X0120548Y0052181D01*
X0120791Y0053379D02*
X0127115Y0053379D01*
X0127115Y0054578D02*
X0120791Y0054578D01*
X0120791Y0055776D02*
X0127409Y0055776D01*
X0127779Y0056975D02*
X0120791Y0056975D01*
X0120791Y0058173D02*
X0128148Y0058173D01*
X0128518Y0059372D02*
X0120791Y0059372D01*
X0120734Y0060570D02*
X0129268Y0060570D01*
X0128573Y0059550D02*
X0128573Y0059550D01*
X0130085Y0061769D02*
X0120237Y0061769D01*
X0119159Y0062967D02*
X0130903Y0062967D01*
X0131360Y0063639D02*
X0131360Y0063639D01*
X0131360Y0063639D01*
X0132021Y0064166D02*
X0118141Y0064166D01*
X0119843Y0065364D02*
X0133524Y0065364D01*
X0135027Y0066563D02*
X0120271Y0066563D01*
X0120271Y0067761D02*
X0137872Y0067761D01*
X0139835Y0068532D02*
X0139835Y0068532D01*
X0135229Y0066724D02*
X0135229Y0066724D01*
X0139873Y0072555D02*
X0120271Y0072555D01*
X0120271Y0073754D02*
X0139433Y0073754D01*
X0139566Y0074952D02*
X0120271Y0074952D01*
X0120271Y0076151D02*
X0140379Y0076151D01*
X0143171Y0077349D02*
X0120271Y0077349D01*
X0118455Y0078548D02*
X0144369Y0078548D01*
X0145568Y0079746D02*
X0118455Y0079746D01*
X0118455Y0080945D02*
X0146766Y0080945D01*
X0147965Y0082143D02*
X0118455Y0082143D01*
X0118455Y0083342D02*
X0149163Y0083342D01*
X0150362Y0084540D02*
X0118455Y0084540D01*
X0118455Y0085739D02*
X0151560Y0085739D01*
X0153521Y0083342D02*
X0195201Y0083342D01*
X0195201Y0082143D02*
X0152322Y0082143D01*
X0151124Y0080945D02*
X0195201Y0080945D01*
X0195201Y0079746D02*
X0149925Y0079746D01*
X0148727Y0078548D02*
X0189733Y0078548D01*
X0188534Y0077349D02*
X0147528Y0077349D01*
X0146330Y0076151D02*
X0186379Y0076151D01*
X0185933Y0074952D02*
X0145131Y0074952D01*
X0144767Y0073754D02*
X0186064Y0073754D01*
X0186873Y0072555D02*
X0144327Y0072555D01*
X0149594Y0067801D02*
X0149594Y0067801D01*
X0149662Y0067761D02*
X0165583Y0067761D01*
X0165059Y0066563D02*
X0151738Y0066563D01*
X0153814Y0065364D02*
X0165059Y0065364D01*
X0165059Y0064166D02*
X0154956Y0064166D01*
X0156068Y0062967D02*
X0164041Y0062967D01*
X0162963Y0061769D02*
X0157180Y0061769D01*
X0157788Y0060570D02*
X0162466Y0060570D01*
X0162409Y0059372D02*
X0158366Y0059372D01*
X0158943Y0058173D02*
X0162409Y0058173D01*
X0162409Y0056975D02*
X0159432Y0056975D01*
X0159612Y0055776D02*
X0162409Y0055776D01*
X0162409Y0054578D02*
X0159793Y0054578D01*
X0159974Y0053379D02*
X0162409Y0053379D01*
X0162652Y0052181D02*
X0160104Y0052181D01*
X0159923Y0050982D02*
X0163292Y0050982D01*
X0164863Y0049784D02*
X0159743Y0049784D01*
X0159562Y0048585D02*
X0320425Y0048585D01*
X0320056Y0049784D02*
X0318337Y0049784D01*
X0319908Y0050982D02*
X0320028Y0050982D01*
X0320795Y0047387D02*
X0159359Y0047387D01*
X0158781Y0046188D02*
X0321165Y0046188D01*
X0321593Y0044990D02*
X0158204Y0044990D01*
X0157627Y0043791D02*
X0322410Y0043791D01*
X0323227Y0042593D02*
X0156869Y0042593D01*
X0157245Y0042997D02*
X0157245Y0042997D01*
X0155757Y0041394D02*
X0324044Y0041394D01*
X0324274Y0041057D02*
X0324274Y0041057D01*
X0324274Y0041057D01*
X0325354Y0040196D02*
X0154645Y0040196D01*
X0153879Y0039370D02*
X0153879Y0039370D01*
X0153234Y0038997D02*
X0326857Y0038997D01*
X0346147Y0038997D02*
X0392053Y0038997D01*
X0394660Y0040196D02*
X0347559Y0040196D01*
X0348671Y0041394D02*
X0396529Y0041394D01*
X0397727Y0042593D02*
X0349783Y0042593D01*
X0350158Y0042997D02*
X0350158Y0042997D01*
X0350541Y0043791D02*
X0398898Y0043791D01*
X0399590Y0044990D02*
X0351118Y0044990D01*
X0351695Y0046188D02*
X0400282Y0046188D01*
X0400832Y0047387D02*
X0352272Y0047387D01*
X0352475Y0048585D02*
X0401153Y0048585D01*
X0401474Y0049784D02*
X0388337Y0049784D01*
X0388974Y0050047D02*
X0390153Y0051226D01*
X0390791Y0052766D01*
X0390791Y0060434D01*
X0390153Y0061974D01*
X0388974Y0063153D01*
X0387434Y0063791D01*
X0385766Y0063791D01*
X0384226Y0063153D01*
X0383047Y0061974D01*
X0382409Y0060434D01*
X0382409Y0052766D01*
X0383047Y0051226D01*
X0384226Y0050047D01*
X0385766Y0049409D01*
X0387434Y0049409D01*
X0388974Y0050047D01*
X0389908Y0050982D02*
X0401698Y0050982D01*
X0401776Y0052181D02*
X0390548Y0052181D01*
X0390791Y0053379D02*
X0401787Y0053379D01*
X0401787Y0054578D02*
X0390791Y0054578D01*
X0390791Y0055776D02*
X0401787Y0055776D01*
X0401787Y0056975D02*
X0390791Y0056975D01*
X0390791Y0058173D02*
X0401787Y0058173D01*
X0401787Y0059372D02*
X0390791Y0059372D01*
X0390734Y0060570D02*
X0401787Y0060570D01*
X0401787Y0061769D02*
X0390237Y0061769D01*
X0389159Y0062967D02*
X0401787Y0062967D01*
X0401787Y0064166D02*
X0347869Y0064166D01*
X0346792Y0065326D02*
X0346792Y0065326D01*
X0346727Y0065364D02*
X0350064Y0065364D01*
X0350089Y0065339D02*
X0351070Y0064933D01*
X0352130Y0064933D01*
X0353111Y0065339D01*
X0353861Y0066089D01*
X0354267Y0067070D01*
X0354267Y0068130D01*
X0353861Y0069111D01*
X0353111Y0069861D01*
X0352130Y0070267D01*
X0351070Y0070267D01*
X0350089Y0069861D01*
X0349339Y0069111D01*
X0348933Y0068130D01*
X0348933Y0067070D01*
X0349339Y0066089D01*
X0350089Y0065339D01*
X0349143Y0066563D02*
X0344651Y0066563D01*
X0342575Y0067761D02*
X0348933Y0067761D01*
X0349277Y0068960D02*
X0337138Y0068960D01*
X0337683Y0068902D02*
X0337683Y0068902D01*
X0338337Y0070158D02*
X0350807Y0070158D01*
X0352393Y0070158D02*
X0370567Y0070158D01*
X0370607Y0070118D02*
X0386593Y0070118D01*
X0387291Y0070816D01*
X0387291Y0077109D01*
X0390959Y0077109D01*
X0391384Y0076933D01*
X0392445Y0076933D01*
X0393426Y0077339D01*
X0394176Y0078089D01*
X0394582Y0079070D01*
X0394582Y0080130D01*
X0394176Y0081111D01*
X0393426Y0081861D01*
X0392445Y0082267D01*
X0391384Y0082267D01*
X0390404Y0081861D01*
X0389654Y0081111D01*
X0389646Y0081091D01*
X0387291Y0081091D01*
X0387291Y0086802D01*
X0386593Y0087499D01*
X0370607Y0087499D01*
X0369909Y0086802D01*
X0369909Y0070816D01*
X0370607Y0070118D01*
X0369909Y0071357D02*
X0339535Y0071357D01*
X0340734Y0072555D02*
X0369909Y0072555D01*
X0369909Y0073754D02*
X0341933Y0073754D01*
X0343131Y0074952D02*
X0369909Y0074952D01*
X0369909Y0076151D02*
X0344330Y0076151D01*
X0345141Y0077349D02*
X0369909Y0077349D01*
X0369909Y0078548D02*
X0345141Y0078548D01*
X0345141Y0079746D02*
X0369909Y0079746D01*
X0369909Y0080945D02*
X0345141Y0080945D01*
X0345141Y0082143D02*
X0369909Y0082143D01*
X0369909Y0083342D02*
X0345141Y0083342D01*
X0345141Y0084540D02*
X0369909Y0084540D01*
X0369909Y0085739D02*
X0345141Y0085739D01*
X0345141Y0086937D02*
X0370045Y0086937D01*
X0387155Y0086937D02*
X0401787Y0086937D01*
X0401787Y0085739D02*
X0387291Y0085739D01*
X0387291Y0084540D02*
X0401787Y0084540D01*
X0401787Y0083342D02*
X0387291Y0083342D01*
X0387291Y0082143D02*
X0391086Y0082143D01*
X0392744Y0082143D02*
X0401787Y0082143D01*
X0401787Y0080945D02*
X0394245Y0080945D01*
X0394582Y0079746D02*
X0401787Y0079746D01*
X0401787Y0078548D02*
X0394366Y0078548D01*
X0393436Y0077349D02*
X0401787Y0077349D01*
X0401787Y0076151D02*
X0387291Y0076151D01*
X0387291Y0074952D02*
X0401787Y0074952D01*
X0401787Y0073754D02*
X0387291Y0073754D01*
X0387291Y0072555D02*
X0401787Y0072555D01*
X0401787Y0071357D02*
X0387291Y0071357D01*
X0386633Y0070158D02*
X0401787Y0070158D01*
X0401787Y0068960D02*
X0353923Y0068960D01*
X0354267Y0067761D02*
X0401787Y0067761D01*
X0401787Y0066563D02*
X0354057Y0066563D01*
X0353136Y0065364D02*
X0401787Y0065364D01*
X0384041Y0062967D02*
X0379430Y0062967D01*
X0379458Y0062947D02*
X0378899Y0063352D01*
X0378284Y0063666D01*
X0377627Y0063879D01*
X0377000Y0063979D01*
X0377000Y0057000D01*
X0380987Y0057000D01*
X0380987Y0059945D01*
X0380879Y0060627D01*
X0380666Y0061284D01*
X0380352Y0061899D01*
X0379947Y0062458D01*
X0379458Y0062947D01*
X0380419Y0061769D02*
X0382962Y0061769D01*
X0382466Y0060570D02*
X0380888Y0060570D01*
X0380987Y0059372D02*
X0382409Y0059372D01*
X0382409Y0058173D02*
X0380987Y0058173D01*
X0382409Y0056975D02*
X0377000Y0056975D01*
X0377000Y0057000D02*
X0377000Y0056200D01*
X0380987Y0056200D01*
X0380987Y0053255D01*
X0380879Y0052573D01*
X0380666Y0051916D01*
X0380352Y0051300D01*
X0379947Y0050742D01*
X0379458Y0050253D01*
X0378899Y0049848D01*
X0378284Y0049534D01*
X0377627Y0049321D01*
X0377000Y0049221D01*
X0377000Y0056200D01*
X0376200Y0056200D01*
X0376200Y0049221D01*
X0375573Y0049321D01*
X0374916Y0049534D01*
X0374300Y0049848D01*
X0373742Y0050253D01*
X0373253Y0050742D01*
X0372848Y0051300D01*
X0372534Y0051916D01*
X0372321Y0052573D01*
X0372213Y0053255D01*
X0372213Y0056200D01*
X0376200Y0056200D01*
X0376200Y0057000D01*
X0376200Y0063979D01*
X0375573Y0063879D01*
X0374916Y0063666D01*
X0374300Y0063352D01*
X0373742Y0062947D01*
X0373253Y0062458D01*
X0372848Y0061899D01*
X0372534Y0061284D01*
X0372321Y0060627D01*
X0372213Y0059945D01*
X0372213Y0057000D01*
X0376200Y0057000D01*
X0377000Y0057000D01*
X0376200Y0056975D02*
X0370791Y0056975D01*
X0370791Y0058173D02*
X0372213Y0058173D01*
X0372213Y0059372D02*
X0370791Y0059372D01*
X0370791Y0060434D02*
X0370153Y0061974D01*
X0368974Y0063153D01*
X0367434Y0063791D01*
X0365766Y0063791D01*
X0364226Y0063153D01*
X0363047Y0061974D01*
X0362409Y0060434D01*
X0362409Y0052766D01*
X0363047Y0051226D01*
X0364226Y0050047D01*
X0365766Y0049409D01*
X0367434Y0049409D01*
X0368974Y0050047D01*
X0370153Y0051226D01*
X0370791Y0052766D01*
X0370791Y0060434D01*
X0370734Y0060570D02*
X0372312Y0060570D01*
X0372781Y0061769D02*
X0370237Y0061769D01*
X0369159Y0062967D02*
X0373770Y0062967D01*
X0376200Y0062967D02*
X0377000Y0062967D01*
X0377000Y0061769D02*
X0376200Y0061769D01*
X0376200Y0060570D02*
X0377000Y0060570D01*
X0377000Y0059372D02*
X0376200Y0059372D01*
X0376200Y0058173D02*
X0377000Y0058173D01*
X0377000Y0055776D02*
X0376200Y0055776D01*
X0376200Y0054578D02*
X0377000Y0054578D01*
X0377000Y0053379D02*
X0376200Y0053379D01*
X0376200Y0052181D02*
X0377000Y0052181D01*
X0377000Y0050982D02*
X0376200Y0050982D01*
X0376200Y0049784D02*
X0377000Y0049784D01*
X0378774Y0049784D02*
X0384863Y0049784D01*
X0383292Y0050982D02*
X0380121Y0050982D01*
X0380752Y0052181D02*
X0382652Y0052181D01*
X0382409Y0053379D02*
X0380987Y0053379D01*
X0380987Y0054578D02*
X0382409Y0054578D01*
X0382409Y0055776D02*
X0380987Y0055776D01*
X0372213Y0055776D02*
X0370791Y0055776D01*
X0370791Y0054578D02*
X0372213Y0054578D01*
X0372213Y0053379D02*
X0370791Y0053379D01*
X0370548Y0052181D02*
X0372448Y0052181D01*
X0373079Y0050982D02*
X0369908Y0050982D01*
X0368337Y0049784D02*
X0374426Y0049784D01*
X0364863Y0049784D02*
X0358774Y0049784D01*
X0358899Y0049848D02*
X0359458Y0050253D01*
X0359947Y0050742D01*
X0360352Y0051300D01*
X0360666Y0051916D01*
X0360879Y0052573D01*
X0360987Y0053255D01*
X0360987Y0056200D01*
X0357000Y0056200D01*
X0357000Y0049221D01*
X0357627Y0049321D01*
X0358284Y0049534D01*
X0358899Y0049848D01*
X0360121Y0050982D02*
X0363292Y0050982D01*
X0362652Y0052181D02*
X0360752Y0052181D01*
X0360987Y0053379D02*
X0362409Y0053379D01*
X0362409Y0054578D02*
X0360987Y0054578D01*
X0360987Y0055776D02*
X0362409Y0055776D01*
X0362409Y0056975D02*
X0357000Y0056975D01*
X0357000Y0057000D02*
X0360987Y0057000D01*
X0360987Y0059945D01*
X0360879Y0060627D01*
X0360666Y0061284D01*
X0360352Y0061899D01*
X0359947Y0062458D01*
X0359458Y0062947D01*
X0358899Y0063352D01*
X0358284Y0063666D01*
X0357627Y0063879D01*
X0357000Y0063979D01*
X0357000Y0057000D01*
X0357000Y0058173D02*
X0356200Y0058173D01*
X0356200Y0059372D02*
X0357000Y0059372D01*
X0357000Y0060570D02*
X0356200Y0060570D01*
X0356200Y0061769D02*
X0357000Y0061769D01*
X0357000Y0062967D02*
X0356200Y0062967D01*
X0353770Y0062967D02*
X0348981Y0062967D01*
X0350094Y0061769D02*
X0352781Y0061769D01*
X0352312Y0060570D02*
X0350702Y0060570D01*
X0351279Y0059372D02*
X0352213Y0059372D01*
X0352213Y0058173D02*
X0351856Y0058173D01*
X0356200Y0055776D02*
X0357000Y0055776D01*
X0357000Y0054578D02*
X0356200Y0054578D01*
X0356200Y0053379D02*
X0357000Y0053379D01*
X0357000Y0052181D02*
X0356200Y0052181D01*
X0356200Y0050982D02*
X0357000Y0050982D01*
X0357000Y0049784D02*
X0356200Y0049784D01*
X0354426Y0049784D02*
X0352656Y0049784D01*
X0352837Y0050982D02*
X0353079Y0050982D01*
X0360987Y0058173D02*
X0362409Y0058173D01*
X0362409Y0059372D02*
X0360987Y0059372D01*
X0360888Y0060570D02*
X0362466Y0060570D01*
X0362962Y0061769D02*
X0360419Y0061769D01*
X0359430Y0062967D02*
X0364041Y0062967D01*
X0342507Y0067801D02*
X0342507Y0067801D01*
X0330785Y0067761D02*
X0292940Y0067761D01*
X0291741Y0066563D02*
X0327940Y0066563D01*
X0326437Y0065364D02*
X0290543Y0065364D01*
X0289344Y0064166D02*
X0324935Y0064166D01*
X0324274Y0063639D02*
X0324274Y0063639D01*
X0323816Y0062967D02*
X0319159Y0062967D01*
X0320238Y0061769D02*
X0322999Y0061769D01*
X0322182Y0060570D02*
X0320734Y0060570D01*
X0320791Y0059372D02*
X0321431Y0059372D01*
X0321062Y0058173D02*
X0320791Y0058173D01*
X0312409Y0058173D02*
X0310791Y0058173D01*
X0310791Y0056975D02*
X0312409Y0056975D01*
X0312409Y0055776D02*
X0310791Y0055776D01*
X0310791Y0054578D02*
X0312409Y0054578D01*
X0312409Y0053379D02*
X0310791Y0053379D01*
X0310791Y0052766D02*
X0310791Y0060434D01*
X0310153Y0061974D01*
X0308974Y0063153D01*
X0307434Y0063791D01*
X0305766Y0063791D01*
X0304226Y0063153D01*
X0303047Y0061974D01*
X0302409Y0060434D01*
X0302409Y0052766D01*
X0303047Y0051226D01*
X0304226Y0050047D01*
X0305766Y0049409D01*
X0307434Y0049409D01*
X0308974Y0050047D01*
X0310153Y0051226D01*
X0310791Y0052766D01*
X0310548Y0052181D02*
X0312652Y0052181D01*
X0313292Y0050982D02*
X0309908Y0050982D01*
X0308337Y0049784D02*
X0314863Y0049784D01*
X0304863Y0049784D02*
X0298337Y0049784D01*
X0298974Y0050047D02*
X0300153Y0051226D01*
X0300791Y0052766D01*
X0300791Y0060434D01*
X0300153Y0061974D01*
X0298974Y0063153D01*
X0297434Y0063791D01*
X0295766Y0063791D01*
X0294226Y0063153D01*
X0293047Y0061974D01*
X0292409Y0060434D01*
X0292409Y0052766D01*
X0293047Y0051226D01*
X0294226Y0050047D01*
X0295766Y0049409D01*
X0297434Y0049409D01*
X0298974Y0050047D01*
X0299908Y0050982D02*
X0303292Y0050982D01*
X0302652Y0052181D02*
X0300548Y0052181D01*
X0300791Y0053379D02*
X0302409Y0053379D01*
X0302409Y0054578D02*
X0300791Y0054578D01*
X0300791Y0055776D02*
X0302409Y0055776D01*
X0302409Y0056975D02*
X0300791Y0056975D01*
X0300791Y0058173D02*
X0302409Y0058173D01*
X0302409Y0059372D02*
X0300791Y0059372D01*
X0300734Y0060570D02*
X0302466Y0060570D01*
X0302963Y0061769D02*
X0300238Y0061769D01*
X0299159Y0062967D02*
X0304041Y0062967D01*
X0309159Y0062967D02*
X0314041Y0062967D01*
X0312963Y0061769D02*
X0310238Y0061769D01*
X0310734Y0060570D02*
X0312466Y0060570D01*
X0312409Y0059372D02*
X0310791Y0059372D01*
X0294041Y0062967D02*
X0289159Y0062967D01*
X0290238Y0061769D02*
X0292963Y0061769D01*
X0292466Y0060570D02*
X0290734Y0060570D01*
X0290791Y0059372D02*
X0292409Y0059372D01*
X0292409Y0058173D02*
X0290791Y0058173D01*
X0290791Y0056975D02*
X0292409Y0056975D01*
X0292409Y0055776D02*
X0290791Y0055776D01*
X0290791Y0054578D02*
X0292409Y0054578D01*
X0292409Y0053379D02*
X0290791Y0053379D01*
X0290548Y0052181D02*
X0292652Y0052181D01*
X0293292Y0050982D02*
X0289908Y0050982D01*
X0288337Y0049784D02*
X0294863Y0049784D01*
X0284863Y0049784D02*
X0278337Y0049784D01*
X0279908Y0050982D02*
X0283292Y0050982D01*
X0282652Y0052181D02*
X0280548Y0052181D01*
X0280791Y0053379D02*
X0282409Y0053379D01*
X0282409Y0054578D02*
X0280791Y0054578D01*
X0280791Y0055776D02*
X0282409Y0055776D01*
X0282409Y0056975D02*
X0280791Y0056975D01*
X0280791Y0058173D02*
X0282409Y0058173D01*
X0282409Y0059372D02*
X0280791Y0059372D01*
X0280734Y0060570D02*
X0282466Y0060570D01*
X0282963Y0061769D02*
X0280238Y0061769D01*
X0274041Y0062967D02*
X0269159Y0062967D01*
X0270238Y0061769D02*
X0272963Y0061769D01*
X0272466Y0060570D02*
X0270734Y0060570D01*
X0270791Y0059372D02*
X0272409Y0059372D01*
X0272409Y0058173D02*
X0270791Y0058173D01*
X0270791Y0056975D02*
X0272409Y0056975D01*
X0272409Y0055776D02*
X0270791Y0055776D01*
X0270791Y0054578D02*
X0272409Y0054578D01*
X0272409Y0053379D02*
X0270791Y0053379D01*
X0270548Y0052181D02*
X0272652Y0052181D01*
X0273292Y0050982D02*
X0269908Y0050982D01*
X0268337Y0049784D02*
X0274863Y0049784D01*
X0264863Y0049784D02*
X0258337Y0049784D01*
X0259908Y0050982D02*
X0263292Y0050982D01*
X0262652Y0052181D02*
X0260548Y0052181D01*
X0260791Y0053379D02*
X0262409Y0053379D01*
X0262409Y0054578D02*
X0260791Y0054578D01*
X0260791Y0055776D02*
X0262409Y0055776D01*
X0262409Y0056975D02*
X0260791Y0056975D01*
X0260791Y0058173D02*
X0262409Y0058173D01*
X0262409Y0059372D02*
X0260791Y0059372D01*
X0260734Y0060570D02*
X0262466Y0060570D01*
X0262963Y0061769D02*
X0260237Y0061769D01*
X0259159Y0062967D02*
X0264041Y0062967D01*
X0265059Y0064166D02*
X0258141Y0064166D01*
X0258141Y0065364D02*
X0266186Y0065364D01*
X0255583Y0067761D02*
X0248940Y0067761D01*
X0248141Y0066563D02*
X0255059Y0066563D01*
X0255059Y0065364D02*
X0248141Y0065364D01*
X0248141Y0064166D02*
X0255059Y0064166D01*
X0254041Y0062967D02*
X0249159Y0062967D01*
X0250237Y0061769D02*
X0252962Y0061769D01*
X0252466Y0060570D02*
X0250734Y0060570D01*
X0250791Y0059372D02*
X0252409Y0059372D01*
X0252409Y0058173D02*
X0250791Y0058173D01*
X0250791Y0056975D02*
X0252409Y0056975D01*
X0252409Y0055776D02*
X0250791Y0055776D01*
X0250791Y0054578D02*
X0252409Y0054578D01*
X0252409Y0053379D02*
X0250791Y0053379D01*
X0250548Y0052181D02*
X0252652Y0052181D01*
X0253292Y0050982D02*
X0249908Y0050982D01*
X0248337Y0049784D02*
X0254863Y0049784D01*
X0244863Y0049784D02*
X0238337Y0049784D01*
X0239908Y0050982D02*
X0243292Y0050982D01*
X0242652Y0052181D02*
X0240548Y0052181D01*
X0240791Y0053379D02*
X0242409Y0053379D01*
X0242409Y0054578D02*
X0240791Y0054578D01*
X0240791Y0055776D02*
X0242409Y0055776D01*
X0242409Y0056975D02*
X0240791Y0056975D01*
X0240791Y0058173D02*
X0242409Y0058173D01*
X0242409Y0059372D02*
X0240791Y0059372D01*
X0240734Y0060570D02*
X0242466Y0060570D01*
X0242962Y0061769D02*
X0240237Y0061769D01*
X0239159Y0062967D02*
X0244041Y0062967D01*
X0245059Y0064166D02*
X0238141Y0064166D01*
X0238141Y0065364D02*
X0245059Y0065364D01*
X0245059Y0066563D02*
X0238141Y0066563D01*
X0238940Y0067761D02*
X0245059Y0067761D01*
X0245781Y0068960D02*
X0240138Y0068960D01*
X0238178Y0071357D02*
X0231535Y0071357D01*
X0230337Y0070158D02*
X0236980Y0070158D01*
X0235781Y0068960D02*
X0229138Y0068960D01*
X0228141Y0067761D02*
X0235059Y0067761D01*
X0235059Y0066563D02*
X0228141Y0066563D01*
X0228141Y0065364D02*
X0235059Y0065364D01*
X0235059Y0064166D02*
X0228141Y0064166D01*
X0229159Y0062967D02*
X0234041Y0062967D01*
X0232962Y0061769D02*
X0230237Y0061769D01*
X0230734Y0060570D02*
X0232466Y0060570D01*
X0232409Y0059372D02*
X0230791Y0059372D01*
X0230791Y0058173D02*
X0232409Y0058173D01*
X0232409Y0056975D02*
X0230791Y0056975D01*
X0230791Y0055776D02*
X0232409Y0055776D01*
X0232409Y0054578D02*
X0230791Y0054578D01*
X0230791Y0053379D02*
X0232409Y0053379D01*
X0232652Y0052181D02*
X0230548Y0052181D01*
X0229908Y0050982D02*
X0233292Y0050982D01*
X0234863Y0049784D02*
X0228337Y0049784D01*
X0224863Y0049784D02*
X0218337Y0049784D01*
X0219908Y0050982D02*
X0223292Y0050982D01*
X0222652Y0052181D02*
X0220548Y0052181D01*
X0220791Y0053379D02*
X0222409Y0053379D01*
X0222409Y0054578D02*
X0220791Y0054578D01*
X0220791Y0055776D02*
X0222409Y0055776D01*
X0222409Y0056975D02*
X0220791Y0056975D01*
X0220791Y0058173D02*
X0222409Y0058173D01*
X0222409Y0059372D02*
X0220791Y0059372D01*
X0220734Y0060570D02*
X0222466Y0060570D01*
X0222962Y0061769D02*
X0220237Y0061769D01*
X0219159Y0062967D02*
X0224041Y0062967D01*
X0225059Y0064166D02*
X0218141Y0064166D01*
X0218141Y0065364D02*
X0225059Y0065364D01*
X0225059Y0066563D02*
X0218141Y0066563D01*
X0218255Y0067761D02*
X0225059Y0067761D01*
X0225059Y0068960D02*
X0219453Y0068960D01*
X0217493Y0071357D02*
X0209294Y0071357D01*
X0209294Y0072555D02*
X0224692Y0072555D01*
X0225890Y0073754D02*
X0209491Y0073754D01*
X0209491Y0074952D02*
X0227089Y0074952D01*
X0227505Y0076151D02*
X0228287Y0076151D01*
X0228497Y0077349D02*
X0227972Y0077349D01*
X0227972Y0078548D02*
X0228228Y0078548D01*
X0227275Y0079746D02*
X0226808Y0079746D01*
X0226076Y0080945D02*
X0224434Y0080945D01*
X0224878Y0082143D02*
X0223235Y0082143D01*
X0223679Y0083342D02*
X0222037Y0083342D01*
X0222481Y0084540D02*
X0220838Y0084540D01*
X0221282Y0085739D02*
X0219640Y0085739D01*
X0217679Y0083342D02*
X0215179Y0083342D01*
X0215267Y0082143D02*
X0218878Y0082143D01*
X0220076Y0080945D02*
X0214717Y0080945D01*
X0210483Y0080945D02*
X0209905Y0080945D01*
X0209905Y0082143D02*
X0209933Y0082143D01*
X0210021Y0083342D02*
X0209494Y0083342D01*
X0208876Y0079746D02*
X0221275Y0079746D01*
X0222473Y0078548D02*
X0209088Y0078548D01*
X0209294Y0077349D02*
X0223228Y0077349D01*
X0223695Y0076151D02*
X0209294Y0076151D01*
X0206431Y0074600D02*
X0206431Y0074600D01*
X0203370Y0074952D02*
X0200633Y0074952D01*
X0200633Y0073754D02*
X0203370Y0073754D01*
X0203567Y0072555D02*
X0200633Y0072555D01*
X0200633Y0071357D02*
X0203567Y0071357D01*
X0204890Y0070158D02*
X0199487Y0070158D01*
X0201105Y0068960D02*
X0203094Y0068960D01*
X0203094Y0067761D02*
X0201105Y0067761D01*
X0201105Y0066563D02*
X0203094Y0066563D01*
X0203094Y0065364D02*
X0201105Y0065364D01*
X0201105Y0064166D02*
X0203094Y0064166D01*
X0204041Y0062967D02*
X0199487Y0062967D01*
X0200237Y0061769D02*
X0202962Y0061769D01*
X0202466Y0060570D02*
X0200734Y0060570D01*
X0200791Y0059372D02*
X0202409Y0059372D01*
X0202409Y0058173D02*
X0200791Y0058173D01*
X0200791Y0056975D02*
X0202409Y0056975D01*
X0202409Y0055776D02*
X0200791Y0055776D01*
X0200791Y0054578D02*
X0202409Y0054578D01*
X0202409Y0053379D02*
X0200791Y0053379D01*
X0200548Y0052181D02*
X0202652Y0052181D01*
X0203292Y0050982D02*
X0199908Y0050982D01*
X0198337Y0049784D02*
X0204863Y0049784D01*
X0208337Y0049784D02*
X0214863Y0049784D01*
X0213292Y0050982D02*
X0209908Y0050982D01*
X0210548Y0052181D02*
X0212652Y0052181D01*
X0212409Y0053379D02*
X0210791Y0053379D01*
X0210791Y0054578D02*
X0212409Y0054578D01*
X0212409Y0055776D02*
X0210791Y0055776D01*
X0210791Y0056975D02*
X0212409Y0056975D01*
X0212409Y0058173D02*
X0210791Y0058173D01*
X0210791Y0059372D02*
X0212409Y0059372D01*
X0211600Y0062600D02*
X0212946Y0063946D01*
X0212946Y0066600D01*
X0209787Y0066563D02*
X0209413Y0066563D01*
X0209413Y0067761D02*
X0209787Y0067761D01*
X0209787Y0068960D02*
X0209413Y0068960D01*
X0207971Y0070158D02*
X0216295Y0070158D01*
X0209787Y0065364D02*
X0209413Y0065364D01*
X0196406Y0070158D02*
X0191337Y0070158D01*
X0192535Y0071357D02*
X0194906Y0071357D01*
X0194906Y0072555D02*
X0193734Y0072555D01*
X0194413Y0068960D02*
X0194787Y0068960D01*
X0194787Y0067761D02*
X0194413Y0067761D01*
X0194413Y0066563D02*
X0194787Y0066563D01*
X0194787Y0065364D02*
X0194413Y0065364D01*
X0194413Y0064166D02*
X0194787Y0064166D01*
X0194041Y0062967D02*
X0189159Y0062967D01*
X0190237Y0061769D02*
X0192962Y0061769D01*
X0192466Y0060570D02*
X0190734Y0060570D01*
X0190791Y0059372D02*
X0192409Y0059372D01*
X0192409Y0058173D02*
X0190791Y0058173D01*
X0190791Y0056975D02*
X0192409Y0056975D01*
X0192409Y0055776D02*
X0190791Y0055776D01*
X0190791Y0054578D02*
X0192409Y0054578D01*
X0192409Y0053379D02*
X0190791Y0053379D01*
X0190548Y0052181D02*
X0192652Y0052181D01*
X0193292Y0050982D02*
X0189908Y0050982D01*
X0188337Y0049784D02*
X0194863Y0049784D01*
X0184863Y0049784D02*
X0178337Y0049784D01*
X0178974Y0050047D02*
X0180153Y0051226D01*
X0180791Y0052766D01*
X0180791Y0060434D01*
X0180153Y0061974D01*
X0178974Y0063153D01*
X0177434Y0063791D01*
X0175766Y0063791D01*
X0174226Y0063153D01*
X0173047Y0061974D01*
X0172409Y0060434D01*
X0172409Y0052766D01*
X0173047Y0051226D01*
X0174226Y0050047D01*
X0175766Y0049409D01*
X0177434Y0049409D01*
X0178974Y0050047D01*
X0179908Y0050982D02*
X0183292Y0050982D01*
X0182652Y0052181D02*
X0180548Y0052181D01*
X0180791Y0053379D02*
X0182409Y0053379D01*
X0182409Y0054578D02*
X0180791Y0054578D01*
X0180791Y0055776D02*
X0182409Y0055776D01*
X0182409Y0056975D02*
X0180791Y0056975D01*
X0180791Y0058173D02*
X0182409Y0058173D01*
X0182059Y0059372D02*
X0180791Y0059372D01*
X0180734Y0060570D02*
X0182059Y0060570D01*
X0182059Y0061769D02*
X0180237Y0061769D01*
X0179159Y0062967D02*
X0182059Y0062967D01*
X0182059Y0064166D02*
X0168141Y0064166D01*
X0168141Y0065364D02*
X0182059Y0065364D01*
X0182059Y0066563D02*
X0168741Y0066563D01*
X0169940Y0067761D02*
X0180896Y0067761D01*
X0180814Y0071357D02*
X0119629Y0071357D01*
X0120271Y0070158D02*
X0167980Y0070158D01*
X0166781Y0068960D02*
X0120271Y0068960D01*
X0114201Y0071357D02*
X0109629Y0071357D01*
X0109573Y0071413D02*
X0104256Y0071413D01*
X0103559Y0070715D01*
X0103559Y0065792D01*
X0104256Y0065094D01*
X0105059Y0065094D01*
X0105059Y0063498D01*
X0104226Y0063153D01*
X0103047Y0061974D01*
X0102409Y0060434D01*
X0102409Y0052766D01*
X0103047Y0051226D01*
X0104226Y0050047D01*
X0105766Y0049409D01*
X0107434Y0049409D01*
X0108974Y0050047D01*
X0110153Y0051226D01*
X0110791Y0052766D01*
X0110791Y0060434D01*
X0110153Y0061974D01*
X0108974Y0063153D01*
X0108141Y0063498D01*
X0108141Y0065094D01*
X0109573Y0065094D01*
X0110271Y0065792D01*
X0110271Y0070715D01*
X0109573Y0071413D01*
X0110271Y0072555D02*
X0113559Y0072555D01*
X0113559Y0073754D02*
X0110271Y0073754D01*
X0110271Y0074952D02*
X0113559Y0074952D01*
X0113559Y0076151D02*
X0110271Y0076151D01*
X0110271Y0077349D02*
X0113559Y0077349D01*
X0115374Y0078548D02*
X0108455Y0078548D01*
X0108455Y0079746D02*
X0115374Y0079746D01*
X0115374Y0080945D02*
X0108455Y0080945D01*
X0108455Y0082143D02*
X0115374Y0082143D01*
X0115374Y0083342D02*
X0108455Y0083342D01*
X0108455Y0084540D02*
X0115374Y0084540D01*
X0115374Y0085739D02*
X0108455Y0085739D01*
X0109431Y0086937D02*
X0115374Y0086937D01*
X0107471Y0089334D02*
X0101828Y0089334D01*
X0100630Y0088136D02*
X0106272Y0088136D01*
X0106277Y0088141D02*
X0106277Y0088141D01*
X0105374Y0086937D02*
X0099431Y0086937D01*
X0098455Y0085739D02*
X0105374Y0085739D01*
X0105374Y0084540D02*
X0098455Y0084540D01*
X0098455Y0083342D02*
X0105374Y0083342D01*
X0105374Y0082143D02*
X0098455Y0082143D01*
X0098455Y0080945D02*
X0105374Y0080945D01*
X0105374Y0079746D02*
X0098455Y0079746D01*
X0098455Y0078548D02*
X0105374Y0078548D01*
X0103559Y0077349D02*
X0100271Y0077349D01*
X0100271Y0076151D02*
X0103559Y0076151D01*
X0103559Y0074952D02*
X0100271Y0074952D01*
X0100271Y0073754D02*
X0103559Y0073754D01*
X0103559Y0072555D02*
X0100271Y0072555D01*
X0099573Y0071413D02*
X0094256Y0071413D01*
X0093559Y0070715D01*
X0093559Y0065792D01*
X0094256Y0065094D01*
X0095059Y0065094D01*
X0095059Y0063498D01*
X0094226Y0063153D01*
X0093047Y0061974D01*
X0092409Y0060434D01*
X0092409Y0052766D01*
X0093047Y0051226D01*
X0094226Y0050047D01*
X0095766Y0049409D01*
X0097434Y0049409D01*
X0098974Y0050047D01*
X0100153Y0051226D01*
X0100791Y0052766D01*
X0100791Y0060434D01*
X0100153Y0061974D01*
X0098974Y0063153D01*
X0098141Y0063498D01*
X0098141Y0065094D01*
X0099573Y0065094D01*
X0100271Y0065792D01*
X0100271Y0070715D01*
X0099573Y0071413D01*
X0099629Y0071357D02*
X0104201Y0071357D01*
X0103559Y0070158D02*
X0100271Y0070158D01*
X0100271Y0068960D02*
X0103559Y0068960D01*
X0103559Y0067761D02*
X0100271Y0067761D01*
X0100271Y0066563D02*
X0103559Y0066563D01*
X0103987Y0065364D02*
X0099843Y0065364D01*
X0098141Y0064166D02*
X0105059Y0064166D01*
X0104041Y0062967D02*
X0099159Y0062967D01*
X0100237Y0061769D02*
X0102962Y0061769D01*
X0102466Y0060570D02*
X0100734Y0060570D01*
X0100791Y0059372D02*
X0102409Y0059372D01*
X0102409Y0058173D02*
X0100791Y0058173D01*
X0100791Y0056975D02*
X0102409Y0056975D01*
X0102409Y0055776D02*
X0100791Y0055776D01*
X0100791Y0054578D02*
X0102409Y0054578D01*
X0102409Y0053379D02*
X0100791Y0053379D01*
X0100548Y0052181D02*
X0102652Y0052181D01*
X0103292Y0050982D02*
X0099908Y0050982D01*
X0098337Y0049784D02*
X0104863Y0049784D01*
X0108337Y0049784D02*
X0114863Y0049784D01*
X0113292Y0050982D02*
X0109908Y0050982D01*
X0110548Y0052181D02*
X0112652Y0052181D01*
X0112409Y0053379D02*
X0110791Y0053379D01*
X0110791Y0054578D02*
X0112409Y0054578D01*
X0112409Y0055776D02*
X0110791Y0055776D01*
X0110791Y0056975D02*
X0112409Y0056975D01*
X0112409Y0058173D02*
X0110791Y0058173D01*
X0110791Y0059372D02*
X0112409Y0059372D01*
X0112466Y0060570D02*
X0110734Y0060570D01*
X0110237Y0061769D02*
X0112962Y0061769D01*
X0114041Y0062967D02*
X0109159Y0062967D01*
X0108141Y0064166D02*
X0115059Y0064166D01*
X0113987Y0065364D02*
X0109843Y0065364D01*
X0110271Y0066563D02*
X0113559Y0066563D01*
X0113559Y0067761D02*
X0110271Y0067761D01*
X0110271Y0068960D02*
X0113559Y0068960D01*
X0113559Y0070158D02*
X0110271Y0070158D01*
X0094201Y0071357D02*
X0086455Y0071357D01*
X0086455Y0072555D02*
X0093559Y0072555D01*
X0093559Y0073754D02*
X0086455Y0073754D01*
X0086455Y0074952D02*
X0093559Y0074952D01*
X0093559Y0076151D02*
X0086455Y0076151D01*
X0086455Y0077349D02*
X0093559Y0077349D01*
X0095374Y0078548D02*
X0086455Y0078548D01*
X0087240Y0079746D02*
X0095374Y0079746D01*
X0095374Y0080945D02*
X0088439Y0080945D01*
X0089637Y0082143D02*
X0095374Y0082143D01*
X0095374Y0083342D02*
X0090836Y0083342D01*
X0092034Y0084540D02*
X0095374Y0084540D01*
X0095374Y0085739D02*
X0093233Y0085739D01*
X0094431Y0086937D02*
X0095374Y0086937D01*
X0095630Y0088136D02*
X0096272Y0088136D01*
X0096828Y0089334D02*
X0097471Y0089334D01*
X0098027Y0090533D02*
X0098669Y0090533D01*
X0099225Y0091732D02*
X0099868Y0091732D01*
X0100424Y0092930D02*
X0101066Y0092930D01*
X0096066Y0092930D02*
X0080936Y0092930D01*
X0080861Y0093111D02*
X0080111Y0093861D01*
X0079130Y0094267D01*
X0078070Y0094267D01*
X0077089Y0093861D01*
X0076339Y0093111D01*
X0075933Y0092130D01*
X0075933Y0091070D01*
X0076339Y0090089D01*
X0077089Y0089339D01*
X0078070Y0088933D01*
X0079130Y0088933D01*
X0080111Y0089339D01*
X0080861Y0090089D01*
X0081267Y0091070D01*
X0081267Y0092130D01*
X0080861Y0093111D01*
X0081267Y0091732D02*
X0094868Y0091732D01*
X0093669Y0090533D02*
X0081045Y0090533D01*
X0080100Y0089334D02*
X0092471Y0089334D01*
X0091272Y0088136D02*
X0058499Y0088136D01*
X0058499Y0089334D02*
X0077100Y0089334D01*
X0076155Y0090533D02*
X0058499Y0090533D01*
X0058499Y0091732D02*
X0075933Y0091732D01*
X0076264Y0092930D02*
X0065237Y0092930D01*
X0066527Y0094129D02*
X0077735Y0094129D01*
X0079465Y0094129D02*
X0094323Y0094129D01*
X0093933Y0095327D02*
X0067172Y0095327D01*
X0067531Y0096526D02*
X0094097Y0096526D01*
X0094952Y0097724D02*
X0067531Y0097724D01*
X0067213Y0098923D02*
X0149261Y0098923D01*
X0148933Y0097724D02*
X0098248Y0097724D01*
X0099103Y0096526D02*
X0149158Y0096526D01*
X0150717Y0100121D02*
X0066627Y0100121D01*
X0068295Y0101320D02*
X0200933Y0101320D01*
X0200933Y0101070D02*
X0201339Y0100089D01*
X0202089Y0099339D01*
X0203070Y0098933D01*
X0204130Y0098933D01*
X0205111Y0099339D01*
X0205861Y0100089D01*
X0206267Y0101070D01*
X0206267Y0102130D01*
X0205861Y0103111D01*
X0205111Y0103861D01*
X0204130Y0104267D01*
X0203070Y0104267D01*
X0202089Y0103861D01*
X0201339Y0103111D01*
X0200933Y0102130D01*
X0200933Y0101070D01*
X0201326Y0100121D02*
X0182483Y0100121D01*
X0182111Y0101839D02*
X0182861Y0102589D01*
X0183267Y0103570D01*
X0183267Y0104630D01*
X0182861Y0105611D01*
X0182111Y0106361D01*
X0181130Y0106767D01*
X0180070Y0106767D01*
X0179089Y0106361D01*
X0178339Y0105611D01*
X0177933Y0104630D01*
X0177933Y0103570D01*
X0178339Y0102589D01*
X0179089Y0101839D01*
X0180070Y0101433D01*
X0181130Y0101433D01*
X0182111Y0101839D01*
X0182790Y0102518D02*
X0201094Y0102518D01*
X0201111Y0103339D02*
X0201861Y0104089D01*
X0202267Y0105070D01*
X0202267Y0106130D01*
X0201861Y0107111D01*
X0201111Y0107861D01*
X0200130Y0108267D01*
X0199070Y0108267D01*
X0198089Y0107861D01*
X0197339Y0107111D01*
X0196933Y0106130D01*
X0196933Y0105070D01*
X0197339Y0104089D01*
X0198089Y0103339D01*
X0199070Y0102933D01*
X0200130Y0102933D01*
X0201111Y0103339D01*
X0201488Y0103717D02*
X0201945Y0103717D01*
X0202203Y0104915D02*
X0237089Y0104915D01*
X0236961Y0105044D02*
X0237658Y0104346D01*
X0238523Y0104346D01*
X0238523Y0103794D01*
X0238248Y0103130D01*
X0238248Y0102070D01*
X0238654Y0101089D01*
X0239404Y0100339D01*
X0240384Y0099933D01*
X0241445Y0099933D01*
X0242426Y0100339D01*
X0243176Y0101089D01*
X0243582Y0102070D01*
X0243582Y0103130D01*
X0243176Y0104111D01*
X0242940Y0104346D01*
X0243369Y0104346D01*
X0244066Y0105044D01*
X0244066Y0113904D01*
X0243369Y0114602D01*
X0237658Y0114602D01*
X0236961Y0113904D01*
X0236961Y0105044D01*
X0236961Y0106114D02*
X0202267Y0106114D01*
X0201659Y0107312D02*
X0236961Y0107312D01*
X0236961Y0108511D02*
X0150865Y0108511D01*
X0150582Y0108228D02*
X0151972Y0109618D01*
X0151972Y0111582D01*
X0150582Y0112972D01*
X0148618Y0112972D01*
X0147228Y0111582D01*
X0147228Y0110407D01*
X0146962Y0110141D01*
X0084553Y0110141D01*
X0080455Y0114238D01*
X0079553Y0115141D01*
X0078728Y0115141D01*
X0077897Y0115972D01*
X0075933Y0115972D01*
X0074543Y0114582D01*
X0074543Y0112618D01*
X0075933Y0111228D01*
X0077897Y0111228D01*
X0078503Y0111834D01*
X0083277Y0107059D01*
X0148238Y0107059D01*
X0149141Y0107962D01*
X0149407Y0108228D01*
X0150582Y0108228D01*
X0151972Y0109709D02*
X0236961Y0109709D01*
X0236961Y0110908D02*
X0151972Y0110908D01*
X0151448Y0112106D02*
X0209717Y0112106D01*
X0209465Y0112359D02*
X0210162Y0111661D01*
X0213668Y0111661D01*
X0214365Y0112359D01*
X0214365Y0117361D01*
X0213905Y0117821D01*
X0213905Y0120253D01*
X0214312Y0120660D01*
X0214466Y0120394D01*
X0214724Y0120135D01*
X0215041Y0119953D01*
X0215394Y0119858D01*
X0217357Y0119858D01*
X0217357Y0122830D01*
X0218126Y0122830D01*
X0218126Y0123598D01*
X0221294Y0123598D01*
X0221294Y0125365D01*
X0221200Y0125718D01*
X0221017Y0126035D01*
X0220759Y0126293D01*
X0220443Y0126476D01*
X0220090Y0126570D01*
X0218126Y0126570D01*
X0218126Y0123598D01*
X0217357Y0123598D01*
X0217357Y0126570D01*
X0215394Y0126570D01*
X0215041Y0126476D01*
X0214724Y0126293D01*
X0214466Y0126035D01*
X0214312Y0125768D01*
X0213707Y0126373D01*
X0208390Y0126373D01*
X0207693Y0125676D01*
X0207693Y0125205D01*
X0202705Y0125205D01*
X0201767Y0124267D01*
X0201384Y0124267D01*
X0200404Y0123861D01*
X0199654Y0123111D01*
X0199248Y0122130D01*
X0199248Y0121070D01*
X0199654Y0120089D01*
X0200404Y0119339D01*
X0201384Y0118933D01*
X0202445Y0118933D01*
X0203426Y0119339D01*
X0204176Y0120089D01*
X0204582Y0121070D01*
X0204582Y0121224D01*
X0207693Y0121224D01*
X0207693Y0120753D01*
X0208390Y0120055D01*
X0209924Y0120055D01*
X0209924Y0117821D01*
X0209465Y0117361D01*
X0209465Y0112359D01*
X0209465Y0113305D02*
X0206028Y0113305D01*
X0206111Y0113339D02*
X0206861Y0114089D01*
X0207267Y0115070D01*
X0207267Y0116130D01*
X0206861Y0117111D01*
X0206111Y0117861D01*
X0205130Y0118267D01*
X0204070Y0118267D01*
X0203089Y0117861D01*
X0202339Y0117111D01*
X0201933Y0116130D01*
X0201933Y0115070D01*
X0202339Y0114089D01*
X0203089Y0113339D01*
X0204070Y0112933D01*
X0205130Y0112933D01*
X0206111Y0113339D01*
X0207032Y0114503D02*
X0209465Y0114503D01*
X0209465Y0115702D02*
X0207267Y0115702D01*
X0206948Y0116900D02*
X0209465Y0116900D01*
X0209924Y0118099D02*
X0205536Y0118099D01*
X0203664Y0118099D02*
X0198455Y0118099D01*
X0198455Y0119297D02*
X0200505Y0119297D01*
X0199486Y0120496D02*
X0198455Y0120496D01*
X0198455Y0121694D02*
X0199248Y0121694D01*
X0199564Y0122893D02*
X0198455Y0122893D01*
X0198455Y0124091D02*
X0200961Y0124091D01*
X0198455Y0125290D02*
X0207693Y0125290D01*
X0215089Y0126488D02*
X0198455Y0126488D01*
X0198455Y0127687D02*
X0252374Y0127687D01*
X0252374Y0128885D02*
X0198455Y0128885D01*
X0199578Y0130084D02*
X0252374Y0130084D01*
X0252374Y0131282D02*
X0200776Y0131282D01*
X0198816Y0133679D02*
X0117173Y0133679D01*
X0117455Y0133962D02*
X0122955Y0139462D01*
X0122955Y0146205D01*
X0123433Y0145728D01*
X0125397Y0145728D01*
X0126787Y0147118D01*
X0126787Y0148293D01*
X0129553Y0151059D01*
X0180101Y0151059D01*
X0180933Y0150228D01*
X0182897Y0150228D01*
X0184287Y0151618D01*
X0184287Y0153582D01*
X0182897Y0154972D01*
X0180933Y0154972D01*
X0180101Y0154141D01*
X0128277Y0154141D01*
X0124608Y0150472D01*
X0123433Y0150472D01*
X0122955Y0149995D01*
X0122955Y0155962D01*
X0125053Y0158059D01*
X0188277Y0158059D01*
X0197374Y0148962D01*
X0198277Y0148059D01*
X0210684Y0148059D01*
X0211404Y0147339D01*
X0212384Y0146933D01*
X0213445Y0146933D01*
X0214426Y0147339D01*
X0215176Y0148089D01*
X0215582Y0149070D01*
X0215582Y0150130D01*
X0215176Y0151111D01*
X0214426Y0151861D01*
X0213445Y0152267D01*
X0212384Y0152267D01*
X0211404Y0151861D01*
X0210684Y0151141D01*
X0199553Y0151141D01*
X0190455Y0160238D01*
X0189553Y0161141D01*
X0123777Y0161141D01*
X0120777Y0158141D01*
X0119874Y0157238D01*
X0119874Y0140738D01*
X0115277Y0136141D01*
X0100553Y0136141D01*
X0097837Y0138857D01*
X0098420Y0140266D01*
X0098420Y0147934D01*
X0097782Y0149474D01*
X0096604Y0150653D01*
X0095063Y0151291D01*
X0093396Y0151291D01*
X0091856Y0150653D01*
X0090677Y0149474D01*
X0090039Y0147934D01*
X0090039Y0140266D01*
X0090677Y0138726D01*
X0091856Y0137547D01*
X0093396Y0136909D01*
X0095063Y0136909D01*
X0095320Y0137016D01*
X0099277Y0133059D01*
X0116553Y0133059D01*
X0117455Y0133962D01*
X0118372Y0134878D02*
X0200014Y0134878D01*
X0197617Y0132481D02*
X0058499Y0132481D01*
X0058499Y0133679D02*
X0098657Y0133679D01*
X0097458Y0134878D02*
X0058499Y0134878D01*
X0058499Y0136076D02*
X0096260Y0136076D01*
X0098220Y0138473D02*
X0100930Y0138473D01*
X0100677Y0138726D02*
X0101856Y0137547D01*
X0103396Y0136909D01*
X0105063Y0136909D01*
X0106604Y0137547D01*
X0107782Y0138726D01*
X0108420Y0140266D01*
X0108420Y0147934D01*
X0107782Y0149474D01*
X0106604Y0150653D01*
X0105770Y0150998D01*
X0105770Y0159277D01*
X0108553Y0162059D01*
X0189277Y0162059D01*
X0197374Y0153962D01*
X0198277Y0153059D01*
X0208684Y0153059D01*
X0209404Y0152339D01*
X0210384Y0151933D01*
X0211445Y0151933D01*
X0212426Y0152339D01*
X0213176Y0153089D01*
X0213582Y0154070D01*
X0213582Y0155130D01*
X0213176Y0156111D01*
X0212426Y0156861D01*
X0211445Y0157267D01*
X0210384Y0157267D01*
X0209404Y0156861D01*
X0208684Y0156141D01*
X0199553Y0156141D01*
X0190553Y0165141D01*
X0182306Y0165141D01*
X0183283Y0166118D01*
X0183283Y0168082D01*
X0181893Y0169472D01*
X0179929Y0169472D01*
X0179098Y0168641D01*
X0169053Y0168641D01*
X0168141Y0169553D01*
X0168141Y0169702D01*
X0168974Y0170047D01*
X0170153Y0171226D01*
X0170791Y0172766D01*
X0170791Y0180434D01*
X0170153Y0181974D01*
X0168974Y0183153D01*
X0167434Y0183791D01*
X0165766Y0183791D01*
X0164226Y0183153D01*
X0163047Y0181974D01*
X0162409Y0180434D01*
X0162409Y0172766D01*
X0163047Y0171226D01*
X0164226Y0170047D01*
X0165059Y0169702D01*
X0165059Y0168277D01*
X0167777Y0165559D01*
X0179098Y0165559D01*
X0179516Y0165141D01*
X0107277Y0165141D01*
X0102689Y0160553D01*
X0102689Y0150998D01*
X0101856Y0150653D01*
X0100677Y0149474D01*
X0100039Y0147934D01*
X0100039Y0140266D01*
X0100677Y0138726D01*
X0100286Y0139672D02*
X0098174Y0139672D01*
X0098420Y0140870D02*
X0100039Y0140870D01*
X0100039Y0142069D02*
X0098420Y0142069D01*
X0098420Y0143268D02*
X0100039Y0143268D01*
X0100039Y0144466D02*
X0098420Y0144466D01*
X0098420Y0145665D02*
X0100039Y0145665D01*
X0100039Y0146863D02*
X0098420Y0146863D01*
X0098367Y0148062D02*
X0100092Y0148062D01*
X0100589Y0149260D02*
X0097871Y0149260D01*
X0096798Y0150459D02*
X0101662Y0150459D01*
X0102689Y0151657D02*
X0058499Y0151657D01*
X0058499Y0150459D02*
X0061388Y0150459D01*
X0061372Y0150447D02*
X0060883Y0149958D01*
X0060477Y0149399D01*
X0060164Y0148784D01*
X0059951Y0148127D01*
X0059843Y0147445D01*
X0059843Y0144500D01*
X0063830Y0144500D01*
X0063830Y0151479D01*
X0063203Y0151379D01*
X0062546Y0151166D01*
X0061930Y0150852D01*
X0061372Y0150447D01*
X0060406Y0149260D02*
X0058499Y0149260D01*
X0058499Y0148062D02*
X0059940Y0148062D01*
X0059843Y0146863D02*
X0058499Y0146863D01*
X0058499Y0145665D02*
X0059843Y0145665D01*
X0058499Y0144466D02*
X0063830Y0144466D01*
X0063830Y0144500D02*
X0063830Y0143700D01*
X0064630Y0143700D01*
X0064630Y0144500D01*
X0068617Y0144500D01*
X0068617Y0147445D01*
X0068509Y0148127D01*
X0068296Y0148784D01*
X0067982Y0149399D01*
X0067576Y0149958D01*
X0067088Y0150447D01*
X0066529Y0150852D01*
X0065914Y0151166D01*
X0065257Y0151379D01*
X0064630Y0151479D01*
X0064630Y0144500D01*
X0063830Y0144500D01*
X0063830Y0143700D02*
X0059843Y0143700D01*
X0059843Y0140755D01*
X0059951Y0140073D01*
X0060164Y0139416D01*
X0060477Y0138800D01*
X0060883Y0138242D01*
X0061372Y0137753D01*
X0061930Y0137348D01*
X0062546Y0137034D01*
X0063203Y0136821D01*
X0063830Y0136721D01*
X0063830Y0143700D01*
X0063830Y0143268D02*
X0064630Y0143268D01*
X0064630Y0143700D02*
X0064630Y0136721D01*
X0065257Y0136821D01*
X0065914Y0137034D01*
X0066529Y0137348D01*
X0067088Y0137753D01*
X0067576Y0138242D01*
X0067982Y0138800D01*
X0068296Y0139416D01*
X0068509Y0140073D01*
X0068617Y0140755D01*
X0068617Y0143700D01*
X0064630Y0143700D01*
X0064630Y0144466D02*
X0070039Y0144466D01*
X0070039Y0143268D02*
X0068617Y0143268D01*
X0068617Y0142069D02*
X0070039Y0142069D01*
X0070039Y0140870D02*
X0068617Y0140870D01*
X0068379Y0139672D02*
X0070286Y0139672D01*
X0070039Y0140266D02*
X0070677Y0138726D01*
X0071856Y0137547D01*
X0073396Y0136909D01*
X0075063Y0136909D01*
X0076604Y0137547D01*
X0077782Y0138726D01*
X0078420Y0140266D01*
X0078420Y0147934D01*
X0077782Y0149474D01*
X0076604Y0150653D01*
X0075063Y0151291D01*
X0073396Y0151291D01*
X0071856Y0150653D01*
X0070677Y0149474D01*
X0070039Y0147934D01*
X0070039Y0140266D01*
X0070930Y0138473D02*
X0067745Y0138473D01*
X0066387Y0137275D02*
X0072514Y0137275D01*
X0075946Y0137275D02*
X0082514Y0137275D01*
X0081856Y0137547D02*
X0083396Y0136909D01*
X0085063Y0136909D01*
X0086604Y0137547D01*
X0087782Y0138726D01*
X0088420Y0140266D01*
X0088420Y0147934D01*
X0087782Y0149474D01*
X0086604Y0150653D01*
X0085063Y0151291D01*
X0083396Y0151291D01*
X0081856Y0150653D01*
X0080677Y0149474D01*
X0080039Y0147934D01*
X0080039Y0140266D01*
X0080677Y0138726D01*
X0081856Y0137547D01*
X0080930Y0138473D02*
X0077530Y0138473D01*
X0078174Y0139672D02*
X0080286Y0139672D01*
X0080039Y0140870D02*
X0078420Y0140870D01*
X0078420Y0142069D02*
X0080039Y0142069D01*
X0080039Y0143268D02*
X0078420Y0143268D01*
X0078420Y0144466D02*
X0080039Y0144466D01*
X0080039Y0145665D02*
X0078420Y0145665D01*
X0078420Y0146863D02*
X0080039Y0146863D01*
X0080092Y0148062D02*
X0078367Y0148062D01*
X0077871Y0149260D02*
X0080589Y0149260D01*
X0081662Y0150459D02*
X0076798Y0150459D01*
X0071662Y0150459D02*
X0067072Y0150459D01*
X0068053Y0149260D02*
X0070589Y0149260D01*
X0070092Y0148062D02*
X0068520Y0148062D01*
X0068617Y0146863D02*
X0070039Y0146863D01*
X0070039Y0145665D02*
X0068617Y0145665D01*
X0064630Y0145665D02*
X0063830Y0145665D01*
X0063830Y0146863D02*
X0064630Y0146863D01*
X0064630Y0148062D02*
X0063830Y0148062D01*
X0063830Y0149260D02*
X0064630Y0149260D01*
X0064630Y0150459D02*
X0063830Y0150459D01*
X0058499Y0152856D02*
X0102689Y0152856D01*
X0102689Y0154054D02*
X0058499Y0154054D01*
X0058499Y0155253D02*
X0102689Y0155253D01*
X0102689Y0156451D02*
X0058499Y0156451D01*
X0058499Y0157650D02*
X0102689Y0157650D01*
X0102689Y0158848D02*
X0058499Y0158848D01*
X0058499Y0160047D02*
X0102689Y0160047D01*
X0103381Y0161245D02*
X0058499Y0161245D01*
X0058499Y0162444D02*
X0104580Y0162444D01*
X0105778Y0163642D02*
X0058499Y0163642D01*
X0058499Y0164841D02*
X0106977Y0164841D01*
X0107739Y0161245D02*
X0190091Y0161245D01*
X0190647Y0160047D02*
X0191290Y0160047D01*
X0191845Y0158848D02*
X0192488Y0158848D01*
X0193044Y0157650D02*
X0193687Y0157650D01*
X0194242Y0156451D02*
X0194885Y0156451D01*
X0195441Y0155253D02*
X0196084Y0155253D01*
X0196640Y0154054D02*
X0197282Y0154054D01*
X0197374Y0153962D02*
X0197374Y0153962D01*
X0197838Y0152856D02*
X0208888Y0152856D01*
X0211200Y0151657D02*
X0199037Y0151657D01*
X0197076Y0149260D02*
X0187287Y0149260D01*
X0187287Y0149582D02*
X0185897Y0150972D01*
X0183933Y0150972D01*
X0183101Y0150141D01*
X0130277Y0150141D01*
X0130108Y0149972D01*
X0128933Y0149972D01*
X0127543Y0148582D01*
X0127543Y0146618D01*
X0128933Y0145228D01*
X0130897Y0145228D01*
X0132287Y0146618D01*
X0132287Y0147059D01*
X0183101Y0147059D01*
X0183933Y0146228D01*
X0185897Y0146228D01*
X0187287Y0147618D01*
X0187287Y0149582D01*
X0186410Y0150459D02*
X0195878Y0150459D01*
X0194679Y0151657D02*
X0184287Y0151657D01*
X0184287Y0152856D02*
X0193481Y0152856D01*
X0192282Y0154054D02*
X0183815Y0154054D01*
X0188687Y0157650D02*
X0124643Y0157650D01*
X0123445Y0156451D02*
X0189885Y0156451D01*
X0191084Y0155253D02*
X0122955Y0155253D01*
X0122955Y0154054D02*
X0128190Y0154054D01*
X0126992Y0152856D02*
X0122955Y0152856D01*
X0122955Y0151657D02*
X0125793Y0151657D01*
X0123420Y0150459D02*
X0122955Y0150459D01*
X0119874Y0150459D02*
X0116798Y0150459D01*
X0116604Y0150653D02*
X0115063Y0151291D01*
X0113396Y0151291D01*
X0111856Y0150653D01*
X0110677Y0149474D01*
X0110039Y0147934D01*
X0110039Y0140266D01*
X0110677Y0138726D01*
X0111856Y0137547D01*
X0113396Y0136909D01*
X0115063Y0136909D01*
X0116604Y0137547D01*
X0117782Y0138726D01*
X0118420Y0140266D01*
X0118420Y0147934D01*
X0117782Y0149474D01*
X0116604Y0150653D01*
X0117871Y0149260D02*
X0119874Y0149260D01*
X0119874Y0148062D02*
X0118367Y0148062D01*
X0118420Y0146863D02*
X0119874Y0146863D01*
X0119874Y0145665D02*
X0118420Y0145665D01*
X0118420Y0144466D02*
X0119874Y0144466D01*
X0119874Y0143268D02*
X0118420Y0143268D01*
X0118420Y0142069D02*
X0119874Y0142069D01*
X0119874Y0140870D02*
X0118420Y0140870D01*
X0118174Y0139672D02*
X0118808Y0139672D01*
X0117610Y0138473D02*
X0117530Y0138473D01*
X0116411Y0137275D02*
X0115946Y0137275D01*
X0112514Y0137275D02*
X0105946Y0137275D01*
X0107530Y0138473D02*
X0110930Y0138473D01*
X0110286Y0139672D02*
X0108174Y0139672D01*
X0108420Y0140870D02*
X0110039Y0140870D01*
X0110039Y0142069D02*
X0108420Y0142069D01*
X0108420Y0143268D02*
X0110039Y0143268D01*
X0110039Y0144466D02*
X0108420Y0144466D01*
X0108420Y0145665D02*
X0110039Y0145665D01*
X0110039Y0146863D02*
X0108420Y0146863D01*
X0108367Y0148062D02*
X0110092Y0148062D01*
X0110589Y0149260D02*
X0107871Y0149260D01*
X0106798Y0150459D02*
X0111662Y0150459D01*
X0105770Y0151657D02*
X0119874Y0151657D01*
X0119874Y0152856D02*
X0105770Y0152856D01*
X0105770Y0154054D02*
X0119874Y0154054D01*
X0119874Y0155253D02*
X0105770Y0155253D01*
X0105770Y0156451D02*
X0119874Y0156451D01*
X0120286Y0157650D02*
X0105770Y0157650D01*
X0105770Y0158848D02*
X0121484Y0158848D01*
X0122683Y0160047D02*
X0106540Y0160047D01*
X0105766Y0169409D02*
X0107434Y0169409D01*
X0108974Y0170047D01*
X0110153Y0171226D01*
X0110791Y0172766D01*
X0110791Y0180434D01*
X0110153Y0181974D01*
X0108974Y0183153D01*
X0107434Y0183791D01*
X0105766Y0183791D01*
X0104226Y0183153D01*
X0103047Y0181974D01*
X0102409Y0180434D01*
X0102409Y0172766D01*
X0103047Y0171226D01*
X0104226Y0170047D01*
X0105766Y0169409D01*
X0105222Y0169635D02*
X0097977Y0169635D01*
X0097434Y0169409D02*
X0098974Y0170047D01*
X0100153Y0171226D01*
X0100791Y0172766D01*
X0100791Y0180434D01*
X0100153Y0181974D01*
X0098974Y0183153D01*
X0097434Y0183791D01*
X0095766Y0183791D01*
X0094226Y0183153D01*
X0093047Y0181974D01*
X0092409Y0180434D01*
X0092409Y0172766D01*
X0093047Y0171226D01*
X0094226Y0170047D01*
X0095766Y0169409D01*
X0097434Y0169409D01*
X0095222Y0169635D02*
X0058499Y0169635D01*
X0058499Y0170833D02*
X0093440Y0170833D01*
X0092714Y0172032D02*
X0058499Y0172032D01*
X0058499Y0173230D02*
X0092409Y0173230D01*
X0092409Y0174429D02*
X0058499Y0174429D01*
X0058499Y0175627D02*
X0078223Y0175627D01*
X0078441Y0175409D02*
X0079593Y0175409D01*
X0080407Y0176224D01*
X0080407Y0177711D01*
X0081895Y0177711D01*
X0082709Y0178526D01*
X0082709Y0179678D01*
X0081895Y0180492D01*
X0080407Y0181980D01*
X0079616Y0182772D01*
X0079593Y0182794D01*
X0078441Y0182794D01*
X0077638Y0181992D01*
X0077626Y0181980D01*
X0077626Y0180445D01*
X0076859Y0179678D01*
X0076859Y0178526D01*
X0077626Y0177759D01*
X0077626Y0176224D01*
X0078441Y0175409D01*
X0079811Y0175627D02*
X0092409Y0175627D01*
X0092409Y0176826D02*
X0080407Y0176826D01*
X0082208Y0178024D02*
X0092409Y0178024D01*
X0092409Y0179223D02*
X0082709Y0179223D01*
X0081966Y0180421D02*
X0092409Y0180421D01*
X0092901Y0181620D02*
X0080767Y0181620D01*
X0080407Y0181980D02*
X0080407Y0181980D01*
X0081895Y0180492D02*
X0081895Y0180492D01*
X0077602Y0180421D02*
X0058499Y0180421D01*
X0058499Y0179223D02*
X0076859Y0179223D01*
X0077361Y0178024D02*
X0058499Y0178024D01*
X0058499Y0176826D02*
X0077626Y0176826D01*
X0077626Y0181620D02*
X0058499Y0181620D01*
X0058535Y0182818D02*
X0093892Y0182818D01*
X0099308Y0182818D02*
X0103892Y0182818D01*
X0102901Y0181620D02*
X0100299Y0181620D01*
X0100791Y0180421D02*
X0102409Y0180421D01*
X0102409Y0179223D02*
X0100791Y0179223D01*
X0100791Y0178024D02*
X0102409Y0178024D01*
X0102409Y0176826D02*
X0100791Y0176826D01*
X0100791Y0175627D02*
X0102409Y0175627D01*
X0102409Y0174429D02*
X0100791Y0174429D01*
X0100791Y0173230D02*
X0102409Y0173230D01*
X0102714Y0172032D02*
X0100486Y0172032D01*
X0099760Y0170833D02*
X0103440Y0170833D01*
X0107977Y0169635D02*
X0115222Y0169635D01*
X0115766Y0169409D02*
X0117434Y0169409D01*
X0118974Y0170047D01*
X0120153Y0171226D01*
X0120791Y0172766D01*
X0120791Y0180434D01*
X0120153Y0181974D01*
X0118974Y0183153D01*
X0117434Y0183791D01*
X0115766Y0183791D01*
X0114226Y0183153D01*
X0113047Y0181974D01*
X0112409Y0180434D01*
X0112409Y0172766D01*
X0113047Y0171226D01*
X0114226Y0170047D01*
X0115766Y0169409D01*
X0117977Y0169635D02*
X0133045Y0169635D01*
X0131542Y0170833D02*
X0119760Y0170833D01*
X0120486Y0172032D02*
X0130642Y0172032D01*
X0129825Y0173230D02*
X0120791Y0173230D01*
X0120791Y0174429D02*
X0129008Y0174429D01*
X0128400Y0175627D02*
X0120791Y0175627D01*
X0120791Y0176826D02*
X0128030Y0176826D01*
X0127661Y0178024D02*
X0120791Y0178024D01*
X0120791Y0179223D02*
X0127291Y0179223D01*
X0127115Y0180421D02*
X0120791Y0180421D01*
X0120299Y0181620D02*
X0127115Y0181620D01*
X0127115Y0182818D02*
X0119308Y0182818D01*
X0113892Y0182818D02*
X0109308Y0182818D01*
X0110299Y0181620D02*
X0112901Y0181620D01*
X0112409Y0180421D02*
X0110791Y0180421D01*
X0110791Y0179223D02*
X0112409Y0179223D01*
X0112409Y0178024D02*
X0110791Y0178024D01*
X0110791Y0176826D02*
X0112409Y0176826D01*
X0112409Y0175627D02*
X0110791Y0175627D01*
X0110791Y0174429D02*
X0112409Y0174429D01*
X0112409Y0173230D02*
X0110791Y0173230D01*
X0110486Y0172032D02*
X0112714Y0172032D01*
X0113440Y0170833D02*
X0109760Y0170833D01*
X0127115Y0184017D02*
X0058614Y0184017D01*
X0058914Y0185215D02*
X0127260Y0185215D01*
X0127630Y0186414D02*
X0059236Y0186414D01*
X0059557Y0187612D02*
X0128000Y0187612D01*
X0128369Y0188811D02*
X0060225Y0188811D01*
X0060917Y0190009D02*
X0128940Y0190009D01*
X0129757Y0191208D02*
X0061742Y0191208D01*
X0062941Y0192406D02*
X0130574Y0192406D01*
X0131360Y0193560D02*
X0131360Y0193560D01*
X0131417Y0193605D02*
X0064212Y0193605D01*
X0066288Y0194803D02*
X0132920Y0194803D01*
X0134422Y0196002D02*
X0069658Y0196002D01*
X0058499Y0168436D02*
X0134548Y0168436D01*
X0135229Y0167893D02*
X0135229Y0167893D01*
X0136899Y0167238D02*
X0058499Y0167238D01*
X0058499Y0166039D02*
X0140453Y0166039D01*
X0146187Y0166039D02*
X0167297Y0166039D01*
X0166099Y0167238D02*
X0150323Y0167238D01*
X0149594Y0166817D02*
X0149594Y0166817D01*
X0152399Y0168436D02*
X0165059Y0168436D01*
X0165059Y0169635D02*
X0154198Y0169635D01*
X0155310Y0170833D02*
X0163440Y0170833D01*
X0162714Y0172032D02*
X0156422Y0172032D01*
X0157395Y0173230D02*
X0162409Y0173230D01*
X0162409Y0174429D02*
X0157972Y0174429D01*
X0158549Y0175627D02*
X0162409Y0175627D01*
X0162409Y0176826D02*
X0159127Y0176826D01*
X0159392Y0177376D02*
X0159392Y0177376D01*
X0159489Y0178024D02*
X0162409Y0178024D01*
X0162409Y0179223D02*
X0159670Y0179223D01*
X0159851Y0180421D02*
X0162409Y0180421D01*
X0162901Y0181620D02*
X0160031Y0181620D01*
X0160046Y0182818D02*
X0163892Y0182818D01*
X0159866Y0184017D02*
X0320028Y0184017D01*
X0320028Y0182818D02*
X0319308Y0182818D01*
X0320174Y0185215D02*
X0159685Y0185215D01*
X0159504Y0186414D02*
X0320543Y0186414D01*
X0320913Y0187612D02*
X0159175Y0187612D01*
X0158598Y0188811D02*
X0321283Y0188811D01*
X0321486Y0189472D02*
X0321486Y0189472D01*
X0321853Y0190009D02*
X0158020Y0190009D01*
X0157443Y0191208D02*
X0322670Y0191208D01*
X0323487Y0192406D02*
X0156515Y0192406D01*
X0155403Y0193605D02*
X0324330Y0193605D01*
X0324274Y0193560D02*
X0324274Y0193560D01*
X0324274Y0193560D01*
X0325833Y0194803D02*
X0154291Y0194803D01*
X0153879Y0195248D02*
X0153879Y0195248D01*
X0152573Y0196002D02*
X0327336Y0196002D01*
X0345486Y0196002D02*
X0390629Y0196002D01*
X0393044Y0195355D02*
X0393044Y0195355D01*
X0393999Y0194803D02*
X0347205Y0194803D01*
X0346792Y0195248D02*
X0346792Y0195248D01*
X0348317Y0193605D02*
X0396075Y0193605D01*
X0397346Y0192406D02*
X0349429Y0192406D01*
X0350357Y0191208D02*
X0398544Y0191208D01*
X0399370Y0190009D02*
X0350934Y0190009D01*
X0351511Y0188811D02*
X0400062Y0188811D01*
X0400730Y0187612D02*
X0352088Y0187612D01*
X0352418Y0186414D02*
X0401051Y0186414D01*
X0401372Y0185215D02*
X0352598Y0185215D01*
X0352779Y0184017D02*
X0401673Y0184017D01*
X0401751Y0182818D02*
X0394308Y0182818D01*
X0393974Y0183153D02*
X0392434Y0183791D01*
X0390766Y0183791D01*
X0389226Y0183153D01*
X0388047Y0181974D01*
X0387409Y0180434D01*
X0387409Y0172766D01*
X0388047Y0171226D01*
X0388962Y0170311D01*
X0388559Y0169908D01*
X0388559Y0164985D01*
X0389256Y0164287D01*
X0394573Y0164287D01*
X0395271Y0164985D01*
X0395271Y0169908D01*
X0394573Y0170605D01*
X0394532Y0170605D01*
X0395153Y0171226D01*
X0395791Y0172766D01*
X0395791Y0180434D01*
X0395153Y0181974D01*
X0393974Y0183153D01*
X0395299Y0181620D02*
X0401787Y0181620D01*
X0401787Y0180421D02*
X0395791Y0180421D01*
X0395791Y0179223D02*
X0401787Y0179223D01*
X0401787Y0178024D02*
X0395791Y0178024D01*
X0395791Y0176826D02*
X0401787Y0176826D01*
X0401787Y0175627D02*
X0395791Y0175627D01*
X0395791Y0174429D02*
X0401787Y0174429D01*
X0401787Y0173230D02*
X0395791Y0173230D01*
X0395486Y0172032D02*
X0401787Y0172032D01*
X0401787Y0170833D02*
X0394760Y0170833D01*
X0395271Y0169635D02*
X0401787Y0169635D01*
X0401787Y0168436D02*
X0395271Y0168436D01*
X0395271Y0167238D02*
X0401787Y0167238D01*
X0401787Y0166039D02*
X0395271Y0166039D01*
X0395127Y0164841D02*
X0401787Y0164841D01*
X0401787Y0163642D02*
X0394844Y0163642D01*
X0394573Y0163913D02*
X0389256Y0163913D01*
X0388559Y0163215D01*
X0388559Y0158292D01*
X0389256Y0157594D01*
X0390374Y0157594D01*
X0390374Y0154738D01*
X0388777Y0153141D01*
X0380634Y0153141D01*
X0380955Y0153462D01*
X0383455Y0155962D01*
X0383455Y0157594D01*
X0384573Y0157594D01*
X0385271Y0158292D01*
X0385271Y0163215D01*
X0384573Y0163913D01*
X0379256Y0163913D01*
X0378559Y0163215D01*
X0378559Y0158292D01*
X0379256Y0157594D01*
X0380374Y0157594D01*
X0380374Y0157238D01*
X0378777Y0155641D01*
X0370634Y0155641D01*
X0370955Y0155962D01*
X0372588Y0157594D01*
X0374573Y0157594D01*
X0375271Y0158292D01*
X0375271Y0163215D01*
X0374573Y0163913D01*
X0369256Y0163913D01*
X0368559Y0163215D01*
X0368559Y0158292D01*
X0368710Y0158141D01*
X0365119Y0158141D01*
X0365271Y0158292D01*
X0365271Y0163215D01*
X0364573Y0163913D01*
X0359256Y0163913D01*
X0358559Y0163215D01*
X0358559Y0162891D01*
X0339027Y0162891D01*
X0338124Y0161988D01*
X0336933Y0160797D01*
X0336933Y0155413D01*
X0336102Y0154582D01*
X0336102Y0152618D01*
X0337492Y0151228D01*
X0339456Y0151228D01*
X0340846Y0152618D01*
X0340846Y0154582D01*
X0340015Y0155413D01*
X0340015Y0159521D01*
X0340303Y0159809D01*
X0345770Y0159809D01*
X0345543Y0159582D01*
X0345543Y0157618D01*
X0346933Y0156228D01*
X0348108Y0156228D01*
X0349196Y0155141D01*
X0345287Y0155141D01*
X0344456Y0155972D01*
X0342492Y0155972D01*
X0341102Y0154582D01*
X0341102Y0152618D01*
X0342492Y0151228D01*
X0344456Y0151228D01*
X0345287Y0152059D01*
X0365196Y0152059D01*
X0364277Y0151141D01*
X0334728Y0151141D01*
X0333897Y0151972D01*
X0331933Y0151972D01*
X0330543Y0150582D01*
X0330543Y0148618D01*
X0331933Y0147228D01*
X0333897Y0147228D01*
X0334728Y0148059D01*
X0365196Y0148059D01*
X0360277Y0143141D01*
X0358728Y0143141D01*
X0357897Y0143972D01*
X0355933Y0143972D01*
X0354543Y0142582D01*
X0354543Y0140618D01*
X0355933Y0139228D01*
X0357897Y0139228D01*
X0358728Y0140059D01*
X0361553Y0140059D01*
X0367722Y0146228D01*
X0368897Y0146228D01*
X0369909Y0147240D01*
X0369909Y0142692D01*
X0369241Y0143361D01*
X0368260Y0143767D01*
X0367199Y0143767D01*
X0366219Y0143361D01*
X0365469Y0142611D01*
X0365063Y0141630D01*
X0365063Y0140570D01*
X0365469Y0139589D01*
X0366219Y0138839D01*
X0367199Y0138433D01*
X0368260Y0138433D01*
X0369241Y0138839D01*
X0369909Y0139508D01*
X0369909Y0133316D01*
X0370607Y0132618D01*
X0386593Y0132618D01*
X0387291Y0133316D01*
X0387291Y0139109D01*
X0389239Y0139109D01*
X0389563Y0139433D01*
X0389945Y0139433D01*
X0390926Y0139839D01*
X0391676Y0140589D01*
X0392082Y0141570D01*
X0392082Y0142630D01*
X0391676Y0143611D01*
X0390926Y0144361D01*
X0389945Y0144767D01*
X0388884Y0144767D01*
X0387904Y0144361D01*
X0387291Y0143747D01*
X0387291Y0149302D01*
X0386593Y0149999D01*
X0370607Y0149999D01*
X0370238Y0149631D01*
X0369810Y0150059D01*
X0390053Y0150059D01*
X0392553Y0152559D01*
X0393455Y0153462D01*
X0393455Y0157594D01*
X0394573Y0157594D01*
X0395271Y0158292D01*
X0395271Y0163215D01*
X0394573Y0163913D01*
X0395271Y0162444D02*
X0401787Y0162444D01*
X0401787Y0161245D02*
X0395271Y0161245D01*
X0395271Y0160047D02*
X0401787Y0160047D01*
X0401787Y0158848D02*
X0395271Y0158848D01*
X0394629Y0157650D02*
X0401787Y0157650D01*
X0401787Y0156451D02*
X0393455Y0156451D01*
X0393455Y0155253D02*
X0401787Y0155253D01*
X0401787Y0154054D02*
X0393455Y0154054D01*
X0392849Y0152856D02*
X0401787Y0152856D01*
X0401787Y0151657D02*
X0391651Y0151657D01*
X0390452Y0150459D02*
X0401787Y0150459D01*
X0401787Y0149260D02*
X0387291Y0149260D01*
X0387291Y0148062D02*
X0401787Y0148062D01*
X0401787Y0146863D02*
X0387291Y0146863D01*
X0387291Y0145665D02*
X0401787Y0145665D01*
X0401787Y0144466D02*
X0390672Y0144466D01*
X0391818Y0143268D02*
X0401787Y0143268D01*
X0401787Y0142069D02*
X0392082Y0142069D01*
X0391792Y0140870D02*
X0401787Y0140870D01*
X0401787Y0139672D02*
X0390522Y0139672D01*
X0387291Y0138473D02*
X0401787Y0138473D01*
X0401787Y0137275D02*
X0387291Y0137275D01*
X0387291Y0136076D02*
X0401787Y0136076D01*
X0401787Y0134878D02*
X0387291Y0134878D01*
X0387291Y0133679D02*
X0401787Y0133679D01*
X0401787Y0132481D02*
X0339898Y0132481D01*
X0341096Y0131282D02*
X0401787Y0131282D01*
X0401787Y0130084D02*
X0342295Y0130084D01*
X0343493Y0128885D02*
X0401787Y0128885D01*
X0401787Y0127687D02*
X0344692Y0127687D01*
X0345141Y0126488D02*
X0401787Y0126488D01*
X0401787Y0125290D02*
X0345141Y0125290D01*
X0345141Y0124091D02*
X0401787Y0124091D01*
X0401787Y0122893D02*
X0345141Y0122893D01*
X0345141Y0121694D02*
X0401787Y0121694D01*
X0401787Y0120496D02*
X0345141Y0120496D01*
X0345141Y0119297D02*
X0369127Y0119297D01*
X0369248Y0119419D02*
X0368990Y0119161D01*
X0368807Y0118844D01*
X0368713Y0118491D01*
X0368713Y0110409D01*
X0378000Y0110409D01*
X0378000Y0119696D01*
X0369917Y0119696D01*
X0369564Y0119602D01*
X0369248Y0119419D01*
X0368713Y0118099D02*
X0345141Y0118099D01*
X0345141Y0116900D02*
X0368713Y0116900D01*
X0368713Y0115702D02*
X0345141Y0115702D01*
X0345141Y0114503D02*
X0368713Y0114503D01*
X0368713Y0113305D02*
X0345141Y0113305D01*
X0345141Y0112106D02*
X0368713Y0112106D01*
X0368713Y0110908D02*
X0345141Y0110908D01*
X0345141Y0109709D02*
X0378000Y0109709D01*
X0378000Y0109209D02*
X0378000Y0110409D01*
X0379200Y0110409D01*
X0379200Y0119696D01*
X0387283Y0119696D01*
X0387636Y0119602D01*
X0387952Y0119419D01*
X0388210Y0119161D01*
X0388393Y0118844D01*
X0388487Y0118491D01*
X0388487Y0110409D01*
X0379200Y0110409D01*
X0379200Y0109209D01*
X0388487Y0109209D01*
X0388487Y0101126D01*
X0388393Y0100773D01*
X0388210Y0100457D01*
X0387952Y0100198D01*
X0387636Y0100016D01*
X0387283Y0099921D01*
X0379200Y0099921D01*
X0379200Y0109209D01*
X0378000Y0109209D01*
X0368713Y0109209D01*
X0368713Y0101126D01*
X0368807Y0100773D01*
X0368990Y0100457D01*
X0369248Y0100198D01*
X0369564Y0100016D01*
X0369917Y0099921D01*
X0378000Y0099921D01*
X0378000Y0109209D01*
X0378000Y0108511D02*
X0379200Y0108511D01*
X0379200Y0109709D02*
X0401787Y0109709D01*
X0401787Y0108511D02*
X0388487Y0108511D01*
X0388487Y0107312D02*
X0401787Y0107312D01*
X0401787Y0106114D02*
X0388487Y0106114D01*
X0388487Y0104915D02*
X0401787Y0104915D01*
X0401787Y0103717D02*
X0388487Y0103717D01*
X0388487Y0102518D02*
X0401787Y0102518D01*
X0401787Y0101320D02*
X0388487Y0101320D01*
X0387818Y0100121D02*
X0401787Y0100121D01*
X0401787Y0098923D02*
X0345141Y0098923D01*
X0345141Y0100121D02*
X0369382Y0100121D01*
X0368713Y0101320D02*
X0345141Y0101320D01*
X0345141Y0102518D02*
X0368713Y0102518D01*
X0368713Y0103717D02*
X0345141Y0103717D01*
X0345141Y0104915D02*
X0368713Y0104915D01*
X0368713Y0106114D02*
X0345141Y0106114D01*
X0345141Y0107312D02*
X0368713Y0107312D01*
X0368713Y0108511D02*
X0345141Y0108511D01*
X0338059Y0108511D02*
X0333105Y0108511D01*
X0336066Y0107312D02*
X0338059Y0107312D01*
X0338059Y0106114D02*
X0337265Y0106114D01*
X0335305Y0103717D02*
X0333105Y0103717D01*
X0336059Y0102518D02*
X0292141Y0102518D01*
X0292141Y0101320D02*
X0315966Y0101320D01*
X0315228Y0100121D02*
X0292141Y0100121D01*
X0292141Y0103717D02*
X0317444Y0103717D01*
X0317933Y0103228D02*
X0319897Y0103228D01*
X0320102Y0103434D01*
X0320792Y0102744D01*
X0325715Y0102744D01*
X0326413Y0103441D01*
X0326413Y0108758D01*
X0325715Y0109456D01*
X0320792Y0109456D01*
X0320094Y0108758D01*
X0320094Y0107774D01*
X0319897Y0107972D01*
X0317933Y0107972D01*
X0316543Y0106582D01*
X0316543Y0104618D01*
X0317933Y0103228D01*
X0316543Y0104915D02*
X0292141Y0104915D01*
X0292141Y0106114D02*
X0312634Y0106114D01*
X0313070Y0105933D02*
X0314130Y0105933D01*
X0315111Y0106339D01*
X0315861Y0107089D01*
X0316267Y0108070D01*
X0316267Y0109130D01*
X0315861Y0110111D01*
X0315111Y0110861D01*
X0314130Y0111267D01*
X0313070Y0111267D01*
X0312089Y0110861D01*
X0311339Y0110111D01*
X0310933Y0109130D01*
X0310933Y0108070D01*
X0311339Y0107089D01*
X0312089Y0106339D01*
X0313070Y0105933D01*
X0314566Y0106114D02*
X0316543Y0106114D01*
X0315953Y0107312D02*
X0317273Y0107312D01*
X0316267Y0108511D02*
X0320094Y0108511D01*
X0320792Y0111244D02*
X0325715Y0111244D01*
X0326413Y0111941D01*
X0326413Y0117258D01*
X0325715Y0117956D01*
X0320792Y0117956D01*
X0320094Y0117258D01*
X0320094Y0116460D01*
X0319582Y0116972D01*
X0317618Y0116972D01*
X0316228Y0115582D01*
X0316228Y0113618D01*
X0317618Y0112228D01*
X0319582Y0112228D01*
X0320094Y0112740D01*
X0320094Y0111941D01*
X0320792Y0111244D01*
X0320094Y0112106D02*
X0303285Y0112106D01*
X0303238Y0112059D02*
X0304141Y0112962D01*
X0304141Y0115962D01*
X0305238Y0117059D01*
X0312787Y0117059D01*
X0313618Y0116228D01*
X0315582Y0116228D01*
X0316972Y0117618D01*
X0316972Y0119582D01*
X0315582Y0120972D01*
X0313618Y0120972D01*
X0312787Y0120141D01*
X0303962Y0120141D01*
X0301994Y0118172D01*
X0301824Y0118426D01*
X0301426Y0118824D01*
X0300957Y0119138D01*
X0300435Y0119354D01*
X0299882Y0119464D01*
X0299600Y0119464D01*
X0299318Y0119464D01*
X0298765Y0119354D01*
X0298243Y0119138D01*
X0297774Y0118824D01*
X0297376Y0118426D01*
X0297062Y0117957D01*
X0296846Y0117435D01*
X0296736Y0116882D01*
X0296736Y0116600D01*
X0296736Y0116318D01*
X0296846Y0115765D01*
X0297062Y0115243D01*
X0297376Y0114774D01*
X0297774Y0114376D01*
X0298243Y0114062D01*
X0298765Y0113846D01*
X0299318Y0113736D01*
X0299600Y0113736D01*
X0299882Y0113736D01*
X0300435Y0113846D01*
X0300832Y0114011D01*
X0299962Y0113141D01*
X0298413Y0113141D01*
X0297582Y0113972D01*
X0295618Y0113972D01*
X0294228Y0112582D01*
X0294228Y0110618D01*
X0295618Y0109228D01*
X0297582Y0109228D01*
X0298413Y0110059D01*
X0301238Y0110059D01*
X0303238Y0112059D01*
X0304141Y0113305D02*
X0316541Y0113305D01*
X0316228Y0114503D02*
X0304141Y0114503D01*
X0304141Y0115702D02*
X0316348Y0115702D01*
X0316254Y0116900D02*
X0317546Y0116900D01*
X0316972Y0118099D02*
X0339923Y0118099D01*
X0340059Y0116900D02*
X0333105Y0116900D01*
X0333105Y0120496D02*
X0337526Y0120496D01*
X0338724Y0119297D02*
X0316972Y0119297D01*
X0317618Y0120228D02*
X0319582Y0120228D01*
X0320094Y0120740D01*
X0320094Y0120441D01*
X0320792Y0119744D01*
X0325715Y0119744D01*
X0326413Y0120441D01*
X0326413Y0125758D01*
X0325715Y0126456D01*
X0320792Y0126456D01*
X0320094Y0125758D01*
X0320094Y0124641D01*
X0319913Y0124641D01*
X0319582Y0124972D01*
X0317618Y0124972D01*
X0316228Y0123582D01*
X0316228Y0121618D01*
X0317618Y0120228D01*
X0317350Y0120496D02*
X0316058Y0120496D01*
X0316228Y0121694D02*
X0292141Y0121694D01*
X0292141Y0120496D02*
X0313142Y0120496D01*
X0312946Y0116900D02*
X0305079Y0116900D01*
X0303119Y0119297D02*
X0300572Y0119297D01*
X0299600Y0119297D02*
X0299600Y0119297D01*
X0299600Y0119464D02*
X0299600Y0116600D01*
X0299600Y0116600D01*
X0299600Y0119464D01*
X0298628Y0119297D02*
X0292141Y0119297D01*
X0292141Y0118099D02*
X0297157Y0118099D01*
X0296740Y0116900D02*
X0292141Y0116900D01*
X0292141Y0115702D02*
X0296872Y0115702D01*
X0296736Y0116600D02*
X0299600Y0116600D01*
X0299600Y0113736D01*
X0299600Y0116600D01*
X0299600Y0116600D01*
X0299600Y0116600D01*
X0296736Y0116600D01*
X0297647Y0114503D02*
X0292141Y0114503D01*
X0292141Y0113305D02*
X0294951Y0113305D01*
X0294228Y0112106D02*
X0292141Y0112106D01*
X0292141Y0110908D02*
X0294228Y0110908D01*
X0295137Y0109709D02*
X0292141Y0109709D01*
X0292141Y0108511D02*
X0310933Y0108511D01*
X0311173Y0109709D02*
X0298063Y0109709D01*
X0298249Y0113305D02*
X0300126Y0113305D01*
X0299600Y0114503D02*
X0299600Y0114503D01*
X0299600Y0115702D02*
X0299600Y0115702D01*
X0299600Y0116900D02*
X0299600Y0116900D01*
X0299600Y0118099D02*
X0299600Y0118099D01*
X0292141Y0122893D02*
X0316228Y0122893D01*
X0316737Y0124091D02*
X0311513Y0124091D01*
X0311130Y0123933D02*
X0312111Y0124339D01*
X0312861Y0125089D01*
X0313267Y0126070D01*
X0313267Y0127130D01*
X0312861Y0128111D01*
X0312111Y0128861D01*
X0311130Y0129267D01*
X0310070Y0129267D01*
X0309089Y0128861D01*
X0308339Y0128111D01*
X0307933Y0127130D01*
X0307933Y0126070D01*
X0308339Y0125089D01*
X0309089Y0124339D01*
X0310070Y0123933D01*
X0311130Y0123933D01*
X0309687Y0124091D02*
X0292141Y0124091D01*
X0292141Y0125290D02*
X0308256Y0125290D01*
X0307933Y0126488D02*
X0292141Y0126488D01*
X0292141Y0127687D02*
X0308164Y0127687D01*
X0309148Y0128885D02*
X0292972Y0128885D01*
X0292972Y0130084D02*
X0313762Y0130084D01*
X0313228Y0130618D02*
X0314618Y0129228D01*
X0316582Y0129228D01*
X0317413Y0130059D01*
X0320094Y0130059D01*
X0320094Y0128941D01*
X0320792Y0128244D01*
X0325715Y0128244D01*
X0326413Y0128941D01*
X0326413Y0134258D01*
X0325715Y0134956D01*
X0320792Y0134956D01*
X0320094Y0134258D01*
X0320094Y0133141D01*
X0317413Y0133141D01*
X0316582Y0133972D01*
X0314618Y0133972D01*
X0313228Y0132582D01*
X0313228Y0130618D01*
X0313228Y0131282D02*
X0305974Y0131282D01*
X0306111Y0131339D02*
X0306861Y0132089D01*
X0307267Y0133070D01*
X0307267Y0134130D01*
X0306861Y0135111D01*
X0306111Y0135861D01*
X0305130Y0136267D01*
X0304070Y0136267D01*
X0303089Y0135861D01*
X0302339Y0135111D01*
X0301933Y0134130D01*
X0301933Y0133070D01*
X0302339Y0132089D01*
X0303089Y0131339D01*
X0304070Y0130933D01*
X0305130Y0130933D01*
X0306111Y0131339D01*
X0307023Y0132481D02*
X0313228Y0132481D01*
X0314325Y0133679D02*
X0307267Y0133679D01*
X0306957Y0134878D02*
X0320714Y0134878D01*
X0320094Y0133679D02*
X0316875Y0133679D01*
X0320151Y0128885D02*
X0312052Y0128885D01*
X0313036Y0127687D02*
X0340334Y0127687D01*
X0339136Y0128885D02*
X0333049Y0128885D01*
X0326844Y0128885D02*
X0326356Y0128885D01*
X0326413Y0130084D02*
X0326787Y0130084D01*
X0326787Y0131282D02*
X0326413Y0131282D01*
X0326413Y0132481D02*
X0326787Y0132481D01*
X0326787Y0133679D02*
X0326413Y0133679D01*
X0325793Y0134878D02*
X0327407Y0134878D01*
X0332486Y0134878D02*
X0369909Y0134878D01*
X0369909Y0136076D02*
X0305590Y0136076D01*
X0303610Y0136076D02*
X0287590Y0136076D01*
X0287130Y0136267D02*
X0286070Y0136267D01*
X0285089Y0135861D01*
X0284339Y0135111D01*
X0283933Y0134130D01*
X0283933Y0133070D01*
X0284339Y0132089D01*
X0285089Y0131339D01*
X0286070Y0130933D01*
X0287130Y0130933D01*
X0288111Y0131339D01*
X0288861Y0132089D01*
X0289267Y0133070D01*
X0289267Y0134130D01*
X0288861Y0135111D01*
X0288111Y0135861D01*
X0287130Y0136267D01*
X0285610Y0136076D02*
X0255455Y0136076D01*
X0255455Y0134878D02*
X0259500Y0134878D01*
X0259617Y0134995D02*
X0258867Y0134245D01*
X0258461Y0133264D01*
X0258461Y0132203D01*
X0258867Y0131223D01*
X0259617Y0130473D01*
X0260597Y0130067D01*
X0261658Y0130067D01*
X0262638Y0130473D01*
X0262676Y0130511D01*
X0264598Y0130511D01*
X0264598Y0130040D01*
X0265296Y0129343D01*
X0270613Y0129343D01*
X0271218Y0129948D01*
X0271372Y0129681D01*
X0271630Y0129423D01*
X0271946Y0129240D01*
X0272299Y0129146D01*
X0274263Y0129146D01*
X0274263Y0132117D01*
X0275031Y0132117D01*
X0275031Y0129146D01*
X0276995Y0129146D01*
X0277348Y0129240D01*
X0277664Y0129423D01*
X0277923Y0129681D01*
X0278105Y0129998D01*
X0278200Y0130350D01*
X0278200Y0132117D01*
X0275032Y0132117D01*
X0275032Y0132886D01*
X0278200Y0132886D01*
X0278200Y0134653D01*
X0278105Y0135006D01*
X0277923Y0135322D01*
X0277664Y0135580D01*
X0277348Y0135763D01*
X0276995Y0135857D01*
X0275031Y0135857D01*
X0275031Y0132886D01*
X0274263Y0132886D01*
X0274263Y0135857D01*
X0272299Y0135857D01*
X0271946Y0135763D01*
X0271630Y0135580D01*
X0271372Y0135322D01*
X0271218Y0135056D01*
X0270613Y0135661D01*
X0265296Y0135661D01*
X0264598Y0134963D01*
X0264598Y0134492D01*
X0263141Y0134492D01*
X0262638Y0134995D01*
X0261658Y0135401D01*
X0260597Y0135401D01*
X0259617Y0134995D01*
X0258633Y0133679D02*
X0255455Y0133679D01*
X0255455Y0132481D02*
X0258461Y0132481D01*
X0258842Y0131282D02*
X0255455Y0131282D01*
X0255455Y0130084D02*
X0260556Y0130084D01*
X0261699Y0130084D02*
X0264598Y0130084D01*
X0264598Y0134878D02*
X0262755Y0134878D01*
X0255455Y0137275D02*
X0369909Y0137275D01*
X0369909Y0138473D02*
X0368358Y0138473D01*
X0367102Y0138473D02*
X0255455Y0138473D01*
X0255455Y0139672D02*
X0355489Y0139672D01*
X0354543Y0140870D02*
X0255455Y0140870D01*
X0255455Y0142069D02*
X0354543Y0142069D01*
X0355228Y0143268D02*
X0255455Y0143268D01*
X0255455Y0144466D02*
X0361602Y0144466D01*
X0360404Y0143268D02*
X0358601Y0143268D01*
X0362364Y0140870D02*
X0365063Y0140870D01*
X0365245Y0142069D02*
X0363563Y0142069D01*
X0364761Y0143268D02*
X0366126Y0143268D01*
X0365960Y0144466D02*
X0369909Y0144466D01*
X0369909Y0143268D02*
X0369334Y0143268D01*
X0369909Y0145665D02*
X0367158Y0145665D01*
X0369532Y0146863D02*
X0369909Y0146863D01*
X0363999Y0146863D02*
X0255455Y0146863D01*
X0255455Y0145665D02*
X0362801Y0145665D01*
X0364793Y0151657D02*
X0344885Y0151657D01*
X0342063Y0151657D02*
X0339885Y0151657D01*
X0340846Y0152856D02*
X0341102Y0152856D01*
X0341102Y0154054D02*
X0340846Y0154054D01*
X0340175Y0155253D02*
X0341773Y0155253D01*
X0340015Y0156451D02*
X0346710Y0156451D01*
X0345543Y0157650D02*
X0340015Y0157650D01*
X0340015Y0158848D02*
X0345543Y0158848D01*
X0345175Y0155253D02*
X0349084Y0155253D01*
X0336933Y0156451D02*
X0255455Y0156451D01*
X0255455Y0155253D02*
X0336773Y0155253D01*
X0336102Y0154054D02*
X0255455Y0154054D01*
X0255455Y0152856D02*
X0336102Y0152856D01*
X0337063Y0151657D02*
X0334212Y0151657D01*
X0331618Y0151657D02*
X0255455Y0151657D01*
X0255455Y0150459D02*
X0330543Y0150459D01*
X0330543Y0149260D02*
X0255455Y0149260D01*
X0255455Y0148062D02*
X0331099Y0148062D01*
X0336933Y0157650D02*
X0256319Y0157650D01*
X0257287Y0158848D02*
X0336933Y0158848D01*
X0336933Y0160047D02*
X0257287Y0160047D01*
X0252543Y0160047D02*
X0241595Y0160047D01*
X0240397Y0158848D02*
X0252374Y0158848D01*
X0252374Y0157650D02*
X0239558Y0157650D01*
X0239558Y0156451D02*
X0246680Y0156451D01*
X0246339Y0156111D02*
X0247089Y0156861D01*
X0248070Y0157267D01*
X0249130Y0157267D01*
X0250111Y0156861D01*
X0250861Y0156111D01*
X0251267Y0155130D01*
X0251267Y0154070D01*
X0250861Y0153089D01*
X0250111Y0152339D01*
X0249130Y0151933D01*
X0248070Y0151933D01*
X0247089Y0152339D01*
X0246339Y0153089D01*
X0245933Y0154070D01*
X0245933Y0155130D01*
X0246339Y0156111D01*
X0245984Y0155253D02*
X0239558Y0155253D01*
X0239558Y0154054D02*
X0245939Y0154054D01*
X0246573Y0152856D02*
X0239558Y0152856D01*
X0239558Y0151657D02*
X0246778Y0151657D01*
X0246157Y0150459D02*
X0239558Y0150459D01*
X0239558Y0149260D02*
X0246157Y0149260D01*
X0249129Y0149260D02*
X0249898Y0149260D01*
X0249898Y0150459D02*
X0249129Y0150459D01*
X0249129Y0151657D02*
X0249898Y0151657D01*
X0250627Y0152856D02*
X0252374Y0152856D01*
X0252374Y0154054D02*
X0251261Y0154054D01*
X0251216Y0155253D02*
X0252374Y0155253D01*
X0252374Y0156451D02*
X0250520Y0156451D01*
X0252248Y0151657D02*
X0252374Y0151657D01*
X0249129Y0148062D02*
X0239558Y0148062D01*
X0239558Y0146863D02*
X0246157Y0146863D01*
X0246243Y0145665D02*
X0239558Y0145665D01*
X0239558Y0144466D02*
X0246522Y0144466D01*
X0246354Y0143268D02*
X0239558Y0143268D01*
X0239558Y0142069D02*
X0246354Y0142069D01*
X0246354Y0140870D02*
X0239558Y0140870D01*
X0239558Y0139672D02*
X0246354Y0139672D01*
X0246862Y0138473D02*
X0239558Y0138473D01*
X0239558Y0137275D02*
X0247523Y0137275D01*
X0247248Y0136076D02*
X0238570Y0136076D01*
X0237372Y0134878D02*
X0247327Y0134878D01*
X0248064Y0133679D02*
X0236173Y0133679D01*
X0234975Y0132481D02*
X0252374Y0132481D01*
X0252374Y0133679D02*
X0251766Y0133679D01*
X0255455Y0128885D02*
X0288228Y0128885D01*
X0288228Y0130084D02*
X0278129Y0130084D01*
X0278200Y0131282D02*
X0285226Y0131282D01*
X0284177Y0132481D02*
X0275032Y0132481D01*
X0275031Y0133679D02*
X0274263Y0133679D01*
X0274263Y0134878D02*
X0275031Y0134878D01*
X0278140Y0134878D02*
X0284243Y0134878D01*
X0283933Y0133679D02*
X0278200Y0133679D01*
X0275031Y0131282D02*
X0274263Y0131282D01*
X0274263Y0130084D02*
X0275031Y0130084D01*
X0279228Y0126488D02*
X0255455Y0126488D01*
X0255455Y0125290D02*
X0279228Y0125290D01*
X0279755Y0124091D02*
X0255455Y0124091D01*
X0255455Y0122893D02*
X0277192Y0122893D01*
X0277089Y0122824D02*
X0276691Y0122426D01*
X0276377Y0121957D01*
X0276161Y0121435D01*
X0276051Y0120882D01*
X0276051Y0120600D01*
X0278915Y0120600D01*
X0278915Y0120600D01*
X0278915Y0123464D01*
X0278633Y0123464D01*
X0278080Y0123354D01*
X0277558Y0123138D01*
X0277089Y0122824D01*
X0276269Y0121694D02*
X0255455Y0121694D01*
X0255455Y0120496D02*
X0276051Y0120496D01*
X0276051Y0120600D02*
X0276051Y0120318D01*
X0276161Y0119765D01*
X0276377Y0119243D01*
X0276691Y0118774D01*
X0277089Y0118376D01*
X0277558Y0118062D01*
X0278080Y0117846D01*
X0278633Y0117736D01*
X0278915Y0117736D01*
X0278915Y0120600D01*
X0278915Y0120600D01*
X0276051Y0120600D01*
X0276355Y0119297D02*
X0255455Y0119297D01*
X0255455Y0118099D02*
X0277504Y0118099D01*
X0278915Y0118099D02*
X0278915Y0118099D01*
X0278915Y0119297D02*
X0278915Y0119297D01*
X0278915Y0120496D02*
X0278915Y0120496D01*
X0278915Y0121694D02*
X0278915Y0121694D01*
X0278915Y0122893D02*
X0278915Y0122893D01*
X0283445Y0124091D02*
X0285755Y0124091D01*
X0285228Y0125290D02*
X0283972Y0125290D01*
X0283972Y0126488D02*
X0285228Y0126488D01*
X0286333Y0127687D02*
X0282867Y0127687D01*
X0280333Y0127687D02*
X0255455Y0127687D01*
X0252374Y0126488D02*
X0220395Y0126488D01*
X0221294Y0125290D02*
X0237044Y0125290D01*
X0237041Y0125287D02*
X0236858Y0124970D01*
X0236764Y0124617D01*
X0236764Y0121079D01*
X0239932Y0121079D01*
X0239932Y0125822D01*
X0237969Y0125822D01*
X0237616Y0125727D01*
X0237299Y0125545D01*
X0237041Y0125287D01*
X0236764Y0124091D02*
X0221294Y0124091D01*
X0221294Y0122830D02*
X0218126Y0122830D01*
X0218126Y0119858D01*
X0220090Y0119858D01*
X0220443Y0119953D01*
X0220759Y0120135D01*
X0221017Y0120394D01*
X0221200Y0120710D01*
X0221294Y0121063D01*
X0221294Y0122830D01*
X0221294Y0121694D02*
X0236764Y0121694D01*
X0236764Y0122893D02*
X0218126Y0122893D01*
X0218126Y0124091D02*
X0217357Y0124091D01*
X0217357Y0125290D02*
X0218126Y0125290D01*
X0218126Y0126488D02*
X0217357Y0126488D01*
X0217357Y0121694D02*
X0218126Y0121694D01*
X0218126Y0120496D02*
X0217357Y0120496D01*
X0218707Y0118058D02*
X0215201Y0118058D01*
X0214504Y0117361D01*
X0214504Y0112359D01*
X0215201Y0111661D01*
X0218707Y0111661D01*
X0219405Y0112359D01*
X0219405Y0112869D01*
X0225999Y0112869D01*
X0226063Y0112933D01*
X0226445Y0112933D01*
X0227426Y0113339D01*
X0228176Y0114089D01*
X0228582Y0115070D01*
X0228582Y0116130D01*
X0228176Y0117111D01*
X0227426Y0117861D01*
X0226445Y0118267D01*
X0225384Y0118267D01*
X0224404Y0117861D01*
X0223654Y0117111D01*
X0223546Y0116850D01*
X0219405Y0116850D01*
X0219405Y0117361D01*
X0218707Y0118058D01*
X0219405Y0116900D02*
X0223567Y0116900D01*
X0224979Y0118099D02*
X0213905Y0118099D01*
X0213905Y0119297D02*
X0236764Y0119297D01*
X0236764Y0119917D02*
X0236764Y0116378D01*
X0236858Y0116025D01*
X0237041Y0115709D01*
X0237299Y0115450D01*
X0237616Y0115268D01*
X0237969Y0115173D01*
X0239932Y0115173D01*
X0239932Y0119916D01*
X0241094Y0119916D01*
X0241094Y0115173D01*
X0243058Y0115173D01*
X0243411Y0115268D01*
X0243727Y0115450D01*
X0243986Y0115709D01*
X0244168Y0116025D01*
X0244263Y0116378D01*
X0244263Y0119917D01*
X0241095Y0119917D01*
X0241095Y0121079D01*
X0244263Y0121079D01*
X0244263Y0124617D01*
X0244168Y0124970D01*
X0243986Y0125287D01*
X0243727Y0125545D01*
X0243411Y0125727D01*
X0243058Y0125822D01*
X0241094Y0125822D01*
X0241094Y0121079D01*
X0239932Y0121079D01*
X0239932Y0119917D01*
X0236764Y0119917D01*
X0236764Y0118099D02*
X0226851Y0118099D01*
X0228263Y0116900D02*
X0236764Y0116900D01*
X0237048Y0115702D02*
X0228582Y0115702D01*
X0228347Y0114503D02*
X0237560Y0114503D01*
X0236961Y0113305D02*
X0227343Y0113305D01*
X0219152Y0112106D02*
X0236961Y0112106D01*
X0239932Y0115702D02*
X0241094Y0115702D01*
X0241094Y0116900D02*
X0239932Y0116900D01*
X0239932Y0118099D02*
X0241094Y0118099D01*
X0241094Y0119297D02*
X0239932Y0119297D01*
X0239932Y0120496D02*
X0221076Y0120496D01*
X0214407Y0120496D02*
X0214148Y0120496D01*
X0214365Y0116900D02*
X0214504Y0116900D01*
X0214504Y0115702D02*
X0214365Y0115702D01*
X0214365Y0114503D02*
X0214504Y0114503D01*
X0214504Y0113305D02*
X0214365Y0113305D01*
X0214113Y0112106D02*
X0214757Y0112106D01*
X0203172Y0113305D02*
X0198974Y0113305D01*
X0199287Y0114503D02*
X0202168Y0114503D01*
X0201933Y0115702D02*
X0199167Y0115702D01*
X0198455Y0116900D02*
X0202252Y0116900D01*
X0203325Y0119297D02*
X0209924Y0119297D01*
X0207950Y0120496D02*
X0204344Y0120496D01*
X0195374Y0120496D02*
X0168267Y0120496D01*
X0168111Y0120339D02*
X0168861Y0121089D01*
X0169267Y0122070D01*
X0169267Y0123130D01*
X0168861Y0124111D01*
X0168111Y0124861D01*
X0167130Y0125267D01*
X0166070Y0125267D01*
X0165089Y0124861D01*
X0164339Y0124111D01*
X0163933Y0123130D01*
X0163933Y0122070D01*
X0164339Y0121089D01*
X0165089Y0120339D01*
X0166070Y0119933D01*
X0167130Y0119933D01*
X0168111Y0120339D01*
X0169112Y0121694D02*
X0195374Y0121694D01*
X0195374Y0122893D02*
X0169267Y0122893D01*
X0168869Y0124091D02*
X0195374Y0124091D01*
X0195374Y0125290D02*
X0075373Y0125290D01*
X0075373Y0124885D02*
X0074922Y0123796D01*
X0074089Y0122963D01*
X0073000Y0122512D01*
X0071822Y0122512D01*
X0070733Y0122963D01*
X0069900Y0123796D01*
X0069449Y0124885D01*
X0069449Y0126063D01*
X0069900Y0127152D01*
X0070733Y0127985D01*
X0071822Y0128436D01*
X0073000Y0128436D01*
X0074089Y0127985D01*
X0074922Y0127152D01*
X0075373Y0126063D01*
X0075373Y0124885D01*
X0075045Y0124091D02*
X0164331Y0124091D01*
X0163933Y0122893D02*
X0073920Y0122893D01*
X0070902Y0122893D02*
X0058499Y0122893D01*
X0058499Y0124091D02*
X0069777Y0124091D01*
X0069449Y0125290D02*
X0058499Y0125290D01*
X0058499Y0126488D02*
X0069625Y0126488D01*
X0070435Y0127687D02*
X0058499Y0127687D01*
X0058499Y0128885D02*
X0148933Y0128885D01*
X0148933Y0129130D02*
X0148933Y0128070D01*
X0149339Y0127089D01*
X0150089Y0126339D01*
X0151070Y0125933D01*
X0152130Y0125933D01*
X0153111Y0126339D01*
X0153861Y0127089D01*
X0154267Y0128070D01*
X0154267Y0129130D01*
X0153861Y0130111D01*
X0153111Y0130861D01*
X0152130Y0131267D01*
X0151070Y0131267D01*
X0150089Y0130861D01*
X0149339Y0130111D01*
X0148933Y0129130D01*
X0149328Y0130084D02*
X0058499Y0130084D01*
X0058499Y0131282D02*
X0196419Y0131282D01*
X0195374Y0130084D02*
X0153872Y0130084D01*
X0154267Y0128885D02*
X0195374Y0128885D01*
X0195374Y0127687D02*
X0154108Y0127687D01*
X0153260Y0126488D02*
X0195374Y0126488D01*
X0195374Y0119297D02*
X0161267Y0119297D01*
X0161267Y0119070D02*
X0160861Y0118089D01*
X0160111Y0117339D01*
X0159130Y0116933D01*
X0158070Y0116933D01*
X0157089Y0117339D01*
X0156339Y0118089D01*
X0155933Y0119070D01*
X0155933Y0120130D01*
X0156339Y0121111D01*
X0157089Y0121861D01*
X0158070Y0122267D01*
X0159130Y0122267D01*
X0160111Y0121861D01*
X0160861Y0121111D01*
X0161267Y0120130D01*
X0161267Y0119070D01*
X0160865Y0118099D02*
X0195374Y0118099D01*
X0195374Y0116900D02*
X0106287Y0116900D01*
X0105770Y0118099D02*
X0156335Y0118099D01*
X0155933Y0119297D02*
X0058499Y0119297D01*
X0058499Y0118099D02*
X0080334Y0118099D01*
X0080339Y0118111D02*
X0079933Y0117130D01*
X0079933Y0116070D01*
X0080339Y0115089D01*
X0081089Y0114339D01*
X0082070Y0113933D01*
X0083130Y0113933D01*
X0084111Y0114339D01*
X0084861Y0115089D01*
X0085267Y0116070D01*
X0085267Y0117130D01*
X0084861Y0118111D01*
X0084111Y0118861D01*
X0083130Y0119267D01*
X0082070Y0119267D01*
X0081089Y0118861D01*
X0080339Y0118111D01*
X0079933Y0116900D02*
X0058499Y0116900D01*
X0058499Y0115702D02*
X0075663Y0115702D01*
X0074543Y0114503D02*
X0058499Y0114503D01*
X0058499Y0113305D02*
X0074543Y0113305D01*
X0074220Y0112106D02*
X0075055Y0112106D01*
X0075128Y0110908D02*
X0079429Y0110908D01*
X0080627Y0109709D02*
X0075373Y0109709D01*
X0075114Y0108511D02*
X0081826Y0108511D01*
X0083024Y0107312D02*
X0074186Y0107312D01*
X0070636Y0107312D02*
X0070058Y0107312D01*
X0070058Y0106114D02*
X0178842Y0106114D01*
X0178051Y0104915D02*
X0070058Y0104915D01*
X0070058Y0103717D02*
X0177933Y0103717D01*
X0178410Y0102518D02*
X0069704Y0102518D01*
X0058673Y0094129D02*
X0058499Y0094129D01*
X0058499Y0092930D02*
X0059963Y0092930D01*
X0058499Y0086937D02*
X0090074Y0086937D01*
X0088875Y0085739D02*
X0058499Y0085739D01*
X0058499Y0084540D02*
X0087677Y0084540D01*
X0086478Y0083342D02*
X0058499Y0083342D01*
X0058499Y0082143D02*
X0085280Y0082143D01*
X0084081Y0080945D02*
X0058499Y0080945D01*
X0058499Y0079746D02*
X0083374Y0079746D01*
X0083374Y0078548D02*
X0058499Y0078548D01*
X0058499Y0077349D02*
X0083374Y0077349D01*
X0083374Y0076151D02*
X0058499Y0076151D01*
X0058499Y0074952D02*
X0077681Y0074952D01*
X0077339Y0074611D02*
X0078089Y0075361D01*
X0079070Y0075767D01*
X0080130Y0075767D01*
X0081111Y0075361D01*
X0081861Y0074611D01*
X0082267Y0073630D01*
X0082267Y0072570D01*
X0081861Y0071589D01*
X0081111Y0070839D01*
X0080130Y0070433D01*
X0079070Y0070433D01*
X0078089Y0070839D01*
X0077339Y0071589D01*
X0076933Y0072570D01*
X0076933Y0073630D01*
X0077339Y0074611D01*
X0076984Y0073754D02*
X0064069Y0073754D01*
X0066043Y0072555D02*
X0076939Y0072555D01*
X0077572Y0071357D02*
X0066971Y0071357D01*
X0067468Y0070158D02*
X0083374Y0070158D01*
X0083374Y0068960D02*
X0067531Y0068960D01*
X0067413Y0067761D02*
X0083374Y0067761D01*
X0083374Y0066563D02*
X0066917Y0066563D01*
X0065912Y0065364D02*
X0083374Y0065364D01*
X0083374Y0064166D02*
X0063753Y0064166D01*
X0061447Y0064166D02*
X0058499Y0064166D01*
X0058499Y0065364D02*
X0059288Y0065364D01*
X0058499Y0062967D02*
X0083374Y0062967D01*
X0083374Y0061769D02*
X0058499Y0061769D01*
X0058499Y0060570D02*
X0082543Y0060570D01*
X0082543Y0059372D02*
X0058499Y0059372D01*
X0058499Y0058173D02*
X0082988Y0058173D01*
X0086842Y0058173D02*
X0092409Y0058173D01*
X0092409Y0056975D02*
X0058499Y0056975D01*
X0058499Y0055776D02*
X0092409Y0055776D01*
X0092409Y0054578D02*
X0058499Y0054578D01*
X0058499Y0053379D02*
X0092409Y0053379D01*
X0092652Y0052181D02*
X0058510Y0052181D01*
X0058589Y0050982D02*
X0093292Y0050982D01*
X0094863Y0049784D02*
X0058812Y0049784D01*
X0087287Y0059372D02*
X0092409Y0059372D01*
X0092466Y0060570D02*
X0087287Y0060570D01*
X0086455Y0061769D02*
X0092962Y0061769D01*
X0094041Y0062967D02*
X0086455Y0062967D01*
X0086455Y0064166D02*
X0095059Y0064166D01*
X0093987Y0065364D02*
X0086455Y0065364D01*
X0086455Y0066563D02*
X0093559Y0066563D01*
X0093559Y0067761D02*
X0086455Y0067761D01*
X0086455Y0068960D02*
X0093559Y0068960D01*
X0093559Y0070158D02*
X0086455Y0070158D01*
X0083374Y0071357D02*
X0081628Y0071357D01*
X0082261Y0072555D02*
X0083374Y0072555D01*
X0083374Y0073754D02*
X0082216Y0073754D01*
X0081519Y0074952D02*
X0083374Y0074952D01*
X0061131Y0073754D02*
X0058499Y0073754D01*
X0058499Y0072555D02*
X0059157Y0072555D01*
X0058499Y0110908D02*
X0069694Y0110908D01*
X0069449Y0109709D02*
X0069246Y0109709D01*
X0069370Y0109638D02*
X0069370Y0109638D01*
X0070602Y0112106D02*
X0058499Y0112106D01*
X0058499Y0120496D02*
X0156084Y0120496D01*
X0156923Y0121694D02*
X0058499Y0121694D01*
X0074387Y0127687D02*
X0149092Y0127687D01*
X0149940Y0126488D02*
X0075197Y0126488D01*
X0084866Y0118099D02*
X0102060Y0118099D01*
X0101543Y0116900D02*
X0085267Y0116900D01*
X0085115Y0115702D02*
X0101543Y0115702D01*
X0102658Y0114503D02*
X0084275Y0114503D01*
X0082587Y0112106D02*
X0147752Y0112106D01*
X0147228Y0110908D02*
X0083786Y0110908D01*
X0081389Y0113305D02*
X0105032Y0113305D01*
X0080925Y0114503D02*
X0080190Y0114503D01*
X0080085Y0115702D02*
X0078167Y0115702D01*
X0085946Y0137275D02*
X0092514Y0137275D01*
X0090930Y0138473D02*
X0087530Y0138473D01*
X0088174Y0139672D02*
X0090286Y0139672D01*
X0090039Y0140870D02*
X0088420Y0140870D01*
X0088420Y0142069D02*
X0090039Y0142069D01*
X0090039Y0143268D02*
X0088420Y0143268D01*
X0088420Y0144466D02*
X0090039Y0144466D01*
X0090039Y0145665D02*
X0088420Y0145665D01*
X0088420Y0146863D02*
X0090039Y0146863D01*
X0090092Y0148062D02*
X0088367Y0148062D01*
X0087871Y0149260D02*
X0090589Y0149260D01*
X0091662Y0150459D02*
X0086798Y0150459D01*
X0064630Y0142069D02*
X0063830Y0142069D01*
X0063830Y0140870D02*
X0064630Y0140870D01*
X0064630Y0139672D02*
X0063830Y0139672D01*
X0063830Y0138473D02*
X0064630Y0138473D01*
X0064630Y0137275D02*
X0063830Y0137275D01*
X0062073Y0137275D02*
X0058499Y0137275D01*
X0058499Y0138473D02*
X0060715Y0138473D01*
X0060081Y0139672D02*
X0058499Y0139672D01*
X0058499Y0140870D02*
X0059843Y0140870D01*
X0059843Y0142069D02*
X0058499Y0142069D01*
X0058499Y0143268D02*
X0059843Y0143268D01*
X0099419Y0137275D02*
X0102514Y0137275D01*
X0119570Y0136076D02*
X0224248Y0136076D01*
X0224308Y0137275D02*
X0120769Y0137275D01*
X0121967Y0138473D02*
X0136687Y0138473D01*
X0136933Y0138228D02*
X0138897Y0138228D01*
X0139728Y0139059D01*
X0189101Y0139059D01*
X0189933Y0138228D01*
X0191897Y0138228D01*
X0193287Y0139618D01*
X0193287Y0141582D01*
X0191897Y0142972D01*
X0189933Y0142972D01*
X0189101Y0142141D01*
X0139728Y0142141D01*
X0138897Y0142972D01*
X0136933Y0142972D01*
X0135543Y0141582D01*
X0135543Y0139618D01*
X0136933Y0138228D01*
X0135543Y0139672D02*
X0122955Y0139672D01*
X0122955Y0140870D02*
X0135543Y0140870D01*
X0136030Y0142069D02*
X0122955Y0142069D01*
X0122955Y0143268D02*
X0131893Y0143268D01*
X0131543Y0143618D02*
X0132933Y0142228D01*
X0134897Y0142228D01*
X0135728Y0143059D01*
X0186101Y0143059D01*
X0186933Y0142228D01*
X0188897Y0142228D01*
X0190287Y0143618D01*
X0190287Y0145582D01*
X0188897Y0146972D01*
X0186933Y0146972D01*
X0186101Y0146141D01*
X0135728Y0146141D01*
X0134897Y0146972D01*
X0132933Y0146972D01*
X0131543Y0145582D01*
X0131543Y0143618D01*
X0131543Y0144466D02*
X0122955Y0144466D01*
X0122955Y0145665D02*
X0128496Y0145665D01*
X0127543Y0146863D02*
X0126532Y0146863D01*
X0126787Y0148062D02*
X0127543Y0148062D01*
X0127754Y0149260D02*
X0128221Y0149260D01*
X0128952Y0150459D02*
X0180702Y0150459D01*
X0183128Y0150459D02*
X0183420Y0150459D01*
X0187287Y0148062D02*
X0198275Y0148062D01*
X0190204Y0145665D02*
X0223157Y0145665D01*
X0223157Y0146863D02*
X0189006Y0146863D01*
X0186824Y0146863D02*
X0186532Y0146863D01*
X0183298Y0146863D02*
X0135006Y0146863D01*
X0132824Y0146863D02*
X0132287Y0146863D01*
X0131625Y0145665D02*
X0131334Y0145665D01*
X0139142Y0138473D02*
X0189687Y0138473D01*
X0192142Y0138473D02*
X0223354Y0138473D01*
X0223354Y0139672D02*
X0193287Y0139672D01*
X0193287Y0140870D02*
X0223354Y0140870D01*
X0223354Y0142069D02*
X0192800Y0142069D01*
X0189936Y0143268D02*
X0223354Y0143268D01*
X0223348Y0144466D02*
X0190287Y0144466D01*
X0212942Y0152856D02*
X0221573Y0152856D01*
X0221339Y0153089D02*
X0222089Y0152339D01*
X0223070Y0151933D01*
X0224130Y0151933D01*
X0225111Y0152339D01*
X0225861Y0153089D01*
X0226267Y0154070D01*
X0226267Y0155130D01*
X0225861Y0156111D01*
X0225111Y0156861D01*
X0224130Y0157267D01*
X0223070Y0157267D01*
X0222089Y0156861D01*
X0221339Y0156111D01*
X0220933Y0155130D01*
X0220933Y0154070D01*
X0221339Y0153089D01*
X0220939Y0154054D02*
X0213575Y0154054D01*
X0213531Y0155253D02*
X0220984Y0155253D01*
X0221680Y0156451D02*
X0212835Y0156451D01*
X0208994Y0156451D02*
X0199242Y0156451D01*
X0198044Y0157650D02*
X0236477Y0157650D01*
X0236477Y0158848D02*
X0196845Y0158848D01*
X0195647Y0160047D02*
X0229610Y0160047D01*
X0229039Y0160618D02*
X0230429Y0159228D01*
X0232393Y0159228D01*
X0233783Y0160618D01*
X0233783Y0161793D01*
X0237049Y0165059D01*
X0245553Y0165059D01*
X0247238Y0166744D01*
X0248141Y0167647D01*
X0248141Y0169702D01*
X0248974Y0170047D01*
X0250153Y0171226D01*
X0250791Y0172766D01*
X0250791Y0180434D01*
X0250153Y0181974D01*
X0248974Y0183153D01*
X0247434Y0183791D01*
X0245766Y0183791D01*
X0244226Y0183153D01*
X0243047Y0181974D01*
X0242409Y0180434D01*
X0242409Y0172766D01*
X0243047Y0171226D01*
X0244226Y0170047D01*
X0245059Y0169702D01*
X0245059Y0168923D01*
X0244277Y0168141D01*
X0235773Y0168141D01*
X0234870Y0167238D01*
X0213283Y0167238D01*
X0213283Y0167582D02*
X0211893Y0168972D01*
X0209929Y0168972D01*
X0208539Y0167582D01*
X0208539Y0167141D01*
X0201238Y0167141D01*
X0198519Y0169859D01*
X0198974Y0170047D01*
X0200153Y0171226D01*
X0200791Y0172766D01*
X0200791Y0180434D01*
X0200153Y0181974D01*
X0198974Y0183153D01*
X0197434Y0183791D01*
X0195766Y0183791D01*
X0194226Y0183153D01*
X0193047Y0181974D01*
X0192409Y0180434D01*
X0192409Y0172766D01*
X0193047Y0171226D01*
X0194226Y0170047D01*
X0195059Y0169702D01*
X0195059Y0168962D01*
X0195962Y0168059D01*
X0199962Y0164059D01*
X0210238Y0164059D01*
X0210407Y0164228D01*
X0211893Y0164228D01*
X0213283Y0165618D01*
X0213283Y0167582D01*
X0212429Y0168436D02*
X0244573Y0168436D01*
X0245059Y0169635D02*
X0238482Y0169635D01*
X0238284Y0169534D02*
X0238899Y0169848D01*
X0239458Y0170253D01*
X0239947Y0170742D01*
X0240352Y0171300D01*
X0240666Y0171916D01*
X0240879Y0172573D01*
X0240987Y0173255D01*
X0240987Y0176200D01*
X0237000Y0176200D01*
X0237000Y0177000D01*
X0236200Y0177000D01*
X0236200Y0183979D01*
X0235573Y0183879D01*
X0234916Y0183666D01*
X0234300Y0183352D01*
X0233742Y0182947D01*
X0233253Y0182458D01*
X0232848Y0181899D01*
X0232534Y0181284D01*
X0232321Y0180627D01*
X0232213Y0179945D01*
X0232213Y0177000D01*
X0236200Y0177000D01*
X0236200Y0176200D01*
X0232213Y0176200D01*
X0232213Y0173255D01*
X0232321Y0172573D01*
X0232534Y0171916D01*
X0232848Y0171300D01*
X0233253Y0170742D01*
X0233742Y0170253D01*
X0234300Y0169848D01*
X0234916Y0169534D01*
X0235573Y0169321D01*
X0236200Y0169221D01*
X0236200Y0176200D01*
X0237000Y0176200D01*
X0237000Y0169221D01*
X0237627Y0169321D01*
X0238284Y0169534D01*
X0237000Y0169635D02*
X0236200Y0169635D01*
X0236200Y0170833D02*
X0237000Y0170833D01*
X0237000Y0172032D02*
X0236200Y0172032D01*
X0236200Y0173230D02*
X0237000Y0173230D01*
X0237000Y0174429D02*
X0236200Y0174429D01*
X0236200Y0175627D02*
X0237000Y0175627D01*
X0237000Y0176826D02*
X0242409Y0176826D01*
X0242409Y0178024D02*
X0240987Y0178024D01*
X0240987Y0177000D02*
X0240987Y0179945D01*
X0240879Y0180627D01*
X0240666Y0181284D01*
X0240352Y0181899D01*
X0239947Y0182458D01*
X0239458Y0182947D01*
X0238899Y0183352D01*
X0238284Y0183666D01*
X0237627Y0183879D01*
X0237000Y0183979D01*
X0237000Y0177000D01*
X0240987Y0177000D01*
X0240987Y0175627D02*
X0242409Y0175627D01*
X0242409Y0174429D02*
X0240987Y0174429D01*
X0240984Y0173230D02*
X0242409Y0173230D01*
X0242714Y0172032D02*
X0240704Y0172032D01*
X0240013Y0170833D02*
X0243440Y0170833D01*
X0248141Y0169635D02*
X0255222Y0169635D01*
X0255766Y0169409D02*
X0257434Y0169409D01*
X0258974Y0170047D01*
X0260153Y0171226D01*
X0260791Y0172766D01*
X0260791Y0180434D01*
X0260153Y0181974D01*
X0258974Y0183153D01*
X0257434Y0183791D01*
X0255766Y0183791D01*
X0254226Y0183153D01*
X0253047Y0181974D01*
X0252409Y0180434D01*
X0252409Y0172766D01*
X0253047Y0171226D01*
X0254226Y0170047D01*
X0255766Y0169409D01*
X0257977Y0169635D02*
X0265222Y0169635D01*
X0265766Y0169409D02*
X0267434Y0169409D01*
X0268974Y0170047D01*
X0270153Y0171226D01*
X0270791Y0172766D01*
X0270791Y0180434D01*
X0270153Y0181974D01*
X0268974Y0183153D01*
X0267434Y0183791D01*
X0265766Y0183791D01*
X0264226Y0183153D01*
X0263047Y0181974D01*
X0262409Y0180434D01*
X0262409Y0172766D01*
X0263047Y0171226D01*
X0264226Y0170047D01*
X0265766Y0169409D01*
X0267977Y0169635D02*
X0275222Y0169635D01*
X0275766Y0169409D02*
X0277434Y0169409D01*
X0278974Y0170047D01*
X0280153Y0171226D01*
X0280791Y0172766D01*
X0280791Y0180434D01*
X0280153Y0181974D01*
X0278974Y0183153D01*
X0277434Y0183791D01*
X0275766Y0183791D01*
X0274226Y0183153D01*
X0273047Y0181974D01*
X0272409Y0180434D01*
X0272409Y0172766D01*
X0273047Y0171226D01*
X0274226Y0170047D01*
X0275766Y0169409D01*
X0277977Y0169635D02*
X0285222Y0169635D01*
X0285766Y0169409D02*
X0287434Y0169409D01*
X0288974Y0170047D01*
X0290153Y0171226D01*
X0290791Y0172766D01*
X0290791Y0180434D01*
X0290153Y0181974D01*
X0288974Y0183153D01*
X0287434Y0183791D01*
X0285766Y0183791D01*
X0284226Y0183153D01*
X0283047Y0181974D01*
X0282409Y0180434D01*
X0282409Y0172766D01*
X0283047Y0171226D01*
X0284226Y0170047D01*
X0285766Y0169409D01*
X0287977Y0169635D02*
X0295222Y0169635D01*
X0295766Y0169409D02*
X0297434Y0169409D01*
X0298974Y0170047D01*
X0300153Y0171226D01*
X0300791Y0172766D01*
X0300791Y0180434D01*
X0300153Y0181974D01*
X0298974Y0183153D01*
X0297434Y0183791D01*
X0295766Y0183791D01*
X0294226Y0183153D01*
X0293047Y0181974D01*
X0292409Y0180434D01*
X0292409Y0172766D01*
X0293047Y0171226D01*
X0294226Y0170047D01*
X0295766Y0169409D01*
X0297977Y0169635D02*
X0305222Y0169635D01*
X0305766Y0169409D02*
X0307434Y0169409D01*
X0308974Y0170047D01*
X0310153Y0171226D01*
X0310791Y0172766D01*
X0310791Y0180434D01*
X0310153Y0181974D01*
X0308974Y0183153D01*
X0307434Y0183791D01*
X0305766Y0183791D01*
X0304226Y0183153D01*
X0303047Y0181974D01*
X0302409Y0180434D01*
X0302409Y0172766D01*
X0303047Y0171226D01*
X0304226Y0170047D01*
X0305766Y0169409D01*
X0307977Y0169635D02*
X0315222Y0169635D01*
X0313440Y0170833D02*
X0309760Y0170833D01*
X0310486Y0172032D02*
X0312714Y0172032D01*
X0312409Y0173230D02*
X0310791Y0173230D01*
X0310791Y0174429D02*
X0312409Y0174429D01*
X0312409Y0175627D02*
X0310791Y0175627D01*
X0310791Y0176826D02*
X0312409Y0176826D01*
X0312409Y0178024D02*
X0310791Y0178024D01*
X0310791Y0179223D02*
X0312409Y0179223D01*
X0312409Y0180421D02*
X0310791Y0180421D01*
X0310299Y0181620D02*
X0312901Y0181620D01*
X0313892Y0182818D02*
X0309308Y0182818D01*
X0303892Y0182818D02*
X0299308Y0182818D01*
X0300299Y0181620D02*
X0302901Y0181620D01*
X0302409Y0180421D02*
X0300791Y0180421D01*
X0300791Y0179223D02*
X0302409Y0179223D01*
X0302409Y0178024D02*
X0300791Y0178024D01*
X0300791Y0176826D02*
X0302409Y0176826D01*
X0302409Y0175627D02*
X0300791Y0175627D01*
X0300791Y0174429D02*
X0302409Y0174429D01*
X0302409Y0173230D02*
X0300791Y0173230D01*
X0300486Y0172032D02*
X0302714Y0172032D01*
X0303440Y0170833D02*
X0299760Y0170833D01*
X0293440Y0170833D02*
X0289760Y0170833D01*
X0290486Y0172032D02*
X0292714Y0172032D01*
X0292409Y0173230D02*
X0290791Y0173230D01*
X0290791Y0174429D02*
X0292409Y0174429D01*
X0292409Y0175627D02*
X0290791Y0175627D01*
X0290791Y0176826D02*
X0292409Y0176826D01*
X0292409Y0178024D02*
X0290791Y0178024D01*
X0290791Y0179223D02*
X0292409Y0179223D01*
X0292409Y0180421D02*
X0290791Y0180421D01*
X0290299Y0181620D02*
X0292901Y0181620D01*
X0293892Y0182818D02*
X0289308Y0182818D01*
X0283892Y0182818D02*
X0279308Y0182818D01*
X0280299Y0181620D02*
X0282901Y0181620D01*
X0282409Y0180421D02*
X0280791Y0180421D01*
X0280791Y0179223D02*
X0282409Y0179223D01*
X0282409Y0178024D02*
X0280791Y0178024D01*
X0280791Y0176826D02*
X0282409Y0176826D01*
X0282409Y0175627D02*
X0280791Y0175627D01*
X0280791Y0174429D02*
X0282409Y0174429D01*
X0282409Y0173230D02*
X0280791Y0173230D01*
X0280486Y0172032D02*
X0282714Y0172032D01*
X0283440Y0170833D02*
X0279760Y0170833D01*
X0273440Y0170833D02*
X0269760Y0170833D01*
X0270486Y0172032D02*
X0272714Y0172032D01*
X0272409Y0173230D02*
X0270791Y0173230D01*
X0270791Y0174429D02*
X0272409Y0174429D01*
X0272409Y0175627D02*
X0270791Y0175627D01*
X0270791Y0176826D02*
X0272409Y0176826D01*
X0272409Y0178024D02*
X0270791Y0178024D01*
X0270791Y0179223D02*
X0272409Y0179223D01*
X0272409Y0180421D02*
X0270791Y0180421D01*
X0270299Y0181620D02*
X0272901Y0181620D01*
X0273892Y0182818D02*
X0269308Y0182818D01*
X0263892Y0182818D02*
X0259308Y0182818D01*
X0260299Y0181620D02*
X0262901Y0181620D01*
X0262409Y0180421D02*
X0260791Y0180421D01*
X0260791Y0179223D02*
X0262409Y0179223D01*
X0262409Y0178024D02*
X0260791Y0178024D01*
X0260791Y0176826D02*
X0262409Y0176826D01*
X0262409Y0175627D02*
X0260791Y0175627D01*
X0260791Y0174429D02*
X0262409Y0174429D01*
X0262409Y0173230D02*
X0260791Y0173230D01*
X0260486Y0172032D02*
X0262714Y0172032D01*
X0263440Y0170833D02*
X0259760Y0170833D01*
X0253440Y0170833D02*
X0249760Y0170833D01*
X0250486Y0172032D02*
X0252714Y0172032D01*
X0252409Y0173230D02*
X0250791Y0173230D01*
X0250791Y0174429D02*
X0252409Y0174429D01*
X0252409Y0175627D02*
X0250791Y0175627D01*
X0250791Y0176826D02*
X0252409Y0176826D01*
X0252409Y0178024D02*
X0250791Y0178024D01*
X0250791Y0179223D02*
X0252409Y0179223D01*
X0252409Y0180421D02*
X0250791Y0180421D01*
X0250299Y0181620D02*
X0252901Y0181620D01*
X0253892Y0182818D02*
X0249308Y0182818D01*
X0243892Y0182818D02*
X0239586Y0182818D01*
X0240495Y0181620D02*
X0242901Y0181620D01*
X0242409Y0180421D02*
X0240912Y0180421D01*
X0240987Y0179223D02*
X0242409Y0179223D01*
X0237000Y0179223D02*
X0236200Y0179223D01*
X0236200Y0180421D02*
X0237000Y0180421D01*
X0237000Y0181620D02*
X0236200Y0181620D01*
X0236200Y0182818D02*
X0237000Y0182818D01*
X0233614Y0182818D02*
X0229308Y0182818D01*
X0228974Y0183153D02*
X0227434Y0183791D01*
X0225766Y0183791D01*
X0224226Y0183153D01*
X0223047Y0181974D01*
X0222409Y0180434D01*
X0222409Y0172766D01*
X0223047Y0171226D01*
X0224226Y0170047D01*
X0225766Y0169409D01*
X0227434Y0169409D01*
X0228974Y0170047D01*
X0230153Y0171226D01*
X0230791Y0172766D01*
X0230791Y0180434D01*
X0230153Y0181974D01*
X0228974Y0183153D01*
X0230299Y0181620D02*
X0232705Y0181620D01*
X0232288Y0180421D02*
X0230791Y0180421D01*
X0230791Y0179223D02*
X0232213Y0179223D01*
X0232213Y0178024D02*
X0230791Y0178024D01*
X0230791Y0176826D02*
X0236200Y0176826D01*
X0236200Y0178024D02*
X0237000Y0178024D01*
X0232213Y0175627D02*
X0230791Y0175627D01*
X0230791Y0174429D02*
X0232213Y0174429D01*
X0232216Y0173230D02*
X0230791Y0173230D01*
X0230486Y0172032D02*
X0232496Y0172032D01*
X0233187Y0170833D02*
X0229760Y0170833D01*
X0227977Y0169635D02*
X0234718Y0169635D01*
X0234870Y0167238D02*
X0231604Y0163972D01*
X0230429Y0163972D01*
X0229039Y0162582D01*
X0229039Y0160618D01*
X0229039Y0161245D02*
X0194448Y0161245D01*
X0193250Y0162444D02*
X0229039Y0162444D01*
X0230099Y0163642D02*
X0192051Y0163642D01*
X0190853Y0164841D02*
X0199181Y0164841D01*
X0197982Y0166039D02*
X0183204Y0166039D01*
X0183283Y0167238D02*
X0196784Y0167238D01*
X0195585Y0168436D02*
X0182929Y0168436D01*
X0184226Y0170047D02*
X0185766Y0169409D01*
X0187434Y0169409D01*
X0188974Y0170047D01*
X0190153Y0171226D01*
X0190791Y0172766D01*
X0190791Y0180434D01*
X0190153Y0181974D01*
X0188974Y0183153D01*
X0187434Y0183791D01*
X0185766Y0183791D01*
X0184226Y0183153D01*
X0183047Y0181974D01*
X0182409Y0180434D01*
X0182409Y0172766D01*
X0183047Y0171226D01*
X0184226Y0170047D01*
X0185222Y0169635D02*
X0177977Y0169635D01*
X0177434Y0169409D02*
X0178974Y0170047D01*
X0180153Y0171226D01*
X0180791Y0172766D01*
X0180791Y0180434D01*
X0180153Y0181974D01*
X0178974Y0183153D01*
X0177434Y0183791D01*
X0175766Y0183791D01*
X0174226Y0183153D01*
X0173047Y0181974D01*
X0172409Y0180434D01*
X0172409Y0172766D01*
X0173047Y0171226D01*
X0174226Y0170047D01*
X0175766Y0169409D01*
X0177434Y0169409D01*
X0175222Y0169635D02*
X0168141Y0169635D01*
X0169760Y0170833D02*
X0173440Y0170833D01*
X0172714Y0172032D02*
X0170486Y0172032D01*
X0170791Y0173230D02*
X0172409Y0173230D01*
X0172409Y0174429D02*
X0170791Y0174429D01*
X0170791Y0175627D02*
X0172409Y0175627D01*
X0172409Y0176826D02*
X0170791Y0176826D01*
X0170791Y0178024D02*
X0172409Y0178024D01*
X0172409Y0179223D02*
X0170791Y0179223D01*
X0170791Y0180421D02*
X0172409Y0180421D01*
X0172901Y0181620D02*
X0170299Y0181620D01*
X0169308Y0182818D02*
X0173892Y0182818D01*
X0179308Y0182818D02*
X0183892Y0182818D01*
X0182901Y0181620D02*
X0180299Y0181620D01*
X0180791Y0180421D02*
X0182409Y0180421D01*
X0182409Y0179223D02*
X0180791Y0179223D01*
X0180791Y0178024D02*
X0182409Y0178024D01*
X0182409Y0176826D02*
X0180791Y0176826D01*
X0180791Y0175627D02*
X0182409Y0175627D01*
X0182409Y0174429D02*
X0180791Y0174429D01*
X0180791Y0173230D02*
X0182409Y0173230D01*
X0182714Y0172032D02*
X0180486Y0172032D01*
X0179760Y0170833D02*
X0183440Y0170833D01*
X0187977Y0169635D02*
X0195059Y0169635D01*
X0193440Y0170833D02*
X0189760Y0170833D01*
X0190486Y0172032D02*
X0192714Y0172032D01*
X0192409Y0173230D02*
X0190791Y0173230D01*
X0190791Y0174429D02*
X0192409Y0174429D01*
X0192409Y0175627D02*
X0190791Y0175627D01*
X0190791Y0176826D02*
X0192409Y0176826D01*
X0192409Y0178024D02*
X0190791Y0178024D01*
X0190791Y0179223D02*
X0192409Y0179223D01*
X0192409Y0180421D02*
X0190791Y0180421D01*
X0190299Y0181620D02*
X0192901Y0181620D01*
X0193892Y0182818D02*
X0189308Y0182818D01*
X0199308Y0182818D02*
X0203892Y0182818D01*
X0204226Y0183153D02*
X0203047Y0181974D01*
X0202409Y0180434D01*
X0202409Y0172766D01*
X0203047Y0171226D01*
X0204226Y0170047D01*
X0205766Y0169409D01*
X0207434Y0169409D01*
X0208974Y0170047D01*
X0210153Y0171226D01*
X0210791Y0172766D01*
X0210791Y0180434D01*
X0210153Y0181974D01*
X0208974Y0183153D01*
X0207434Y0183791D01*
X0205766Y0183791D01*
X0204226Y0183153D01*
X0202901Y0181620D02*
X0200299Y0181620D01*
X0200791Y0180421D02*
X0202409Y0180421D01*
X0202409Y0179223D02*
X0200791Y0179223D01*
X0200791Y0178024D02*
X0202409Y0178024D01*
X0202409Y0176826D02*
X0200791Y0176826D01*
X0200791Y0175627D02*
X0202409Y0175627D01*
X0202409Y0174429D02*
X0200791Y0174429D01*
X0200791Y0173230D02*
X0202409Y0173230D01*
X0202714Y0172032D02*
X0200486Y0172032D01*
X0199760Y0170833D02*
X0203440Y0170833D01*
X0205222Y0169635D02*
X0198744Y0169635D01*
X0199942Y0168436D02*
X0209393Y0168436D01*
X0208539Y0167238D02*
X0201141Y0167238D01*
X0207977Y0169635D02*
X0215222Y0169635D01*
X0215766Y0169409D02*
X0217434Y0169409D01*
X0218974Y0170047D01*
X0220153Y0171226D01*
X0220791Y0172766D01*
X0220791Y0180434D01*
X0220153Y0181974D01*
X0218974Y0183153D01*
X0217434Y0183791D01*
X0215766Y0183791D01*
X0214226Y0183153D01*
X0213047Y0181974D01*
X0212409Y0180434D01*
X0212409Y0172766D01*
X0213047Y0171226D01*
X0214226Y0170047D01*
X0215766Y0169409D01*
X0217977Y0169635D02*
X0225222Y0169635D01*
X0223440Y0170833D02*
X0219760Y0170833D01*
X0220486Y0172032D02*
X0222714Y0172032D01*
X0222409Y0173230D02*
X0220791Y0173230D01*
X0220791Y0174429D02*
X0222409Y0174429D01*
X0222409Y0175627D02*
X0220791Y0175627D01*
X0220791Y0176826D02*
X0222409Y0176826D01*
X0222409Y0178024D02*
X0220791Y0178024D01*
X0220791Y0179223D02*
X0222409Y0179223D01*
X0222409Y0180421D02*
X0220791Y0180421D01*
X0220299Y0181620D02*
X0222901Y0181620D01*
X0223892Y0182818D02*
X0219308Y0182818D01*
X0213892Y0182818D02*
X0209308Y0182818D01*
X0210299Y0181620D02*
X0212901Y0181620D01*
X0212409Y0180421D02*
X0210791Y0180421D01*
X0210791Y0179223D02*
X0212409Y0179223D01*
X0212409Y0178024D02*
X0210791Y0178024D01*
X0210791Y0176826D02*
X0212409Y0176826D01*
X0212409Y0175627D02*
X0210791Y0175627D01*
X0210791Y0174429D02*
X0212409Y0174429D01*
X0212409Y0173230D02*
X0210791Y0173230D01*
X0210486Y0172032D02*
X0212714Y0172032D01*
X0213440Y0170833D02*
X0209760Y0170833D01*
X0213283Y0166039D02*
X0233672Y0166039D01*
X0232473Y0164841D02*
X0212506Y0164841D01*
X0225520Y0156451D02*
X0236477Y0156451D01*
X0236477Y0155253D02*
X0226216Y0155253D01*
X0226261Y0154054D02*
X0236477Y0154054D01*
X0236477Y0152856D02*
X0225627Y0152856D01*
X0226898Y0150885D02*
X0226898Y0147717D01*
X0229869Y0147717D01*
X0229869Y0149680D01*
X0229775Y0150033D01*
X0229592Y0150350D01*
X0229334Y0150608D01*
X0229017Y0150790D01*
X0228665Y0150885D01*
X0226898Y0150885D01*
X0226898Y0150459D02*
X0226129Y0150459D01*
X0226129Y0149260D02*
X0226898Y0149260D01*
X0226898Y0148062D02*
X0226129Y0148062D01*
X0223157Y0148062D02*
X0215148Y0148062D01*
X0215582Y0149260D02*
X0223157Y0149260D01*
X0223544Y0150459D02*
X0215446Y0150459D01*
X0214629Y0151657D02*
X0236477Y0151657D01*
X0236477Y0150459D02*
X0229483Y0150459D01*
X0229869Y0149260D02*
X0236477Y0149260D01*
X0236477Y0148062D02*
X0229869Y0148062D01*
X0229869Y0146863D02*
X0236477Y0146863D01*
X0236477Y0145665D02*
X0229869Y0145665D01*
X0229679Y0144466D02*
X0236477Y0144466D01*
X0236477Y0143268D02*
X0229672Y0143268D01*
X0229672Y0142069D02*
X0236477Y0142069D01*
X0236477Y0140870D02*
X0229672Y0140870D01*
X0229672Y0139672D02*
X0236477Y0139672D01*
X0236477Y0138473D02*
X0229672Y0138473D01*
X0229522Y0137275D02*
X0235411Y0137275D01*
X0234213Y0136076D02*
X0229582Y0136076D01*
X0239932Y0125290D02*
X0241094Y0125290D01*
X0241094Y0124091D02*
X0239932Y0124091D01*
X0239932Y0122893D02*
X0241094Y0122893D01*
X0241094Y0121694D02*
X0239932Y0121694D01*
X0241095Y0120496D02*
X0252374Y0120496D01*
X0252374Y0121694D02*
X0244263Y0121694D01*
X0244263Y0122893D02*
X0252374Y0122893D01*
X0252374Y0124091D02*
X0244263Y0124091D01*
X0243982Y0125290D02*
X0252374Y0125290D01*
X0252374Y0119297D02*
X0244263Y0119297D01*
X0244263Y0118099D02*
X0252374Y0118099D01*
X0252374Y0116900D02*
X0244263Y0116900D01*
X0243979Y0115702D02*
X0252374Y0115702D01*
X0252374Y0114503D02*
X0243467Y0114503D01*
X0244066Y0113305D02*
X0252374Y0113305D01*
X0252374Y0112106D02*
X0244066Y0112106D01*
X0244066Y0110908D02*
X0252374Y0110908D01*
X0252374Y0109709D02*
X0244066Y0109709D01*
X0244066Y0108511D02*
X0252374Y0108511D01*
X0252374Y0107312D02*
X0244066Y0107312D01*
X0244066Y0106114D02*
X0252374Y0106114D01*
X0252374Y0104915D02*
X0243937Y0104915D01*
X0243339Y0103717D02*
X0252374Y0103717D01*
X0252374Y0102518D02*
X0243582Y0102518D01*
X0243271Y0101320D02*
X0246863Y0101320D01*
X0246654Y0101111D02*
X0246248Y0100130D01*
X0246248Y0099070D01*
X0246326Y0098881D01*
X0246326Y0096917D01*
X0245855Y0096917D01*
X0245157Y0096219D01*
X0245157Y0090902D01*
X0245763Y0090297D01*
X0245496Y0090143D01*
X0245238Y0089885D01*
X0245055Y0089569D01*
X0244961Y0089216D01*
X0244961Y0087252D01*
X0247932Y0087252D01*
X0247932Y0086483D01*
X0248701Y0086483D01*
X0248701Y0083315D01*
X0250468Y0083315D01*
X0250821Y0083410D01*
X0251137Y0083592D01*
X0251395Y0083850D01*
X0251578Y0084167D01*
X0251672Y0084520D01*
X0251672Y0086483D01*
X0248701Y0086483D01*
X0248701Y0087252D01*
X0251672Y0087252D01*
X0251672Y0089216D01*
X0251578Y0089569D01*
X0251395Y0089885D01*
X0251137Y0090143D01*
X0250870Y0090297D01*
X0251476Y0090902D01*
X0251476Y0096219D01*
X0250778Y0096917D01*
X0250307Y0096917D01*
X0250307Y0097290D01*
X0250426Y0097339D01*
X0251176Y0098089D01*
X0251582Y0099070D01*
X0251582Y0100130D01*
X0251176Y0101111D01*
X0250426Y0101861D01*
X0249445Y0102267D01*
X0248384Y0102267D01*
X0247404Y0101861D01*
X0246654Y0101111D01*
X0246248Y0100121D02*
X0241899Y0100121D01*
X0239931Y0100121D02*
X0235582Y0100121D01*
X0235521Y0098923D02*
X0246309Y0098923D01*
X0246326Y0097724D02*
X0234811Y0097724D01*
X0235343Y0096526D02*
X0245464Y0096526D01*
X0245157Y0095327D02*
X0236287Y0095327D01*
X0236287Y0094129D02*
X0245157Y0094129D01*
X0245157Y0092930D02*
X0240764Y0092930D01*
X0241962Y0091732D02*
X0245157Y0091732D01*
X0245527Y0090533D02*
X0243161Y0090533D01*
X0244141Y0089334D02*
X0244992Y0089334D01*
X0244961Y0088136D02*
X0244141Y0088136D01*
X0244141Y0086937D02*
X0247932Y0086937D01*
X0247932Y0086483D02*
X0244961Y0086483D01*
X0244961Y0084520D01*
X0245055Y0084167D01*
X0245238Y0083850D01*
X0245496Y0083592D01*
X0245813Y0083410D01*
X0246165Y0083315D01*
X0247932Y0083315D01*
X0247932Y0086483D01*
X0247932Y0085739D02*
X0248701Y0085739D01*
X0248701Y0086937D02*
X0252374Y0086937D01*
X0252374Y0085739D02*
X0251672Y0085739D01*
X0251672Y0084540D02*
X0252374Y0084540D01*
X0252374Y0083342D02*
X0250568Y0083342D01*
X0248701Y0083342D02*
X0247932Y0083342D01*
X0247932Y0084540D02*
X0248701Y0084540D01*
X0246065Y0083342D02*
X0244141Y0083342D01*
X0244141Y0084540D02*
X0244961Y0084540D01*
X0244961Y0085739D02*
X0244141Y0085739D01*
X0244141Y0082143D02*
X0252374Y0082143D01*
X0251906Y0080945D02*
X0249908Y0080945D01*
X0251012Y0079746D02*
X0251543Y0079746D01*
X0251613Y0078548D02*
X0251267Y0078548D01*
X0250969Y0077349D02*
X0252812Y0077349D01*
X0255018Y0077349D02*
X0256486Y0077349D01*
X0256559Y0078548D02*
X0256217Y0078548D01*
X0256287Y0079746D02*
X0256559Y0079746D01*
X0256559Y0080945D02*
X0255924Y0080945D01*
X0255455Y0082143D02*
X0256559Y0082143D01*
X0256559Y0083342D02*
X0255455Y0083342D01*
X0255455Y0084540D02*
X0256559Y0084540D01*
X0256559Y0085739D02*
X0255455Y0085739D01*
X0252374Y0088136D02*
X0251672Y0088136D01*
X0251641Y0089334D02*
X0252374Y0089334D01*
X0252374Y0090533D02*
X0251106Y0090533D01*
X0251476Y0091732D02*
X0252374Y0091732D01*
X0252374Y0092930D02*
X0251476Y0092930D01*
X0251476Y0094129D02*
X0252374Y0094129D01*
X0252374Y0095327D02*
X0251476Y0095327D01*
X0251169Y0096526D02*
X0252374Y0096526D01*
X0252374Y0097724D02*
X0250811Y0097724D01*
X0251521Y0098923D02*
X0252374Y0098923D01*
X0252374Y0100121D02*
X0251582Y0100121D01*
X0250967Y0101320D02*
X0252374Y0101320D01*
X0255455Y0102631D02*
X0255455Y0106318D01*
X0256384Y0105933D01*
X0257445Y0105933D01*
X0258426Y0106339D01*
X0258612Y0106526D01*
X0259296Y0105843D01*
X0264613Y0105843D01*
X0265218Y0106448D01*
X0265372Y0106181D01*
X0265630Y0105923D01*
X0265946Y0105740D01*
X0266299Y0105646D01*
X0268263Y0105646D01*
X0268263Y0108617D01*
X0269031Y0108617D01*
X0269031Y0106057D01*
X0268213Y0105238D01*
X0265431Y0102456D01*
X0261792Y0102456D01*
X0261094Y0101758D01*
X0261094Y0099269D01*
X0260758Y0099605D01*
X0260091Y0099605D01*
X0260091Y0100004D01*
X0260176Y0100089D01*
X0260582Y0101070D01*
X0260582Y0102130D01*
X0260176Y0103111D01*
X0259426Y0103861D01*
X0258445Y0104267D01*
X0257384Y0104267D01*
X0256404Y0103861D01*
X0255654Y0103111D01*
X0255455Y0102631D01*
X0255455Y0103717D02*
X0256260Y0103717D01*
X0255455Y0104915D02*
X0267890Y0104915D01*
X0268263Y0106114D02*
X0269031Y0106114D01*
X0269031Y0107312D02*
X0268263Y0107312D01*
X0268263Y0108511D02*
X0269031Y0108511D01*
X0269031Y0109709D02*
X0268263Y0109709D01*
X0268263Y0110908D02*
X0269031Y0110908D01*
X0269031Y0112106D02*
X0268263Y0112106D01*
X0265675Y0112106D02*
X0264667Y0112106D01*
X0259241Y0112106D02*
X0255455Y0112106D01*
X0255455Y0110908D02*
X0255517Y0110908D01*
X0255455Y0113305D02*
X0280059Y0113305D01*
X0280059Y0114503D02*
X0255455Y0114503D01*
X0255455Y0115702D02*
X0280059Y0115702D01*
X0280059Y0116900D02*
X0255455Y0116900D01*
X0271620Y0112106D02*
X0280059Y0112106D01*
X0280059Y0110908D02*
X0272200Y0110908D01*
X0272200Y0109709D02*
X0280059Y0109709D01*
X0280059Y0108511D02*
X0272200Y0108511D01*
X0272200Y0107312D02*
X0280059Y0107312D01*
X0280059Y0102705D02*
X0280059Y0100882D01*
X0279130Y0101267D01*
X0278070Y0101267D01*
X0277089Y0100861D01*
X0276339Y0100111D01*
X0275933Y0099130D01*
X0275933Y0098070D01*
X0276339Y0097089D01*
X0277089Y0096339D01*
X0278070Y0095933D01*
X0279130Y0095933D01*
X0280059Y0096318D01*
X0280059Y0084413D01*
X0279228Y0083582D01*
X0279228Y0081618D01*
X0280618Y0080228D01*
X0282582Y0080228D01*
X0283972Y0081618D01*
X0283972Y0083582D01*
X0283141Y0084413D01*
X0283141Y0084705D01*
X0283618Y0084228D01*
X0285582Y0084228D01*
X0286059Y0084705D01*
X0286059Y0084413D01*
X0285228Y0083582D01*
X0285228Y0081618D01*
X0286334Y0080512D01*
X0286059Y0080238D01*
X0280962Y0075141D01*
X0258634Y0075141D01*
X0259641Y0076147D01*
X0259641Y0086559D01*
X0260709Y0086559D01*
X0260709Y0086057D01*
X0261407Y0085359D01*
X0265893Y0085359D01*
X0266591Y0086057D01*
X0266591Y0090143D01*
X0265893Y0090841D01*
X0261456Y0090841D01*
X0261456Y0092215D01*
X0260758Y0092913D01*
X0255455Y0092913D01*
X0255455Y0093287D01*
X0260758Y0093287D01*
X0261456Y0093985D01*
X0261456Y0096080D01*
X0261792Y0095744D01*
X0266715Y0095744D01*
X0267413Y0096441D01*
X0267413Y0100080D01*
X0267787Y0100455D01*
X0267787Y0096441D01*
X0268485Y0095744D01*
X0269406Y0095744D01*
X0269406Y0094541D01*
X0269307Y0094541D01*
X0268609Y0093843D01*
X0268609Y0089757D01*
X0269307Y0089059D01*
X0273793Y0089059D01*
X0274491Y0089757D01*
X0274491Y0093843D01*
X0273793Y0094541D01*
X0272487Y0094541D01*
X0272487Y0095744D01*
X0273408Y0095744D01*
X0274105Y0096441D01*
X0274105Y0101758D01*
X0273408Y0102456D01*
X0269788Y0102456D01*
X0270392Y0103059D01*
X0276787Y0103059D01*
X0277618Y0102228D01*
X0279582Y0102228D01*
X0280059Y0102705D01*
X0280059Y0102518D02*
X0279872Y0102518D01*
X0280059Y0101320D02*
X0274105Y0101320D01*
X0274105Y0100121D02*
X0276349Y0100121D01*
X0275933Y0098923D02*
X0274105Y0098923D01*
X0274105Y0097724D02*
X0276076Y0097724D01*
X0276903Y0096526D02*
X0274105Y0096526D01*
X0272487Y0095327D02*
X0280059Y0095327D01*
X0280059Y0094129D02*
X0274205Y0094129D01*
X0274491Y0092930D02*
X0280059Y0092930D01*
X0280059Y0091732D02*
X0274491Y0091732D01*
X0274491Y0090533D02*
X0280059Y0090533D01*
X0280059Y0089334D02*
X0274068Y0089334D01*
X0273483Y0087337D02*
X0271725Y0087337D01*
X0271725Y0084575D01*
X0271375Y0084575D01*
X0271375Y0087337D01*
X0269617Y0087337D01*
X0269264Y0087243D01*
X0268948Y0087060D01*
X0268690Y0086802D01*
X0268507Y0086486D01*
X0268413Y0086133D01*
X0268413Y0084575D01*
X0271375Y0084575D01*
X0271375Y0084225D01*
X0271725Y0084225D01*
X0271725Y0084575D01*
X0274687Y0084575D01*
X0274687Y0086133D01*
X0274593Y0086486D01*
X0274410Y0086802D01*
X0274152Y0087060D01*
X0273836Y0087243D01*
X0273483Y0087337D01*
X0274275Y0086937D02*
X0280059Y0086937D01*
X0280059Y0085739D02*
X0274687Y0085739D01*
X0274687Y0084225D02*
X0271725Y0084225D01*
X0271725Y0081464D01*
X0271633Y0081464D01*
X0271080Y0081354D01*
X0270558Y0081138D01*
X0270089Y0080824D01*
X0269691Y0080426D01*
X0269377Y0079957D01*
X0269161Y0079435D01*
X0269051Y0078882D01*
X0269051Y0078600D01*
X0271915Y0078600D01*
X0274779Y0078600D01*
X0274779Y0078882D01*
X0274669Y0079435D01*
X0274453Y0079957D01*
X0274139Y0080426D01*
X0273741Y0080824D01*
X0273271Y0081138D01*
X0272750Y0081354D01*
X0272203Y0081463D01*
X0273483Y0081463D01*
X0273836Y0081557D01*
X0274152Y0081740D01*
X0274410Y0081998D01*
X0274593Y0082314D01*
X0274687Y0082667D01*
X0274687Y0084225D01*
X0274687Y0083342D02*
X0279228Y0083342D01*
X0279228Y0082143D02*
X0274494Y0082143D01*
X0273560Y0080945D02*
X0279901Y0080945D01*
X0283299Y0080945D02*
X0285901Y0080945D01*
X0285568Y0079746D02*
X0274540Y0079746D01*
X0274779Y0078600D02*
X0271915Y0078600D01*
X0271915Y0078600D01*
X0271915Y0075736D01*
X0272197Y0075736D01*
X0272750Y0075846D01*
X0273271Y0076062D01*
X0273741Y0076376D01*
X0274139Y0076774D01*
X0274453Y0077243D01*
X0274669Y0077765D01*
X0274779Y0078318D01*
X0274779Y0078600D01*
X0274779Y0078548D02*
X0284369Y0078548D01*
X0283171Y0077349D02*
X0274497Y0077349D01*
X0273404Y0076151D02*
X0281972Y0076151D01*
X0271915Y0076151D02*
X0271915Y0076151D01*
X0271915Y0075736D02*
X0271915Y0078600D01*
X0271915Y0078600D01*
X0271915Y0078600D01*
X0269051Y0078600D01*
X0269051Y0078318D01*
X0269161Y0077765D01*
X0269377Y0077243D01*
X0269691Y0076774D01*
X0270089Y0076376D01*
X0270558Y0076062D01*
X0271080Y0075846D01*
X0271633Y0075736D01*
X0271915Y0075736D01*
X0270426Y0076151D02*
X0259641Y0076151D01*
X0259641Y0077349D02*
X0269333Y0077349D01*
X0269051Y0078548D02*
X0259641Y0078548D01*
X0259641Y0079746D02*
X0269290Y0079746D01*
X0270270Y0080945D02*
X0259641Y0080945D01*
X0259641Y0082143D02*
X0268606Y0082143D01*
X0268690Y0081998D02*
X0268948Y0081740D01*
X0269264Y0081557D01*
X0269617Y0081463D01*
X0271375Y0081463D01*
X0271375Y0084225D01*
X0268413Y0084225D01*
X0268413Y0082667D01*
X0268507Y0082314D01*
X0268690Y0081998D01*
X0268413Y0083342D02*
X0259641Y0083342D01*
X0259641Y0084540D02*
X0271375Y0084540D01*
X0271725Y0084540D02*
X0280059Y0084540D01*
X0283141Y0084540D02*
X0283306Y0084540D01*
X0283972Y0083342D02*
X0285228Y0083342D01*
X0285228Y0082143D02*
X0283972Y0082143D01*
X0285894Y0084540D02*
X0286059Y0084540D01*
X0289141Y0084540D02*
X0289306Y0084540D01*
X0289972Y0083342D02*
X0328406Y0083342D01*
X0328406Y0084540D02*
X0291894Y0084540D01*
X0292972Y0085739D02*
X0328406Y0085739D01*
X0326787Y0086937D02*
X0326413Y0086937D01*
X0326413Y0086441D02*
X0326413Y0091758D01*
X0325715Y0092456D01*
X0320792Y0092456D01*
X0320094Y0091758D01*
X0320094Y0091460D01*
X0320082Y0091472D01*
X0318118Y0091472D01*
X0316728Y0090082D01*
X0316728Y0088118D01*
X0318118Y0086728D01*
X0320082Y0086728D01*
X0320094Y0086740D01*
X0320094Y0086441D01*
X0320792Y0085744D01*
X0325715Y0085744D01*
X0326413Y0086441D01*
X0326413Y0088136D02*
X0326787Y0088136D01*
X0326787Y0089334D02*
X0326413Y0089334D01*
X0326413Y0090533D02*
X0326787Y0090533D01*
X0326787Y0091732D02*
X0326413Y0091732D01*
X0326413Y0095327D02*
X0326787Y0095327D01*
X0326787Y0096526D02*
X0326413Y0096526D01*
X0326413Y0097724D02*
X0326787Y0097724D01*
X0326787Y0098923D02*
X0326413Y0098923D01*
X0326413Y0100121D02*
X0326787Y0100121D01*
X0333105Y0100121D02*
X0336059Y0100121D01*
X0336059Y0098923D02*
X0334456Y0098923D01*
X0335655Y0097724D02*
X0336059Y0097724D01*
X0333694Y0095327D02*
X0333105Y0095327D01*
X0334059Y0094129D02*
X0320287Y0094129D01*
X0319599Y0092930D02*
X0334059Y0092930D01*
X0334059Y0091732D02*
X0333105Y0091732D01*
X0333105Y0090533D02*
X0334059Y0090533D01*
X0334059Y0089334D02*
X0333105Y0089334D01*
X0333105Y0088136D02*
X0334059Y0088136D01*
X0334059Y0086937D02*
X0333105Y0086937D01*
X0334059Y0085739D02*
X0331487Y0085739D01*
X0331487Y0084540D02*
X0334059Y0084540D01*
X0334059Y0083342D02*
X0331487Y0083342D01*
X0331487Y0082143D02*
X0333965Y0082143D01*
X0332766Y0080945D02*
X0331487Y0080945D01*
X0331568Y0079746D02*
X0330925Y0079746D01*
X0328406Y0082143D02*
X0289972Y0082143D01*
X0292972Y0086937D02*
X0317908Y0086937D01*
X0316728Y0088136D02*
X0292418Y0088136D01*
X0292141Y0089334D02*
X0316728Y0089334D01*
X0317179Y0090533D02*
X0311305Y0090533D01*
X0311111Y0090339D02*
X0311861Y0091089D01*
X0312267Y0092070D01*
X0312267Y0093130D01*
X0311861Y0094111D01*
X0311111Y0094861D01*
X0310130Y0095267D01*
X0309070Y0095267D01*
X0308089Y0094861D01*
X0307339Y0094111D01*
X0306933Y0093130D01*
X0306933Y0092070D01*
X0307339Y0091089D01*
X0308089Y0090339D01*
X0309070Y0089933D01*
X0310130Y0089933D01*
X0311111Y0090339D01*
X0312127Y0091732D02*
X0320094Y0091732D01*
X0316231Y0092930D02*
X0312267Y0092930D01*
X0311843Y0094129D02*
X0315543Y0094129D01*
X0315009Y0095327D02*
X0293996Y0095327D01*
X0292141Y0094129D02*
X0307357Y0094129D01*
X0306933Y0092930D02*
X0292141Y0092930D01*
X0292141Y0091732D02*
X0307073Y0091732D01*
X0307895Y0090533D02*
X0292141Y0090533D01*
X0280059Y0088136D02*
X0266591Y0088136D01*
X0266591Y0089334D02*
X0269032Y0089334D01*
X0268609Y0090533D02*
X0266201Y0090533D01*
X0268609Y0091732D02*
X0261456Y0091732D01*
X0261456Y0094129D02*
X0268895Y0094129D01*
X0268609Y0092930D02*
X0255455Y0092930D01*
X0261456Y0095327D02*
X0269406Y0095327D01*
X0267787Y0096526D02*
X0267413Y0096526D01*
X0267413Y0097724D02*
X0267787Y0097724D01*
X0267787Y0098923D02*
X0267413Y0098923D01*
X0267453Y0100121D02*
X0267787Y0100121D01*
X0269850Y0102518D02*
X0277328Y0102518D01*
X0266692Y0103717D02*
X0259570Y0103717D01*
X0260421Y0102518D02*
X0265493Y0102518D01*
X0261094Y0101320D02*
X0260582Y0101320D01*
X0260189Y0100121D02*
X0261094Y0100121D01*
X0259025Y0106114D02*
X0257881Y0106114D01*
X0255948Y0106114D02*
X0255455Y0106114D01*
X0264884Y0106114D02*
X0265439Y0106114D01*
X0238491Y0103717D02*
X0205255Y0103717D01*
X0206106Y0102518D02*
X0238248Y0102518D01*
X0238559Y0101320D02*
X0234967Y0101320D01*
X0230863Y0101320D02*
X0229572Y0101320D01*
X0224179Y0101320D02*
X0223126Y0101320D01*
X0220567Y0101320D02*
X0219798Y0101320D01*
X0219798Y0101554D02*
X0217835Y0101554D01*
X0217482Y0101460D01*
X0217165Y0101277D01*
X0216907Y0101019D01*
X0216724Y0100702D01*
X0216630Y0100350D01*
X0216630Y0098583D01*
X0219798Y0098583D01*
X0219798Y0101554D01*
X0219798Y0100121D02*
X0220567Y0100121D01*
X0220567Y0098923D02*
X0219798Y0098923D01*
X0216630Y0098923D02*
X0183939Y0098923D01*
X0184267Y0097724D02*
X0216630Y0097724D01*
X0216630Y0096526D02*
X0184042Y0096526D01*
X0179158Y0096526D02*
X0177297Y0096526D01*
X0178124Y0097724D02*
X0178933Y0097724D01*
X0179261Y0098923D02*
X0178267Y0098923D01*
X0177850Y0100121D02*
X0180717Y0100121D01*
X0173349Y0100121D02*
X0152483Y0100121D01*
X0153939Y0098923D02*
X0172933Y0098923D01*
X0173076Y0097724D02*
X0154267Y0097724D01*
X0154042Y0096526D02*
X0173903Y0096526D01*
X0183267Y0103717D02*
X0197712Y0103717D01*
X0196997Y0104915D02*
X0183149Y0104915D01*
X0182358Y0106114D02*
X0196933Y0106114D01*
X0197541Y0107312D02*
X0148491Y0107312D01*
X0161116Y0120496D02*
X0164933Y0120496D01*
X0164088Y0121694D02*
X0160277Y0121694D01*
X0206267Y0101320D02*
X0217239Y0101320D01*
X0216630Y0100121D02*
X0205874Y0100121D01*
X0244141Y0080945D02*
X0247292Y0080945D01*
X0246188Y0079746D02*
X0244808Y0079746D01*
X0244972Y0078548D02*
X0245933Y0078548D01*
X0246231Y0077349D02*
X0244703Y0077349D01*
X0259641Y0085739D02*
X0261027Y0085739D01*
X0266273Y0085739D02*
X0268413Y0085739D01*
X0268825Y0086937D02*
X0266591Y0086937D01*
X0271375Y0086937D02*
X0271725Y0086937D01*
X0271725Y0085739D02*
X0271375Y0085739D01*
X0271375Y0083342D02*
X0271725Y0083342D01*
X0271725Y0082143D02*
X0271375Y0082143D01*
X0271915Y0078548D02*
X0271915Y0078548D01*
X0271915Y0077349D02*
X0271915Y0077349D01*
X0319972Y0100121D02*
X0320094Y0100121D01*
X0319234Y0101320D02*
X0336059Y0101320D01*
X0326787Y0103717D02*
X0326413Y0103717D01*
X0326413Y0104915D02*
X0326787Y0104915D01*
X0326787Y0106114D02*
X0326413Y0106114D01*
X0326413Y0107312D02*
X0326787Y0107312D01*
X0326787Y0108511D02*
X0326413Y0108511D01*
X0326413Y0112106D02*
X0326787Y0112106D01*
X0326787Y0113305D02*
X0326413Y0113305D01*
X0326413Y0114503D02*
X0326787Y0114503D01*
X0326787Y0115702D02*
X0326413Y0115702D01*
X0326413Y0116900D02*
X0326787Y0116900D01*
X0326787Y0120496D02*
X0326413Y0120496D01*
X0326413Y0121694D02*
X0326787Y0121694D01*
X0326787Y0122893D02*
X0326413Y0122893D01*
X0326413Y0124091D02*
X0326787Y0124091D01*
X0326787Y0125290D02*
X0326413Y0125290D01*
X0333105Y0125290D02*
X0342059Y0125290D01*
X0342059Y0124091D02*
X0338287Y0124091D01*
X0339486Y0122893D02*
X0342059Y0122893D01*
X0342059Y0121694D02*
X0340684Y0121694D01*
X0341883Y0120496D02*
X0342059Y0120496D01*
X0340059Y0115702D02*
X0337677Y0115702D01*
X0338875Y0114503D02*
X0340059Y0114503D01*
X0336915Y0112106D02*
X0333105Y0112106D01*
X0338059Y0110908D02*
X0314998Y0110908D01*
X0316027Y0109709D02*
X0338059Y0109709D01*
X0320094Y0116900D02*
X0319654Y0116900D01*
X0319850Y0120496D02*
X0320094Y0120496D01*
X0320094Y0125290D02*
X0312944Y0125290D01*
X0313267Y0126488D02*
X0341533Y0126488D01*
X0333105Y0133679D02*
X0369909Y0133679D01*
X0365435Y0139672D02*
X0358341Y0139672D01*
X0387291Y0144466D02*
X0388158Y0144466D01*
X0389690Y0154054D02*
X0381548Y0154054D01*
X0382746Y0155253D02*
X0390374Y0155253D01*
X0390374Y0156451D02*
X0383455Y0156451D01*
X0384629Y0157650D02*
X0389201Y0157650D01*
X0388559Y0158848D02*
X0385271Y0158848D01*
X0385271Y0160047D02*
X0388559Y0160047D01*
X0388559Y0161245D02*
X0385271Y0161245D01*
X0385271Y0162444D02*
X0388559Y0162444D01*
X0388986Y0163642D02*
X0384844Y0163642D01*
X0384573Y0164287D02*
X0385271Y0164985D01*
X0385271Y0169908D01*
X0384573Y0170605D01*
X0384532Y0170605D01*
X0385153Y0171226D01*
X0385791Y0172766D01*
X0385791Y0180434D01*
X0385153Y0181974D01*
X0383974Y0183153D01*
X0382434Y0183791D01*
X0380766Y0183791D01*
X0379226Y0183153D01*
X0378047Y0181974D01*
X0377409Y0180434D01*
X0377409Y0172766D01*
X0378047Y0171226D01*
X0378962Y0170311D01*
X0378559Y0169908D01*
X0378559Y0164985D01*
X0379256Y0164287D01*
X0384573Y0164287D01*
X0385127Y0164841D02*
X0388703Y0164841D01*
X0388559Y0166039D02*
X0385271Y0166039D01*
X0385271Y0167238D02*
X0388559Y0167238D01*
X0388559Y0168436D02*
X0385271Y0168436D01*
X0385271Y0169635D02*
X0388559Y0169635D01*
X0388440Y0170833D02*
X0384760Y0170833D01*
X0385486Y0172032D02*
X0387714Y0172032D01*
X0387409Y0173230D02*
X0385791Y0173230D01*
X0385791Y0174429D02*
X0387409Y0174429D01*
X0387409Y0175627D02*
X0385791Y0175627D01*
X0385791Y0176826D02*
X0387409Y0176826D01*
X0387409Y0178024D02*
X0385791Y0178024D01*
X0385791Y0179223D02*
X0387409Y0179223D01*
X0387409Y0180421D02*
X0385791Y0180421D01*
X0385299Y0181620D02*
X0387901Y0181620D01*
X0388892Y0182818D02*
X0384308Y0182818D01*
X0378892Y0182818D02*
X0374308Y0182818D01*
X0373974Y0183153D02*
X0372434Y0183791D01*
X0370766Y0183791D01*
X0369226Y0183153D01*
X0368047Y0181974D01*
X0367409Y0180434D01*
X0367409Y0172766D01*
X0368047Y0171226D01*
X0368962Y0170311D01*
X0368559Y0169908D01*
X0368559Y0164985D01*
X0369256Y0164287D01*
X0374573Y0164287D01*
X0375271Y0164985D01*
X0375271Y0169908D01*
X0374573Y0170605D01*
X0374532Y0170605D01*
X0375153Y0171226D01*
X0375791Y0172766D01*
X0375791Y0180434D01*
X0375153Y0181974D01*
X0373974Y0183153D01*
X0375299Y0181620D02*
X0377901Y0181620D01*
X0377409Y0180421D02*
X0375791Y0180421D01*
X0375791Y0179223D02*
X0377409Y0179223D01*
X0377409Y0178024D02*
X0375791Y0178024D01*
X0375791Y0176826D02*
X0377409Y0176826D01*
X0377409Y0175627D02*
X0375791Y0175627D01*
X0375791Y0174429D02*
X0377409Y0174429D01*
X0377409Y0173230D02*
X0375791Y0173230D01*
X0375486Y0172032D02*
X0377714Y0172032D01*
X0378440Y0170833D02*
X0374760Y0170833D01*
X0375271Y0169635D02*
X0378559Y0169635D01*
X0378559Y0168436D02*
X0375271Y0168436D01*
X0375271Y0167238D02*
X0378559Y0167238D01*
X0378559Y0166039D02*
X0375271Y0166039D01*
X0375127Y0164841D02*
X0378703Y0164841D01*
X0378986Y0163642D02*
X0374844Y0163642D01*
X0375271Y0162444D02*
X0378559Y0162444D01*
X0378559Y0161245D02*
X0375271Y0161245D01*
X0375271Y0160047D02*
X0378559Y0160047D01*
X0378559Y0158848D02*
X0375271Y0158848D01*
X0374629Y0157650D02*
X0379201Y0157650D01*
X0379587Y0156451D02*
X0371445Y0156451D01*
X0368559Y0158848D02*
X0365271Y0158848D01*
X0365271Y0160047D02*
X0368559Y0160047D01*
X0368559Y0161245D02*
X0365271Y0161245D01*
X0365271Y0162444D02*
X0368559Y0162444D01*
X0368986Y0163642D02*
X0364844Y0163642D01*
X0364573Y0164287D02*
X0365271Y0164985D01*
X0365271Y0169908D01*
X0364573Y0170605D01*
X0364532Y0170605D01*
X0365153Y0171226D01*
X0365791Y0172766D01*
X0365791Y0180434D01*
X0365153Y0181974D01*
X0363974Y0183153D01*
X0362434Y0183791D01*
X0360766Y0183791D01*
X0359226Y0183153D01*
X0358047Y0181974D01*
X0357409Y0180434D01*
X0357409Y0172766D01*
X0358047Y0171226D01*
X0358962Y0170311D01*
X0358559Y0169908D01*
X0358559Y0164985D01*
X0359256Y0164287D01*
X0364573Y0164287D01*
X0365127Y0164841D02*
X0368703Y0164841D01*
X0368559Y0166039D02*
X0365271Y0166039D01*
X0365271Y0167238D02*
X0368559Y0167238D01*
X0368559Y0168436D02*
X0365271Y0168436D01*
X0365271Y0169635D02*
X0368559Y0169635D01*
X0368440Y0170833D02*
X0364760Y0170833D01*
X0365486Y0172032D02*
X0367714Y0172032D01*
X0367409Y0173230D02*
X0365791Y0173230D01*
X0365791Y0174429D02*
X0367409Y0174429D01*
X0367409Y0175627D02*
X0365791Y0175627D01*
X0365791Y0176826D02*
X0367409Y0176826D01*
X0367409Y0178024D02*
X0365791Y0178024D01*
X0365791Y0179223D02*
X0367409Y0179223D01*
X0367409Y0180421D02*
X0365791Y0180421D01*
X0365299Y0181620D02*
X0367901Y0181620D01*
X0368892Y0182818D02*
X0364308Y0182818D01*
X0358892Y0182818D02*
X0352960Y0182818D01*
X0352945Y0181620D02*
X0357901Y0181620D01*
X0357409Y0180421D02*
X0352764Y0180421D01*
X0352583Y0179223D02*
X0357409Y0179223D01*
X0357409Y0178024D02*
X0352403Y0178024D01*
X0352040Y0176826D02*
X0357409Y0176826D01*
X0357409Y0175627D02*
X0351463Y0175627D01*
X0350886Y0174429D02*
X0357409Y0174429D01*
X0357409Y0173230D02*
X0350308Y0173230D01*
X0349336Y0172032D02*
X0357714Y0172032D01*
X0358440Y0170833D02*
X0348224Y0170833D01*
X0347111Y0169635D02*
X0358559Y0169635D01*
X0358559Y0168436D02*
X0345312Y0168436D01*
X0346792Y0169291D02*
X0346792Y0169291D01*
X0346792Y0169291D01*
X0343236Y0167238D02*
X0358559Y0167238D01*
X0358559Y0166039D02*
X0339100Y0166039D01*
X0337683Y0165716D02*
X0337683Y0165716D01*
X0333366Y0166039D02*
X0246533Y0166039D01*
X0247731Y0167238D02*
X0329813Y0167238D01*
X0328143Y0167893D02*
X0328143Y0167893D01*
X0327462Y0168436D02*
X0248141Y0168436D01*
X0240834Y0163642D02*
X0235632Y0163642D01*
X0234433Y0162444D02*
X0239635Y0162444D01*
X0238437Y0161245D02*
X0233783Y0161245D01*
X0233212Y0160047D02*
X0237238Y0160047D01*
X0236830Y0164841D02*
X0322802Y0164841D01*
X0325028Y0164841D02*
X0358703Y0164841D01*
X0358986Y0163642D02*
X0326227Y0163642D01*
X0326287Y0162444D02*
X0338580Y0162444D01*
X0337381Y0161245D02*
X0325914Y0161245D01*
X0332749Y0166085D02*
X0332749Y0166085D01*
X0325959Y0169635D02*
X0317977Y0169635D01*
X0319760Y0170833D02*
X0324456Y0170833D01*
X0324274Y0170978D02*
X0324274Y0170978D01*
X0324274Y0170978D01*
X0323556Y0172032D02*
X0320486Y0172032D01*
X0320791Y0173230D02*
X0322739Y0173230D01*
X0321921Y0174429D02*
X0320791Y0174429D01*
X0320791Y0175627D02*
X0321314Y0175627D01*
X0320944Y0176826D02*
X0320791Y0176826D01*
X0342507Y0166817D02*
X0342507Y0166817D01*
X0302243Y0134878D02*
X0288957Y0134878D01*
X0289267Y0133679D02*
X0301933Y0133679D01*
X0302177Y0132481D02*
X0289023Y0132481D01*
X0288928Y0131282D02*
X0287974Y0131282D01*
X0292272Y0131282D02*
X0303226Y0131282D01*
X0289059Y0127687D02*
X0288867Y0127687D01*
X0302086Y0110908D02*
X0312202Y0110908D01*
X0311247Y0107312D02*
X0292141Y0107312D01*
X0345141Y0097724D02*
X0401787Y0097724D01*
X0401787Y0096526D02*
X0345141Y0096526D01*
X0345141Y0095327D02*
X0401787Y0095327D01*
X0401787Y0094129D02*
X0345141Y0094129D01*
X0345141Y0092930D02*
X0401787Y0092930D01*
X0401787Y0091732D02*
X0345141Y0091732D01*
X0345141Y0090533D02*
X0401787Y0090533D01*
X0401787Y0089334D02*
X0345141Y0089334D01*
X0345141Y0088136D02*
X0401787Y0088136D01*
X0379200Y0100121D02*
X0378000Y0100121D01*
X0378000Y0101320D02*
X0379200Y0101320D01*
X0379200Y0102518D02*
X0378000Y0102518D01*
X0378000Y0103717D02*
X0379200Y0103717D01*
X0379200Y0104915D02*
X0378000Y0104915D01*
X0378000Y0106114D02*
X0379200Y0106114D01*
X0379200Y0107312D02*
X0378000Y0107312D01*
X0378000Y0110908D02*
X0379200Y0110908D01*
X0379200Y0112106D02*
X0378000Y0112106D01*
X0378000Y0113305D02*
X0379200Y0113305D01*
X0379200Y0114503D02*
X0378000Y0114503D01*
X0378000Y0115702D02*
X0379200Y0115702D01*
X0379200Y0116900D02*
X0378000Y0116900D01*
X0378000Y0118099D02*
X0379200Y0118099D01*
X0379200Y0119297D02*
X0378000Y0119297D01*
X0388073Y0119297D02*
X0401787Y0119297D01*
X0401787Y0118099D02*
X0388487Y0118099D01*
X0388487Y0116900D02*
X0401787Y0116900D01*
X0401787Y0115702D02*
X0388487Y0115702D01*
X0388487Y0114503D02*
X0401787Y0114503D01*
X0401787Y0113305D02*
X0388487Y0113305D01*
X0388487Y0112106D02*
X0401787Y0112106D01*
X0401787Y0110908D02*
X0388487Y0110908D01*
X0191254Y0066600D02*
X0187600Y0066600D01*
X0186508Y0064166D02*
X0185141Y0064166D01*
X0185141Y0065364D02*
X0185225Y0065364D01*
X0184980Y0070158D02*
X0184783Y0070158D01*
X0184008Y0071357D02*
X0186178Y0071357D01*
X0174041Y0062967D02*
X0169159Y0062967D01*
X0170238Y0061769D02*
X0172962Y0061769D01*
X0172466Y0060570D02*
X0170734Y0060570D01*
X0170791Y0059372D02*
X0172409Y0059372D01*
X0172409Y0058173D02*
X0170791Y0058173D01*
X0170791Y0056975D02*
X0172409Y0056975D01*
X0172409Y0055776D02*
X0170791Y0055776D01*
X0170791Y0054578D02*
X0172409Y0054578D01*
X0172409Y0053379D02*
X0170791Y0053379D01*
X0170548Y0052181D02*
X0172652Y0052181D01*
X0173292Y0050982D02*
X0169908Y0050982D01*
X0168337Y0049784D02*
X0174863Y0049784D01*
D22*
X0187600Y0066600D03*
X0188600Y0074600D03*
X0206915Y0082600D03*
X0212600Y0082600D03*
X0232915Y0099600D03*
X0240915Y0102600D03*
X0248915Y0099600D03*
X0257915Y0101600D03*
X0256915Y0108600D03*
X0278600Y0098600D03*
X0309600Y0092600D03*
X0313600Y0108600D03*
X0299600Y0116600D03*
X0310600Y0126600D03*
X0304600Y0133600D03*
X0286600Y0133600D03*
X0278915Y0120600D03*
X0261128Y0132734D03*
X0249915Y0135600D03*
X0226915Y0136600D03*
X0212915Y0149600D03*
X0210915Y0154600D03*
X0223600Y0154600D03*
X0248600Y0154600D03*
X0201915Y0121600D03*
X0204600Y0115600D03*
X0199600Y0105600D03*
X0203600Y0101600D03*
X0181600Y0097600D03*
X0175600Y0098600D03*
X0180600Y0104100D03*
X0151600Y0097600D03*
X0158600Y0119600D03*
X0166600Y0122600D03*
X0151600Y0128600D03*
X0082600Y0116600D03*
X0096600Y0095600D03*
X0078600Y0091600D03*
X0079600Y0073100D03*
X0142100Y0074100D03*
X0211600Y0062600D03*
X0248600Y0078600D03*
X0271915Y0078600D03*
X0225915Y0115600D03*
X0351600Y0067600D03*
X0391915Y0079600D03*
X0389415Y0142100D03*
X0367730Y0141100D03*
D23*
X0356915Y0141600D03*
X0367915Y0148600D03*
X0347915Y0158600D03*
X0343474Y0153600D03*
X0338474Y0153600D03*
X0332915Y0149600D03*
X0323915Y0162600D03*
X0315600Y0131600D03*
X0318600Y0122600D03*
X0314600Y0118600D03*
X0318600Y0114600D03*
X0318915Y0105600D03*
X0317600Y0099600D03*
X0317915Y0094600D03*
X0319100Y0089100D03*
X0292915Y0097600D03*
X0278600Y0104600D03*
X0296600Y0111600D03*
X0284600Y0121600D03*
X0281600Y0125600D03*
X0287600Y0125600D03*
X0290600Y0129600D03*
X0254915Y0159600D03*
X0231411Y0161600D03*
X0210911Y0166600D03*
X0180911Y0167100D03*
X0181915Y0152600D03*
X0184915Y0148600D03*
X0187915Y0144600D03*
X0190915Y0140600D03*
X0196915Y0114600D03*
X0233915Y0094600D03*
X0253915Y0079600D03*
X0242600Y0078600D03*
X0237600Y0078600D03*
X0230600Y0078600D03*
X0225600Y0077600D03*
X0182411Y0069600D03*
X0149600Y0110600D03*
X0103915Y0116600D03*
X0076915Y0113600D03*
X0137915Y0140600D03*
X0133915Y0144600D03*
X0129915Y0147600D03*
X0124415Y0148100D03*
X0281600Y0082600D03*
X0287600Y0082600D03*
X0284600Y0086600D03*
X0290600Y0086600D03*
X0084915Y0059600D03*
D24*
X0084915Y0079600D01*
X0099915Y0094600D01*
X0233915Y0094600D01*
X0239915Y0091600D02*
X0242600Y0088915D01*
X0242600Y0078600D01*
X0237600Y0078600D02*
X0226600Y0089600D01*
X0109915Y0089600D01*
X0106915Y0086600D01*
X0106915Y0074946D01*
X0116915Y0074946D02*
X0116915Y0086600D01*
X0117915Y0087600D01*
X0221600Y0087600D01*
X0230600Y0078600D01*
X0229915Y0075600D02*
X0224915Y0070600D01*
X0218915Y0070600D01*
X0216600Y0068285D01*
X0216600Y0056600D01*
X0206600Y0056600D02*
X0206254Y0056946D01*
X0206254Y0066600D01*
X0206431Y0066777D01*
X0206431Y0072041D01*
X0197946Y0071864D02*
X0197946Y0066600D01*
X0197946Y0057946D01*
X0196600Y0056600D01*
X0186600Y0056600D02*
X0183600Y0059600D01*
X0183600Y0066600D01*
X0187600Y0070600D01*
X0189600Y0070600D01*
X0193600Y0074600D01*
X0197769Y0074600D01*
X0197769Y0072041D02*
X0197946Y0071864D01*
X0182411Y0069600D02*
X0169600Y0069600D01*
X0166600Y0066600D01*
X0166600Y0056600D01*
X0142100Y0074100D02*
X0153600Y0085600D01*
X0217600Y0085600D01*
X0225600Y0077600D01*
X0229915Y0075600D02*
X0256915Y0075600D01*
X0258100Y0076785D01*
X0258100Y0089754D01*
X0259754Y0088100D01*
X0263650Y0088100D01*
X0270946Y0092404D02*
X0270946Y0099100D01*
X0269754Y0104600D02*
X0264254Y0099100D01*
X0269754Y0104600D02*
X0278600Y0104600D01*
X0292915Y0097600D02*
X0314915Y0097600D01*
X0317915Y0094600D01*
X0319600Y0097600D02*
X0317600Y0099600D01*
X0319600Y0097600D02*
X0323254Y0097600D01*
X0322254Y0098600D01*
X0329946Y0097600D02*
X0333600Y0097600D01*
X0335600Y0095600D01*
X0335600Y0081600D01*
X0331600Y0077600D01*
X0288600Y0077600D01*
X0282600Y0071600D01*
X0240600Y0071600D01*
X0236600Y0067600D01*
X0236600Y0056600D01*
X0226600Y0056600D02*
X0226600Y0068600D01*
X0231600Y0073600D01*
X0281600Y0073600D01*
X0287600Y0079600D01*
X0328600Y0079600D01*
X0329946Y0080946D01*
X0329946Y0089100D01*
X0323254Y0089100D02*
X0319100Y0089100D01*
X0332600Y0075600D02*
X0337600Y0080600D01*
X0337600Y0103600D01*
X0335100Y0106100D01*
X0329946Y0106100D01*
X0323254Y0106100D02*
X0319415Y0106100D01*
X0318915Y0105600D01*
X0322754Y0105600D02*
X0323254Y0106100D01*
X0336600Y0114600D02*
X0339600Y0111600D01*
X0339600Y0079600D01*
X0333600Y0073600D01*
X0290600Y0073600D01*
X0284600Y0067600D01*
X0257600Y0067600D01*
X0256600Y0066600D01*
X0256600Y0056600D01*
X0246600Y0056600D02*
X0246600Y0067600D01*
X0248600Y0069600D01*
X0283600Y0069600D01*
X0289600Y0075600D01*
X0332600Y0075600D01*
X0334600Y0071600D02*
X0341600Y0078600D01*
X0341600Y0118600D01*
X0337100Y0123100D01*
X0329946Y0123100D01*
X0323254Y0123100D02*
X0319100Y0123100D01*
X0318600Y0122600D01*
X0314600Y0118600D02*
X0304600Y0118600D01*
X0302600Y0116600D01*
X0302600Y0113600D01*
X0300600Y0111600D01*
X0296600Y0111600D01*
X0318600Y0114600D02*
X0323254Y0114600D01*
X0329946Y0114600D02*
X0336600Y0114600D01*
X0343600Y0126600D02*
X0338600Y0131600D01*
X0329946Y0131600D01*
X0323254Y0131600D02*
X0315600Y0131600D01*
X0290600Y0129600D02*
X0290600Y0086600D01*
X0284600Y0086600D02*
X0284600Y0121600D01*
X0281600Y0125600D02*
X0281600Y0082600D01*
X0287600Y0082600D02*
X0287600Y0125600D01*
X0238017Y0137702D02*
X0233915Y0133600D01*
X0200915Y0133600D01*
X0196915Y0129600D01*
X0196915Y0114600D01*
X0105915Y0114600D01*
X0103915Y0116600D01*
X0083915Y0108600D02*
X0078915Y0113600D01*
X0076915Y0113600D01*
X0083915Y0108600D02*
X0147600Y0108600D01*
X0149600Y0110600D01*
X0121415Y0140100D02*
X0115915Y0134600D01*
X0099915Y0134600D01*
X0094230Y0140285D01*
X0094230Y0144100D01*
X0094230Y0139285D01*
X0104230Y0144100D02*
X0104230Y0159915D01*
X0107915Y0163600D01*
X0189915Y0163600D01*
X0198915Y0154600D01*
X0210915Y0154600D01*
X0212915Y0149600D02*
X0198915Y0149600D01*
X0188915Y0159600D01*
X0124415Y0159600D01*
X0121415Y0156600D01*
X0121415Y0140100D01*
X0124415Y0148100D02*
X0128915Y0152600D01*
X0181915Y0152600D01*
X0184915Y0148600D02*
X0130915Y0148600D01*
X0129915Y0147600D01*
X0133915Y0144600D02*
X0187915Y0144600D01*
X0190915Y0140600D02*
X0137915Y0140600D01*
X0166600Y0168915D02*
X0168415Y0167100D01*
X0180911Y0167100D01*
X0166600Y0168915D02*
X0166600Y0176600D01*
X0196600Y0176600D02*
X0196600Y0169600D01*
X0200600Y0165600D01*
X0209600Y0165600D01*
X0210600Y0166600D01*
X0210911Y0166600D01*
X0231411Y0161600D02*
X0236411Y0166600D01*
X0244915Y0166600D01*
X0246600Y0168285D01*
X0246600Y0176600D01*
X0241970Y0162600D02*
X0238017Y0158647D01*
X0238017Y0137702D01*
X0253915Y0158600D02*
X0254915Y0159600D01*
X0253915Y0158600D02*
X0253915Y0079600D01*
X0239915Y0091600D02*
X0101915Y0091600D01*
X0096915Y0086600D01*
X0096915Y0074946D01*
X0096915Y0068254D02*
X0096600Y0067939D01*
X0096600Y0056600D01*
X0106600Y0056600D02*
X0106600Y0067939D01*
X0106915Y0068254D01*
X0116600Y0067939D02*
X0116915Y0068254D01*
X0116600Y0067939D02*
X0116600Y0056600D01*
X0266600Y0056600D02*
X0266600Y0063600D01*
X0268600Y0065600D01*
X0285600Y0065600D01*
X0291600Y0071600D01*
X0334600Y0071600D01*
X0335600Y0069600D02*
X0343600Y0077600D01*
X0343600Y0126600D01*
X0356915Y0141600D02*
X0360915Y0141600D01*
X0367915Y0148600D01*
X0364915Y0149600D02*
X0366915Y0151600D01*
X0389415Y0151600D01*
X0391915Y0154100D01*
X0391915Y0160754D01*
X0381915Y0160754D02*
X0381915Y0156600D01*
X0379415Y0154100D01*
X0366915Y0154100D01*
X0366415Y0153600D01*
X0343474Y0153600D01*
X0338474Y0153600D02*
X0338474Y0160159D01*
X0339665Y0161350D01*
X0361319Y0161350D01*
X0361915Y0160754D01*
X0369415Y0156600D02*
X0349915Y0156600D01*
X0347915Y0158600D01*
X0361915Y0167446D02*
X0361915Y0176285D01*
X0361600Y0176600D01*
X0371600Y0176600D02*
X0371915Y0176285D01*
X0371915Y0167446D01*
X0381915Y0167446D02*
X0381915Y0176285D01*
X0381600Y0176600D01*
X0391600Y0176600D02*
X0391915Y0176285D01*
X0391915Y0167446D01*
X0371915Y0160754D02*
X0371915Y0159100D01*
X0369415Y0156600D01*
X0364915Y0149600D02*
X0332915Y0149600D01*
X0323915Y0162600D02*
X0241970Y0162600D01*
X0270946Y0092404D02*
X0271550Y0091800D01*
X0292600Y0069600D02*
X0335600Y0069600D01*
X0292600Y0069600D02*
X0286600Y0063600D01*
X0277600Y0063600D01*
X0276600Y0062600D01*
X0276600Y0056600D01*
D25*
X0207915Y0081600D02*
X0206915Y0082600D01*
X0207915Y0081600D02*
X0205446Y0081600D01*
X0206431Y0077159D02*
X0197769Y0077159D01*
X0191159Y0077159D01*
X0188600Y0074600D01*
X0226876Y0098198D02*
X0231513Y0098198D01*
X0232915Y0099600D01*
X0240513Y0103002D02*
X0240915Y0102600D01*
X0240513Y0103002D02*
X0240513Y0109474D01*
X0225915Y0115600D02*
X0225175Y0114860D01*
X0216954Y0114860D01*
X0211915Y0114860D02*
X0211915Y0122348D01*
X0211049Y0123214D01*
X0203529Y0123214D01*
X0201915Y0121600D01*
X0226513Y0137002D02*
X0226915Y0136600D01*
X0226513Y0137002D02*
X0226513Y0140639D01*
X0249513Y0141639D02*
X0249513Y0136002D01*
X0249915Y0135600D01*
X0261128Y0132734D02*
X0261360Y0132502D01*
X0267954Y0132502D01*
X0261954Y0109002D02*
X0257317Y0109002D01*
X0256915Y0108600D01*
X0257915Y0101600D02*
X0258100Y0101415D01*
X0258100Y0096446D01*
X0248915Y0099600D02*
X0248317Y0099002D01*
X0248317Y0093561D01*
X0378600Y0078809D02*
X0378891Y0079100D01*
X0391415Y0079100D01*
X0391915Y0079600D01*
X0388415Y0141100D02*
X0378809Y0141100D01*
X0378600Y0141309D01*
X0388415Y0141100D02*
X0389415Y0142100D01*
M02*
