G75*
%MOIN*%
%OFA0B0*%
%FSLAX25Y25*%
%IPPOS*%
%LPD*%
%AMOC8*
5,1,8,0,0,1.08239X$1,22.5*
%
%ADD10C,0.00000*%
%ADD11C,0.00300*%
%ADD12C,0.06000*%
%ADD13R,0.04331X0.03937*%
%ADD14R,0.01400X0.05200*%
%ADD15R,0.04724X0.02165*%
%ADD16R,0.03937X0.04331*%
%ADD17C,0.03937*%
%ADD18C,0.08250*%
%ADD19R,0.02600X0.08000*%
%ADD20C,0.01000*%
%ADD21C,0.02362*%
%ADD22C,0.02953*%
%ADD23C,0.01600*%
D10*
X0047248Y0035000D02*
X0240161Y0035000D01*
X0234255Y0050748D02*
X0234257Y0050901D01*
X0234263Y0051055D01*
X0234273Y0051208D01*
X0234287Y0051360D01*
X0234305Y0051513D01*
X0234327Y0051664D01*
X0234352Y0051815D01*
X0234382Y0051966D01*
X0234416Y0052116D01*
X0234453Y0052264D01*
X0234494Y0052412D01*
X0234539Y0052558D01*
X0234588Y0052704D01*
X0234641Y0052848D01*
X0234697Y0052990D01*
X0234757Y0053131D01*
X0234821Y0053271D01*
X0234888Y0053409D01*
X0234959Y0053545D01*
X0235034Y0053679D01*
X0235111Y0053811D01*
X0235193Y0053941D01*
X0235277Y0054069D01*
X0235365Y0054195D01*
X0235456Y0054318D01*
X0235550Y0054439D01*
X0235648Y0054557D01*
X0235748Y0054673D01*
X0235852Y0054786D01*
X0235958Y0054897D01*
X0236067Y0055005D01*
X0236179Y0055110D01*
X0236293Y0055211D01*
X0236411Y0055310D01*
X0236530Y0055406D01*
X0236652Y0055499D01*
X0236777Y0055588D01*
X0236904Y0055675D01*
X0237033Y0055757D01*
X0237164Y0055837D01*
X0237297Y0055913D01*
X0237432Y0055986D01*
X0237569Y0056055D01*
X0237708Y0056120D01*
X0237848Y0056182D01*
X0237990Y0056240D01*
X0238133Y0056295D01*
X0238278Y0056346D01*
X0238424Y0056393D01*
X0238571Y0056436D01*
X0238719Y0056475D01*
X0238868Y0056511D01*
X0239018Y0056542D01*
X0239169Y0056570D01*
X0239320Y0056594D01*
X0239473Y0056614D01*
X0239625Y0056630D01*
X0239778Y0056642D01*
X0239931Y0056650D01*
X0240084Y0056654D01*
X0240238Y0056654D01*
X0240391Y0056650D01*
X0240544Y0056642D01*
X0240697Y0056630D01*
X0240849Y0056614D01*
X0241002Y0056594D01*
X0241153Y0056570D01*
X0241304Y0056542D01*
X0241454Y0056511D01*
X0241603Y0056475D01*
X0241751Y0056436D01*
X0241898Y0056393D01*
X0242044Y0056346D01*
X0242189Y0056295D01*
X0242332Y0056240D01*
X0242474Y0056182D01*
X0242614Y0056120D01*
X0242753Y0056055D01*
X0242890Y0055986D01*
X0243025Y0055913D01*
X0243158Y0055837D01*
X0243289Y0055757D01*
X0243418Y0055675D01*
X0243545Y0055588D01*
X0243670Y0055499D01*
X0243792Y0055406D01*
X0243911Y0055310D01*
X0244029Y0055211D01*
X0244143Y0055110D01*
X0244255Y0055005D01*
X0244364Y0054897D01*
X0244470Y0054786D01*
X0244574Y0054673D01*
X0244674Y0054557D01*
X0244772Y0054439D01*
X0244866Y0054318D01*
X0244957Y0054195D01*
X0245045Y0054069D01*
X0245129Y0053941D01*
X0245211Y0053811D01*
X0245288Y0053679D01*
X0245363Y0053545D01*
X0245434Y0053409D01*
X0245501Y0053271D01*
X0245565Y0053131D01*
X0245625Y0052990D01*
X0245681Y0052848D01*
X0245734Y0052704D01*
X0245783Y0052558D01*
X0245828Y0052412D01*
X0245869Y0052264D01*
X0245906Y0052116D01*
X0245940Y0051966D01*
X0245970Y0051815D01*
X0245995Y0051664D01*
X0246017Y0051513D01*
X0246035Y0051360D01*
X0246049Y0051208D01*
X0246059Y0051055D01*
X0246065Y0050901D01*
X0246067Y0050748D01*
X0246065Y0050595D01*
X0246059Y0050441D01*
X0246049Y0050288D01*
X0246035Y0050136D01*
X0246017Y0049983D01*
X0245995Y0049832D01*
X0245970Y0049681D01*
X0245940Y0049530D01*
X0245906Y0049380D01*
X0245869Y0049232D01*
X0245828Y0049084D01*
X0245783Y0048938D01*
X0245734Y0048792D01*
X0245681Y0048648D01*
X0245625Y0048506D01*
X0245565Y0048365D01*
X0245501Y0048225D01*
X0245434Y0048087D01*
X0245363Y0047951D01*
X0245288Y0047817D01*
X0245211Y0047685D01*
X0245129Y0047555D01*
X0245045Y0047427D01*
X0244957Y0047301D01*
X0244866Y0047178D01*
X0244772Y0047057D01*
X0244674Y0046939D01*
X0244574Y0046823D01*
X0244470Y0046710D01*
X0244364Y0046599D01*
X0244255Y0046491D01*
X0244143Y0046386D01*
X0244029Y0046285D01*
X0243911Y0046186D01*
X0243792Y0046090D01*
X0243670Y0045997D01*
X0243545Y0045908D01*
X0243418Y0045821D01*
X0243289Y0045739D01*
X0243158Y0045659D01*
X0243025Y0045583D01*
X0242890Y0045510D01*
X0242753Y0045441D01*
X0242614Y0045376D01*
X0242474Y0045314D01*
X0242332Y0045256D01*
X0242189Y0045201D01*
X0242044Y0045150D01*
X0241898Y0045103D01*
X0241751Y0045060D01*
X0241603Y0045021D01*
X0241454Y0044985D01*
X0241304Y0044954D01*
X0241153Y0044926D01*
X0241002Y0044902D01*
X0240849Y0044882D01*
X0240697Y0044866D01*
X0240544Y0044854D01*
X0240391Y0044846D01*
X0240238Y0044842D01*
X0240084Y0044842D01*
X0239931Y0044846D01*
X0239778Y0044854D01*
X0239625Y0044866D01*
X0239473Y0044882D01*
X0239320Y0044902D01*
X0239169Y0044926D01*
X0239018Y0044954D01*
X0238868Y0044985D01*
X0238719Y0045021D01*
X0238571Y0045060D01*
X0238424Y0045103D01*
X0238278Y0045150D01*
X0238133Y0045201D01*
X0237990Y0045256D01*
X0237848Y0045314D01*
X0237708Y0045376D01*
X0237569Y0045441D01*
X0237432Y0045510D01*
X0237297Y0045583D01*
X0237164Y0045659D01*
X0237033Y0045739D01*
X0236904Y0045821D01*
X0236777Y0045908D01*
X0236652Y0045997D01*
X0236530Y0046090D01*
X0236411Y0046186D01*
X0236293Y0046285D01*
X0236179Y0046386D01*
X0236067Y0046491D01*
X0235958Y0046599D01*
X0235852Y0046710D01*
X0235748Y0046823D01*
X0235648Y0046939D01*
X0235550Y0047057D01*
X0235456Y0047178D01*
X0235365Y0047301D01*
X0235277Y0047427D01*
X0235193Y0047555D01*
X0235111Y0047685D01*
X0235034Y0047817D01*
X0234959Y0047951D01*
X0234888Y0048087D01*
X0234821Y0048225D01*
X0234757Y0048365D01*
X0234697Y0048506D01*
X0234641Y0048648D01*
X0234588Y0048792D01*
X0234539Y0048938D01*
X0234494Y0049084D01*
X0234453Y0049232D01*
X0234416Y0049380D01*
X0234382Y0049530D01*
X0234352Y0049681D01*
X0234327Y0049832D01*
X0234305Y0049983D01*
X0234287Y0050136D01*
X0234273Y0050288D01*
X0234263Y0050441D01*
X0234257Y0050595D01*
X0234255Y0050748D01*
X0240161Y0035000D02*
X0240542Y0035005D01*
X0240922Y0035018D01*
X0241302Y0035041D01*
X0241681Y0035074D01*
X0242059Y0035115D01*
X0242436Y0035165D01*
X0242812Y0035225D01*
X0243187Y0035293D01*
X0243559Y0035371D01*
X0243930Y0035458D01*
X0244298Y0035553D01*
X0244664Y0035658D01*
X0245027Y0035771D01*
X0245388Y0035893D01*
X0245745Y0036023D01*
X0246099Y0036163D01*
X0246450Y0036310D01*
X0246797Y0036467D01*
X0247140Y0036631D01*
X0247479Y0036804D01*
X0247814Y0036985D01*
X0248145Y0037174D01*
X0248470Y0037371D01*
X0248791Y0037575D01*
X0249107Y0037788D01*
X0249417Y0038008D01*
X0249723Y0038235D01*
X0250022Y0038470D01*
X0250316Y0038712D01*
X0250604Y0038960D01*
X0250886Y0039216D01*
X0251161Y0039479D01*
X0251430Y0039748D01*
X0251693Y0040023D01*
X0251949Y0040305D01*
X0252197Y0040593D01*
X0252439Y0040887D01*
X0252674Y0041186D01*
X0252901Y0041492D01*
X0253121Y0041802D01*
X0253334Y0042118D01*
X0253538Y0042439D01*
X0253735Y0042764D01*
X0253924Y0043095D01*
X0254105Y0043430D01*
X0254278Y0043769D01*
X0254442Y0044112D01*
X0254599Y0044459D01*
X0254746Y0044810D01*
X0254886Y0045164D01*
X0255016Y0045521D01*
X0255138Y0045882D01*
X0255251Y0046245D01*
X0255356Y0046611D01*
X0255451Y0046979D01*
X0255538Y0047350D01*
X0255616Y0047722D01*
X0255684Y0048097D01*
X0255744Y0048473D01*
X0255794Y0048850D01*
X0255835Y0049228D01*
X0255868Y0049607D01*
X0255891Y0049987D01*
X0255904Y0050367D01*
X0255909Y0050748D01*
X0255909Y0180669D01*
X0234255Y0180669D02*
X0234257Y0180822D01*
X0234263Y0180976D01*
X0234273Y0181129D01*
X0234287Y0181281D01*
X0234305Y0181434D01*
X0234327Y0181585D01*
X0234352Y0181736D01*
X0234382Y0181887D01*
X0234416Y0182037D01*
X0234453Y0182185D01*
X0234494Y0182333D01*
X0234539Y0182479D01*
X0234588Y0182625D01*
X0234641Y0182769D01*
X0234697Y0182911D01*
X0234757Y0183052D01*
X0234821Y0183192D01*
X0234888Y0183330D01*
X0234959Y0183466D01*
X0235034Y0183600D01*
X0235111Y0183732D01*
X0235193Y0183862D01*
X0235277Y0183990D01*
X0235365Y0184116D01*
X0235456Y0184239D01*
X0235550Y0184360D01*
X0235648Y0184478D01*
X0235748Y0184594D01*
X0235852Y0184707D01*
X0235958Y0184818D01*
X0236067Y0184926D01*
X0236179Y0185031D01*
X0236293Y0185132D01*
X0236411Y0185231D01*
X0236530Y0185327D01*
X0236652Y0185420D01*
X0236777Y0185509D01*
X0236904Y0185596D01*
X0237033Y0185678D01*
X0237164Y0185758D01*
X0237297Y0185834D01*
X0237432Y0185907D01*
X0237569Y0185976D01*
X0237708Y0186041D01*
X0237848Y0186103D01*
X0237990Y0186161D01*
X0238133Y0186216D01*
X0238278Y0186267D01*
X0238424Y0186314D01*
X0238571Y0186357D01*
X0238719Y0186396D01*
X0238868Y0186432D01*
X0239018Y0186463D01*
X0239169Y0186491D01*
X0239320Y0186515D01*
X0239473Y0186535D01*
X0239625Y0186551D01*
X0239778Y0186563D01*
X0239931Y0186571D01*
X0240084Y0186575D01*
X0240238Y0186575D01*
X0240391Y0186571D01*
X0240544Y0186563D01*
X0240697Y0186551D01*
X0240849Y0186535D01*
X0241002Y0186515D01*
X0241153Y0186491D01*
X0241304Y0186463D01*
X0241454Y0186432D01*
X0241603Y0186396D01*
X0241751Y0186357D01*
X0241898Y0186314D01*
X0242044Y0186267D01*
X0242189Y0186216D01*
X0242332Y0186161D01*
X0242474Y0186103D01*
X0242614Y0186041D01*
X0242753Y0185976D01*
X0242890Y0185907D01*
X0243025Y0185834D01*
X0243158Y0185758D01*
X0243289Y0185678D01*
X0243418Y0185596D01*
X0243545Y0185509D01*
X0243670Y0185420D01*
X0243792Y0185327D01*
X0243911Y0185231D01*
X0244029Y0185132D01*
X0244143Y0185031D01*
X0244255Y0184926D01*
X0244364Y0184818D01*
X0244470Y0184707D01*
X0244574Y0184594D01*
X0244674Y0184478D01*
X0244772Y0184360D01*
X0244866Y0184239D01*
X0244957Y0184116D01*
X0245045Y0183990D01*
X0245129Y0183862D01*
X0245211Y0183732D01*
X0245288Y0183600D01*
X0245363Y0183466D01*
X0245434Y0183330D01*
X0245501Y0183192D01*
X0245565Y0183052D01*
X0245625Y0182911D01*
X0245681Y0182769D01*
X0245734Y0182625D01*
X0245783Y0182479D01*
X0245828Y0182333D01*
X0245869Y0182185D01*
X0245906Y0182037D01*
X0245940Y0181887D01*
X0245970Y0181736D01*
X0245995Y0181585D01*
X0246017Y0181434D01*
X0246035Y0181281D01*
X0246049Y0181129D01*
X0246059Y0180976D01*
X0246065Y0180822D01*
X0246067Y0180669D01*
X0246065Y0180516D01*
X0246059Y0180362D01*
X0246049Y0180209D01*
X0246035Y0180057D01*
X0246017Y0179904D01*
X0245995Y0179753D01*
X0245970Y0179602D01*
X0245940Y0179451D01*
X0245906Y0179301D01*
X0245869Y0179153D01*
X0245828Y0179005D01*
X0245783Y0178859D01*
X0245734Y0178713D01*
X0245681Y0178569D01*
X0245625Y0178427D01*
X0245565Y0178286D01*
X0245501Y0178146D01*
X0245434Y0178008D01*
X0245363Y0177872D01*
X0245288Y0177738D01*
X0245211Y0177606D01*
X0245129Y0177476D01*
X0245045Y0177348D01*
X0244957Y0177222D01*
X0244866Y0177099D01*
X0244772Y0176978D01*
X0244674Y0176860D01*
X0244574Y0176744D01*
X0244470Y0176631D01*
X0244364Y0176520D01*
X0244255Y0176412D01*
X0244143Y0176307D01*
X0244029Y0176206D01*
X0243911Y0176107D01*
X0243792Y0176011D01*
X0243670Y0175918D01*
X0243545Y0175829D01*
X0243418Y0175742D01*
X0243289Y0175660D01*
X0243158Y0175580D01*
X0243025Y0175504D01*
X0242890Y0175431D01*
X0242753Y0175362D01*
X0242614Y0175297D01*
X0242474Y0175235D01*
X0242332Y0175177D01*
X0242189Y0175122D01*
X0242044Y0175071D01*
X0241898Y0175024D01*
X0241751Y0174981D01*
X0241603Y0174942D01*
X0241454Y0174906D01*
X0241304Y0174875D01*
X0241153Y0174847D01*
X0241002Y0174823D01*
X0240849Y0174803D01*
X0240697Y0174787D01*
X0240544Y0174775D01*
X0240391Y0174767D01*
X0240238Y0174763D01*
X0240084Y0174763D01*
X0239931Y0174767D01*
X0239778Y0174775D01*
X0239625Y0174787D01*
X0239473Y0174803D01*
X0239320Y0174823D01*
X0239169Y0174847D01*
X0239018Y0174875D01*
X0238868Y0174906D01*
X0238719Y0174942D01*
X0238571Y0174981D01*
X0238424Y0175024D01*
X0238278Y0175071D01*
X0238133Y0175122D01*
X0237990Y0175177D01*
X0237848Y0175235D01*
X0237708Y0175297D01*
X0237569Y0175362D01*
X0237432Y0175431D01*
X0237297Y0175504D01*
X0237164Y0175580D01*
X0237033Y0175660D01*
X0236904Y0175742D01*
X0236777Y0175829D01*
X0236652Y0175918D01*
X0236530Y0176011D01*
X0236411Y0176107D01*
X0236293Y0176206D01*
X0236179Y0176307D01*
X0236067Y0176412D01*
X0235958Y0176520D01*
X0235852Y0176631D01*
X0235748Y0176744D01*
X0235648Y0176860D01*
X0235550Y0176978D01*
X0235456Y0177099D01*
X0235365Y0177222D01*
X0235277Y0177348D01*
X0235193Y0177476D01*
X0235111Y0177606D01*
X0235034Y0177738D01*
X0234959Y0177872D01*
X0234888Y0178008D01*
X0234821Y0178146D01*
X0234757Y0178286D01*
X0234697Y0178427D01*
X0234641Y0178569D01*
X0234588Y0178713D01*
X0234539Y0178859D01*
X0234494Y0179005D01*
X0234453Y0179153D01*
X0234416Y0179301D01*
X0234382Y0179451D01*
X0234352Y0179602D01*
X0234327Y0179753D01*
X0234305Y0179904D01*
X0234287Y0180057D01*
X0234273Y0180209D01*
X0234263Y0180362D01*
X0234257Y0180516D01*
X0234255Y0180669D01*
X0240161Y0196417D02*
X0240542Y0196412D01*
X0240922Y0196399D01*
X0241302Y0196376D01*
X0241681Y0196343D01*
X0242059Y0196302D01*
X0242436Y0196252D01*
X0242812Y0196192D01*
X0243187Y0196124D01*
X0243559Y0196046D01*
X0243930Y0195959D01*
X0244298Y0195864D01*
X0244664Y0195759D01*
X0245027Y0195646D01*
X0245388Y0195524D01*
X0245745Y0195394D01*
X0246099Y0195254D01*
X0246450Y0195107D01*
X0246797Y0194950D01*
X0247140Y0194786D01*
X0247479Y0194613D01*
X0247814Y0194432D01*
X0248145Y0194243D01*
X0248470Y0194046D01*
X0248791Y0193842D01*
X0249107Y0193629D01*
X0249417Y0193409D01*
X0249723Y0193182D01*
X0250022Y0192947D01*
X0250316Y0192705D01*
X0250604Y0192457D01*
X0250886Y0192201D01*
X0251161Y0191938D01*
X0251430Y0191669D01*
X0251693Y0191394D01*
X0251949Y0191112D01*
X0252197Y0190824D01*
X0252439Y0190530D01*
X0252674Y0190231D01*
X0252901Y0189925D01*
X0253121Y0189615D01*
X0253334Y0189299D01*
X0253538Y0188978D01*
X0253735Y0188653D01*
X0253924Y0188322D01*
X0254105Y0187987D01*
X0254278Y0187648D01*
X0254442Y0187305D01*
X0254599Y0186958D01*
X0254746Y0186607D01*
X0254886Y0186253D01*
X0255016Y0185896D01*
X0255138Y0185535D01*
X0255251Y0185172D01*
X0255356Y0184806D01*
X0255451Y0184438D01*
X0255538Y0184067D01*
X0255616Y0183695D01*
X0255684Y0183320D01*
X0255744Y0182944D01*
X0255794Y0182567D01*
X0255835Y0182189D01*
X0255868Y0181810D01*
X0255891Y0181430D01*
X0255904Y0181050D01*
X0255909Y0180669D01*
X0240161Y0196417D02*
X0047248Y0196417D01*
X0041342Y0180669D02*
X0041344Y0180822D01*
X0041350Y0180976D01*
X0041360Y0181129D01*
X0041374Y0181281D01*
X0041392Y0181434D01*
X0041414Y0181585D01*
X0041439Y0181736D01*
X0041469Y0181887D01*
X0041503Y0182037D01*
X0041540Y0182185D01*
X0041581Y0182333D01*
X0041626Y0182479D01*
X0041675Y0182625D01*
X0041728Y0182769D01*
X0041784Y0182911D01*
X0041844Y0183052D01*
X0041908Y0183192D01*
X0041975Y0183330D01*
X0042046Y0183466D01*
X0042121Y0183600D01*
X0042198Y0183732D01*
X0042280Y0183862D01*
X0042364Y0183990D01*
X0042452Y0184116D01*
X0042543Y0184239D01*
X0042637Y0184360D01*
X0042735Y0184478D01*
X0042835Y0184594D01*
X0042939Y0184707D01*
X0043045Y0184818D01*
X0043154Y0184926D01*
X0043266Y0185031D01*
X0043380Y0185132D01*
X0043498Y0185231D01*
X0043617Y0185327D01*
X0043739Y0185420D01*
X0043864Y0185509D01*
X0043991Y0185596D01*
X0044120Y0185678D01*
X0044251Y0185758D01*
X0044384Y0185834D01*
X0044519Y0185907D01*
X0044656Y0185976D01*
X0044795Y0186041D01*
X0044935Y0186103D01*
X0045077Y0186161D01*
X0045220Y0186216D01*
X0045365Y0186267D01*
X0045511Y0186314D01*
X0045658Y0186357D01*
X0045806Y0186396D01*
X0045955Y0186432D01*
X0046105Y0186463D01*
X0046256Y0186491D01*
X0046407Y0186515D01*
X0046560Y0186535D01*
X0046712Y0186551D01*
X0046865Y0186563D01*
X0047018Y0186571D01*
X0047171Y0186575D01*
X0047325Y0186575D01*
X0047478Y0186571D01*
X0047631Y0186563D01*
X0047784Y0186551D01*
X0047936Y0186535D01*
X0048089Y0186515D01*
X0048240Y0186491D01*
X0048391Y0186463D01*
X0048541Y0186432D01*
X0048690Y0186396D01*
X0048838Y0186357D01*
X0048985Y0186314D01*
X0049131Y0186267D01*
X0049276Y0186216D01*
X0049419Y0186161D01*
X0049561Y0186103D01*
X0049701Y0186041D01*
X0049840Y0185976D01*
X0049977Y0185907D01*
X0050112Y0185834D01*
X0050245Y0185758D01*
X0050376Y0185678D01*
X0050505Y0185596D01*
X0050632Y0185509D01*
X0050757Y0185420D01*
X0050879Y0185327D01*
X0050998Y0185231D01*
X0051116Y0185132D01*
X0051230Y0185031D01*
X0051342Y0184926D01*
X0051451Y0184818D01*
X0051557Y0184707D01*
X0051661Y0184594D01*
X0051761Y0184478D01*
X0051859Y0184360D01*
X0051953Y0184239D01*
X0052044Y0184116D01*
X0052132Y0183990D01*
X0052216Y0183862D01*
X0052298Y0183732D01*
X0052375Y0183600D01*
X0052450Y0183466D01*
X0052521Y0183330D01*
X0052588Y0183192D01*
X0052652Y0183052D01*
X0052712Y0182911D01*
X0052768Y0182769D01*
X0052821Y0182625D01*
X0052870Y0182479D01*
X0052915Y0182333D01*
X0052956Y0182185D01*
X0052993Y0182037D01*
X0053027Y0181887D01*
X0053057Y0181736D01*
X0053082Y0181585D01*
X0053104Y0181434D01*
X0053122Y0181281D01*
X0053136Y0181129D01*
X0053146Y0180976D01*
X0053152Y0180822D01*
X0053154Y0180669D01*
X0053152Y0180516D01*
X0053146Y0180362D01*
X0053136Y0180209D01*
X0053122Y0180057D01*
X0053104Y0179904D01*
X0053082Y0179753D01*
X0053057Y0179602D01*
X0053027Y0179451D01*
X0052993Y0179301D01*
X0052956Y0179153D01*
X0052915Y0179005D01*
X0052870Y0178859D01*
X0052821Y0178713D01*
X0052768Y0178569D01*
X0052712Y0178427D01*
X0052652Y0178286D01*
X0052588Y0178146D01*
X0052521Y0178008D01*
X0052450Y0177872D01*
X0052375Y0177738D01*
X0052298Y0177606D01*
X0052216Y0177476D01*
X0052132Y0177348D01*
X0052044Y0177222D01*
X0051953Y0177099D01*
X0051859Y0176978D01*
X0051761Y0176860D01*
X0051661Y0176744D01*
X0051557Y0176631D01*
X0051451Y0176520D01*
X0051342Y0176412D01*
X0051230Y0176307D01*
X0051116Y0176206D01*
X0050998Y0176107D01*
X0050879Y0176011D01*
X0050757Y0175918D01*
X0050632Y0175829D01*
X0050505Y0175742D01*
X0050376Y0175660D01*
X0050245Y0175580D01*
X0050112Y0175504D01*
X0049977Y0175431D01*
X0049840Y0175362D01*
X0049701Y0175297D01*
X0049561Y0175235D01*
X0049419Y0175177D01*
X0049276Y0175122D01*
X0049131Y0175071D01*
X0048985Y0175024D01*
X0048838Y0174981D01*
X0048690Y0174942D01*
X0048541Y0174906D01*
X0048391Y0174875D01*
X0048240Y0174847D01*
X0048089Y0174823D01*
X0047936Y0174803D01*
X0047784Y0174787D01*
X0047631Y0174775D01*
X0047478Y0174767D01*
X0047325Y0174763D01*
X0047171Y0174763D01*
X0047018Y0174767D01*
X0046865Y0174775D01*
X0046712Y0174787D01*
X0046560Y0174803D01*
X0046407Y0174823D01*
X0046256Y0174847D01*
X0046105Y0174875D01*
X0045955Y0174906D01*
X0045806Y0174942D01*
X0045658Y0174981D01*
X0045511Y0175024D01*
X0045365Y0175071D01*
X0045220Y0175122D01*
X0045077Y0175177D01*
X0044935Y0175235D01*
X0044795Y0175297D01*
X0044656Y0175362D01*
X0044519Y0175431D01*
X0044384Y0175504D01*
X0044251Y0175580D01*
X0044120Y0175660D01*
X0043991Y0175742D01*
X0043864Y0175829D01*
X0043739Y0175918D01*
X0043617Y0176011D01*
X0043498Y0176107D01*
X0043380Y0176206D01*
X0043266Y0176307D01*
X0043154Y0176412D01*
X0043045Y0176520D01*
X0042939Y0176631D01*
X0042835Y0176744D01*
X0042735Y0176860D01*
X0042637Y0176978D01*
X0042543Y0177099D01*
X0042452Y0177222D01*
X0042364Y0177348D01*
X0042280Y0177476D01*
X0042198Y0177606D01*
X0042121Y0177738D01*
X0042046Y0177872D01*
X0041975Y0178008D01*
X0041908Y0178146D01*
X0041844Y0178286D01*
X0041784Y0178427D01*
X0041728Y0178569D01*
X0041675Y0178713D01*
X0041626Y0178859D01*
X0041581Y0179005D01*
X0041540Y0179153D01*
X0041503Y0179301D01*
X0041469Y0179451D01*
X0041439Y0179602D01*
X0041414Y0179753D01*
X0041392Y0179904D01*
X0041374Y0180057D01*
X0041360Y0180209D01*
X0041350Y0180362D01*
X0041344Y0180516D01*
X0041342Y0180669D01*
X0031500Y0180669D02*
X0031505Y0181050D01*
X0031518Y0181430D01*
X0031541Y0181810D01*
X0031574Y0182189D01*
X0031615Y0182567D01*
X0031665Y0182944D01*
X0031725Y0183320D01*
X0031793Y0183695D01*
X0031871Y0184067D01*
X0031958Y0184438D01*
X0032053Y0184806D01*
X0032158Y0185172D01*
X0032271Y0185535D01*
X0032393Y0185896D01*
X0032523Y0186253D01*
X0032663Y0186607D01*
X0032810Y0186958D01*
X0032967Y0187305D01*
X0033131Y0187648D01*
X0033304Y0187987D01*
X0033485Y0188322D01*
X0033674Y0188653D01*
X0033871Y0188978D01*
X0034075Y0189299D01*
X0034288Y0189615D01*
X0034508Y0189925D01*
X0034735Y0190231D01*
X0034970Y0190530D01*
X0035212Y0190824D01*
X0035460Y0191112D01*
X0035716Y0191394D01*
X0035979Y0191669D01*
X0036248Y0191938D01*
X0036523Y0192201D01*
X0036805Y0192457D01*
X0037093Y0192705D01*
X0037387Y0192947D01*
X0037686Y0193182D01*
X0037992Y0193409D01*
X0038302Y0193629D01*
X0038618Y0193842D01*
X0038939Y0194046D01*
X0039264Y0194243D01*
X0039595Y0194432D01*
X0039930Y0194613D01*
X0040269Y0194786D01*
X0040612Y0194950D01*
X0040959Y0195107D01*
X0041310Y0195254D01*
X0041664Y0195394D01*
X0042021Y0195524D01*
X0042382Y0195646D01*
X0042745Y0195759D01*
X0043111Y0195864D01*
X0043479Y0195959D01*
X0043850Y0196046D01*
X0044222Y0196124D01*
X0044597Y0196192D01*
X0044973Y0196252D01*
X0045350Y0196302D01*
X0045728Y0196343D01*
X0046107Y0196376D01*
X0046487Y0196399D01*
X0046867Y0196412D01*
X0047248Y0196417D01*
X0031500Y0180669D02*
X0031500Y0050748D01*
X0041342Y0050748D02*
X0041344Y0050901D01*
X0041350Y0051055D01*
X0041360Y0051208D01*
X0041374Y0051360D01*
X0041392Y0051513D01*
X0041414Y0051664D01*
X0041439Y0051815D01*
X0041469Y0051966D01*
X0041503Y0052116D01*
X0041540Y0052264D01*
X0041581Y0052412D01*
X0041626Y0052558D01*
X0041675Y0052704D01*
X0041728Y0052848D01*
X0041784Y0052990D01*
X0041844Y0053131D01*
X0041908Y0053271D01*
X0041975Y0053409D01*
X0042046Y0053545D01*
X0042121Y0053679D01*
X0042198Y0053811D01*
X0042280Y0053941D01*
X0042364Y0054069D01*
X0042452Y0054195D01*
X0042543Y0054318D01*
X0042637Y0054439D01*
X0042735Y0054557D01*
X0042835Y0054673D01*
X0042939Y0054786D01*
X0043045Y0054897D01*
X0043154Y0055005D01*
X0043266Y0055110D01*
X0043380Y0055211D01*
X0043498Y0055310D01*
X0043617Y0055406D01*
X0043739Y0055499D01*
X0043864Y0055588D01*
X0043991Y0055675D01*
X0044120Y0055757D01*
X0044251Y0055837D01*
X0044384Y0055913D01*
X0044519Y0055986D01*
X0044656Y0056055D01*
X0044795Y0056120D01*
X0044935Y0056182D01*
X0045077Y0056240D01*
X0045220Y0056295D01*
X0045365Y0056346D01*
X0045511Y0056393D01*
X0045658Y0056436D01*
X0045806Y0056475D01*
X0045955Y0056511D01*
X0046105Y0056542D01*
X0046256Y0056570D01*
X0046407Y0056594D01*
X0046560Y0056614D01*
X0046712Y0056630D01*
X0046865Y0056642D01*
X0047018Y0056650D01*
X0047171Y0056654D01*
X0047325Y0056654D01*
X0047478Y0056650D01*
X0047631Y0056642D01*
X0047784Y0056630D01*
X0047936Y0056614D01*
X0048089Y0056594D01*
X0048240Y0056570D01*
X0048391Y0056542D01*
X0048541Y0056511D01*
X0048690Y0056475D01*
X0048838Y0056436D01*
X0048985Y0056393D01*
X0049131Y0056346D01*
X0049276Y0056295D01*
X0049419Y0056240D01*
X0049561Y0056182D01*
X0049701Y0056120D01*
X0049840Y0056055D01*
X0049977Y0055986D01*
X0050112Y0055913D01*
X0050245Y0055837D01*
X0050376Y0055757D01*
X0050505Y0055675D01*
X0050632Y0055588D01*
X0050757Y0055499D01*
X0050879Y0055406D01*
X0050998Y0055310D01*
X0051116Y0055211D01*
X0051230Y0055110D01*
X0051342Y0055005D01*
X0051451Y0054897D01*
X0051557Y0054786D01*
X0051661Y0054673D01*
X0051761Y0054557D01*
X0051859Y0054439D01*
X0051953Y0054318D01*
X0052044Y0054195D01*
X0052132Y0054069D01*
X0052216Y0053941D01*
X0052298Y0053811D01*
X0052375Y0053679D01*
X0052450Y0053545D01*
X0052521Y0053409D01*
X0052588Y0053271D01*
X0052652Y0053131D01*
X0052712Y0052990D01*
X0052768Y0052848D01*
X0052821Y0052704D01*
X0052870Y0052558D01*
X0052915Y0052412D01*
X0052956Y0052264D01*
X0052993Y0052116D01*
X0053027Y0051966D01*
X0053057Y0051815D01*
X0053082Y0051664D01*
X0053104Y0051513D01*
X0053122Y0051360D01*
X0053136Y0051208D01*
X0053146Y0051055D01*
X0053152Y0050901D01*
X0053154Y0050748D01*
X0053152Y0050595D01*
X0053146Y0050441D01*
X0053136Y0050288D01*
X0053122Y0050136D01*
X0053104Y0049983D01*
X0053082Y0049832D01*
X0053057Y0049681D01*
X0053027Y0049530D01*
X0052993Y0049380D01*
X0052956Y0049232D01*
X0052915Y0049084D01*
X0052870Y0048938D01*
X0052821Y0048792D01*
X0052768Y0048648D01*
X0052712Y0048506D01*
X0052652Y0048365D01*
X0052588Y0048225D01*
X0052521Y0048087D01*
X0052450Y0047951D01*
X0052375Y0047817D01*
X0052298Y0047685D01*
X0052216Y0047555D01*
X0052132Y0047427D01*
X0052044Y0047301D01*
X0051953Y0047178D01*
X0051859Y0047057D01*
X0051761Y0046939D01*
X0051661Y0046823D01*
X0051557Y0046710D01*
X0051451Y0046599D01*
X0051342Y0046491D01*
X0051230Y0046386D01*
X0051116Y0046285D01*
X0050998Y0046186D01*
X0050879Y0046090D01*
X0050757Y0045997D01*
X0050632Y0045908D01*
X0050505Y0045821D01*
X0050376Y0045739D01*
X0050245Y0045659D01*
X0050112Y0045583D01*
X0049977Y0045510D01*
X0049840Y0045441D01*
X0049701Y0045376D01*
X0049561Y0045314D01*
X0049419Y0045256D01*
X0049276Y0045201D01*
X0049131Y0045150D01*
X0048985Y0045103D01*
X0048838Y0045060D01*
X0048690Y0045021D01*
X0048541Y0044985D01*
X0048391Y0044954D01*
X0048240Y0044926D01*
X0048089Y0044902D01*
X0047936Y0044882D01*
X0047784Y0044866D01*
X0047631Y0044854D01*
X0047478Y0044846D01*
X0047325Y0044842D01*
X0047171Y0044842D01*
X0047018Y0044846D01*
X0046865Y0044854D01*
X0046712Y0044866D01*
X0046560Y0044882D01*
X0046407Y0044902D01*
X0046256Y0044926D01*
X0046105Y0044954D01*
X0045955Y0044985D01*
X0045806Y0045021D01*
X0045658Y0045060D01*
X0045511Y0045103D01*
X0045365Y0045150D01*
X0045220Y0045201D01*
X0045077Y0045256D01*
X0044935Y0045314D01*
X0044795Y0045376D01*
X0044656Y0045441D01*
X0044519Y0045510D01*
X0044384Y0045583D01*
X0044251Y0045659D01*
X0044120Y0045739D01*
X0043991Y0045821D01*
X0043864Y0045908D01*
X0043739Y0045997D01*
X0043617Y0046090D01*
X0043498Y0046186D01*
X0043380Y0046285D01*
X0043266Y0046386D01*
X0043154Y0046491D01*
X0043045Y0046599D01*
X0042939Y0046710D01*
X0042835Y0046823D01*
X0042735Y0046939D01*
X0042637Y0047057D01*
X0042543Y0047178D01*
X0042452Y0047301D01*
X0042364Y0047427D01*
X0042280Y0047555D01*
X0042198Y0047685D01*
X0042121Y0047817D01*
X0042046Y0047951D01*
X0041975Y0048087D01*
X0041908Y0048225D01*
X0041844Y0048365D01*
X0041784Y0048506D01*
X0041728Y0048648D01*
X0041675Y0048792D01*
X0041626Y0048938D01*
X0041581Y0049084D01*
X0041540Y0049232D01*
X0041503Y0049380D01*
X0041469Y0049530D01*
X0041439Y0049681D01*
X0041414Y0049832D01*
X0041392Y0049983D01*
X0041374Y0050136D01*
X0041360Y0050288D01*
X0041350Y0050441D01*
X0041344Y0050595D01*
X0041342Y0050748D01*
X0031500Y0050748D02*
X0031505Y0050367D01*
X0031518Y0049987D01*
X0031541Y0049607D01*
X0031574Y0049228D01*
X0031615Y0048850D01*
X0031665Y0048473D01*
X0031725Y0048097D01*
X0031793Y0047722D01*
X0031871Y0047350D01*
X0031958Y0046979D01*
X0032053Y0046611D01*
X0032158Y0046245D01*
X0032271Y0045882D01*
X0032393Y0045521D01*
X0032523Y0045164D01*
X0032663Y0044810D01*
X0032810Y0044459D01*
X0032967Y0044112D01*
X0033131Y0043769D01*
X0033304Y0043430D01*
X0033485Y0043095D01*
X0033674Y0042764D01*
X0033871Y0042439D01*
X0034075Y0042118D01*
X0034288Y0041802D01*
X0034508Y0041492D01*
X0034735Y0041186D01*
X0034970Y0040887D01*
X0035212Y0040593D01*
X0035460Y0040305D01*
X0035716Y0040023D01*
X0035979Y0039748D01*
X0036248Y0039479D01*
X0036523Y0039216D01*
X0036805Y0038960D01*
X0037093Y0038712D01*
X0037387Y0038470D01*
X0037686Y0038235D01*
X0037992Y0038008D01*
X0038302Y0037788D01*
X0038618Y0037575D01*
X0038939Y0037371D01*
X0039264Y0037174D01*
X0039595Y0036985D01*
X0039930Y0036804D01*
X0040269Y0036631D01*
X0040612Y0036467D01*
X0040959Y0036310D01*
X0041310Y0036163D01*
X0041664Y0036023D01*
X0042021Y0035893D01*
X0042382Y0035771D01*
X0042745Y0035658D01*
X0043111Y0035553D01*
X0043479Y0035458D01*
X0043850Y0035371D01*
X0044222Y0035293D01*
X0044597Y0035225D01*
X0044973Y0035165D01*
X0045350Y0035115D01*
X0045728Y0035074D01*
X0046107Y0035041D01*
X0046487Y0035018D01*
X0046867Y0035005D01*
X0047248Y0035000D01*
D11*
X0039119Y0085150D02*
X0036650Y0085150D01*
X0037884Y0085150D02*
X0037884Y0088853D01*
X0036650Y0087619D01*
D12*
X0066500Y0058000D02*
X0066500Y0052000D01*
X0076500Y0052000D02*
X0076500Y0058000D01*
X0086500Y0058000D02*
X0086500Y0052000D01*
X0096500Y0052000D02*
X0096500Y0058000D01*
X0106500Y0058000D02*
X0106500Y0052000D01*
X0116500Y0052000D02*
X0116500Y0058000D01*
X0126500Y0058000D02*
X0126500Y0052000D01*
X0136500Y0052000D02*
X0136500Y0058000D01*
X0146500Y0058000D02*
X0146500Y0052000D01*
X0156500Y0052000D02*
X0156500Y0058000D01*
X0166500Y0058000D02*
X0166500Y0052000D01*
X0176500Y0052000D02*
X0176500Y0058000D01*
X0186500Y0058000D02*
X0186500Y0052000D01*
X0196500Y0052000D02*
X0196500Y0058000D01*
X0206500Y0058000D02*
X0206500Y0052000D01*
X0216500Y0052000D02*
X0216500Y0058000D01*
X0233500Y0092500D02*
X0239500Y0092500D01*
X0239500Y0102500D02*
X0233500Y0102500D01*
X0233500Y0112500D02*
X0239500Y0112500D01*
X0239500Y0122500D02*
X0233500Y0122500D01*
X0233500Y0132500D02*
X0239500Y0132500D01*
X0216500Y0172000D02*
X0216500Y0178000D01*
X0206500Y0178000D02*
X0206500Y0172000D01*
X0196500Y0172000D02*
X0196500Y0178000D01*
X0186500Y0178000D02*
X0186500Y0172000D01*
X0176500Y0172000D02*
X0176500Y0178000D01*
X0166500Y0178000D02*
X0166500Y0172000D01*
X0156500Y0172000D02*
X0156500Y0178000D01*
X0146500Y0178000D02*
X0146500Y0172000D01*
X0136500Y0172000D02*
X0136500Y0178000D01*
X0126500Y0178000D02*
X0126500Y0172000D01*
X0116500Y0172000D02*
X0116500Y0178000D01*
X0106500Y0178000D02*
X0106500Y0172000D01*
X0096500Y0172000D02*
X0096500Y0178000D01*
X0086500Y0178000D02*
X0086500Y0172000D01*
X0076500Y0172000D02*
X0076500Y0178000D01*
D13*
X0116500Y0158346D03*
X0116500Y0151654D03*
X0120654Y0145000D03*
X0127346Y0145000D03*
X0126500Y0151654D03*
X0126500Y0158346D03*
X0136500Y0158346D03*
X0136500Y0151654D03*
X0140654Y0145000D03*
X0147346Y0145000D03*
X0146500Y0151654D03*
X0146500Y0158346D03*
X0171500Y0158346D03*
X0171500Y0151654D03*
X0181500Y0151654D03*
X0181500Y0158346D03*
X0179846Y0127500D03*
X0173154Y0127500D03*
X0131500Y0095846D03*
X0131500Y0089154D03*
X0144000Y0078346D03*
X0144000Y0071654D03*
X0154000Y0071654D03*
X0154000Y0078346D03*
X0164000Y0078346D03*
X0164000Y0071654D03*
X0174000Y0071654D03*
X0174000Y0078346D03*
X0184000Y0078346D03*
X0184000Y0071654D03*
X0194000Y0071654D03*
X0194000Y0078346D03*
X0119000Y0078346D03*
X0119000Y0071654D03*
X0109000Y0071654D03*
X0109000Y0078346D03*
X0076500Y0075846D03*
X0076500Y0069154D03*
X0066500Y0069154D03*
X0066500Y0075846D03*
X0076500Y0086654D03*
X0076500Y0093346D03*
D14*
X0167700Y0095300D03*
X0170200Y0095300D03*
X0172800Y0095300D03*
X0175300Y0095300D03*
X0175300Y0109700D03*
X0172800Y0109700D03*
X0170200Y0109700D03*
X0167700Y0109700D03*
D15*
X0171382Y0136260D03*
X0171382Y0143740D03*
X0181618Y0143740D03*
X0181618Y0140000D03*
X0181618Y0136260D03*
D16*
X0188154Y0142500D03*
X0194846Y0142500D03*
X0164846Y0142500D03*
X0158154Y0142500D03*
X0181500Y0110846D03*
X0181500Y0104154D03*
X0116500Y0095846D03*
X0116500Y0089154D03*
X0094000Y0078346D03*
X0094000Y0071654D03*
X0086500Y0096654D03*
X0086500Y0103346D03*
D17*
X0047248Y0074370D03*
X0047248Y0157047D03*
X0240161Y0157047D03*
X0240161Y0074370D03*
D18*
X0063125Y0110000D02*
X0054875Y0110000D01*
X0054875Y0130000D02*
X0063125Y0130000D01*
D19*
X0094000Y0112100D03*
X0099000Y0112100D03*
X0104000Y0112100D03*
X0109000Y0112100D03*
X0109000Y0087900D03*
X0104000Y0087900D03*
X0099000Y0087900D03*
X0094000Y0087900D03*
D20*
X0094000Y0078346D01*
X0089846Y0078346D01*
X0089000Y0077500D01*
X0089022Y0079772D02*
X0088091Y0079772D01*
X0088091Y0080659D01*
X0081437Y0087312D01*
X0080505Y0088244D01*
X0079756Y0088244D01*
X0079756Y0089074D01*
X0079117Y0089713D01*
X0073883Y0089713D01*
X0073244Y0089074D01*
X0073244Y0084233D01*
X0073883Y0083594D01*
X0079117Y0083594D01*
X0079756Y0084233D01*
X0079756Y0084495D01*
X0084479Y0079772D01*
X0083059Y0079772D01*
X0082378Y0079091D01*
X0077495Y0079091D01*
X0077310Y0078905D01*
X0073883Y0078905D01*
X0073244Y0078267D01*
X0073244Y0073426D01*
X0073883Y0072787D01*
X0079117Y0072787D01*
X0079756Y0073426D01*
X0079756Y0075909D01*
X0082378Y0075909D01*
X0083059Y0075228D01*
X0084909Y0075228D01*
X0084909Y0061769D01*
X0084183Y0061468D01*
X0083032Y0060317D01*
X0082409Y0058814D01*
X0082409Y0051186D01*
X0083032Y0049683D01*
X0084183Y0048532D01*
X0085686Y0047909D01*
X0087314Y0047909D01*
X0088817Y0048532D01*
X0089968Y0049683D01*
X0090591Y0051186D01*
X0090591Y0058814D01*
X0089968Y0060317D01*
X0088817Y0061468D01*
X0088091Y0061769D01*
X0088091Y0075228D01*
X0089941Y0075228D01*
X0090941Y0076228D01*
X0090941Y0075729D01*
X0091580Y0075091D01*
X0091803Y0075091D01*
X0091535Y0075019D01*
X0091241Y0074849D01*
X0091001Y0074609D01*
X0090832Y0074316D01*
X0090744Y0073988D01*
X0090744Y0072138D01*
X0093516Y0072138D01*
X0093516Y0071169D01*
X0094484Y0071169D01*
X0094484Y0068201D01*
X0096138Y0068201D01*
X0096465Y0068289D01*
X0096759Y0068458D01*
X0096999Y0068698D01*
X0097168Y0068991D01*
X0097256Y0069319D01*
X0097256Y0071169D01*
X0094484Y0071169D01*
X0094484Y0072138D01*
X0097256Y0072138D01*
X0097256Y0073988D01*
X0097168Y0074316D01*
X0096999Y0074609D01*
X0096759Y0074849D01*
X0096465Y0075019D01*
X0096197Y0075091D01*
X0096420Y0075091D01*
X0097059Y0075729D01*
X0097059Y0080964D01*
X0096420Y0081602D01*
X0095591Y0081602D01*
X0095591Y0082809D01*
X0095752Y0082809D01*
X0096391Y0083448D01*
X0096391Y0092352D01*
X0095752Y0092991D01*
X0092248Y0092991D01*
X0091609Y0092352D01*
X0091609Y0083448D01*
X0092248Y0082809D01*
X0092409Y0082809D01*
X0092409Y0081602D01*
X0091580Y0081602D01*
X0090941Y0080964D01*
X0090941Y0079937D01*
X0089188Y0079937D01*
X0089022Y0079772D01*
X0089184Y0079933D02*
X0088091Y0079933D01*
X0087818Y0080932D02*
X0090941Y0080932D01*
X0092409Y0081930D02*
X0086819Y0081930D01*
X0085821Y0082929D02*
X0092129Y0082929D01*
X0091609Y0083927D02*
X0084822Y0083927D01*
X0083824Y0084926D02*
X0091609Y0084926D01*
X0091609Y0085924D02*
X0082825Y0085924D01*
X0081827Y0086923D02*
X0091609Y0086923D01*
X0091609Y0087921D02*
X0080828Y0087921D01*
X0079756Y0088920D02*
X0091609Y0088920D01*
X0091609Y0089918D02*
X0068391Y0089918D01*
X0068391Y0088920D02*
X0073244Y0088920D01*
X0073244Y0087921D02*
X0068391Y0087921D01*
X0068391Y0086923D02*
X0073244Y0086923D01*
X0073244Y0085924D02*
X0068391Y0085924D01*
X0068391Y0084926D02*
X0073244Y0084926D01*
X0073550Y0083927D02*
X0068391Y0083927D01*
X0068391Y0082929D02*
X0081322Y0082929D01*
X0080324Y0083927D02*
X0079450Y0083927D01*
X0079846Y0086654D02*
X0076500Y0086654D01*
X0079846Y0086654D02*
X0086500Y0080000D01*
X0086500Y0055000D01*
X0082409Y0054970D02*
X0080591Y0054970D01*
X0080591Y0053972D02*
X0082409Y0053972D01*
X0082409Y0052973D02*
X0080591Y0052973D01*
X0080591Y0051975D02*
X0082409Y0051975D01*
X0082496Y0050976D02*
X0080503Y0050976D01*
X0080591Y0051186D02*
X0080591Y0058814D01*
X0079968Y0060317D01*
X0078817Y0061468D01*
X0078091Y0061769D01*
X0078091Y0066094D01*
X0079117Y0066094D01*
X0079756Y0066733D01*
X0079756Y0071574D01*
X0079117Y0072213D01*
X0073883Y0072213D01*
X0073244Y0071574D01*
X0073244Y0070744D01*
X0069756Y0070744D01*
X0069756Y0071574D01*
X0069117Y0072213D01*
X0063883Y0072213D01*
X0063244Y0071574D01*
X0063244Y0066733D01*
X0063883Y0066094D01*
X0069117Y0066094D01*
X0069756Y0066733D01*
X0069756Y0067563D01*
X0073244Y0067563D01*
X0073244Y0066733D01*
X0073883Y0066094D01*
X0074909Y0066094D01*
X0074909Y0061769D01*
X0074183Y0061468D01*
X0073032Y0060317D01*
X0072409Y0058814D01*
X0072409Y0051186D01*
X0073032Y0049683D01*
X0074183Y0048532D01*
X0075686Y0047909D01*
X0077314Y0047909D01*
X0078817Y0048532D01*
X0079968Y0049683D01*
X0080591Y0051186D01*
X0080090Y0049978D02*
X0082910Y0049978D01*
X0083736Y0048979D02*
X0079264Y0048979D01*
X0077486Y0047981D02*
X0085514Y0047981D01*
X0087486Y0047981D02*
X0095514Y0047981D01*
X0095686Y0047909D02*
X0097314Y0047909D01*
X0098817Y0048532D01*
X0099968Y0049683D01*
X0100591Y0051186D01*
X0100591Y0058814D01*
X0099968Y0060317D01*
X0098817Y0061468D01*
X0097314Y0062091D01*
X0095686Y0062091D01*
X0094183Y0061468D01*
X0093032Y0060317D01*
X0092409Y0058814D01*
X0092409Y0051186D01*
X0093032Y0049683D01*
X0094183Y0048532D01*
X0095686Y0047909D01*
X0097486Y0047981D02*
X0104996Y0047981D01*
X0104854Y0048027D02*
X0105496Y0047818D01*
X0106000Y0047738D01*
X0106000Y0054500D01*
X0107000Y0054500D01*
X0107000Y0055500D01*
X0110787Y0055500D01*
X0110787Y0058337D01*
X0110682Y0059004D01*
X0110473Y0059646D01*
X0110167Y0060247D01*
X0109770Y0060793D01*
X0109293Y0061270D01*
X0108747Y0061667D01*
X0108146Y0061973D01*
X0107504Y0062182D01*
X0107000Y0062262D01*
X0107000Y0055500D01*
X0106000Y0055500D01*
X0106000Y0062262D01*
X0105496Y0062182D01*
X0104854Y0061973D01*
X0104253Y0061667D01*
X0103707Y0061270D01*
X0103230Y0060793D01*
X0102833Y0060247D01*
X0102527Y0059646D01*
X0102318Y0059004D01*
X0102213Y0058337D01*
X0102213Y0055500D01*
X0106000Y0055500D01*
X0106000Y0054500D01*
X0102213Y0054500D01*
X0102213Y0051663D01*
X0102318Y0050996D01*
X0102527Y0050354D01*
X0102833Y0049753D01*
X0103230Y0049207D01*
X0103707Y0048730D01*
X0104253Y0048333D01*
X0104854Y0048027D01*
X0106000Y0047981D02*
X0107000Y0047981D01*
X0107000Y0047738D02*
X0107504Y0047818D01*
X0108146Y0048027D01*
X0108747Y0048333D01*
X0109293Y0048730D01*
X0109770Y0049207D01*
X0110167Y0049753D01*
X0110473Y0050354D01*
X0110682Y0050996D01*
X0110787Y0051663D01*
X0110787Y0054500D01*
X0107000Y0054500D01*
X0107000Y0047738D01*
X0108004Y0047981D02*
X0115514Y0047981D01*
X0115686Y0047909D02*
X0117314Y0047909D01*
X0118817Y0048532D01*
X0119968Y0049683D01*
X0120591Y0051186D01*
X0120591Y0058814D01*
X0119968Y0060317D01*
X0118817Y0061468D01*
X0118091Y0061769D01*
X0118091Y0061841D01*
X0120591Y0064341D01*
X0120591Y0068594D01*
X0121617Y0068594D01*
X0122256Y0069233D01*
X0122256Y0074074D01*
X0121617Y0074713D01*
X0116383Y0074713D01*
X0115744Y0074074D01*
X0115744Y0073244D01*
X0112256Y0073244D01*
X0112256Y0074074D01*
X0111617Y0074713D01*
X0106383Y0074713D01*
X0105744Y0074074D01*
X0105744Y0069233D01*
X0106383Y0068594D01*
X0111617Y0068594D01*
X0112256Y0069233D01*
X0112256Y0070063D01*
X0115744Y0070063D01*
X0115744Y0069233D01*
X0116383Y0068594D01*
X0117409Y0068594D01*
X0117409Y0065659D01*
X0115841Y0064091D01*
X0114909Y0063159D01*
X0114909Y0061769D01*
X0114183Y0061468D01*
X0113032Y0060317D01*
X0112409Y0058814D01*
X0112409Y0051186D01*
X0113032Y0049683D01*
X0114183Y0048532D01*
X0115686Y0047909D01*
X0117486Y0047981D02*
X0125514Y0047981D01*
X0125686Y0047909D02*
X0127314Y0047909D01*
X0128817Y0048532D01*
X0129968Y0049683D01*
X0130591Y0051186D01*
X0130591Y0058814D01*
X0129968Y0060317D01*
X0128817Y0061468D01*
X0128091Y0061769D01*
X0128091Y0064341D01*
X0132159Y0068409D01*
X0133091Y0069341D01*
X0133091Y0086094D01*
X0134117Y0086094D01*
X0134756Y0086733D01*
X0134756Y0091574D01*
X0134117Y0092213D01*
X0128883Y0092213D01*
X0128244Y0091574D01*
X0128244Y0086733D01*
X0128883Y0086094D01*
X0129909Y0086094D01*
X0129909Y0070659D01*
X0124909Y0065659D01*
X0124909Y0061769D01*
X0124183Y0061468D01*
X0123032Y0060317D01*
X0122409Y0058814D01*
X0122409Y0051186D01*
X0123032Y0049683D01*
X0124183Y0048532D01*
X0125686Y0047909D01*
X0127486Y0047981D02*
X0135514Y0047981D01*
X0135686Y0047909D02*
X0137314Y0047909D01*
X0138817Y0048532D01*
X0139968Y0049683D01*
X0140591Y0051186D01*
X0140591Y0058814D01*
X0139968Y0060317D01*
X0138817Y0061468D01*
X0137314Y0062091D01*
X0135686Y0062091D01*
X0134183Y0061468D01*
X0133032Y0060317D01*
X0132409Y0058814D01*
X0132409Y0051186D01*
X0133032Y0049683D01*
X0134183Y0048532D01*
X0135686Y0047909D01*
X0137486Y0047981D02*
X0145514Y0047981D01*
X0145686Y0047909D02*
X0147314Y0047909D01*
X0148817Y0048532D01*
X0149968Y0049683D01*
X0150591Y0051186D01*
X0150591Y0058814D01*
X0149968Y0060317D01*
X0148817Y0061468D01*
X0148091Y0061769D01*
X0148091Y0061841D01*
X0148978Y0062728D01*
X0149941Y0062728D01*
X0151272Y0064059D01*
X0151272Y0065941D01*
X0149941Y0067272D01*
X0148059Y0067272D01*
X0146728Y0065941D01*
X0146728Y0064978D01*
X0144909Y0063159D01*
X0144909Y0061769D01*
X0144183Y0061468D01*
X0143032Y0060317D01*
X0142409Y0058814D01*
X0142409Y0051186D01*
X0143032Y0049683D01*
X0144183Y0048532D01*
X0145686Y0047909D01*
X0147486Y0047981D02*
X0155514Y0047981D01*
X0155686Y0047909D02*
X0157314Y0047909D01*
X0158817Y0048532D01*
X0159968Y0049683D01*
X0160591Y0051186D01*
X0160591Y0058814D01*
X0159968Y0060317D01*
X0158817Y0061468D01*
X0157314Y0062091D01*
X0155686Y0062091D01*
X0154183Y0061468D01*
X0153032Y0060317D01*
X0152409Y0058814D01*
X0152409Y0051186D01*
X0153032Y0049683D01*
X0154183Y0048532D01*
X0155686Y0047909D01*
X0157486Y0047981D02*
X0165514Y0047981D01*
X0165686Y0047909D02*
X0167314Y0047909D01*
X0168817Y0048532D01*
X0169968Y0049683D01*
X0170591Y0051186D01*
X0170591Y0058814D01*
X0169968Y0060317D01*
X0168817Y0061468D01*
X0167314Y0062091D01*
X0165686Y0062091D01*
X0164183Y0061468D01*
X0163032Y0060317D01*
X0162409Y0058814D01*
X0162409Y0051186D01*
X0163032Y0049683D01*
X0164183Y0048532D01*
X0165686Y0047909D01*
X0167486Y0047981D02*
X0175514Y0047981D01*
X0175686Y0047909D02*
X0177314Y0047909D01*
X0178817Y0048532D01*
X0179968Y0049683D01*
X0180591Y0051186D01*
X0180591Y0058814D01*
X0179968Y0060317D01*
X0178817Y0061468D01*
X0178091Y0061769D01*
X0178091Y0063159D01*
X0177159Y0064091D01*
X0174659Y0066591D01*
X0157159Y0066591D01*
X0155591Y0068159D01*
X0155591Y0068594D01*
X0156617Y0068594D01*
X0156905Y0068882D01*
X0158059Y0067728D01*
X0159941Y0067728D01*
X0161095Y0068882D01*
X0161383Y0068594D01*
X0166617Y0068594D01*
X0167256Y0069233D01*
X0167256Y0070063D01*
X0170744Y0070063D01*
X0170744Y0069233D01*
X0171383Y0068594D01*
X0176617Y0068594D01*
X0177256Y0069233D01*
X0177256Y0074074D01*
X0176617Y0074713D01*
X0171383Y0074713D01*
X0170744Y0074074D01*
X0170744Y0073244D01*
X0167256Y0073244D01*
X0167256Y0074074D01*
X0166617Y0074713D01*
X0161383Y0074713D01*
X0160744Y0074074D01*
X0160744Y0073244D01*
X0159995Y0073244D01*
X0159063Y0072312D01*
X0159022Y0072272D01*
X0158059Y0072272D01*
X0157256Y0071468D01*
X0157256Y0074074D01*
X0156617Y0074713D01*
X0151383Y0074713D01*
X0150744Y0074074D01*
X0150744Y0073244D01*
X0147256Y0073244D01*
X0147256Y0074074D01*
X0146617Y0074713D01*
X0141383Y0074713D01*
X0140744Y0074074D01*
X0140744Y0069233D01*
X0141383Y0068594D01*
X0146617Y0068594D01*
X0147256Y0069233D01*
X0147256Y0070063D01*
X0150744Y0070063D01*
X0150744Y0069233D01*
X0151383Y0068594D01*
X0152409Y0068594D01*
X0152409Y0066841D01*
X0154909Y0064341D01*
X0155841Y0063409D01*
X0173341Y0063409D01*
X0174909Y0061841D01*
X0174909Y0061769D01*
X0174183Y0061468D01*
X0173032Y0060317D01*
X0172409Y0058814D01*
X0172409Y0051186D01*
X0173032Y0049683D01*
X0174183Y0048532D01*
X0175686Y0047909D01*
X0177486Y0047981D02*
X0184996Y0047981D01*
X0184854Y0048027D02*
X0185496Y0047818D01*
X0186000Y0047738D01*
X0186000Y0054500D01*
X0187000Y0054500D01*
X0187000Y0055500D01*
X0190787Y0055500D01*
X0190787Y0058337D01*
X0190682Y0059004D01*
X0190473Y0059646D01*
X0190167Y0060247D01*
X0189770Y0060793D01*
X0189293Y0061270D01*
X0188747Y0061667D01*
X0188146Y0061973D01*
X0187504Y0062182D01*
X0187000Y0062262D01*
X0187000Y0055500D01*
X0186000Y0055500D01*
X0186000Y0062262D01*
X0185496Y0062182D01*
X0184854Y0061973D01*
X0184253Y0061667D01*
X0183707Y0061270D01*
X0183230Y0060793D01*
X0182833Y0060247D01*
X0182527Y0059646D01*
X0182318Y0059004D01*
X0182213Y0058337D01*
X0182213Y0055500D01*
X0186000Y0055500D01*
X0186000Y0054500D01*
X0182213Y0054500D01*
X0182213Y0051663D01*
X0182318Y0050996D01*
X0182527Y0050354D01*
X0182833Y0049753D01*
X0183230Y0049207D01*
X0183707Y0048730D01*
X0184253Y0048333D01*
X0184854Y0048027D01*
X0186000Y0047981D02*
X0187000Y0047981D01*
X0187000Y0047738D02*
X0187504Y0047818D01*
X0188146Y0048027D01*
X0188747Y0048333D01*
X0189293Y0048730D01*
X0189770Y0049207D01*
X0190167Y0049753D01*
X0190473Y0050354D01*
X0190682Y0050996D01*
X0190787Y0051663D01*
X0190787Y0054500D01*
X0187000Y0054500D01*
X0187000Y0047738D01*
X0188004Y0047981D02*
X0195514Y0047981D01*
X0195686Y0047909D02*
X0197314Y0047909D01*
X0198817Y0048532D01*
X0199968Y0049683D01*
X0200591Y0051186D01*
X0200591Y0058814D01*
X0199968Y0060317D01*
X0199517Y0060768D01*
X0203091Y0064341D01*
X0203091Y0090659D01*
X0202159Y0091591D01*
X0192159Y0101591D01*
X0184695Y0101591D01*
X0184756Y0101819D01*
X0184756Y0103669D01*
X0181984Y0103669D01*
X0181984Y0104638D01*
X0184756Y0104638D01*
X0184756Y0106488D01*
X0184668Y0106816D01*
X0184499Y0107109D01*
X0184259Y0107349D01*
X0183965Y0107519D01*
X0183697Y0107591D01*
X0183920Y0107591D01*
X0184559Y0108229D01*
X0184559Y0108956D01*
X0186654Y0108956D01*
X0186824Y0108546D01*
X0187546Y0107824D01*
X0188489Y0107433D01*
X0189511Y0107433D01*
X0190454Y0107824D01*
X0191176Y0108546D01*
X0191567Y0109489D01*
X0191567Y0110511D01*
X0191176Y0111454D01*
X0190454Y0112176D01*
X0189511Y0112567D01*
X0189107Y0112567D01*
X0188937Y0112737D01*
X0184559Y0112737D01*
X0184559Y0113409D01*
X0200841Y0113409D01*
X0204909Y0109341D01*
X0204909Y0061769D01*
X0204183Y0061468D01*
X0203032Y0060317D01*
X0202409Y0058814D01*
X0202409Y0051186D01*
X0203032Y0049683D01*
X0204183Y0048532D01*
X0205686Y0047909D01*
X0207314Y0047909D01*
X0208817Y0048532D01*
X0209968Y0049683D01*
X0210591Y0051186D01*
X0210591Y0058814D01*
X0209968Y0060317D01*
X0208817Y0061468D01*
X0208091Y0061769D01*
X0208091Y0110659D01*
X0207159Y0111591D01*
X0202159Y0116591D01*
X0175841Y0116591D01*
X0174909Y0115659D01*
X0173709Y0114459D01*
X0173709Y0113391D01*
X0171791Y0113391D01*
X0171791Y0115541D01*
X0174659Y0118409D01*
X0208341Y0118409D01*
X0214909Y0111841D01*
X0214909Y0061769D01*
X0214183Y0061468D01*
X0213032Y0060317D01*
X0212409Y0058814D01*
X0212409Y0051186D01*
X0213032Y0049683D01*
X0214183Y0048532D01*
X0215686Y0047909D01*
X0217314Y0047909D01*
X0218817Y0048532D01*
X0219968Y0049683D01*
X0220591Y0051186D01*
X0220591Y0058814D01*
X0219968Y0060317D01*
X0218817Y0061468D01*
X0218091Y0061769D01*
X0218091Y0113159D01*
X0217159Y0114091D01*
X0209659Y0121591D01*
X0173341Y0121591D01*
X0172409Y0120659D01*
X0168609Y0116859D01*
X0168609Y0113391D01*
X0166548Y0113391D01*
X0165909Y0112752D01*
X0165909Y0111891D01*
X0163240Y0111891D01*
X0162954Y0112176D01*
X0162011Y0112567D01*
X0160989Y0112567D01*
X0160046Y0112176D01*
X0159324Y0111454D01*
X0158933Y0110511D01*
X0158933Y0109489D01*
X0159324Y0108546D01*
X0160046Y0107824D01*
X0160989Y0107433D01*
X0162011Y0107433D01*
X0162954Y0107824D01*
X0163240Y0108109D01*
X0165909Y0108109D01*
X0165909Y0106648D01*
X0166548Y0106009D01*
X0168852Y0106009D01*
X0168950Y0106108D01*
X0169048Y0106009D01*
X0171209Y0106009D01*
X0171209Y0104459D01*
X0170841Y0104091D01*
X0160841Y0104091D01*
X0159909Y0103159D01*
X0154909Y0098159D01*
X0154909Y0086622D01*
X0154228Y0085941D01*
X0154228Y0084978D01*
X0152409Y0083159D01*
X0152409Y0081405D01*
X0151383Y0081405D01*
X0150744Y0080767D01*
X0150744Y0075926D01*
X0151383Y0075287D01*
X0156617Y0075287D01*
X0157256Y0075926D01*
X0157256Y0080767D01*
X0156617Y0081405D01*
X0155591Y0081405D01*
X0155591Y0081841D01*
X0156478Y0082728D01*
X0157441Y0082728D01*
X0158772Y0084059D01*
X0158772Y0085941D01*
X0158091Y0086622D01*
X0158091Y0096841D01*
X0162159Y0100909D01*
X0170160Y0100909D01*
X0169909Y0100659D01*
X0168609Y0099359D01*
X0168609Y0098991D01*
X0166548Y0098991D01*
X0165909Y0098352D01*
X0165909Y0092248D01*
X0166109Y0092048D01*
X0166109Y0090641D01*
X0166728Y0090022D01*
X0166728Y0089059D01*
X0168059Y0087728D01*
X0169479Y0087728D01*
X0167409Y0085659D01*
X0167409Y0084122D01*
X0166728Y0083441D01*
X0166728Y0082478D01*
X0165656Y0081405D01*
X0161383Y0081405D01*
X0160744Y0080767D01*
X0160744Y0075926D01*
X0161383Y0075287D01*
X0166617Y0075287D01*
X0167256Y0075926D01*
X0167256Y0078507D01*
X0168978Y0080228D01*
X0169941Y0080228D01*
X0171272Y0081559D01*
X0171272Y0083441D01*
X0170591Y0084122D01*
X0170591Y0084341D01*
X0173459Y0087209D01*
X0174391Y0088141D01*
X0174391Y0091423D01*
X0174430Y0091413D01*
X0175300Y0091413D01*
X0176169Y0091413D01*
X0176497Y0091500D01*
X0176790Y0091670D01*
X0177030Y0091910D01*
X0177200Y0092203D01*
X0177287Y0092530D01*
X0177287Y0095300D01*
X0177287Y0098069D01*
X0177200Y0098397D01*
X0177192Y0098409D01*
X0190841Y0098409D01*
X0199909Y0089341D01*
X0199909Y0065659D01*
X0196341Y0062091D01*
X0195686Y0062091D01*
X0194183Y0061468D01*
X0193032Y0060317D01*
X0192409Y0058814D01*
X0192409Y0051186D01*
X0193032Y0049683D01*
X0194183Y0048532D01*
X0195686Y0047909D01*
X0197486Y0047981D02*
X0205514Y0047981D01*
X0207486Y0047981D02*
X0215514Y0047981D01*
X0217486Y0047981D02*
X0223941Y0047981D01*
X0223846Y0048289D02*
X0225295Y0043589D01*
X0228066Y0039525D01*
X0228066Y0039525D01*
X0228066Y0039525D01*
X0231879Y0036484D01*
X0055174Y0036484D01*
X0057536Y0037848D01*
X0060881Y0041453D01*
X0063015Y0045885D01*
X0063478Y0048958D01*
X0063707Y0048730D01*
X0064253Y0048333D01*
X0064854Y0048027D01*
X0065496Y0047818D01*
X0066000Y0047738D01*
X0066000Y0054500D01*
X0067000Y0054500D01*
X0067000Y0055500D01*
X0066000Y0055500D01*
X0066000Y0062262D01*
X0065496Y0062182D01*
X0064854Y0061973D01*
X0064253Y0061667D01*
X0063707Y0061270D01*
X0063230Y0060793D01*
X0062833Y0060247D01*
X0062527Y0059646D01*
X0062318Y0059004D01*
X0062213Y0058337D01*
X0062213Y0057278D01*
X0060881Y0060043D01*
X0057536Y0063648D01*
X0057536Y0063648D01*
X0053276Y0066107D01*
X0048481Y0067202D01*
X0043576Y0066834D01*
X0038998Y0065037D01*
X0035153Y0061971D01*
X0035153Y0061971D01*
X0032984Y0058790D01*
X0032984Y0172627D01*
X0035153Y0169446D01*
X0038998Y0166380D01*
X0043576Y0164583D01*
X0043576Y0164583D01*
X0048481Y0164215D01*
X0053276Y0165310D01*
X0053276Y0165310D01*
X0057536Y0167769D01*
X0060881Y0171375D01*
X0063015Y0175806D01*
X0063748Y0180669D01*
X0063015Y0185533D01*
X0060881Y0189964D01*
X0057536Y0193570D01*
X0055174Y0194933D01*
X0231879Y0194933D01*
X0228066Y0191892D01*
X0225295Y0187828D01*
X0223846Y0183128D01*
X0223846Y0178210D01*
X0225295Y0173510D01*
X0228066Y0169446D01*
X0231911Y0166380D01*
X0236490Y0164583D01*
X0241394Y0164215D01*
X0241394Y0164215D01*
X0246190Y0165310D01*
X0250449Y0167769D01*
X0253794Y0171375D01*
X0254425Y0172684D01*
X0254425Y0058733D01*
X0253794Y0060043D01*
X0250449Y0063648D01*
X0246190Y0066107D01*
X0241394Y0067202D01*
X0236490Y0066834D01*
X0231911Y0065037D01*
X0228066Y0061971D01*
X0228066Y0061971D01*
X0228066Y0061971D01*
X0225295Y0057907D01*
X0223846Y0053207D01*
X0223846Y0048289D01*
X0223846Y0048979D02*
X0219264Y0048979D01*
X0220090Y0049978D02*
X0223846Y0049978D01*
X0223846Y0050976D02*
X0220503Y0050976D01*
X0220591Y0051975D02*
X0223846Y0051975D01*
X0223846Y0052973D02*
X0220591Y0052973D01*
X0220591Y0053972D02*
X0224082Y0053972D01*
X0224390Y0054970D02*
X0220591Y0054970D01*
X0220591Y0055969D02*
X0224698Y0055969D01*
X0225006Y0056967D02*
X0220591Y0056967D01*
X0220591Y0057966D02*
X0225335Y0057966D01*
X0225295Y0057907D02*
X0225295Y0057907D01*
X0226016Y0058964D02*
X0220528Y0058964D01*
X0220115Y0059963D02*
X0226697Y0059963D01*
X0227378Y0060961D02*
X0219324Y0060961D01*
X0218091Y0061960D02*
X0228059Y0061960D01*
X0229304Y0062958D02*
X0218091Y0062958D01*
X0218091Y0063957D02*
X0230556Y0063957D01*
X0231808Y0064955D02*
X0218091Y0064955D01*
X0218091Y0065954D02*
X0234246Y0065954D01*
X0238065Y0066952D02*
X0218091Y0066952D01*
X0218091Y0067951D02*
X0254425Y0067951D01*
X0254425Y0068949D02*
X0218091Y0068949D01*
X0218091Y0069948D02*
X0254425Y0069948D01*
X0254425Y0070946D02*
X0218091Y0070946D01*
X0218091Y0071945D02*
X0238260Y0071945D01*
X0238429Y0071777D02*
X0239553Y0071311D01*
X0240770Y0071311D01*
X0241894Y0071777D01*
X0242755Y0072637D01*
X0243220Y0073762D01*
X0243220Y0074979D01*
X0242755Y0076103D01*
X0241894Y0076963D01*
X0240770Y0077429D01*
X0239553Y0077429D01*
X0238429Y0076963D01*
X0237568Y0076103D01*
X0237102Y0074979D01*
X0237102Y0073762D01*
X0237568Y0072637D01*
X0238429Y0071777D01*
X0237441Y0072943D02*
X0218091Y0072943D01*
X0218091Y0073942D02*
X0237102Y0073942D01*
X0237102Y0074940D02*
X0218091Y0074940D01*
X0218091Y0075939D02*
X0237500Y0075939D01*
X0238403Y0076937D02*
X0218091Y0076937D01*
X0218091Y0077936D02*
X0254425Y0077936D01*
X0254425Y0078934D02*
X0218091Y0078934D01*
X0218091Y0079933D02*
X0254425Y0079933D01*
X0254425Y0080932D02*
X0218091Y0080932D01*
X0218091Y0081930D02*
X0254425Y0081930D01*
X0254425Y0082929D02*
X0218091Y0082929D01*
X0218091Y0083927D02*
X0254425Y0083927D01*
X0254425Y0084926D02*
X0218091Y0084926D01*
X0218091Y0085924D02*
X0254425Y0085924D01*
X0254425Y0086923D02*
X0218091Y0086923D01*
X0218091Y0087921D02*
X0254425Y0087921D01*
X0254425Y0088920D02*
X0241866Y0088920D01*
X0241747Y0088833D02*
X0242293Y0089230D01*
X0242770Y0089707D01*
X0243167Y0090253D01*
X0243473Y0090854D01*
X0243682Y0091496D01*
X0243762Y0092000D01*
X0237000Y0092000D01*
X0237000Y0093000D01*
X0236000Y0093000D01*
X0236000Y0096787D01*
X0233163Y0096787D01*
X0232496Y0096682D01*
X0231854Y0096473D01*
X0231253Y0096167D01*
X0230707Y0095770D01*
X0230230Y0095293D01*
X0229833Y0094747D01*
X0229527Y0094146D01*
X0229318Y0093504D01*
X0229238Y0093000D01*
X0236000Y0093000D01*
X0236000Y0092000D01*
X0229238Y0092000D01*
X0229318Y0091496D01*
X0229527Y0090854D01*
X0229833Y0090253D01*
X0230230Y0089707D01*
X0230707Y0089230D01*
X0231253Y0088833D01*
X0231854Y0088527D01*
X0232496Y0088318D01*
X0233163Y0088213D01*
X0236000Y0088213D01*
X0236000Y0092000D01*
X0237000Y0092000D01*
X0237000Y0088213D01*
X0239837Y0088213D01*
X0240504Y0088318D01*
X0241146Y0088527D01*
X0241747Y0088833D01*
X0242924Y0089918D02*
X0254425Y0089918D01*
X0254425Y0090917D02*
X0243494Y0090917D01*
X0243748Y0091915D02*
X0254425Y0091915D01*
X0254425Y0092914D02*
X0237000Y0092914D01*
X0237000Y0093000D02*
X0243762Y0093000D01*
X0243682Y0093504D01*
X0243473Y0094146D01*
X0243167Y0094747D01*
X0242770Y0095293D01*
X0242293Y0095770D01*
X0241747Y0096167D01*
X0241146Y0096473D01*
X0240504Y0096682D01*
X0239837Y0096787D01*
X0237000Y0096787D01*
X0237000Y0093000D01*
X0237000Y0093912D02*
X0236000Y0093912D01*
X0236000Y0092914D02*
X0218091Y0092914D01*
X0218091Y0093912D02*
X0229451Y0093912D01*
X0229952Y0094911D02*
X0218091Y0094911D01*
X0218091Y0095909D02*
X0230898Y0095909D01*
X0232686Y0098409D02*
X0231183Y0099032D01*
X0230032Y0100183D01*
X0229409Y0101686D01*
X0229409Y0103314D01*
X0230032Y0104817D01*
X0231183Y0105968D01*
X0232686Y0106591D01*
X0240314Y0106591D01*
X0241817Y0105968D01*
X0242968Y0104817D01*
X0243591Y0103314D01*
X0243591Y0101686D01*
X0242968Y0100183D01*
X0241817Y0099032D01*
X0240314Y0098409D01*
X0232686Y0098409D01*
X0231491Y0098905D02*
X0218091Y0098905D01*
X0218091Y0099903D02*
X0230312Y0099903D01*
X0229734Y0100902D02*
X0218091Y0100902D01*
X0218091Y0101900D02*
X0229409Y0101900D01*
X0229409Y0102899D02*
X0218091Y0102899D01*
X0218091Y0103897D02*
X0229651Y0103897D01*
X0230111Y0104896D02*
X0218091Y0104896D01*
X0218091Y0105894D02*
X0231109Y0105894D01*
X0232686Y0108409D02*
X0231183Y0109032D01*
X0230032Y0110183D01*
X0229409Y0111686D01*
X0229409Y0113314D01*
X0230032Y0114817D01*
X0231183Y0115968D01*
X0232686Y0116591D01*
X0240314Y0116591D01*
X0241817Y0115968D01*
X0242968Y0114817D01*
X0243591Y0113314D01*
X0243591Y0111686D01*
X0242968Y0110183D01*
X0241817Y0109032D01*
X0240314Y0108409D01*
X0232686Y0108409D01*
X0231527Y0108890D02*
X0218091Y0108890D01*
X0218091Y0109888D02*
X0230327Y0109888D01*
X0229741Y0110887D02*
X0218091Y0110887D01*
X0218091Y0111885D02*
X0229409Y0111885D01*
X0229409Y0112884D02*
X0218091Y0112884D01*
X0217367Y0113882D02*
X0229645Y0113882D01*
X0230096Y0114881D02*
X0216368Y0114881D01*
X0215370Y0115879D02*
X0231095Y0115879D01*
X0231854Y0118527D02*
X0232496Y0118318D01*
X0233163Y0118213D01*
X0236000Y0118213D01*
X0236000Y0122000D01*
X0237000Y0122000D01*
X0237000Y0123000D01*
X0236000Y0123000D01*
X0236000Y0126787D01*
X0233163Y0126787D01*
X0232496Y0126682D01*
X0231854Y0126473D01*
X0231253Y0126167D01*
X0230707Y0125770D01*
X0230230Y0125293D01*
X0229833Y0124747D01*
X0229527Y0124146D01*
X0229318Y0123504D01*
X0229238Y0123000D01*
X0236000Y0123000D01*
X0236000Y0122000D01*
X0229238Y0122000D01*
X0229318Y0121496D01*
X0229527Y0120854D01*
X0229833Y0120253D01*
X0230230Y0119707D01*
X0230707Y0119230D01*
X0231253Y0118833D01*
X0231854Y0118527D01*
X0231195Y0118875D02*
X0212374Y0118875D01*
X0211376Y0119873D02*
X0230109Y0119873D01*
X0229521Y0120872D02*
X0210377Y0120872D01*
X0209000Y0120000D02*
X0216500Y0112500D01*
X0216500Y0055000D01*
X0212409Y0054970D02*
X0210591Y0054970D01*
X0210591Y0053972D02*
X0212409Y0053972D01*
X0212409Y0052973D02*
X0210591Y0052973D01*
X0210591Y0051975D02*
X0212409Y0051975D01*
X0212496Y0050976D02*
X0210503Y0050976D01*
X0210090Y0049978D02*
X0212910Y0049978D01*
X0213736Y0048979D02*
X0209264Y0048979D01*
X0203736Y0048979D02*
X0199264Y0048979D01*
X0200090Y0049978D02*
X0202910Y0049978D01*
X0202496Y0050976D02*
X0200503Y0050976D01*
X0200591Y0051975D02*
X0202409Y0051975D01*
X0202409Y0052973D02*
X0200591Y0052973D01*
X0200591Y0053972D02*
X0202409Y0053972D01*
X0202409Y0054970D02*
X0200591Y0054970D01*
X0200591Y0055969D02*
X0202409Y0055969D01*
X0202409Y0056967D02*
X0200591Y0056967D01*
X0200591Y0057966D02*
X0202409Y0057966D01*
X0202472Y0058964D02*
X0200528Y0058964D01*
X0200115Y0059963D02*
X0202885Y0059963D01*
X0203676Y0060961D02*
X0199711Y0060961D01*
X0200709Y0061960D02*
X0204909Y0061960D01*
X0204909Y0062958D02*
X0201708Y0062958D01*
X0202706Y0063957D02*
X0204909Y0063957D01*
X0204909Y0064955D02*
X0203091Y0064955D01*
X0203091Y0065954D02*
X0204909Y0065954D01*
X0204909Y0066952D02*
X0203091Y0066952D01*
X0203091Y0067951D02*
X0204909Y0067951D01*
X0204909Y0068949D02*
X0203091Y0068949D01*
X0203091Y0069948D02*
X0204909Y0069948D01*
X0204909Y0070946D02*
X0203091Y0070946D01*
X0203091Y0071945D02*
X0204909Y0071945D01*
X0204909Y0072943D02*
X0203091Y0072943D01*
X0203091Y0073942D02*
X0204909Y0073942D01*
X0204909Y0074940D02*
X0203091Y0074940D01*
X0203091Y0075939D02*
X0204909Y0075939D01*
X0204909Y0076937D02*
X0203091Y0076937D01*
X0203091Y0077936D02*
X0204909Y0077936D01*
X0204909Y0078934D02*
X0203091Y0078934D01*
X0203091Y0079933D02*
X0204909Y0079933D01*
X0204909Y0080932D02*
X0203091Y0080932D01*
X0203091Y0081930D02*
X0204909Y0081930D01*
X0204909Y0082929D02*
X0203091Y0082929D01*
X0203091Y0083927D02*
X0204909Y0083927D01*
X0204909Y0084926D02*
X0203091Y0084926D01*
X0203091Y0085924D02*
X0204909Y0085924D01*
X0204909Y0086923D02*
X0203091Y0086923D01*
X0203091Y0087921D02*
X0204909Y0087921D01*
X0204909Y0088920D02*
X0203091Y0088920D01*
X0203091Y0089918D02*
X0204909Y0089918D01*
X0204909Y0090917D02*
X0202833Y0090917D01*
X0201834Y0091915D02*
X0204909Y0091915D01*
X0204909Y0092914D02*
X0200836Y0092914D01*
X0199837Y0093912D02*
X0204909Y0093912D01*
X0204909Y0094911D02*
X0198839Y0094911D01*
X0197840Y0095909D02*
X0204909Y0095909D01*
X0204909Y0096908D02*
X0196842Y0096908D01*
X0195843Y0097906D02*
X0204909Y0097906D01*
X0204909Y0098905D02*
X0194845Y0098905D01*
X0193846Y0099903D02*
X0204909Y0099903D01*
X0204909Y0100902D02*
X0192848Y0100902D01*
X0191500Y0100000D02*
X0201500Y0090000D01*
X0201500Y0065000D01*
X0196500Y0060000D01*
X0196500Y0055000D01*
X0192409Y0054970D02*
X0187000Y0054970D01*
X0187000Y0053972D02*
X0186000Y0053972D01*
X0186000Y0054970D02*
X0180591Y0054970D01*
X0180591Y0053972D02*
X0182213Y0053972D01*
X0182213Y0052973D02*
X0180591Y0052973D01*
X0180591Y0051975D02*
X0182213Y0051975D01*
X0182325Y0050976D02*
X0180503Y0050976D01*
X0180090Y0049978D02*
X0182719Y0049978D01*
X0183458Y0048979D02*
X0179264Y0048979D01*
X0173736Y0048979D02*
X0169264Y0048979D01*
X0170090Y0049978D02*
X0172910Y0049978D01*
X0172496Y0050976D02*
X0170503Y0050976D01*
X0170591Y0051975D02*
X0172409Y0051975D01*
X0172409Y0052973D02*
X0170591Y0052973D01*
X0170591Y0053972D02*
X0172409Y0053972D01*
X0172409Y0054970D02*
X0170591Y0054970D01*
X0170591Y0055969D02*
X0172409Y0055969D01*
X0172409Y0056967D02*
X0170591Y0056967D01*
X0170591Y0057966D02*
X0172409Y0057966D01*
X0172472Y0058964D02*
X0170528Y0058964D01*
X0170115Y0059963D02*
X0172885Y0059963D01*
X0173676Y0060961D02*
X0169324Y0060961D01*
X0167629Y0061960D02*
X0174791Y0061960D01*
X0173792Y0062958D02*
X0150171Y0062958D01*
X0151169Y0063957D02*
X0155294Y0063957D01*
X0154295Y0064955D02*
X0151272Y0064955D01*
X0151259Y0065954D02*
X0153297Y0065954D01*
X0152409Y0066952D02*
X0150260Y0066952D01*
X0151028Y0068949D02*
X0146972Y0068949D01*
X0147256Y0069948D02*
X0150744Y0069948D01*
X0152409Y0067951D02*
X0131700Y0067951D01*
X0130702Y0066952D02*
X0147740Y0066952D01*
X0146741Y0065954D02*
X0129703Y0065954D01*
X0128705Y0064955D02*
X0146706Y0064955D01*
X0145707Y0063957D02*
X0128091Y0063957D01*
X0128091Y0062958D02*
X0144909Y0062958D01*
X0144909Y0061960D02*
X0137629Y0061960D01*
X0139324Y0060961D02*
X0143676Y0060961D01*
X0142885Y0059963D02*
X0140115Y0059963D01*
X0140528Y0058964D02*
X0142472Y0058964D01*
X0142409Y0057966D02*
X0140591Y0057966D01*
X0140591Y0056967D02*
X0142409Y0056967D01*
X0142409Y0055969D02*
X0140591Y0055969D01*
X0140591Y0054970D02*
X0142409Y0054970D01*
X0142409Y0053972D02*
X0140591Y0053972D01*
X0140591Y0052973D02*
X0142409Y0052973D01*
X0142409Y0051975D02*
X0140591Y0051975D01*
X0140503Y0050976D02*
X0142496Y0050976D01*
X0142910Y0049978D02*
X0140090Y0049978D01*
X0139264Y0048979D02*
X0143736Y0048979D01*
X0149264Y0048979D02*
X0153736Y0048979D01*
X0152910Y0049978D02*
X0150090Y0049978D01*
X0150503Y0050976D02*
X0152496Y0050976D01*
X0152409Y0051975D02*
X0150591Y0051975D01*
X0150591Y0052973D02*
X0152409Y0052973D01*
X0152409Y0053972D02*
X0150591Y0053972D01*
X0150591Y0054970D02*
X0152409Y0054970D01*
X0152409Y0055969D02*
X0150591Y0055969D01*
X0150591Y0056967D02*
X0152409Y0056967D01*
X0152409Y0057966D02*
X0150591Y0057966D01*
X0150528Y0058964D02*
X0152472Y0058964D01*
X0152885Y0059963D02*
X0150115Y0059963D01*
X0149324Y0060961D02*
X0153676Y0060961D01*
X0155371Y0061960D02*
X0148209Y0061960D01*
X0146500Y0062500D02*
X0149000Y0065000D01*
X0146500Y0062500D02*
X0146500Y0055000D01*
X0135371Y0061960D02*
X0128091Y0061960D01*
X0129324Y0060961D02*
X0133676Y0060961D01*
X0132885Y0059963D02*
X0130115Y0059963D01*
X0130528Y0058964D02*
X0132472Y0058964D01*
X0132409Y0057966D02*
X0130591Y0057966D01*
X0130591Y0056967D02*
X0132409Y0056967D01*
X0132409Y0055969D02*
X0130591Y0055969D01*
X0130591Y0054970D02*
X0132409Y0054970D01*
X0132409Y0053972D02*
X0130591Y0053972D01*
X0130591Y0052973D02*
X0132409Y0052973D01*
X0132409Y0051975D02*
X0130591Y0051975D01*
X0130503Y0050976D02*
X0132496Y0050976D01*
X0132910Y0049978D02*
X0130090Y0049978D01*
X0129264Y0048979D02*
X0133736Y0048979D01*
X0126500Y0055000D02*
X0126500Y0065000D01*
X0131500Y0070000D01*
X0131500Y0089154D01*
X0134756Y0088920D02*
X0154909Y0088920D01*
X0154909Y0089918D02*
X0134756Y0089918D01*
X0134756Y0090917D02*
X0154909Y0090917D01*
X0154909Y0091915D02*
X0134415Y0091915D01*
X0134117Y0092787D02*
X0134756Y0093426D01*
X0134756Y0098267D01*
X0134117Y0098905D01*
X0133091Y0098905D01*
X0133091Y0113159D01*
X0118091Y0128159D01*
X0117159Y0129091D01*
X0099659Y0129091D01*
X0098091Y0130659D01*
X0098091Y0168231D01*
X0098817Y0168532D01*
X0099968Y0169683D01*
X0100591Y0171186D01*
X0100591Y0178814D01*
X0099968Y0180317D01*
X0098817Y0181468D01*
X0097314Y0182091D01*
X0095686Y0182091D01*
X0094183Y0181468D01*
X0093032Y0180317D01*
X0092409Y0178814D01*
X0092409Y0171186D01*
X0093032Y0169683D01*
X0094183Y0168532D01*
X0094909Y0168231D01*
X0094909Y0129341D01*
X0095841Y0128409D01*
X0098341Y0125909D01*
X0115841Y0125909D01*
X0129909Y0111841D01*
X0129909Y0098905D01*
X0128883Y0098905D01*
X0128244Y0098267D01*
X0128244Y0093426D01*
X0128883Y0092787D01*
X0134117Y0092787D01*
X0134243Y0092914D02*
X0154909Y0092914D01*
X0154909Y0093912D02*
X0134756Y0093912D01*
X0134756Y0094911D02*
X0154909Y0094911D01*
X0154909Y0095909D02*
X0134756Y0095909D01*
X0134756Y0096908D02*
X0154909Y0096908D01*
X0154909Y0097906D02*
X0134756Y0097906D01*
X0134118Y0098905D02*
X0155655Y0098905D01*
X0156654Y0099903D02*
X0133091Y0099903D01*
X0133091Y0100902D02*
X0157652Y0100902D01*
X0158651Y0101900D02*
X0133091Y0101900D01*
X0133091Y0102899D02*
X0159649Y0102899D01*
X0159909Y0103159D02*
X0159909Y0103159D01*
X0160648Y0103897D02*
X0133091Y0103897D01*
X0133091Y0104896D02*
X0171209Y0104896D01*
X0171209Y0105894D02*
X0133091Y0105894D01*
X0133091Y0106893D02*
X0165909Y0106893D01*
X0165909Y0107891D02*
X0163022Y0107891D01*
X0159978Y0107891D02*
X0133091Y0107891D01*
X0133091Y0108890D02*
X0159181Y0108890D01*
X0158933Y0109888D02*
X0133091Y0109888D01*
X0133091Y0110887D02*
X0159089Y0110887D01*
X0159755Y0111885D02*
X0133091Y0111885D01*
X0133091Y0112884D02*
X0166042Y0112884D01*
X0168609Y0113882D02*
X0132367Y0113882D01*
X0131368Y0114881D02*
X0168609Y0114881D01*
X0168609Y0115879D02*
X0130370Y0115879D01*
X0129371Y0116878D02*
X0168629Y0116878D01*
X0169627Y0117876D02*
X0128373Y0117876D01*
X0127374Y0118875D02*
X0170626Y0118875D01*
X0171624Y0119873D02*
X0126376Y0119873D01*
X0125377Y0120872D02*
X0172623Y0120872D01*
X0174000Y0120000D02*
X0209000Y0120000D01*
X0208874Y0117876D02*
X0174126Y0117876D01*
X0173127Y0116878D02*
X0209873Y0116878D01*
X0210871Y0115879D02*
X0202870Y0115879D01*
X0203868Y0114881D02*
X0211870Y0114881D01*
X0212868Y0113882D02*
X0204867Y0113882D01*
X0205865Y0112884D02*
X0213867Y0112884D01*
X0214865Y0111885D02*
X0206864Y0111885D01*
X0207862Y0110887D02*
X0214909Y0110887D01*
X0214909Y0109888D02*
X0208091Y0109888D01*
X0208091Y0108890D02*
X0214909Y0108890D01*
X0214909Y0107891D02*
X0208091Y0107891D01*
X0208091Y0106893D02*
X0214909Y0106893D01*
X0214909Y0105894D02*
X0208091Y0105894D01*
X0208091Y0104896D02*
X0214909Y0104896D01*
X0214909Y0103897D02*
X0208091Y0103897D01*
X0208091Y0102899D02*
X0214909Y0102899D01*
X0214909Y0101900D02*
X0208091Y0101900D01*
X0208091Y0100902D02*
X0214909Y0100902D01*
X0214909Y0099903D02*
X0208091Y0099903D01*
X0208091Y0098905D02*
X0214909Y0098905D01*
X0214909Y0097906D02*
X0208091Y0097906D01*
X0208091Y0096908D02*
X0214909Y0096908D01*
X0214909Y0095909D02*
X0208091Y0095909D01*
X0208091Y0094911D02*
X0214909Y0094911D01*
X0214909Y0093912D02*
X0208091Y0093912D01*
X0208091Y0092914D02*
X0214909Y0092914D01*
X0214909Y0091915D02*
X0208091Y0091915D01*
X0208091Y0090917D02*
X0214909Y0090917D01*
X0214909Y0089918D02*
X0208091Y0089918D01*
X0208091Y0088920D02*
X0214909Y0088920D01*
X0214909Y0087921D02*
X0208091Y0087921D01*
X0208091Y0086923D02*
X0214909Y0086923D01*
X0214909Y0085924D02*
X0208091Y0085924D01*
X0208091Y0084926D02*
X0214909Y0084926D01*
X0214909Y0083927D02*
X0208091Y0083927D01*
X0208091Y0082929D02*
X0214909Y0082929D01*
X0214909Y0081930D02*
X0208091Y0081930D01*
X0208091Y0080932D02*
X0214909Y0080932D01*
X0214909Y0079933D02*
X0208091Y0079933D01*
X0208091Y0078934D02*
X0214909Y0078934D01*
X0214909Y0077936D02*
X0208091Y0077936D01*
X0208091Y0076937D02*
X0214909Y0076937D01*
X0214909Y0075939D02*
X0208091Y0075939D01*
X0208091Y0074940D02*
X0214909Y0074940D01*
X0214909Y0073942D02*
X0208091Y0073942D01*
X0208091Y0072943D02*
X0214909Y0072943D01*
X0214909Y0071945D02*
X0208091Y0071945D01*
X0208091Y0070946D02*
X0214909Y0070946D01*
X0214909Y0069948D02*
X0208091Y0069948D01*
X0208091Y0068949D02*
X0214909Y0068949D01*
X0214909Y0067951D02*
X0208091Y0067951D01*
X0208091Y0066952D02*
X0214909Y0066952D01*
X0214909Y0065954D02*
X0208091Y0065954D01*
X0208091Y0064955D02*
X0214909Y0064955D01*
X0214909Y0063957D02*
X0208091Y0063957D01*
X0208091Y0062958D02*
X0214909Y0062958D01*
X0214909Y0061960D02*
X0208091Y0061960D01*
X0209324Y0060961D02*
X0213676Y0060961D01*
X0212885Y0059963D02*
X0210115Y0059963D01*
X0210528Y0058964D02*
X0212472Y0058964D01*
X0212409Y0057966D02*
X0210591Y0057966D01*
X0210591Y0056967D02*
X0212409Y0056967D01*
X0212409Y0055969D02*
X0210591Y0055969D01*
X0206500Y0055000D02*
X0206500Y0110000D01*
X0201500Y0115000D01*
X0176500Y0115000D01*
X0175300Y0113800D01*
X0175300Y0109700D01*
X0177091Y0109888D02*
X0178441Y0109888D01*
X0178441Y0108890D02*
X0177091Y0108890D01*
X0177091Y0107891D02*
X0178779Y0107891D01*
X0179080Y0107591D02*
X0179303Y0107591D01*
X0179035Y0107519D01*
X0178741Y0107349D01*
X0178501Y0107109D01*
X0178332Y0106816D01*
X0178244Y0106488D01*
X0178244Y0104638D01*
X0181016Y0104638D01*
X0181016Y0103669D01*
X0178244Y0103669D01*
X0178244Y0101819D01*
X0178305Y0101591D01*
X0172840Y0101591D01*
X0173091Y0101841D01*
X0174391Y0103141D01*
X0174391Y0106009D01*
X0176452Y0106009D01*
X0177091Y0106648D01*
X0177091Y0112752D01*
X0176891Y0112952D01*
X0176891Y0113141D01*
X0177159Y0113409D01*
X0178441Y0113409D01*
X0178441Y0108229D01*
X0179080Y0107591D01*
X0178376Y0106893D02*
X0177091Y0106893D01*
X0178244Y0105894D02*
X0174391Y0105894D01*
X0174391Y0104896D02*
X0178244Y0104896D01*
X0178244Y0102899D02*
X0174148Y0102899D01*
X0174391Y0103897D02*
X0181016Y0103897D01*
X0181984Y0103897D02*
X0204909Y0103897D01*
X0204909Y0102899D02*
X0184756Y0102899D01*
X0184756Y0101900D02*
X0204909Y0101900D01*
X0204909Y0104896D02*
X0184756Y0104896D01*
X0184756Y0105894D02*
X0204909Y0105894D01*
X0204909Y0106893D02*
X0184624Y0106893D01*
X0184221Y0107891D02*
X0187478Y0107891D01*
X0186681Y0108890D02*
X0184559Y0108890D01*
X0184559Y0112884D02*
X0201367Y0112884D01*
X0202365Y0111885D02*
X0190745Y0111885D01*
X0191411Y0110887D02*
X0203364Y0110887D01*
X0204362Y0109888D02*
X0191567Y0109888D01*
X0191319Y0108890D02*
X0204909Y0108890D01*
X0204909Y0107891D02*
X0190522Y0107891D01*
X0191500Y0100000D02*
X0171500Y0100000D01*
X0170200Y0098700D01*
X0170200Y0095300D01*
X0167700Y0095300D02*
X0167700Y0091300D01*
X0169000Y0090000D01*
X0166728Y0089918D02*
X0158091Y0089918D01*
X0158091Y0088920D02*
X0166868Y0088920D01*
X0167866Y0087921D02*
X0158091Y0087921D01*
X0158091Y0086923D02*
X0168673Y0086923D01*
X0167675Y0085924D02*
X0158772Y0085924D01*
X0158772Y0084926D02*
X0167409Y0084926D01*
X0167214Y0083927D02*
X0158640Y0083927D01*
X0157641Y0082929D02*
X0166728Y0082929D01*
X0166181Y0081930D02*
X0155679Y0081930D01*
X0157091Y0080932D02*
X0160909Y0080932D01*
X0160744Y0079933D02*
X0157256Y0079933D01*
X0157256Y0078934D02*
X0160744Y0078934D01*
X0160744Y0077936D02*
X0157256Y0077936D01*
X0157256Y0076937D02*
X0160744Y0076937D01*
X0160744Y0075939D02*
X0157256Y0075939D01*
X0157256Y0073942D02*
X0160744Y0073942D01*
X0159694Y0072943D02*
X0157256Y0072943D01*
X0157256Y0071945D02*
X0157732Y0071945D01*
X0159000Y0070000D02*
X0160654Y0071654D01*
X0164000Y0071654D01*
X0174000Y0071654D01*
X0177256Y0071945D02*
X0180744Y0071945D01*
X0180744Y0072943D02*
X0177256Y0072943D01*
X0177256Y0073942D02*
X0180744Y0073942D01*
X0180744Y0074074D02*
X0180744Y0069233D01*
X0181383Y0068594D01*
X0182409Y0068594D01*
X0182409Y0066622D01*
X0181728Y0065941D01*
X0181728Y0064059D01*
X0183059Y0062728D01*
X0184941Y0062728D01*
X0186272Y0064059D01*
X0186272Y0065941D01*
X0185591Y0066622D01*
X0185591Y0068594D01*
X0186617Y0068594D01*
X0187256Y0069233D01*
X0187256Y0070063D01*
X0190744Y0070063D01*
X0190744Y0069233D01*
X0191383Y0068594D01*
X0196617Y0068594D01*
X0197256Y0069233D01*
X0197256Y0074074D01*
X0196617Y0074713D01*
X0191383Y0074713D01*
X0190744Y0074074D01*
X0190744Y0073244D01*
X0187256Y0073244D01*
X0187256Y0074074D01*
X0186617Y0074713D01*
X0181383Y0074713D01*
X0180744Y0074074D01*
X0181383Y0075287D02*
X0186617Y0075287D01*
X0187256Y0075926D01*
X0187256Y0080767D01*
X0186617Y0081405D01*
X0185591Y0081405D01*
X0185591Y0085659D01*
X0181272Y0089978D01*
X0181272Y0090941D01*
X0179941Y0092272D01*
X0178059Y0092272D01*
X0176728Y0090941D01*
X0176728Y0089059D01*
X0178059Y0087728D01*
X0179022Y0087728D01*
X0182409Y0084341D01*
X0182409Y0081405D01*
X0181383Y0081405D01*
X0180744Y0080767D01*
X0180744Y0075926D01*
X0181383Y0075287D01*
X0180744Y0075939D02*
X0177256Y0075939D01*
X0177256Y0075926D02*
X0177256Y0080767D01*
X0176617Y0081405D01*
X0175891Y0081405D01*
X0175891Y0081717D01*
X0176607Y0082433D01*
X0177011Y0082433D01*
X0177954Y0082824D01*
X0178676Y0083546D01*
X0179067Y0084489D01*
X0179067Y0085511D01*
X0178676Y0086454D01*
X0177954Y0087176D01*
X0177011Y0087567D01*
X0175989Y0087567D01*
X0175046Y0087176D01*
X0174324Y0086454D01*
X0173933Y0085511D01*
X0173933Y0085107D01*
X0172109Y0083283D01*
X0172109Y0081405D01*
X0171383Y0081405D01*
X0170744Y0080767D01*
X0170744Y0075926D01*
X0171383Y0075287D01*
X0176617Y0075287D01*
X0177256Y0075926D01*
X0177256Y0076937D02*
X0180744Y0076937D01*
X0180744Y0077936D02*
X0177256Y0077936D01*
X0177256Y0078934D02*
X0180744Y0078934D01*
X0180744Y0079933D02*
X0177256Y0079933D01*
X0177091Y0080932D02*
X0180909Y0080932D01*
X0182409Y0081930D02*
X0176104Y0081930D01*
X0178059Y0082929D02*
X0182409Y0082929D01*
X0182409Y0083927D02*
X0178834Y0083927D01*
X0179067Y0084926D02*
X0181825Y0084926D01*
X0180827Y0085924D02*
X0178896Y0085924D01*
X0178208Y0086923D02*
X0179828Y0086923D01*
X0177866Y0087921D02*
X0174170Y0087921D01*
X0174391Y0088920D02*
X0176868Y0088920D01*
X0176728Y0089918D02*
X0174391Y0089918D01*
X0174391Y0090917D02*
X0176728Y0090917D01*
X0177033Y0091915D02*
X0177703Y0091915D01*
X0177287Y0092914D02*
X0196337Y0092914D01*
X0195338Y0093912D02*
X0177287Y0093912D01*
X0177287Y0094911D02*
X0194340Y0094911D01*
X0193341Y0095909D02*
X0177287Y0095909D01*
X0177287Y0095300D02*
X0175300Y0095300D01*
X0175300Y0095300D01*
X0177287Y0095300D01*
X0177287Y0096908D02*
X0192343Y0096908D01*
X0191344Y0097906D02*
X0177287Y0097906D01*
X0175300Y0095300D02*
X0175300Y0091413D01*
X0175300Y0095300D01*
X0175300Y0095300D01*
X0175300Y0094911D02*
X0175300Y0094911D01*
X0175300Y0093912D02*
X0175300Y0093912D01*
X0175300Y0092914D02*
X0175300Y0092914D01*
X0175300Y0091915D02*
X0175300Y0091915D01*
X0172800Y0088800D02*
X0172800Y0095300D01*
X0169154Y0099903D02*
X0161153Y0099903D01*
X0162151Y0100902D02*
X0170152Y0100902D01*
X0171500Y0102500D02*
X0161500Y0102500D01*
X0156500Y0097500D01*
X0156500Y0085000D01*
X0154000Y0082500D01*
X0154000Y0078346D01*
X0150744Y0077936D02*
X0147256Y0077936D01*
X0147256Y0078934D02*
X0150744Y0078934D01*
X0150744Y0079933D02*
X0147256Y0079933D01*
X0147256Y0080767D02*
X0147256Y0075926D01*
X0146617Y0075287D01*
X0141383Y0075287D01*
X0140744Y0075926D01*
X0140744Y0080767D01*
X0141383Y0081405D01*
X0142109Y0081405D01*
X0142109Y0083260D01*
X0141824Y0083546D01*
X0141433Y0084489D01*
X0141433Y0085511D01*
X0141824Y0086454D01*
X0142546Y0087176D01*
X0143489Y0087567D01*
X0144511Y0087567D01*
X0145454Y0087176D01*
X0146176Y0086454D01*
X0146567Y0085511D01*
X0146567Y0084489D01*
X0146176Y0083546D01*
X0145891Y0083260D01*
X0145891Y0081405D01*
X0146617Y0081405D01*
X0147256Y0080767D01*
X0147091Y0080932D02*
X0150909Y0080932D01*
X0152409Y0081930D02*
X0145891Y0081930D01*
X0145891Y0082929D02*
X0152409Y0082929D01*
X0153178Y0083927D02*
X0146334Y0083927D01*
X0146567Y0084926D02*
X0154176Y0084926D01*
X0154228Y0085924D02*
X0146396Y0085924D01*
X0145708Y0086923D02*
X0154909Y0086923D01*
X0154909Y0087921D02*
X0134756Y0087921D01*
X0134756Y0086923D02*
X0142292Y0086923D01*
X0141604Y0085924D02*
X0133091Y0085924D01*
X0133091Y0084926D02*
X0141433Y0084926D01*
X0141666Y0083927D02*
X0133091Y0083927D01*
X0133091Y0082929D02*
X0142109Y0082929D01*
X0142109Y0081930D02*
X0133091Y0081930D01*
X0133091Y0080932D02*
X0140909Y0080932D01*
X0140744Y0079933D02*
X0133091Y0079933D01*
X0133091Y0078934D02*
X0140744Y0078934D01*
X0140744Y0077936D02*
X0133091Y0077936D01*
X0133091Y0076937D02*
X0140744Y0076937D01*
X0140744Y0075939D02*
X0133091Y0075939D01*
X0133091Y0074940D02*
X0199909Y0074940D01*
X0199909Y0073942D02*
X0197256Y0073942D01*
X0197256Y0072943D02*
X0199909Y0072943D01*
X0199909Y0071945D02*
X0197256Y0071945D01*
X0197256Y0070946D02*
X0199909Y0070946D01*
X0199909Y0069948D02*
X0197256Y0069948D01*
X0196972Y0068949D02*
X0199909Y0068949D01*
X0199909Y0067951D02*
X0185591Y0067951D01*
X0185591Y0066952D02*
X0199909Y0066952D01*
X0199909Y0065954D02*
X0186259Y0065954D01*
X0186272Y0064955D02*
X0199206Y0064955D01*
X0198207Y0063957D02*
X0186169Y0063957D01*
X0185171Y0062958D02*
X0197209Y0062958D01*
X0195371Y0061960D02*
X0188172Y0061960D01*
X0187000Y0061960D02*
X0186000Y0061960D01*
X0186000Y0060961D02*
X0187000Y0060961D01*
X0187000Y0059963D02*
X0186000Y0059963D01*
X0186000Y0058964D02*
X0187000Y0058964D01*
X0187000Y0057966D02*
X0186000Y0057966D01*
X0186000Y0056967D02*
X0187000Y0056967D01*
X0187000Y0055969D02*
X0186000Y0055969D01*
X0186000Y0052973D02*
X0187000Y0052973D01*
X0187000Y0051975D02*
X0186000Y0051975D01*
X0186000Y0050976D02*
X0187000Y0050976D01*
X0187000Y0049978D02*
X0186000Y0049978D01*
X0186000Y0048979D02*
X0187000Y0048979D01*
X0189542Y0048979D02*
X0193736Y0048979D01*
X0192910Y0049978D02*
X0190281Y0049978D01*
X0190675Y0050976D02*
X0192496Y0050976D01*
X0192409Y0051975D02*
X0190787Y0051975D01*
X0190787Y0052973D02*
X0192409Y0052973D01*
X0192409Y0053972D02*
X0190787Y0053972D01*
X0190787Y0055969D02*
X0192409Y0055969D01*
X0192409Y0056967D02*
X0190787Y0056967D01*
X0190787Y0057966D02*
X0192409Y0057966D01*
X0192472Y0058964D02*
X0190688Y0058964D01*
X0190312Y0059963D02*
X0192885Y0059963D01*
X0193676Y0060961D02*
X0189602Y0060961D01*
X0184828Y0061960D02*
X0178091Y0061960D01*
X0178091Y0062958D02*
X0182829Y0062958D01*
X0181831Y0063957D02*
X0177293Y0063957D01*
X0176294Y0064955D02*
X0181728Y0064955D01*
X0181741Y0065954D02*
X0175296Y0065954D01*
X0174000Y0065000D02*
X0176500Y0062500D01*
X0176500Y0055000D01*
X0180591Y0055969D02*
X0182213Y0055969D01*
X0182213Y0056967D02*
X0180591Y0056967D01*
X0180591Y0057966D02*
X0182213Y0057966D01*
X0182312Y0058964D02*
X0180528Y0058964D01*
X0180115Y0059963D02*
X0182688Y0059963D01*
X0183398Y0060961D02*
X0179324Y0060961D01*
X0184000Y0065000D02*
X0184000Y0071654D01*
X0194000Y0071654D01*
X0190744Y0069948D02*
X0187256Y0069948D01*
X0186972Y0068949D02*
X0191028Y0068949D01*
X0190744Y0073942D02*
X0187256Y0073942D01*
X0187256Y0075939D02*
X0190744Y0075939D01*
X0190744Y0075926D02*
X0191383Y0075287D01*
X0196617Y0075287D01*
X0197256Y0075926D01*
X0197256Y0080767D01*
X0196617Y0081405D01*
X0195891Y0081405D01*
X0195891Y0083260D01*
X0196176Y0083546D01*
X0196567Y0084489D01*
X0196567Y0085511D01*
X0196176Y0086454D01*
X0195454Y0087176D01*
X0194511Y0087567D01*
X0193489Y0087567D01*
X0192546Y0087176D01*
X0191824Y0086454D01*
X0191433Y0085511D01*
X0191433Y0084489D01*
X0191824Y0083546D01*
X0192109Y0083260D01*
X0192109Y0081405D01*
X0191383Y0081405D01*
X0190744Y0080767D01*
X0190744Y0075926D01*
X0190744Y0076937D02*
X0187256Y0076937D01*
X0187256Y0077936D02*
X0190744Y0077936D01*
X0190744Y0078934D02*
X0187256Y0078934D01*
X0187256Y0079933D02*
X0190744Y0079933D01*
X0190909Y0080932D02*
X0187091Y0080932D01*
X0185591Y0081930D02*
X0192109Y0081930D01*
X0192109Y0082929D02*
X0185591Y0082929D01*
X0185591Y0083927D02*
X0191666Y0083927D01*
X0191433Y0084926D02*
X0185591Y0084926D01*
X0185325Y0085924D02*
X0191604Y0085924D01*
X0192292Y0086923D02*
X0184327Y0086923D01*
X0183328Y0087921D02*
X0199909Y0087921D01*
X0199909Y0086923D02*
X0195708Y0086923D01*
X0196396Y0085924D02*
X0199909Y0085924D01*
X0199909Y0084926D02*
X0196567Y0084926D01*
X0196334Y0083927D02*
X0199909Y0083927D01*
X0199909Y0082929D02*
X0195891Y0082929D01*
X0195891Y0081930D02*
X0199909Y0081930D01*
X0199909Y0080932D02*
X0197091Y0080932D01*
X0197256Y0079933D02*
X0199909Y0079933D01*
X0199909Y0078934D02*
X0197256Y0078934D01*
X0197256Y0077936D02*
X0199909Y0077936D01*
X0199909Y0076937D02*
X0197256Y0076937D01*
X0197256Y0075939D02*
X0199909Y0075939D01*
X0199909Y0088920D02*
X0182330Y0088920D01*
X0181331Y0089918D02*
X0199332Y0089918D01*
X0198334Y0090917D02*
X0181272Y0090917D01*
X0180297Y0091915D02*
X0197335Y0091915D01*
X0184000Y0085000D02*
X0179000Y0090000D01*
X0174792Y0086923D02*
X0173172Y0086923D01*
X0174104Y0085924D02*
X0172173Y0085924D01*
X0171175Y0084926D02*
X0173752Y0084926D01*
X0172753Y0083927D02*
X0170786Y0083927D01*
X0171272Y0082929D02*
X0172109Y0082929D01*
X0172109Y0081930D02*
X0171272Y0081930D01*
X0170909Y0080932D02*
X0170644Y0080932D01*
X0170744Y0079933D02*
X0168682Y0079933D01*
X0167684Y0078934D02*
X0170744Y0078934D01*
X0170744Y0077936D02*
X0167256Y0077936D01*
X0167256Y0076937D02*
X0170744Y0076937D01*
X0170744Y0075939D02*
X0167256Y0075939D01*
X0167256Y0073942D02*
X0170744Y0073942D01*
X0170744Y0069948D02*
X0167256Y0069948D01*
X0166972Y0068949D02*
X0171028Y0068949D01*
X0174000Y0065000D02*
X0156500Y0065000D01*
X0154000Y0067500D01*
X0154000Y0071654D01*
X0144000Y0071654D01*
X0140744Y0071945D02*
X0133091Y0071945D01*
X0133091Y0072943D02*
X0140744Y0072943D01*
X0140744Y0073942D02*
X0133091Y0073942D01*
X0129909Y0073942D02*
X0122256Y0073942D01*
X0122256Y0072943D02*
X0129909Y0072943D01*
X0129909Y0071945D02*
X0122256Y0071945D01*
X0122256Y0070946D02*
X0129909Y0070946D01*
X0129199Y0069948D02*
X0122256Y0069948D01*
X0121972Y0068949D02*
X0128200Y0068949D01*
X0127202Y0067951D02*
X0120591Y0067951D01*
X0120591Y0066952D02*
X0126203Y0066952D01*
X0125204Y0065954D02*
X0120591Y0065954D01*
X0120591Y0064955D02*
X0124909Y0064955D01*
X0124909Y0063957D02*
X0120206Y0063957D01*
X0119208Y0062958D02*
X0124909Y0062958D01*
X0124909Y0061960D02*
X0118209Y0061960D01*
X0119324Y0060961D02*
X0123676Y0060961D01*
X0122885Y0059963D02*
X0120115Y0059963D01*
X0120528Y0058964D02*
X0122472Y0058964D01*
X0122409Y0057966D02*
X0120591Y0057966D01*
X0120591Y0056967D02*
X0122409Y0056967D01*
X0122409Y0055969D02*
X0120591Y0055969D01*
X0120591Y0054970D02*
X0122409Y0054970D01*
X0122409Y0053972D02*
X0120591Y0053972D01*
X0120591Y0052973D02*
X0122409Y0052973D01*
X0122409Y0051975D02*
X0120591Y0051975D01*
X0120503Y0050976D02*
X0122496Y0050976D01*
X0122910Y0049978D02*
X0120090Y0049978D01*
X0119264Y0048979D02*
X0123736Y0048979D01*
X0116500Y0055000D02*
X0116500Y0062500D01*
X0119000Y0065000D01*
X0119000Y0071654D01*
X0109000Y0071654D01*
X0105744Y0071945D02*
X0094484Y0071945D01*
X0093516Y0071945D02*
X0088091Y0071945D01*
X0088091Y0072943D02*
X0090744Y0072943D01*
X0090744Y0073942D02*
X0088091Y0073942D01*
X0088091Y0074940D02*
X0091399Y0074940D01*
X0090941Y0075939D02*
X0090652Y0075939D01*
X0084909Y0074940D02*
X0079756Y0074940D01*
X0079756Y0073942D02*
X0084909Y0073942D01*
X0084909Y0072943D02*
X0079273Y0072943D01*
X0079385Y0071945D02*
X0084909Y0071945D01*
X0084909Y0070946D02*
X0079756Y0070946D01*
X0079756Y0069948D02*
X0084909Y0069948D01*
X0084909Y0068949D02*
X0079756Y0068949D01*
X0079756Y0067951D02*
X0084909Y0067951D01*
X0084909Y0066952D02*
X0079756Y0066952D01*
X0078091Y0065954D02*
X0084909Y0065954D01*
X0084909Y0064955D02*
X0078091Y0064955D01*
X0078091Y0063957D02*
X0084909Y0063957D01*
X0084909Y0062958D02*
X0078091Y0062958D01*
X0078091Y0061960D02*
X0084909Y0061960D01*
X0083676Y0060961D02*
X0079324Y0060961D01*
X0080115Y0059963D02*
X0082885Y0059963D01*
X0082472Y0058964D02*
X0080528Y0058964D01*
X0080591Y0057966D02*
X0082409Y0057966D01*
X0082409Y0056967D02*
X0080591Y0056967D01*
X0080591Y0055969D02*
X0082409Y0055969D01*
X0076500Y0055000D02*
X0076500Y0069154D01*
X0066500Y0069154D01*
X0063244Y0068949D02*
X0032984Y0068949D01*
X0032984Y0067951D02*
X0063244Y0067951D01*
X0063244Y0066952D02*
X0049574Y0066952D01*
X0048481Y0067202D02*
X0048481Y0067202D01*
X0045152Y0066952D02*
X0032984Y0066952D01*
X0032984Y0065954D02*
X0041333Y0065954D01*
X0043576Y0066834D02*
X0043576Y0066834D01*
X0038998Y0065037D02*
X0038998Y0065037D01*
X0038895Y0064955D02*
X0032984Y0064955D01*
X0032984Y0063957D02*
X0037643Y0063957D01*
X0036391Y0062958D02*
X0032984Y0062958D01*
X0032984Y0061960D02*
X0035145Y0061960D01*
X0034464Y0060961D02*
X0032984Y0060961D01*
X0032984Y0059963D02*
X0033784Y0059963D01*
X0033103Y0058964D02*
X0032984Y0058964D01*
X0032984Y0069948D02*
X0063244Y0069948D01*
X0063244Y0070946D02*
X0032984Y0070946D01*
X0032984Y0071945D02*
X0045347Y0071945D01*
X0045515Y0071777D02*
X0046640Y0071311D01*
X0047857Y0071311D01*
X0048981Y0071777D01*
X0049841Y0072637D01*
X0050307Y0073762D01*
X0050307Y0074979D01*
X0049841Y0076103D01*
X0048981Y0076963D01*
X0047857Y0077429D01*
X0046640Y0077429D01*
X0045515Y0076963D01*
X0044655Y0076103D01*
X0044189Y0074979D01*
X0044189Y0073762D01*
X0044655Y0072637D01*
X0045515Y0071777D01*
X0044528Y0072943D02*
X0032984Y0072943D01*
X0032984Y0073942D02*
X0044189Y0073942D01*
X0044189Y0074940D02*
X0032984Y0074940D01*
X0032984Y0075939D02*
X0044587Y0075939D01*
X0045489Y0076937D02*
X0032984Y0076937D01*
X0032984Y0077936D02*
X0063244Y0077936D01*
X0063244Y0078267D02*
X0063244Y0073426D01*
X0063883Y0072787D01*
X0069117Y0072787D01*
X0069756Y0073426D01*
X0069756Y0078267D01*
X0069117Y0078905D01*
X0068391Y0078905D01*
X0068391Y0096717D01*
X0072283Y0100609D01*
X0073391Y0101717D01*
X0073391Y0110760D01*
X0073676Y0111046D01*
X0074067Y0111989D01*
X0074067Y0113011D01*
X0073676Y0113954D01*
X0072954Y0114676D01*
X0072011Y0115067D01*
X0070989Y0115067D01*
X0070046Y0114676D01*
X0069324Y0113954D01*
X0068933Y0113011D01*
X0068933Y0111989D01*
X0069324Y0111046D01*
X0069609Y0110760D01*
X0069609Y0103283D01*
X0064609Y0098283D01*
X0064609Y0078905D01*
X0063883Y0078905D01*
X0063244Y0078267D01*
X0063244Y0076937D02*
X0049007Y0076937D01*
X0049909Y0075939D02*
X0063244Y0075939D01*
X0063244Y0074940D02*
X0050307Y0074940D01*
X0050307Y0073942D02*
X0063244Y0073942D01*
X0063727Y0072943D02*
X0049968Y0072943D01*
X0049149Y0071945D02*
X0063615Y0071945D01*
X0069273Y0072943D02*
X0073727Y0072943D01*
X0073615Y0071945D02*
X0069385Y0071945D01*
X0069756Y0070946D02*
X0073244Y0070946D01*
X0073244Y0066952D02*
X0069756Y0066952D01*
X0068146Y0061973D02*
X0067504Y0062182D01*
X0067000Y0062262D01*
X0067000Y0055500D01*
X0070787Y0055500D01*
X0070787Y0058337D01*
X0070682Y0059004D01*
X0070473Y0059646D01*
X0070167Y0060247D01*
X0069770Y0060793D01*
X0069293Y0061270D01*
X0068747Y0061667D01*
X0068146Y0061973D01*
X0068172Y0061960D02*
X0074909Y0061960D01*
X0074909Y0062958D02*
X0058176Y0062958D01*
X0059102Y0061960D02*
X0064828Y0061960D01*
X0066000Y0061960D02*
X0067000Y0061960D01*
X0067000Y0060961D02*
X0066000Y0060961D01*
X0066000Y0059963D02*
X0067000Y0059963D01*
X0067000Y0058964D02*
X0066000Y0058964D01*
X0066000Y0057966D02*
X0067000Y0057966D01*
X0067000Y0056967D02*
X0066000Y0056967D01*
X0066000Y0055969D02*
X0067000Y0055969D01*
X0067000Y0054970D02*
X0072409Y0054970D01*
X0072409Y0053972D02*
X0070787Y0053972D01*
X0070787Y0054500D02*
X0067000Y0054500D01*
X0067000Y0047738D01*
X0067504Y0047818D01*
X0068146Y0048027D01*
X0068747Y0048333D01*
X0069293Y0048730D01*
X0069770Y0049207D01*
X0070167Y0049753D01*
X0070473Y0050354D01*
X0070682Y0050996D01*
X0070787Y0051663D01*
X0070787Y0054500D01*
X0070787Y0055969D02*
X0072409Y0055969D01*
X0072409Y0056967D02*
X0070787Y0056967D01*
X0070787Y0057966D02*
X0072409Y0057966D01*
X0072472Y0058964D02*
X0070688Y0058964D01*
X0070312Y0059963D02*
X0072885Y0059963D01*
X0073676Y0060961D02*
X0069602Y0060961D01*
X0074909Y0063957D02*
X0057001Y0063957D01*
X0055272Y0064955D02*
X0074909Y0064955D01*
X0074909Y0065954D02*
X0053542Y0065954D01*
X0053276Y0066107D02*
X0053276Y0066107D01*
X0060029Y0060961D02*
X0063398Y0060961D01*
X0062688Y0059963D02*
X0060920Y0059963D01*
X0060881Y0060043D02*
X0060881Y0060043D01*
X0061400Y0058964D02*
X0062312Y0058964D01*
X0062213Y0057966D02*
X0061881Y0057966D01*
X0066000Y0053972D02*
X0067000Y0053972D01*
X0067000Y0052973D02*
X0066000Y0052973D01*
X0066000Y0051975D02*
X0067000Y0051975D01*
X0067000Y0050976D02*
X0066000Y0050976D01*
X0066000Y0049978D02*
X0067000Y0049978D01*
X0067000Y0048979D02*
X0066000Y0048979D01*
X0066000Y0047981D02*
X0067000Y0047981D01*
X0068004Y0047981D02*
X0075514Y0047981D01*
X0073736Y0048979D02*
X0069542Y0048979D01*
X0070281Y0049978D02*
X0072910Y0049978D01*
X0072496Y0050976D02*
X0070675Y0050976D01*
X0070787Y0051975D02*
X0072409Y0051975D01*
X0072409Y0052973D02*
X0070787Y0052973D01*
X0064996Y0047981D02*
X0063331Y0047981D01*
X0063180Y0046982D02*
X0224249Y0046982D01*
X0224557Y0045984D02*
X0063030Y0045984D01*
X0062582Y0044985D02*
X0224865Y0044985D01*
X0225173Y0043987D02*
X0062101Y0043987D01*
X0061620Y0042988D02*
X0225705Y0042988D01*
X0225295Y0043589D02*
X0225295Y0043589D01*
X0226386Y0041990D02*
X0061139Y0041990D01*
X0060452Y0040991D02*
X0227067Y0040991D01*
X0227747Y0039993D02*
X0059526Y0039993D01*
X0058599Y0038994D02*
X0228732Y0038994D01*
X0229984Y0037996D02*
X0057673Y0037996D01*
X0057536Y0037848D02*
X0057536Y0037848D01*
X0056062Y0036997D02*
X0231236Y0036997D01*
X0254314Y0058964D02*
X0254425Y0058964D01*
X0254425Y0059963D02*
X0253833Y0059963D01*
X0253794Y0060043D02*
X0253794Y0060043D01*
X0254425Y0060961D02*
X0252942Y0060961D01*
X0252016Y0061960D02*
X0254425Y0061960D01*
X0254425Y0062958D02*
X0251089Y0062958D01*
X0250449Y0063648D02*
X0250449Y0063648D01*
X0249914Y0063957D02*
X0254425Y0063957D01*
X0254425Y0064955D02*
X0248185Y0064955D01*
X0246456Y0065954D02*
X0254425Y0065954D01*
X0254425Y0066952D02*
X0242488Y0066952D01*
X0242062Y0071945D02*
X0254425Y0071945D01*
X0254425Y0072943D02*
X0242882Y0072943D01*
X0243220Y0073942D02*
X0254425Y0073942D01*
X0254425Y0074940D02*
X0243220Y0074940D01*
X0242823Y0075939D02*
X0254425Y0075939D01*
X0254425Y0076937D02*
X0241920Y0076937D01*
X0237000Y0088920D02*
X0236000Y0088920D01*
X0236000Y0089918D02*
X0237000Y0089918D01*
X0237000Y0090917D02*
X0236000Y0090917D01*
X0236000Y0091915D02*
X0237000Y0091915D01*
X0237000Y0094911D02*
X0236000Y0094911D01*
X0236000Y0095909D02*
X0237000Y0095909D01*
X0242102Y0095909D02*
X0254425Y0095909D01*
X0254425Y0094911D02*
X0243048Y0094911D01*
X0243549Y0093912D02*
X0254425Y0093912D01*
X0254425Y0096908D02*
X0218091Y0096908D01*
X0218091Y0097906D02*
X0254425Y0097906D01*
X0254425Y0098905D02*
X0241509Y0098905D01*
X0242688Y0099903D02*
X0254425Y0099903D01*
X0254425Y0100902D02*
X0243266Y0100902D01*
X0243591Y0101900D02*
X0254425Y0101900D01*
X0254425Y0102899D02*
X0243591Y0102899D01*
X0243349Y0103897D02*
X0254425Y0103897D01*
X0254425Y0104896D02*
X0242889Y0104896D01*
X0241891Y0105894D02*
X0254425Y0105894D01*
X0254425Y0106893D02*
X0218091Y0106893D01*
X0218091Y0107891D02*
X0254425Y0107891D01*
X0254425Y0108890D02*
X0241473Y0108890D01*
X0242673Y0109888D02*
X0254425Y0109888D01*
X0254425Y0110887D02*
X0243259Y0110887D01*
X0243591Y0111885D02*
X0254425Y0111885D01*
X0254425Y0112884D02*
X0243591Y0112884D01*
X0243355Y0113882D02*
X0254425Y0113882D01*
X0254425Y0114881D02*
X0242904Y0114881D01*
X0241905Y0115879D02*
X0254425Y0115879D01*
X0254425Y0116878D02*
X0214371Y0116878D01*
X0213373Y0117876D02*
X0254425Y0117876D01*
X0254425Y0118875D02*
X0241805Y0118875D01*
X0241747Y0118833D02*
X0242293Y0119230D01*
X0242770Y0119707D01*
X0243167Y0120253D01*
X0243473Y0120854D01*
X0243682Y0121496D01*
X0243762Y0122000D01*
X0237000Y0122000D01*
X0237000Y0118213D01*
X0239837Y0118213D01*
X0240504Y0118318D01*
X0241146Y0118527D01*
X0241747Y0118833D01*
X0242891Y0119873D02*
X0254425Y0119873D01*
X0254425Y0120872D02*
X0243479Y0120872D01*
X0243741Y0121870D02*
X0254425Y0121870D01*
X0254425Y0122869D02*
X0237000Y0122869D01*
X0237000Y0123000D02*
X0243762Y0123000D01*
X0243682Y0123504D01*
X0243473Y0124146D01*
X0243167Y0124747D01*
X0242770Y0125293D01*
X0242293Y0125770D01*
X0241747Y0126167D01*
X0241146Y0126473D01*
X0240504Y0126682D01*
X0239837Y0126787D01*
X0237000Y0126787D01*
X0237000Y0123000D01*
X0237000Y0123868D02*
X0236000Y0123868D01*
X0236000Y0124866D02*
X0237000Y0124866D01*
X0237000Y0125865D02*
X0236000Y0125865D01*
X0236000Y0122869D02*
X0123380Y0122869D01*
X0122382Y0123868D02*
X0229436Y0123868D01*
X0229920Y0124866D02*
X0183114Y0124866D01*
X0183042Y0124741D02*
X0183211Y0125035D01*
X0183299Y0125362D01*
X0183299Y0127016D01*
X0180331Y0127016D01*
X0180331Y0127984D01*
X0183299Y0127984D01*
X0183299Y0129638D01*
X0183211Y0129965D01*
X0183042Y0130259D01*
X0182802Y0130499D01*
X0182509Y0130668D01*
X0182181Y0130756D01*
X0180331Y0130756D01*
X0180331Y0127984D01*
X0179362Y0127984D01*
X0179362Y0130756D01*
X0177512Y0130756D01*
X0177184Y0130668D01*
X0176891Y0130499D01*
X0176651Y0130259D01*
X0176481Y0129965D01*
X0176409Y0129697D01*
X0176409Y0129920D01*
X0175771Y0130559D01*
X0175044Y0130559D01*
X0175044Y0135271D01*
X0174835Y0135481D01*
X0174835Y0137794D01*
X0174196Y0138433D01*
X0168568Y0138433D01*
X0167929Y0137794D01*
X0167929Y0134725D01*
X0168568Y0134087D01*
X0170881Y0134087D01*
X0171263Y0133705D01*
X0171263Y0130559D01*
X0170536Y0130559D01*
X0169898Y0129920D01*
X0169898Y0129391D01*
X0168240Y0129391D01*
X0167954Y0129676D01*
X0167011Y0130067D01*
X0165989Y0130067D01*
X0165046Y0129676D01*
X0164324Y0128954D01*
X0163933Y0128011D01*
X0163933Y0126989D01*
X0164324Y0126046D01*
X0165046Y0125324D01*
X0165989Y0124933D01*
X0167011Y0124933D01*
X0167954Y0125324D01*
X0168240Y0125609D01*
X0169898Y0125609D01*
X0169898Y0125080D01*
X0170536Y0124441D01*
X0175771Y0124441D01*
X0176409Y0125080D01*
X0176409Y0125303D01*
X0176481Y0125035D01*
X0176651Y0124741D01*
X0176891Y0124501D01*
X0177184Y0124332D01*
X0177512Y0124244D01*
X0179362Y0124244D01*
X0179362Y0127016D01*
X0180331Y0127016D01*
X0180331Y0124244D01*
X0182181Y0124244D01*
X0182509Y0124332D01*
X0182802Y0124501D01*
X0183042Y0124741D01*
X0183299Y0125865D02*
X0230837Y0125865D01*
X0232686Y0128409D02*
X0231183Y0129032D01*
X0230032Y0130183D01*
X0229409Y0131686D01*
X0229409Y0133314D01*
X0230032Y0134817D01*
X0231183Y0135968D01*
X0232686Y0136591D01*
X0240314Y0136591D01*
X0241817Y0135968D01*
X0242968Y0134817D01*
X0243591Y0133314D01*
X0243591Y0131686D01*
X0242968Y0130183D01*
X0241817Y0129032D01*
X0240314Y0128409D01*
X0232686Y0128409D01*
X0231598Y0128860D02*
X0183299Y0128860D01*
X0183240Y0129859D02*
X0230357Y0129859D01*
X0229753Y0130857D02*
X0175044Y0130857D01*
X0175044Y0131856D02*
X0229409Y0131856D01*
X0229409Y0132854D02*
X0175044Y0132854D01*
X0175044Y0133853D02*
X0229633Y0133853D01*
X0230066Y0134851D02*
X0193601Y0134851D01*
X0193419Y0134669D02*
X0195505Y0136756D01*
X0196437Y0137688D01*
X0196437Y0139244D01*
X0197267Y0139244D01*
X0197905Y0139883D01*
X0197905Y0140909D01*
X0212159Y0140909D01*
X0213091Y0141841D01*
X0218091Y0146841D01*
X0218091Y0168231D01*
X0218817Y0168532D01*
X0219968Y0169683D01*
X0220591Y0171186D01*
X0220591Y0178814D01*
X0219968Y0180317D01*
X0218817Y0181468D01*
X0217314Y0182091D01*
X0215686Y0182091D01*
X0214183Y0181468D01*
X0213032Y0180317D01*
X0212409Y0178814D01*
X0212409Y0171186D01*
X0213032Y0169683D01*
X0214183Y0168532D01*
X0214909Y0168231D01*
X0214909Y0148159D01*
X0210841Y0144091D01*
X0197905Y0144091D01*
X0197905Y0145117D01*
X0197267Y0145756D01*
X0192426Y0145756D01*
X0191787Y0145117D01*
X0191787Y0139883D01*
X0192426Y0139244D01*
X0193256Y0139244D01*
X0193256Y0139005D01*
X0192101Y0137850D01*
X0185015Y0137850D01*
X0184874Y0137991D01*
X0185010Y0138127D01*
X0185180Y0138420D01*
X0185268Y0138748D01*
X0185268Y0139710D01*
X0185733Y0139244D01*
X0190574Y0139244D01*
X0191213Y0139883D01*
X0191213Y0145117D01*
X0190574Y0145756D01*
X0189744Y0145756D01*
X0189744Y0146505D01*
X0188812Y0147437D01*
X0187159Y0149091D01*
X0184613Y0149091D01*
X0184756Y0149233D01*
X0184756Y0154074D01*
X0184117Y0154713D01*
X0178883Y0154713D01*
X0178244Y0154074D01*
X0178244Y0150647D01*
X0176155Y0148558D01*
X0174941Y0149772D01*
X0174756Y0149772D01*
X0174756Y0154074D01*
X0174117Y0154713D01*
X0168883Y0154713D01*
X0168244Y0154074D01*
X0168244Y0149233D01*
X0168883Y0148594D01*
X0170656Y0148594D01*
X0171728Y0147522D01*
X0171728Y0146559D01*
X0172374Y0145913D01*
X0168568Y0145913D01*
X0167985Y0145331D01*
X0167692Y0145331D01*
X0167267Y0145756D01*
X0162426Y0145756D01*
X0161787Y0145117D01*
X0161787Y0139883D01*
X0162426Y0139244D01*
X0167267Y0139244D01*
X0167905Y0139883D01*
X0167905Y0142150D01*
X0167985Y0142150D01*
X0168568Y0141567D01*
X0174196Y0141567D01*
X0174778Y0142150D01*
X0175899Y0142150D01*
X0176831Y0143081D01*
X0178091Y0144341D01*
X0178091Y0145995D01*
X0179228Y0147133D01*
X0179228Y0146559D01*
X0179874Y0145913D01*
X0178804Y0145913D01*
X0178165Y0145275D01*
X0178165Y0142206D01*
X0178362Y0142009D01*
X0178226Y0141873D01*
X0178056Y0141580D01*
X0177969Y0141252D01*
X0177969Y0140041D01*
X0181577Y0140041D01*
X0181577Y0139959D01*
X0177969Y0139959D01*
X0177969Y0138748D01*
X0178056Y0138420D01*
X0178226Y0138127D01*
X0178362Y0137991D01*
X0178165Y0137794D01*
X0178165Y0134725D01*
X0178804Y0134087D01*
X0184432Y0134087D01*
X0185015Y0134669D01*
X0193419Y0134669D01*
X0194599Y0135850D02*
X0231065Y0135850D01*
X0241935Y0135850D02*
X0254425Y0135850D01*
X0254425Y0136848D02*
X0195598Y0136848D01*
X0196437Y0137847D02*
X0254425Y0137847D01*
X0254425Y0138845D02*
X0196437Y0138845D01*
X0194846Y0138346D02*
X0192760Y0136260D01*
X0181618Y0136260D01*
X0178165Y0135850D02*
X0174835Y0135850D01*
X0174835Y0136848D02*
X0178165Y0136848D01*
X0178218Y0137847D02*
X0174782Y0137847D01*
X0175044Y0134851D02*
X0178165Y0134851D01*
X0177969Y0138845D02*
X0143367Y0138845D01*
X0143772Y0138441D02*
X0142441Y0139772D01*
X0140559Y0139772D01*
X0139878Y0139091D01*
X0132159Y0139091D01*
X0129308Y0141941D01*
X0129964Y0141941D01*
X0130602Y0142580D01*
X0130602Y0147420D01*
X0129964Y0148059D01*
X0128937Y0148059D01*
X0128937Y0148594D01*
X0129117Y0148594D01*
X0129756Y0149233D01*
X0129756Y0154074D01*
X0129117Y0154713D01*
X0123883Y0154713D01*
X0123244Y0154074D01*
X0123244Y0149233D01*
X0123883Y0148594D01*
X0125756Y0148594D01*
X0125756Y0148059D01*
X0124729Y0148059D01*
X0124091Y0147420D01*
X0124091Y0147197D01*
X0124019Y0147465D01*
X0123849Y0147759D01*
X0123609Y0147999D01*
X0123316Y0148168D01*
X0122988Y0148256D01*
X0121138Y0148256D01*
X0121138Y0145484D01*
X0120169Y0145484D01*
X0120169Y0144516D01*
X0117201Y0144516D01*
X0117201Y0142862D01*
X0117289Y0142535D01*
X0117458Y0142241D01*
X0117698Y0142001D01*
X0117991Y0141832D01*
X0118319Y0141744D01*
X0120169Y0141744D01*
X0120169Y0144516D01*
X0121138Y0144516D01*
X0121138Y0141744D01*
X0122988Y0141744D01*
X0123316Y0141832D01*
X0123609Y0142001D01*
X0123849Y0142241D01*
X0124019Y0142535D01*
X0124091Y0142803D01*
X0124091Y0142580D01*
X0124729Y0141941D01*
X0125756Y0141941D01*
X0125756Y0140995D01*
X0129909Y0136841D01*
X0130841Y0135909D01*
X0139878Y0135909D01*
X0140559Y0135228D01*
X0142441Y0135228D01*
X0143772Y0136559D01*
X0143772Y0138441D01*
X0143772Y0137847D02*
X0167982Y0137847D01*
X0167929Y0136848D02*
X0143772Y0136848D01*
X0143062Y0135850D02*
X0167929Y0135850D01*
X0167929Y0134851D02*
X0098091Y0134851D01*
X0098091Y0133853D02*
X0171115Y0133853D01*
X0171263Y0132854D02*
X0098091Y0132854D01*
X0098091Y0131856D02*
X0171263Y0131856D01*
X0171263Y0130857D02*
X0098091Y0130857D01*
X0098891Y0129859D02*
X0165486Y0129859D01*
X0164285Y0128860D02*
X0117389Y0128860D01*
X0118388Y0127862D02*
X0163933Y0127862D01*
X0163985Y0126863D02*
X0119386Y0126863D01*
X0120385Y0125865D02*
X0164505Y0125865D01*
X0167514Y0129859D02*
X0169898Y0129859D01*
X0170111Y0124866D02*
X0121383Y0124866D01*
X0118882Y0122869D02*
X0108772Y0122869D01*
X0108772Y0123441D02*
X0107441Y0124772D01*
X0105559Y0124772D01*
X0104228Y0123441D01*
X0104228Y0122478D01*
X0103341Y0121591D01*
X0102409Y0120659D01*
X0102409Y0117191D01*
X0102248Y0117191D01*
X0101609Y0116552D01*
X0101609Y0107648D01*
X0102248Y0107009D01*
X0105752Y0107009D01*
X0106391Y0107648D01*
X0106391Y0116552D01*
X0105752Y0117191D01*
X0105591Y0117191D01*
X0105591Y0119341D01*
X0106478Y0120228D01*
X0107441Y0120228D01*
X0108772Y0121559D01*
X0108772Y0123441D01*
X0108345Y0123868D02*
X0117883Y0123868D01*
X0116885Y0124866D02*
X0096383Y0124866D01*
X0095385Y0125865D02*
X0115886Y0125865D01*
X0116500Y0127500D02*
X0099000Y0127500D01*
X0096500Y0130000D01*
X0096500Y0175000D01*
X0100591Y0174792D02*
X0102409Y0174792D01*
X0102409Y0175790D02*
X0100591Y0175790D01*
X0100591Y0176789D02*
X0102409Y0176789D01*
X0102409Y0177787D02*
X0100591Y0177787D01*
X0100591Y0178786D02*
X0102409Y0178786D01*
X0102409Y0178814D02*
X0102409Y0171186D01*
X0103032Y0169683D01*
X0104183Y0168532D01*
X0104909Y0168231D01*
X0104909Y0139122D01*
X0104228Y0138441D01*
X0104228Y0136559D01*
X0105559Y0135228D01*
X0107441Y0135228D01*
X0108772Y0136559D01*
X0108772Y0138441D01*
X0108091Y0139122D01*
X0108091Y0168231D01*
X0108817Y0168532D01*
X0109968Y0169683D01*
X0110591Y0171186D01*
X0110591Y0178814D01*
X0109968Y0180317D01*
X0108817Y0181468D01*
X0107314Y0182091D01*
X0105686Y0182091D01*
X0104183Y0181468D01*
X0103032Y0180317D01*
X0102409Y0178814D01*
X0102811Y0179784D02*
X0100189Y0179784D01*
X0099502Y0180783D02*
X0103498Y0180783D01*
X0104939Y0181781D02*
X0098061Y0181781D01*
X0094939Y0181781D02*
X0088061Y0181781D01*
X0087314Y0182091D02*
X0088817Y0181468D01*
X0089968Y0180317D01*
X0090591Y0178814D01*
X0090591Y0171186D01*
X0089968Y0169683D01*
X0088817Y0168532D01*
X0088091Y0168231D01*
X0088091Y0133159D01*
X0100591Y0120659D01*
X0100591Y0117191D01*
X0100752Y0117191D01*
X0101391Y0116552D01*
X0101391Y0107648D01*
X0100752Y0107009D01*
X0097248Y0107009D01*
X0096609Y0107648D01*
X0096609Y0116552D01*
X0097248Y0117191D01*
X0097409Y0117191D01*
X0097409Y0119341D01*
X0085841Y0130909D01*
X0084909Y0131841D01*
X0084909Y0168231D01*
X0084183Y0168532D01*
X0083032Y0169683D01*
X0082409Y0171186D01*
X0082409Y0178814D01*
X0083032Y0180317D01*
X0084183Y0181468D01*
X0085686Y0182091D01*
X0087314Y0182091D01*
X0084939Y0181781D02*
X0078061Y0181781D01*
X0077314Y0182091D02*
X0075686Y0182091D01*
X0074183Y0181468D01*
X0073032Y0180317D01*
X0072409Y0178814D01*
X0072409Y0171186D01*
X0073032Y0169683D01*
X0074183Y0168532D01*
X0074909Y0168231D01*
X0074909Y0096405D01*
X0073883Y0096405D01*
X0073244Y0095767D01*
X0073244Y0090926D01*
X0073883Y0090287D01*
X0079117Y0090287D01*
X0079756Y0090926D01*
X0079756Y0095767D01*
X0079117Y0096405D01*
X0078091Y0096405D01*
X0078091Y0168231D01*
X0078817Y0168532D01*
X0079968Y0169683D01*
X0080591Y0171186D01*
X0080591Y0178814D01*
X0079968Y0180317D01*
X0078817Y0181468D01*
X0077314Y0182091D01*
X0074939Y0181781D02*
X0063580Y0181781D01*
X0063731Y0180783D02*
X0073498Y0180783D01*
X0072811Y0179784D02*
X0063615Y0179784D01*
X0063464Y0178786D02*
X0072409Y0178786D01*
X0072409Y0177787D02*
X0063314Y0177787D01*
X0063163Y0176789D02*
X0072409Y0176789D01*
X0072409Y0175790D02*
X0063007Y0175790D01*
X0063015Y0175806D02*
X0063015Y0175806D01*
X0062527Y0174792D02*
X0072409Y0174792D01*
X0072409Y0173793D02*
X0062046Y0173793D01*
X0061565Y0172795D02*
X0072409Y0172795D01*
X0072409Y0171796D02*
X0061084Y0171796D01*
X0060881Y0171375D02*
X0060881Y0171375D01*
X0060346Y0170798D02*
X0072570Y0170798D01*
X0072984Y0169799D02*
X0059419Y0169799D01*
X0058493Y0168801D02*
X0073915Y0168801D01*
X0074909Y0167802D02*
X0057566Y0167802D01*
X0057536Y0167769D02*
X0057536Y0167769D01*
X0057536Y0167769D01*
X0055863Y0166803D02*
X0074909Y0166803D01*
X0074909Y0165805D02*
X0054134Y0165805D01*
X0051071Y0164806D02*
X0074909Y0164806D01*
X0074909Y0163808D02*
X0032984Y0163808D01*
X0032984Y0164806D02*
X0043007Y0164806D01*
X0040463Y0165805D02*
X0032984Y0165805D01*
X0032984Y0166803D02*
X0038467Y0166803D01*
X0038998Y0166380D02*
X0038998Y0166380D01*
X0037215Y0167802D02*
X0032984Y0167802D01*
X0032984Y0168801D02*
X0035963Y0168801D01*
X0035153Y0169446D02*
X0035153Y0169446D01*
X0035153Y0169446D01*
X0034912Y0169799D02*
X0032984Y0169799D01*
X0032984Y0170798D02*
X0034232Y0170798D01*
X0033551Y0171796D02*
X0032984Y0171796D01*
X0032984Y0162809D02*
X0074909Y0162809D01*
X0074909Y0161811D02*
X0032984Y0161811D01*
X0032984Y0160812D02*
X0074909Y0160812D01*
X0074909Y0159814D02*
X0048562Y0159814D01*
X0048981Y0159641D02*
X0047857Y0160106D01*
X0046640Y0160106D01*
X0045515Y0159641D01*
X0044655Y0158780D01*
X0044189Y0157656D01*
X0044189Y0156439D01*
X0044655Y0155314D01*
X0045515Y0154454D01*
X0046640Y0153988D01*
X0047857Y0153988D01*
X0048981Y0154454D01*
X0049841Y0155314D01*
X0050307Y0156439D01*
X0050307Y0157656D01*
X0049841Y0158780D01*
X0048981Y0159641D01*
X0049806Y0158815D02*
X0074909Y0158815D01*
X0074909Y0157817D02*
X0050240Y0157817D01*
X0050307Y0156818D02*
X0074909Y0156818D01*
X0074909Y0155820D02*
X0050051Y0155820D01*
X0049348Y0154821D02*
X0074909Y0154821D01*
X0074909Y0153823D02*
X0032984Y0153823D01*
X0032984Y0154821D02*
X0045148Y0154821D01*
X0044445Y0155820D02*
X0032984Y0155820D01*
X0032984Y0156818D02*
X0044189Y0156818D01*
X0044256Y0157817D02*
X0032984Y0157817D01*
X0032984Y0158815D02*
X0044690Y0158815D01*
X0045934Y0159814D02*
X0032984Y0159814D01*
X0032984Y0152824D02*
X0074909Y0152824D01*
X0074909Y0151826D02*
X0032984Y0151826D01*
X0032984Y0150827D02*
X0074909Y0150827D01*
X0074909Y0149829D02*
X0032984Y0149829D01*
X0032984Y0148830D02*
X0074909Y0148830D01*
X0074909Y0147832D02*
X0032984Y0147832D01*
X0032984Y0146833D02*
X0074909Y0146833D01*
X0074909Y0145835D02*
X0032984Y0145835D01*
X0032984Y0144836D02*
X0074909Y0144836D01*
X0074909Y0143838D02*
X0032984Y0143838D01*
X0032984Y0142839D02*
X0074909Y0142839D01*
X0074909Y0141841D02*
X0032984Y0141841D01*
X0032984Y0140842D02*
X0074909Y0140842D01*
X0074909Y0139844D02*
X0032984Y0139844D01*
X0032984Y0138845D02*
X0074909Y0138845D01*
X0074909Y0137847D02*
X0032984Y0137847D01*
X0032984Y0136848D02*
X0074909Y0136848D01*
X0074909Y0135850D02*
X0032984Y0135850D01*
X0032984Y0134851D02*
X0052958Y0134851D01*
X0053838Y0135216D02*
X0051921Y0134422D01*
X0050453Y0132954D01*
X0049659Y0131037D01*
X0049659Y0128963D01*
X0050453Y0127046D01*
X0051921Y0125578D01*
X0053838Y0124784D01*
X0064162Y0124784D01*
X0066079Y0125578D01*
X0067547Y0127046D01*
X0068341Y0128963D01*
X0068341Y0131037D01*
X0067547Y0132954D01*
X0066079Y0134422D01*
X0064162Y0135216D01*
X0053838Y0135216D01*
X0051352Y0133853D02*
X0032984Y0133853D01*
X0032984Y0132854D02*
X0050412Y0132854D01*
X0049998Y0131856D02*
X0032984Y0131856D01*
X0032984Y0130857D02*
X0049659Y0130857D01*
X0049659Y0129859D02*
X0032984Y0129859D01*
X0032984Y0128860D02*
X0049702Y0128860D01*
X0050115Y0127862D02*
X0032984Y0127862D01*
X0032984Y0126863D02*
X0050636Y0126863D01*
X0051635Y0125865D02*
X0032984Y0125865D01*
X0032984Y0124866D02*
X0053641Y0124866D01*
X0054449Y0115412D02*
X0053608Y0115279D01*
X0052797Y0115016D01*
X0052038Y0114629D01*
X0051349Y0114128D01*
X0050747Y0113526D01*
X0050246Y0112837D01*
X0049859Y0112078D01*
X0049596Y0111267D01*
X0049474Y0110500D01*
X0058500Y0110500D01*
X0058500Y0115412D01*
X0054449Y0115412D01*
X0052533Y0114881D02*
X0032984Y0114881D01*
X0032984Y0115879D02*
X0074909Y0115879D01*
X0074909Y0114881D02*
X0072460Y0114881D01*
X0073706Y0113882D02*
X0074909Y0113882D01*
X0074909Y0112884D02*
X0074067Y0112884D01*
X0074024Y0111885D02*
X0074909Y0111885D01*
X0074909Y0110887D02*
X0073517Y0110887D01*
X0073391Y0109888D02*
X0074909Y0109888D01*
X0074909Y0108890D02*
X0073391Y0108890D01*
X0073391Y0107891D02*
X0074909Y0107891D01*
X0074909Y0106893D02*
X0073391Y0106893D01*
X0073391Y0105894D02*
X0074909Y0105894D01*
X0074909Y0104896D02*
X0073391Y0104896D01*
X0073391Y0103897D02*
X0074909Y0103897D01*
X0074909Y0102899D02*
X0073391Y0102899D01*
X0073391Y0101900D02*
X0074909Y0101900D01*
X0074909Y0100902D02*
X0072575Y0100902D01*
X0071577Y0099903D02*
X0074909Y0099903D01*
X0074909Y0098905D02*
X0070578Y0098905D01*
X0069580Y0097906D02*
X0074909Y0097906D01*
X0074909Y0096908D02*
X0068581Y0096908D01*
X0068391Y0095909D02*
X0073387Y0095909D01*
X0073244Y0094911D02*
X0068391Y0094911D01*
X0068391Y0093912D02*
X0073244Y0093912D01*
X0073244Y0092914D02*
X0068391Y0092914D01*
X0068391Y0091915D02*
X0073244Y0091915D01*
X0073254Y0090917D02*
X0068391Y0090917D01*
X0064609Y0090917D02*
X0032984Y0090917D01*
X0032984Y0091915D02*
X0064609Y0091915D01*
X0064609Y0092914D02*
X0032984Y0092914D01*
X0032984Y0093912D02*
X0064609Y0093912D01*
X0064609Y0094911D02*
X0032984Y0094911D01*
X0032984Y0095909D02*
X0064609Y0095909D01*
X0064609Y0096908D02*
X0032984Y0096908D01*
X0032984Y0097906D02*
X0064609Y0097906D01*
X0065231Y0098905D02*
X0032984Y0098905D01*
X0032984Y0099903D02*
X0066230Y0099903D01*
X0067228Y0100902D02*
X0032984Y0100902D01*
X0032984Y0101900D02*
X0068227Y0101900D01*
X0069225Y0102899D02*
X0032984Y0102899D01*
X0032984Y0103897D02*
X0069609Y0103897D01*
X0069609Y0104896D02*
X0064931Y0104896D01*
X0065203Y0104984D02*
X0065962Y0105371D01*
X0066651Y0105872D01*
X0067253Y0106474D01*
X0067754Y0107163D01*
X0068141Y0107922D01*
X0068404Y0108733D01*
X0068526Y0109500D01*
X0059500Y0109500D01*
X0059500Y0110500D01*
X0058500Y0110500D01*
X0058500Y0109500D01*
X0059500Y0109500D01*
X0059500Y0104588D01*
X0063551Y0104588D01*
X0064392Y0104721D01*
X0065203Y0104984D01*
X0066674Y0105894D02*
X0069609Y0105894D01*
X0069609Y0106893D02*
X0067558Y0106893D01*
X0068125Y0107891D02*
X0069609Y0107891D01*
X0069609Y0108890D02*
X0068429Y0108890D01*
X0069609Y0109888D02*
X0059500Y0109888D01*
X0059500Y0110500D02*
X0068526Y0110500D01*
X0068404Y0111267D01*
X0068141Y0112078D01*
X0067754Y0112837D01*
X0067253Y0113526D01*
X0066651Y0114128D01*
X0065962Y0114629D01*
X0065203Y0115016D01*
X0064392Y0115279D01*
X0063551Y0115412D01*
X0059500Y0115412D01*
X0059500Y0110500D01*
X0059500Y0110887D02*
X0058500Y0110887D01*
X0058500Y0111885D02*
X0059500Y0111885D01*
X0059500Y0112884D02*
X0058500Y0112884D01*
X0058500Y0113882D02*
X0059500Y0113882D01*
X0059500Y0114881D02*
X0058500Y0114881D01*
X0058500Y0109888D02*
X0032984Y0109888D01*
X0032984Y0108890D02*
X0049571Y0108890D01*
X0049596Y0108733D02*
X0049859Y0107922D01*
X0050246Y0107163D01*
X0050747Y0106474D01*
X0051349Y0105872D01*
X0052038Y0105371D01*
X0052797Y0104984D01*
X0053608Y0104721D01*
X0054449Y0104588D01*
X0058500Y0104588D01*
X0058500Y0109500D01*
X0049474Y0109500D01*
X0049596Y0108733D01*
X0049875Y0107891D02*
X0032984Y0107891D01*
X0032984Y0106893D02*
X0050442Y0106893D01*
X0051326Y0105894D02*
X0032984Y0105894D01*
X0032984Y0104896D02*
X0053069Y0104896D01*
X0058500Y0104896D02*
X0059500Y0104896D01*
X0059500Y0105894D02*
X0058500Y0105894D01*
X0058500Y0106893D02*
X0059500Y0106893D01*
X0059500Y0107891D02*
X0058500Y0107891D01*
X0058500Y0108890D02*
X0059500Y0108890D01*
X0065467Y0114881D02*
X0070540Y0114881D01*
X0069294Y0113882D02*
X0066897Y0113882D01*
X0067720Y0112884D02*
X0068933Y0112884D01*
X0068976Y0111885D02*
X0068203Y0111885D01*
X0068464Y0110887D02*
X0069483Y0110887D01*
X0074909Y0116878D02*
X0032984Y0116878D01*
X0032984Y0117876D02*
X0074909Y0117876D01*
X0074909Y0118875D02*
X0032984Y0118875D01*
X0032984Y0119873D02*
X0074909Y0119873D01*
X0074909Y0120872D02*
X0032984Y0120872D01*
X0032984Y0121870D02*
X0074909Y0121870D01*
X0074909Y0122869D02*
X0032984Y0122869D01*
X0032984Y0123868D02*
X0074909Y0123868D01*
X0074909Y0124866D02*
X0064359Y0124866D01*
X0066365Y0125865D02*
X0074909Y0125865D01*
X0074909Y0126863D02*
X0067364Y0126863D01*
X0067884Y0127862D02*
X0074909Y0127862D01*
X0074909Y0128860D02*
X0068298Y0128860D01*
X0068341Y0129859D02*
X0074909Y0129859D01*
X0074909Y0130857D02*
X0068341Y0130857D01*
X0068002Y0131856D02*
X0074909Y0131856D01*
X0074909Y0132854D02*
X0067588Y0132854D01*
X0066648Y0133853D02*
X0074909Y0133853D01*
X0074909Y0134851D02*
X0065042Y0134851D01*
X0078091Y0134851D02*
X0084909Y0134851D01*
X0084909Y0133853D02*
X0078091Y0133853D01*
X0078091Y0132854D02*
X0084909Y0132854D01*
X0084909Y0131856D02*
X0078091Y0131856D01*
X0078091Y0130857D02*
X0085894Y0130857D01*
X0086892Y0129859D02*
X0078091Y0129859D01*
X0078091Y0128860D02*
X0087891Y0128860D01*
X0088889Y0127862D02*
X0078091Y0127862D01*
X0078091Y0126863D02*
X0089888Y0126863D01*
X0090886Y0125865D02*
X0078091Y0125865D01*
X0078091Y0124866D02*
X0091885Y0124866D01*
X0092883Y0123868D02*
X0078091Y0123868D01*
X0078091Y0122869D02*
X0093882Y0122869D01*
X0094880Y0121870D02*
X0078091Y0121870D01*
X0078091Y0120872D02*
X0095879Y0120872D01*
X0096877Y0119873D02*
X0078091Y0119873D01*
X0078091Y0118875D02*
X0097409Y0118875D01*
X0097409Y0117876D02*
X0078091Y0117876D01*
X0078091Y0116878D02*
X0087248Y0116878D01*
X0087546Y0117176D02*
X0086824Y0116454D01*
X0086433Y0115511D01*
X0086433Y0114489D01*
X0086824Y0113546D01*
X0087546Y0112824D01*
X0088489Y0112433D01*
X0089511Y0112433D01*
X0090454Y0112824D01*
X0090528Y0112898D01*
X0091609Y0111817D01*
X0091609Y0107648D01*
X0092248Y0107009D01*
X0095752Y0107009D01*
X0096391Y0107648D01*
X0096391Y0116552D01*
X0095752Y0117191D01*
X0092248Y0117191D01*
X0091916Y0116858D01*
X0091883Y0116891D01*
X0090740Y0116891D01*
X0090454Y0117176D01*
X0089511Y0117567D01*
X0088489Y0117567D01*
X0087546Y0117176D01*
X0086586Y0115879D02*
X0078091Y0115879D01*
X0078091Y0114881D02*
X0086433Y0114881D01*
X0086684Y0113882D02*
X0078091Y0113882D01*
X0078091Y0112884D02*
X0087486Y0112884D01*
X0087011Y0112567D02*
X0085989Y0112567D01*
X0085046Y0112176D01*
X0084324Y0111454D01*
X0083933Y0110511D01*
X0083933Y0109489D01*
X0084324Y0108546D01*
X0084609Y0108260D01*
X0084609Y0106602D01*
X0084080Y0106602D01*
X0083441Y0105964D01*
X0083441Y0100729D01*
X0084080Y0100091D01*
X0084303Y0100091D01*
X0084035Y0100019D01*
X0083741Y0099849D01*
X0083501Y0099609D01*
X0083332Y0099316D01*
X0083244Y0098988D01*
X0083244Y0097138D01*
X0086016Y0097138D01*
X0086016Y0096169D01*
X0086984Y0096169D01*
X0086984Y0093201D01*
X0088638Y0093201D01*
X0088965Y0093289D01*
X0089259Y0093458D01*
X0089499Y0093698D01*
X0089668Y0093991D01*
X0089756Y0094319D01*
X0089756Y0096169D01*
X0086984Y0096169D01*
X0086984Y0097138D01*
X0089756Y0097138D01*
X0089756Y0098988D01*
X0089668Y0099316D01*
X0089499Y0099609D01*
X0089259Y0099849D01*
X0088965Y0100019D01*
X0088697Y0100091D01*
X0088920Y0100091D01*
X0089559Y0100729D01*
X0089559Y0105964D01*
X0088920Y0106602D01*
X0088391Y0106602D01*
X0088391Y0108260D01*
X0088676Y0108546D01*
X0089067Y0109489D01*
X0089067Y0110511D01*
X0088676Y0111454D01*
X0087954Y0112176D01*
X0087011Y0112567D01*
X0088245Y0111885D02*
X0091541Y0111885D01*
X0091609Y0110887D02*
X0088911Y0110887D01*
X0089067Y0109888D02*
X0091609Y0109888D01*
X0091609Y0108890D02*
X0088819Y0108890D01*
X0088391Y0107891D02*
X0091609Y0107891D01*
X0089559Y0105894D02*
X0122109Y0105894D01*
X0122109Y0104896D02*
X0089559Y0104896D01*
X0089559Y0103897D02*
X0122109Y0103897D01*
X0122109Y0102899D02*
X0089559Y0102899D01*
X0089559Y0101900D02*
X0122109Y0101900D01*
X0122109Y0100902D02*
X0089559Y0100902D01*
X0089165Y0099903D02*
X0122109Y0099903D01*
X0122109Y0098905D02*
X0119396Y0098905D01*
X0119499Y0098802D02*
X0119259Y0099042D01*
X0118965Y0099211D01*
X0118638Y0099299D01*
X0116984Y0099299D01*
X0116984Y0096331D01*
X0116016Y0096331D01*
X0116016Y0099299D01*
X0114362Y0099299D01*
X0114035Y0099211D01*
X0113741Y0099042D01*
X0113501Y0098802D01*
X0113332Y0098509D01*
X0113244Y0098181D01*
X0113244Y0096331D01*
X0116016Y0096331D01*
X0116016Y0095362D01*
X0113244Y0095362D01*
X0113244Y0093512D01*
X0113332Y0093184D01*
X0113501Y0092891D01*
X0113741Y0092651D01*
X0114035Y0092481D01*
X0114303Y0092409D01*
X0114080Y0092409D01*
X0113441Y0091771D01*
X0113441Y0089491D01*
X0111391Y0089491D01*
X0111391Y0092352D01*
X0110752Y0092991D01*
X0107248Y0092991D01*
X0106609Y0092352D01*
X0106609Y0083448D01*
X0107248Y0082809D01*
X0107409Y0082809D01*
X0107409Y0081405D01*
X0106383Y0081405D01*
X0105744Y0080767D01*
X0105744Y0075926D01*
X0106383Y0075287D01*
X0111617Y0075287D01*
X0112256Y0075926D01*
X0112256Y0080767D01*
X0111617Y0081405D01*
X0110591Y0081405D01*
X0110591Y0082809D01*
X0110752Y0082809D01*
X0111391Y0083448D01*
X0111391Y0086309D01*
X0113668Y0086309D01*
X0114080Y0085898D01*
X0118920Y0085898D01*
X0119559Y0086536D01*
X0119559Y0091771D01*
X0118920Y0092409D01*
X0118697Y0092409D01*
X0118965Y0092481D01*
X0119259Y0092651D01*
X0119499Y0092891D01*
X0119668Y0093184D01*
X0119756Y0093512D01*
X0119756Y0095362D01*
X0116984Y0095362D01*
X0116984Y0096331D01*
X0119756Y0096331D01*
X0119756Y0098181D01*
X0119668Y0098509D01*
X0119499Y0098802D01*
X0119756Y0097906D02*
X0122109Y0097906D01*
X0122109Y0096908D02*
X0119756Y0096908D01*
X0119756Y0094911D02*
X0122109Y0094911D01*
X0122109Y0095909D02*
X0116984Y0095909D01*
X0116016Y0095909D02*
X0089756Y0095909D01*
X0089756Y0094911D02*
X0113244Y0094911D01*
X0113244Y0093912D02*
X0089622Y0093912D01*
X0086984Y0093912D02*
X0086016Y0093912D01*
X0086016Y0093201D02*
X0086016Y0096169D01*
X0083244Y0096169D01*
X0083244Y0094319D01*
X0083332Y0093991D01*
X0083501Y0093698D01*
X0083741Y0093458D01*
X0084035Y0093289D01*
X0084362Y0093201D01*
X0086016Y0093201D01*
X0086016Y0094911D02*
X0086984Y0094911D01*
X0086984Y0095909D02*
X0086016Y0095909D01*
X0086016Y0096908D02*
X0078091Y0096908D01*
X0078091Y0097906D02*
X0083244Y0097906D01*
X0083244Y0098905D02*
X0078091Y0098905D01*
X0078091Y0099903D02*
X0083835Y0099903D01*
X0083441Y0100902D02*
X0078091Y0100902D01*
X0078091Y0101900D02*
X0083441Y0101900D01*
X0083441Y0102899D02*
X0078091Y0102899D01*
X0078091Y0103897D02*
X0083441Y0103897D01*
X0083441Y0104896D02*
X0078091Y0104896D01*
X0078091Y0105894D02*
X0083441Y0105894D01*
X0084609Y0106893D02*
X0078091Y0106893D01*
X0078091Y0107891D02*
X0084609Y0107891D01*
X0084181Y0108890D02*
X0078091Y0108890D01*
X0078091Y0109888D02*
X0083933Y0109888D01*
X0084089Y0110887D02*
X0078091Y0110887D01*
X0078091Y0111885D02*
X0084755Y0111885D01*
X0090514Y0112884D02*
X0090542Y0112884D01*
X0091896Y0116878D02*
X0091936Y0116878D01*
X0096064Y0116878D02*
X0096936Y0116878D01*
X0096609Y0115879D02*
X0096391Y0115879D01*
X0096391Y0114881D02*
X0096609Y0114881D01*
X0096609Y0113882D02*
X0096391Y0113882D01*
X0096391Y0112884D02*
X0096609Y0112884D01*
X0096609Y0111885D02*
X0096391Y0111885D01*
X0096391Y0110887D02*
X0096609Y0110887D01*
X0096609Y0109888D02*
X0096391Y0109888D01*
X0096391Y0108890D02*
X0096609Y0108890D01*
X0096609Y0107891D02*
X0096391Y0107891D01*
X0101391Y0107891D02*
X0101609Y0107891D01*
X0101609Y0108890D02*
X0101391Y0108890D01*
X0101391Y0109888D02*
X0101609Y0109888D01*
X0101609Y0110887D02*
X0101391Y0110887D01*
X0101391Y0111885D02*
X0101609Y0111885D01*
X0101609Y0112884D02*
X0101391Y0112884D01*
X0101391Y0113882D02*
X0101609Y0113882D01*
X0101609Y0114881D02*
X0101391Y0114881D01*
X0101391Y0115879D02*
X0101609Y0115879D01*
X0101936Y0116878D02*
X0101064Y0116878D01*
X0100591Y0117876D02*
X0102409Y0117876D01*
X0102409Y0118875D02*
X0100591Y0118875D01*
X0100591Y0119873D02*
X0102409Y0119873D01*
X0102623Y0120872D02*
X0100377Y0120872D01*
X0099379Y0121870D02*
X0103621Y0121870D01*
X0104228Y0122869D02*
X0098380Y0122869D01*
X0097382Y0123868D02*
X0104655Y0123868D01*
X0106500Y0122500D02*
X0104000Y0120000D01*
X0104000Y0112100D01*
X0106391Y0111885D02*
X0106413Y0111885D01*
X0106413Y0111950D02*
X0106413Y0107930D01*
X0106500Y0107603D01*
X0106670Y0107310D01*
X0106910Y0107070D01*
X0107203Y0106900D01*
X0107530Y0106813D01*
X0108850Y0106813D01*
X0108850Y0111950D01*
X0109150Y0111950D01*
X0109150Y0112250D01*
X0111587Y0112250D01*
X0111587Y0116269D01*
X0111500Y0116597D01*
X0111330Y0116890D01*
X0111090Y0117130D01*
X0110797Y0117300D01*
X0110469Y0117387D01*
X0109150Y0117387D01*
X0109150Y0112250D01*
X0108850Y0112250D01*
X0108850Y0117387D01*
X0107530Y0117387D01*
X0107203Y0117300D01*
X0106910Y0117130D01*
X0106670Y0116890D01*
X0106500Y0116597D01*
X0106413Y0116269D01*
X0106413Y0112250D01*
X0108850Y0112250D01*
X0108850Y0111950D01*
X0106413Y0111950D01*
X0106391Y0112884D02*
X0106413Y0112884D01*
X0106391Y0113882D02*
X0106413Y0113882D01*
X0106391Y0114881D02*
X0106413Y0114881D01*
X0106391Y0115879D02*
X0106413Y0115879D01*
X0106663Y0116878D02*
X0106064Y0116878D01*
X0105591Y0117876D02*
X0123874Y0117876D01*
X0124873Y0116878D02*
X0111337Y0116878D01*
X0111587Y0115879D02*
X0125871Y0115879D01*
X0125454Y0114676D02*
X0124511Y0115067D01*
X0123489Y0115067D01*
X0122546Y0114676D01*
X0121824Y0113954D01*
X0121433Y0113011D01*
X0121433Y0111989D01*
X0121824Y0111046D01*
X0122109Y0110760D01*
X0122109Y0085783D01*
X0118217Y0081891D01*
X0117732Y0081405D01*
X0116383Y0081405D01*
X0115744Y0080767D01*
X0115744Y0075926D01*
X0116383Y0075287D01*
X0121617Y0075287D01*
X0122256Y0075926D01*
X0122256Y0080582D01*
X0125891Y0084217D01*
X0125891Y0110760D01*
X0126176Y0111046D01*
X0126567Y0111989D01*
X0126567Y0113011D01*
X0126176Y0113954D01*
X0125454Y0114676D01*
X0124960Y0114881D02*
X0126870Y0114881D01*
X0126206Y0113882D02*
X0127868Y0113882D01*
X0128867Y0112884D02*
X0126567Y0112884D01*
X0126524Y0111885D02*
X0129865Y0111885D01*
X0129909Y0110887D02*
X0126017Y0110887D01*
X0125891Y0109888D02*
X0129909Y0109888D01*
X0129909Y0108890D02*
X0125891Y0108890D01*
X0125891Y0107891D02*
X0129909Y0107891D01*
X0129909Y0106893D02*
X0125891Y0106893D01*
X0125891Y0105894D02*
X0129909Y0105894D01*
X0129909Y0104896D02*
X0125891Y0104896D01*
X0125891Y0103897D02*
X0129909Y0103897D01*
X0129909Y0102899D02*
X0125891Y0102899D01*
X0125891Y0101900D02*
X0129909Y0101900D01*
X0129909Y0100902D02*
X0125891Y0100902D01*
X0125891Y0099903D02*
X0129909Y0099903D01*
X0128882Y0098905D02*
X0125891Y0098905D01*
X0125891Y0097906D02*
X0128244Y0097906D01*
X0128244Y0096908D02*
X0125891Y0096908D01*
X0125891Y0095909D02*
X0128244Y0095909D01*
X0128244Y0094911D02*
X0125891Y0094911D01*
X0125891Y0093912D02*
X0128244Y0093912D01*
X0128757Y0092914D02*
X0125891Y0092914D01*
X0125891Y0091915D02*
X0128585Y0091915D01*
X0128244Y0090917D02*
X0125891Y0090917D01*
X0125891Y0089918D02*
X0128244Y0089918D01*
X0128244Y0088920D02*
X0125891Y0088920D01*
X0125891Y0087921D02*
X0128244Y0087921D01*
X0128244Y0086923D02*
X0125891Y0086923D01*
X0125891Y0085924D02*
X0129909Y0085924D01*
X0129909Y0084926D02*
X0125891Y0084926D01*
X0125601Y0083927D02*
X0129909Y0083927D01*
X0129909Y0082929D02*
X0124602Y0082929D01*
X0123604Y0081930D02*
X0129909Y0081930D01*
X0129909Y0080932D02*
X0122605Y0080932D01*
X0122256Y0079933D02*
X0129909Y0079933D01*
X0129909Y0078934D02*
X0122256Y0078934D01*
X0122256Y0077936D02*
X0129909Y0077936D01*
X0129909Y0076937D02*
X0122256Y0076937D01*
X0122256Y0075939D02*
X0129909Y0075939D01*
X0129909Y0074940D02*
X0096601Y0074940D01*
X0097059Y0075939D02*
X0105744Y0075939D01*
X0105744Y0076937D02*
X0097059Y0076937D01*
X0097059Y0077936D02*
X0105744Y0077936D01*
X0105744Y0078934D02*
X0097059Y0078934D01*
X0097059Y0079933D02*
X0105744Y0079933D01*
X0105909Y0080932D02*
X0097059Y0080932D01*
X0097530Y0082613D02*
X0098850Y0082613D01*
X0098850Y0087750D01*
X0099150Y0087750D01*
X0099150Y0088050D01*
X0098850Y0088050D01*
X0098850Y0093187D01*
X0097530Y0093187D01*
X0097203Y0093100D01*
X0096910Y0092930D01*
X0096670Y0092690D01*
X0096500Y0092397D01*
X0096413Y0092069D01*
X0096413Y0088050D01*
X0098850Y0088050D01*
X0098850Y0087750D01*
X0096413Y0087750D01*
X0096413Y0083730D01*
X0096500Y0083403D01*
X0096670Y0083110D01*
X0096910Y0082870D01*
X0097203Y0082700D01*
X0097530Y0082613D01*
X0096851Y0082929D02*
X0095871Y0082929D01*
X0095591Y0081930D02*
X0107409Y0081930D01*
X0107129Y0082929D02*
X0106149Y0082929D01*
X0106090Y0082870D02*
X0106330Y0083110D01*
X0106500Y0083403D01*
X0106587Y0083730D01*
X0106587Y0087750D01*
X0104150Y0087750D01*
X0104150Y0088050D01*
X0106587Y0088050D01*
X0106587Y0092069D01*
X0106500Y0092397D01*
X0106330Y0092690D01*
X0106090Y0092930D01*
X0105797Y0093100D01*
X0105469Y0093187D01*
X0104150Y0093187D01*
X0104150Y0088050D01*
X0103850Y0088050D01*
X0103850Y0093187D01*
X0102530Y0093187D01*
X0102203Y0093100D01*
X0101910Y0092930D01*
X0101670Y0092690D01*
X0101500Y0092397D01*
X0101500Y0092396D01*
X0101500Y0092397D01*
X0101330Y0092690D01*
X0101090Y0092930D01*
X0100797Y0093100D01*
X0100469Y0093187D01*
X0099150Y0093187D01*
X0099150Y0088050D01*
X0103850Y0088050D01*
X0103850Y0087750D01*
X0104150Y0087750D01*
X0104150Y0082613D01*
X0105469Y0082613D01*
X0105797Y0082700D01*
X0106090Y0082870D01*
X0106587Y0083927D02*
X0106609Y0083927D01*
X0106587Y0084926D02*
X0106609Y0084926D01*
X0106587Y0085924D02*
X0106609Y0085924D01*
X0106587Y0086923D02*
X0106609Y0086923D01*
X0106609Y0087921D02*
X0104150Y0087921D01*
X0103850Y0087921D02*
X0099150Y0087921D01*
X0099150Y0087750D02*
X0101413Y0087750D01*
X0103850Y0087750D01*
X0103850Y0082613D01*
X0102530Y0082613D01*
X0102203Y0082700D01*
X0101910Y0082870D01*
X0101670Y0083110D01*
X0101500Y0083403D01*
X0101500Y0083404D01*
X0101500Y0083403D01*
X0101330Y0083110D01*
X0101090Y0082870D01*
X0100797Y0082700D01*
X0100469Y0082613D01*
X0099150Y0082613D01*
X0099150Y0087750D01*
X0098850Y0087921D02*
X0096391Y0087921D01*
X0096391Y0086923D02*
X0096413Y0086923D01*
X0096391Y0085924D02*
X0096413Y0085924D01*
X0096391Y0084926D02*
X0096413Y0084926D01*
X0096391Y0083927D02*
X0096413Y0083927D01*
X0098850Y0083927D02*
X0099150Y0083927D01*
X0099150Y0082929D02*
X0098850Y0082929D01*
X0098850Y0084926D02*
X0099150Y0084926D01*
X0099150Y0085924D02*
X0098850Y0085924D01*
X0098850Y0086923D02*
X0099150Y0086923D01*
X0099150Y0088920D02*
X0098850Y0088920D01*
X0098850Y0089918D02*
X0099150Y0089918D01*
X0099150Y0090917D02*
X0098850Y0090917D01*
X0098850Y0091915D02*
X0099150Y0091915D01*
X0099150Y0092914D02*
X0098850Y0092914D01*
X0096893Y0092914D02*
X0095829Y0092914D01*
X0096391Y0091915D02*
X0096413Y0091915D01*
X0096391Y0090917D02*
X0096413Y0090917D01*
X0096391Y0089918D02*
X0096413Y0089918D01*
X0096391Y0088920D02*
X0096413Y0088920D01*
X0091609Y0090917D02*
X0079746Y0090917D01*
X0079756Y0091915D02*
X0091609Y0091915D01*
X0092171Y0092914D02*
X0079756Y0092914D01*
X0079756Y0093912D02*
X0083377Y0093912D01*
X0083244Y0094911D02*
X0079756Y0094911D01*
X0079613Y0095909D02*
X0083244Y0095909D01*
X0086984Y0096908D02*
X0113244Y0096908D01*
X0113244Y0097906D02*
X0089756Y0097906D01*
X0089756Y0098905D02*
X0113604Y0098905D01*
X0116016Y0098905D02*
X0116984Y0098905D01*
X0116984Y0097906D02*
X0116016Y0097906D01*
X0116016Y0096908D02*
X0116984Y0096908D01*
X0119756Y0093912D02*
X0122109Y0093912D01*
X0122109Y0092914D02*
X0119512Y0092914D01*
X0119415Y0091915D02*
X0122109Y0091915D01*
X0122109Y0090917D02*
X0119559Y0090917D01*
X0119559Y0089918D02*
X0122109Y0089918D01*
X0122109Y0088920D02*
X0119559Y0088920D01*
X0119559Y0087921D02*
X0122109Y0087921D01*
X0122109Y0086923D02*
X0119559Y0086923D01*
X0118947Y0085924D02*
X0122109Y0085924D01*
X0121252Y0084926D02*
X0111391Y0084926D01*
X0111391Y0085924D02*
X0114053Y0085924D01*
X0115246Y0087900D02*
X0116500Y0089154D01*
X0115246Y0087900D02*
X0109000Y0087900D01*
X0109000Y0078346D01*
X0112256Y0077936D02*
X0115744Y0077936D01*
X0115744Y0078934D02*
X0112256Y0078934D01*
X0112256Y0079933D02*
X0115744Y0079933D01*
X0115909Y0080932D02*
X0112091Y0080932D01*
X0110591Y0081930D02*
X0118256Y0081930D01*
X0118217Y0081891D02*
X0118217Y0081891D01*
X0119255Y0082929D02*
X0110871Y0082929D01*
X0111391Y0083927D02*
X0120253Y0083927D01*
X0115744Y0076937D02*
X0112256Y0076937D01*
X0112256Y0075939D02*
X0115744Y0075939D01*
X0115744Y0073942D02*
X0112256Y0073942D01*
X0112256Y0069948D02*
X0115744Y0069948D01*
X0116028Y0068949D02*
X0111972Y0068949D01*
X0117409Y0067951D02*
X0088091Y0067951D01*
X0088091Y0068949D02*
X0090856Y0068949D01*
X0090832Y0068991D02*
X0091001Y0068698D01*
X0091241Y0068458D01*
X0091535Y0068289D01*
X0091862Y0068201D01*
X0093516Y0068201D01*
X0093516Y0071169D01*
X0090744Y0071169D01*
X0090744Y0069319D01*
X0090832Y0068991D01*
X0090744Y0069948D02*
X0088091Y0069948D01*
X0088091Y0070946D02*
X0090744Y0070946D01*
X0093516Y0070946D02*
X0094484Y0070946D01*
X0094484Y0069948D02*
X0093516Y0069948D01*
X0093516Y0068949D02*
X0094484Y0068949D01*
X0097144Y0068949D02*
X0106028Y0068949D01*
X0105744Y0069948D02*
X0097256Y0069948D01*
X0097256Y0070946D02*
X0105744Y0070946D01*
X0105744Y0072943D02*
X0097256Y0072943D01*
X0097256Y0073942D02*
X0105744Y0073942D01*
X0104150Y0082929D02*
X0103850Y0082929D01*
X0103850Y0083927D02*
X0104150Y0083927D01*
X0104150Y0084926D02*
X0103850Y0084926D01*
X0103850Y0085924D02*
X0104150Y0085924D01*
X0104150Y0086923D02*
X0103850Y0086923D01*
X0103850Y0088920D02*
X0104150Y0088920D01*
X0104150Y0089918D02*
X0103850Y0089918D01*
X0103850Y0090917D02*
X0104150Y0090917D01*
X0104150Y0091915D02*
X0103850Y0091915D01*
X0103850Y0092914D02*
X0104150Y0092914D01*
X0106107Y0092914D02*
X0107171Y0092914D01*
X0106609Y0091915D02*
X0106587Y0091915D01*
X0106587Y0090917D02*
X0106609Y0090917D01*
X0106587Y0089918D02*
X0106609Y0089918D01*
X0106587Y0088920D02*
X0106609Y0088920D01*
X0111391Y0089918D02*
X0113441Y0089918D01*
X0113441Y0090917D02*
X0111391Y0090917D01*
X0111391Y0091915D02*
X0113585Y0091915D01*
X0113488Y0092914D02*
X0110829Y0092914D01*
X0101893Y0092914D02*
X0101107Y0092914D01*
X0101149Y0082929D02*
X0101851Y0082929D01*
X0084318Y0079933D02*
X0068391Y0079933D01*
X0068391Y0078934D02*
X0077339Y0078934D01*
X0078154Y0077500D02*
X0076500Y0075846D01*
X0078154Y0077500D02*
X0084000Y0077500D01*
X0083319Y0080932D02*
X0068391Y0080932D01*
X0068391Y0081930D02*
X0082321Y0081930D01*
X0073244Y0077936D02*
X0069756Y0077936D01*
X0069756Y0076937D02*
X0073244Y0076937D01*
X0073244Y0075939D02*
X0069756Y0075939D01*
X0069756Y0074940D02*
X0073244Y0074940D01*
X0073244Y0073942D02*
X0069756Y0073942D01*
X0064609Y0078934D02*
X0032984Y0078934D01*
X0032984Y0079933D02*
X0064609Y0079933D01*
X0064609Y0080932D02*
X0032984Y0080932D01*
X0032984Y0081930D02*
X0064609Y0081930D01*
X0064609Y0082929D02*
X0032984Y0082929D01*
X0032984Y0083927D02*
X0036119Y0083927D01*
X0036136Y0083909D02*
X0039633Y0083909D01*
X0040359Y0084636D01*
X0040359Y0085664D01*
X0039633Y0086391D01*
X0039125Y0086391D01*
X0039125Y0089367D01*
X0038398Y0090094D01*
X0037371Y0090094D01*
X0036644Y0089367D01*
X0035409Y0088133D01*
X0035409Y0087105D01*
X0036130Y0086384D01*
X0035409Y0085664D01*
X0035409Y0084636D01*
X0036136Y0083909D01*
X0035409Y0084926D02*
X0032984Y0084926D01*
X0032984Y0085924D02*
X0035670Y0085924D01*
X0035592Y0086923D02*
X0032984Y0086923D01*
X0032984Y0087921D02*
X0035409Y0087921D01*
X0036196Y0088920D02*
X0032984Y0088920D01*
X0032984Y0089918D02*
X0037195Y0089918D01*
X0038574Y0089918D02*
X0064609Y0089918D01*
X0064609Y0088920D02*
X0039125Y0088920D01*
X0039125Y0087921D02*
X0064609Y0087921D01*
X0064609Y0086923D02*
X0039125Y0086923D01*
X0040099Y0085924D02*
X0064609Y0085924D01*
X0064609Y0084926D02*
X0040359Y0084926D01*
X0039650Y0083927D02*
X0064609Y0083927D01*
X0076500Y0093346D02*
X0076500Y0175000D01*
X0080591Y0174792D02*
X0082409Y0174792D01*
X0082409Y0175790D02*
X0080591Y0175790D01*
X0080591Y0176789D02*
X0082409Y0176789D01*
X0082409Y0177787D02*
X0080591Y0177787D01*
X0080591Y0178786D02*
X0082409Y0178786D01*
X0082811Y0179784D02*
X0080189Y0179784D01*
X0079502Y0180783D02*
X0083498Y0180783D01*
X0089502Y0180783D02*
X0093498Y0180783D01*
X0092811Y0179784D02*
X0090189Y0179784D01*
X0090591Y0178786D02*
X0092409Y0178786D01*
X0092409Y0177787D02*
X0090591Y0177787D01*
X0090591Y0176789D02*
X0092409Y0176789D01*
X0092409Y0175790D02*
X0090591Y0175790D01*
X0090591Y0174792D02*
X0092409Y0174792D01*
X0092409Y0173793D02*
X0090591Y0173793D01*
X0090591Y0172795D02*
X0092409Y0172795D01*
X0092409Y0171796D02*
X0090591Y0171796D01*
X0090429Y0170798D02*
X0092570Y0170798D01*
X0092984Y0169799D02*
X0090016Y0169799D01*
X0089085Y0168801D02*
X0093915Y0168801D01*
X0094909Y0167802D02*
X0088091Y0167802D01*
X0088091Y0166803D02*
X0094909Y0166803D01*
X0094909Y0165805D02*
X0088091Y0165805D01*
X0088091Y0164806D02*
X0094909Y0164806D01*
X0094909Y0163808D02*
X0088091Y0163808D01*
X0088091Y0162809D02*
X0094909Y0162809D01*
X0094909Y0161811D02*
X0088091Y0161811D01*
X0088091Y0160812D02*
X0094909Y0160812D01*
X0094909Y0159814D02*
X0088091Y0159814D01*
X0088091Y0158815D02*
X0094909Y0158815D01*
X0094909Y0157817D02*
X0088091Y0157817D01*
X0088091Y0156818D02*
X0094909Y0156818D01*
X0094909Y0155820D02*
X0088091Y0155820D01*
X0088091Y0154821D02*
X0094909Y0154821D01*
X0094909Y0153823D02*
X0088091Y0153823D01*
X0088091Y0152824D02*
X0094909Y0152824D01*
X0094909Y0151826D02*
X0088091Y0151826D01*
X0088091Y0150827D02*
X0094909Y0150827D01*
X0094909Y0149829D02*
X0088091Y0149829D01*
X0088091Y0148830D02*
X0094909Y0148830D01*
X0094909Y0147832D02*
X0088091Y0147832D01*
X0088091Y0146833D02*
X0094909Y0146833D01*
X0094909Y0145835D02*
X0088091Y0145835D01*
X0088091Y0144836D02*
X0094909Y0144836D01*
X0094909Y0143838D02*
X0088091Y0143838D01*
X0088091Y0142839D02*
X0094909Y0142839D01*
X0094909Y0141841D02*
X0088091Y0141841D01*
X0088091Y0140842D02*
X0094909Y0140842D01*
X0094909Y0139844D02*
X0088091Y0139844D01*
X0088091Y0138845D02*
X0094909Y0138845D01*
X0094909Y0137847D02*
X0088091Y0137847D01*
X0088091Y0136848D02*
X0094909Y0136848D01*
X0094909Y0135850D02*
X0088091Y0135850D01*
X0088091Y0134851D02*
X0094909Y0134851D01*
X0094909Y0133853D02*
X0088091Y0133853D01*
X0088395Y0132854D02*
X0094909Y0132854D01*
X0094909Y0131856D02*
X0089394Y0131856D01*
X0090392Y0130857D02*
X0094909Y0130857D01*
X0094909Y0129859D02*
X0091391Y0129859D01*
X0092389Y0128860D02*
X0095391Y0128860D01*
X0096389Y0127862D02*
X0093388Y0127862D01*
X0094386Y0126863D02*
X0097388Y0126863D01*
X0099000Y0120000D02*
X0086500Y0132500D01*
X0086500Y0175000D01*
X0082409Y0173793D02*
X0080591Y0173793D01*
X0080591Y0172795D02*
X0082409Y0172795D01*
X0082409Y0171796D02*
X0080591Y0171796D01*
X0080429Y0170798D02*
X0082570Y0170798D01*
X0082984Y0169799D02*
X0080016Y0169799D01*
X0079085Y0168801D02*
X0083915Y0168801D01*
X0084909Y0167802D02*
X0078091Y0167802D01*
X0078091Y0166803D02*
X0084909Y0166803D01*
X0084909Y0165805D02*
X0078091Y0165805D01*
X0078091Y0164806D02*
X0084909Y0164806D01*
X0084909Y0163808D02*
X0078091Y0163808D01*
X0078091Y0162809D02*
X0084909Y0162809D01*
X0084909Y0161811D02*
X0078091Y0161811D01*
X0078091Y0160812D02*
X0084909Y0160812D01*
X0084909Y0159814D02*
X0078091Y0159814D01*
X0078091Y0158815D02*
X0084909Y0158815D01*
X0084909Y0157817D02*
X0078091Y0157817D01*
X0078091Y0156818D02*
X0084909Y0156818D01*
X0084909Y0155820D02*
X0078091Y0155820D01*
X0078091Y0154821D02*
X0084909Y0154821D01*
X0084909Y0153823D02*
X0078091Y0153823D01*
X0078091Y0152824D02*
X0084909Y0152824D01*
X0084909Y0151826D02*
X0078091Y0151826D01*
X0078091Y0150827D02*
X0084909Y0150827D01*
X0084909Y0149829D02*
X0078091Y0149829D01*
X0078091Y0148830D02*
X0084909Y0148830D01*
X0084909Y0147832D02*
X0078091Y0147832D01*
X0078091Y0146833D02*
X0084909Y0146833D01*
X0084909Y0145835D02*
X0078091Y0145835D01*
X0078091Y0144836D02*
X0084909Y0144836D01*
X0084909Y0143838D02*
X0078091Y0143838D01*
X0078091Y0142839D02*
X0084909Y0142839D01*
X0084909Y0141841D02*
X0078091Y0141841D01*
X0078091Y0140842D02*
X0084909Y0140842D01*
X0084909Y0139844D02*
X0078091Y0139844D01*
X0078091Y0138845D02*
X0084909Y0138845D01*
X0084909Y0137847D02*
X0078091Y0137847D01*
X0078091Y0136848D02*
X0084909Y0136848D01*
X0084909Y0135850D02*
X0078091Y0135850D01*
X0098091Y0135850D02*
X0104938Y0135850D01*
X0104228Y0136848D02*
X0098091Y0136848D01*
X0098091Y0137847D02*
X0104228Y0137847D01*
X0104633Y0138845D02*
X0098091Y0138845D01*
X0098091Y0139844D02*
X0104909Y0139844D01*
X0104909Y0140842D02*
X0098091Y0140842D01*
X0098091Y0141841D02*
X0104909Y0141841D01*
X0104909Y0142839D02*
X0098091Y0142839D01*
X0098091Y0143838D02*
X0104909Y0143838D01*
X0104909Y0144836D02*
X0098091Y0144836D01*
X0098091Y0145835D02*
X0104909Y0145835D01*
X0104909Y0146833D02*
X0098091Y0146833D01*
X0098091Y0147832D02*
X0104909Y0147832D01*
X0104909Y0148830D02*
X0098091Y0148830D01*
X0098091Y0149829D02*
X0104909Y0149829D01*
X0104909Y0150827D02*
X0098091Y0150827D01*
X0098091Y0151826D02*
X0104909Y0151826D01*
X0104909Y0152824D02*
X0098091Y0152824D01*
X0098091Y0153823D02*
X0104909Y0153823D01*
X0104909Y0154821D02*
X0098091Y0154821D01*
X0098091Y0155820D02*
X0104909Y0155820D01*
X0104909Y0156818D02*
X0098091Y0156818D01*
X0098091Y0157817D02*
X0104909Y0157817D01*
X0104909Y0158815D02*
X0098091Y0158815D01*
X0098091Y0159814D02*
X0104909Y0159814D01*
X0104909Y0160812D02*
X0098091Y0160812D01*
X0098091Y0161811D02*
X0104909Y0161811D01*
X0104909Y0162809D02*
X0098091Y0162809D01*
X0098091Y0163808D02*
X0104909Y0163808D01*
X0104909Y0164806D02*
X0098091Y0164806D01*
X0098091Y0165805D02*
X0104909Y0165805D01*
X0104909Y0166803D02*
X0098091Y0166803D01*
X0098091Y0167802D02*
X0104909Y0167802D01*
X0103915Y0168801D02*
X0099085Y0168801D01*
X0100016Y0169799D02*
X0102984Y0169799D01*
X0102570Y0170798D02*
X0100429Y0170798D01*
X0100591Y0171796D02*
X0102409Y0171796D01*
X0102409Y0172795D02*
X0100591Y0172795D01*
X0100591Y0173793D02*
X0102409Y0173793D01*
X0106500Y0175000D02*
X0106500Y0137500D01*
X0108062Y0135850D02*
X0139938Y0135850D01*
X0141500Y0137500D02*
X0131500Y0137500D01*
X0127346Y0141654D01*
X0127346Y0145000D01*
X0127346Y0150807D01*
X0126500Y0151654D01*
X0129756Y0151826D02*
X0136016Y0151826D01*
X0136016Y0152138D02*
X0136016Y0151169D01*
X0136984Y0151169D01*
X0136984Y0148398D01*
X0138835Y0148398D01*
X0139162Y0148485D01*
X0139456Y0148655D01*
X0139696Y0148895D01*
X0139865Y0149188D01*
X0139953Y0149516D01*
X0139953Y0151169D01*
X0136984Y0151169D01*
X0136984Y0152138D01*
X0136016Y0152138D01*
X0136016Y0154909D01*
X0134165Y0154909D01*
X0133838Y0154822D01*
X0133544Y0154652D01*
X0133304Y0154413D01*
X0133135Y0154119D01*
X0133047Y0153792D01*
X0133047Y0152138D01*
X0136016Y0152138D01*
X0136016Y0152824D02*
X0136984Y0152824D01*
X0136984Y0152138D02*
X0136984Y0154909D01*
X0138835Y0154909D01*
X0139162Y0154822D01*
X0139456Y0154652D01*
X0139696Y0154413D01*
X0139865Y0154119D01*
X0139953Y0153792D01*
X0139953Y0152138D01*
X0136984Y0152138D01*
X0136984Y0151826D02*
X0143244Y0151826D01*
X0143244Y0152824D02*
X0139953Y0152824D01*
X0139944Y0153823D02*
X0143244Y0153823D01*
X0143244Y0154074D02*
X0143244Y0149233D01*
X0143883Y0148594D01*
X0144909Y0148594D01*
X0144909Y0148059D01*
X0144729Y0148059D01*
X0144091Y0147420D01*
X0144091Y0147197D01*
X0144019Y0147465D01*
X0143849Y0147759D01*
X0143609Y0147999D01*
X0143316Y0148168D01*
X0142988Y0148256D01*
X0141138Y0148256D01*
X0141138Y0145484D01*
X0140169Y0145484D01*
X0140169Y0144516D01*
X0137201Y0144516D01*
X0137201Y0142862D01*
X0137289Y0142535D01*
X0137458Y0142241D01*
X0137698Y0142001D01*
X0137991Y0141832D01*
X0138319Y0141744D01*
X0140169Y0141744D01*
X0140169Y0144516D01*
X0141138Y0144516D01*
X0141138Y0141744D01*
X0142988Y0141744D01*
X0143316Y0141832D01*
X0143609Y0142001D01*
X0143849Y0142241D01*
X0144019Y0142535D01*
X0144091Y0142803D01*
X0144091Y0142580D01*
X0144729Y0141941D01*
X0149964Y0141941D01*
X0150602Y0142580D01*
X0150602Y0147420D01*
X0149964Y0148059D01*
X0148091Y0148059D01*
X0148091Y0148594D01*
X0149117Y0148594D01*
X0149756Y0149233D01*
X0149756Y0150063D01*
X0156312Y0150063D01*
X0156478Y0150228D01*
X0157441Y0150228D01*
X0158772Y0151559D01*
X0158772Y0153441D01*
X0157441Y0154772D01*
X0155559Y0154772D01*
X0154228Y0153441D01*
X0154228Y0153244D01*
X0149756Y0153244D01*
X0149756Y0154074D01*
X0149117Y0154713D01*
X0143883Y0154713D01*
X0143244Y0154074D01*
X0143883Y0155287D02*
X0149117Y0155287D01*
X0149756Y0155926D01*
X0149756Y0160767D01*
X0149117Y0161405D01*
X0148091Y0161405D01*
X0148091Y0168231D01*
X0148817Y0168532D01*
X0149968Y0169683D01*
X0150591Y0171186D01*
X0150591Y0178814D01*
X0149968Y0180317D01*
X0148817Y0181468D01*
X0147314Y0182091D01*
X0145686Y0182091D01*
X0144183Y0181468D01*
X0143032Y0180317D01*
X0142409Y0178814D01*
X0142409Y0171186D01*
X0143032Y0169683D01*
X0144183Y0168532D01*
X0144909Y0168231D01*
X0144909Y0161405D01*
X0143883Y0161405D01*
X0143244Y0160767D01*
X0143244Y0159937D01*
X0139756Y0159937D01*
X0139756Y0160767D01*
X0139117Y0161405D01*
X0133883Y0161405D01*
X0133244Y0160767D01*
X0133244Y0155926D01*
X0133883Y0155287D01*
X0139117Y0155287D01*
X0139756Y0155926D01*
X0139756Y0156756D01*
X0143244Y0156756D01*
X0143244Y0155926D01*
X0143883Y0155287D01*
X0143350Y0155820D02*
X0139650Y0155820D01*
X0139163Y0154821D02*
X0189228Y0154821D01*
X0189228Y0154059D02*
X0189228Y0155941D01*
X0190559Y0157272D01*
X0191522Y0157272D01*
X0194909Y0160659D01*
X0194909Y0168231D01*
X0194183Y0168532D01*
X0193032Y0169683D01*
X0192409Y0171186D01*
X0192409Y0178814D01*
X0193032Y0180317D01*
X0194183Y0181468D01*
X0195686Y0182091D01*
X0197314Y0182091D01*
X0198817Y0181468D01*
X0199968Y0180317D01*
X0200591Y0178814D01*
X0200591Y0171186D01*
X0199968Y0169683D01*
X0198817Y0168532D01*
X0198091Y0168231D01*
X0198091Y0159341D01*
X0193772Y0155022D01*
X0193772Y0154059D01*
X0192441Y0152728D01*
X0190559Y0152728D01*
X0189228Y0154059D01*
X0189465Y0153823D02*
X0184756Y0153823D01*
X0184756Y0152824D02*
X0190463Y0152824D01*
X0192537Y0152824D02*
X0214909Y0152824D01*
X0214909Y0151826D02*
X0184756Y0151826D01*
X0184756Y0150827D02*
X0214909Y0150827D01*
X0214909Y0149829D02*
X0184756Y0149829D01*
X0187419Y0148830D02*
X0214909Y0148830D01*
X0214582Y0147832D02*
X0188418Y0147832D01*
X0189416Y0146833D02*
X0213584Y0146833D01*
X0212585Y0145835D02*
X0189744Y0145835D01*
X0188154Y0145846D02*
X0188154Y0142500D01*
X0186913Y0143740D01*
X0181618Y0143740D01*
X0178165Y0143838D02*
X0177587Y0143838D01*
X0178091Y0144836D02*
X0178165Y0144836D01*
X0178091Y0145835D02*
X0178726Y0145835D01*
X0178929Y0146833D02*
X0179228Y0146833D01*
X0181500Y0147500D02*
X0186500Y0147500D01*
X0188154Y0145846D01*
X0191213Y0144836D02*
X0191787Y0144836D01*
X0191787Y0143838D02*
X0191213Y0143838D01*
X0191213Y0142839D02*
X0191787Y0142839D01*
X0191787Y0141841D02*
X0191213Y0141841D01*
X0191213Y0140842D02*
X0191787Y0140842D01*
X0191827Y0139844D02*
X0191173Y0139844D01*
X0193096Y0138845D02*
X0185268Y0138845D01*
X0177969Y0139844D02*
X0167866Y0139844D01*
X0167905Y0140842D02*
X0177969Y0140842D01*
X0178207Y0141841D02*
X0174470Y0141841D01*
X0175240Y0143740D02*
X0171382Y0143740D01*
X0166087Y0143740D01*
X0164846Y0142500D01*
X0161787Y0142839D02*
X0158638Y0142839D01*
X0158638Y0142984D02*
X0161409Y0142984D01*
X0161409Y0144835D01*
X0161322Y0145162D01*
X0161152Y0145456D01*
X0160913Y0145696D01*
X0160619Y0145865D01*
X0160292Y0145953D01*
X0158638Y0145953D01*
X0158638Y0142984D01*
X0158638Y0142016D01*
X0161409Y0142016D01*
X0161409Y0140165D01*
X0161322Y0139838D01*
X0161152Y0139544D01*
X0160913Y0139304D01*
X0160619Y0139135D01*
X0160292Y0139047D01*
X0158638Y0139047D01*
X0158638Y0142016D01*
X0157669Y0142016D01*
X0154898Y0142016D01*
X0154898Y0140165D01*
X0154985Y0139838D01*
X0155155Y0139544D01*
X0155395Y0139304D01*
X0155688Y0139135D01*
X0156016Y0139047D01*
X0157669Y0139047D01*
X0157669Y0142016D01*
X0157669Y0142984D01*
X0154898Y0142984D01*
X0154898Y0144835D01*
X0154985Y0145162D01*
X0155155Y0145456D01*
X0155395Y0145696D01*
X0155688Y0145865D01*
X0156016Y0145953D01*
X0157669Y0145953D01*
X0157669Y0142984D01*
X0158638Y0142984D01*
X0158638Y0143838D02*
X0157669Y0143838D01*
X0157669Y0144836D02*
X0158638Y0144836D01*
X0158638Y0145835D02*
X0157669Y0145835D01*
X0155636Y0145835D02*
X0150602Y0145835D01*
X0150602Y0146833D02*
X0171728Y0146833D01*
X0171419Y0147832D02*
X0150191Y0147832D01*
X0149353Y0148830D02*
X0168647Y0148830D01*
X0168244Y0149829D02*
X0149756Y0149829D01*
X0146500Y0151654D02*
X0155654Y0151654D01*
X0156500Y0152500D01*
X0158040Y0150827D02*
X0168244Y0150827D01*
X0168244Y0151826D02*
X0158772Y0151826D01*
X0158772Y0152824D02*
X0168244Y0152824D01*
X0168244Y0153823D02*
X0158390Y0153823D01*
X0154610Y0153823D02*
X0149756Y0153823D01*
X0149650Y0155820D02*
X0168350Y0155820D01*
X0168244Y0155926D02*
X0168883Y0155287D01*
X0174117Y0155287D01*
X0174756Y0155926D01*
X0174756Y0160767D01*
X0174117Y0161405D01*
X0170690Y0161405D01*
X0168091Y0164005D01*
X0168091Y0168231D01*
X0168817Y0168532D01*
X0169968Y0169683D01*
X0170591Y0171186D01*
X0170591Y0178814D01*
X0169968Y0180317D01*
X0168817Y0181468D01*
X0167314Y0182091D01*
X0165686Y0182091D01*
X0164183Y0181468D01*
X0163032Y0180317D01*
X0162409Y0178814D01*
X0162409Y0171186D01*
X0163032Y0169683D01*
X0164183Y0168532D01*
X0164909Y0168231D01*
X0164909Y0162688D01*
X0165841Y0161756D01*
X0168244Y0159353D01*
X0168244Y0155926D01*
X0168244Y0156818D02*
X0149756Y0156818D01*
X0149756Y0157817D02*
X0168244Y0157817D01*
X0168244Y0158815D02*
X0149756Y0158815D01*
X0149756Y0159814D02*
X0167783Y0159814D01*
X0166785Y0160812D02*
X0149710Y0160812D01*
X0148091Y0161811D02*
X0165786Y0161811D01*
X0164909Y0162809D02*
X0148091Y0162809D01*
X0148091Y0163808D02*
X0164909Y0163808D01*
X0164909Y0164806D02*
X0148091Y0164806D01*
X0148091Y0165805D02*
X0164909Y0165805D01*
X0164909Y0166803D02*
X0148091Y0166803D01*
X0148091Y0167802D02*
X0164909Y0167802D01*
X0163915Y0168801D02*
X0159085Y0168801D01*
X0158817Y0168532D02*
X0159968Y0169683D01*
X0160591Y0171186D01*
X0160591Y0178814D01*
X0159968Y0180317D01*
X0158817Y0181468D01*
X0157314Y0182091D01*
X0155686Y0182091D01*
X0154183Y0181468D01*
X0153032Y0180317D01*
X0152409Y0178814D01*
X0152409Y0171186D01*
X0153032Y0169683D01*
X0154183Y0168532D01*
X0155686Y0167909D01*
X0157314Y0167909D01*
X0158817Y0168532D01*
X0160016Y0169799D02*
X0162984Y0169799D01*
X0162570Y0170798D02*
X0160429Y0170798D01*
X0160591Y0171796D02*
X0162409Y0171796D01*
X0162409Y0172795D02*
X0160591Y0172795D01*
X0160591Y0173793D02*
X0162409Y0173793D01*
X0162409Y0174792D02*
X0160591Y0174792D01*
X0160591Y0175790D02*
X0162409Y0175790D01*
X0162409Y0176789D02*
X0160591Y0176789D01*
X0160591Y0177787D02*
X0162409Y0177787D01*
X0162409Y0178786D02*
X0160591Y0178786D01*
X0160189Y0179784D02*
X0162811Y0179784D01*
X0163498Y0180783D02*
X0159502Y0180783D01*
X0158061Y0181781D02*
X0164939Y0181781D01*
X0168061Y0181781D02*
X0174939Y0181781D01*
X0175686Y0182091D02*
X0174183Y0181468D01*
X0173032Y0180317D01*
X0172409Y0178814D01*
X0172409Y0171186D01*
X0173032Y0169683D01*
X0174183Y0168532D01*
X0174909Y0168231D01*
X0174909Y0162688D01*
X0175841Y0161756D01*
X0178244Y0159353D01*
X0178244Y0155926D01*
X0178883Y0155287D01*
X0184117Y0155287D01*
X0184756Y0155926D01*
X0184756Y0160767D01*
X0184117Y0161405D01*
X0180690Y0161405D01*
X0178091Y0164005D01*
X0178091Y0168231D01*
X0178817Y0168532D01*
X0179968Y0169683D01*
X0180591Y0171186D01*
X0180591Y0178814D01*
X0179968Y0180317D01*
X0178817Y0181468D01*
X0177314Y0182091D01*
X0175686Y0182091D01*
X0178061Y0181781D02*
X0184477Y0181781D01*
X0184253Y0181667D02*
X0184854Y0181973D01*
X0185496Y0182182D01*
X0186000Y0182262D01*
X0186000Y0175500D01*
X0187000Y0175500D01*
X0187000Y0182262D01*
X0187504Y0182182D01*
X0188146Y0181973D01*
X0188747Y0181667D01*
X0189293Y0181270D01*
X0189770Y0180793D01*
X0190167Y0180247D01*
X0190473Y0179646D01*
X0190682Y0179004D01*
X0190787Y0178337D01*
X0190787Y0175500D01*
X0187000Y0175500D01*
X0187000Y0174500D01*
X0190787Y0174500D01*
X0190787Y0171663D01*
X0190682Y0170996D01*
X0190473Y0170354D01*
X0190167Y0169753D01*
X0189770Y0169207D01*
X0189293Y0168730D01*
X0188747Y0168333D01*
X0188146Y0168027D01*
X0187504Y0167818D01*
X0187000Y0167738D01*
X0187000Y0174500D01*
X0186000Y0174500D01*
X0182213Y0174500D01*
X0182213Y0171663D01*
X0182318Y0170996D01*
X0182527Y0170354D01*
X0182833Y0169753D01*
X0183230Y0169207D01*
X0183707Y0168730D01*
X0184253Y0168333D01*
X0184854Y0168027D01*
X0185496Y0167818D01*
X0186000Y0167738D01*
X0186000Y0174500D01*
X0186000Y0175500D01*
X0182213Y0175500D01*
X0182213Y0178337D01*
X0182318Y0179004D01*
X0182527Y0179646D01*
X0182833Y0180247D01*
X0183230Y0180793D01*
X0183707Y0181270D01*
X0184253Y0181667D01*
X0183222Y0180783D02*
X0179502Y0180783D01*
X0180189Y0179784D02*
X0182597Y0179784D01*
X0182284Y0178786D02*
X0180591Y0178786D01*
X0180591Y0177787D02*
X0182213Y0177787D01*
X0182213Y0176789D02*
X0180591Y0176789D01*
X0180591Y0175790D02*
X0182213Y0175790D01*
X0180591Y0174792D02*
X0186000Y0174792D01*
X0186000Y0175790D02*
X0187000Y0175790D01*
X0187000Y0174792D02*
X0192409Y0174792D01*
X0192409Y0175790D02*
X0190787Y0175790D01*
X0190787Y0176789D02*
X0192409Y0176789D01*
X0192409Y0177787D02*
X0190787Y0177787D01*
X0190716Y0178786D02*
X0192409Y0178786D01*
X0192811Y0179784D02*
X0190403Y0179784D01*
X0189778Y0180783D02*
X0193498Y0180783D01*
X0194939Y0181781D02*
X0188523Y0181781D01*
X0187000Y0181781D02*
X0186000Y0181781D01*
X0186000Y0180783D02*
X0187000Y0180783D01*
X0187000Y0179784D02*
X0186000Y0179784D01*
X0186000Y0178786D02*
X0187000Y0178786D01*
X0187000Y0177787D02*
X0186000Y0177787D01*
X0186000Y0176789D02*
X0187000Y0176789D01*
X0187000Y0173793D02*
X0186000Y0173793D01*
X0186000Y0172795D02*
X0187000Y0172795D01*
X0187000Y0171796D02*
X0186000Y0171796D01*
X0186000Y0170798D02*
X0187000Y0170798D01*
X0187000Y0169799D02*
X0186000Y0169799D01*
X0186000Y0168801D02*
X0187000Y0168801D01*
X0187000Y0167802D02*
X0186000Y0167802D01*
X0185598Y0167802D02*
X0178091Y0167802D01*
X0178091Y0166803D02*
X0194909Y0166803D01*
X0194909Y0165805D02*
X0178091Y0165805D01*
X0178091Y0164806D02*
X0194909Y0164806D01*
X0194909Y0163808D02*
X0178288Y0163808D01*
X0179286Y0162809D02*
X0194909Y0162809D01*
X0194909Y0161811D02*
X0180285Y0161811D01*
X0177783Y0159814D02*
X0174756Y0159814D01*
X0174756Y0158815D02*
X0178244Y0158815D01*
X0178244Y0157817D02*
X0174756Y0157817D01*
X0174756Y0156818D02*
X0178244Y0156818D01*
X0178350Y0155820D02*
X0174650Y0155820D01*
X0174756Y0153823D02*
X0178244Y0153823D01*
X0178244Y0152824D02*
X0174756Y0152824D01*
X0174756Y0151826D02*
X0178244Y0151826D01*
X0178244Y0150827D02*
X0174756Y0150827D01*
X0174756Y0149829D02*
X0177426Y0149829D01*
X0176427Y0148830D02*
X0175882Y0148830D01*
X0176500Y0146654D02*
X0176500Y0145000D01*
X0175240Y0143740D01*
X0176589Y0142839D02*
X0178165Y0142839D01*
X0176500Y0146654D02*
X0181500Y0151654D01*
X0184650Y0155820D02*
X0189228Y0155820D01*
X0190106Y0156818D02*
X0184756Y0156818D01*
X0184756Y0157817D02*
X0192068Y0157817D01*
X0193066Y0158815D02*
X0184756Y0158815D01*
X0184756Y0159814D02*
X0194065Y0159814D01*
X0194909Y0160812D02*
X0184710Y0160812D01*
X0181500Y0158346D02*
X0176500Y0163346D01*
X0176500Y0175000D01*
X0172409Y0174792D02*
X0170591Y0174792D01*
X0170591Y0175790D02*
X0172409Y0175790D01*
X0172409Y0176789D02*
X0170591Y0176789D01*
X0170591Y0177787D02*
X0172409Y0177787D01*
X0172409Y0178786D02*
X0170591Y0178786D01*
X0170189Y0179784D02*
X0172811Y0179784D01*
X0173498Y0180783D02*
X0169502Y0180783D01*
X0166500Y0175000D02*
X0166500Y0163346D01*
X0171500Y0158346D01*
X0174710Y0160812D02*
X0176785Y0160812D01*
X0175786Y0161811D02*
X0170285Y0161811D01*
X0169286Y0162809D02*
X0174909Y0162809D01*
X0174909Y0163808D02*
X0168288Y0163808D01*
X0168091Y0164806D02*
X0174909Y0164806D01*
X0174909Y0165805D02*
X0168091Y0165805D01*
X0168091Y0166803D02*
X0174909Y0166803D01*
X0174909Y0167802D02*
X0168091Y0167802D01*
X0169085Y0168801D02*
X0173915Y0168801D01*
X0172984Y0169799D02*
X0170016Y0169799D01*
X0170429Y0170798D02*
X0172570Y0170798D01*
X0172409Y0171796D02*
X0170591Y0171796D01*
X0170591Y0172795D02*
X0172409Y0172795D01*
X0172409Y0173793D02*
X0170591Y0173793D01*
X0179085Y0168801D02*
X0183636Y0168801D01*
X0182810Y0169799D02*
X0180016Y0169799D01*
X0180429Y0170798D02*
X0182383Y0170798D01*
X0182213Y0171796D02*
X0180591Y0171796D01*
X0180591Y0172795D02*
X0182213Y0172795D01*
X0182213Y0173793D02*
X0180591Y0173793D01*
X0187402Y0167802D02*
X0194909Y0167802D01*
X0193915Y0168801D02*
X0189364Y0168801D01*
X0190190Y0169799D02*
X0192984Y0169799D01*
X0192570Y0170798D02*
X0190617Y0170798D01*
X0190787Y0171796D02*
X0192409Y0171796D01*
X0192409Y0172795D02*
X0190787Y0172795D01*
X0190787Y0173793D02*
X0192409Y0173793D01*
X0196500Y0175000D02*
X0196500Y0160000D01*
X0191500Y0155000D01*
X0193772Y0154821D02*
X0214909Y0154821D01*
X0214909Y0153823D02*
X0193535Y0153823D01*
X0194569Y0155820D02*
X0214909Y0155820D01*
X0214909Y0156818D02*
X0195568Y0156818D01*
X0196566Y0157817D02*
X0202970Y0157817D01*
X0203059Y0157728D02*
X0204941Y0157728D01*
X0206272Y0159059D01*
X0206272Y0160022D01*
X0208091Y0161841D01*
X0208091Y0168231D01*
X0208817Y0168532D01*
X0209968Y0169683D01*
X0210591Y0171186D01*
X0210591Y0178814D01*
X0209968Y0180317D01*
X0208817Y0181468D01*
X0207314Y0182091D01*
X0205686Y0182091D01*
X0204183Y0181468D01*
X0203032Y0180317D01*
X0202409Y0178814D01*
X0202409Y0171186D01*
X0203032Y0169683D01*
X0204183Y0168532D01*
X0204909Y0168231D01*
X0204909Y0163159D01*
X0204022Y0162272D01*
X0203059Y0162272D01*
X0201728Y0160941D01*
X0201728Y0159059D01*
X0203059Y0157728D01*
X0201972Y0158815D02*
X0197565Y0158815D01*
X0198091Y0159814D02*
X0201728Y0159814D01*
X0201728Y0160812D02*
X0198091Y0160812D01*
X0198091Y0161811D02*
X0202598Y0161811D01*
X0204560Y0162809D02*
X0198091Y0162809D01*
X0198091Y0163808D02*
X0204909Y0163808D01*
X0204909Y0164806D02*
X0198091Y0164806D01*
X0198091Y0165805D02*
X0204909Y0165805D01*
X0204909Y0166803D02*
X0198091Y0166803D01*
X0198091Y0167802D02*
X0204909Y0167802D01*
X0203915Y0168801D02*
X0199085Y0168801D01*
X0200016Y0169799D02*
X0202984Y0169799D01*
X0202570Y0170798D02*
X0200429Y0170798D01*
X0200591Y0171796D02*
X0202409Y0171796D01*
X0202409Y0172795D02*
X0200591Y0172795D01*
X0200591Y0173793D02*
X0202409Y0173793D01*
X0202409Y0174792D02*
X0200591Y0174792D01*
X0200591Y0175790D02*
X0202409Y0175790D01*
X0202409Y0176789D02*
X0200591Y0176789D01*
X0200591Y0177787D02*
X0202409Y0177787D01*
X0202409Y0178786D02*
X0200591Y0178786D01*
X0200189Y0179784D02*
X0202811Y0179784D01*
X0203498Y0180783D02*
X0199502Y0180783D01*
X0198061Y0181781D02*
X0204939Y0181781D01*
X0208061Y0181781D02*
X0214939Y0181781D01*
X0213498Y0180783D02*
X0209502Y0180783D01*
X0210189Y0179784D02*
X0212811Y0179784D01*
X0212409Y0178786D02*
X0210591Y0178786D01*
X0210591Y0177787D02*
X0212409Y0177787D01*
X0212409Y0176789D02*
X0210591Y0176789D01*
X0210591Y0175790D02*
X0212409Y0175790D01*
X0212409Y0174792D02*
X0210591Y0174792D01*
X0210591Y0173793D02*
X0212409Y0173793D01*
X0212409Y0172795D02*
X0210591Y0172795D01*
X0210591Y0171796D02*
X0212409Y0171796D01*
X0212570Y0170798D02*
X0210429Y0170798D01*
X0210016Y0169799D02*
X0212984Y0169799D01*
X0213915Y0168801D02*
X0209085Y0168801D01*
X0208091Y0167802D02*
X0214909Y0167802D01*
X0214909Y0166803D02*
X0208091Y0166803D01*
X0208091Y0165805D02*
X0214909Y0165805D01*
X0214909Y0164806D02*
X0208091Y0164806D01*
X0208091Y0163808D02*
X0214909Y0163808D01*
X0214909Y0162809D02*
X0208091Y0162809D01*
X0208060Y0161811D02*
X0214909Y0161811D01*
X0214909Y0160812D02*
X0207062Y0160812D01*
X0206272Y0159814D02*
X0214909Y0159814D01*
X0214909Y0158815D02*
X0206028Y0158815D01*
X0205029Y0157817D02*
X0214909Y0157817D01*
X0218091Y0157817D02*
X0237169Y0157817D01*
X0237102Y0157656D02*
X0237102Y0156439D01*
X0237568Y0155314D01*
X0238429Y0154454D01*
X0239553Y0153988D01*
X0240770Y0153988D01*
X0241894Y0154454D01*
X0242755Y0155314D01*
X0243220Y0156439D01*
X0243220Y0157656D01*
X0242755Y0158780D01*
X0241894Y0159641D01*
X0240770Y0160106D01*
X0239553Y0160106D01*
X0238429Y0159641D01*
X0237568Y0158780D01*
X0237102Y0157656D01*
X0237102Y0156818D02*
X0218091Y0156818D01*
X0218091Y0155820D02*
X0237359Y0155820D01*
X0238061Y0154821D02*
X0218091Y0154821D01*
X0218091Y0153823D02*
X0254425Y0153823D01*
X0254425Y0154821D02*
X0242262Y0154821D01*
X0242964Y0155820D02*
X0254425Y0155820D01*
X0254425Y0156818D02*
X0243220Y0156818D01*
X0243154Y0157817D02*
X0254425Y0157817D01*
X0254425Y0158815D02*
X0242719Y0158815D01*
X0241476Y0159814D02*
X0254425Y0159814D01*
X0254425Y0160812D02*
X0218091Y0160812D01*
X0218091Y0159814D02*
X0238847Y0159814D01*
X0237603Y0158815D02*
X0218091Y0158815D01*
X0218091Y0161811D02*
X0254425Y0161811D01*
X0254425Y0162809D02*
X0218091Y0162809D01*
X0218091Y0163808D02*
X0254425Y0163808D01*
X0254425Y0164806D02*
X0243984Y0164806D01*
X0246190Y0165310D02*
X0246190Y0165310D01*
X0247047Y0165805D02*
X0254425Y0165805D01*
X0254425Y0166803D02*
X0248777Y0166803D01*
X0250449Y0167769D02*
X0250449Y0167769D01*
X0250480Y0167802D02*
X0254425Y0167802D01*
X0254425Y0168801D02*
X0251406Y0168801D01*
X0252333Y0169799D02*
X0254425Y0169799D01*
X0254425Y0170798D02*
X0253259Y0170798D01*
X0253794Y0171375D02*
X0253794Y0171375D01*
X0253997Y0171796D02*
X0254425Y0171796D01*
X0236490Y0164583D02*
X0236490Y0164583D01*
X0235920Y0164806D02*
X0218091Y0164806D01*
X0218091Y0165805D02*
X0233376Y0165805D01*
X0231380Y0166803D02*
X0218091Y0166803D01*
X0218091Y0167802D02*
X0230128Y0167802D01*
X0228876Y0168801D02*
X0219085Y0168801D01*
X0220016Y0169799D02*
X0227826Y0169799D01*
X0228066Y0169446D02*
X0228066Y0169446D01*
X0227145Y0170798D02*
X0220429Y0170798D01*
X0220591Y0171796D02*
X0226464Y0171796D01*
X0225783Y0172795D02*
X0220591Y0172795D01*
X0220591Y0173793D02*
X0225208Y0173793D01*
X0224900Y0174792D02*
X0220591Y0174792D01*
X0220591Y0175790D02*
X0224592Y0175790D01*
X0224284Y0176789D02*
X0220591Y0176789D01*
X0220591Y0177787D02*
X0223976Y0177787D01*
X0223846Y0178786D02*
X0220591Y0178786D01*
X0220189Y0179784D02*
X0223846Y0179784D01*
X0223846Y0180783D02*
X0219502Y0180783D01*
X0218061Y0181781D02*
X0223846Y0181781D01*
X0223846Y0182780D02*
X0063430Y0182780D01*
X0063279Y0183778D02*
X0224046Y0183778D01*
X0224354Y0184777D02*
X0063129Y0184777D01*
X0063015Y0185533D02*
X0063015Y0185533D01*
X0062898Y0185775D02*
X0224662Y0185775D01*
X0224970Y0186774D02*
X0062417Y0186774D01*
X0061937Y0187772D02*
X0225278Y0187772D01*
X0225295Y0187828D02*
X0225295Y0187828D01*
X0225938Y0188771D02*
X0061456Y0188771D01*
X0060975Y0189769D02*
X0226619Y0189769D01*
X0227299Y0190768D02*
X0060135Y0190768D01*
X0060881Y0189964D02*
X0060881Y0189964D01*
X0059209Y0191766D02*
X0227980Y0191766D01*
X0228066Y0191892D02*
X0228066Y0191892D01*
X0229160Y0192765D02*
X0058282Y0192765D01*
X0057536Y0193570D02*
X0057536Y0193570D01*
X0057200Y0193763D02*
X0230412Y0193763D01*
X0231665Y0194762D02*
X0055470Y0194762D01*
X0048481Y0164215D02*
X0048481Y0164215D01*
X0099000Y0120000D02*
X0099000Y0112100D01*
X0106391Y0110887D02*
X0106413Y0110887D01*
X0106391Y0109888D02*
X0106413Y0109888D01*
X0106391Y0108890D02*
X0106413Y0108890D01*
X0106391Y0107891D02*
X0106423Y0107891D01*
X0107231Y0106893D02*
X0088391Y0106893D01*
X0105591Y0118875D02*
X0122876Y0118875D01*
X0121877Y0119873D02*
X0106123Y0119873D01*
X0108085Y0120872D02*
X0120879Y0120872D01*
X0119880Y0121870D02*
X0108772Y0121870D01*
X0108850Y0116878D02*
X0109150Y0116878D01*
X0109150Y0115879D02*
X0108850Y0115879D01*
X0108850Y0114881D02*
X0109150Y0114881D01*
X0109150Y0113882D02*
X0108850Y0113882D01*
X0108850Y0112884D02*
X0109150Y0112884D01*
X0109150Y0111950D02*
X0111587Y0111950D01*
X0111587Y0107930D01*
X0111500Y0107603D01*
X0111330Y0107310D01*
X0111090Y0107070D01*
X0110797Y0106900D01*
X0110469Y0106813D01*
X0109150Y0106813D01*
X0109150Y0111950D01*
X0109150Y0111885D02*
X0108850Y0111885D01*
X0108850Y0110887D02*
X0109150Y0110887D01*
X0109150Y0109888D02*
X0108850Y0109888D01*
X0108850Y0108890D02*
X0109150Y0108890D01*
X0109150Y0107891D02*
X0108850Y0107891D01*
X0108850Y0106893D02*
X0109150Y0106893D01*
X0110769Y0106893D02*
X0122109Y0106893D01*
X0122109Y0107891D02*
X0111577Y0107891D01*
X0111587Y0108890D02*
X0122109Y0108890D01*
X0122109Y0109888D02*
X0111587Y0109888D01*
X0111587Y0110887D02*
X0121983Y0110887D01*
X0121476Y0111885D02*
X0111587Y0111885D01*
X0111587Y0112884D02*
X0121433Y0112884D01*
X0121794Y0113882D02*
X0111587Y0113882D01*
X0111587Y0114881D02*
X0123040Y0114881D01*
X0124379Y0121870D02*
X0229259Y0121870D01*
X0236000Y0121870D02*
X0237000Y0121870D01*
X0237000Y0120872D02*
X0236000Y0120872D01*
X0236000Y0119873D02*
X0237000Y0119873D01*
X0237000Y0118875D02*
X0236000Y0118875D01*
X0243564Y0123868D02*
X0254425Y0123868D01*
X0254425Y0124866D02*
X0243080Y0124866D01*
X0242163Y0125865D02*
X0254425Y0125865D01*
X0254425Y0126863D02*
X0183299Y0126863D01*
X0180331Y0126863D02*
X0179362Y0126863D01*
X0179362Y0125865D02*
X0180331Y0125865D01*
X0180331Y0124866D02*
X0179362Y0124866D01*
X0176579Y0124866D02*
X0176196Y0124866D01*
X0180331Y0127862D02*
X0254425Y0127862D01*
X0254425Y0128860D02*
X0241402Y0128860D01*
X0242643Y0129859D02*
X0254425Y0129859D01*
X0254425Y0130857D02*
X0243247Y0130857D01*
X0243591Y0131856D02*
X0254425Y0131856D01*
X0254425Y0132854D02*
X0243591Y0132854D01*
X0243367Y0133853D02*
X0254425Y0133853D01*
X0254425Y0134851D02*
X0242934Y0134851D01*
X0254425Y0139844D02*
X0197866Y0139844D01*
X0197905Y0140842D02*
X0254425Y0140842D01*
X0254425Y0141841D02*
X0213090Y0141841D01*
X0214089Y0142839D02*
X0254425Y0142839D01*
X0254425Y0143838D02*
X0215087Y0143838D01*
X0216086Y0144836D02*
X0254425Y0144836D01*
X0254425Y0145835D02*
X0217084Y0145835D01*
X0218083Y0146833D02*
X0254425Y0146833D01*
X0254425Y0147832D02*
X0218091Y0147832D01*
X0218091Y0148830D02*
X0254425Y0148830D01*
X0254425Y0149829D02*
X0218091Y0149829D01*
X0218091Y0150827D02*
X0254425Y0150827D01*
X0254425Y0151826D02*
X0218091Y0151826D01*
X0218091Y0152824D02*
X0254425Y0152824D01*
X0216500Y0147500D02*
X0211500Y0142500D01*
X0194846Y0142500D01*
X0194846Y0138346D01*
X0197905Y0144836D02*
X0211587Y0144836D01*
X0216500Y0147500D02*
X0216500Y0175000D01*
X0206500Y0175000D02*
X0206500Y0162500D01*
X0204000Y0160000D01*
X0174000Y0147500D02*
X0171500Y0150000D01*
X0171500Y0151654D01*
X0168489Y0145835D02*
X0160671Y0145835D01*
X0161409Y0144836D02*
X0161787Y0144836D01*
X0161787Y0143838D02*
X0161409Y0143838D01*
X0161409Y0141841D02*
X0161787Y0141841D01*
X0161787Y0140842D02*
X0161409Y0140842D01*
X0161323Y0139844D02*
X0161827Y0139844D01*
X0158638Y0139844D02*
X0157669Y0139844D01*
X0157669Y0140842D02*
X0158638Y0140842D01*
X0158638Y0141841D02*
X0157669Y0141841D01*
X0157669Y0142839D02*
X0150602Y0142839D01*
X0150602Y0143838D02*
X0154898Y0143838D01*
X0154898Y0144836D02*
X0150602Y0144836D01*
X0147346Y0145000D02*
X0146500Y0145846D01*
X0146500Y0151654D01*
X0143244Y0150827D02*
X0139953Y0150827D01*
X0139953Y0149829D02*
X0143244Y0149829D01*
X0143647Y0148830D02*
X0139631Y0148830D01*
X0140169Y0148256D02*
X0138319Y0148256D01*
X0137991Y0148168D01*
X0137698Y0147999D01*
X0137458Y0147759D01*
X0137289Y0147465D01*
X0137201Y0147138D01*
X0137201Y0145484D01*
X0140169Y0145484D01*
X0140169Y0148256D01*
X0140169Y0147832D02*
X0141138Y0147832D01*
X0141138Y0146833D02*
X0140169Y0146833D01*
X0140169Y0145835D02*
X0141138Y0145835D01*
X0140169Y0144836D02*
X0130602Y0144836D01*
X0130602Y0143838D02*
X0137201Y0143838D01*
X0137207Y0142839D02*
X0130602Y0142839D01*
X0129409Y0141841D02*
X0137976Y0141841D01*
X0140169Y0141841D02*
X0141138Y0141841D01*
X0141138Y0142839D02*
X0140169Y0142839D01*
X0140169Y0143838D02*
X0141138Y0143838D01*
X0143331Y0141841D02*
X0154898Y0141841D01*
X0154898Y0140842D02*
X0130407Y0140842D01*
X0131406Y0139844D02*
X0154984Y0139844D01*
X0167905Y0141841D02*
X0168294Y0141841D01*
X0176409Y0129859D02*
X0176453Y0129859D01*
X0179362Y0129859D02*
X0180331Y0129859D01*
X0180331Y0128860D02*
X0179362Y0128860D01*
X0174000Y0120000D02*
X0170200Y0116200D01*
X0170200Y0109700D01*
X0172800Y0109700D02*
X0172800Y0103800D01*
X0171500Y0102500D01*
X0173150Y0101900D02*
X0178244Y0101900D01*
X0178441Y0110887D02*
X0177091Y0110887D01*
X0177091Y0111885D02*
X0178441Y0111885D01*
X0178441Y0112884D02*
X0176958Y0112884D01*
X0173709Y0113882D02*
X0171791Y0113882D01*
X0171791Y0114881D02*
X0174132Y0114881D01*
X0175130Y0115879D02*
X0172129Y0115879D01*
X0166462Y0098905D02*
X0160154Y0098905D01*
X0159156Y0097906D02*
X0165909Y0097906D01*
X0165909Y0096908D02*
X0158157Y0096908D01*
X0158091Y0095909D02*
X0165909Y0095909D01*
X0165909Y0094911D02*
X0158091Y0094911D01*
X0158091Y0093912D02*
X0165909Y0093912D01*
X0165909Y0092914D02*
X0158091Y0092914D01*
X0158091Y0091915D02*
X0166109Y0091915D01*
X0166109Y0090917D02*
X0158091Y0090917D01*
X0169000Y0085000D02*
X0172800Y0088800D01*
X0169000Y0085000D02*
X0169000Y0082500D01*
X0164846Y0078346D01*
X0164000Y0078346D01*
X0177256Y0070946D02*
X0180744Y0070946D01*
X0180744Y0069948D02*
X0177256Y0069948D01*
X0176972Y0068949D02*
X0181028Y0068949D01*
X0182409Y0067951D02*
X0160163Y0067951D01*
X0157837Y0067951D02*
X0155798Y0067951D01*
X0156797Y0066952D02*
X0182409Y0066952D01*
X0184000Y0078346D02*
X0184000Y0085000D01*
X0165371Y0061960D02*
X0157629Y0061960D01*
X0159324Y0060961D02*
X0163676Y0060961D01*
X0162885Y0059963D02*
X0160115Y0059963D01*
X0160528Y0058964D02*
X0162472Y0058964D01*
X0162409Y0057966D02*
X0160591Y0057966D01*
X0160591Y0056967D02*
X0162409Y0056967D01*
X0162409Y0055969D02*
X0160591Y0055969D01*
X0160591Y0054970D02*
X0162409Y0054970D01*
X0162409Y0053972D02*
X0160591Y0053972D01*
X0160591Y0052973D02*
X0162409Y0052973D01*
X0162409Y0051975D02*
X0160591Y0051975D01*
X0160503Y0050976D02*
X0162496Y0050976D01*
X0162910Y0049978D02*
X0160090Y0049978D01*
X0159264Y0048979D02*
X0163736Y0048979D01*
X0141028Y0068949D02*
X0132699Y0068949D01*
X0133091Y0069948D02*
X0140744Y0069948D01*
X0140744Y0070946D02*
X0133091Y0070946D01*
X0147256Y0073942D02*
X0150744Y0073942D01*
X0150744Y0075939D02*
X0147256Y0075939D01*
X0147256Y0076937D02*
X0150744Y0076937D01*
X0131500Y0095846D02*
X0131500Y0112500D01*
X0116500Y0127500D01*
X0108772Y0136848D02*
X0129902Y0136848D01*
X0128904Y0137847D02*
X0108772Y0137847D01*
X0108367Y0138845D02*
X0127905Y0138845D01*
X0126907Y0139844D02*
X0108091Y0139844D01*
X0108091Y0140842D02*
X0125908Y0140842D01*
X0125756Y0141841D02*
X0123331Y0141841D01*
X0121138Y0141841D02*
X0120169Y0141841D01*
X0120169Y0142839D02*
X0121138Y0142839D01*
X0121138Y0143838D02*
X0120169Y0143838D01*
X0120169Y0144836D02*
X0108091Y0144836D01*
X0108091Y0143838D02*
X0117201Y0143838D01*
X0117207Y0142839D02*
X0108091Y0142839D01*
X0108091Y0141841D02*
X0117976Y0141841D01*
X0117201Y0145484D02*
X0120169Y0145484D01*
X0120169Y0148256D01*
X0118319Y0148256D01*
X0117991Y0148168D01*
X0117698Y0147999D01*
X0117458Y0147759D01*
X0117289Y0147465D01*
X0117201Y0147138D01*
X0117201Y0145484D01*
X0117201Y0145835D02*
X0108091Y0145835D01*
X0108091Y0146833D02*
X0117201Y0146833D01*
X0117531Y0147832D02*
X0108091Y0147832D01*
X0108091Y0148830D02*
X0113369Y0148830D01*
X0113304Y0148895D02*
X0113544Y0148655D01*
X0113838Y0148485D01*
X0114165Y0148398D01*
X0116016Y0148398D01*
X0116016Y0151169D01*
X0116984Y0151169D01*
X0116984Y0148398D01*
X0118835Y0148398D01*
X0119162Y0148485D01*
X0119456Y0148655D01*
X0119696Y0148895D01*
X0119865Y0149188D01*
X0119953Y0149516D01*
X0119953Y0151169D01*
X0116984Y0151169D01*
X0116984Y0152138D01*
X0116016Y0152138D01*
X0116016Y0154909D01*
X0114165Y0154909D01*
X0113838Y0154822D01*
X0113544Y0154652D01*
X0113304Y0154413D01*
X0113135Y0154119D01*
X0113047Y0153792D01*
X0113047Y0152138D01*
X0116016Y0152138D01*
X0116016Y0151169D01*
X0113047Y0151169D01*
X0113047Y0149516D01*
X0113135Y0149188D01*
X0113304Y0148895D01*
X0113047Y0149829D02*
X0108091Y0149829D01*
X0108091Y0150827D02*
X0113047Y0150827D01*
X0113047Y0152824D02*
X0108091Y0152824D01*
X0108091Y0151826D02*
X0116016Y0151826D01*
X0116984Y0151826D02*
X0123244Y0151826D01*
X0123244Y0152824D02*
X0119953Y0152824D01*
X0119953Y0152138D02*
X0119953Y0153792D01*
X0119865Y0154119D01*
X0119696Y0154413D01*
X0119456Y0154652D01*
X0119162Y0154822D01*
X0118835Y0154909D01*
X0116984Y0154909D01*
X0116984Y0152138D01*
X0119953Y0152138D01*
X0119953Y0150827D02*
X0123244Y0150827D01*
X0123244Y0149829D02*
X0119953Y0149829D01*
X0119631Y0148830D02*
X0123647Y0148830D01*
X0123776Y0147832D02*
X0124502Y0147832D01*
X0121138Y0147832D02*
X0120169Y0147832D01*
X0120169Y0146833D02*
X0121138Y0146833D01*
X0121138Y0145835D02*
X0120169Y0145835D01*
X0116984Y0148830D02*
X0116016Y0148830D01*
X0116016Y0149829D02*
X0116984Y0149829D01*
X0116984Y0150827D02*
X0116016Y0150827D01*
X0116016Y0152824D02*
X0116984Y0152824D01*
X0116984Y0153823D02*
X0116016Y0153823D01*
X0116016Y0154821D02*
X0116984Y0154821D01*
X0119163Y0154821D02*
X0133837Y0154821D01*
X0133350Y0155820D02*
X0129650Y0155820D01*
X0129756Y0155926D02*
X0129756Y0160767D01*
X0129117Y0161405D01*
X0128091Y0161405D01*
X0128091Y0168231D01*
X0128817Y0168532D01*
X0129968Y0169683D01*
X0130591Y0171186D01*
X0130591Y0178814D01*
X0129968Y0180317D01*
X0128817Y0181468D01*
X0127314Y0182091D01*
X0125686Y0182091D01*
X0124183Y0181468D01*
X0123032Y0180317D01*
X0122409Y0178814D01*
X0122409Y0171186D01*
X0123032Y0169683D01*
X0124183Y0168532D01*
X0124909Y0168231D01*
X0124909Y0161405D01*
X0123883Y0161405D01*
X0123244Y0160767D01*
X0123244Y0159937D01*
X0119756Y0159937D01*
X0119756Y0160767D01*
X0119117Y0161405D01*
X0113883Y0161405D01*
X0113244Y0160767D01*
X0113244Y0155926D01*
X0113883Y0155287D01*
X0119117Y0155287D01*
X0119756Y0155926D01*
X0119756Y0156756D01*
X0123244Y0156756D01*
X0123244Y0155926D01*
X0123883Y0155287D01*
X0129117Y0155287D01*
X0129756Y0155926D01*
X0129756Y0156818D02*
X0133244Y0156818D01*
X0133244Y0157817D02*
X0129756Y0157817D01*
X0129756Y0158815D02*
X0133244Y0158815D01*
X0133244Y0159814D02*
X0129756Y0159814D01*
X0129710Y0160812D02*
X0133290Y0160812D01*
X0136500Y0158346D02*
X0146500Y0158346D01*
X0146500Y0175000D01*
X0150591Y0174792D02*
X0152409Y0174792D01*
X0152409Y0175790D02*
X0150591Y0175790D01*
X0150591Y0176789D02*
X0152409Y0176789D01*
X0152409Y0177787D02*
X0150591Y0177787D01*
X0150591Y0178786D02*
X0152409Y0178786D01*
X0152811Y0179784D02*
X0150189Y0179784D01*
X0149502Y0180783D02*
X0153498Y0180783D01*
X0154939Y0181781D02*
X0148061Y0181781D01*
X0144939Y0181781D02*
X0138061Y0181781D01*
X0137314Y0182091D02*
X0135686Y0182091D01*
X0134183Y0181468D01*
X0133032Y0180317D01*
X0132409Y0178814D01*
X0132409Y0171186D01*
X0133032Y0169683D01*
X0134183Y0168532D01*
X0135686Y0167909D01*
X0137314Y0167909D01*
X0138817Y0168532D01*
X0139968Y0169683D01*
X0140591Y0171186D01*
X0140591Y0178814D01*
X0139968Y0180317D01*
X0138817Y0181468D01*
X0137314Y0182091D01*
X0134939Y0181781D02*
X0128061Y0181781D01*
X0129502Y0180783D02*
X0133498Y0180783D01*
X0132811Y0179784D02*
X0130189Y0179784D01*
X0130591Y0178786D02*
X0132409Y0178786D01*
X0132409Y0177787D02*
X0130591Y0177787D01*
X0130591Y0176789D02*
X0132409Y0176789D01*
X0132409Y0175790D02*
X0130591Y0175790D01*
X0130591Y0174792D02*
X0132409Y0174792D01*
X0132409Y0173793D02*
X0130591Y0173793D01*
X0130591Y0172795D02*
X0132409Y0172795D01*
X0132409Y0171796D02*
X0130591Y0171796D01*
X0130429Y0170798D02*
X0132570Y0170798D01*
X0132984Y0169799D02*
X0130016Y0169799D01*
X0129085Y0168801D02*
X0133915Y0168801D01*
X0139085Y0168801D02*
X0143915Y0168801D01*
X0142984Y0169799D02*
X0140016Y0169799D01*
X0140429Y0170798D02*
X0142570Y0170798D01*
X0142409Y0171796D02*
X0140591Y0171796D01*
X0140591Y0172795D02*
X0142409Y0172795D01*
X0142409Y0173793D02*
X0140591Y0173793D01*
X0140591Y0174792D02*
X0142409Y0174792D01*
X0142409Y0175790D02*
X0140591Y0175790D01*
X0140591Y0176789D02*
X0142409Y0176789D01*
X0142409Y0177787D02*
X0140591Y0177787D01*
X0140591Y0178786D02*
X0142409Y0178786D01*
X0142811Y0179784D02*
X0140189Y0179784D01*
X0139502Y0180783D02*
X0143498Y0180783D01*
X0150591Y0173793D02*
X0152409Y0173793D01*
X0152409Y0172795D02*
X0150591Y0172795D01*
X0150591Y0171796D02*
X0152409Y0171796D01*
X0152570Y0170798D02*
X0150429Y0170798D01*
X0150016Y0169799D02*
X0152984Y0169799D01*
X0153915Y0168801D02*
X0149085Y0168801D01*
X0144909Y0167802D02*
X0128091Y0167802D01*
X0128091Y0166803D02*
X0144909Y0166803D01*
X0144909Y0165805D02*
X0128091Y0165805D01*
X0128091Y0164806D02*
X0144909Y0164806D01*
X0144909Y0163808D02*
X0128091Y0163808D01*
X0128091Y0162809D02*
X0144909Y0162809D01*
X0144909Y0161811D02*
X0128091Y0161811D01*
X0124909Y0161811D02*
X0108091Y0161811D01*
X0108091Y0162809D02*
X0124909Y0162809D01*
X0124909Y0163808D02*
X0108091Y0163808D01*
X0108091Y0164806D02*
X0124909Y0164806D01*
X0124909Y0165805D02*
X0108091Y0165805D01*
X0108091Y0166803D02*
X0124909Y0166803D01*
X0124909Y0167802D02*
X0108091Y0167802D01*
X0109085Y0168801D02*
X0113915Y0168801D01*
X0114183Y0168532D02*
X0115686Y0167909D01*
X0117314Y0167909D01*
X0118817Y0168532D01*
X0119968Y0169683D01*
X0120591Y0171186D01*
X0120591Y0178814D01*
X0119968Y0180317D01*
X0118817Y0181468D01*
X0117314Y0182091D01*
X0115686Y0182091D01*
X0114183Y0181468D01*
X0113032Y0180317D01*
X0112409Y0178814D01*
X0112409Y0171186D01*
X0113032Y0169683D01*
X0114183Y0168532D01*
X0112984Y0169799D02*
X0110016Y0169799D01*
X0110429Y0170798D02*
X0112570Y0170798D01*
X0112409Y0171796D02*
X0110591Y0171796D01*
X0110591Y0172795D02*
X0112409Y0172795D01*
X0112409Y0173793D02*
X0110591Y0173793D01*
X0110591Y0174792D02*
X0112409Y0174792D01*
X0112409Y0175790D02*
X0110591Y0175790D01*
X0110591Y0176789D02*
X0112409Y0176789D01*
X0112409Y0177787D02*
X0110591Y0177787D01*
X0110591Y0178786D02*
X0112409Y0178786D01*
X0112811Y0179784D02*
X0110189Y0179784D01*
X0109502Y0180783D02*
X0113498Y0180783D01*
X0114939Y0181781D02*
X0108061Y0181781D01*
X0118061Y0181781D02*
X0124939Y0181781D01*
X0123498Y0180783D02*
X0119502Y0180783D01*
X0120189Y0179784D02*
X0122811Y0179784D01*
X0122409Y0178786D02*
X0120591Y0178786D01*
X0120591Y0177787D02*
X0122409Y0177787D01*
X0122409Y0176789D02*
X0120591Y0176789D01*
X0120591Y0175790D02*
X0122409Y0175790D01*
X0122409Y0174792D02*
X0120591Y0174792D01*
X0120591Y0173793D02*
X0122409Y0173793D01*
X0122409Y0172795D02*
X0120591Y0172795D01*
X0120591Y0171796D02*
X0122409Y0171796D01*
X0122570Y0170798D02*
X0120429Y0170798D01*
X0120016Y0169799D02*
X0122984Y0169799D01*
X0123915Y0168801D02*
X0119085Y0168801D01*
X0126500Y0175000D02*
X0126500Y0158346D01*
X0116500Y0158346D01*
X0113244Y0158815D02*
X0108091Y0158815D01*
X0108091Y0157817D02*
X0113244Y0157817D01*
X0113244Y0156818D02*
X0108091Y0156818D01*
X0108091Y0155820D02*
X0113350Y0155820D01*
X0113837Y0154821D02*
X0108091Y0154821D01*
X0108091Y0153823D02*
X0113056Y0153823D01*
X0113244Y0159814D02*
X0108091Y0159814D01*
X0108091Y0160812D02*
X0113290Y0160812D01*
X0119710Y0160812D02*
X0123290Y0160812D01*
X0123350Y0155820D02*
X0119650Y0155820D01*
X0119944Y0153823D02*
X0123244Y0153823D01*
X0129756Y0153823D02*
X0133056Y0153823D01*
X0133047Y0152824D02*
X0129756Y0152824D01*
X0129756Y0150827D02*
X0133047Y0150827D01*
X0133047Y0151169D02*
X0133047Y0149516D01*
X0133135Y0149188D01*
X0133304Y0148895D01*
X0133544Y0148655D01*
X0133838Y0148485D01*
X0134165Y0148398D01*
X0136016Y0148398D01*
X0136016Y0151169D01*
X0133047Y0151169D01*
X0133047Y0149829D02*
X0129756Y0149829D01*
X0129353Y0148830D02*
X0133369Y0148830D01*
X0136016Y0148830D02*
X0136984Y0148830D01*
X0136984Y0149829D02*
X0136016Y0149829D01*
X0136016Y0150827D02*
X0136984Y0150827D01*
X0136984Y0153823D02*
X0136016Y0153823D01*
X0136016Y0154821D02*
X0136984Y0154821D01*
X0139710Y0160812D02*
X0143290Y0160812D01*
X0143776Y0147832D02*
X0144502Y0147832D01*
X0137531Y0147832D02*
X0130191Y0147832D01*
X0130602Y0146833D02*
X0137201Y0146833D01*
X0137201Y0145835D02*
X0130602Y0145835D01*
X0051103Y0113882D02*
X0032984Y0113882D01*
X0032984Y0112884D02*
X0050280Y0112884D01*
X0049797Y0111885D02*
X0032984Y0111885D01*
X0032984Y0110887D02*
X0049536Y0110887D01*
X0088091Y0066952D02*
X0117409Y0066952D01*
X0117409Y0065954D02*
X0088091Y0065954D01*
X0088091Y0064955D02*
X0116706Y0064955D01*
X0115707Y0063957D02*
X0088091Y0063957D01*
X0088091Y0062958D02*
X0114909Y0062958D01*
X0114909Y0061960D02*
X0108172Y0061960D01*
X0107000Y0061960D02*
X0106000Y0061960D01*
X0106000Y0060961D02*
X0107000Y0060961D01*
X0107000Y0059963D02*
X0106000Y0059963D01*
X0106000Y0058964D02*
X0107000Y0058964D01*
X0107000Y0057966D02*
X0106000Y0057966D01*
X0106000Y0056967D02*
X0107000Y0056967D01*
X0107000Y0055969D02*
X0106000Y0055969D01*
X0106000Y0054970D02*
X0100591Y0054970D01*
X0100591Y0053972D02*
X0102213Y0053972D01*
X0102213Y0052973D02*
X0100591Y0052973D01*
X0100591Y0051975D02*
X0102213Y0051975D01*
X0102325Y0050976D02*
X0100503Y0050976D01*
X0100090Y0049978D02*
X0102719Y0049978D01*
X0103458Y0048979D02*
X0099264Y0048979D01*
X0093736Y0048979D02*
X0089264Y0048979D01*
X0090090Y0049978D02*
X0092910Y0049978D01*
X0092496Y0050976D02*
X0090503Y0050976D01*
X0090591Y0051975D02*
X0092409Y0051975D01*
X0092409Y0052973D02*
X0090591Y0052973D01*
X0090591Y0053972D02*
X0092409Y0053972D01*
X0092409Y0054970D02*
X0090591Y0054970D01*
X0090591Y0055969D02*
X0092409Y0055969D01*
X0092409Y0056967D02*
X0090591Y0056967D01*
X0090591Y0057966D02*
X0092409Y0057966D01*
X0092472Y0058964D02*
X0090528Y0058964D01*
X0090115Y0059963D02*
X0092885Y0059963D01*
X0093676Y0060961D02*
X0089324Y0060961D01*
X0088091Y0061960D02*
X0095371Y0061960D01*
X0097629Y0061960D02*
X0104828Y0061960D01*
X0103398Y0060961D02*
X0099324Y0060961D01*
X0100115Y0059963D02*
X0102688Y0059963D01*
X0102312Y0058964D02*
X0100528Y0058964D01*
X0100591Y0057966D02*
X0102213Y0057966D01*
X0102213Y0056967D02*
X0100591Y0056967D01*
X0100591Y0055969D02*
X0102213Y0055969D01*
X0106000Y0053972D02*
X0107000Y0053972D01*
X0107000Y0054970D02*
X0112409Y0054970D01*
X0112409Y0053972D02*
X0110787Y0053972D01*
X0110787Y0052973D02*
X0112409Y0052973D01*
X0112409Y0051975D02*
X0110787Y0051975D01*
X0110675Y0050976D02*
X0112496Y0050976D01*
X0112910Y0049978D02*
X0110281Y0049978D01*
X0109542Y0048979D02*
X0113736Y0048979D01*
X0107000Y0048979D02*
X0106000Y0048979D01*
X0106000Y0049978D02*
X0107000Y0049978D01*
X0107000Y0050976D02*
X0106000Y0050976D01*
X0106000Y0051975D02*
X0107000Y0051975D01*
X0107000Y0052973D02*
X0106000Y0052973D01*
X0110787Y0055969D02*
X0112409Y0055969D01*
X0112409Y0056967D02*
X0110787Y0056967D01*
X0110787Y0057966D02*
X0112409Y0057966D01*
X0112472Y0058964D02*
X0110688Y0058964D01*
X0110312Y0059963D02*
X0112885Y0059963D01*
X0113676Y0060961D02*
X0109602Y0060961D01*
X0218091Y0088920D02*
X0231134Y0088920D01*
X0230076Y0089918D02*
X0218091Y0089918D01*
X0218091Y0090917D02*
X0229506Y0090917D01*
X0229252Y0091915D02*
X0218091Y0091915D01*
D21*
X0184000Y0065000D03*
X0169000Y0082500D03*
X0169000Y0090000D03*
X0179000Y0090000D03*
X0156500Y0085000D03*
X0159000Y0070000D03*
X0149000Y0065000D03*
X0089000Y0077500D03*
X0084000Y0077500D03*
X0106500Y0122500D03*
X0106500Y0137500D03*
X0141500Y0137500D03*
X0156500Y0152500D03*
X0174000Y0147500D03*
X0181500Y0147500D03*
X0191500Y0155000D03*
X0204000Y0160000D03*
D22*
X0166500Y0127500D03*
X0161500Y0110000D03*
X0189000Y0110000D03*
X0194000Y0085000D03*
X0176500Y0085000D03*
X0144000Y0085000D03*
X0124000Y0112500D03*
X0089000Y0115000D03*
X0086500Y0110000D03*
X0071500Y0112500D03*
D23*
X0071500Y0102500D01*
X0066500Y0097500D01*
X0066500Y0075846D01*
X0086500Y0103346D02*
X0086500Y0110000D01*
X0089000Y0115000D02*
X0091100Y0115000D01*
X0094000Y0112100D01*
X0124000Y0112500D02*
X0124000Y0085000D01*
X0119000Y0080000D01*
X0119000Y0078346D01*
X0144000Y0078346D02*
X0144000Y0085000D01*
X0174000Y0082500D02*
X0174000Y0078346D01*
X0174000Y0082500D02*
X0176500Y0085000D01*
X0194000Y0085000D02*
X0194000Y0078346D01*
X0189000Y0110000D02*
X0188154Y0110846D01*
X0181500Y0110846D01*
X0167700Y0109700D02*
X0167400Y0110000D01*
X0161500Y0110000D01*
X0166500Y0127500D02*
X0173154Y0127500D01*
X0173154Y0134488D01*
X0171382Y0136260D01*
M02*
