G75*
%MOIN*%
%OFA0B0*%
%FSLAX25Y25*%
%IPPOS*%
%LPD*%
%AMOC8*
5,1,8,0,0,1.08239X$1,22.5*
%
%ADD10C,0.00000*%
D10*
X0047248Y0035000D02*
X0240161Y0035000D01*
X0234255Y0050748D02*
X0234257Y0050901D01*
X0234263Y0051055D01*
X0234273Y0051208D01*
X0234287Y0051360D01*
X0234305Y0051513D01*
X0234327Y0051664D01*
X0234352Y0051815D01*
X0234382Y0051966D01*
X0234416Y0052116D01*
X0234453Y0052264D01*
X0234494Y0052412D01*
X0234539Y0052558D01*
X0234588Y0052704D01*
X0234641Y0052848D01*
X0234697Y0052990D01*
X0234757Y0053131D01*
X0234821Y0053271D01*
X0234888Y0053409D01*
X0234959Y0053545D01*
X0235034Y0053679D01*
X0235111Y0053811D01*
X0235193Y0053941D01*
X0235277Y0054069D01*
X0235365Y0054195D01*
X0235456Y0054318D01*
X0235550Y0054439D01*
X0235648Y0054557D01*
X0235748Y0054673D01*
X0235852Y0054786D01*
X0235958Y0054897D01*
X0236067Y0055005D01*
X0236179Y0055110D01*
X0236293Y0055211D01*
X0236411Y0055310D01*
X0236530Y0055406D01*
X0236652Y0055499D01*
X0236777Y0055588D01*
X0236904Y0055675D01*
X0237033Y0055757D01*
X0237164Y0055837D01*
X0237297Y0055913D01*
X0237432Y0055986D01*
X0237569Y0056055D01*
X0237708Y0056120D01*
X0237848Y0056182D01*
X0237990Y0056240D01*
X0238133Y0056295D01*
X0238278Y0056346D01*
X0238424Y0056393D01*
X0238571Y0056436D01*
X0238719Y0056475D01*
X0238868Y0056511D01*
X0239018Y0056542D01*
X0239169Y0056570D01*
X0239320Y0056594D01*
X0239473Y0056614D01*
X0239625Y0056630D01*
X0239778Y0056642D01*
X0239931Y0056650D01*
X0240084Y0056654D01*
X0240238Y0056654D01*
X0240391Y0056650D01*
X0240544Y0056642D01*
X0240697Y0056630D01*
X0240849Y0056614D01*
X0241002Y0056594D01*
X0241153Y0056570D01*
X0241304Y0056542D01*
X0241454Y0056511D01*
X0241603Y0056475D01*
X0241751Y0056436D01*
X0241898Y0056393D01*
X0242044Y0056346D01*
X0242189Y0056295D01*
X0242332Y0056240D01*
X0242474Y0056182D01*
X0242614Y0056120D01*
X0242753Y0056055D01*
X0242890Y0055986D01*
X0243025Y0055913D01*
X0243158Y0055837D01*
X0243289Y0055757D01*
X0243418Y0055675D01*
X0243545Y0055588D01*
X0243670Y0055499D01*
X0243792Y0055406D01*
X0243911Y0055310D01*
X0244029Y0055211D01*
X0244143Y0055110D01*
X0244255Y0055005D01*
X0244364Y0054897D01*
X0244470Y0054786D01*
X0244574Y0054673D01*
X0244674Y0054557D01*
X0244772Y0054439D01*
X0244866Y0054318D01*
X0244957Y0054195D01*
X0245045Y0054069D01*
X0245129Y0053941D01*
X0245211Y0053811D01*
X0245288Y0053679D01*
X0245363Y0053545D01*
X0245434Y0053409D01*
X0245501Y0053271D01*
X0245565Y0053131D01*
X0245625Y0052990D01*
X0245681Y0052848D01*
X0245734Y0052704D01*
X0245783Y0052558D01*
X0245828Y0052412D01*
X0245869Y0052264D01*
X0245906Y0052116D01*
X0245940Y0051966D01*
X0245970Y0051815D01*
X0245995Y0051664D01*
X0246017Y0051513D01*
X0246035Y0051360D01*
X0246049Y0051208D01*
X0246059Y0051055D01*
X0246065Y0050901D01*
X0246067Y0050748D01*
X0246065Y0050595D01*
X0246059Y0050441D01*
X0246049Y0050288D01*
X0246035Y0050136D01*
X0246017Y0049983D01*
X0245995Y0049832D01*
X0245970Y0049681D01*
X0245940Y0049530D01*
X0245906Y0049380D01*
X0245869Y0049232D01*
X0245828Y0049084D01*
X0245783Y0048938D01*
X0245734Y0048792D01*
X0245681Y0048648D01*
X0245625Y0048506D01*
X0245565Y0048365D01*
X0245501Y0048225D01*
X0245434Y0048087D01*
X0245363Y0047951D01*
X0245288Y0047817D01*
X0245211Y0047685D01*
X0245129Y0047555D01*
X0245045Y0047427D01*
X0244957Y0047301D01*
X0244866Y0047178D01*
X0244772Y0047057D01*
X0244674Y0046939D01*
X0244574Y0046823D01*
X0244470Y0046710D01*
X0244364Y0046599D01*
X0244255Y0046491D01*
X0244143Y0046386D01*
X0244029Y0046285D01*
X0243911Y0046186D01*
X0243792Y0046090D01*
X0243670Y0045997D01*
X0243545Y0045908D01*
X0243418Y0045821D01*
X0243289Y0045739D01*
X0243158Y0045659D01*
X0243025Y0045583D01*
X0242890Y0045510D01*
X0242753Y0045441D01*
X0242614Y0045376D01*
X0242474Y0045314D01*
X0242332Y0045256D01*
X0242189Y0045201D01*
X0242044Y0045150D01*
X0241898Y0045103D01*
X0241751Y0045060D01*
X0241603Y0045021D01*
X0241454Y0044985D01*
X0241304Y0044954D01*
X0241153Y0044926D01*
X0241002Y0044902D01*
X0240849Y0044882D01*
X0240697Y0044866D01*
X0240544Y0044854D01*
X0240391Y0044846D01*
X0240238Y0044842D01*
X0240084Y0044842D01*
X0239931Y0044846D01*
X0239778Y0044854D01*
X0239625Y0044866D01*
X0239473Y0044882D01*
X0239320Y0044902D01*
X0239169Y0044926D01*
X0239018Y0044954D01*
X0238868Y0044985D01*
X0238719Y0045021D01*
X0238571Y0045060D01*
X0238424Y0045103D01*
X0238278Y0045150D01*
X0238133Y0045201D01*
X0237990Y0045256D01*
X0237848Y0045314D01*
X0237708Y0045376D01*
X0237569Y0045441D01*
X0237432Y0045510D01*
X0237297Y0045583D01*
X0237164Y0045659D01*
X0237033Y0045739D01*
X0236904Y0045821D01*
X0236777Y0045908D01*
X0236652Y0045997D01*
X0236530Y0046090D01*
X0236411Y0046186D01*
X0236293Y0046285D01*
X0236179Y0046386D01*
X0236067Y0046491D01*
X0235958Y0046599D01*
X0235852Y0046710D01*
X0235748Y0046823D01*
X0235648Y0046939D01*
X0235550Y0047057D01*
X0235456Y0047178D01*
X0235365Y0047301D01*
X0235277Y0047427D01*
X0235193Y0047555D01*
X0235111Y0047685D01*
X0235034Y0047817D01*
X0234959Y0047951D01*
X0234888Y0048087D01*
X0234821Y0048225D01*
X0234757Y0048365D01*
X0234697Y0048506D01*
X0234641Y0048648D01*
X0234588Y0048792D01*
X0234539Y0048938D01*
X0234494Y0049084D01*
X0234453Y0049232D01*
X0234416Y0049380D01*
X0234382Y0049530D01*
X0234352Y0049681D01*
X0234327Y0049832D01*
X0234305Y0049983D01*
X0234287Y0050136D01*
X0234273Y0050288D01*
X0234263Y0050441D01*
X0234257Y0050595D01*
X0234255Y0050748D01*
X0240161Y0035000D02*
X0240542Y0035005D01*
X0240922Y0035018D01*
X0241302Y0035041D01*
X0241681Y0035074D01*
X0242059Y0035115D01*
X0242436Y0035165D01*
X0242812Y0035225D01*
X0243187Y0035293D01*
X0243559Y0035371D01*
X0243930Y0035458D01*
X0244298Y0035553D01*
X0244664Y0035658D01*
X0245027Y0035771D01*
X0245388Y0035893D01*
X0245745Y0036023D01*
X0246099Y0036163D01*
X0246450Y0036310D01*
X0246797Y0036467D01*
X0247140Y0036631D01*
X0247479Y0036804D01*
X0247814Y0036985D01*
X0248145Y0037174D01*
X0248470Y0037371D01*
X0248791Y0037575D01*
X0249107Y0037788D01*
X0249417Y0038008D01*
X0249723Y0038235D01*
X0250022Y0038470D01*
X0250316Y0038712D01*
X0250604Y0038960D01*
X0250886Y0039216D01*
X0251161Y0039479D01*
X0251430Y0039748D01*
X0251693Y0040023D01*
X0251949Y0040305D01*
X0252197Y0040593D01*
X0252439Y0040887D01*
X0252674Y0041186D01*
X0252901Y0041492D01*
X0253121Y0041802D01*
X0253334Y0042118D01*
X0253538Y0042439D01*
X0253735Y0042764D01*
X0253924Y0043095D01*
X0254105Y0043430D01*
X0254278Y0043769D01*
X0254442Y0044112D01*
X0254599Y0044459D01*
X0254746Y0044810D01*
X0254886Y0045164D01*
X0255016Y0045521D01*
X0255138Y0045882D01*
X0255251Y0046245D01*
X0255356Y0046611D01*
X0255451Y0046979D01*
X0255538Y0047350D01*
X0255616Y0047722D01*
X0255684Y0048097D01*
X0255744Y0048473D01*
X0255794Y0048850D01*
X0255835Y0049228D01*
X0255868Y0049607D01*
X0255891Y0049987D01*
X0255904Y0050367D01*
X0255909Y0050748D01*
X0255909Y0180669D01*
X0234255Y0180669D02*
X0234257Y0180822D01*
X0234263Y0180976D01*
X0234273Y0181129D01*
X0234287Y0181281D01*
X0234305Y0181434D01*
X0234327Y0181585D01*
X0234352Y0181736D01*
X0234382Y0181887D01*
X0234416Y0182037D01*
X0234453Y0182185D01*
X0234494Y0182333D01*
X0234539Y0182479D01*
X0234588Y0182625D01*
X0234641Y0182769D01*
X0234697Y0182911D01*
X0234757Y0183052D01*
X0234821Y0183192D01*
X0234888Y0183330D01*
X0234959Y0183466D01*
X0235034Y0183600D01*
X0235111Y0183732D01*
X0235193Y0183862D01*
X0235277Y0183990D01*
X0235365Y0184116D01*
X0235456Y0184239D01*
X0235550Y0184360D01*
X0235648Y0184478D01*
X0235748Y0184594D01*
X0235852Y0184707D01*
X0235958Y0184818D01*
X0236067Y0184926D01*
X0236179Y0185031D01*
X0236293Y0185132D01*
X0236411Y0185231D01*
X0236530Y0185327D01*
X0236652Y0185420D01*
X0236777Y0185509D01*
X0236904Y0185596D01*
X0237033Y0185678D01*
X0237164Y0185758D01*
X0237297Y0185834D01*
X0237432Y0185907D01*
X0237569Y0185976D01*
X0237708Y0186041D01*
X0237848Y0186103D01*
X0237990Y0186161D01*
X0238133Y0186216D01*
X0238278Y0186267D01*
X0238424Y0186314D01*
X0238571Y0186357D01*
X0238719Y0186396D01*
X0238868Y0186432D01*
X0239018Y0186463D01*
X0239169Y0186491D01*
X0239320Y0186515D01*
X0239473Y0186535D01*
X0239625Y0186551D01*
X0239778Y0186563D01*
X0239931Y0186571D01*
X0240084Y0186575D01*
X0240238Y0186575D01*
X0240391Y0186571D01*
X0240544Y0186563D01*
X0240697Y0186551D01*
X0240849Y0186535D01*
X0241002Y0186515D01*
X0241153Y0186491D01*
X0241304Y0186463D01*
X0241454Y0186432D01*
X0241603Y0186396D01*
X0241751Y0186357D01*
X0241898Y0186314D01*
X0242044Y0186267D01*
X0242189Y0186216D01*
X0242332Y0186161D01*
X0242474Y0186103D01*
X0242614Y0186041D01*
X0242753Y0185976D01*
X0242890Y0185907D01*
X0243025Y0185834D01*
X0243158Y0185758D01*
X0243289Y0185678D01*
X0243418Y0185596D01*
X0243545Y0185509D01*
X0243670Y0185420D01*
X0243792Y0185327D01*
X0243911Y0185231D01*
X0244029Y0185132D01*
X0244143Y0185031D01*
X0244255Y0184926D01*
X0244364Y0184818D01*
X0244470Y0184707D01*
X0244574Y0184594D01*
X0244674Y0184478D01*
X0244772Y0184360D01*
X0244866Y0184239D01*
X0244957Y0184116D01*
X0245045Y0183990D01*
X0245129Y0183862D01*
X0245211Y0183732D01*
X0245288Y0183600D01*
X0245363Y0183466D01*
X0245434Y0183330D01*
X0245501Y0183192D01*
X0245565Y0183052D01*
X0245625Y0182911D01*
X0245681Y0182769D01*
X0245734Y0182625D01*
X0245783Y0182479D01*
X0245828Y0182333D01*
X0245869Y0182185D01*
X0245906Y0182037D01*
X0245940Y0181887D01*
X0245970Y0181736D01*
X0245995Y0181585D01*
X0246017Y0181434D01*
X0246035Y0181281D01*
X0246049Y0181129D01*
X0246059Y0180976D01*
X0246065Y0180822D01*
X0246067Y0180669D01*
X0246065Y0180516D01*
X0246059Y0180362D01*
X0246049Y0180209D01*
X0246035Y0180057D01*
X0246017Y0179904D01*
X0245995Y0179753D01*
X0245970Y0179602D01*
X0245940Y0179451D01*
X0245906Y0179301D01*
X0245869Y0179153D01*
X0245828Y0179005D01*
X0245783Y0178859D01*
X0245734Y0178713D01*
X0245681Y0178569D01*
X0245625Y0178427D01*
X0245565Y0178286D01*
X0245501Y0178146D01*
X0245434Y0178008D01*
X0245363Y0177872D01*
X0245288Y0177738D01*
X0245211Y0177606D01*
X0245129Y0177476D01*
X0245045Y0177348D01*
X0244957Y0177222D01*
X0244866Y0177099D01*
X0244772Y0176978D01*
X0244674Y0176860D01*
X0244574Y0176744D01*
X0244470Y0176631D01*
X0244364Y0176520D01*
X0244255Y0176412D01*
X0244143Y0176307D01*
X0244029Y0176206D01*
X0243911Y0176107D01*
X0243792Y0176011D01*
X0243670Y0175918D01*
X0243545Y0175829D01*
X0243418Y0175742D01*
X0243289Y0175660D01*
X0243158Y0175580D01*
X0243025Y0175504D01*
X0242890Y0175431D01*
X0242753Y0175362D01*
X0242614Y0175297D01*
X0242474Y0175235D01*
X0242332Y0175177D01*
X0242189Y0175122D01*
X0242044Y0175071D01*
X0241898Y0175024D01*
X0241751Y0174981D01*
X0241603Y0174942D01*
X0241454Y0174906D01*
X0241304Y0174875D01*
X0241153Y0174847D01*
X0241002Y0174823D01*
X0240849Y0174803D01*
X0240697Y0174787D01*
X0240544Y0174775D01*
X0240391Y0174767D01*
X0240238Y0174763D01*
X0240084Y0174763D01*
X0239931Y0174767D01*
X0239778Y0174775D01*
X0239625Y0174787D01*
X0239473Y0174803D01*
X0239320Y0174823D01*
X0239169Y0174847D01*
X0239018Y0174875D01*
X0238868Y0174906D01*
X0238719Y0174942D01*
X0238571Y0174981D01*
X0238424Y0175024D01*
X0238278Y0175071D01*
X0238133Y0175122D01*
X0237990Y0175177D01*
X0237848Y0175235D01*
X0237708Y0175297D01*
X0237569Y0175362D01*
X0237432Y0175431D01*
X0237297Y0175504D01*
X0237164Y0175580D01*
X0237033Y0175660D01*
X0236904Y0175742D01*
X0236777Y0175829D01*
X0236652Y0175918D01*
X0236530Y0176011D01*
X0236411Y0176107D01*
X0236293Y0176206D01*
X0236179Y0176307D01*
X0236067Y0176412D01*
X0235958Y0176520D01*
X0235852Y0176631D01*
X0235748Y0176744D01*
X0235648Y0176860D01*
X0235550Y0176978D01*
X0235456Y0177099D01*
X0235365Y0177222D01*
X0235277Y0177348D01*
X0235193Y0177476D01*
X0235111Y0177606D01*
X0235034Y0177738D01*
X0234959Y0177872D01*
X0234888Y0178008D01*
X0234821Y0178146D01*
X0234757Y0178286D01*
X0234697Y0178427D01*
X0234641Y0178569D01*
X0234588Y0178713D01*
X0234539Y0178859D01*
X0234494Y0179005D01*
X0234453Y0179153D01*
X0234416Y0179301D01*
X0234382Y0179451D01*
X0234352Y0179602D01*
X0234327Y0179753D01*
X0234305Y0179904D01*
X0234287Y0180057D01*
X0234273Y0180209D01*
X0234263Y0180362D01*
X0234257Y0180516D01*
X0234255Y0180669D01*
X0240161Y0196417D02*
X0240542Y0196412D01*
X0240922Y0196399D01*
X0241302Y0196376D01*
X0241681Y0196343D01*
X0242059Y0196302D01*
X0242436Y0196252D01*
X0242812Y0196192D01*
X0243187Y0196124D01*
X0243559Y0196046D01*
X0243930Y0195959D01*
X0244298Y0195864D01*
X0244664Y0195759D01*
X0245027Y0195646D01*
X0245388Y0195524D01*
X0245745Y0195394D01*
X0246099Y0195254D01*
X0246450Y0195107D01*
X0246797Y0194950D01*
X0247140Y0194786D01*
X0247479Y0194613D01*
X0247814Y0194432D01*
X0248145Y0194243D01*
X0248470Y0194046D01*
X0248791Y0193842D01*
X0249107Y0193629D01*
X0249417Y0193409D01*
X0249723Y0193182D01*
X0250022Y0192947D01*
X0250316Y0192705D01*
X0250604Y0192457D01*
X0250886Y0192201D01*
X0251161Y0191938D01*
X0251430Y0191669D01*
X0251693Y0191394D01*
X0251949Y0191112D01*
X0252197Y0190824D01*
X0252439Y0190530D01*
X0252674Y0190231D01*
X0252901Y0189925D01*
X0253121Y0189615D01*
X0253334Y0189299D01*
X0253538Y0188978D01*
X0253735Y0188653D01*
X0253924Y0188322D01*
X0254105Y0187987D01*
X0254278Y0187648D01*
X0254442Y0187305D01*
X0254599Y0186958D01*
X0254746Y0186607D01*
X0254886Y0186253D01*
X0255016Y0185896D01*
X0255138Y0185535D01*
X0255251Y0185172D01*
X0255356Y0184806D01*
X0255451Y0184438D01*
X0255538Y0184067D01*
X0255616Y0183695D01*
X0255684Y0183320D01*
X0255744Y0182944D01*
X0255794Y0182567D01*
X0255835Y0182189D01*
X0255868Y0181810D01*
X0255891Y0181430D01*
X0255904Y0181050D01*
X0255909Y0180669D01*
X0240161Y0196417D02*
X0047248Y0196417D01*
X0041342Y0180669D02*
X0041344Y0180822D01*
X0041350Y0180976D01*
X0041360Y0181129D01*
X0041374Y0181281D01*
X0041392Y0181434D01*
X0041414Y0181585D01*
X0041439Y0181736D01*
X0041469Y0181887D01*
X0041503Y0182037D01*
X0041540Y0182185D01*
X0041581Y0182333D01*
X0041626Y0182479D01*
X0041675Y0182625D01*
X0041728Y0182769D01*
X0041784Y0182911D01*
X0041844Y0183052D01*
X0041908Y0183192D01*
X0041975Y0183330D01*
X0042046Y0183466D01*
X0042121Y0183600D01*
X0042198Y0183732D01*
X0042280Y0183862D01*
X0042364Y0183990D01*
X0042452Y0184116D01*
X0042543Y0184239D01*
X0042637Y0184360D01*
X0042735Y0184478D01*
X0042835Y0184594D01*
X0042939Y0184707D01*
X0043045Y0184818D01*
X0043154Y0184926D01*
X0043266Y0185031D01*
X0043380Y0185132D01*
X0043498Y0185231D01*
X0043617Y0185327D01*
X0043739Y0185420D01*
X0043864Y0185509D01*
X0043991Y0185596D01*
X0044120Y0185678D01*
X0044251Y0185758D01*
X0044384Y0185834D01*
X0044519Y0185907D01*
X0044656Y0185976D01*
X0044795Y0186041D01*
X0044935Y0186103D01*
X0045077Y0186161D01*
X0045220Y0186216D01*
X0045365Y0186267D01*
X0045511Y0186314D01*
X0045658Y0186357D01*
X0045806Y0186396D01*
X0045955Y0186432D01*
X0046105Y0186463D01*
X0046256Y0186491D01*
X0046407Y0186515D01*
X0046560Y0186535D01*
X0046712Y0186551D01*
X0046865Y0186563D01*
X0047018Y0186571D01*
X0047171Y0186575D01*
X0047325Y0186575D01*
X0047478Y0186571D01*
X0047631Y0186563D01*
X0047784Y0186551D01*
X0047936Y0186535D01*
X0048089Y0186515D01*
X0048240Y0186491D01*
X0048391Y0186463D01*
X0048541Y0186432D01*
X0048690Y0186396D01*
X0048838Y0186357D01*
X0048985Y0186314D01*
X0049131Y0186267D01*
X0049276Y0186216D01*
X0049419Y0186161D01*
X0049561Y0186103D01*
X0049701Y0186041D01*
X0049840Y0185976D01*
X0049977Y0185907D01*
X0050112Y0185834D01*
X0050245Y0185758D01*
X0050376Y0185678D01*
X0050505Y0185596D01*
X0050632Y0185509D01*
X0050757Y0185420D01*
X0050879Y0185327D01*
X0050998Y0185231D01*
X0051116Y0185132D01*
X0051230Y0185031D01*
X0051342Y0184926D01*
X0051451Y0184818D01*
X0051557Y0184707D01*
X0051661Y0184594D01*
X0051761Y0184478D01*
X0051859Y0184360D01*
X0051953Y0184239D01*
X0052044Y0184116D01*
X0052132Y0183990D01*
X0052216Y0183862D01*
X0052298Y0183732D01*
X0052375Y0183600D01*
X0052450Y0183466D01*
X0052521Y0183330D01*
X0052588Y0183192D01*
X0052652Y0183052D01*
X0052712Y0182911D01*
X0052768Y0182769D01*
X0052821Y0182625D01*
X0052870Y0182479D01*
X0052915Y0182333D01*
X0052956Y0182185D01*
X0052993Y0182037D01*
X0053027Y0181887D01*
X0053057Y0181736D01*
X0053082Y0181585D01*
X0053104Y0181434D01*
X0053122Y0181281D01*
X0053136Y0181129D01*
X0053146Y0180976D01*
X0053152Y0180822D01*
X0053154Y0180669D01*
X0053152Y0180516D01*
X0053146Y0180362D01*
X0053136Y0180209D01*
X0053122Y0180057D01*
X0053104Y0179904D01*
X0053082Y0179753D01*
X0053057Y0179602D01*
X0053027Y0179451D01*
X0052993Y0179301D01*
X0052956Y0179153D01*
X0052915Y0179005D01*
X0052870Y0178859D01*
X0052821Y0178713D01*
X0052768Y0178569D01*
X0052712Y0178427D01*
X0052652Y0178286D01*
X0052588Y0178146D01*
X0052521Y0178008D01*
X0052450Y0177872D01*
X0052375Y0177738D01*
X0052298Y0177606D01*
X0052216Y0177476D01*
X0052132Y0177348D01*
X0052044Y0177222D01*
X0051953Y0177099D01*
X0051859Y0176978D01*
X0051761Y0176860D01*
X0051661Y0176744D01*
X0051557Y0176631D01*
X0051451Y0176520D01*
X0051342Y0176412D01*
X0051230Y0176307D01*
X0051116Y0176206D01*
X0050998Y0176107D01*
X0050879Y0176011D01*
X0050757Y0175918D01*
X0050632Y0175829D01*
X0050505Y0175742D01*
X0050376Y0175660D01*
X0050245Y0175580D01*
X0050112Y0175504D01*
X0049977Y0175431D01*
X0049840Y0175362D01*
X0049701Y0175297D01*
X0049561Y0175235D01*
X0049419Y0175177D01*
X0049276Y0175122D01*
X0049131Y0175071D01*
X0048985Y0175024D01*
X0048838Y0174981D01*
X0048690Y0174942D01*
X0048541Y0174906D01*
X0048391Y0174875D01*
X0048240Y0174847D01*
X0048089Y0174823D01*
X0047936Y0174803D01*
X0047784Y0174787D01*
X0047631Y0174775D01*
X0047478Y0174767D01*
X0047325Y0174763D01*
X0047171Y0174763D01*
X0047018Y0174767D01*
X0046865Y0174775D01*
X0046712Y0174787D01*
X0046560Y0174803D01*
X0046407Y0174823D01*
X0046256Y0174847D01*
X0046105Y0174875D01*
X0045955Y0174906D01*
X0045806Y0174942D01*
X0045658Y0174981D01*
X0045511Y0175024D01*
X0045365Y0175071D01*
X0045220Y0175122D01*
X0045077Y0175177D01*
X0044935Y0175235D01*
X0044795Y0175297D01*
X0044656Y0175362D01*
X0044519Y0175431D01*
X0044384Y0175504D01*
X0044251Y0175580D01*
X0044120Y0175660D01*
X0043991Y0175742D01*
X0043864Y0175829D01*
X0043739Y0175918D01*
X0043617Y0176011D01*
X0043498Y0176107D01*
X0043380Y0176206D01*
X0043266Y0176307D01*
X0043154Y0176412D01*
X0043045Y0176520D01*
X0042939Y0176631D01*
X0042835Y0176744D01*
X0042735Y0176860D01*
X0042637Y0176978D01*
X0042543Y0177099D01*
X0042452Y0177222D01*
X0042364Y0177348D01*
X0042280Y0177476D01*
X0042198Y0177606D01*
X0042121Y0177738D01*
X0042046Y0177872D01*
X0041975Y0178008D01*
X0041908Y0178146D01*
X0041844Y0178286D01*
X0041784Y0178427D01*
X0041728Y0178569D01*
X0041675Y0178713D01*
X0041626Y0178859D01*
X0041581Y0179005D01*
X0041540Y0179153D01*
X0041503Y0179301D01*
X0041469Y0179451D01*
X0041439Y0179602D01*
X0041414Y0179753D01*
X0041392Y0179904D01*
X0041374Y0180057D01*
X0041360Y0180209D01*
X0041350Y0180362D01*
X0041344Y0180516D01*
X0041342Y0180669D01*
X0031500Y0180669D02*
X0031505Y0181050D01*
X0031518Y0181430D01*
X0031541Y0181810D01*
X0031574Y0182189D01*
X0031615Y0182567D01*
X0031665Y0182944D01*
X0031725Y0183320D01*
X0031793Y0183695D01*
X0031871Y0184067D01*
X0031958Y0184438D01*
X0032053Y0184806D01*
X0032158Y0185172D01*
X0032271Y0185535D01*
X0032393Y0185896D01*
X0032523Y0186253D01*
X0032663Y0186607D01*
X0032810Y0186958D01*
X0032967Y0187305D01*
X0033131Y0187648D01*
X0033304Y0187987D01*
X0033485Y0188322D01*
X0033674Y0188653D01*
X0033871Y0188978D01*
X0034075Y0189299D01*
X0034288Y0189615D01*
X0034508Y0189925D01*
X0034735Y0190231D01*
X0034970Y0190530D01*
X0035212Y0190824D01*
X0035460Y0191112D01*
X0035716Y0191394D01*
X0035979Y0191669D01*
X0036248Y0191938D01*
X0036523Y0192201D01*
X0036805Y0192457D01*
X0037093Y0192705D01*
X0037387Y0192947D01*
X0037686Y0193182D01*
X0037992Y0193409D01*
X0038302Y0193629D01*
X0038618Y0193842D01*
X0038939Y0194046D01*
X0039264Y0194243D01*
X0039595Y0194432D01*
X0039930Y0194613D01*
X0040269Y0194786D01*
X0040612Y0194950D01*
X0040959Y0195107D01*
X0041310Y0195254D01*
X0041664Y0195394D01*
X0042021Y0195524D01*
X0042382Y0195646D01*
X0042745Y0195759D01*
X0043111Y0195864D01*
X0043479Y0195959D01*
X0043850Y0196046D01*
X0044222Y0196124D01*
X0044597Y0196192D01*
X0044973Y0196252D01*
X0045350Y0196302D01*
X0045728Y0196343D01*
X0046107Y0196376D01*
X0046487Y0196399D01*
X0046867Y0196412D01*
X0047248Y0196417D01*
X0031500Y0180669D02*
X0031500Y0050748D01*
X0041342Y0050748D02*
X0041344Y0050901D01*
X0041350Y0051055D01*
X0041360Y0051208D01*
X0041374Y0051360D01*
X0041392Y0051513D01*
X0041414Y0051664D01*
X0041439Y0051815D01*
X0041469Y0051966D01*
X0041503Y0052116D01*
X0041540Y0052264D01*
X0041581Y0052412D01*
X0041626Y0052558D01*
X0041675Y0052704D01*
X0041728Y0052848D01*
X0041784Y0052990D01*
X0041844Y0053131D01*
X0041908Y0053271D01*
X0041975Y0053409D01*
X0042046Y0053545D01*
X0042121Y0053679D01*
X0042198Y0053811D01*
X0042280Y0053941D01*
X0042364Y0054069D01*
X0042452Y0054195D01*
X0042543Y0054318D01*
X0042637Y0054439D01*
X0042735Y0054557D01*
X0042835Y0054673D01*
X0042939Y0054786D01*
X0043045Y0054897D01*
X0043154Y0055005D01*
X0043266Y0055110D01*
X0043380Y0055211D01*
X0043498Y0055310D01*
X0043617Y0055406D01*
X0043739Y0055499D01*
X0043864Y0055588D01*
X0043991Y0055675D01*
X0044120Y0055757D01*
X0044251Y0055837D01*
X0044384Y0055913D01*
X0044519Y0055986D01*
X0044656Y0056055D01*
X0044795Y0056120D01*
X0044935Y0056182D01*
X0045077Y0056240D01*
X0045220Y0056295D01*
X0045365Y0056346D01*
X0045511Y0056393D01*
X0045658Y0056436D01*
X0045806Y0056475D01*
X0045955Y0056511D01*
X0046105Y0056542D01*
X0046256Y0056570D01*
X0046407Y0056594D01*
X0046560Y0056614D01*
X0046712Y0056630D01*
X0046865Y0056642D01*
X0047018Y0056650D01*
X0047171Y0056654D01*
X0047325Y0056654D01*
X0047478Y0056650D01*
X0047631Y0056642D01*
X0047784Y0056630D01*
X0047936Y0056614D01*
X0048089Y0056594D01*
X0048240Y0056570D01*
X0048391Y0056542D01*
X0048541Y0056511D01*
X0048690Y0056475D01*
X0048838Y0056436D01*
X0048985Y0056393D01*
X0049131Y0056346D01*
X0049276Y0056295D01*
X0049419Y0056240D01*
X0049561Y0056182D01*
X0049701Y0056120D01*
X0049840Y0056055D01*
X0049977Y0055986D01*
X0050112Y0055913D01*
X0050245Y0055837D01*
X0050376Y0055757D01*
X0050505Y0055675D01*
X0050632Y0055588D01*
X0050757Y0055499D01*
X0050879Y0055406D01*
X0050998Y0055310D01*
X0051116Y0055211D01*
X0051230Y0055110D01*
X0051342Y0055005D01*
X0051451Y0054897D01*
X0051557Y0054786D01*
X0051661Y0054673D01*
X0051761Y0054557D01*
X0051859Y0054439D01*
X0051953Y0054318D01*
X0052044Y0054195D01*
X0052132Y0054069D01*
X0052216Y0053941D01*
X0052298Y0053811D01*
X0052375Y0053679D01*
X0052450Y0053545D01*
X0052521Y0053409D01*
X0052588Y0053271D01*
X0052652Y0053131D01*
X0052712Y0052990D01*
X0052768Y0052848D01*
X0052821Y0052704D01*
X0052870Y0052558D01*
X0052915Y0052412D01*
X0052956Y0052264D01*
X0052993Y0052116D01*
X0053027Y0051966D01*
X0053057Y0051815D01*
X0053082Y0051664D01*
X0053104Y0051513D01*
X0053122Y0051360D01*
X0053136Y0051208D01*
X0053146Y0051055D01*
X0053152Y0050901D01*
X0053154Y0050748D01*
X0053152Y0050595D01*
X0053146Y0050441D01*
X0053136Y0050288D01*
X0053122Y0050136D01*
X0053104Y0049983D01*
X0053082Y0049832D01*
X0053057Y0049681D01*
X0053027Y0049530D01*
X0052993Y0049380D01*
X0052956Y0049232D01*
X0052915Y0049084D01*
X0052870Y0048938D01*
X0052821Y0048792D01*
X0052768Y0048648D01*
X0052712Y0048506D01*
X0052652Y0048365D01*
X0052588Y0048225D01*
X0052521Y0048087D01*
X0052450Y0047951D01*
X0052375Y0047817D01*
X0052298Y0047685D01*
X0052216Y0047555D01*
X0052132Y0047427D01*
X0052044Y0047301D01*
X0051953Y0047178D01*
X0051859Y0047057D01*
X0051761Y0046939D01*
X0051661Y0046823D01*
X0051557Y0046710D01*
X0051451Y0046599D01*
X0051342Y0046491D01*
X0051230Y0046386D01*
X0051116Y0046285D01*
X0050998Y0046186D01*
X0050879Y0046090D01*
X0050757Y0045997D01*
X0050632Y0045908D01*
X0050505Y0045821D01*
X0050376Y0045739D01*
X0050245Y0045659D01*
X0050112Y0045583D01*
X0049977Y0045510D01*
X0049840Y0045441D01*
X0049701Y0045376D01*
X0049561Y0045314D01*
X0049419Y0045256D01*
X0049276Y0045201D01*
X0049131Y0045150D01*
X0048985Y0045103D01*
X0048838Y0045060D01*
X0048690Y0045021D01*
X0048541Y0044985D01*
X0048391Y0044954D01*
X0048240Y0044926D01*
X0048089Y0044902D01*
X0047936Y0044882D01*
X0047784Y0044866D01*
X0047631Y0044854D01*
X0047478Y0044846D01*
X0047325Y0044842D01*
X0047171Y0044842D01*
X0047018Y0044846D01*
X0046865Y0044854D01*
X0046712Y0044866D01*
X0046560Y0044882D01*
X0046407Y0044902D01*
X0046256Y0044926D01*
X0046105Y0044954D01*
X0045955Y0044985D01*
X0045806Y0045021D01*
X0045658Y0045060D01*
X0045511Y0045103D01*
X0045365Y0045150D01*
X0045220Y0045201D01*
X0045077Y0045256D01*
X0044935Y0045314D01*
X0044795Y0045376D01*
X0044656Y0045441D01*
X0044519Y0045510D01*
X0044384Y0045583D01*
X0044251Y0045659D01*
X0044120Y0045739D01*
X0043991Y0045821D01*
X0043864Y0045908D01*
X0043739Y0045997D01*
X0043617Y0046090D01*
X0043498Y0046186D01*
X0043380Y0046285D01*
X0043266Y0046386D01*
X0043154Y0046491D01*
X0043045Y0046599D01*
X0042939Y0046710D01*
X0042835Y0046823D01*
X0042735Y0046939D01*
X0042637Y0047057D01*
X0042543Y0047178D01*
X0042452Y0047301D01*
X0042364Y0047427D01*
X0042280Y0047555D01*
X0042198Y0047685D01*
X0042121Y0047817D01*
X0042046Y0047951D01*
X0041975Y0048087D01*
X0041908Y0048225D01*
X0041844Y0048365D01*
X0041784Y0048506D01*
X0041728Y0048648D01*
X0041675Y0048792D01*
X0041626Y0048938D01*
X0041581Y0049084D01*
X0041540Y0049232D01*
X0041503Y0049380D01*
X0041469Y0049530D01*
X0041439Y0049681D01*
X0041414Y0049832D01*
X0041392Y0049983D01*
X0041374Y0050136D01*
X0041360Y0050288D01*
X0041350Y0050441D01*
X0041344Y0050595D01*
X0041342Y0050748D01*
X0031500Y0050748D02*
X0031505Y0050367D01*
X0031518Y0049987D01*
X0031541Y0049607D01*
X0031574Y0049228D01*
X0031615Y0048850D01*
X0031665Y0048473D01*
X0031725Y0048097D01*
X0031793Y0047722D01*
X0031871Y0047350D01*
X0031958Y0046979D01*
X0032053Y0046611D01*
X0032158Y0046245D01*
X0032271Y0045882D01*
X0032393Y0045521D01*
X0032523Y0045164D01*
X0032663Y0044810D01*
X0032810Y0044459D01*
X0032967Y0044112D01*
X0033131Y0043769D01*
X0033304Y0043430D01*
X0033485Y0043095D01*
X0033674Y0042764D01*
X0033871Y0042439D01*
X0034075Y0042118D01*
X0034288Y0041802D01*
X0034508Y0041492D01*
X0034735Y0041186D01*
X0034970Y0040887D01*
X0035212Y0040593D01*
X0035460Y0040305D01*
X0035716Y0040023D01*
X0035979Y0039748D01*
X0036248Y0039479D01*
X0036523Y0039216D01*
X0036805Y0038960D01*
X0037093Y0038712D01*
X0037387Y0038470D01*
X0037686Y0038235D01*
X0037992Y0038008D01*
X0038302Y0037788D01*
X0038618Y0037575D01*
X0038939Y0037371D01*
X0039264Y0037174D01*
X0039595Y0036985D01*
X0039930Y0036804D01*
X0040269Y0036631D01*
X0040612Y0036467D01*
X0040959Y0036310D01*
X0041310Y0036163D01*
X0041664Y0036023D01*
X0042021Y0035893D01*
X0042382Y0035771D01*
X0042745Y0035658D01*
X0043111Y0035553D01*
X0043479Y0035458D01*
X0043850Y0035371D01*
X0044222Y0035293D01*
X0044597Y0035225D01*
X0044973Y0035165D01*
X0045350Y0035115D01*
X0045728Y0035074D01*
X0046107Y0035041D01*
X0046487Y0035018D01*
X0046867Y0035005D01*
X0047248Y0035000D01*
M02*
