%
M48
M72
T01C0.01378
T02C0.01969
T03C0.04000
T04C0.05500
T05C0.11811
%
T01
X84000Y77500
X89000Y77500
X106500Y122500
X106500Y137500
X141500Y137500
X156500Y152500
X174000Y147500
X181500Y147500
X191500Y155000
X204000Y160000
X179000Y90000
X169000Y90000
X169000Y82500
X156500Y85000
X159000Y70000
X149000Y65000
X184000Y65000
T02
X176500Y85000
X194000Y85000
X189000Y110000
X166500Y127500
X161500Y110000
X144000Y85000
X124000Y112500
X89000Y115000
X86500Y110000
X71500Y112500
T03
X66500Y55000
X76500Y55000
X86500Y55000
X96500Y55000
X106500Y55000
X116500Y55000
X126500Y55000
X136500Y55000
X146500Y55000
X156500Y55000
X166500Y55000
X176500Y55000
X186500Y55000
X196500Y55000
X206500Y55000
X216500Y55000
X236500Y92500
X236500Y102500
X236500Y112500
X236500Y122500
X236500Y132500
X216500Y175000
X206500Y175000
X196500Y175000
X186500Y175000
X176500Y175000
X166500Y175000
X156500Y175000
X146500Y175000
X136500Y175000
X126500Y175000
X116500Y175000
X106500Y175000
X96500Y175000
X86500Y175000
X76500Y175000
T04
X59000Y130000
X59000Y110000
T05
X47248Y50748
X47248Y180669
X240161Y180669
X240161Y50748
M30
