G75*
%MOIN*%
%OFA0B0*%
%FSLAX25Y25*%
%IPPOS*%
%LPD*%
%AMOC8*
5,1,8,0,0,1.08239X$1,22.5*
%
%ADD10R,0.06800X0.01100*%
%ADD11R,0.01100X0.06800*%
%ADD12R,0.08600X0.02200*%
%ADD13R,0.03937X0.04331*%
%ADD14R,0.04331X0.03937*%
%ADD15R,0.07087X0.03937*%
%ADD16R,0.03543X0.02559*%
%ADD17R,0.05512X0.06299*%
%ADD18R,0.09843X0.03937*%
%ADD19C,0.02756*%
%ADD20R,0.05000X0.12598*%
%ADD21R,0.05709X0.04528*%
%ADD22R,0.05512X0.01575*%
%ADD23R,0.07480X0.06890*%
%ADD24C,0.07480*%
%ADD25R,0.03150X0.03150*%
%ADD26C,0.11811*%
%ADD27C,0.06000*%
%ADD28R,0.05200X0.01400*%
%ADD29C,0.03937*%
%ADD30C,0.02953*%
D10*
X0211600Y0092978D03*
X0211600Y0094946D03*
X0211600Y0096915D03*
X0211600Y0098883D03*
X0211600Y0100852D03*
X0211600Y0102820D03*
X0211600Y0104789D03*
X0211600Y0106757D03*
X0211600Y0108726D03*
X0211600Y0110694D03*
X0211600Y0112663D03*
X0211600Y0114631D03*
X0211600Y0116600D03*
X0211600Y0118569D03*
X0211600Y0120537D03*
X0211600Y0122506D03*
X0211600Y0124474D03*
X0211600Y0126443D03*
X0211600Y0128411D03*
X0211600Y0130380D03*
X0211600Y0132348D03*
X0211600Y0134317D03*
X0211600Y0136285D03*
X0211600Y0138254D03*
X0211600Y0140222D03*
X0271600Y0140222D03*
X0271600Y0138254D03*
X0271600Y0136285D03*
X0271600Y0134317D03*
X0271600Y0132348D03*
X0271600Y0130380D03*
X0271600Y0128411D03*
X0271600Y0126443D03*
X0271600Y0124474D03*
X0271600Y0122506D03*
X0271600Y0120537D03*
X0271600Y0118569D03*
X0271600Y0116600D03*
X0271600Y0114631D03*
X0271600Y0112663D03*
X0271600Y0110694D03*
X0271600Y0108726D03*
X0271600Y0106757D03*
X0271600Y0104789D03*
X0271600Y0102820D03*
X0271600Y0100852D03*
X0271600Y0098883D03*
X0271600Y0096915D03*
X0271600Y0094946D03*
X0271600Y0092978D03*
D11*
X0265222Y0086600D03*
X0263254Y0086600D03*
X0261285Y0086600D03*
X0259317Y0086600D03*
X0257348Y0086600D03*
X0255380Y0086600D03*
X0253411Y0086600D03*
X0251443Y0086600D03*
X0249474Y0086600D03*
X0247506Y0086600D03*
X0245537Y0086600D03*
X0243569Y0086600D03*
X0241600Y0086600D03*
X0239631Y0086600D03*
X0237663Y0086600D03*
X0235694Y0086600D03*
X0233726Y0086600D03*
X0231757Y0086600D03*
X0229789Y0086600D03*
X0227820Y0086600D03*
X0225852Y0086600D03*
X0223883Y0086600D03*
X0221915Y0086600D03*
X0219946Y0086600D03*
X0217978Y0086600D03*
X0217978Y0146600D03*
X0219946Y0146600D03*
X0221915Y0146600D03*
X0223883Y0146600D03*
X0225852Y0146600D03*
X0227820Y0146600D03*
X0229789Y0146600D03*
X0231757Y0146600D03*
X0233726Y0146600D03*
X0235694Y0146600D03*
X0237663Y0146600D03*
X0239631Y0146600D03*
X0241600Y0146600D03*
X0243569Y0146600D03*
X0245537Y0146600D03*
X0247506Y0146600D03*
X0249474Y0146600D03*
X0251443Y0146600D03*
X0253411Y0146600D03*
X0255380Y0146600D03*
X0257348Y0146600D03*
X0259317Y0146600D03*
X0261285Y0146600D03*
X0263254Y0146600D03*
X0265222Y0146600D03*
D12*
X0157900Y0115100D03*
X0157900Y0110100D03*
X0157900Y0105100D03*
X0157900Y0100100D03*
X0139300Y0100100D03*
X0139300Y0105100D03*
X0139300Y0110100D03*
X0139300Y0115100D03*
D13*
X0157754Y0092600D03*
X0164446Y0092600D03*
X0171754Y0092600D03*
X0178446Y0092600D03*
X0103446Y0073100D03*
X0096754Y0073100D03*
X0090946Y0079600D03*
X0084254Y0079600D03*
X0084254Y0088100D03*
X0090946Y0088100D03*
X0090946Y0095600D03*
X0084254Y0095600D03*
X0072261Y0053600D03*
X0065569Y0053600D03*
X0367883Y0153600D03*
X0374576Y0153600D03*
X0380383Y0153600D03*
X0387076Y0153600D03*
X0387076Y0146600D03*
X0380383Y0146600D03*
D14*
X0329946Y0131600D03*
X0323254Y0131600D03*
X0323254Y0123100D03*
X0329946Y0123100D03*
X0329946Y0114600D03*
X0323254Y0114600D03*
X0323254Y0106100D03*
X0329946Y0106100D03*
X0329946Y0097600D03*
X0323254Y0097600D03*
X0323254Y0089100D03*
X0329946Y0089100D03*
X0344600Y0091446D03*
X0351600Y0091446D03*
X0351600Y0084754D03*
X0344600Y0084754D03*
X0351600Y0078946D03*
X0351600Y0072254D03*
X0316289Y0071946D03*
X0306289Y0071946D03*
X0296289Y0071946D03*
X0286289Y0071946D03*
X0286289Y0065254D03*
X0296289Y0065254D03*
X0306289Y0065254D03*
X0316289Y0065254D03*
X0304946Y0092600D03*
X0298254Y0092600D03*
X0298254Y0129600D03*
X0304946Y0129600D03*
X0306915Y0160754D03*
X0316915Y0160754D03*
X0316915Y0167446D03*
X0306915Y0167446D03*
X0296915Y0167446D03*
X0286915Y0167446D03*
X0286915Y0160754D03*
X0296915Y0160754D03*
X0184946Y0121600D03*
X0178254Y0121600D03*
X0166600Y0117446D03*
X0166600Y0110754D03*
X0178254Y0111600D03*
X0184946Y0111600D03*
X0151446Y0123600D03*
X0144754Y0123600D03*
X0188254Y0091600D03*
X0194946Y0091600D03*
X0116915Y0160754D03*
X0106915Y0160754D03*
X0096915Y0160754D03*
X0096915Y0167446D03*
X0106915Y0167446D03*
X0116915Y0167446D03*
D15*
X0191600Y0121521D03*
X0191600Y0111679D03*
D16*
X0194734Y0104848D03*
X0194734Y0098352D03*
X0186466Y0098352D03*
X0186466Y0104848D03*
D17*
X0360852Y0090458D03*
X0392348Y0090458D03*
X0392348Y0072742D03*
X0360852Y0072742D03*
X0361352Y0115742D03*
X0392848Y0115742D03*
X0392848Y0133458D03*
X0361352Y0133458D03*
D18*
X0063553Y0121537D03*
X0063553Y0113663D03*
D19*
X0072411Y0109726D03*
X0072411Y0125474D03*
D20*
X0082415Y0124943D03*
X0092415Y0124943D03*
X0102415Y0124943D03*
X0112415Y0124943D03*
X0122415Y0124943D03*
X0122415Y0105257D03*
X0112415Y0105257D03*
X0102415Y0105257D03*
X0092415Y0105257D03*
X0082415Y0105257D03*
D21*
X0071380Y0093730D03*
X0071380Y0072076D03*
D22*
X0073033Y0077982D03*
X0073033Y0080541D03*
X0073033Y0083100D03*
X0073033Y0085659D03*
X0073033Y0088218D03*
D23*
X0062600Y0087529D03*
X0062600Y0078671D03*
D24*
X0062600Y0069025D03*
X0062600Y0097175D03*
D25*
X0084647Y0073100D03*
X0090553Y0073100D03*
X0084868Y0053600D03*
X0078962Y0053600D03*
D26*
X0143529Y0052348D03*
X0336443Y0052348D03*
X0336443Y0182269D03*
X0143529Y0182269D03*
D27*
X0166600Y0179600D02*
X0166600Y0173600D01*
X0176600Y0173600D02*
X0176600Y0179600D01*
X0186600Y0179600D02*
X0186600Y0173600D01*
X0196600Y0173600D02*
X0196600Y0179600D01*
X0206600Y0179600D02*
X0206600Y0173600D01*
X0216600Y0173600D02*
X0216600Y0179600D01*
X0226600Y0179600D02*
X0226600Y0173600D01*
X0236600Y0173600D02*
X0236600Y0179600D01*
X0246600Y0179600D02*
X0246600Y0173600D01*
X0256600Y0173600D02*
X0256600Y0179600D01*
X0266600Y0179600D02*
X0266600Y0173600D01*
X0276600Y0173600D02*
X0276600Y0179600D01*
X0286600Y0179600D02*
X0286600Y0173600D01*
X0296600Y0173600D02*
X0296600Y0179600D01*
X0306600Y0179600D02*
X0306600Y0173600D01*
X0316600Y0173600D02*
X0316600Y0179600D01*
X0361600Y0179600D02*
X0361600Y0173600D01*
X0371600Y0173600D02*
X0371600Y0179600D01*
X0381600Y0179600D02*
X0381600Y0173600D01*
X0391600Y0173600D02*
X0391600Y0179600D01*
X0386915Y0059600D02*
X0386915Y0053600D01*
X0396915Y0053600D02*
X0396915Y0059600D01*
X0376915Y0059600D02*
X0376915Y0053600D01*
X0366600Y0053600D02*
X0366600Y0059600D01*
X0356600Y0059600D02*
X0356600Y0053600D01*
X0316600Y0053600D02*
X0316600Y0059600D01*
X0306600Y0059600D02*
X0306600Y0053600D01*
X0296600Y0053600D02*
X0296600Y0059600D01*
X0286600Y0059600D02*
X0286600Y0053600D01*
X0276600Y0053600D02*
X0276600Y0059600D01*
X0266600Y0059600D02*
X0266600Y0053600D01*
X0256600Y0053600D02*
X0256600Y0059600D01*
X0246600Y0059600D02*
X0246600Y0053600D01*
X0236600Y0053600D02*
X0236600Y0059600D01*
X0226600Y0059600D02*
X0226600Y0053600D01*
X0216600Y0053600D02*
X0216600Y0059600D01*
X0206600Y0059600D02*
X0206600Y0053600D01*
X0196600Y0053600D02*
X0196600Y0059600D01*
X0186600Y0059600D02*
X0186600Y0053600D01*
X0176600Y0053600D02*
X0176600Y0059600D01*
X0166600Y0059600D02*
X0166600Y0053600D01*
X0116600Y0053600D02*
X0116600Y0059600D01*
X0106600Y0059600D02*
X0106600Y0053600D01*
X0096600Y0053600D02*
X0096600Y0059600D01*
X0094230Y0141100D02*
X0094230Y0147100D01*
X0104230Y0147100D02*
X0104230Y0141100D01*
X0114230Y0141100D02*
X0114230Y0147100D01*
X0084230Y0147100D02*
X0084230Y0141100D01*
X0074230Y0141100D02*
X0074230Y0147100D01*
X0064230Y0147100D02*
X0064230Y0141100D01*
X0096600Y0173600D02*
X0096600Y0179600D01*
X0106600Y0179600D02*
X0106600Y0173600D01*
X0116600Y0173600D02*
X0116600Y0179600D01*
D28*
X0294400Y0122900D03*
X0294400Y0120400D03*
X0294400Y0117800D03*
X0294400Y0115300D03*
X0294400Y0107900D03*
X0294400Y0105400D03*
X0294400Y0102800D03*
X0294400Y0100300D03*
X0308800Y0100300D03*
X0308800Y0102800D03*
X0308800Y0105400D03*
X0308800Y0107900D03*
X0308800Y0115300D03*
X0308800Y0117800D03*
X0308800Y0120400D03*
X0308800Y0122900D03*
D29*
X0074415Y0041600D03*
X0389415Y0041600D03*
X0391915Y0189100D03*
X0071915Y0191600D03*
D30*
X0151600Y0128600D03*
X0166600Y0122600D03*
X0158600Y0119600D03*
X0180600Y0104100D03*
X0175600Y0098600D03*
X0181600Y0097600D03*
X0199600Y0105600D03*
X0203600Y0101600D03*
X0204600Y0115600D03*
X0201915Y0121600D03*
X0225915Y0115600D03*
X0240915Y0102600D03*
X0232915Y0099600D03*
X0248915Y0099600D03*
X0257915Y0101600D03*
X0256915Y0108600D03*
X0278600Y0098600D03*
X0309600Y0092600D03*
X0313600Y0108600D03*
X0299600Y0116600D03*
X0310600Y0126600D03*
X0304600Y0133600D03*
X0286600Y0133600D03*
X0278915Y0120600D03*
X0261128Y0132734D03*
X0249915Y0135600D03*
X0226915Y0136600D03*
X0212915Y0149600D03*
X0210915Y0154600D03*
X0223600Y0154600D03*
X0248600Y0154600D03*
X0367730Y0141100D03*
X0389415Y0142100D03*
X0391915Y0079600D03*
X0351600Y0067600D03*
X0271915Y0078600D03*
X0248600Y0078600D03*
X0212600Y0082600D03*
X0206915Y0082600D03*
X0188600Y0074600D03*
X0187600Y0066600D03*
X0211600Y0062600D03*
X0142100Y0074100D03*
X0096600Y0095600D03*
X0078600Y0091600D03*
X0079600Y0073100D03*
X0151600Y0097600D03*
X0082600Y0116600D03*
M02*
