G75*
%MOIN*%
%OFA0B0*%
%FSLAX25Y25*%
%IPPOS*%
%LPD*%
%AMOC8*
5,1,8,0,0,1.08239X$1,22.5*
%
%ADD10C,0.00500*%
%ADD11C,0.01200*%
D10*
X0197769Y0070368D02*
X0197769Y0078832D01*
X0206431Y0078832D01*
X0206431Y0070368D01*
X0197769Y0070368D01*
X0265050Y0082400D02*
X0270150Y0082400D01*
X0270150Y0093800D01*
X0265050Y0093800D01*
X0265050Y0082400D01*
X0219533Y0110765D02*
X0209336Y0110765D01*
X0209336Y0118954D01*
X0219533Y0118954D01*
X0219533Y0110765D01*
X0217427Y0113364D02*
X0211443Y0113364D01*
X0211443Y0116356D01*
X0217427Y0116356D01*
X0217427Y0113364D01*
X0354850Y0123859D02*
X0354850Y0095759D01*
X0366800Y0083809D01*
X0390400Y0083809D01*
X0390554Y0083811D01*
X0390707Y0083817D01*
X0390860Y0083827D01*
X0391013Y0083841D01*
X0391166Y0083858D01*
X0391318Y0083880D01*
X0391470Y0083906D01*
X0391620Y0083935D01*
X0391770Y0083969D01*
X0391919Y0084006D01*
X0392067Y0084047D01*
X0392214Y0084092D01*
X0392360Y0084140D01*
X0392504Y0084193D01*
X0392647Y0084249D01*
X0392789Y0084308D01*
X0392929Y0084372D01*
X0393067Y0084439D01*
X0393204Y0084509D01*
X0393338Y0084583D01*
X0393471Y0084660D01*
X0393602Y0084741D01*
X0393730Y0084825D01*
X0393857Y0084913D01*
X0393981Y0085003D01*
X0394102Y0085097D01*
X0394222Y0085194D01*
X0394338Y0085294D01*
X0394452Y0085397D01*
X0394564Y0085503D01*
X0394672Y0085611D01*
X0394778Y0085723D01*
X0394881Y0085837D01*
X0394981Y0085953D01*
X0395078Y0086073D01*
X0395171Y0086194D01*
X0395262Y0086318D01*
X0395349Y0086445D01*
X0395434Y0086573D01*
X0395514Y0086704D01*
X0395592Y0086837D01*
X0395666Y0086971D01*
X0395736Y0087108D01*
X0395803Y0087246D01*
X0395866Y0087386D01*
X0395926Y0087528D01*
X0395982Y0087671D01*
X0396034Y0087815D01*
X0396083Y0087961D01*
X0396128Y0088108D01*
X0396169Y0088256D01*
X0396206Y0088405D01*
X0396239Y0088555D01*
X0396269Y0088706D01*
X0396294Y0088857D01*
X0396316Y0089009D01*
X0396333Y0089162D01*
X0396347Y0089315D01*
X0396357Y0089468D01*
X0396363Y0089622D01*
X0396365Y0089775D01*
X0396363Y0089929D01*
X0396357Y0090082D01*
X0396347Y0090236D01*
X0396333Y0090389D01*
X0396315Y0090541D01*
X0396294Y0090693D01*
X0396268Y0090845D01*
X0396239Y0090995D01*
X0396205Y0091145D01*
X0396168Y0091294D01*
X0396127Y0091442D01*
X0396082Y0091589D01*
X0396033Y0091735D01*
X0395981Y0091880D01*
X0395925Y0092023D01*
X0395865Y0092164D01*
X0395802Y0092304D01*
X0395735Y0092442D01*
X0395664Y0092579D01*
X0395590Y0092713D01*
X0395513Y0092846D01*
X0395432Y0092977D01*
X0395348Y0093105D01*
X0395261Y0093232D01*
X0395170Y0093356D01*
X0395076Y0093477D01*
X0394979Y0093596D01*
X0394879Y0093713D01*
X0394776Y0093827D01*
X0394671Y0093939D01*
X0394562Y0094047D01*
X0394451Y0094153D01*
X0394336Y0094256D01*
X0394220Y0094356D01*
X0394100Y0094452D01*
X0393979Y0094546D01*
X0393855Y0094637D01*
X0393728Y0094724D01*
X0393600Y0094808D01*
X0393600Y0094809D02*
X0393253Y0095268D01*
X0392917Y0095736D01*
X0392593Y0096211D01*
X0392280Y0096694D01*
X0391979Y0097184D01*
X0391689Y0097682D01*
X0391412Y0098186D01*
X0391147Y0098697D01*
X0390895Y0099214D01*
X0390655Y0099738D01*
X0390427Y0100266D01*
X0390213Y0100800D01*
X0390011Y0101339D01*
X0389823Y0101883D01*
X0389647Y0102431D01*
X0389485Y0102984D01*
X0389336Y0103540D01*
X0389201Y0104099D01*
X0389079Y0104661D01*
X0388971Y0105227D01*
X0388876Y0105794D01*
X0388795Y0106364D01*
X0388728Y0106936D01*
X0388675Y0107509D01*
X0388635Y0108083D01*
X0388610Y0108658D01*
X0388598Y0109234D01*
X0388600Y0109809D01*
X0388598Y0110384D01*
X0388610Y0110960D01*
X0388635Y0111535D01*
X0388675Y0112109D01*
X0388728Y0112682D01*
X0388795Y0113254D01*
X0388876Y0113824D01*
X0388971Y0114391D01*
X0389079Y0114957D01*
X0389201Y0115519D01*
X0389336Y0116078D01*
X0389485Y0116634D01*
X0389647Y0117187D01*
X0389823Y0117735D01*
X0390011Y0118279D01*
X0390213Y0118818D01*
X0390427Y0119352D01*
X0390655Y0119880D01*
X0390895Y0120404D01*
X0391147Y0120921D01*
X0391412Y0121432D01*
X0391689Y0121936D01*
X0391979Y0122434D01*
X0392280Y0122924D01*
X0392593Y0123407D01*
X0392917Y0123882D01*
X0393253Y0124350D01*
X0393600Y0124809D01*
X0393728Y0124893D01*
X0393855Y0124980D01*
X0393979Y0125071D01*
X0394100Y0125165D01*
X0394220Y0125261D01*
X0394336Y0125361D01*
X0394451Y0125464D01*
X0394562Y0125570D01*
X0394671Y0125678D01*
X0394776Y0125790D01*
X0394879Y0125904D01*
X0394979Y0126021D01*
X0395076Y0126140D01*
X0395170Y0126261D01*
X0395261Y0126385D01*
X0395348Y0126512D01*
X0395432Y0126640D01*
X0395513Y0126771D01*
X0395590Y0126904D01*
X0395664Y0127038D01*
X0395735Y0127175D01*
X0395802Y0127313D01*
X0395865Y0127453D01*
X0395925Y0127594D01*
X0395981Y0127737D01*
X0396033Y0127882D01*
X0396082Y0128028D01*
X0396127Y0128175D01*
X0396168Y0128323D01*
X0396205Y0128472D01*
X0396239Y0128622D01*
X0396268Y0128772D01*
X0396294Y0128924D01*
X0396315Y0129076D01*
X0396333Y0129228D01*
X0396347Y0129381D01*
X0396357Y0129535D01*
X0396363Y0129688D01*
X0396365Y0129842D01*
X0396363Y0129995D01*
X0396357Y0130149D01*
X0396347Y0130302D01*
X0396333Y0130455D01*
X0396316Y0130608D01*
X0396294Y0130760D01*
X0396269Y0130911D01*
X0396239Y0131062D01*
X0396206Y0131212D01*
X0396169Y0131361D01*
X0396128Y0131509D01*
X0396083Y0131656D01*
X0396034Y0131802D01*
X0395982Y0131946D01*
X0395926Y0132089D01*
X0395866Y0132231D01*
X0395803Y0132371D01*
X0395736Y0132509D01*
X0395666Y0132646D01*
X0395592Y0132780D01*
X0395514Y0132913D01*
X0395434Y0133044D01*
X0395349Y0133172D01*
X0395262Y0133299D01*
X0395171Y0133423D01*
X0395078Y0133544D01*
X0394981Y0133664D01*
X0394881Y0133780D01*
X0394778Y0133894D01*
X0394672Y0134006D01*
X0394564Y0134114D01*
X0394452Y0134220D01*
X0394338Y0134323D01*
X0394222Y0134423D01*
X0394102Y0134520D01*
X0393981Y0134614D01*
X0393857Y0134704D01*
X0393730Y0134792D01*
X0393602Y0134876D01*
X0393471Y0134957D01*
X0393338Y0135034D01*
X0393204Y0135108D01*
X0393067Y0135178D01*
X0392929Y0135245D01*
X0392789Y0135309D01*
X0392647Y0135368D01*
X0392504Y0135424D01*
X0392360Y0135477D01*
X0392214Y0135525D01*
X0392067Y0135570D01*
X0391919Y0135611D01*
X0391770Y0135648D01*
X0391620Y0135682D01*
X0391470Y0135711D01*
X0391318Y0135737D01*
X0391166Y0135759D01*
X0391013Y0135776D01*
X0390860Y0135790D01*
X0390707Y0135800D01*
X0390554Y0135806D01*
X0390400Y0135808D01*
X0390400Y0135809D02*
X0366800Y0135809D01*
X0354850Y0123859D01*
D11*
X0202956Y0077100D02*
X0202958Y0077139D01*
X0202964Y0077178D01*
X0202974Y0077216D01*
X0202987Y0077253D01*
X0203004Y0077288D01*
X0203024Y0077322D01*
X0203048Y0077353D01*
X0203075Y0077382D01*
X0203104Y0077408D01*
X0203136Y0077431D01*
X0203170Y0077451D01*
X0203206Y0077467D01*
X0203243Y0077479D01*
X0203282Y0077488D01*
X0203321Y0077493D01*
X0203360Y0077494D01*
X0203399Y0077491D01*
X0203438Y0077484D01*
X0203475Y0077473D01*
X0203512Y0077459D01*
X0203547Y0077441D01*
X0203580Y0077420D01*
X0203611Y0077395D01*
X0203639Y0077368D01*
X0203664Y0077338D01*
X0203686Y0077305D01*
X0203705Y0077271D01*
X0203720Y0077235D01*
X0203732Y0077197D01*
X0203740Y0077159D01*
X0203744Y0077120D01*
X0203744Y0077080D01*
X0203740Y0077041D01*
X0203732Y0077003D01*
X0203720Y0076965D01*
X0203705Y0076929D01*
X0203686Y0076895D01*
X0203664Y0076862D01*
X0203639Y0076832D01*
X0203611Y0076805D01*
X0203580Y0076780D01*
X0203547Y0076759D01*
X0203512Y0076741D01*
X0203475Y0076727D01*
X0203438Y0076716D01*
X0203399Y0076709D01*
X0203360Y0076706D01*
X0203321Y0076707D01*
X0203282Y0076712D01*
X0203243Y0076721D01*
X0203206Y0076733D01*
X0203170Y0076749D01*
X0203136Y0076769D01*
X0203104Y0076792D01*
X0203075Y0076818D01*
X0203048Y0076847D01*
X0203024Y0076878D01*
X0203004Y0076912D01*
X0202987Y0076947D01*
X0202974Y0076984D01*
X0202964Y0077022D01*
X0202958Y0077061D01*
X0202956Y0077100D01*
M02*
