G75*
%MOIN*%
%OFA0B0*%
%FSLAX25Y25*%
%IPPOS*%
%LPD*%
%AMOC8*
5,1,8,0,0,1.08239X$1,22.5*
%
%ADD10C,0.00500*%
D10*
X0064603Y0099075D02*
X0088203Y0099075D01*
X0100153Y0111025D01*
X0100153Y0139125D01*
X0088203Y0151075D01*
X0064603Y0151075D01*
X0064603Y0151074D02*
X0064449Y0151072D01*
X0064296Y0151066D01*
X0064143Y0151056D01*
X0063990Y0151042D01*
X0063837Y0151025D01*
X0063685Y0151003D01*
X0063533Y0150977D01*
X0063383Y0150948D01*
X0063233Y0150914D01*
X0063084Y0150877D01*
X0062936Y0150836D01*
X0062789Y0150791D01*
X0062643Y0150743D01*
X0062499Y0150690D01*
X0062356Y0150634D01*
X0062214Y0150575D01*
X0062074Y0150511D01*
X0061936Y0150444D01*
X0061799Y0150374D01*
X0061665Y0150300D01*
X0061532Y0150223D01*
X0061401Y0150142D01*
X0061273Y0150058D01*
X0061146Y0149970D01*
X0061022Y0149880D01*
X0060901Y0149786D01*
X0060781Y0149689D01*
X0060665Y0149589D01*
X0060551Y0149486D01*
X0060439Y0149380D01*
X0060331Y0149272D01*
X0060225Y0149160D01*
X0060122Y0149046D01*
X0060022Y0148930D01*
X0059925Y0148810D01*
X0059832Y0148689D01*
X0059741Y0148565D01*
X0059654Y0148438D01*
X0059569Y0148310D01*
X0059489Y0148179D01*
X0059411Y0148046D01*
X0059337Y0147912D01*
X0059267Y0147775D01*
X0059200Y0147637D01*
X0059137Y0147497D01*
X0059077Y0147355D01*
X0059021Y0147212D01*
X0058969Y0147068D01*
X0058920Y0146922D01*
X0058875Y0146775D01*
X0058834Y0146627D01*
X0058797Y0146478D01*
X0058764Y0146328D01*
X0058734Y0146177D01*
X0058709Y0146026D01*
X0058687Y0145874D01*
X0058670Y0145721D01*
X0058656Y0145568D01*
X0058646Y0145415D01*
X0058640Y0145261D01*
X0058638Y0145108D01*
X0058640Y0144954D01*
X0058646Y0144801D01*
X0058656Y0144647D01*
X0058670Y0144494D01*
X0058688Y0144342D01*
X0058709Y0144190D01*
X0058735Y0144038D01*
X0058764Y0143888D01*
X0058798Y0143738D01*
X0058835Y0143589D01*
X0058876Y0143441D01*
X0058921Y0143294D01*
X0058970Y0143148D01*
X0059022Y0143003D01*
X0059078Y0142860D01*
X0059138Y0142719D01*
X0059201Y0142579D01*
X0059268Y0142441D01*
X0059339Y0142304D01*
X0059413Y0142170D01*
X0059490Y0142037D01*
X0059571Y0141906D01*
X0059655Y0141778D01*
X0059742Y0141651D01*
X0059833Y0141527D01*
X0059927Y0141406D01*
X0060024Y0141287D01*
X0060124Y0141170D01*
X0060227Y0141056D01*
X0060332Y0140944D01*
X0060441Y0140836D01*
X0060552Y0140730D01*
X0060667Y0140627D01*
X0060783Y0140527D01*
X0060903Y0140431D01*
X0061024Y0140337D01*
X0061148Y0140246D01*
X0061275Y0140159D01*
X0061403Y0140075D01*
X0061750Y0139616D01*
X0062086Y0139148D01*
X0062410Y0138673D01*
X0062723Y0138190D01*
X0063024Y0137700D01*
X0063314Y0137202D01*
X0063591Y0136698D01*
X0063856Y0136187D01*
X0064108Y0135670D01*
X0064348Y0135146D01*
X0064576Y0134618D01*
X0064790Y0134084D01*
X0064992Y0133545D01*
X0065180Y0133001D01*
X0065356Y0132453D01*
X0065518Y0131900D01*
X0065667Y0131344D01*
X0065802Y0130785D01*
X0065924Y0130223D01*
X0066032Y0129657D01*
X0066127Y0129090D01*
X0066208Y0128520D01*
X0066275Y0127948D01*
X0066328Y0127375D01*
X0066368Y0126801D01*
X0066393Y0126226D01*
X0066405Y0125650D01*
X0066403Y0125075D01*
X0061403Y0110074D02*
X0061275Y0109990D01*
X0061148Y0109903D01*
X0061024Y0109812D01*
X0060903Y0109718D01*
X0060783Y0109622D01*
X0060667Y0109522D01*
X0060552Y0109419D01*
X0060441Y0109313D01*
X0060332Y0109205D01*
X0060227Y0109093D01*
X0060124Y0108979D01*
X0060024Y0108862D01*
X0059927Y0108743D01*
X0059833Y0108622D01*
X0059742Y0108498D01*
X0059655Y0108371D01*
X0059571Y0108243D01*
X0059490Y0108112D01*
X0059413Y0107979D01*
X0059339Y0107845D01*
X0059268Y0107708D01*
X0059201Y0107570D01*
X0059138Y0107430D01*
X0059078Y0107289D01*
X0059022Y0107146D01*
X0058970Y0107001D01*
X0058921Y0106855D01*
X0058876Y0106708D01*
X0058835Y0106560D01*
X0058798Y0106411D01*
X0058764Y0106261D01*
X0058735Y0106111D01*
X0058709Y0105959D01*
X0058688Y0105807D01*
X0058670Y0105655D01*
X0058656Y0105502D01*
X0058646Y0105348D01*
X0058640Y0105195D01*
X0058638Y0105041D01*
X0058640Y0104888D01*
X0058646Y0104734D01*
X0058656Y0104581D01*
X0058670Y0104428D01*
X0058687Y0104275D01*
X0058709Y0104123D01*
X0058734Y0103972D01*
X0058764Y0103821D01*
X0058797Y0103671D01*
X0058834Y0103522D01*
X0058875Y0103374D01*
X0058920Y0103227D01*
X0058969Y0103081D01*
X0059021Y0102937D01*
X0059077Y0102794D01*
X0059137Y0102652D01*
X0059200Y0102512D01*
X0059267Y0102374D01*
X0059337Y0102237D01*
X0059411Y0102103D01*
X0059489Y0101970D01*
X0059569Y0101839D01*
X0059654Y0101711D01*
X0059741Y0101584D01*
X0059832Y0101460D01*
X0059925Y0101339D01*
X0060022Y0101219D01*
X0060122Y0101103D01*
X0060225Y0100989D01*
X0060331Y0100877D01*
X0060439Y0100769D01*
X0060551Y0100663D01*
X0060665Y0100560D01*
X0060781Y0100460D01*
X0060901Y0100363D01*
X0061022Y0100269D01*
X0061146Y0100179D01*
X0061273Y0100091D01*
X0061401Y0100007D01*
X0061532Y0099926D01*
X0061665Y0099849D01*
X0061799Y0099775D01*
X0061936Y0099705D01*
X0062074Y0099638D01*
X0062214Y0099574D01*
X0062356Y0099515D01*
X0062499Y0099459D01*
X0062643Y0099406D01*
X0062789Y0099358D01*
X0062936Y0099313D01*
X0063084Y0099272D01*
X0063233Y0099235D01*
X0063383Y0099201D01*
X0063533Y0099172D01*
X0063685Y0099146D01*
X0063837Y0099124D01*
X0063990Y0099107D01*
X0064143Y0099093D01*
X0064296Y0099083D01*
X0064449Y0099077D01*
X0064603Y0099075D01*
X0061403Y0110075D02*
X0061750Y0110534D01*
X0062086Y0111002D01*
X0062410Y0111477D01*
X0062723Y0111960D01*
X0063024Y0112450D01*
X0063314Y0112948D01*
X0063591Y0113452D01*
X0063856Y0113963D01*
X0064108Y0114480D01*
X0064348Y0115004D01*
X0064576Y0115532D01*
X0064790Y0116066D01*
X0064992Y0116605D01*
X0065180Y0117149D01*
X0065356Y0117697D01*
X0065518Y0118250D01*
X0065667Y0118806D01*
X0065802Y0119365D01*
X0065924Y0119927D01*
X0066032Y0120493D01*
X0066127Y0121060D01*
X0066208Y0121630D01*
X0066275Y0122202D01*
X0066328Y0122775D01*
X0066368Y0123349D01*
X0066393Y0123924D01*
X0066405Y0124500D01*
X0066403Y0125075D01*
X0253588Y0219406D02*
X0263785Y0219406D01*
X0263785Y0227594D01*
X0253588Y0227594D01*
X0253588Y0219406D01*
X0255694Y0222004D02*
X0255694Y0224996D01*
X0261679Y0224996D01*
X0261679Y0222004D01*
X0255694Y0222004D01*
M02*
