%
M48
M72
T01C0.01378
T02C0.01969
T03C0.02362
T04C0.03543
T05C0.03937
T06C0.04000
T07C0.04921
T08C0.05500
T09C0.06299
T10C0.06900
T11C0.11811
T12C0.12598
T13C0.12992
%
T01
X174828Y130980
X184671Y132949
X208293Y154602
X209474Y163657
X211443Y175469
X206324Y178224
X211443Y180980
X224828Y187280
X227978Y183343
X231128Y191217
X234277Y195547
X237427Y199484
X249631Y206571
X253569Y209720
X246088Y214051
X265773Y208933
X296876Y219563
X300813Y225469
X304750Y239248
X309080Y243972
X316561Y251059
X298844Y260902
X300025Y272713
X304750Y274681
X296876Y278618
X300813Y302240
X296876Y306177
X273254Y317988
X269317Y321925
X265380Y317988
X259474Y317988
X259474Y312083
X255537Y308146
X251600Y304209
X247663Y300272
X243726Y296335
X239789Y292398
X235852Y288461
X214198Y272713
X206324Y261689
X202387Y264839
X202387Y258539
X202387Y253421
X206718Y255783
X206718Y250272
X202387Y248303
X202387Y243185
X208293Y233343
X211443Y228618
X215380Y225469
X205143Y223106
X200025Y219957
X183687Y205783
X177978Y200665
X179553Y195154
X178765Y190429
X174828Y184130
X170301Y187476
X169513Y192594
X139789Y172713
X185065Y246728
X131521Y288461
X123647Y292398
X119710Y296335
X119710Y304209
X98057Y313264
X94120Y296335
X98057Y286492
X92545Y276256
X77584Y313264
X77584Y323106
X98057Y331768
X97269Y341217
X98647Y348894
X91757Y364445
X99041Y366610
X77584Y364445
X77584Y374287
X76600Y384327
X131521Y379012
X131521Y367201
X135458Y361295
X140576Y354209
X141364Y347516
X155143Y349484
X151206Y331768
X141364Y329406
X157112Y321925
X161049Y325862
X139395Y308146
X145301Y304209
X214198Y339642
X227978Y384917
X245694Y382949
X271285Y382949
X318529Y337673
X314592Y331768
X267348Y262870
X267348Y251059
X319317Y224681
X323647Y229406
X247663Y170350
X239789Y158539
X229946Y154602
X338214Y121138
X344120Y125075
X147269Y369169
X166561Y392398
X165380Y401059
T02
X161443Y413657
X141757Y400665
X126009Y428224
X125616Y442004
X88214Y442004
X58687Y404602
X101994Y398697
X58687Y365232
X82702Y359327
X58687Y325862
X82702Y308146
X58687Y286492
X58687Y249091
X86246Y229799
X86246Y223894
X96088Y213657
X58687Y207752
X94513Y175760
X58687Y168382
X58687Y129012
X70498Y112870
X96088Y107358
X58687Y89642
X88214Y60114
X127584Y60114
X159080Y60114
X164986Y75862
X166954Y95154
X189789Y95154
X206324Y60114
X245694Y60114
X252025Y93185
X239789Y98697
X233883Y125075
X233883Y146728
X253962Y156571
X257506Y180980
X257506Y190823
X274435Y186886
X280734Y186886
X287427Y187673
X290183Y174681
X283096Y175075
X323254Y158146
X345301Y168382
X351994Y151453
X345301Y146728
X351994Y125075
X385458Y123106
X413017Y119169
X440576Y129012
X440576Y99484
X403175Y60114
X363805Y60114
X324435Y60114
X285065Y60114
X271710Y93185
X285883Y97516
X304781Y101453
X309506Y93185
X277616Y118382
X280765Y123500
X287852Y123500
X351994Y192791
X345301Y229406
X351994Y234130
X323647Y237280
X344907Y271138
X350813Y275862
X336246Y288461
X336246Y294366
X336246Y300272
X330340Y300272
X330340Y294366
X330340Y288461
X371679Y308146
X389395Y335705
X413017Y319957
X413017Y314051
X420891Y314051
X420891Y319957
X428765Y319957
X428765Y314051
X440576Y325862
X440576Y286492
X440576Y247122
X440576Y207752
X440576Y168382
X277191Y229406
X278765Y235311
X271285Y231374
X259868Y231374
X253569Y231374
X240183Y235311
X213017Y215626
X184671Y221531
X178765Y221531
X172860Y221531
X172860Y227437
X178765Y227437
X178765Y233343
X172860Y233343
X184671Y233343
X184671Y227437
X190576Y243579
X179553Y264445
X161836Y248697
X153962Y251059
X153962Y243185
X153962Y231374
X153962Y223500
X161443Y220744
X163411Y225862
X163017Y215232
X153962Y211689
X153962Y203815
X180734Y210902
X183883Y187280
X190183Y187280
X197663Y187280
X203962Y187280
X237820Y258933
X244120Y273894
X277191Y272713
X279553Y258933
X277191Y308146
X283096Y338067
X259868Y363264
X241757Y372319
X249238Y344760
X228372Y344760
X156718Y359720
X148844Y355783
X130340Y338461
X147269Y317594
X181915Y413657
X166954Y442004
X206324Y442004
X245694Y442004
X285065Y442004
X324435Y442004
X363805Y442004
X386246Y416807
X403175Y442004
X440576Y404602
X440576Y365232
X371679Y385705
X350025Y377043
X344120Y377043
X338214Y377043
X338214Y371138
X344120Y371138
X350025Y371138
T03
X194513Y214445
X188608Y211689
T04
X121242Y209940
X121242Y219940
X121242Y229940
X121242Y239940
X111242Y234940
X111242Y224940
X111242Y214940
X111242Y244940
X72942Y242344
X66956Y252337
X66958Y212541
X72940Y202534
T05
X227820Y404917
X238726Y404917
X249631Y404917
X260537Y404917
X271443Y404917
X265990Y416098
X255084Y416098
X244179Y416098
X233273Y416098
T06
X72466Y287555
X72466Y277555
X123647Y173697
X123647Y163697
X123647Y153697
X123647Y143697
X123647Y133697
X123647Y123697
X128490Y73894
X138490Y73894
X110931Y73894
X100931Y73894
X207978Y73894
X217978Y73894
X227978Y73894
X237978Y73894
X247978Y73894
X265096Y73894
X275096Y73894
X285096Y73894
X295096Y73894
X305096Y73894
X323214Y73894
X333214Y73894
X343214Y73894
X353214Y73894
X372427Y73894
X382427Y73894
X392427Y73894
X402427Y73894
X426797Y132791
X426797Y142791
X426797Y152791
X426797Y174130
X426797Y184130
X426797Y194130
X426797Y215469
X426797Y225469
X426797Y235469
X426797Y256807
X426797Y266807
X426797Y276807
T07
X194218Y60114
X166069Y60114
T08
X418608Y380823
X418608Y400823
T09
X98249Y258444
X98249Y196436
T10
X85784Y300644
X85784Y340844
X85784Y351943
X85784Y402143
X104059Y415694
X154259Y415694
T11
X68529Y69957
X430734Y69957
X430734Y432161
X68529Y432161
T12
X200439Y410508
X298824Y410508
T13
X86242Y249940
X86242Y204940
M30
