G75*
%MOIN*%
%OFA0B0*%
%FSLAX25Y25*%
%IPPOS*%
%LPD*%
%AMOC8*
5,1,8,0,0,1.08239X$1,22.5*
%
%ADD10C,0.06000*%
%ADD11R,0.04331X0.03937*%
%ADD12R,0.04528X0.05709*%
%ADD13R,0.01575X0.05512*%
%ADD14R,0.06890X0.07480*%
%ADD15C,0.07480*%
%ADD16R,0.03150X0.03150*%
%ADD17R,0.03937X0.04331*%
%ADD18R,0.07900X0.04700*%
%ADD19C,0.06900*%
%ADD20R,0.04700X0.07900*%
%ADD21R,0.01400X0.05200*%
%ADD22R,0.01378X0.03346*%
%ADD23R,0.05000X0.02200*%
%ADD24C,0.08250*%
%ADD25R,0.12402X0.07008*%
%ADD26C,0.05000*%
%ADD27C,0.23622*%
%ADD28R,0.04724X0.07087*%
%ADD29C,0.03937*%
%ADD30C,0.05315*%
%ADD31C,0.09449*%
%ADD32C,0.12992*%
%ADD33R,0.01200X0.03200*%
%ADD34R,0.03200X0.01200*%
%ADD35R,0.16929X0.16929*%
%ADD36R,0.02559X0.03543*%
%ADD37R,0.02200X0.07800*%
%ADD38C,0.05906*%
%ADD39C,0.18898*%
%ADD40R,0.09400X0.06500*%
%ADD41R,0.09843X0.08661*%
%ADD42R,0.21654X0.08465*%
%ADD43R,0.05118X0.05906*%
%ADD44R,0.01100X0.06800*%
%ADD45R,0.06800X0.01100*%
%ADD46R,0.02200X0.08600*%
%ADD47R,0.03937X0.07087*%
%ADD48R,0.05512X0.06299*%
%ADD49R,0.12598X0.05000*%
%ADD50R,0.02165X0.04724*%
%ADD51R,0.03100X0.03500*%
%ADD52C,0.03543*%
D10*
X0100931Y0070894D02*
X0100931Y0076894D01*
X0110931Y0076894D02*
X0110931Y0070894D01*
X0128490Y0070894D02*
X0128490Y0076894D01*
X0138490Y0076894D02*
X0138490Y0070894D01*
X0126647Y0123697D02*
X0120647Y0123697D01*
X0120647Y0133697D02*
X0126647Y0133697D01*
X0126647Y0143697D02*
X0120647Y0143697D01*
X0120647Y0153697D02*
X0126647Y0153697D01*
X0126647Y0163697D02*
X0120647Y0163697D01*
X0120647Y0173697D02*
X0126647Y0173697D01*
X0207978Y0076894D02*
X0207978Y0070894D01*
X0217978Y0070894D02*
X0217978Y0076894D01*
X0227978Y0076894D02*
X0227978Y0070894D01*
X0237978Y0070894D02*
X0237978Y0076894D01*
X0247978Y0076894D02*
X0247978Y0070894D01*
X0265096Y0070894D02*
X0265096Y0076894D01*
X0275096Y0076894D02*
X0275096Y0070894D01*
X0285096Y0070894D02*
X0285096Y0076894D01*
X0295096Y0076894D02*
X0295096Y0070894D01*
X0305096Y0070894D02*
X0305096Y0076894D01*
X0323214Y0076894D02*
X0323214Y0070894D01*
X0333214Y0070894D02*
X0333214Y0076894D01*
X0343214Y0076894D02*
X0343214Y0070894D01*
X0353214Y0070894D02*
X0353214Y0076894D01*
X0372427Y0076894D02*
X0372427Y0070894D01*
X0382427Y0070894D02*
X0382427Y0076894D01*
X0392427Y0076894D02*
X0392427Y0070894D01*
X0402427Y0070894D02*
X0402427Y0076894D01*
X0423797Y0132791D02*
X0429797Y0132791D01*
X0429797Y0142791D02*
X0423797Y0142791D01*
X0423797Y0152791D02*
X0429797Y0152791D01*
X0429797Y0174130D02*
X0423797Y0174130D01*
X0423797Y0184130D02*
X0429797Y0184130D01*
X0429797Y0194130D02*
X0423797Y0194130D01*
X0423797Y0215469D02*
X0429797Y0215469D01*
X0429797Y0225469D02*
X0423797Y0225469D01*
X0423797Y0235469D02*
X0429797Y0235469D01*
X0429797Y0256807D02*
X0423797Y0256807D01*
X0423797Y0266807D02*
X0429797Y0266807D01*
X0429797Y0276807D02*
X0423797Y0276807D01*
X0075466Y0277555D02*
X0069466Y0277555D01*
X0069466Y0287555D02*
X0075466Y0287555D01*
D11*
X0117151Y0330193D03*
X0123844Y0330193D03*
X0123844Y0338854D03*
X0117151Y0338854D03*
X0117151Y0348894D03*
X0123844Y0348894D03*
X0123844Y0357752D03*
X0117151Y0357752D03*
X0117151Y0366610D03*
X0123844Y0366610D03*
X0123844Y0376650D03*
X0117151Y0376650D03*
X0130734Y0390232D03*
X0130734Y0396925D03*
X0233883Y0332358D03*
X0233883Y0325665D03*
X0243135Y0325665D03*
X0243135Y0332358D03*
X0289002Y0338264D03*
X0289002Y0344957D03*
X0263411Y0383539D03*
X0263411Y0390232D03*
X0251600Y0390232D03*
X0251600Y0383539D03*
X0356521Y0353421D03*
X0363214Y0353421D03*
X0389986Y0373106D03*
X0396679Y0373106D03*
X0371088Y0379012D03*
X0364395Y0379012D03*
X0403175Y0337083D03*
X0403175Y0330390D03*
X0396679Y0298303D03*
X0389986Y0298303D03*
X0371088Y0302240D03*
X0364395Y0302240D03*
X0357899Y0276059D03*
X0357899Y0269366D03*
X0337624Y0256965D03*
X0330931Y0256965D03*
X0357899Y0234720D03*
X0357899Y0228028D03*
X0337624Y0215626D03*
X0330931Y0215626D03*
X0357899Y0193382D03*
X0357899Y0186689D03*
X0337624Y0182161D03*
X0330931Y0182161D03*
X0357899Y0152043D03*
X0357899Y0145350D03*
X0337624Y0132949D03*
X0330931Y0132949D03*
X0369710Y0116610D03*
X0369710Y0109917D03*
X0385458Y0109917D03*
X0385458Y0116610D03*
X0399238Y0116610D03*
X0399238Y0109917D03*
X0392545Y0092988D03*
X0392545Y0086295D03*
X0343332Y0086295D03*
X0343332Y0092988D03*
X0302813Y0092988D03*
X0302813Y0086295D03*
X0294939Y0086295D03*
X0294939Y0092988D03*
X0285096Y0092988D03*
X0285096Y0086295D03*
X0277616Y0086295D03*
X0277616Y0092988D03*
X0265017Y0092988D03*
X0265017Y0086295D03*
X0257537Y0086295D03*
X0257537Y0092988D03*
X0243332Y0092988D03*
X0237033Y0092988D03*
X0237033Y0086295D03*
X0243332Y0086295D03*
X0226797Y0085902D03*
X0226797Y0092594D03*
X0218529Y0104406D03*
X0218529Y0111098D03*
X0189789Y0089051D03*
X0189789Y0082358D03*
X0182309Y0082358D03*
X0182309Y0089051D03*
X0174828Y0089051D03*
X0174828Y0082358D03*
X0166954Y0082358D03*
X0166954Y0089051D03*
X0138608Y0092201D03*
X0138608Y0085508D03*
X0128372Y0085508D03*
X0128372Y0092201D03*
X0131718Y0099878D03*
X0138411Y0099878D03*
X0111246Y0099484D03*
X0104553Y0099484D03*
X0100813Y0092201D03*
X0100813Y0085508D03*
X0111049Y0085508D03*
X0111049Y0092201D03*
X0141954Y0203815D03*
X0148647Y0203815D03*
X0161049Y0204406D03*
X0161049Y0211098D03*
X0148647Y0251059D03*
X0141954Y0251059D03*
X0290183Y0168972D03*
X0290183Y0162280D03*
X0356521Y0432161D03*
X0363214Y0432161D03*
D12*
X0191167Y0068894D03*
X0169513Y0068894D03*
D13*
X0175025Y0070547D03*
X0177584Y0070547D03*
X0180143Y0070547D03*
X0182702Y0070547D03*
X0185261Y0070547D03*
D14*
X0184572Y0060114D03*
X0175714Y0060114D03*
D15*
X0166069Y0060114D03*
X0194218Y0060114D03*
D16*
X0357899Y0131965D03*
X0357899Y0137870D03*
X0357899Y0173303D03*
X0357899Y0179209D03*
X0357899Y0214642D03*
X0357899Y0220547D03*
X0357899Y0255980D03*
X0357899Y0261886D03*
X0403175Y0344563D03*
X0403175Y0350469D03*
X0243135Y0344760D03*
X0243135Y0338854D03*
X0233883Y0339051D03*
X0233883Y0344957D03*
X0369710Y0104406D03*
X0369710Y0098500D03*
X0385458Y0098500D03*
X0385458Y0104406D03*
X0399238Y0104406D03*
X0399238Y0098500D03*
D17*
X0351403Y0132949D03*
X0344710Y0132949D03*
X0344710Y0140823D03*
X0351403Y0140823D03*
X0351403Y0174287D03*
X0344710Y0174287D03*
X0344710Y0182161D03*
X0351403Y0182161D03*
X0351403Y0215626D03*
X0344710Y0215626D03*
X0344710Y0223500D03*
X0351403Y0223500D03*
X0351403Y0256965D03*
X0344710Y0256965D03*
X0344710Y0264839D03*
X0351403Y0264839D03*
X0364395Y0288461D03*
X0371088Y0288461D03*
X0389986Y0288461D03*
X0396679Y0288461D03*
X0396679Y0308146D03*
X0389986Y0308146D03*
X0408883Y0266807D03*
X0415576Y0266807D03*
X0414789Y0225469D03*
X0408096Y0225469D03*
X0408096Y0184130D03*
X0414789Y0184130D03*
X0414789Y0142791D03*
X0408096Y0142791D03*
X0287427Y0192594D03*
X0287427Y0199287D03*
X0267742Y0198106D03*
X0267742Y0191413D03*
X0270694Y0175075D03*
X0262033Y0175075D03*
X0255340Y0175075D03*
X0243332Y0191413D03*
X0243332Y0198106D03*
X0277387Y0175075D03*
X0197663Y0194169D03*
X0197663Y0200862D03*
X0148647Y0211689D03*
X0141954Y0211689D03*
X0141954Y0223500D03*
X0148647Y0223500D03*
X0148647Y0231374D03*
X0141954Y0231374D03*
X0141954Y0243185D03*
X0148647Y0243185D03*
X0109277Y0276256D03*
X0102584Y0276256D03*
X0102584Y0286492D03*
X0109277Y0286492D03*
X0109277Y0296335D03*
X0102584Y0296335D03*
X0102584Y0306177D03*
X0109277Y0306177D03*
X0109277Y0330193D03*
X0102584Y0330193D03*
X0102584Y0338854D03*
X0109277Y0338854D03*
X0109277Y0348894D03*
X0102584Y0348894D03*
X0102584Y0357752D03*
X0109277Y0357752D03*
X0109277Y0366610D03*
X0102584Y0366610D03*
X0102584Y0376650D03*
X0109277Y0376650D03*
X0108883Y0393185D03*
X0102191Y0393185D03*
X0147269Y0393382D03*
X0147269Y0400075D03*
X0161639Y0407949D03*
X0168332Y0407949D03*
X0175419Y0407752D03*
X0182112Y0407752D03*
X0156718Y0372122D03*
X0156718Y0365429D03*
X0188805Y0344366D03*
X0195498Y0344366D03*
X0202978Y0344366D03*
X0209671Y0344366D03*
X0273254Y0371728D03*
X0273254Y0378421D03*
X0297466Y0345547D03*
X0304159Y0345547D03*
X0304159Y0337673D03*
X0297466Y0337673D03*
X0368332Y0363264D03*
X0375025Y0363264D03*
X0389986Y0363264D03*
X0396679Y0363264D03*
X0396679Y0382949D03*
X0389986Y0382949D03*
D18*
X0090084Y0379543D03*
X0090084Y0369543D03*
X0090084Y0359543D03*
X0066484Y0364543D03*
X0066484Y0374543D03*
X0066484Y0384543D03*
X0066484Y0394543D03*
X0090084Y0389543D03*
X0066484Y0333244D03*
X0066484Y0323244D03*
X0066484Y0313244D03*
X0090084Y0308244D03*
X0090084Y0318244D03*
X0090084Y0328244D03*
D19*
X0085784Y0340844D03*
X0085784Y0351943D03*
X0085784Y0402143D03*
X0104059Y0415694D03*
X0154259Y0415694D03*
X0085784Y0300644D03*
D20*
X0111659Y0411394D03*
X0121659Y0411394D03*
X0131659Y0411394D03*
X0141659Y0411394D03*
X0136659Y0434994D03*
X0126659Y0434994D03*
X0116659Y0434994D03*
X0146659Y0434994D03*
D21*
X0147132Y0376369D03*
X0144632Y0376369D03*
X0142032Y0376369D03*
X0139532Y0376369D03*
X0139532Y0361969D03*
X0142032Y0361969D03*
X0144632Y0361969D03*
X0147132Y0361969D03*
X0145951Y0338180D03*
X0143451Y0338180D03*
X0140851Y0338180D03*
X0138351Y0338180D03*
X0138351Y0323780D03*
X0140851Y0323780D03*
X0143451Y0323780D03*
X0145951Y0323780D03*
X0282871Y0117708D03*
X0285371Y0117708D03*
X0287971Y0117708D03*
X0290471Y0117708D03*
X0290471Y0103308D03*
X0287971Y0103308D03*
X0285371Y0103308D03*
X0282871Y0103308D03*
D22*
X0159671Y0392398D03*
X0157112Y0392398D03*
X0154553Y0392398D03*
X0154553Y0401059D03*
X0157112Y0401059D03*
X0159671Y0401059D03*
D23*
X0329177Y0240980D03*
X0329177Y0237280D03*
X0329177Y0233580D03*
X0339377Y0233580D03*
X0339377Y0237280D03*
X0339377Y0240980D03*
X0338983Y0161846D03*
X0338983Y0158146D03*
X0338983Y0154446D03*
X0328783Y0154446D03*
X0328783Y0158146D03*
X0328783Y0161846D03*
D24*
X0414483Y0380823D02*
X0422733Y0380823D01*
X0422733Y0400823D02*
X0414483Y0400823D01*
D25*
X0420891Y0348402D03*
X0420891Y0334819D03*
D26*
X0420891Y0306177D03*
X0351994Y0290429D03*
X0353962Y0365232D03*
X0289002Y0148697D03*
X0281128Y0148697D03*
X0409868Y0102240D03*
D27*
X0068529Y0069957D03*
X0430734Y0069957D03*
X0430734Y0432161D03*
X0068529Y0432161D03*
D28*
X0368529Y0276059D03*
X0377191Y0276059D03*
X0385852Y0276059D03*
X0398450Y0276059D03*
X0398450Y0253618D03*
X0385852Y0253618D03*
X0377191Y0253618D03*
X0368529Y0253618D03*
X0368529Y0236689D03*
X0377191Y0236689D03*
X0385852Y0236689D03*
X0398450Y0236689D03*
X0398450Y0214248D03*
X0385852Y0214248D03*
X0377191Y0214248D03*
X0368529Y0214248D03*
X0368529Y0195350D03*
X0377191Y0195350D03*
X0385852Y0195350D03*
X0398450Y0195350D03*
X0398450Y0172909D03*
X0385852Y0172909D03*
X0377191Y0172909D03*
X0368529Y0172909D03*
X0368529Y0154012D03*
X0377191Y0154012D03*
X0385852Y0154012D03*
X0398450Y0154012D03*
X0398450Y0131571D03*
X0385852Y0131571D03*
X0377191Y0131571D03*
X0368529Y0131571D03*
D29*
X0428765Y0085705D03*
X0064592Y0087673D03*
X0076403Y0418382D03*
X0411049Y0432161D03*
D30*
X0121242Y0239940D03*
X0121242Y0229940D03*
X0121242Y0219940D03*
X0121242Y0209940D03*
X0111242Y0214940D03*
X0111242Y0224940D03*
X0111242Y0234940D03*
X0111242Y0244940D03*
X0072942Y0242344D03*
X0066956Y0252337D03*
X0066958Y0212541D03*
X0072940Y0202534D03*
D31*
X0098249Y0196436D03*
X0098249Y0258444D03*
D32*
X0086242Y0249940D03*
X0086242Y0204940D03*
D33*
X0169907Y0215837D03*
X0171876Y0215837D03*
X0173844Y0215837D03*
X0175813Y0215837D03*
X0177781Y0215837D03*
X0179750Y0215837D03*
X0181718Y0215837D03*
X0183687Y0215837D03*
X0185655Y0215837D03*
X0187624Y0215837D03*
X0187624Y0239037D03*
X0185655Y0239037D03*
X0183687Y0239037D03*
X0181718Y0239037D03*
X0179750Y0239037D03*
X0177781Y0239037D03*
X0175813Y0239037D03*
X0173844Y0239037D03*
X0171876Y0239037D03*
X0169907Y0239037D03*
X0375653Y0314257D03*
X0377553Y0314257D03*
X0379553Y0314257D03*
X0381553Y0314257D03*
X0383453Y0314257D03*
X0383453Y0325657D03*
X0381553Y0325657D03*
X0379553Y0325657D03*
X0377553Y0325657D03*
X0375653Y0325657D03*
X0375653Y0391028D03*
X0377553Y0391028D03*
X0379553Y0391028D03*
X0381553Y0391028D03*
X0383453Y0391028D03*
X0383453Y0402428D03*
X0381553Y0402428D03*
X0379553Y0402428D03*
X0377553Y0402428D03*
X0375653Y0402428D03*
D34*
X0190365Y0236295D03*
X0190365Y0234327D03*
X0190365Y0232358D03*
X0190365Y0230390D03*
X0190365Y0228421D03*
X0190365Y0226453D03*
X0190365Y0224484D03*
X0190365Y0222516D03*
X0190365Y0220547D03*
X0190365Y0218579D03*
X0167165Y0218579D03*
X0167165Y0220547D03*
X0167165Y0222516D03*
X0167165Y0224484D03*
X0167165Y0226453D03*
X0167165Y0228421D03*
X0167165Y0230390D03*
X0167165Y0232358D03*
X0167165Y0234327D03*
X0167165Y0236295D03*
D35*
X0178765Y0227437D03*
D36*
X0183785Y0201256D03*
X0190281Y0201256D03*
X0190281Y0192988D03*
X0183785Y0192988D03*
X0274336Y0191807D03*
X0280832Y0191807D03*
X0280832Y0200075D03*
X0274336Y0200075D03*
D37*
X0265006Y0353964D03*
X0260006Y0353964D03*
X0255006Y0353964D03*
X0250006Y0353964D03*
X0250006Y0372564D03*
X0255006Y0372564D03*
X0260006Y0372564D03*
X0265006Y0372564D03*
D38*
X0260537Y0404917D03*
X0249631Y0404917D03*
X0238726Y0404917D03*
X0227820Y0404917D03*
X0233273Y0416098D03*
X0244179Y0416098D03*
X0255084Y0416098D03*
X0265990Y0416098D03*
X0271443Y0404917D03*
D39*
X0298824Y0410508D03*
X0200439Y0410508D03*
D40*
X0379553Y0396728D03*
X0379553Y0319957D03*
D41*
X0369120Y0341610D03*
X0350616Y0341610D03*
X0350616Y0418382D03*
X0369120Y0418382D03*
D42*
X0336214Y0404307D03*
X0336214Y0389150D03*
X0336214Y0325567D03*
X0336214Y0310409D03*
D43*
X0354553Y0312083D03*
X0362033Y0312083D03*
X0362033Y0388854D03*
X0354553Y0388854D03*
D44*
X0283096Y0281059D03*
X0281128Y0281059D03*
X0279159Y0281059D03*
X0277191Y0281059D03*
X0275222Y0281059D03*
X0273254Y0281059D03*
X0271285Y0281059D03*
X0269317Y0281059D03*
X0267348Y0281059D03*
X0265380Y0281059D03*
X0263411Y0281059D03*
X0261443Y0281059D03*
X0259474Y0281059D03*
X0257506Y0281059D03*
X0255537Y0281059D03*
X0253569Y0281059D03*
X0251600Y0281059D03*
X0249631Y0281059D03*
X0247663Y0281059D03*
X0245694Y0281059D03*
X0243726Y0281059D03*
X0241757Y0281059D03*
X0239789Y0281059D03*
X0237820Y0281059D03*
X0235852Y0281059D03*
X0235852Y0221059D03*
X0237820Y0221059D03*
X0239789Y0221059D03*
X0241757Y0221059D03*
X0243726Y0221059D03*
X0245694Y0221059D03*
X0247663Y0221059D03*
X0249631Y0221059D03*
X0251600Y0221059D03*
X0253569Y0221059D03*
X0255537Y0221059D03*
X0257506Y0221059D03*
X0259474Y0221059D03*
X0261443Y0221059D03*
X0263411Y0221059D03*
X0265380Y0221059D03*
X0267348Y0221059D03*
X0269317Y0221059D03*
X0271285Y0221059D03*
X0273254Y0221059D03*
X0275222Y0221059D03*
X0277191Y0221059D03*
X0279159Y0221059D03*
X0281128Y0221059D03*
X0283096Y0221059D03*
D45*
X0289474Y0227437D03*
X0289474Y0229406D03*
X0289474Y0231374D03*
X0289474Y0233343D03*
X0289474Y0235311D03*
X0289474Y0237280D03*
X0289474Y0239248D03*
X0289474Y0241217D03*
X0289474Y0243185D03*
X0289474Y0245154D03*
X0289474Y0247122D03*
X0289474Y0249091D03*
X0289474Y0251059D03*
X0289474Y0253028D03*
X0289474Y0254996D03*
X0289474Y0256965D03*
X0289474Y0258933D03*
X0289474Y0260902D03*
X0289474Y0262870D03*
X0289474Y0264839D03*
X0289474Y0266807D03*
X0289474Y0268776D03*
X0289474Y0270744D03*
X0289474Y0272713D03*
X0289474Y0274681D03*
X0229474Y0274681D03*
X0229474Y0272713D03*
X0229474Y0270744D03*
X0229474Y0268776D03*
X0229474Y0266807D03*
X0229474Y0264839D03*
X0229474Y0262870D03*
X0229474Y0260902D03*
X0229474Y0258933D03*
X0229474Y0256965D03*
X0229474Y0254996D03*
X0229474Y0253028D03*
X0229474Y0251059D03*
X0229474Y0249091D03*
X0229474Y0247122D03*
X0229474Y0245154D03*
X0229474Y0243185D03*
X0229474Y0241217D03*
X0229474Y0239248D03*
X0229474Y0237280D03*
X0229474Y0235311D03*
X0229474Y0233343D03*
X0229474Y0231374D03*
X0229474Y0229406D03*
X0229474Y0227437D03*
D46*
X0253943Y0165083D03*
X0258943Y0165083D03*
X0263943Y0165083D03*
X0268943Y0165083D03*
X0268943Y0146483D03*
X0263943Y0146483D03*
X0258943Y0146483D03*
X0253943Y0146483D03*
D47*
X0250616Y0197909D03*
X0260458Y0197909D03*
D48*
X0287033Y0356374D03*
X0287033Y0374091D03*
X0318529Y0374091D03*
X0318529Y0356374D03*
X0220104Y0356374D03*
X0220104Y0374091D03*
X0188608Y0374091D03*
X0188608Y0356374D03*
D49*
X0090183Y0160823D03*
X0090183Y0150823D03*
X0090183Y0140823D03*
X0090183Y0130823D03*
X0090183Y0120823D03*
X0070498Y0120823D03*
X0070498Y0130823D03*
X0070498Y0140823D03*
X0070498Y0150823D03*
X0070498Y0160823D03*
D50*
X0226206Y0112476D03*
X0229946Y0112476D03*
X0233687Y0112476D03*
X0233687Y0102240D03*
X0226206Y0102240D03*
D51*
X0119317Y0389235D03*
X0123017Y0397135D03*
X0115617Y0397135D03*
D52*
X0194513Y0214445D03*
X0188608Y0211689D03*
M02*
