G04 #@! TF.FileFunction,Copper,L1,Top,Signal*
%FSLAX46Y46*%
G04 Gerber Fmt 4.6, Leading zero omitted, Abs format (unit mm)*
G04 Created by KiCad (PCBNEW 4.0.6) date 06/08/17 14:50:25*
%MOMM*%
%LPD*%
G01*
G04 APERTURE LIST*
%ADD10C,0.100000*%
%ADD11O,1.524000X3.048000*%
%ADD12C,3.800000*%
%ADD13R,1.198880X1.798320*%
%ADD14C,1.000000*%
%ADD15C,6.000000*%
%ADD16O,2.095500X4.191000*%
%ADD17R,1.550000X1.300000*%
%ADD18C,1.524000*%
%ADD19R,3.000000X3.000000*%
%ADD20C,3.000000*%
%ADD21C,0.600000*%
%ADD22C,0.500000*%
%ADD23C,2.800000*%
%ADD24C,2.000000*%
G04 APERTURE END LIST*
D10*
D11*
X173270000Y-119500000D03*
X170730000Y-119500000D03*
D12*
X155950000Y-92390000D03*
X146050000Y-92390000D03*
X146050000Y-96960000D03*
X146050000Y-103050000D03*
X155950000Y-96960000D03*
X155950000Y-103050000D03*
X158745000Y-109400000D03*
X143255000Y-109400000D03*
D13*
X174299840Y-89650120D03*
X171099440Y-89650120D03*
X168902340Y-89650120D03*
X166700160Y-89650120D03*
X166700160Y-95349880D03*
X168902340Y-95349880D03*
X171099440Y-95349880D03*
X174299840Y-95349880D03*
D14*
X116500000Y-84500000D03*
X116500000Y-116500000D03*
D11*
X128540000Y-119500000D03*
X126000000Y-119500000D03*
X123460000Y-119500000D03*
X182540000Y-119500000D03*
X180000000Y-119500000D03*
X177460000Y-119500000D03*
D15*
X188500000Y-79500000D03*
X116500000Y-121500000D03*
X188500000Y-121500000D03*
X116500000Y-79500000D03*
D16*
X179580000Y-82500000D03*
X174500000Y-82500000D03*
X169420000Y-82500000D03*
D11*
X153540000Y-119500000D03*
X151000000Y-119500000D03*
X148460000Y-119500000D03*
X141040000Y-119500000D03*
X138500000Y-119500000D03*
X135960000Y-119500000D03*
X166040000Y-119500000D03*
X163500000Y-119500000D03*
X160960000Y-119500000D03*
D17*
X179525000Y-90250000D03*
X187475000Y-90250000D03*
X179525000Y-94750000D03*
X187475000Y-94750000D03*
D18*
X184800000Y-113200000D03*
X182260000Y-113200000D03*
X184800000Y-105580000D03*
X177180000Y-113200000D03*
X182260000Y-105580000D03*
X172100000Y-113200000D03*
X177180000Y-105580000D03*
X167000000Y-113200000D03*
X167020000Y-105580000D03*
X172100000Y-105580000D03*
D12*
X130950000Y-92390000D03*
X121050000Y-92390000D03*
X121050000Y-96960000D03*
X121050000Y-103050000D03*
X130950000Y-96960000D03*
X130950000Y-103050000D03*
X133745000Y-109400000D03*
X118255000Y-109400000D03*
D14*
X188500000Y-84500000D03*
X188500000Y-116500000D03*
D19*
X130040000Y-82500000D03*
D20*
X124960000Y-82500000D03*
D19*
X144040000Y-82500000D03*
D20*
X138960000Y-82500000D03*
D19*
X158040000Y-82500000D03*
D20*
X152960000Y-82500000D03*
D21*
X174300000Y-98300000D03*
X183500000Y-77500000D03*
X173500000Y-77500000D03*
X128500000Y-123500000D03*
X114500000Y-113500000D03*
X114500000Y-103500000D03*
X114500000Y-93500000D03*
X114500000Y-83500000D03*
X123500000Y-77500000D03*
X133500000Y-77500000D03*
X143500000Y-77500000D03*
X153500000Y-77500000D03*
X163500000Y-77500000D03*
X190500000Y-83500000D03*
X190500000Y-93500000D03*
X190500000Y-103500000D03*
X190500000Y-113500000D03*
X178500000Y-123500000D03*
X168500000Y-123500000D03*
X158500000Y-123500000D03*
X148500000Y-123500000D03*
D22*
X174300000Y-95649760D02*
X174300000Y-98300000D01*
X174299840Y-95349880D02*
X174299840Y-95649600D01*
X174299840Y-95649600D02*
X174300000Y-95649760D01*
D23*
X134950000Y-103050000D02*
X141040000Y-96960000D01*
X141040000Y-96960000D02*
X146050000Y-96960000D01*
X146050000Y-96960000D02*
X155950000Y-96960000D01*
X130950000Y-103050000D02*
X134950000Y-103050000D01*
X121050000Y-103050000D02*
X130950000Y-103050000D01*
D22*
X126000000Y-119500000D02*
X126000000Y-111000000D01*
X127600000Y-109400000D02*
X133745000Y-109400000D01*
X126000000Y-111000000D02*
X127600000Y-109400000D01*
X174299840Y-89650120D02*
X174299840Y-82700160D01*
X174299840Y-82700160D02*
X174500000Y-82500000D01*
X180000000Y-119500000D02*
X180000000Y-118800000D01*
X180000000Y-118800000D02*
X184800000Y-114000000D01*
X184800000Y-114000000D02*
X184800000Y-113200000D01*
X170730000Y-117470000D02*
X170730000Y-119500000D01*
X182260000Y-113200000D02*
X181182370Y-113200000D01*
X181182370Y-113200000D02*
X179800000Y-111817630D01*
X179800000Y-111817630D02*
X179800000Y-95025000D01*
X179800000Y-95025000D02*
X179525000Y-94750000D01*
X170730000Y-117470000D02*
X172200000Y-116000000D01*
X172200000Y-116000000D02*
X181200000Y-116000000D01*
X182260000Y-114940000D02*
X182260000Y-113200000D01*
X181200000Y-116000000D02*
X182260000Y-114940000D01*
X179525000Y-94750000D02*
X187475000Y-94750000D01*
X183500000Y-77500000D02*
X186500000Y-77500000D01*
X123500000Y-77500000D02*
X183500000Y-77500000D01*
X186500000Y-77500000D02*
X188500000Y-79500000D01*
X148500000Y-123500000D02*
X118500000Y-123500000D01*
X118500000Y-123500000D02*
X116500000Y-121500000D01*
X114500000Y-113500000D02*
X114500000Y-119500000D01*
X114500000Y-103500000D02*
X114500000Y-113500000D01*
X114500000Y-93500000D02*
X114500000Y-103500000D01*
X114500000Y-83500000D02*
X114500000Y-93500000D01*
X114500000Y-82500000D02*
X114500000Y-83500000D01*
X123500000Y-77500000D02*
X118500000Y-77500000D01*
X190500000Y-83500000D02*
X190500000Y-81500000D01*
X190500000Y-93500000D02*
X190500000Y-83500000D01*
X190500000Y-103500000D02*
X190500000Y-93500000D01*
X190500000Y-113500000D02*
X190500000Y-103500000D01*
X190500000Y-118500000D02*
X190500000Y-113500000D01*
X178500000Y-123500000D02*
X186500000Y-123500000D01*
X168500000Y-123500000D02*
X178500000Y-123500000D01*
X158500000Y-123500000D02*
X168500000Y-123500000D01*
X148500000Y-123500000D02*
X158500000Y-123500000D01*
X116500000Y-79500000D02*
X116500000Y-80500000D01*
X116500000Y-80500000D02*
X114500000Y-82500000D01*
X114500000Y-119500000D02*
X116500000Y-121500000D01*
X118500000Y-77500000D02*
X116500000Y-79500000D01*
X188500000Y-121500000D02*
X188500000Y-120500000D01*
X188500000Y-120500000D02*
X190500000Y-118500000D01*
X190500000Y-81500000D02*
X188500000Y-79500000D01*
X186500000Y-123500000D02*
X188500000Y-121500000D01*
X172100000Y-105580000D02*
X172100000Y-113200000D01*
X170500000Y-101500000D02*
X172100000Y-103100000D01*
X172100000Y-103100000D02*
X172100000Y-105580000D01*
X168020000Y-101500000D02*
X170500000Y-101500000D01*
X166700160Y-95349880D02*
X166700160Y-100180160D01*
X166700160Y-100180160D02*
X168020000Y-101500000D01*
X166700160Y-89650120D02*
X166700160Y-95349880D01*
X172200160Y-105479840D02*
X172100000Y-105580000D01*
X151900000Y-116500000D02*
X159500000Y-116500000D01*
X159500000Y-116500000D02*
X164500000Y-116500000D01*
X158745000Y-109400000D02*
X158745000Y-115745000D01*
X158745000Y-115745000D02*
X159500000Y-116500000D01*
X139476000Y-116500000D02*
X151900000Y-116500000D01*
X151900000Y-116576000D02*
X151900000Y-116500000D01*
X151000000Y-119500000D02*
X151000000Y-117476000D01*
X151000000Y-117476000D02*
X151900000Y-116576000D01*
X163500000Y-119500000D02*
X163500000Y-117476000D01*
X163500000Y-117476000D02*
X164476000Y-116500000D01*
X164476000Y-116500000D02*
X164500000Y-116500000D01*
X164500000Y-116500000D02*
X166100000Y-114900000D01*
X138500000Y-119500000D02*
X138500000Y-117476000D01*
X138500000Y-117476000D02*
X139476000Y-116500000D01*
X166100000Y-114900000D02*
X173600000Y-114900000D01*
X173600000Y-114900000D02*
X175300000Y-113200000D01*
X175300000Y-113200000D02*
X177180000Y-113200000D01*
X177180000Y-105580000D02*
X177180000Y-113200000D01*
D23*
X144040000Y-85460000D02*
X144040000Y-82500000D01*
X141750000Y-87750000D02*
X144040000Y-85460000D01*
X132250000Y-87750000D02*
X141750000Y-87750000D01*
X128500000Y-87750000D02*
X132250000Y-87750000D01*
X130040000Y-82500000D02*
X130040000Y-86800000D01*
X130040000Y-86800000D02*
X130990000Y-87750000D01*
X130990000Y-87750000D02*
X132250000Y-87750000D01*
X126000000Y-96960000D02*
X126000000Y-90250000D01*
X126000000Y-90250000D02*
X128500000Y-87750000D01*
X121050000Y-96960000D02*
X126000000Y-96960000D01*
X126000000Y-96960000D02*
X130950000Y-96960000D01*
D24*
G36*
X123138789Y-79307686D02*
X123858056Y-79308313D01*
X123979823Y-79258000D01*
X133019132Y-79258000D01*
X133138789Y-79307686D01*
X133858056Y-79308313D01*
X133979823Y-79258000D01*
X143019132Y-79258000D01*
X143138789Y-79307686D01*
X143858056Y-79308313D01*
X143979823Y-79258000D01*
X153019132Y-79258000D01*
X153138789Y-79307686D01*
X153858056Y-79308313D01*
X153979823Y-79258000D01*
X162292000Y-79258000D01*
X162292000Y-113492000D01*
X160503000Y-113492000D01*
X160503000Y-112361071D01*
X160672955Y-112290847D01*
X161632477Y-111332998D01*
X162152407Y-110080867D01*
X162153591Y-108725081D01*
X161635847Y-107472045D01*
X160677998Y-106512523D01*
X159425867Y-105992593D01*
X158070081Y-105991409D01*
X156817045Y-106509153D01*
X155857523Y-107467002D01*
X155337593Y-108719133D01*
X155336409Y-110074919D01*
X155854153Y-111327955D01*
X156812002Y-112287477D01*
X156987000Y-112360142D01*
X156987000Y-113492000D01*
X127758000Y-113492000D01*
X127758000Y-111728188D01*
X128328188Y-111158000D01*
X130783929Y-111158000D01*
X130854153Y-111327955D01*
X131812002Y-112287477D01*
X133064133Y-112807407D01*
X134419919Y-112808591D01*
X135672955Y-112290847D01*
X136632477Y-111332998D01*
X137152407Y-110080867D01*
X137152412Y-110074919D01*
X139846409Y-110074919D01*
X140364153Y-111327955D01*
X141322002Y-112287477D01*
X142574133Y-112807407D01*
X143929919Y-112808591D01*
X145182955Y-112290847D01*
X146142477Y-111332998D01*
X146662407Y-110080867D01*
X146663591Y-108725081D01*
X146145847Y-107472045D01*
X145187998Y-106512523D01*
X143935867Y-105992593D01*
X142580081Y-105991409D01*
X141327045Y-106509153D01*
X140367523Y-107467002D01*
X139847593Y-108719133D01*
X139846409Y-110074919D01*
X137152412Y-110074919D01*
X137153591Y-108725081D01*
X136635847Y-107472045D01*
X135677998Y-106512523D01*
X134425867Y-105992593D01*
X133070081Y-105991409D01*
X131817045Y-106509153D01*
X130857523Y-107467002D01*
X130784858Y-107642000D01*
X127600005Y-107642000D01*
X127600000Y-107641999D01*
X126927243Y-107775820D01*
X126356906Y-108156906D01*
X124756906Y-109756906D01*
X124375820Y-110327242D01*
X124375820Y-110327243D01*
X124242000Y-111000000D01*
X124242000Y-113492000D01*
X116308008Y-113492000D01*
X116308313Y-113141944D01*
X116258000Y-113020177D01*
X116258000Y-112223363D01*
X116322002Y-112287477D01*
X117574133Y-112807407D01*
X118929919Y-112808591D01*
X120182955Y-112290847D01*
X121142477Y-111332998D01*
X121662407Y-110080867D01*
X121663591Y-108725081D01*
X121145847Y-107472045D01*
X120187998Y-106512523D01*
X118935867Y-105992593D01*
X117580081Y-105991409D01*
X116327045Y-106509153D01*
X116258000Y-106578078D01*
X116258000Y-103980868D01*
X116307686Y-103861211D01*
X116308313Y-103141944D01*
X116258000Y-103020177D01*
X116258000Y-93980868D01*
X116307686Y-93861211D01*
X116308313Y-93141944D01*
X116276487Y-93064919D01*
X117641409Y-93064919D01*
X118159153Y-94317955D01*
X118515358Y-94674782D01*
X118162523Y-95027002D01*
X117642593Y-96279133D01*
X117641409Y-97634919D01*
X118159153Y-98887955D01*
X119117002Y-99847477D01*
X119495743Y-100004744D01*
X119122045Y-100159153D01*
X118162523Y-101117002D01*
X117642593Y-102369133D01*
X117641409Y-103724919D01*
X118159153Y-104977955D01*
X119117002Y-105937477D01*
X120369133Y-106457407D01*
X121724919Y-106458591D01*
X122936442Y-105958000D01*
X129066427Y-105958000D01*
X130269133Y-106457407D01*
X131624919Y-106458591D01*
X132836442Y-105958000D01*
X134949995Y-105958000D01*
X134950000Y-105958001D01*
X136062844Y-105736642D01*
X136364001Y-105535415D01*
X144200981Y-105535415D01*
X144388840Y-106101975D01*
X145683229Y-106505356D01*
X147033455Y-106382690D01*
X147711160Y-106101975D01*
X147899019Y-105535415D01*
X154100981Y-105535415D01*
X154288840Y-106101975D01*
X155583229Y-106505356D01*
X156933455Y-106382690D01*
X157611160Y-106101975D01*
X157799019Y-105535415D01*
X155950000Y-103686396D01*
X154100981Y-105535415D01*
X147899019Y-105535415D01*
X146050000Y-103686396D01*
X144200981Y-105535415D01*
X136364001Y-105535415D01*
X137006267Y-105106267D01*
X139429304Y-102683229D01*
X142594644Y-102683229D01*
X142717310Y-104033455D01*
X142998025Y-104711160D01*
X143564585Y-104899019D01*
X145413604Y-103050000D01*
X146686396Y-103050000D01*
X148535415Y-104899019D01*
X149101975Y-104711160D01*
X149505356Y-103416771D01*
X149438715Y-102683229D01*
X152494644Y-102683229D01*
X152617310Y-104033455D01*
X152898025Y-104711160D01*
X153464585Y-104899019D01*
X155313604Y-103050000D01*
X156586396Y-103050000D01*
X158435415Y-104899019D01*
X159001975Y-104711160D01*
X159405356Y-103416771D01*
X159282690Y-102066545D01*
X159001975Y-101388840D01*
X158435415Y-101200981D01*
X156586396Y-103050000D01*
X155313604Y-103050000D01*
X153464585Y-101200981D01*
X152898025Y-101388840D01*
X152494644Y-102683229D01*
X149438715Y-102683229D01*
X149382690Y-102066545D01*
X149101975Y-101388840D01*
X148535415Y-101200981D01*
X146686396Y-103050000D01*
X145413604Y-103050000D01*
X143564585Y-101200981D01*
X142998025Y-101388840D01*
X142594644Y-102683229D01*
X139429304Y-102683229D01*
X142244533Y-99868000D01*
X144166427Y-99868000D01*
X144434257Y-99979213D01*
X144388840Y-99998025D01*
X144200981Y-100564585D01*
X146050000Y-102413604D01*
X147899019Y-100564585D01*
X147711160Y-99998025D01*
X147660196Y-99982143D01*
X147936442Y-99868000D01*
X154066427Y-99868000D01*
X154334257Y-99979213D01*
X154288840Y-99998025D01*
X154100981Y-100564585D01*
X155950000Y-102413604D01*
X157799019Y-100564585D01*
X157611160Y-99998025D01*
X157560196Y-99982143D01*
X157877955Y-99850847D01*
X158837477Y-98892998D01*
X159357407Y-97640867D01*
X159358591Y-96285081D01*
X158840847Y-95032045D01*
X158484642Y-94675218D01*
X158837477Y-94322998D01*
X159357407Y-93070867D01*
X159358591Y-91715081D01*
X158840847Y-90462045D01*
X157882998Y-89502523D01*
X156630867Y-88982593D01*
X155275081Y-88981409D01*
X154022045Y-89499153D01*
X153062523Y-90457002D01*
X152542593Y-91709133D01*
X152541409Y-93064919D01*
X152949263Y-94052000D01*
X149050005Y-94052000D01*
X149457407Y-93070867D01*
X149458591Y-91715081D01*
X148940847Y-90462045D01*
X147982998Y-89502523D01*
X146730867Y-88982593D01*
X145375081Y-88981409D01*
X144122045Y-89499153D01*
X143162523Y-90457002D01*
X142642593Y-91709133D01*
X142641409Y-93064919D01*
X143049263Y-94052000D01*
X141040005Y-94052000D01*
X141040000Y-94051999D01*
X139927156Y-94273358D01*
X139553822Y-94522812D01*
X138983733Y-94903733D01*
X138983731Y-94903736D01*
X133745466Y-100142000D01*
X132833573Y-100142000D01*
X132504257Y-100005256D01*
X132877955Y-99850847D01*
X133837477Y-98892998D01*
X134357407Y-97640867D01*
X134358591Y-96285081D01*
X133840847Y-95032045D01*
X133484642Y-94675218D01*
X133837477Y-94322998D01*
X134357407Y-93070867D01*
X134358591Y-91715081D01*
X133921814Y-90658000D01*
X141749995Y-90658000D01*
X141750000Y-90658001D01*
X142862844Y-90436642D01*
X143806267Y-89806267D01*
X146096264Y-87516269D01*
X146096267Y-87516267D01*
X146574861Y-86800000D01*
X146726642Y-86572844D01*
X146948001Y-85460000D01*
X146948000Y-85459995D01*
X146948000Y-84610493D01*
X146956406Y-84598190D01*
X147077543Y-84000000D01*
X147077543Y-83095703D01*
X149951479Y-83095703D01*
X150408455Y-84201669D01*
X151253880Y-85048571D01*
X152359047Y-85507477D01*
X153555703Y-85508521D01*
X154661669Y-85051545D01*
X155143913Y-84570142D01*
X155261579Y-84854213D01*
X155685786Y-85278421D01*
X156240040Y-85508000D01*
X157213000Y-85508000D01*
X157590000Y-85131000D01*
X157590000Y-82950000D01*
X158490000Y-82950000D01*
X158490000Y-85131000D01*
X158867000Y-85508000D01*
X159839960Y-85508000D01*
X160394214Y-85278421D01*
X160818421Y-84854213D01*
X161048000Y-84299960D01*
X161048000Y-83327000D01*
X160671000Y-82950000D01*
X158490000Y-82950000D01*
X157590000Y-82950000D01*
X157570000Y-82950000D01*
X157570000Y-82050000D01*
X157590000Y-82050000D01*
X157590000Y-79869000D01*
X158490000Y-79869000D01*
X158490000Y-82050000D01*
X160671000Y-82050000D01*
X161048000Y-81673000D01*
X161048000Y-80700040D01*
X160818421Y-80145787D01*
X160394214Y-79721579D01*
X159839960Y-79492000D01*
X158867000Y-79492000D01*
X158490000Y-79869000D01*
X157590000Y-79869000D01*
X157213000Y-79492000D01*
X156240040Y-79492000D01*
X155685786Y-79721579D01*
X155261579Y-80145787D01*
X155143855Y-80429998D01*
X154666120Y-79951429D01*
X153560953Y-79492523D01*
X152364297Y-79491479D01*
X151258331Y-79948455D01*
X150411429Y-80793880D01*
X149952523Y-81899047D01*
X149951479Y-83095703D01*
X147077543Y-83095703D01*
X147077543Y-81000000D01*
X146972392Y-80441169D01*
X146642123Y-79927916D01*
X146138190Y-79583594D01*
X145540000Y-79462457D01*
X142540000Y-79462457D01*
X141981169Y-79567608D01*
X141467916Y-79897877D01*
X141123594Y-80401810D01*
X141122265Y-80408371D01*
X140666120Y-79951429D01*
X139560953Y-79492523D01*
X138364297Y-79491479D01*
X137258331Y-79948455D01*
X136411429Y-80793880D01*
X135952523Y-81899047D01*
X135951479Y-83095703D01*
X136408455Y-84201669D01*
X137047669Y-84842000D01*
X132948000Y-84842000D01*
X132948000Y-84610493D01*
X132956406Y-84598190D01*
X133077543Y-84000000D01*
X133077543Y-81000000D01*
X132972392Y-80441169D01*
X132642123Y-79927916D01*
X132138190Y-79583594D01*
X131540000Y-79462457D01*
X128540000Y-79462457D01*
X127981169Y-79567608D01*
X127467916Y-79897877D01*
X127123594Y-80401810D01*
X127122265Y-80408371D01*
X126666120Y-79951429D01*
X125560953Y-79492523D01*
X124364297Y-79491479D01*
X123258331Y-79948455D01*
X122411429Y-80793880D01*
X121952523Y-81899047D01*
X121951479Y-83095703D01*
X122408455Y-84201669D01*
X123253880Y-85048571D01*
X124359047Y-85507477D01*
X125555703Y-85508521D01*
X126661669Y-85051545D01*
X127126239Y-84587785D01*
X127132000Y-84596737D01*
X127132000Y-85233848D01*
X126443733Y-85693733D01*
X126443731Y-85693736D01*
X123943733Y-88193733D01*
X123313358Y-89137156D01*
X123197867Y-89717767D01*
X122982998Y-89502523D01*
X121730867Y-88982593D01*
X120375081Y-88981409D01*
X119122045Y-89499153D01*
X118162523Y-90457002D01*
X117642593Y-91709133D01*
X117641409Y-93064919D01*
X116276487Y-93064919D01*
X116258000Y-93020177D01*
X116258000Y-86769790D01*
X116949550Y-86770393D01*
X117784172Y-86425535D01*
X118423290Y-85787531D01*
X118769605Y-84953512D01*
X118770393Y-84050450D01*
X118554787Y-83528642D01*
X119050241Y-83323925D01*
X120319468Y-82056911D01*
X121007216Y-80400631D01*
X121008213Y-79258000D01*
X123019132Y-79258000D01*
X123138789Y-79307686D01*
X123138789Y-79307686D01*
G37*
X123138789Y-79307686D02*
X123858056Y-79308313D01*
X123979823Y-79258000D01*
X133019132Y-79258000D01*
X133138789Y-79307686D01*
X133858056Y-79308313D01*
X133979823Y-79258000D01*
X143019132Y-79258000D01*
X143138789Y-79307686D01*
X143858056Y-79308313D01*
X143979823Y-79258000D01*
X153019132Y-79258000D01*
X153138789Y-79307686D01*
X153858056Y-79308313D01*
X153979823Y-79258000D01*
X162292000Y-79258000D01*
X162292000Y-113492000D01*
X160503000Y-113492000D01*
X160503000Y-112361071D01*
X160672955Y-112290847D01*
X161632477Y-111332998D01*
X162152407Y-110080867D01*
X162153591Y-108725081D01*
X161635847Y-107472045D01*
X160677998Y-106512523D01*
X159425867Y-105992593D01*
X158070081Y-105991409D01*
X156817045Y-106509153D01*
X155857523Y-107467002D01*
X155337593Y-108719133D01*
X155336409Y-110074919D01*
X155854153Y-111327955D01*
X156812002Y-112287477D01*
X156987000Y-112360142D01*
X156987000Y-113492000D01*
X127758000Y-113492000D01*
X127758000Y-111728188D01*
X128328188Y-111158000D01*
X130783929Y-111158000D01*
X130854153Y-111327955D01*
X131812002Y-112287477D01*
X133064133Y-112807407D01*
X134419919Y-112808591D01*
X135672955Y-112290847D01*
X136632477Y-111332998D01*
X137152407Y-110080867D01*
X137152412Y-110074919D01*
X139846409Y-110074919D01*
X140364153Y-111327955D01*
X141322002Y-112287477D01*
X142574133Y-112807407D01*
X143929919Y-112808591D01*
X145182955Y-112290847D01*
X146142477Y-111332998D01*
X146662407Y-110080867D01*
X146663591Y-108725081D01*
X146145847Y-107472045D01*
X145187998Y-106512523D01*
X143935867Y-105992593D01*
X142580081Y-105991409D01*
X141327045Y-106509153D01*
X140367523Y-107467002D01*
X139847593Y-108719133D01*
X139846409Y-110074919D01*
X137152412Y-110074919D01*
X137153591Y-108725081D01*
X136635847Y-107472045D01*
X135677998Y-106512523D01*
X134425867Y-105992593D01*
X133070081Y-105991409D01*
X131817045Y-106509153D01*
X130857523Y-107467002D01*
X130784858Y-107642000D01*
X127600005Y-107642000D01*
X127600000Y-107641999D01*
X126927243Y-107775820D01*
X126356906Y-108156906D01*
X124756906Y-109756906D01*
X124375820Y-110327242D01*
X124375820Y-110327243D01*
X124242000Y-111000000D01*
X124242000Y-113492000D01*
X116308008Y-113492000D01*
X116308313Y-113141944D01*
X116258000Y-113020177D01*
X116258000Y-112223363D01*
X116322002Y-112287477D01*
X117574133Y-112807407D01*
X118929919Y-112808591D01*
X120182955Y-112290847D01*
X121142477Y-111332998D01*
X121662407Y-110080867D01*
X121663591Y-108725081D01*
X121145847Y-107472045D01*
X120187998Y-106512523D01*
X118935867Y-105992593D01*
X117580081Y-105991409D01*
X116327045Y-106509153D01*
X116258000Y-106578078D01*
X116258000Y-103980868D01*
X116307686Y-103861211D01*
X116308313Y-103141944D01*
X116258000Y-103020177D01*
X116258000Y-93980868D01*
X116307686Y-93861211D01*
X116308313Y-93141944D01*
X116276487Y-93064919D01*
X117641409Y-93064919D01*
X118159153Y-94317955D01*
X118515358Y-94674782D01*
X118162523Y-95027002D01*
X117642593Y-96279133D01*
X117641409Y-97634919D01*
X118159153Y-98887955D01*
X119117002Y-99847477D01*
X119495743Y-100004744D01*
X119122045Y-100159153D01*
X118162523Y-101117002D01*
X117642593Y-102369133D01*
X117641409Y-103724919D01*
X118159153Y-104977955D01*
X119117002Y-105937477D01*
X120369133Y-106457407D01*
X121724919Y-106458591D01*
X122936442Y-105958000D01*
X129066427Y-105958000D01*
X130269133Y-106457407D01*
X131624919Y-106458591D01*
X132836442Y-105958000D01*
X134949995Y-105958000D01*
X134950000Y-105958001D01*
X136062844Y-105736642D01*
X136364001Y-105535415D01*
X144200981Y-105535415D01*
X144388840Y-106101975D01*
X145683229Y-106505356D01*
X147033455Y-106382690D01*
X147711160Y-106101975D01*
X147899019Y-105535415D01*
X154100981Y-105535415D01*
X154288840Y-106101975D01*
X155583229Y-106505356D01*
X156933455Y-106382690D01*
X157611160Y-106101975D01*
X157799019Y-105535415D01*
X155950000Y-103686396D01*
X154100981Y-105535415D01*
X147899019Y-105535415D01*
X146050000Y-103686396D01*
X144200981Y-105535415D01*
X136364001Y-105535415D01*
X137006267Y-105106267D01*
X139429304Y-102683229D01*
X142594644Y-102683229D01*
X142717310Y-104033455D01*
X142998025Y-104711160D01*
X143564585Y-104899019D01*
X145413604Y-103050000D01*
X146686396Y-103050000D01*
X148535415Y-104899019D01*
X149101975Y-104711160D01*
X149505356Y-103416771D01*
X149438715Y-102683229D01*
X152494644Y-102683229D01*
X152617310Y-104033455D01*
X152898025Y-104711160D01*
X153464585Y-104899019D01*
X155313604Y-103050000D01*
X156586396Y-103050000D01*
X158435415Y-104899019D01*
X159001975Y-104711160D01*
X159405356Y-103416771D01*
X159282690Y-102066545D01*
X159001975Y-101388840D01*
X158435415Y-101200981D01*
X156586396Y-103050000D01*
X155313604Y-103050000D01*
X153464585Y-101200981D01*
X152898025Y-101388840D01*
X152494644Y-102683229D01*
X149438715Y-102683229D01*
X149382690Y-102066545D01*
X149101975Y-101388840D01*
X148535415Y-101200981D01*
X146686396Y-103050000D01*
X145413604Y-103050000D01*
X143564585Y-101200981D01*
X142998025Y-101388840D01*
X142594644Y-102683229D01*
X139429304Y-102683229D01*
X142244533Y-99868000D01*
X144166427Y-99868000D01*
X144434257Y-99979213D01*
X144388840Y-99998025D01*
X144200981Y-100564585D01*
X146050000Y-102413604D01*
X147899019Y-100564585D01*
X147711160Y-99998025D01*
X147660196Y-99982143D01*
X147936442Y-99868000D01*
X154066427Y-99868000D01*
X154334257Y-99979213D01*
X154288840Y-99998025D01*
X154100981Y-100564585D01*
X155950000Y-102413604D01*
X157799019Y-100564585D01*
X157611160Y-99998025D01*
X157560196Y-99982143D01*
X157877955Y-99850847D01*
X158837477Y-98892998D01*
X159357407Y-97640867D01*
X159358591Y-96285081D01*
X158840847Y-95032045D01*
X158484642Y-94675218D01*
X158837477Y-94322998D01*
X159357407Y-93070867D01*
X159358591Y-91715081D01*
X158840847Y-90462045D01*
X157882998Y-89502523D01*
X156630867Y-88982593D01*
X155275081Y-88981409D01*
X154022045Y-89499153D01*
X153062523Y-90457002D01*
X152542593Y-91709133D01*
X152541409Y-93064919D01*
X152949263Y-94052000D01*
X149050005Y-94052000D01*
X149457407Y-93070867D01*
X149458591Y-91715081D01*
X148940847Y-90462045D01*
X147982998Y-89502523D01*
X146730867Y-88982593D01*
X145375081Y-88981409D01*
X144122045Y-89499153D01*
X143162523Y-90457002D01*
X142642593Y-91709133D01*
X142641409Y-93064919D01*
X143049263Y-94052000D01*
X141040005Y-94052000D01*
X141040000Y-94051999D01*
X139927156Y-94273358D01*
X139553822Y-94522812D01*
X138983733Y-94903733D01*
X138983731Y-94903736D01*
X133745466Y-100142000D01*
X132833573Y-100142000D01*
X132504257Y-100005256D01*
X132877955Y-99850847D01*
X133837477Y-98892998D01*
X134357407Y-97640867D01*
X134358591Y-96285081D01*
X133840847Y-95032045D01*
X133484642Y-94675218D01*
X133837477Y-94322998D01*
X134357407Y-93070867D01*
X134358591Y-91715081D01*
X133921814Y-90658000D01*
X141749995Y-90658000D01*
X141750000Y-90658001D01*
X142862844Y-90436642D01*
X143806267Y-89806267D01*
X146096264Y-87516269D01*
X146096267Y-87516267D01*
X146574861Y-86800000D01*
X146726642Y-86572844D01*
X146948001Y-85460000D01*
X146948000Y-85459995D01*
X146948000Y-84610493D01*
X146956406Y-84598190D01*
X147077543Y-84000000D01*
X147077543Y-83095703D01*
X149951479Y-83095703D01*
X150408455Y-84201669D01*
X151253880Y-85048571D01*
X152359047Y-85507477D01*
X153555703Y-85508521D01*
X154661669Y-85051545D01*
X155143913Y-84570142D01*
X155261579Y-84854213D01*
X155685786Y-85278421D01*
X156240040Y-85508000D01*
X157213000Y-85508000D01*
X157590000Y-85131000D01*
X157590000Y-82950000D01*
X158490000Y-82950000D01*
X158490000Y-85131000D01*
X158867000Y-85508000D01*
X159839960Y-85508000D01*
X160394214Y-85278421D01*
X160818421Y-84854213D01*
X161048000Y-84299960D01*
X161048000Y-83327000D01*
X160671000Y-82950000D01*
X158490000Y-82950000D01*
X157590000Y-82950000D01*
X157570000Y-82950000D01*
X157570000Y-82050000D01*
X157590000Y-82050000D01*
X157590000Y-79869000D01*
X158490000Y-79869000D01*
X158490000Y-82050000D01*
X160671000Y-82050000D01*
X161048000Y-81673000D01*
X161048000Y-80700040D01*
X160818421Y-80145787D01*
X160394214Y-79721579D01*
X159839960Y-79492000D01*
X158867000Y-79492000D01*
X158490000Y-79869000D01*
X157590000Y-79869000D01*
X157213000Y-79492000D01*
X156240040Y-79492000D01*
X155685786Y-79721579D01*
X155261579Y-80145787D01*
X155143855Y-80429998D01*
X154666120Y-79951429D01*
X153560953Y-79492523D01*
X152364297Y-79491479D01*
X151258331Y-79948455D01*
X150411429Y-80793880D01*
X149952523Y-81899047D01*
X149951479Y-83095703D01*
X147077543Y-83095703D01*
X147077543Y-81000000D01*
X146972392Y-80441169D01*
X146642123Y-79927916D01*
X146138190Y-79583594D01*
X145540000Y-79462457D01*
X142540000Y-79462457D01*
X141981169Y-79567608D01*
X141467916Y-79897877D01*
X141123594Y-80401810D01*
X141122265Y-80408371D01*
X140666120Y-79951429D01*
X139560953Y-79492523D01*
X138364297Y-79491479D01*
X137258331Y-79948455D01*
X136411429Y-80793880D01*
X135952523Y-81899047D01*
X135951479Y-83095703D01*
X136408455Y-84201669D01*
X137047669Y-84842000D01*
X132948000Y-84842000D01*
X132948000Y-84610493D01*
X132956406Y-84598190D01*
X133077543Y-84000000D01*
X133077543Y-81000000D01*
X132972392Y-80441169D01*
X132642123Y-79927916D01*
X132138190Y-79583594D01*
X131540000Y-79462457D01*
X128540000Y-79462457D01*
X127981169Y-79567608D01*
X127467916Y-79897877D01*
X127123594Y-80401810D01*
X127122265Y-80408371D01*
X126666120Y-79951429D01*
X125560953Y-79492523D01*
X124364297Y-79491479D01*
X123258331Y-79948455D01*
X122411429Y-80793880D01*
X121952523Y-81899047D01*
X121951479Y-83095703D01*
X122408455Y-84201669D01*
X123253880Y-85048571D01*
X124359047Y-85507477D01*
X125555703Y-85508521D01*
X126661669Y-85051545D01*
X127126239Y-84587785D01*
X127132000Y-84596737D01*
X127132000Y-85233848D01*
X126443733Y-85693733D01*
X126443731Y-85693736D01*
X123943733Y-88193733D01*
X123313358Y-89137156D01*
X123197867Y-89717767D01*
X122982998Y-89502523D01*
X121730867Y-88982593D01*
X120375081Y-88981409D01*
X119122045Y-89499153D01*
X118162523Y-90457002D01*
X117642593Y-91709133D01*
X117641409Y-93064919D01*
X116276487Y-93064919D01*
X116258000Y-93020177D01*
X116258000Y-86769790D01*
X116949550Y-86770393D01*
X117784172Y-86425535D01*
X118423290Y-85787531D01*
X118769605Y-84953512D01*
X118770393Y-84050450D01*
X118554787Y-83528642D01*
X119050241Y-83323925D01*
X120319468Y-82056911D01*
X121007216Y-80400631D01*
X121008213Y-79258000D01*
X123019132Y-79258000D01*
X123138789Y-79307686D01*
D22*
G36*
X173288628Y-78557816D02*
X173709526Y-78558183D01*
X173830978Y-78508000D01*
X183168658Y-78508000D01*
X183288628Y-78557816D01*
X183709526Y-78558183D01*
X183830978Y-78508000D01*
X184842811Y-78508000D01*
X184742653Y-78749208D01*
X184741349Y-80244233D01*
X185312265Y-81625955D01*
X186368484Y-82684020D01*
X187639129Y-83211638D01*
X187212158Y-83637865D01*
X186980264Y-84196327D01*
X186979736Y-84801020D01*
X187210655Y-85359886D01*
X187637865Y-85787842D01*
X188196327Y-86019736D01*
X188801020Y-86020264D01*
X189359886Y-85789345D01*
X189492000Y-85657461D01*
X189492000Y-93168658D01*
X189442184Y-93288628D01*
X189441817Y-93709526D01*
X189492000Y-93830978D01*
X189492000Y-103168658D01*
X189442184Y-103288628D01*
X189441817Y-103709526D01*
X189492000Y-103830978D01*
X189492000Y-113168658D01*
X189442184Y-113288628D01*
X189441817Y-113709526D01*
X189492000Y-113830978D01*
X189492000Y-115342250D01*
X189362135Y-115212158D01*
X188803673Y-114980264D01*
X188198980Y-114979736D01*
X187640114Y-115210655D01*
X187212158Y-115637865D01*
X186980264Y-116196327D01*
X186979736Y-116801020D01*
X187210655Y-117359886D01*
X187637865Y-117787842D01*
X187640549Y-117788956D01*
X186374045Y-118312265D01*
X185315980Y-119368484D01*
X184742653Y-120749208D01*
X184741349Y-122244233D01*
X184843724Y-122492000D01*
X178831342Y-122492000D01*
X178711372Y-122442184D01*
X178290474Y-122441817D01*
X178169022Y-122492000D01*
X168831342Y-122492000D01*
X168711372Y-122442184D01*
X168290474Y-122441817D01*
X168169022Y-122492000D01*
X158831342Y-122492000D01*
X158711372Y-122442184D01*
X158290474Y-122441817D01*
X158169022Y-122492000D01*
X148831342Y-122492000D01*
X148711372Y-122442184D01*
X148290474Y-122441817D01*
X148169022Y-122492000D01*
X128831342Y-122492000D01*
X128711372Y-122442184D01*
X128290474Y-122441817D01*
X128169022Y-122492000D01*
X120157189Y-122492000D01*
X120257347Y-122250792D01*
X120258651Y-120755767D01*
X119687735Y-119374045D01*
X118631516Y-118315980D01*
X117360871Y-117788362D01*
X117787842Y-117362135D01*
X118019736Y-116803673D01*
X118020264Y-116198980D01*
X117789345Y-115640114D01*
X117399911Y-115250000D01*
X124992000Y-115250000D01*
X124992000Y-117573855D01*
X124925198Y-117618491D01*
X124730000Y-117910625D01*
X124534802Y-117618491D01*
X124041679Y-117288996D01*
X123460000Y-117173293D01*
X122878321Y-117288996D01*
X122385198Y-117618491D01*
X122055703Y-118111614D01*
X121940000Y-118693293D01*
X121940000Y-120306707D01*
X122055703Y-120888386D01*
X122385198Y-121381509D01*
X122878321Y-121711004D01*
X123460000Y-121826707D01*
X124041679Y-121711004D01*
X124534802Y-121381509D01*
X124730000Y-121089375D01*
X124925198Y-121381509D01*
X125418321Y-121711004D01*
X126000000Y-121826707D01*
X126581679Y-121711004D01*
X127074802Y-121381509D01*
X127284886Y-121067097D01*
X127468026Y-121339630D01*
X127962016Y-121667827D01*
X128298270Y-121762656D01*
X128536000Y-121592494D01*
X128536000Y-119504000D01*
X128544000Y-119504000D01*
X128544000Y-121592494D01*
X128781730Y-121762656D01*
X129117984Y-121667827D01*
X129611974Y-121339630D01*
X129942766Y-120847374D01*
X130060000Y-120266000D01*
X130060000Y-119504000D01*
X128544000Y-119504000D01*
X128536000Y-119504000D01*
X128516000Y-119504000D01*
X128516000Y-119496000D01*
X128536000Y-119496000D01*
X128536000Y-117407506D01*
X128544000Y-117407506D01*
X128544000Y-119496000D01*
X130060000Y-119496000D01*
X130060000Y-118734000D01*
X129942766Y-118152626D01*
X129611974Y-117660370D01*
X129117984Y-117332173D01*
X128781730Y-117237344D01*
X128544000Y-117407506D01*
X128536000Y-117407506D01*
X128298270Y-117237344D01*
X127962016Y-117332173D01*
X127468026Y-117660370D01*
X127284886Y-117932903D01*
X127074802Y-117618491D01*
X127008000Y-117573855D01*
X127008000Y-115250000D01*
X157737000Y-115250000D01*
X157737000Y-115492000D01*
X139476000Y-115492000D01*
X139090255Y-115568729D01*
X138763236Y-115787236D01*
X138763234Y-115787239D01*
X137787236Y-116763236D01*
X137568729Y-117090255D01*
X137491999Y-117476000D01*
X137492000Y-117476005D01*
X137492000Y-117573855D01*
X137425198Y-117618491D01*
X137230000Y-117910625D01*
X137034802Y-117618491D01*
X136541679Y-117288996D01*
X135960000Y-117173293D01*
X135378321Y-117288996D01*
X134885198Y-117618491D01*
X134555703Y-118111614D01*
X134440000Y-118693293D01*
X134440000Y-120306707D01*
X134555703Y-120888386D01*
X134885198Y-121381509D01*
X135378321Y-121711004D01*
X135960000Y-121826707D01*
X136541679Y-121711004D01*
X137034802Y-121381509D01*
X137230000Y-121089375D01*
X137425198Y-121381509D01*
X137918321Y-121711004D01*
X138500000Y-121826707D01*
X139081679Y-121711004D01*
X139574802Y-121381509D01*
X139784886Y-121067097D01*
X139968026Y-121339630D01*
X140462016Y-121667827D01*
X140798270Y-121762656D01*
X141036000Y-121592494D01*
X141036000Y-119504000D01*
X141044000Y-119504000D01*
X141044000Y-121592494D01*
X141281730Y-121762656D01*
X141617984Y-121667827D01*
X142111974Y-121339630D01*
X142442766Y-120847374D01*
X142560000Y-120266000D01*
X142560000Y-119504000D01*
X141044000Y-119504000D01*
X141036000Y-119504000D01*
X141016000Y-119504000D01*
X141016000Y-119496000D01*
X141036000Y-119496000D01*
X141036000Y-119476000D01*
X141044000Y-119476000D01*
X141044000Y-119496000D01*
X142560000Y-119496000D01*
X142560000Y-118734000D01*
X142442766Y-118152626D01*
X142111974Y-117660370D01*
X141882632Y-117508000D01*
X147550559Y-117508000D01*
X147385198Y-117618491D01*
X147055703Y-118111614D01*
X146940000Y-118693293D01*
X146940000Y-120306707D01*
X147055703Y-120888386D01*
X147385198Y-121381509D01*
X147878321Y-121711004D01*
X148460000Y-121826707D01*
X149041679Y-121711004D01*
X149534802Y-121381509D01*
X149730000Y-121089375D01*
X149925198Y-121381509D01*
X150418321Y-121711004D01*
X151000000Y-121826707D01*
X151581679Y-121711004D01*
X152074802Y-121381509D01*
X152284886Y-121067097D01*
X152468026Y-121339630D01*
X152962016Y-121667827D01*
X153298270Y-121762656D01*
X153536000Y-121592494D01*
X153536000Y-119504000D01*
X153544000Y-119504000D01*
X153544000Y-121592494D01*
X153781730Y-121762656D01*
X154117984Y-121667827D01*
X154611974Y-121339630D01*
X154942766Y-120847374D01*
X155060000Y-120266000D01*
X155060000Y-119504000D01*
X153544000Y-119504000D01*
X153536000Y-119504000D01*
X153516000Y-119504000D01*
X153516000Y-119496000D01*
X153536000Y-119496000D01*
X153536000Y-119476000D01*
X153544000Y-119476000D01*
X153544000Y-119496000D01*
X155060000Y-119496000D01*
X155060000Y-118734000D01*
X154942766Y-118152626D01*
X154611974Y-117660370D01*
X154382632Y-117508000D01*
X160050559Y-117508000D01*
X159885198Y-117618491D01*
X159555703Y-118111614D01*
X159440000Y-118693293D01*
X159440000Y-120306707D01*
X159555703Y-120888386D01*
X159885198Y-121381509D01*
X160378321Y-121711004D01*
X160960000Y-121826707D01*
X161541679Y-121711004D01*
X162034802Y-121381509D01*
X162230000Y-121089375D01*
X162425198Y-121381509D01*
X162918321Y-121711004D01*
X163500000Y-121826707D01*
X164081679Y-121711004D01*
X164574802Y-121381509D01*
X164784886Y-121067097D01*
X164968026Y-121339630D01*
X165462016Y-121667827D01*
X165798270Y-121762656D01*
X166036000Y-121592494D01*
X166036000Y-119504000D01*
X166044000Y-119504000D01*
X166044000Y-121592494D01*
X166281730Y-121762656D01*
X166617984Y-121667827D01*
X167111974Y-121339630D01*
X167442766Y-120847374D01*
X167560000Y-120266000D01*
X167560000Y-119504000D01*
X166044000Y-119504000D01*
X166036000Y-119504000D01*
X166016000Y-119504000D01*
X166016000Y-119496000D01*
X166036000Y-119496000D01*
X166036000Y-117407506D01*
X166044000Y-117407506D01*
X166044000Y-119496000D01*
X167560000Y-119496000D01*
X167560000Y-118734000D01*
X167442766Y-118152626D01*
X167111974Y-117660370D01*
X166617984Y-117332173D01*
X166281730Y-117237344D01*
X166044000Y-117407506D01*
X166036000Y-117407506D01*
X165798270Y-117237344D01*
X165462016Y-117332173D01*
X164968026Y-117660370D01*
X164784886Y-117932903D01*
X164658209Y-117743318D01*
X165140433Y-117261094D01*
X165212764Y-117212764D01*
X166517527Y-115908000D01*
X170866472Y-115908000D01*
X170017236Y-116757236D01*
X169798729Y-117084255D01*
X169721999Y-117470000D01*
X169722000Y-117470005D01*
X169722000Y-117573855D01*
X169655198Y-117618491D01*
X169325703Y-118111614D01*
X169210000Y-118693293D01*
X169210000Y-120306707D01*
X169325703Y-120888386D01*
X169655198Y-121381509D01*
X170148321Y-121711004D01*
X170730000Y-121826707D01*
X171311679Y-121711004D01*
X171804802Y-121381509D01*
X172014886Y-121067097D01*
X172198026Y-121339630D01*
X172692016Y-121667827D01*
X173028270Y-121762656D01*
X173266000Y-121592494D01*
X173266000Y-119504000D01*
X173274000Y-119504000D01*
X173274000Y-121592494D01*
X173511730Y-121762656D01*
X173847984Y-121667827D01*
X174341974Y-121339630D01*
X174672766Y-120847374D01*
X174790000Y-120266000D01*
X174790000Y-119504000D01*
X173274000Y-119504000D01*
X173266000Y-119504000D01*
X173246000Y-119504000D01*
X173246000Y-119496000D01*
X173266000Y-119496000D01*
X173266000Y-117407506D01*
X173274000Y-117407506D01*
X173274000Y-119496000D01*
X174790000Y-119496000D01*
X174790000Y-118734000D01*
X174672766Y-118152626D01*
X174341974Y-117660370D01*
X173847984Y-117332173D01*
X173511730Y-117237344D01*
X173274000Y-117407506D01*
X173266000Y-117407506D01*
X173028270Y-117237344D01*
X172692016Y-117332173D01*
X172198026Y-117660370D01*
X172014886Y-117932903D01*
X171885806Y-117739722D01*
X172617528Y-117008000D01*
X180366472Y-117008000D01*
X180167801Y-117206671D01*
X180000000Y-117173293D01*
X179418321Y-117288996D01*
X178925198Y-117618491D01*
X178730000Y-117910625D01*
X178534802Y-117618491D01*
X178041679Y-117288996D01*
X177460000Y-117173293D01*
X176878321Y-117288996D01*
X176385198Y-117618491D01*
X176055703Y-118111614D01*
X175940000Y-118693293D01*
X175940000Y-120306707D01*
X176055703Y-120888386D01*
X176385198Y-121381509D01*
X176878321Y-121711004D01*
X177460000Y-121826707D01*
X178041679Y-121711004D01*
X178534802Y-121381509D01*
X178730000Y-121089375D01*
X178925198Y-121381509D01*
X179418321Y-121711004D01*
X180000000Y-121826707D01*
X180581679Y-121711004D01*
X181074802Y-121381509D01*
X181284886Y-121067097D01*
X181468026Y-121339630D01*
X181962016Y-121667827D01*
X182298270Y-121762656D01*
X182536000Y-121592494D01*
X182536000Y-119504000D01*
X182544000Y-119504000D01*
X182544000Y-121592494D01*
X182781730Y-121762656D01*
X183117984Y-121667827D01*
X183611974Y-121339630D01*
X183942766Y-120847374D01*
X184060000Y-120266000D01*
X184060000Y-119504000D01*
X182544000Y-119504000D01*
X182536000Y-119504000D01*
X182516000Y-119504000D01*
X182516000Y-119496000D01*
X182536000Y-119496000D01*
X182536000Y-119476000D01*
X182544000Y-119476000D01*
X182544000Y-119496000D01*
X184060000Y-119496000D01*
X184060000Y-118734000D01*
X183942766Y-118152626D01*
X183611974Y-117660370D01*
X183117984Y-117332173D01*
X182942769Y-117282759D01*
X185512764Y-114712764D01*
X185666378Y-114482864D01*
X186087842Y-114062135D01*
X186319736Y-113503673D01*
X186320264Y-112898980D01*
X186089345Y-112340114D01*
X185662135Y-111912158D01*
X185103673Y-111680264D01*
X184498980Y-111679736D01*
X183940114Y-111910655D01*
X183529659Y-112320394D01*
X183122135Y-111912158D01*
X182563673Y-111680264D01*
X181958980Y-111679736D01*
X181400114Y-111910655D01*
X181359298Y-111951400D01*
X180808000Y-111400102D01*
X180808000Y-106046231D01*
X180970655Y-106439886D01*
X181397865Y-106867842D01*
X181956327Y-107099736D01*
X182561020Y-107100264D01*
X183119886Y-106869345D01*
X183530341Y-106459606D01*
X183937865Y-106867842D01*
X184496327Y-107099736D01*
X185101020Y-107100264D01*
X185659886Y-106869345D01*
X186087842Y-106442135D01*
X186319736Y-105883673D01*
X186320264Y-105278980D01*
X186089345Y-104720114D01*
X185662135Y-104292158D01*
X185103673Y-104060264D01*
X184498980Y-104059736D01*
X183940114Y-104290655D01*
X183529659Y-104700394D01*
X183122135Y-104292158D01*
X182563673Y-104060264D01*
X181958980Y-104059736D01*
X181400114Y-104290655D01*
X180972158Y-104717865D01*
X180808000Y-105113201D01*
X180808000Y-95973860D01*
X180838886Y-95953985D01*
X180972796Y-95758000D01*
X186029619Y-95758000D01*
X186146015Y-95938886D01*
X186399318Y-96111960D01*
X186700000Y-96172850D01*
X188250000Y-96172850D01*
X188530898Y-96119995D01*
X188788886Y-95953985D01*
X188961960Y-95700682D01*
X189022850Y-95400000D01*
X189022850Y-94100000D01*
X188969995Y-93819102D01*
X188803985Y-93561114D01*
X188550682Y-93388040D01*
X188250000Y-93327150D01*
X186700000Y-93327150D01*
X186419102Y-93380005D01*
X186161114Y-93546015D01*
X186027204Y-93742000D01*
X180970381Y-93742000D01*
X180853985Y-93561114D01*
X180600682Y-93388040D01*
X180300000Y-93327150D01*
X178750000Y-93327150D01*
X178469102Y-93380005D01*
X178211114Y-93546015D01*
X178038040Y-93799318D01*
X177977150Y-94100000D01*
X177977150Y-95400000D01*
X178030005Y-95680898D01*
X178196015Y-95938886D01*
X178449318Y-96111960D01*
X178750000Y-96172850D01*
X178792000Y-96172850D01*
X178792000Y-111817625D01*
X178791999Y-111817630D01*
X178868729Y-112203375D01*
X179087236Y-112530394D01*
X180469604Y-113912761D01*
X180469606Y-113912764D01*
X180796625Y-114131271D01*
X181102689Y-114192151D01*
X181252000Y-114341722D01*
X181252000Y-114522473D01*
X180782472Y-114992000D01*
X174933528Y-114992000D01*
X175717528Y-114208000D01*
X176038511Y-114208000D01*
X176317865Y-114487842D01*
X176876327Y-114719736D01*
X177481020Y-114720264D01*
X178039886Y-114489345D01*
X178467842Y-114062135D01*
X178699736Y-113503673D01*
X178700264Y-112898980D01*
X178469345Y-112340114D01*
X178188000Y-112058278D01*
X178188000Y-106721489D01*
X178467842Y-106442135D01*
X178699736Y-105883673D01*
X178700264Y-105278980D01*
X178469345Y-104720114D01*
X178042135Y-104292158D01*
X177483673Y-104060264D01*
X176878980Y-104059736D01*
X176320114Y-104290655D01*
X175892158Y-104717865D01*
X175660264Y-105276327D01*
X175659736Y-105881020D01*
X175890655Y-106439886D01*
X176172000Y-106721722D01*
X176172000Y-112058511D01*
X176038278Y-112192000D01*
X175300000Y-112192000D01*
X174914255Y-112268729D01*
X174587236Y-112487236D01*
X173619779Y-113454693D01*
X173620264Y-112898980D01*
X173389345Y-112340114D01*
X173108000Y-112058278D01*
X173108000Y-106721489D01*
X173387842Y-106442135D01*
X173619736Y-105883673D01*
X173620264Y-105278980D01*
X173389345Y-104720114D01*
X173108000Y-104438278D01*
X173108000Y-103100005D01*
X173108001Y-103100000D01*
X173031271Y-102714255D01*
X172956631Y-102602549D01*
X172812764Y-102387236D01*
X172812761Y-102387234D01*
X171212764Y-100787236D01*
X170885745Y-100568729D01*
X170500000Y-100491999D01*
X170499995Y-100492000D01*
X168437527Y-100492000D01*
X167708160Y-99762632D01*
X167708160Y-96886887D01*
X167805887Y-96824001D01*
X167873527Y-96891641D01*
X168152124Y-97007040D01*
X168708840Y-97007040D01*
X168898340Y-96817540D01*
X168898340Y-95353880D01*
X168878340Y-95353880D01*
X168878340Y-95345880D01*
X168898340Y-95345880D01*
X168898340Y-93882220D01*
X168906340Y-93882220D01*
X168906340Y-95345880D01*
X168926340Y-95345880D01*
X168926340Y-95353880D01*
X168906340Y-95353880D01*
X168906340Y-96817540D01*
X169095840Y-97007040D01*
X169652556Y-97007040D01*
X169931153Y-96891641D01*
X169998801Y-96823993D01*
X170199318Y-96961000D01*
X170500000Y-97021890D01*
X171698880Y-97021890D01*
X171979778Y-96969035D01*
X172237766Y-96803025D01*
X172410840Y-96549722D01*
X172471730Y-96249040D01*
X172471730Y-94450720D01*
X172927550Y-94450720D01*
X172927550Y-96249040D01*
X172980405Y-96529938D01*
X173146415Y-96787926D01*
X173292000Y-96887400D01*
X173292000Y-97968658D01*
X173242184Y-98088628D01*
X173241817Y-98509526D01*
X173402549Y-98898526D01*
X173699909Y-99196405D01*
X174088628Y-99357816D01*
X174509526Y-99358183D01*
X174898526Y-99197451D01*
X175196405Y-98900091D01*
X175357816Y-98511372D01*
X175358183Y-98090474D01*
X175308000Y-97969022D01*
X175308000Y-96886784D01*
X175438166Y-96803025D01*
X175611240Y-96549722D01*
X175672130Y-96249040D01*
X175672130Y-94450720D01*
X175619275Y-94169822D01*
X175453265Y-93911834D01*
X175199962Y-93738760D01*
X174899280Y-93677870D01*
X173700400Y-93677870D01*
X173419502Y-93730725D01*
X173161514Y-93896735D01*
X172988440Y-94150038D01*
X172927550Y-94450720D01*
X172471730Y-94450720D01*
X172418875Y-94169822D01*
X172252865Y-93911834D01*
X171999562Y-93738760D01*
X171698880Y-93677870D01*
X170500000Y-93677870D01*
X170219102Y-93730725D01*
X169996804Y-93873770D01*
X169931153Y-93808119D01*
X169652556Y-93692720D01*
X169095840Y-93692720D01*
X168906340Y-93882220D01*
X168898340Y-93882220D01*
X168708840Y-93692720D01*
X168152124Y-93692720D01*
X167873527Y-93808119D01*
X167803817Y-93877829D01*
X167708160Y-93812470D01*
X167708160Y-91187127D01*
X167805887Y-91124241D01*
X167873527Y-91191881D01*
X168152124Y-91307280D01*
X168708840Y-91307280D01*
X168898340Y-91117780D01*
X168898340Y-89654120D01*
X168878340Y-89654120D01*
X168878340Y-89646120D01*
X168898340Y-89646120D01*
X168898340Y-88182460D01*
X168906340Y-88182460D01*
X168906340Y-89646120D01*
X168926340Y-89646120D01*
X168926340Y-89654120D01*
X168906340Y-89654120D01*
X168906340Y-91117780D01*
X169095840Y-91307280D01*
X169652556Y-91307280D01*
X169931153Y-91191881D01*
X169998801Y-91124233D01*
X170199318Y-91261240D01*
X170500000Y-91322130D01*
X171698880Y-91322130D01*
X171979778Y-91269275D01*
X172237766Y-91103265D01*
X172410840Y-90849962D01*
X172471730Y-90549280D01*
X172471730Y-88750960D01*
X172418875Y-88470062D01*
X172252865Y-88212074D01*
X171999562Y-88039000D01*
X171698880Y-87978110D01*
X170500000Y-87978110D01*
X170219102Y-88030965D01*
X169996804Y-88174010D01*
X169931153Y-88108359D01*
X169652556Y-87992960D01*
X169095840Y-87992960D01*
X168906340Y-88182460D01*
X168898340Y-88182460D01*
X168708840Y-87992960D01*
X168152124Y-87992960D01*
X167873527Y-88108359D01*
X167803817Y-88178069D01*
X167600282Y-88039000D01*
X167299600Y-87978110D01*
X166100720Y-87978110D01*
X165819822Y-88030965D01*
X165561834Y-88196975D01*
X165388760Y-88450278D01*
X165327870Y-88750960D01*
X165327870Y-90549280D01*
X165380725Y-90830178D01*
X165546735Y-91088166D01*
X165692160Y-91187530D01*
X165692160Y-93812873D01*
X165561834Y-93896735D01*
X165388760Y-94150038D01*
X165327870Y-94450720D01*
X165327870Y-96249040D01*
X165380725Y-96529938D01*
X165546735Y-96787926D01*
X165692160Y-96887290D01*
X165692160Y-100180155D01*
X165692159Y-100180160D01*
X165768889Y-100565905D01*
X165987396Y-100892924D01*
X167307234Y-102212761D01*
X167307236Y-102212764D01*
X167634255Y-102431271D01*
X168020000Y-102508001D01*
X168020005Y-102508000D01*
X170082472Y-102508000D01*
X171092000Y-103517527D01*
X171092000Y-104438511D01*
X170812158Y-104717865D01*
X170580264Y-105276327D01*
X170579736Y-105881020D01*
X170810655Y-106439886D01*
X171092000Y-106721722D01*
X171092000Y-112058511D01*
X170812158Y-112337865D01*
X170580264Y-112896327D01*
X170579736Y-113501020D01*
X170741286Y-113892000D01*
X168358488Y-113892000D01*
X168519736Y-113503673D01*
X168520264Y-112898980D01*
X168289345Y-112340114D01*
X167862135Y-111912158D01*
X167303673Y-111680264D01*
X166698980Y-111679736D01*
X166140114Y-111910655D01*
X165712158Y-112337865D01*
X165480264Y-112896327D01*
X165479736Y-113501020D01*
X165681918Y-113990336D01*
X165387236Y-114187236D01*
X165387234Y-114187239D01*
X164082472Y-115492000D01*
X159917527Y-115492000D01*
X159753000Y-115327472D01*
X159753000Y-115250000D01*
X163800000Y-115250000D01*
X163897264Y-115230304D01*
X163979202Y-115174318D01*
X164032903Y-115090864D01*
X164050000Y-115000000D01*
X164050000Y-105881020D01*
X165499736Y-105881020D01*
X165730655Y-106439886D01*
X166157865Y-106867842D01*
X166716327Y-107099736D01*
X167321020Y-107100264D01*
X167879886Y-106869345D01*
X168307842Y-106442135D01*
X168539736Y-105883673D01*
X168540264Y-105278980D01*
X168309345Y-104720114D01*
X167882135Y-104292158D01*
X167323673Y-104060264D01*
X166718980Y-104059736D01*
X166160114Y-104290655D01*
X165732158Y-104717865D01*
X165500264Y-105276327D01*
X165499736Y-105881020D01*
X164050000Y-105881020D01*
X164050000Y-81396347D01*
X167614250Y-81396347D01*
X167614250Y-83603653D01*
X167751705Y-84294684D01*
X168143142Y-84880511D01*
X168728969Y-85271948D01*
X169420000Y-85409403D01*
X170111031Y-85271948D01*
X170696858Y-84880511D01*
X171088295Y-84294684D01*
X171225750Y-83603653D01*
X171225750Y-81396347D01*
X172694250Y-81396347D01*
X172694250Y-83603653D01*
X172831705Y-84294684D01*
X173223142Y-84880511D01*
X173291840Y-84926414D01*
X173291840Y-88113113D01*
X173161514Y-88196975D01*
X172988440Y-88450278D01*
X172927550Y-88750960D01*
X172927550Y-90549280D01*
X172980405Y-90830178D01*
X173146415Y-91088166D01*
X173399718Y-91261240D01*
X173700400Y-91322130D01*
X174899280Y-91322130D01*
X175180178Y-91269275D01*
X175438166Y-91103265D01*
X175611240Y-90849962D01*
X175672130Y-90549280D01*
X175672130Y-90443500D01*
X177992000Y-90443500D01*
X177992000Y-91050775D01*
X178107398Y-91329372D01*
X178320627Y-91542601D01*
X178599224Y-91658000D01*
X179331500Y-91658000D01*
X179521000Y-91468500D01*
X179521000Y-90254000D01*
X179529000Y-90254000D01*
X179529000Y-91468500D01*
X179718500Y-91658000D01*
X180450776Y-91658000D01*
X180729373Y-91542601D01*
X180942602Y-91329372D01*
X181058000Y-91050775D01*
X181058000Y-90443500D01*
X185942000Y-90443500D01*
X185942000Y-91050775D01*
X186057398Y-91329372D01*
X186270627Y-91542601D01*
X186549224Y-91658000D01*
X187281500Y-91658000D01*
X187471000Y-91468500D01*
X187471000Y-90254000D01*
X187479000Y-90254000D01*
X187479000Y-91468500D01*
X187668500Y-91658000D01*
X188400776Y-91658000D01*
X188679373Y-91542601D01*
X188892602Y-91329372D01*
X189008000Y-91050775D01*
X189008000Y-90443500D01*
X188818500Y-90254000D01*
X187479000Y-90254000D01*
X187471000Y-90254000D01*
X186131500Y-90254000D01*
X185942000Y-90443500D01*
X181058000Y-90443500D01*
X180868500Y-90254000D01*
X179529000Y-90254000D01*
X179521000Y-90254000D01*
X178181500Y-90254000D01*
X177992000Y-90443500D01*
X175672130Y-90443500D01*
X175672130Y-89449225D01*
X177992000Y-89449225D01*
X177992000Y-90056500D01*
X178181500Y-90246000D01*
X179521000Y-90246000D01*
X179521000Y-89031500D01*
X179529000Y-89031500D01*
X179529000Y-90246000D01*
X180868500Y-90246000D01*
X181058000Y-90056500D01*
X181058000Y-89449225D01*
X185942000Y-89449225D01*
X185942000Y-90056500D01*
X186131500Y-90246000D01*
X187471000Y-90246000D01*
X187471000Y-89031500D01*
X187479000Y-89031500D01*
X187479000Y-90246000D01*
X188818500Y-90246000D01*
X189008000Y-90056500D01*
X189008000Y-89449225D01*
X188892602Y-89170628D01*
X188679373Y-88957399D01*
X188400776Y-88842000D01*
X187668500Y-88842000D01*
X187479000Y-89031500D01*
X187471000Y-89031500D01*
X187281500Y-88842000D01*
X186549224Y-88842000D01*
X186270627Y-88957399D01*
X186057398Y-89170628D01*
X185942000Y-89449225D01*
X181058000Y-89449225D01*
X180942602Y-89170628D01*
X180729373Y-88957399D01*
X180450776Y-88842000D01*
X179718500Y-88842000D01*
X179529000Y-89031500D01*
X179521000Y-89031500D01*
X179331500Y-88842000D01*
X178599224Y-88842000D01*
X178320627Y-88957399D01*
X178107398Y-89170628D01*
X177992000Y-89449225D01*
X175672130Y-89449225D01*
X175672130Y-88750960D01*
X175619275Y-88470062D01*
X175453265Y-88212074D01*
X175307840Y-88112710D01*
X175307840Y-85193899D01*
X175776858Y-84880511D01*
X176168295Y-84294684D01*
X176305750Y-83603653D01*
X176305750Y-82504000D01*
X177774250Y-82504000D01*
X177774250Y-83551750D01*
X177913235Y-84242476D01*
X178305970Y-84827436D01*
X178892664Y-85217576D01*
X179293568Y-85330639D01*
X179576000Y-85163995D01*
X179576000Y-82504000D01*
X179584000Y-82504000D01*
X179584000Y-85163995D01*
X179866432Y-85330639D01*
X180267336Y-85217576D01*
X180854030Y-84827436D01*
X181246765Y-84242476D01*
X181385750Y-83551750D01*
X181385750Y-82504000D01*
X179584000Y-82504000D01*
X179576000Y-82504000D01*
X177774250Y-82504000D01*
X176305750Y-82504000D01*
X176305750Y-81448250D01*
X177774250Y-81448250D01*
X177774250Y-82496000D01*
X179576000Y-82496000D01*
X179576000Y-79836005D01*
X179584000Y-79836005D01*
X179584000Y-82496000D01*
X181385750Y-82496000D01*
X181385750Y-81448250D01*
X181246765Y-80757524D01*
X180854030Y-80172564D01*
X180267336Y-79782424D01*
X179866432Y-79669361D01*
X179584000Y-79836005D01*
X179576000Y-79836005D01*
X179293568Y-79669361D01*
X178892664Y-79782424D01*
X178305970Y-80172564D01*
X177913235Y-80757524D01*
X177774250Y-81448250D01*
X176305750Y-81448250D01*
X176305750Y-81396347D01*
X176168295Y-80705316D01*
X175776858Y-80119489D01*
X175191031Y-79728052D01*
X174500000Y-79590597D01*
X173808969Y-79728052D01*
X173223142Y-80119489D01*
X172831705Y-80705316D01*
X172694250Y-81396347D01*
X171225750Y-81396347D01*
X171088295Y-80705316D01*
X170696858Y-80119489D01*
X170111031Y-79728052D01*
X169420000Y-79590597D01*
X168728969Y-79728052D01*
X168143142Y-80119489D01*
X167751705Y-80705316D01*
X167614250Y-81396347D01*
X164050000Y-81396347D01*
X164050000Y-78508000D01*
X173168658Y-78508000D01*
X173288628Y-78557816D01*
X173288628Y-78557816D01*
G37*
X173288628Y-78557816D02*
X173709526Y-78558183D01*
X173830978Y-78508000D01*
X183168658Y-78508000D01*
X183288628Y-78557816D01*
X183709526Y-78558183D01*
X183830978Y-78508000D01*
X184842811Y-78508000D01*
X184742653Y-78749208D01*
X184741349Y-80244233D01*
X185312265Y-81625955D01*
X186368484Y-82684020D01*
X187639129Y-83211638D01*
X187212158Y-83637865D01*
X186980264Y-84196327D01*
X186979736Y-84801020D01*
X187210655Y-85359886D01*
X187637865Y-85787842D01*
X188196327Y-86019736D01*
X188801020Y-86020264D01*
X189359886Y-85789345D01*
X189492000Y-85657461D01*
X189492000Y-93168658D01*
X189442184Y-93288628D01*
X189441817Y-93709526D01*
X189492000Y-93830978D01*
X189492000Y-103168658D01*
X189442184Y-103288628D01*
X189441817Y-103709526D01*
X189492000Y-103830978D01*
X189492000Y-113168658D01*
X189442184Y-113288628D01*
X189441817Y-113709526D01*
X189492000Y-113830978D01*
X189492000Y-115342250D01*
X189362135Y-115212158D01*
X188803673Y-114980264D01*
X188198980Y-114979736D01*
X187640114Y-115210655D01*
X187212158Y-115637865D01*
X186980264Y-116196327D01*
X186979736Y-116801020D01*
X187210655Y-117359886D01*
X187637865Y-117787842D01*
X187640549Y-117788956D01*
X186374045Y-118312265D01*
X185315980Y-119368484D01*
X184742653Y-120749208D01*
X184741349Y-122244233D01*
X184843724Y-122492000D01*
X178831342Y-122492000D01*
X178711372Y-122442184D01*
X178290474Y-122441817D01*
X178169022Y-122492000D01*
X168831342Y-122492000D01*
X168711372Y-122442184D01*
X168290474Y-122441817D01*
X168169022Y-122492000D01*
X158831342Y-122492000D01*
X158711372Y-122442184D01*
X158290474Y-122441817D01*
X158169022Y-122492000D01*
X148831342Y-122492000D01*
X148711372Y-122442184D01*
X148290474Y-122441817D01*
X148169022Y-122492000D01*
X128831342Y-122492000D01*
X128711372Y-122442184D01*
X128290474Y-122441817D01*
X128169022Y-122492000D01*
X120157189Y-122492000D01*
X120257347Y-122250792D01*
X120258651Y-120755767D01*
X119687735Y-119374045D01*
X118631516Y-118315980D01*
X117360871Y-117788362D01*
X117787842Y-117362135D01*
X118019736Y-116803673D01*
X118020264Y-116198980D01*
X117789345Y-115640114D01*
X117399911Y-115250000D01*
X124992000Y-115250000D01*
X124992000Y-117573855D01*
X124925198Y-117618491D01*
X124730000Y-117910625D01*
X124534802Y-117618491D01*
X124041679Y-117288996D01*
X123460000Y-117173293D01*
X122878321Y-117288996D01*
X122385198Y-117618491D01*
X122055703Y-118111614D01*
X121940000Y-118693293D01*
X121940000Y-120306707D01*
X122055703Y-120888386D01*
X122385198Y-121381509D01*
X122878321Y-121711004D01*
X123460000Y-121826707D01*
X124041679Y-121711004D01*
X124534802Y-121381509D01*
X124730000Y-121089375D01*
X124925198Y-121381509D01*
X125418321Y-121711004D01*
X126000000Y-121826707D01*
X126581679Y-121711004D01*
X127074802Y-121381509D01*
X127284886Y-121067097D01*
X127468026Y-121339630D01*
X127962016Y-121667827D01*
X128298270Y-121762656D01*
X128536000Y-121592494D01*
X128536000Y-119504000D01*
X128544000Y-119504000D01*
X128544000Y-121592494D01*
X128781730Y-121762656D01*
X129117984Y-121667827D01*
X129611974Y-121339630D01*
X129942766Y-120847374D01*
X130060000Y-120266000D01*
X130060000Y-119504000D01*
X128544000Y-119504000D01*
X128536000Y-119504000D01*
X128516000Y-119504000D01*
X128516000Y-119496000D01*
X128536000Y-119496000D01*
X128536000Y-117407506D01*
X128544000Y-117407506D01*
X128544000Y-119496000D01*
X130060000Y-119496000D01*
X130060000Y-118734000D01*
X129942766Y-118152626D01*
X129611974Y-117660370D01*
X129117984Y-117332173D01*
X128781730Y-117237344D01*
X128544000Y-117407506D01*
X128536000Y-117407506D01*
X128298270Y-117237344D01*
X127962016Y-117332173D01*
X127468026Y-117660370D01*
X127284886Y-117932903D01*
X127074802Y-117618491D01*
X127008000Y-117573855D01*
X127008000Y-115250000D01*
X157737000Y-115250000D01*
X157737000Y-115492000D01*
X139476000Y-115492000D01*
X139090255Y-115568729D01*
X138763236Y-115787236D01*
X138763234Y-115787239D01*
X137787236Y-116763236D01*
X137568729Y-117090255D01*
X137491999Y-117476000D01*
X137492000Y-117476005D01*
X137492000Y-117573855D01*
X137425198Y-117618491D01*
X137230000Y-117910625D01*
X137034802Y-117618491D01*
X136541679Y-117288996D01*
X135960000Y-117173293D01*
X135378321Y-117288996D01*
X134885198Y-117618491D01*
X134555703Y-118111614D01*
X134440000Y-118693293D01*
X134440000Y-120306707D01*
X134555703Y-120888386D01*
X134885198Y-121381509D01*
X135378321Y-121711004D01*
X135960000Y-121826707D01*
X136541679Y-121711004D01*
X137034802Y-121381509D01*
X137230000Y-121089375D01*
X137425198Y-121381509D01*
X137918321Y-121711004D01*
X138500000Y-121826707D01*
X139081679Y-121711004D01*
X139574802Y-121381509D01*
X139784886Y-121067097D01*
X139968026Y-121339630D01*
X140462016Y-121667827D01*
X140798270Y-121762656D01*
X141036000Y-121592494D01*
X141036000Y-119504000D01*
X141044000Y-119504000D01*
X141044000Y-121592494D01*
X141281730Y-121762656D01*
X141617984Y-121667827D01*
X142111974Y-121339630D01*
X142442766Y-120847374D01*
X142560000Y-120266000D01*
X142560000Y-119504000D01*
X141044000Y-119504000D01*
X141036000Y-119504000D01*
X141016000Y-119504000D01*
X141016000Y-119496000D01*
X141036000Y-119496000D01*
X141036000Y-119476000D01*
X141044000Y-119476000D01*
X141044000Y-119496000D01*
X142560000Y-119496000D01*
X142560000Y-118734000D01*
X142442766Y-118152626D01*
X142111974Y-117660370D01*
X141882632Y-117508000D01*
X147550559Y-117508000D01*
X147385198Y-117618491D01*
X147055703Y-118111614D01*
X146940000Y-118693293D01*
X146940000Y-120306707D01*
X147055703Y-120888386D01*
X147385198Y-121381509D01*
X147878321Y-121711004D01*
X148460000Y-121826707D01*
X149041679Y-121711004D01*
X149534802Y-121381509D01*
X149730000Y-121089375D01*
X149925198Y-121381509D01*
X150418321Y-121711004D01*
X151000000Y-121826707D01*
X151581679Y-121711004D01*
X152074802Y-121381509D01*
X152284886Y-121067097D01*
X152468026Y-121339630D01*
X152962016Y-121667827D01*
X153298270Y-121762656D01*
X153536000Y-121592494D01*
X153536000Y-119504000D01*
X153544000Y-119504000D01*
X153544000Y-121592494D01*
X153781730Y-121762656D01*
X154117984Y-121667827D01*
X154611974Y-121339630D01*
X154942766Y-120847374D01*
X155060000Y-120266000D01*
X155060000Y-119504000D01*
X153544000Y-119504000D01*
X153536000Y-119504000D01*
X153516000Y-119504000D01*
X153516000Y-119496000D01*
X153536000Y-119496000D01*
X153536000Y-119476000D01*
X153544000Y-119476000D01*
X153544000Y-119496000D01*
X155060000Y-119496000D01*
X155060000Y-118734000D01*
X154942766Y-118152626D01*
X154611974Y-117660370D01*
X154382632Y-117508000D01*
X160050559Y-117508000D01*
X159885198Y-117618491D01*
X159555703Y-118111614D01*
X159440000Y-118693293D01*
X159440000Y-120306707D01*
X159555703Y-120888386D01*
X159885198Y-121381509D01*
X160378321Y-121711004D01*
X160960000Y-121826707D01*
X161541679Y-121711004D01*
X162034802Y-121381509D01*
X162230000Y-121089375D01*
X162425198Y-121381509D01*
X162918321Y-121711004D01*
X163500000Y-121826707D01*
X164081679Y-121711004D01*
X164574802Y-121381509D01*
X164784886Y-121067097D01*
X164968026Y-121339630D01*
X165462016Y-121667827D01*
X165798270Y-121762656D01*
X166036000Y-121592494D01*
X166036000Y-119504000D01*
X166044000Y-119504000D01*
X166044000Y-121592494D01*
X166281730Y-121762656D01*
X166617984Y-121667827D01*
X167111974Y-121339630D01*
X167442766Y-120847374D01*
X167560000Y-120266000D01*
X167560000Y-119504000D01*
X166044000Y-119504000D01*
X166036000Y-119504000D01*
X166016000Y-119504000D01*
X166016000Y-119496000D01*
X166036000Y-119496000D01*
X166036000Y-117407506D01*
X166044000Y-117407506D01*
X166044000Y-119496000D01*
X167560000Y-119496000D01*
X167560000Y-118734000D01*
X167442766Y-118152626D01*
X167111974Y-117660370D01*
X166617984Y-117332173D01*
X166281730Y-117237344D01*
X166044000Y-117407506D01*
X166036000Y-117407506D01*
X165798270Y-117237344D01*
X165462016Y-117332173D01*
X164968026Y-117660370D01*
X164784886Y-117932903D01*
X164658209Y-117743318D01*
X165140433Y-117261094D01*
X165212764Y-117212764D01*
X166517527Y-115908000D01*
X170866472Y-115908000D01*
X170017236Y-116757236D01*
X169798729Y-117084255D01*
X169721999Y-117470000D01*
X169722000Y-117470005D01*
X169722000Y-117573855D01*
X169655198Y-117618491D01*
X169325703Y-118111614D01*
X169210000Y-118693293D01*
X169210000Y-120306707D01*
X169325703Y-120888386D01*
X169655198Y-121381509D01*
X170148321Y-121711004D01*
X170730000Y-121826707D01*
X171311679Y-121711004D01*
X171804802Y-121381509D01*
X172014886Y-121067097D01*
X172198026Y-121339630D01*
X172692016Y-121667827D01*
X173028270Y-121762656D01*
X173266000Y-121592494D01*
X173266000Y-119504000D01*
X173274000Y-119504000D01*
X173274000Y-121592494D01*
X173511730Y-121762656D01*
X173847984Y-121667827D01*
X174341974Y-121339630D01*
X174672766Y-120847374D01*
X174790000Y-120266000D01*
X174790000Y-119504000D01*
X173274000Y-119504000D01*
X173266000Y-119504000D01*
X173246000Y-119504000D01*
X173246000Y-119496000D01*
X173266000Y-119496000D01*
X173266000Y-117407506D01*
X173274000Y-117407506D01*
X173274000Y-119496000D01*
X174790000Y-119496000D01*
X174790000Y-118734000D01*
X174672766Y-118152626D01*
X174341974Y-117660370D01*
X173847984Y-117332173D01*
X173511730Y-117237344D01*
X173274000Y-117407506D01*
X173266000Y-117407506D01*
X173028270Y-117237344D01*
X172692016Y-117332173D01*
X172198026Y-117660370D01*
X172014886Y-117932903D01*
X171885806Y-117739722D01*
X172617528Y-117008000D01*
X180366472Y-117008000D01*
X180167801Y-117206671D01*
X180000000Y-117173293D01*
X179418321Y-117288996D01*
X178925198Y-117618491D01*
X178730000Y-117910625D01*
X178534802Y-117618491D01*
X178041679Y-117288996D01*
X177460000Y-117173293D01*
X176878321Y-117288996D01*
X176385198Y-117618491D01*
X176055703Y-118111614D01*
X175940000Y-118693293D01*
X175940000Y-120306707D01*
X176055703Y-120888386D01*
X176385198Y-121381509D01*
X176878321Y-121711004D01*
X177460000Y-121826707D01*
X178041679Y-121711004D01*
X178534802Y-121381509D01*
X178730000Y-121089375D01*
X178925198Y-121381509D01*
X179418321Y-121711004D01*
X180000000Y-121826707D01*
X180581679Y-121711004D01*
X181074802Y-121381509D01*
X181284886Y-121067097D01*
X181468026Y-121339630D01*
X181962016Y-121667827D01*
X182298270Y-121762656D01*
X182536000Y-121592494D01*
X182536000Y-119504000D01*
X182544000Y-119504000D01*
X182544000Y-121592494D01*
X182781730Y-121762656D01*
X183117984Y-121667827D01*
X183611974Y-121339630D01*
X183942766Y-120847374D01*
X184060000Y-120266000D01*
X184060000Y-119504000D01*
X182544000Y-119504000D01*
X182536000Y-119504000D01*
X182516000Y-119504000D01*
X182516000Y-119496000D01*
X182536000Y-119496000D01*
X182536000Y-119476000D01*
X182544000Y-119476000D01*
X182544000Y-119496000D01*
X184060000Y-119496000D01*
X184060000Y-118734000D01*
X183942766Y-118152626D01*
X183611974Y-117660370D01*
X183117984Y-117332173D01*
X182942769Y-117282759D01*
X185512764Y-114712764D01*
X185666378Y-114482864D01*
X186087842Y-114062135D01*
X186319736Y-113503673D01*
X186320264Y-112898980D01*
X186089345Y-112340114D01*
X185662135Y-111912158D01*
X185103673Y-111680264D01*
X184498980Y-111679736D01*
X183940114Y-111910655D01*
X183529659Y-112320394D01*
X183122135Y-111912158D01*
X182563673Y-111680264D01*
X181958980Y-111679736D01*
X181400114Y-111910655D01*
X181359298Y-111951400D01*
X180808000Y-111400102D01*
X180808000Y-106046231D01*
X180970655Y-106439886D01*
X181397865Y-106867842D01*
X181956327Y-107099736D01*
X182561020Y-107100264D01*
X183119886Y-106869345D01*
X183530341Y-106459606D01*
X183937865Y-106867842D01*
X184496327Y-107099736D01*
X185101020Y-107100264D01*
X185659886Y-106869345D01*
X186087842Y-106442135D01*
X186319736Y-105883673D01*
X186320264Y-105278980D01*
X186089345Y-104720114D01*
X185662135Y-104292158D01*
X185103673Y-104060264D01*
X184498980Y-104059736D01*
X183940114Y-104290655D01*
X183529659Y-104700394D01*
X183122135Y-104292158D01*
X182563673Y-104060264D01*
X181958980Y-104059736D01*
X181400114Y-104290655D01*
X180972158Y-104717865D01*
X180808000Y-105113201D01*
X180808000Y-95973860D01*
X180838886Y-95953985D01*
X180972796Y-95758000D01*
X186029619Y-95758000D01*
X186146015Y-95938886D01*
X186399318Y-96111960D01*
X186700000Y-96172850D01*
X188250000Y-96172850D01*
X188530898Y-96119995D01*
X188788886Y-95953985D01*
X188961960Y-95700682D01*
X189022850Y-95400000D01*
X189022850Y-94100000D01*
X188969995Y-93819102D01*
X188803985Y-93561114D01*
X188550682Y-93388040D01*
X188250000Y-93327150D01*
X186700000Y-93327150D01*
X186419102Y-93380005D01*
X186161114Y-93546015D01*
X186027204Y-93742000D01*
X180970381Y-93742000D01*
X180853985Y-93561114D01*
X180600682Y-93388040D01*
X180300000Y-93327150D01*
X178750000Y-93327150D01*
X178469102Y-93380005D01*
X178211114Y-93546015D01*
X178038040Y-93799318D01*
X177977150Y-94100000D01*
X177977150Y-95400000D01*
X178030005Y-95680898D01*
X178196015Y-95938886D01*
X178449318Y-96111960D01*
X178750000Y-96172850D01*
X178792000Y-96172850D01*
X178792000Y-111817625D01*
X178791999Y-111817630D01*
X178868729Y-112203375D01*
X179087236Y-112530394D01*
X180469604Y-113912761D01*
X180469606Y-113912764D01*
X180796625Y-114131271D01*
X181102689Y-114192151D01*
X181252000Y-114341722D01*
X181252000Y-114522473D01*
X180782472Y-114992000D01*
X174933528Y-114992000D01*
X175717528Y-114208000D01*
X176038511Y-114208000D01*
X176317865Y-114487842D01*
X176876327Y-114719736D01*
X177481020Y-114720264D01*
X178039886Y-114489345D01*
X178467842Y-114062135D01*
X178699736Y-113503673D01*
X178700264Y-112898980D01*
X178469345Y-112340114D01*
X178188000Y-112058278D01*
X178188000Y-106721489D01*
X178467842Y-106442135D01*
X178699736Y-105883673D01*
X178700264Y-105278980D01*
X178469345Y-104720114D01*
X178042135Y-104292158D01*
X177483673Y-104060264D01*
X176878980Y-104059736D01*
X176320114Y-104290655D01*
X175892158Y-104717865D01*
X175660264Y-105276327D01*
X175659736Y-105881020D01*
X175890655Y-106439886D01*
X176172000Y-106721722D01*
X176172000Y-112058511D01*
X176038278Y-112192000D01*
X175300000Y-112192000D01*
X174914255Y-112268729D01*
X174587236Y-112487236D01*
X173619779Y-113454693D01*
X173620264Y-112898980D01*
X173389345Y-112340114D01*
X173108000Y-112058278D01*
X173108000Y-106721489D01*
X173387842Y-106442135D01*
X173619736Y-105883673D01*
X173620264Y-105278980D01*
X173389345Y-104720114D01*
X173108000Y-104438278D01*
X173108000Y-103100005D01*
X173108001Y-103100000D01*
X173031271Y-102714255D01*
X172956631Y-102602549D01*
X172812764Y-102387236D01*
X172812761Y-102387234D01*
X171212764Y-100787236D01*
X170885745Y-100568729D01*
X170500000Y-100491999D01*
X170499995Y-100492000D01*
X168437527Y-100492000D01*
X167708160Y-99762632D01*
X167708160Y-96886887D01*
X167805887Y-96824001D01*
X167873527Y-96891641D01*
X168152124Y-97007040D01*
X168708840Y-97007040D01*
X168898340Y-96817540D01*
X168898340Y-95353880D01*
X168878340Y-95353880D01*
X168878340Y-95345880D01*
X168898340Y-95345880D01*
X168898340Y-93882220D01*
X168906340Y-93882220D01*
X168906340Y-95345880D01*
X168926340Y-95345880D01*
X168926340Y-95353880D01*
X168906340Y-95353880D01*
X168906340Y-96817540D01*
X169095840Y-97007040D01*
X169652556Y-97007040D01*
X169931153Y-96891641D01*
X169998801Y-96823993D01*
X170199318Y-96961000D01*
X170500000Y-97021890D01*
X171698880Y-97021890D01*
X171979778Y-96969035D01*
X172237766Y-96803025D01*
X172410840Y-96549722D01*
X172471730Y-96249040D01*
X172471730Y-94450720D01*
X172927550Y-94450720D01*
X172927550Y-96249040D01*
X172980405Y-96529938D01*
X173146415Y-96787926D01*
X173292000Y-96887400D01*
X173292000Y-97968658D01*
X173242184Y-98088628D01*
X173241817Y-98509526D01*
X173402549Y-98898526D01*
X173699909Y-99196405D01*
X174088628Y-99357816D01*
X174509526Y-99358183D01*
X174898526Y-99197451D01*
X175196405Y-98900091D01*
X175357816Y-98511372D01*
X175358183Y-98090474D01*
X175308000Y-97969022D01*
X175308000Y-96886784D01*
X175438166Y-96803025D01*
X175611240Y-96549722D01*
X175672130Y-96249040D01*
X175672130Y-94450720D01*
X175619275Y-94169822D01*
X175453265Y-93911834D01*
X175199962Y-93738760D01*
X174899280Y-93677870D01*
X173700400Y-93677870D01*
X173419502Y-93730725D01*
X173161514Y-93896735D01*
X172988440Y-94150038D01*
X172927550Y-94450720D01*
X172471730Y-94450720D01*
X172418875Y-94169822D01*
X172252865Y-93911834D01*
X171999562Y-93738760D01*
X171698880Y-93677870D01*
X170500000Y-93677870D01*
X170219102Y-93730725D01*
X169996804Y-93873770D01*
X169931153Y-93808119D01*
X169652556Y-93692720D01*
X169095840Y-93692720D01*
X168906340Y-93882220D01*
X168898340Y-93882220D01*
X168708840Y-93692720D01*
X168152124Y-93692720D01*
X167873527Y-93808119D01*
X167803817Y-93877829D01*
X167708160Y-93812470D01*
X167708160Y-91187127D01*
X167805887Y-91124241D01*
X167873527Y-91191881D01*
X168152124Y-91307280D01*
X168708840Y-91307280D01*
X168898340Y-91117780D01*
X168898340Y-89654120D01*
X168878340Y-89654120D01*
X168878340Y-89646120D01*
X168898340Y-89646120D01*
X168898340Y-88182460D01*
X168906340Y-88182460D01*
X168906340Y-89646120D01*
X168926340Y-89646120D01*
X168926340Y-89654120D01*
X168906340Y-89654120D01*
X168906340Y-91117780D01*
X169095840Y-91307280D01*
X169652556Y-91307280D01*
X169931153Y-91191881D01*
X169998801Y-91124233D01*
X170199318Y-91261240D01*
X170500000Y-91322130D01*
X171698880Y-91322130D01*
X171979778Y-91269275D01*
X172237766Y-91103265D01*
X172410840Y-90849962D01*
X172471730Y-90549280D01*
X172471730Y-88750960D01*
X172418875Y-88470062D01*
X172252865Y-88212074D01*
X171999562Y-88039000D01*
X171698880Y-87978110D01*
X170500000Y-87978110D01*
X170219102Y-88030965D01*
X169996804Y-88174010D01*
X169931153Y-88108359D01*
X169652556Y-87992960D01*
X169095840Y-87992960D01*
X168906340Y-88182460D01*
X168898340Y-88182460D01*
X168708840Y-87992960D01*
X168152124Y-87992960D01*
X167873527Y-88108359D01*
X167803817Y-88178069D01*
X167600282Y-88039000D01*
X167299600Y-87978110D01*
X166100720Y-87978110D01*
X165819822Y-88030965D01*
X165561834Y-88196975D01*
X165388760Y-88450278D01*
X165327870Y-88750960D01*
X165327870Y-90549280D01*
X165380725Y-90830178D01*
X165546735Y-91088166D01*
X165692160Y-91187530D01*
X165692160Y-93812873D01*
X165561834Y-93896735D01*
X165388760Y-94150038D01*
X165327870Y-94450720D01*
X165327870Y-96249040D01*
X165380725Y-96529938D01*
X165546735Y-96787926D01*
X165692160Y-96887290D01*
X165692160Y-100180155D01*
X165692159Y-100180160D01*
X165768889Y-100565905D01*
X165987396Y-100892924D01*
X167307234Y-102212761D01*
X167307236Y-102212764D01*
X167634255Y-102431271D01*
X168020000Y-102508001D01*
X168020005Y-102508000D01*
X170082472Y-102508000D01*
X171092000Y-103517527D01*
X171092000Y-104438511D01*
X170812158Y-104717865D01*
X170580264Y-105276327D01*
X170579736Y-105881020D01*
X170810655Y-106439886D01*
X171092000Y-106721722D01*
X171092000Y-112058511D01*
X170812158Y-112337865D01*
X170580264Y-112896327D01*
X170579736Y-113501020D01*
X170741286Y-113892000D01*
X168358488Y-113892000D01*
X168519736Y-113503673D01*
X168520264Y-112898980D01*
X168289345Y-112340114D01*
X167862135Y-111912158D01*
X167303673Y-111680264D01*
X166698980Y-111679736D01*
X166140114Y-111910655D01*
X165712158Y-112337865D01*
X165480264Y-112896327D01*
X165479736Y-113501020D01*
X165681918Y-113990336D01*
X165387236Y-114187236D01*
X165387234Y-114187239D01*
X164082472Y-115492000D01*
X159917527Y-115492000D01*
X159753000Y-115327472D01*
X159753000Y-115250000D01*
X163800000Y-115250000D01*
X163897264Y-115230304D01*
X163979202Y-115174318D01*
X164032903Y-115090864D01*
X164050000Y-115000000D01*
X164050000Y-105881020D01*
X165499736Y-105881020D01*
X165730655Y-106439886D01*
X166157865Y-106867842D01*
X166716327Y-107099736D01*
X167321020Y-107100264D01*
X167879886Y-106869345D01*
X168307842Y-106442135D01*
X168539736Y-105883673D01*
X168540264Y-105278980D01*
X168309345Y-104720114D01*
X167882135Y-104292158D01*
X167323673Y-104060264D01*
X166718980Y-104059736D01*
X166160114Y-104290655D01*
X165732158Y-104717865D01*
X165500264Y-105276327D01*
X165499736Y-105881020D01*
X164050000Y-105881020D01*
X164050000Y-81396347D01*
X167614250Y-81396347D01*
X167614250Y-83603653D01*
X167751705Y-84294684D01*
X168143142Y-84880511D01*
X168728969Y-85271948D01*
X169420000Y-85409403D01*
X170111031Y-85271948D01*
X170696858Y-84880511D01*
X171088295Y-84294684D01*
X171225750Y-83603653D01*
X171225750Y-81396347D01*
X172694250Y-81396347D01*
X172694250Y-83603653D01*
X172831705Y-84294684D01*
X173223142Y-84880511D01*
X173291840Y-84926414D01*
X173291840Y-88113113D01*
X173161514Y-88196975D01*
X172988440Y-88450278D01*
X172927550Y-88750960D01*
X172927550Y-90549280D01*
X172980405Y-90830178D01*
X173146415Y-91088166D01*
X173399718Y-91261240D01*
X173700400Y-91322130D01*
X174899280Y-91322130D01*
X175180178Y-91269275D01*
X175438166Y-91103265D01*
X175611240Y-90849962D01*
X175672130Y-90549280D01*
X175672130Y-90443500D01*
X177992000Y-90443500D01*
X177992000Y-91050775D01*
X178107398Y-91329372D01*
X178320627Y-91542601D01*
X178599224Y-91658000D01*
X179331500Y-91658000D01*
X179521000Y-91468500D01*
X179521000Y-90254000D01*
X179529000Y-90254000D01*
X179529000Y-91468500D01*
X179718500Y-91658000D01*
X180450776Y-91658000D01*
X180729373Y-91542601D01*
X180942602Y-91329372D01*
X181058000Y-91050775D01*
X181058000Y-90443500D01*
X185942000Y-90443500D01*
X185942000Y-91050775D01*
X186057398Y-91329372D01*
X186270627Y-91542601D01*
X186549224Y-91658000D01*
X187281500Y-91658000D01*
X187471000Y-91468500D01*
X187471000Y-90254000D01*
X187479000Y-90254000D01*
X187479000Y-91468500D01*
X187668500Y-91658000D01*
X188400776Y-91658000D01*
X188679373Y-91542601D01*
X188892602Y-91329372D01*
X189008000Y-91050775D01*
X189008000Y-90443500D01*
X188818500Y-90254000D01*
X187479000Y-90254000D01*
X187471000Y-90254000D01*
X186131500Y-90254000D01*
X185942000Y-90443500D01*
X181058000Y-90443500D01*
X180868500Y-90254000D01*
X179529000Y-90254000D01*
X179521000Y-90254000D01*
X178181500Y-90254000D01*
X177992000Y-90443500D01*
X175672130Y-90443500D01*
X175672130Y-89449225D01*
X177992000Y-89449225D01*
X177992000Y-90056500D01*
X178181500Y-90246000D01*
X179521000Y-90246000D01*
X179521000Y-89031500D01*
X179529000Y-89031500D01*
X179529000Y-90246000D01*
X180868500Y-90246000D01*
X181058000Y-90056500D01*
X181058000Y-89449225D01*
X185942000Y-89449225D01*
X185942000Y-90056500D01*
X186131500Y-90246000D01*
X187471000Y-90246000D01*
X187471000Y-89031500D01*
X187479000Y-89031500D01*
X187479000Y-90246000D01*
X188818500Y-90246000D01*
X189008000Y-90056500D01*
X189008000Y-89449225D01*
X188892602Y-89170628D01*
X188679373Y-88957399D01*
X188400776Y-88842000D01*
X187668500Y-88842000D01*
X187479000Y-89031500D01*
X187471000Y-89031500D01*
X187281500Y-88842000D01*
X186549224Y-88842000D01*
X186270627Y-88957399D01*
X186057398Y-89170628D01*
X185942000Y-89449225D01*
X181058000Y-89449225D01*
X180942602Y-89170628D01*
X180729373Y-88957399D01*
X180450776Y-88842000D01*
X179718500Y-88842000D01*
X179529000Y-89031500D01*
X179521000Y-89031500D01*
X179331500Y-88842000D01*
X178599224Y-88842000D01*
X178320627Y-88957399D01*
X178107398Y-89170628D01*
X177992000Y-89449225D01*
X175672130Y-89449225D01*
X175672130Y-88750960D01*
X175619275Y-88470062D01*
X175453265Y-88212074D01*
X175307840Y-88112710D01*
X175307840Y-85193899D01*
X175776858Y-84880511D01*
X176168295Y-84294684D01*
X176305750Y-83603653D01*
X176305750Y-82504000D01*
X177774250Y-82504000D01*
X177774250Y-83551750D01*
X177913235Y-84242476D01*
X178305970Y-84827436D01*
X178892664Y-85217576D01*
X179293568Y-85330639D01*
X179576000Y-85163995D01*
X179576000Y-82504000D01*
X179584000Y-82504000D01*
X179584000Y-85163995D01*
X179866432Y-85330639D01*
X180267336Y-85217576D01*
X180854030Y-84827436D01*
X181246765Y-84242476D01*
X181385750Y-83551750D01*
X181385750Y-82504000D01*
X179584000Y-82504000D01*
X179576000Y-82504000D01*
X177774250Y-82504000D01*
X176305750Y-82504000D01*
X176305750Y-81448250D01*
X177774250Y-81448250D01*
X177774250Y-82496000D01*
X179576000Y-82496000D01*
X179576000Y-79836005D01*
X179584000Y-79836005D01*
X179584000Y-82496000D01*
X181385750Y-82496000D01*
X181385750Y-81448250D01*
X181246765Y-80757524D01*
X180854030Y-80172564D01*
X180267336Y-79782424D01*
X179866432Y-79669361D01*
X179584000Y-79836005D01*
X179576000Y-79836005D01*
X179293568Y-79669361D01*
X178892664Y-79782424D01*
X178305970Y-80172564D01*
X177913235Y-80757524D01*
X177774250Y-81448250D01*
X176305750Y-81448250D01*
X176305750Y-81396347D01*
X176168295Y-80705316D01*
X175776858Y-80119489D01*
X175191031Y-79728052D01*
X174500000Y-79590597D01*
X173808969Y-79728052D01*
X173223142Y-80119489D01*
X172831705Y-80705316D01*
X172694250Y-81396347D01*
X171225750Y-81396347D01*
X171088295Y-80705316D01*
X170696858Y-80119489D01*
X170111031Y-79728052D01*
X169420000Y-79590597D01*
X168728969Y-79728052D01*
X168143142Y-80119489D01*
X167751705Y-80705316D01*
X167614250Y-81396347D01*
X164050000Y-81396347D01*
X164050000Y-78508000D01*
X173168658Y-78508000D01*
X173288628Y-78557816D01*
M02*
