G75*
%MOIN*%
%OFA0B0*%
%FSLAX25Y25*%
%IPPOS*%
%LPD*%
%AMOC8*
5,1,8,0,0,1.08239X$1,22.5*
%
%ADD10C,0.06000*%
%ADD11R,0.04331X0.03937*%
%ADD12R,0.01400X0.05200*%
%ADD13R,0.04724X0.02165*%
%ADD14R,0.03937X0.04331*%
%ADD15C,0.03937*%
%ADD16C,0.11811*%
%ADD17C,0.08250*%
%ADD18R,0.02600X0.08000*%
%ADD19C,0.02953*%
D10*
X0066500Y0052000D02*
X0066500Y0058000D01*
X0076500Y0058000D02*
X0076500Y0052000D01*
X0086500Y0052000D02*
X0086500Y0058000D01*
X0096500Y0058000D02*
X0096500Y0052000D01*
X0106500Y0052000D02*
X0106500Y0058000D01*
X0116500Y0058000D02*
X0116500Y0052000D01*
X0126500Y0052000D02*
X0126500Y0058000D01*
X0136500Y0058000D02*
X0136500Y0052000D01*
X0146500Y0052000D02*
X0146500Y0058000D01*
X0156500Y0058000D02*
X0156500Y0052000D01*
X0166500Y0052000D02*
X0166500Y0058000D01*
X0176500Y0058000D02*
X0176500Y0052000D01*
X0186500Y0052000D02*
X0186500Y0058000D01*
X0196500Y0058000D02*
X0196500Y0052000D01*
X0206500Y0052000D02*
X0206500Y0058000D01*
X0216500Y0058000D02*
X0216500Y0052000D01*
X0233500Y0092500D02*
X0239500Y0092500D01*
X0239500Y0102500D02*
X0233500Y0102500D01*
X0233500Y0112500D02*
X0239500Y0112500D01*
X0239500Y0122500D02*
X0233500Y0122500D01*
X0233500Y0132500D02*
X0239500Y0132500D01*
X0216500Y0172000D02*
X0216500Y0178000D01*
X0206500Y0178000D02*
X0206500Y0172000D01*
X0196500Y0172000D02*
X0196500Y0178000D01*
X0186500Y0178000D02*
X0186500Y0172000D01*
X0176500Y0172000D02*
X0176500Y0178000D01*
X0166500Y0178000D02*
X0166500Y0172000D01*
X0156500Y0172000D02*
X0156500Y0178000D01*
X0146500Y0178000D02*
X0146500Y0172000D01*
X0136500Y0172000D02*
X0136500Y0178000D01*
X0126500Y0178000D02*
X0126500Y0172000D01*
X0116500Y0172000D02*
X0116500Y0178000D01*
X0106500Y0178000D02*
X0106500Y0172000D01*
X0096500Y0172000D02*
X0096500Y0178000D01*
X0086500Y0178000D02*
X0086500Y0172000D01*
X0076500Y0172000D02*
X0076500Y0178000D01*
D11*
X0116500Y0158346D03*
X0116500Y0151654D03*
X0120654Y0145000D03*
X0127346Y0145000D03*
X0126500Y0151654D03*
X0126500Y0158346D03*
X0136500Y0158346D03*
X0136500Y0151654D03*
X0140654Y0145000D03*
X0147346Y0145000D03*
X0146500Y0151654D03*
X0146500Y0158346D03*
X0171500Y0158346D03*
X0171500Y0151654D03*
X0181500Y0151654D03*
X0181500Y0158346D03*
X0179846Y0127500D03*
X0173154Y0127500D03*
X0131500Y0095846D03*
X0131500Y0089154D03*
X0144000Y0078346D03*
X0144000Y0071654D03*
X0154000Y0071654D03*
X0154000Y0078346D03*
X0164000Y0078346D03*
X0164000Y0071654D03*
X0174000Y0071654D03*
X0174000Y0078346D03*
X0184000Y0078346D03*
X0184000Y0071654D03*
X0194000Y0071654D03*
X0194000Y0078346D03*
X0119000Y0078346D03*
X0119000Y0071654D03*
X0109000Y0071654D03*
X0109000Y0078346D03*
X0076500Y0075846D03*
X0076500Y0069154D03*
X0066500Y0069154D03*
X0066500Y0075846D03*
X0076500Y0086654D03*
X0076500Y0093346D03*
D12*
X0167700Y0095300D03*
X0170200Y0095300D03*
X0172800Y0095300D03*
X0175300Y0095300D03*
X0175300Y0109700D03*
X0172800Y0109700D03*
X0170200Y0109700D03*
X0167700Y0109700D03*
D13*
X0171382Y0136260D03*
X0171382Y0143740D03*
X0181618Y0143740D03*
X0181618Y0140000D03*
X0181618Y0136260D03*
D14*
X0188154Y0142500D03*
X0194846Y0142500D03*
X0164846Y0142500D03*
X0158154Y0142500D03*
X0181500Y0110846D03*
X0181500Y0104154D03*
X0116500Y0095846D03*
X0116500Y0089154D03*
X0094000Y0078346D03*
X0094000Y0071654D03*
X0086500Y0096654D03*
X0086500Y0103346D03*
D15*
X0047248Y0074370D03*
X0047248Y0157047D03*
X0240161Y0157047D03*
X0240161Y0074370D03*
D16*
X0047248Y0050748D03*
X0047248Y0180669D03*
X0240161Y0180669D03*
X0240161Y0050748D03*
D17*
X0063125Y0110000D02*
X0054875Y0110000D01*
X0054875Y0130000D02*
X0063125Y0130000D01*
D18*
X0094000Y0112100D03*
X0099000Y0112100D03*
X0104000Y0112100D03*
X0109000Y0112100D03*
X0109000Y0087900D03*
X0104000Y0087900D03*
X0099000Y0087900D03*
X0094000Y0087900D03*
D19*
X0086500Y0110000D03*
X0089000Y0115000D03*
X0071500Y0112500D03*
X0124000Y0112500D03*
X0144000Y0085000D03*
X0161500Y0110000D03*
X0166500Y0127500D03*
X0189000Y0110000D03*
X0194000Y0085000D03*
X0176500Y0085000D03*
M02*
