%
M48
M72
T01C0.01969
T02C0.03937
T03C0.04000
T04C0.05500
T05C0.11811
T06C0.12598
%
T01
X141350Y126000
X151350Y126000
T02
X149460Y153409
X138555Y153409
X127649Y153409
X116744Y153409
X122196Y164591
X133102Y164591
X144007Y164591
X154913Y164591
X160366Y153409
T03
X230350Y120709
X230350Y110709
X151350Y55000
X141350Y55000
T04
X66350Y105709
X66350Y125709
T05
X42098Y50748
X42098Y180669
X235011Y180669
X235011Y50748
T06
X187748Y159000
X89362Y159000
M30
