G75*
%MOIN*%
%OFA0B0*%
%FSLAX25Y25*%
%IPPOS*%
%LPD*%
%AMOC8*
5,1,8,0,0,1.08239X$1,22.5*
%
%ADD10C,0.00000*%
D10*
X0029048Y0035000D02*
X0221961Y0035000D01*
X0216055Y0050748D02*
X0216057Y0050901D01*
X0216063Y0051055D01*
X0216073Y0051208D01*
X0216087Y0051360D01*
X0216105Y0051513D01*
X0216127Y0051664D01*
X0216152Y0051815D01*
X0216182Y0051966D01*
X0216216Y0052116D01*
X0216253Y0052264D01*
X0216294Y0052412D01*
X0216339Y0052558D01*
X0216388Y0052704D01*
X0216441Y0052848D01*
X0216497Y0052990D01*
X0216557Y0053131D01*
X0216621Y0053271D01*
X0216688Y0053409D01*
X0216759Y0053545D01*
X0216834Y0053679D01*
X0216911Y0053811D01*
X0216993Y0053941D01*
X0217077Y0054069D01*
X0217165Y0054195D01*
X0217256Y0054318D01*
X0217350Y0054439D01*
X0217448Y0054557D01*
X0217548Y0054673D01*
X0217652Y0054786D01*
X0217758Y0054897D01*
X0217867Y0055005D01*
X0217979Y0055110D01*
X0218093Y0055211D01*
X0218211Y0055310D01*
X0218330Y0055406D01*
X0218452Y0055499D01*
X0218577Y0055588D01*
X0218704Y0055675D01*
X0218833Y0055757D01*
X0218964Y0055837D01*
X0219097Y0055913D01*
X0219232Y0055986D01*
X0219369Y0056055D01*
X0219508Y0056120D01*
X0219648Y0056182D01*
X0219790Y0056240D01*
X0219933Y0056295D01*
X0220078Y0056346D01*
X0220224Y0056393D01*
X0220371Y0056436D01*
X0220519Y0056475D01*
X0220668Y0056511D01*
X0220818Y0056542D01*
X0220969Y0056570D01*
X0221120Y0056594D01*
X0221273Y0056614D01*
X0221425Y0056630D01*
X0221578Y0056642D01*
X0221731Y0056650D01*
X0221884Y0056654D01*
X0222038Y0056654D01*
X0222191Y0056650D01*
X0222344Y0056642D01*
X0222497Y0056630D01*
X0222649Y0056614D01*
X0222802Y0056594D01*
X0222953Y0056570D01*
X0223104Y0056542D01*
X0223254Y0056511D01*
X0223403Y0056475D01*
X0223551Y0056436D01*
X0223698Y0056393D01*
X0223844Y0056346D01*
X0223989Y0056295D01*
X0224132Y0056240D01*
X0224274Y0056182D01*
X0224414Y0056120D01*
X0224553Y0056055D01*
X0224690Y0055986D01*
X0224825Y0055913D01*
X0224958Y0055837D01*
X0225089Y0055757D01*
X0225218Y0055675D01*
X0225345Y0055588D01*
X0225470Y0055499D01*
X0225592Y0055406D01*
X0225711Y0055310D01*
X0225829Y0055211D01*
X0225943Y0055110D01*
X0226055Y0055005D01*
X0226164Y0054897D01*
X0226270Y0054786D01*
X0226374Y0054673D01*
X0226474Y0054557D01*
X0226572Y0054439D01*
X0226666Y0054318D01*
X0226757Y0054195D01*
X0226845Y0054069D01*
X0226929Y0053941D01*
X0227011Y0053811D01*
X0227088Y0053679D01*
X0227163Y0053545D01*
X0227234Y0053409D01*
X0227301Y0053271D01*
X0227365Y0053131D01*
X0227425Y0052990D01*
X0227481Y0052848D01*
X0227534Y0052704D01*
X0227583Y0052558D01*
X0227628Y0052412D01*
X0227669Y0052264D01*
X0227706Y0052116D01*
X0227740Y0051966D01*
X0227770Y0051815D01*
X0227795Y0051664D01*
X0227817Y0051513D01*
X0227835Y0051360D01*
X0227849Y0051208D01*
X0227859Y0051055D01*
X0227865Y0050901D01*
X0227867Y0050748D01*
X0227865Y0050595D01*
X0227859Y0050441D01*
X0227849Y0050288D01*
X0227835Y0050136D01*
X0227817Y0049983D01*
X0227795Y0049832D01*
X0227770Y0049681D01*
X0227740Y0049530D01*
X0227706Y0049380D01*
X0227669Y0049232D01*
X0227628Y0049084D01*
X0227583Y0048938D01*
X0227534Y0048792D01*
X0227481Y0048648D01*
X0227425Y0048506D01*
X0227365Y0048365D01*
X0227301Y0048225D01*
X0227234Y0048087D01*
X0227163Y0047951D01*
X0227088Y0047817D01*
X0227011Y0047685D01*
X0226929Y0047555D01*
X0226845Y0047427D01*
X0226757Y0047301D01*
X0226666Y0047178D01*
X0226572Y0047057D01*
X0226474Y0046939D01*
X0226374Y0046823D01*
X0226270Y0046710D01*
X0226164Y0046599D01*
X0226055Y0046491D01*
X0225943Y0046386D01*
X0225829Y0046285D01*
X0225711Y0046186D01*
X0225592Y0046090D01*
X0225470Y0045997D01*
X0225345Y0045908D01*
X0225218Y0045821D01*
X0225089Y0045739D01*
X0224958Y0045659D01*
X0224825Y0045583D01*
X0224690Y0045510D01*
X0224553Y0045441D01*
X0224414Y0045376D01*
X0224274Y0045314D01*
X0224132Y0045256D01*
X0223989Y0045201D01*
X0223844Y0045150D01*
X0223698Y0045103D01*
X0223551Y0045060D01*
X0223403Y0045021D01*
X0223254Y0044985D01*
X0223104Y0044954D01*
X0222953Y0044926D01*
X0222802Y0044902D01*
X0222649Y0044882D01*
X0222497Y0044866D01*
X0222344Y0044854D01*
X0222191Y0044846D01*
X0222038Y0044842D01*
X0221884Y0044842D01*
X0221731Y0044846D01*
X0221578Y0044854D01*
X0221425Y0044866D01*
X0221273Y0044882D01*
X0221120Y0044902D01*
X0220969Y0044926D01*
X0220818Y0044954D01*
X0220668Y0044985D01*
X0220519Y0045021D01*
X0220371Y0045060D01*
X0220224Y0045103D01*
X0220078Y0045150D01*
X0219933Y0045201D01*
X0219790Y0045256D01*
X0219648Y0045314D01*
X0219508Y0045376D01*
X0219369Y0045441D01*
X0219232Y0045510D01*
X0219097Y0045583D01*
X0218964Y0045659D01*
X0218833Y0045739D01*
X0218704Y0045821D01*
X0218577Y0045908D01*
X0218452Y0045997D01*
X0218330Y0046090D01*
X0218211Y0046186D01*
X0218093Y0046285D01*
X0217979Y0046386D01*
X0217867Y0046491D01*
X0217758Y0046599D01*
X0217652Y0046710D01*
X0217548Y0046823D01*
X0217448Y0046939D01*
X0217350Y0047057D01*
X0217256Y0047178D01*
X0217165Y0047301D01*
X0217077Y0047427D01*
X0216993Y0047555D01*
X0216911Y0047685D01*
X0216834Y0047817D01*
X0216759Y0047951D01*
X0216688Y0048087D01*
X0216621Y0048225D01*
X0216557Y0048365D01*
X0216497Y0048506D01*
X0216441Y0048648D01*
X0216388Y0048792D01*
X0216339Y0048938D01*
X0216294Y0049084D01*
X0216253Y0049232D01*
X0216216Y0049380D01*
X0216182Y0049530D01*
X0216152Y0049681D01*
X0216127Y0049832D01*
X0216105Y0049983D01*
X0216087Y0050136D01*
X0216073Y0050288D01*
X0216063Y0050441D01*
X0216057Y0050595D01*
X0216055Y0050748D01*
X0221961Y0035000D02*
X0222342Y0035005D01*
X0222722Y0035018D01*
X0223102Y0035041D01*
X0223481Y0035074D01*
X0223859Y0035115D01*
X0224236Y0035165D01*
X0224612Y0035225D01*
X0224987Y0035293D01*
X0225359Y0035371D01*
X0225730Y0035458D01*
X0226098Y0035553D01*
X0226464Y0035658D01*
X0226827Y0035771D01*
X0227188Y0035893D01*
X0227545Y0036023D01*
X0227899Y0036163D01*
X0228250Y0036310D01*
X0228597Y0036467D01*
X0228940Y0036631D01*
X0229279Y0036804D01*
X0229614Y0036985D01*
X0229945Y0037174D01*
X0230270Y0037371D01*
X0230591Y0037575D01*
X0230907Y0037788D01*
X0231217Y0038008D01*
X0231523Y0038235D01*
X0231822Y0038470D01*
X0232116Y0038712D01*
X0232404Y0038960D01*
X0232686Y0039216D01*
X0232961Y0039479D01*
X0233230Y0039748D01*
X0233493Y0040023D01*
X0233749Y0040305D01*
X0233997Y0040593D01*
X0234239Y0040887D01*
X0234474Y0041186D01*
X0234701Y0041492D01*
X0234921Y0041802D01*
X0235134Y0042118D01*
X0235338Y0042439D01*
X0235535Y0042764D01*
X0235724Y0043095D01*
X0235905Y0043430D01*
X0236078Y0043769D01*
X0236242Y0044112D01*
X0236399Y0044459D01*
X0236546Y0044810D01*
X0236686Y0045164D01*
X0236816Y0045521D01*
X0236938Y0045882D01*
X0237051Y0046245D01*
X0237156Y0046611D01*
X0237251Y0046979D01*
X0237338Y0047350D01*
X0237416Y0047722D01*
X0237484Y0048097D01*
X0237544Y0048473D01*
X0237594Y0048850D01*
X0237635Y0049228D01*
X0237668Y0049607D01*
X0237691Y0049987D01*
X0237704Y0050367D01*
X0237709Y0050748D01*
X0237709Y0180669D01*
X0216055Y0180669D02*
X0216057Y0180822D01*
X0216063Y0180976D01*
X0216073Y0181129D01*
X0216087Y0181281D01*
X0216105Y0181434D01*
X0216127Y0181585D01*
X0216152Y0181736D01*
X0216182Y0181887D01*
X0216216Y0182037D01*
X0216253Y0182185D01*
X0216294Y0182333D01*
X0216339Y0182479D01*
X0216388Y0182625D01*
X0216441Y0182769D01*
X0216497Y0182911D01*
X0216557Y0183052D01*
X0216621Y0183192D01*
X0216688Y0183330D01*
X0216759Y0183466D01*
X0216834Y0183600D01*
X0216911Y0183732D01*
X0216993Y0183862D01*
X0217077Y0183990D01*
X0217165Y0184116D01*
X0217256Y0184239D01*
X0217350Y0184360D01*
X0217448Y0184478D01*
X0217548Y0184594D01*
X0217652Y0184707D01*
X0217758Y0184818D01*
X0217867Y0184926D01*
X0217979Y0185031D01*
X0218093Y0185132D01*
X0218211Y0185231D01*
X0218330Y0185327D01*
X0218452Y0185420D01*
X0218577Y0185509D01*
X0218704Y0185596D01*
X0218833Y0185678D01*
X0218964Y0185758D01*
X0219097Y0185834D01*
X0219232Y0185907D01*
X0219369Y0185976D01*
X0219508Y0186041D01*
X0219648Y0186103D01*
X0219790Y0186161D01*
X0219933Y0186216D01*
X0220078Y0186267D01*
X0220224Y0186314D01*
X0220371Y0186357D01*
X0220519Y0186396D01*
X0220668Y0186432D01*
X0220818Y0186463D01*
X0220969Y0186491D01*
X0221120Y0186515D01*
X0221273Y0186535D01*
X0221425Y0186551D01*
X0221578Y0186563D01*
X0221731Y0186571D01*
X0221884Y0186575D01*
X0222038Y0186575D01*
X0222191Y0186571D01*
X0222344Y0186563D01*
X0222497Y0186551D01*
X0222649Y0186535D01*
X0222802Y0186515D01*
X0222953Y0186491D01*
X0223104Y0186463D01*
X0223254Y0186432D01*
X0223403Y0186396D01*
X0223551Y0186357D01*
X0223698Y0186314D01*
X0223844Y0186267D01*
X0223989Y0186216D01*
X0224132Y0186161D01*
X0224274Y0186103D01*
X0224414Y0186041D01*
X0224553Y0185976D01*
X0224690Y0185907D01*
X0224825Y0185834D01*
X0224958Y0185758D01*
X0225089Y0185678D01*
X0225218Y0185596D01*
X0225345Y0185509D01*
X0225470Y0185420D01*
X0225592Y0185327D01*
X0225711Y0185231D01*
X0225829Y0185132D01*
X0225943Y0185031D01*
X0226055Y0184926D01*
X0226164Y0184818D01*
X0226270Y0184707D01*
X0226374Y0184594D01*
X0226474Y0184478D01*
X0226572Y0184360D01*
X0226666Y0184239D01*
X0226757Y0184116D01*
X0226845Y0183990D01*
X0226929Y0183862D01*
X0227011Y0183732D01*
X0227088Y0183600D01*
X0227163Y0183466D01*
X0227234Y0183330D01*
X0227301Y0183192D01*
X0227365Y0183052D01*
X0227425Y0182911D01*
X0227481Y0182769D01*
X0227534Y0182625D01*
X0227583Y0182479D01*
X0227628Y0182333D01*
X0227669Y0182185D01*
X0227706Y0182037D01*
X0227740Y0181887D01*
X0227770Y0181736D01*
X0227795Y0181585D01*
X0227817Y0181434D01*
X0227835Y0181281D01*
X0227849Y0181129D01*
X0227859Y0180976D01*
X0227865Y0180822D01*
X0227867Y0180669D01*
X0227865Y0180516D01*
X0227859Y0180362D01*
X0227849Y0180209D01*
X0227835Y0180057D01*
X0227817Y0179904D01*
X0227795Y0179753D01*
X0227770Y0179602D01*
X0227740Y0179451D01*
X0227706Y0179301D01*
X0227669Y0179153D01*
X0227628Y0179005D01*
X0227583Y0178859D01*
X0227534Y0178713D01*
X0227481Y0178569D01*
X0227425Y0178427D01*
X0227365Y0178286D01*
X0227301Y0178146D01*
X0227234Y0178008D01*
X0227163Y0177872D01*
X0227088Y0177738D01*
X0227011Y0177606D01*
X0226929Y0177476D01*
X0226845Y0177348D01*
X0226757Y0177222D01*
X0226666Y0177099D01*
X0226572Y0176978D01*
X0226474Y0176860D01*
X0226374Y0176744D01*
X0226270Y0176631D01*
X0226164Y0176520D01*
X0226055Y0176412D01*
X0225943Y0176307D01*
X0225829Y0176206D01*
X0225711Y0176107D01*
X0225592Y0176011D01*
X0225470Y0175918D01*
X0225345Y0175829D01*
X0225218Y0175742D01*
X0225089Y0175660D01*
X0224958Y0175580D01*
X0224825Y0175504D01*
X0224690Y0175431D01*
X0224553Y0175362D01*
X0224414Y0175297D01*
X0224274Y0175235D01*
X0224132Y0175177D01*
X0223989Y0175122D01*
X0223844Y0175071D01*
X0223698Y0175024D01*
X0223551Y0174981D01*
X0223403Y0174942D01*
X0223254Y0174906D01*
X0223104Y0174875D01*
X0222953Y0174847D01*
X0222802Y0174823D01*
X0222649Y0174803D01*
X0222497Y0174787D01*
X0222344Y0174775D01*
X0222191Y0174767D01*
X0222038Y0174763D01*
X0221884Y0174763D01*
X0221731Y0174767D01*
X0221578Y0174775D01*
X0221425Y0174787D01*
X0221273Y0174803D01*
X0221120Y0174823D01*
X0220969Y0174847D01*
X0220818Y0174875D01*
X0220668Y0174906D01*
X0220519Y0174942D01*
X0220371Y0174981D01*
X0220224Y0175024D01*
X0220078Y0175071D01*
X0219933Y0175122D01*
X0219790Y0175177D01*
X0219648Y0175235D01*
X0219508Y0175297D01*
X0219369Y0175362D01*
X0219232Y0175431D01*
X0219097Y0175504D01*
X0218964Y0175580D01*
X0218833Y0175660D01*
X0218704Y0175742D01*
X0218577Y0175829D01*
X0218452Y0175918D01*
X0218330Y0176011D01*
X0218211Y0176107D01*
X0218093Y0176206D01*
X0217979Y0176307D01*
X0217867Y0176412D01*
X0217758Y0176520D01*
X0217652Y0176631D01*
X0217548Y0176744D01*
X0217448Y0176860D01*
X0217350Y0176978D01*
X0217256Y0177099D01*
X0217165Y0177222D01*
X0217077Y0177348D01*
X0216993Y0177476D01*
X0216911Y0177606D01*
X0216834Y0177738D01*
X0216759Y0177872D01*
X0216688Y0178008D01*
X0216621Y0178146D01*
X0216557Y0178286D01*
X0216497Y0178427D01*
X0216441Y0178569D01*
X0216388Y0178713D01*
X0216339Y0178859D01*
X0216294Y0179005D01*
X0216253Y0179153D01*
X0216216Y0179301D01*
X0216182Y0179451D01*
X0216152Y0179602D01*
X0216127Y0179753D01*
X0216105Y0179904D01*
X0216087Y0180057D01*
X0216073Y0180209D01*
X0216063Y0180362D01*
X0216057Y0180516D01*
X0216055Y0180669D01*
X0221961Y0196417D02*
X0222342Y0196412D01*
X0222722Y0196399D01*
X0223102Y0196376D01*
X0223481Y0196343D01*
X0223859Y0196302D01*
X0224236Y0196252D01*
X0224612Y0196192D01*
X0224987Y0196124D01*
X0225359Y0196046D01*
X0225730Y0195959D01*
X0226098Y0195864D01*
X0226464Y0195759D01*
X0226827Y0195646D01*
X0227188Y0195524D01*
X0227545Y0195394D01*
X0227899Y0195254D01*
X0228250Y0195107D01*
X0228597Y0194950D01*
X0228940Y0194786D01*
X0229279Y0194613D01*
X0229614Y0194432D01*
X0229945Y0194243D01*
X0230270Y0194046D01*
X0230591Y0193842D01*
X0230907Y0193629D01*
X0231217Y0193409D01*
X0231523Y0193182D01*
X0231822Y0192947D01*
X0232116Y0192705D01*
X0232404Y0192457D01*
X0232686Y0192201D01*
X0232961Y0191938D01*
X0233230Y0191669D01*
X0233493Y0191394D01*
X0233749Y0191112D01*
X0233997Y0190824D01*
X0234239Y0190530D01*
X0234474Y0190231D01*
X0234701Y0189925D01*
X0234921Y0189615D01*
X0235134Y0189299D01*
X0235338Y0188978D01*
X0235535Y0188653D01*
X0235724Y0188322D01*
X0235905Y0187987D01*
X0236078Y0187648D01*
X0236242Y0187305D01*
X0236399Y0186958D01*
X0236546Y0186607D01*
X0236686Y0186253D01*
X0236816Y0185896D01*
X0236938Y0185535D01*
X0237051Y0185172D01*
X0237156Y0184806D01*
X0237251Y0184438D01*
X0237338Y0184067D01*
X0237416Y0183695D01*
X0237484Y0183320D01*
X0237544Y0182944D01*
X0237594Y0182567D01*
X0237635Y0182189D01*
X0237668Y0181810D01*
X0237691Y0181430D01*
X0237704Y0181050D01*
X0237709Y0180669D01*
X0221961Y0196417D02*
X0029048Y0196417D01*
X0023142Y0180669D02*
X0023144Y0180822D01*
X0023150Y0180976D01*
X0023160Y0181129D01*
X0023174Y0181281D01*
X0023192Y0181434D01*
X0023214Y0181585D01*
X0023239Y0181736D01*
X0023269Y0181887D01*
X0023303Y0182037D01*
X0023340Y0182185D01*
X0023381Y0182333D01*
X0023426Y0182479D01*
X0023475Y0182625D01*
X0023528Y0182769D01*
X0023584Y0182911D01*
X0023644Y0183052D01*
X0023708Y0183192D01*
X0023775Y0183330D01*
X0023846Y0183466D01*
X0023921Y0183600D01*
X0023998Y0183732D01*
X0024080Y0183862D01*
X0024164Y0183990D01*
X0024252Y0184116D01*
X0024343Y0184239D01*
X0024437Y0184360D01*
X0024535Y0184478D01*
X0024635Y0184594D01*
X0024739Y0184707D01*
X0024845Y0184818D01*
X0024954Y0184926D01*
X0025066Y0185031D01*
X0025180Y0185132D01*
X0025298Y0185231D01*
X0025417Y0185327D01*
X0025539Y0185420D01*
X0025664Y0185509D01*
X0025791Y0185596D01*
X0025920Y0185678D01*
X0026051Y0185758D01*
X0026184Y0185834D01*
X0026319Y0185907D01*
X0026456Y0185976D01*
X0026595Y0186041D01*
X0026735Y0186103D01*
X0026877Y0186161D01*
X0027020Y0186216D01*
X0027165Y0186267D01*
X0027311Y0186314D01*
X0027458Y0186357D01*
X0027606Y0186396D01*
X0027755Y0186432D01*
X0027905Y0186463D01*
X0028056Y0186491D01*
X0028207Y0186515D01*
X0028360Y0186535D01*
X0028512Y0186551D01*
X0028665Y0186563D01*
X0028818Y0186571D01*
X0028971Y0186575D01*
X0029125Y0186575D01*
X0029278Y0186571D01*
X0029431Y0186563D01*
X0029584Y0186551D01*
X0029736Y0186535D01*
X0029889Y0186515D01*
X0030040Y0186491D01*
X0030191Y0186463D01*
X0030341Y0186432D01*
X0030490Y0186396D01*
X0030638Y0186357D01*
X0030785Y0186314D01*
X0030931Y0186267D01*
X0031076Y0186216D01*
X0031219Y0186161D01*
X0031361Y0186103D01*
X0031501Y0186041D01*
X0031640Y0185976D01*
X0031777Y0185907D01*
X0031912Y0185834D01*
X0032045Y0185758D01*
X0032176Y0185678D01*
X0032305Y0185596D01*
X0032432Y0185509D01*
X0032557Y0185420D01*
X0032679Y0185327D01*
X0032798Y0185231D01*
X0032916Y0185132D01*
X0033030Y0185031D01*
X0033142Y0184926D01*
X0033251Y0184818D01*
X0033357Y0184707D01*
X0033461Y0184594D01*
X0033561Y0184478D01*
X0033659Y0184360D01*
X0033753Y0184239D01*
X0033844Y0184116D01*
X0033932Y0183990D01*
X0034016Y0183862D01*
X0034098Y0183732D01*
X0034175Y0183600D01*
X0034250Y0183466D01*
X0034321Y0183330D01*
X0034388Y0183192D01*
X0034452Y0183052D01*
X0034512Y0182911D01*
X0034568Y0182769D01*
X0034621Y0182625D01*
X0034670Y0182479D01*
X0034715Y0182333D01*
X0034756Y0182185D01*
X0034793Y0182037D01*
X0034827Y0181887D01*
X0034857Y0181736D01*
X0034882Y0181585D01*
X0034904Y0181434D01*
X0034922Y0181281D01*
X0034936Y0181129D01*
X0034946Y0180976D01*
X0034952Y0180822D01*
X0034954Y0180669D01*
X0034952Y0180516D01*
X0034946Y0180362D01*
X0034936Y0180209D01*
X0034922Y0180057D01*
X0034904Y0179904D01*
X0034882Y0179753D01*
X0034857Y0179602D01*
X0034827Y0179451D01*
X0034793Y0179301D01*
X0034756Y0179153D01*
X0034715Y0179005D01*
X0034670Y0178859D01*
X0034621Y0178713D01*
X0034568Y0178569D01*
X0034512Y0178427D01*
X0034452Y0178286D01*
X0034388Y0178146D01*
X0034321Y0178008D01*
X0034250Y0177872D01*
X0034175Y0177738D01*
X0034098Y0177606D01*
X0034016Y0177476D01*
X0033932Y0177348D01*
X0033844Y0177222D01*
X0033753Y0177099D01*
X0033659Y0176978D01*
X0033561Y0176860D01*
X0033461Y0176744D01*
X0033357Y0176631D01*
X0033251Y0176520D01*
X0033142Y0176412D01*
X0033030Y0176307D01*
X0032916Y0176206D01*
X0032798Y0176107D01*
X0032679Y0176011D01*
X0032557Y0175918D01*
X0032432Y0175829D01*
X0032305Y0175742D01*
X0032176Y0175660D01*
X0032045Y0175580D01*
X0031912Y0175504D01*
X0031777Y0175431D01*
X0031640Y0175362D01*
X0031501Y0175297D01*
X0031361Y0175235D01*
X0031219Y0175177D01*
X0031076Y0175122D01*
X0030931Y0175071D01*
X0030785Y0175024D01*
X0030638Y0174981D01*
X0030490Y0174942D01*
X0030341Y0174906D01*
X0030191Y0174875D01*
X0030040Y0174847D01*
X0029889Y0174823D01*
X0029736Y0174803D01*
X0029584Y0174787D01*
X0029431Y0174775D01*
X0029278Y0174767D01*
X0029125Y0174763D01*
X0028971Y0174763D01*
X0028818Y0174767D01*
X0028665Y0174775D01*
X0028512Y0174787D01*
X0028360Y0174803D01*
X0028207Y0174823D01*
X0028056Y0174847D01*
X0027905Y0174875D01*
X0027755Y0174906D01*
X0027606Y0174942D01*
X0027458Y0174981D01*
X0027311Y0175024D01*
X0027165Y0175071D01*
X0027020Y0175122D01*
X0026877Y0175177D01*
X0026735Y0175235D01*
X0026595Y0175297D01*
X0026456Y0175362D01*
X0026319Y0175431D01*
X0026184Y0175504D01*
X0026051Y0175580D01*
X0025920Y0175660D01*
X0025791Y0175742D01*
X0025664Y0175829D01*
X0025539Y0175918D01*
X0025417Y0176011D01*
X0025298Y0176107D01*
X0025180Y0176206D01*
X0025066Y0176307D01*
X0024954Y0176412D01*
X0024845Y0176520D01*
X0024739Y0176631D01*
X0024635Y0176744D01*
X0024535Y0176860D01*
X0024437Y0176978D01*
X0024343Y0177099D01*
X0024252Y0177222D01*
X0024164Y0177348D01*
X0024080Y0177476D01*
X0023998Y0177606D01*
X0023921Y0177738D01*
X0023846Y0177872D01*
X0023775Y0178008D01*
X0023708Y0178146D01*
X0023644Y0178286D01*
X0023584Y0178427D01*
X0023528Y0178569D01*
X0023475Y0178713D01*
X0023426Y0178859D01*
X0023381Y0179005D01*
X0023340Y0179153D01*
X0023303Y0179301D01*
X0023269Y0179451D01*
X0023239Y0179602D01*
X0023214Y0179753D01*
X0023192Y0179904D01*
X0023174Y0180057D01*
X0023160Y0180209D01*
X0023150Y0180362D01*
X0023144Y0180516D01*
X0023142Y0180669D01*
X0013300Y0180669D02*
X0013305Y0181050D01*
X0013318Y0181430D01*
X0013341Y0181810D01*
X0013374Y0182189D01*
X0013415Y0182567D01*
X0013465Y0182944D01*
X0013525Y0183320D01*
X0013593Y0183695D01*
X0013671Y0184067D01*
X0013758Y0184438D01*
X0013853Y0184806D01*
X0013958Y0185172D01*
X0014071Y0185535D01*
X0014193Y0185896D01*
X0014323Y0186253D01*
X0014463Y0186607D01*
X0014610Y0186958D01*
X0014767Y0187305D01*
X0014931Y0187648D01*
X0015104Y0187987D01*
X0015285Y0188322D01*
X0015474Y0188653D01*
X0015671Y0188978D01*
X0015875Y0189299D01*
X0016088Y0189615D01*
X0016308Y0189925D01*
X0016535Y0190231D01*
X0016770Y0190530D01*
X0017012Y0190824D01*
X0017260Y0191112D01*
X0017516Y0191394D01*
X0017779Y0191669D01*
X0018048Y0191938D01*
X0018323Y0192201D01*
X0018605Y0192457D01*
X0018893Y0192705D01*
X0019187Y0192947D01*
X0019486Y0193182D01*
X0019792Y0193409D01*
X0020102Y0193629D01*
X0020418Y0193842D01*
X0020739Y0194046D01*
X0021064Y0194243D01*
X0021395Y0194432D01*
X0021730Y0194613D01*
X0022069Y0194786D01*
X0022412Y0194950D01*
X0022759Y0195107D01*
X0023110Y0195254D01*
X0023464Y0195394D01*
X0023821Y0195524D01*
X0024182Y0195646D01*
X0024545Y0195759D01*
X0024911Y0195864D01*
X0025279Y0195959D01*
X0025650Y0196046D01*
X0026022Y0196124D01*
X0026397Y0196192D01*
X0026773Y0196252D01*
X0027150Y0196302D01*
X0027528Y0196343D01*
X0027907Y0196376D01*
X0028287Y0196399D01*
X0028667Y0196412D01*
X0029048Y0196417D01*
X0013300Y0180669D02*
X0013300Y0050748D01*
X0023142Y0050748D02*
X0023144Y0050901D01*
X0023150Y0051055D01*
X0023160Y0051208D01*
X0023174Y0051360D01*
X0023192Y0051513D01*
X0023214Y0051664D01*
X0023239Y0051815D01*
X0023269Y0051966D01*
X0023303Y0052116D01*
X0023340Y0052264D01*
X0023381Y0052412D01*
X0023426Y0052558D01*
X0023475Y0052704D01*
X0023528Y0052848D01*
X0023584Y0052990D01*
X0023644Y0053131D01*
X0023708Y0053271D01*
X0023775Y0053409D01*
X0023846Y0053545D01*
X0023921Y0053679D01*
X0023998Y0053811D01*
X0024080Y0053941D01*
X0024164Y0054069D01*
X0024252Y0054195D01*
X0024343Y0054318D01*
X0024437Y0054439D01*
X0024535Y0054557D01*
X0024635Y0054673D01*
X0024739Y0054786D01*
X0024845Y0054897D01*
X0024954Y0055005D01*
X0025066Y0055110D01*
X0025180Y0055211D01*
X0025298Y0055310D01*
X0025417Y0055406D01*
X0025539Y0055499D01*
X0025664Y0055588D01*
X0025791Y0055675D01*
X0025920Y0055757D01*
X0026051Y0055837D01*
X0026184Y0055913D01*
X0026319Y0055986D01*
X0026456Y0056055D01*
X0026595Y0056120D01*
X0026735Y0056182D01*
X0026877Y0056240D01*
X0027020Y0056295D01*
X0027165Y0056346D01*
X0027311Y0056393D01*
X0027458Y0056436D01*
X0027606Y0056475D01*
X0027755Y0056511D01*
X0027905Y0056542D01*
X0028056Y0056570D01*
X0028207Y0056594D01*
X0028360Y0056614D01*
X0028512Y0056630D01*
X0028665Y0056642D01*
X0028818Y0056650D01*
X0028971Y0056654D01*
X0029125Y0056654D01*
X0029278Y0056650D01*
X0029431Y0056642D01*
X0029584Y0056630D01*
X0029736Y0056614D01*
X0029889Y0056594D01*
X0030040Y0056570D01*
X0030191Y0056542D01*
X0030341Y0056511D01*
X0030490Y0056475D01*
X0030638Y0056436D01*
X0030785Y0056393D01*
X0030931Y0056346D01*
X0031076Y0056295D01*
X0031219Y0056240D01*
X0031361Y0056182D01*
X0031501Y0056120D01*
X0031640Y0056055D01*
X0031777Y0055986D01*
X0031912Y0055913D01*
X0032045Y0055837D01*
X0032176Y0055757D01*
X0032305Y0055675D01*
X0032432Y0055588D01*
X0032557Y0055499D01*
X0032679Y0055406D01*
X0032798Y0055310D01*
X0032916Y0055211D01*
X0033030Y0055110D01*
X0033142Y0055005D01*
X0033251Y0054897D01*
X0033357Y0054786D01*
X0033461Y0054673D01*
X0033561Y0054557D01*
X0033659Y0054439D01*
X0033753Y0054318D01*
X0033844Y0054195D01*
X0033932Y0054069D01*
X0034016Y0053941D01*
X0034098Y0053811D01*
X0034175Y0053679D01*
X0034250Y0053545D01*
X0034321Y0053409D01*
X0034388Y0053271D01*
X0034452Y0053131D01*
X0034512Y0052990D01*
X0034568Y0052848D01*
X0034621Y0052704D01*
X0034670Y0052558D01*
X0034715Y0052412D01*
X0034756Y0052264D01*
X0034793Y0052116D01*
X0034827Y0051966D01*
X0034857Y0051815D01*
X0034882Y0051664D01*
X0034904Y0051513D01*
X0034922Y0051360D01*
X0034936Y0051208D01*
X0034946Y0051055D01*
X0034952Y0050901D01*
X0034954Y0050748D01*
X0034952Y0050595D01*
X0034946Y0050441D01*
X0034936Y0050288D01*
X0034922Y0050136D01*
X0034904Y0049983D01*
X0034882Y0049832D01*
X0034857Y0049681D01*
X0034827Y0049530D01*
X0034793Y0049380D01*
X0034756Y0049232D01*
X0034715Y0049084D01*
X0034670Y0048938D01*
X0034621Y0048792D01*
X0034568Y0048648D01*
X0034512Y0048506D01*
X0034452Y0048365D01*
X0034388Y0048225D01*
X0034321Y0048087D01*
X0034250Y0047951D01*
X0034175Y0047817D01*
X0034098Y0047685D01*
X0034016Y0047555D01*
X0033932Y0047427D01*
X0033844Y0047301D01*
X0033753Y0047178D01*
X0033659Y0047057D01*
X0033561Y0046939D01*
X0033461Y0046823D01*
X0033357Y0046710D01*
X0033251Y0046599D01*
X0033142Y0046491D01*
X0033030Y0046386D01*
X0032916Y0046285D01*
X0032798Y0046186D01*
X0032679Y0046090D01*
X0032557Y0045997D01*
X0032432Y0045908D01*
X0032305Y0045821D01*
X0032176Y0045739D01*
X0032045Y0045659D01*
X0031912Y0045583D01*
X0031777Y0045510D01*
X0031640Y0045441D01*
X0031501Y0045376D01*
X0031361Y0045314D01*
X0031219Y0045256D01*
X0031076Y0045201D01*
X0030931Y0045150D01*
X0030785Y0045103D01*
X0030638Y0045060D01*
X0030490Y0045021D01*
X0030341Y0044985D01*
X0030191Y0044954D01*
X0030040Y0044926D01*
X0029889Y0044902D01*
X0029736Y0044882D01*
X0029584Y0044866D01*
X0029431Y0044854D01*
X0029278Y0044846D01*
X0029125Y0044842D01*
X0028971Y0044842D01*
X0028818Y0044846D01*
X0028665Y0044854D01*
X0028512Y0044866D01*
X0028360Y0044882D01*
X0028207Y0044902D01*
X0028056Y0044926D01*
X0027905Y0044954D01*
X0027755Y0044985D01*
X0027606Y0045021D01*
X0027458Y0045060D01*
X0027311Y0045103D01*
X0027165Y0045150D01*
X0027020Y0045201D01*
X0026877Y0045256D01*
X0026735Y0045314D01*
X0026595Y0045376D01*
X0026456Y0045441D01*
X0026319Y0045510D01*
X0026184Y0045583D01*
X0026051Y0045659D01*
X0025920Y0045739D01*
X0025791Y0045821D01*
X0025664Y0045908D01*
X0025539Y0045997D01*
X0025417Y0046090D01*
X0025298Y0046186D01*
X0025180Y0046285D01*
X0025066Y0046386D01*
X0024954Y0046491D01*
X0024845Y0046599D01*
X0024739Y0046710D01*
X0024635Y0046823D01*
X0024535Y0046939D01*
X0024437Y0047057D01*
X0024343Y0047178D01*
X0024252Y0047301D01*
X0024164Y0047427D01*
X0024080Y0047555D01*
X0023998Y0047685D01*
X0023921Y0047817D01*
X0023846Y0047951D01*
X0023775Y0048087D01*
X0023708Y0048225D01*
X0023644Y0048365D01*
X0023584Y0048506D01*
X0023528Y0048648D01*
X0023475Y0048792D01*
X0023426Y0048938D01*
X0023381Y0049084D01*
X0023340Y0049232D01*
X0023303Y0049380D01*
X0023269Y0049530D01*
X0023239Y0049681D01*
X0023214Y0049832D01*
X0023192Y0049983D01*
X0023174Y0050136D01*
X0023160Y0050288D01*
X0023150Y0050441D01*
X0023144Y0050595D01*
X0023142Y0050748D01*
X0013300Y0050748D02*
X0013305Y0050367D01*
X0013318Y0049987D01*
X0013341Y0049607D01*
X0013374Y0049228D01*
X0013415Y0048850D01*
X0013465Y0048473D01*
X0013525Y0048097D01*
X0013593Y0047722D01*
X0013671Y0047350D01*
X0013758Y0046979D01*
X0013853Y0046611D01*
X0013958Y0046245D01*
X0014071Y0045882D01*
X0014193Y0045521D01*
X0014323Y0045164D01*
X0014463Y0044810D01*
X0014610Y0044459D01*
X0014767Y0044112D01*
X0014931Y0043769D01*
X0015104Y0043430D01*
X0015285Y0043095D01*
X0015474Y0042764D01*
X0015671Y0042439D01*
X0015875Y0042118D01*
X0016088Y0041802D01*
X0016308Y0041492D01*
X0016535Y0041186D01*
X0016770Y0040887D01*
X0017012Y0040593D01*
X0017260Y0040305D01*
X0017516Y0040023D01*
X0017779Y0039748D01*
X0018048Y0039479D01*
X0018323Y0039216D01*
X0018605Y0038960D01*
X0018893Y0038712D01*
X0019187Y0038470D01*
X0019486Y0038235D01*
X0019792Y0038008D01*
X0020102Y0037788D01*
X0020418Y0037575D01*
X0020739Y0037371D01*
X0021064Y0037174D01*
X0021395Y0036985D01*
X0021730Y0036804D01*
X0022069Y0036631D01*
X0022412Y0036467D01*
X0022759Y0036310D01*
X0023110Y0036163D01*
X0023464Y0036023D01*
X0023821Y0035893D01*
X0024182Y0035771D01*
X0024545Y0035658D01*
X0024911Y0035553D01*
X0025279Y0035458D01*
X0025650Y0035371D01*
X0026022Y0035293D01*
X0026397Y0035225D01*
X0026773Y0035165D01*
X0027150Y0035115D01*
X0027528Y0035074D01*
X0027907Y0035041D01*
X0028287Y0035018D01*
X0028667Y0035005D01*
X0029048Y0035000D01*
M02*
