%
M48
M72
T01C0.02362
T02C0.04000
T03C0.05500
T04C0.11811
%
T01
X53300Y95000
X83300Y95000
X93300Y95000
X125800Y95000
X133300Y95000
X165800Y95000
X173300Y95000
X203300Y95000
T02
X218300Y100000
X218300Y110000
X218300Y125000
X218300Y135000
X200800Y175000
X190800Y175000
X180800Y175000
X160800Y175000
X150800Y175000
X140800Y175000
X120800Y175000
X110800Y175000
X80800Y175000
X70800Y175000
X108300Y55000
X118300Y55000
X128300Y55000
X138300Y55000
T03
X40800Y105709
X40800Y125709
T04
X29048Y50748
X29048Y180669
X221961Y180669
X221961Y50748
M30
