M48
;DRILL file {KiCad 4.0.6} date 06/08/17 14:16:26
;FORMAT={2:4/ absolute / inch / suppress leading zeros}
FMAT,2
INCH,TZ
T1C0.016
T2C0.039
T3C0.040
T4C0.055
T5C0.055
T6C0.100
T7C0.118
%
G90
G05
M72
T1
X45079Y-32874
X45079Y-36811
X45079Y-40748
X45079Y-44685
X48622Y-30512
X50591Y-48622
X52559Y-30512
X56496Y-30512
X58465Y-48622
X60433Y-30512
X62402Y-48622
X64370Y-30512
X66339Y-48622
X68307Y-30512
X68622Y-38701
X70276Y-48622
X72244Y-30512
X75000Y-32874
X75000Y-36811
X75000Y-40748
X75000Y-44685
T2
X65748Y-44567
X65756Y-41567
X67756Y-41567
X67756Y-44567
X69756Y-41567
X69756Y-44567
X71756Y-41567
X71756Y-44567
X72756Y-41567
X72756Y-44567
T3
X48606Y-47047
X49606Y-47047
X50606Y-47047
X53528Y-47047
X54528Y-47047
X55528Y-47047
X58449Y-47047
X59449Y-47047
X60449Y-47047
X63370Y-47047
X64370Y-47047
X65370Y-47047
X67217Y-47047
X68217Y-47047
X69866Y-47047
X70866Y-47047
X71866Y-47047
T4
X66701Y-32480
X68701Y-32480
X70701Y-32480
T5
X49197Y-32480
X51197Y-32480
X54709Y-32480
X56709Y-32480
X60220Y-32480
X62220Y-32480
T6
X46557Y-43071
X47657Y-36374
X47657Y-38173
X47657Y-40571
X51555Y-36374
X51555Y-38173
X51555Y-40571
X52656Y-43071
X56400Y-43071
X57500Y-36374
X57500Y-38173
X57500Y-40571
X61398Y-36374
X61398Y-38173
X61398Y-40571
X62498Y-43071
T7
X45866Y-31299
X45866Y-47835
X74213Y-31299
X74213Y-47835
T0
M30
