G04 #@! TF.FileFunction,Soldermask,Top*
%FSLAX46Y46*%
G04 Gerber Fmt 4.6, Leading zero omitted, Abs format (unit mm)*
G04 Created by KiCad (PCBNEW 4.0.6) date 06/08/17 14:50:25*
%MOMM*%
%LPD*%
G01*
G04 APERTURE LIST*
%ADD10C,0.100000*%
%ADD11O,1.924000X3.448000*%
%ADD12C,4.200000*%
%ADD13R,1.598880X2.198320*%
%ADD14C,2.540000*%
%ADD15C,6.400000*%
%ADD16O,2.495500X4.591000*%
%ADD17R,1.950000X1.700000*%
%ADD18C,1.924000*%
%ADD19R,3.400000X3.400000*%
%ADD20C,3.400000*%
G04 APERTURE END LIST*
D10*
D11*
X173270000Y-119500000D03*
X170730000Y-119500000D03*
D12*
X155950000Y-92390000D03*
X146050000Y-92390000D03*
X146050000Y-96960000D03*
X146050000Y-103050000D03*
X155950000Y-96960000D03*
X155950000Y-103050000D03*
X158745000Y-109400000D03*
X143255000Y-109400000D03*
D13*
X174299840Y-89650120D03*
X171099440Y-89650120D03*
X168902340Y-89650120D03*
X166700160Y-89650120D03*
X166700160Y-95349880D03*
X168902340Y-95349880D03*
X171099440Y-95349880D03*
X174299840Y-95349880D03*
D14*
X116500000Y-84500000D03*
X116500000Y-116500000D03*
D11*
X128540000Y-119500000D03*
X126000000Y-119500000D03*
X123460000Y-119500000D03*
X182540000Y-119500000D03*
X180000000Y-119500000D03*
X177460000Y-119500000D03*
D15*
X188500000Y-79500000D03*
X116500000Y-121500000D03*
X188500000Y-121500000D03*
X116500000Y-79500000D03*
D16*
X179580000Y-82500000D03*
X174500000Y-82500000D03*
X169420000Y-82500000D03*
D11*
X153540000Y-119500000D03*
X151000000Y-119500000D03*
X148460000Y-119500000D03*
X141040000Y-119500000D03*
X138500000Y-119500000D03*
X135960000Y-119500000D03*
X166040000Y-119500000D03*
X163500000Y-119500000D03*
X160960000Y-119500000D03*
D17*
X179525000Y-90250000D03*
X187475000Y-90250000D03*
X179525000Y-94750000D03*
X187475000Y-94750000D03*
D18*
X184800000Y-113200000D03*
X182260000Y-113200000D03*
X184800000Y-105580000D03*
X177180000Y-113200000D03*
X182260000Y-105580000D03*
X172100000Y-113200000D03*
X177180000Y-105580000D03*
X167000000Y-113200000D03*
X167020000Y-105580000D03*
X172100000Y-105580000D03*
D12*
X130950000Y-92390000D03*
X121050000Y-92390000D03*
X121050000Y-96960000D03*
X121050000Y-103050000D03*
X130950000Y-96960000D03*
X130950000Y-103050000D03*
X133745000Y-109400000D03*
X118255000Y-109400000D03*
D14*
X188500000Y-84500000D03*
X188500000Y-116500000D03*
D19*
X130040000Y-82500000D03*
D20*
X124960000Y-82500000D03*
D19*
X144040000Y-82500000D03*
D20*
X138960000Y-82500000D03*
D19*
X158040000Y-82500000D03*
D20*
X152960000Y-82500000D03*
M02*
