G04 #@! TF.FileFunction,Copper,L2,Bot,Signal*
%FSLAX46Y46*%
G04 Gerber Fmt 4.6, Leading zero omitted, Abs format (unit mm)*
G04 Created by KiCad (PCBNEW 4.0.6) date 06/08/17 14:50:25*
%MOMM*%
%LPD*%
G01*
G04 APERTURE LIST*
%ADD10C,0.100000*%
%ADD11O,1.524000X3.048000*%
%ADD12C,3.800000*%
%ADD13C,6.000000*%
%ADD14O,2.095500X4.191000*%
%ADD15C,1.524000*%
%ADD16R,3.000000X3.000000*%
%ADD17C,3.000000*%
%ADD18C,0.600000*%
%ADD19C,0.500000*%
%ADD20C,2.000000*%
G04 APERTURE END LIST*
D10*
D11*
X173270000Y-119500000D03*
X170730000Y-119500000D03*
D12*
X155950000Y-92390000D03*
X146050000Y-92390000D03*
X146050000Y-96960000D03*
X146050000Y-103050000D03*
X155950000Y-96960000D03*
X155950000Y-103050000D03*
X158745000Y-109400000D03*
X143255000Y-109400000D03*
D11*
X128540000Y-119500000D03*
X126000000Y-119500000D03*
X123460000Y-119500000D03*
X182540000Y-119500000D03*
X180000000Y-119500000D03*
X177460000Y-119500000D03*
D13*
X188500000Y-79500000D03*
X116500000Y-121500000D03*
X188500000Y-121500000D03*
X116500000Y-79500000D03*
D14*
X179580000Y-82500000D03*
X174500000Y-82500000D03*
X169420000Y-82500000D03*
D11*
X153540000Y-119500000D03*
X151000000Y-119500000D03*
X148460000Y-119500000D03*
X141040000Y-119500000D03*
X138500000Y-119500000D03*
X135960000Y-119500000D03*
X166040000Y-119500000D03*
X163500000Y-119500000D03*
X160960000Y-119500000D03*
D15*
X184800000Y-113200000D03*
X182260000Y-113200000D03*
X184800000Y-105580000D03*
X177180000Y-113200000D03*
X182260000Y-105580000D03*
X172100000Y-113200000D03*
X177180000Y-105580000D03*
X167000000Y-113200000D03*
X167020000Y-105580000D03*
X172100000Y-105580000D03*
D12*
X130950000Y-92390000D03*
X121050000Y-92390000D03*
X121050000Y-96960000D03*
X121050000Y-103050000D03*
X130950000Y-96960000D03*
X130950000Y-103050000D03*
X133745000Y-109400000D03*
X118255000Y-109400000D03*
D16*
X130040000Y-82500000D03*
D17*
X124960000Y-82500000D03*
D16*
X144040000Y-82500000D03*
D17*
X138960000Y-82500000D03*
D16*
X158040000Y-82500000D03*
D17*
X152960000Y-82500000D03*
D18*
X174300000Y-98300000D03*
X183500000Y-77500000D03*
X173500000Y-77500000D03*
X128500000Y-123500000D03*
X114500000Y-113500000D03*
X114500000Y-103500000D03*
X114500000Y-93500000D03*
X114500000Y-83500000D03*
X123500000Y-77500000D03*
X133500000Y-77500000D03*
X143500000Y-77500000D03*
X153500000Y-77500000D03*
X163500000Y-77500000D03*
X190500000Y-83500000D03*
X190500000Y-93500000D03*
X190500000Y-103500000D03*
X190500000Y-113500000D03*
X178500000Y-123500000D03*
X168500000Y-123500000D03*
X158500000Y-123500000D03*
X148500000Y-123500000D03*
D19*
X128500000Y-123500000D02*
X186500000Y-123500000D01*
X118500000Y-123500000D02*
X128500000Y-123500000D01*
X116500000Y-121500000D02*
X118500000Y-123500000D01*
X123500000Y-77500000D02*
X118500000Y-77500000D01*
X118500000Y-77500000D02*
X116500000Y-79500000D01*
X133500000Y-77500000D02*
X123500000Y-77500000D01*
X143500000Y-77500000D02*
X133500000Y-77500000D01*
X153500000Y-77500000D02*
X143500000Y-77500000D01*
X163500000Y-77500000D02*
X153500000Y-77500000D01*
X173500000Y-77500000D02*
X163500000Y-77500000D01*
X185750000Y-77500000D02*
X173500000Y-77500000D01*
X187750000Y-79500000D02*
X185750000Y-77500000D01*
X188500000Y-79500000D02*
X187750000Y-79500000D01*
X188500000Y-79500000D02*
X188000000Y-79500000D01*
X116500000Y-79500000D02*
X116500000Y-80500000D01*
X116500000Y-80500000D02*
X114500000Y-82500000D01*
X114500000Y-82500000D02*
X114500000Y-119500000D01*
X114500000Y-119500000D02*
X116500000Y-121500000D01*
X188500000Y-121500000D02*
X188500000Y-120500000D01*
X188500000Y-120500000D02*
X190500000Y-118500000D01*
X190500000Y-118500000D02*
X190500000Y-81500000D01*
X190500000Y-81500000D02*
X188500000Y-79500000D01*
X138500000Y-123500000D02*
X186500000Y-123500000D01*
X186500000Y-123500000D02*
X188500000Y-121500000D01*
X116500000Y-121500000D02*
X117500000Y-121500000D01*
G36*
X173288628Y-78557816D02*
X173709526Y-78558183D01*
X173830978Y-78508000D01*
X183168658Y-78508000D01*
X183288628Y-78557816D01*
X183709526Y-78558183D01*
X183830978Y-78508000D01*
X184842811Y-78508000D01*
X184742653Y-78749208D01*
X184741349Y-80244233D01*
X185312265Y-81625955D01*
X186368484Y-82684020D01*
X187749208Y-83257347D01*
X189244233Y-83258651D01*
X189492000Y-83156276D01*
X189492000Y-83168658D01*
X189442184Y-83288628D01*
X189441817Y-83709526D01*
X189492000Y-83830978D01*
X189492000Y-93168658D01*
X189442184Y-93288628D01*
X189441817Y-93709526D01*
X189492000Y-93830978D01*
X189492000Y-103168658D01*
X189442184Y-103288628D01*
X189441817Y-103709526D01*
X189492000Y-103830978D01*
X189492000Y-113168658D01*
X189442184Y-113288628D01*
X189441817Y-113709526D01*
X189492000Y-113830978D01*
X189492000Y-117842811D01*
X189250792Y-117742653D01*
X187755767Y-117741349D01*
X186374045Y-118312265D01*
X185315980Y-119368484D01*
X184742653Y-120749208D01*
X184741349Y-122244233D01*
X184843724Y-122492000D01*
X178831342Y-122492000D01*
X178711372Y-122442184D01*
X178290474Y-122441817D01*
X178169022Y-122492000D01*
X168831342Y-122492000D01*
X168711372Y-122442184D01*
X168290474Y-122441817D01*
X168169022Y-122492000D01*
X158831342Y-122492000D01*
X158711372Y-122442184D01*
X158290474Y-122441817D01*
X158169022Y-122492000D01*
X148831342Y-122492000D01*
X148711372Y-122442184D01*
X148290474Y-122441817D01*
X148169022Y-122492000D01*
X128831342Y-122492000D01*
X128711372Y-122442184D01*
X128290474Y-122441817D01*
X128169022Y-122492000D01*
X120157189Y-122492000D01*
X120257347Y-122250792D01*
X120258651Y-120755767D01*
X119741432Y-119504000D01*
X121940000Y-119504000D01*
X121940000Y-120266000D01*
X122057234Y-120847374D01*
X122388026Y-121339630D01*
X122882016Y-121667827D01*
X123218270Y-121762656D01*
X123456000Y-121592494D01*
X123456000Y-119504000D01*
X121940000Y-119504000D01*
X119741432Y-119504000D01*
X119687735Y-119374045D01*
X119048807Y-118734000D01*
X121940000Y-118734000D01*
X121940000Y-119496000D01*
X123456000Y-119496000D01*
X123456000Y-117407506D01*
X123464000Y-117407506D01*
X123464000Y-119496000D01*
X123484000Y-119496000D01*
X123484000Y-119504000D01*
X123464000Y-119504000D01*
X123464000Y-121592494D01*
X123701730Y-121762656D01*
X124037984Y-121667827D01*
X124531974Y-121339630D01*
X124715114Y-121067097D01*
X124925198Y-121381509D01*
X125418321Y-121711004D01*
X126000000Y-121826707D01*
X126581679Y-121711004D01*
X127074802Y-121381509D01*
X127270000Y-121089375D01*
X127465198Y-121381509D01*
X127958321Y-121711004D01*
X128540000Y-121826707D01*
X129121679Y-121711004D01*
X129614802Y-121381509D01*
X129944297Y-120888386D01*
X130060000Y-120306707D01*
X130060000Y-119504000D01*
X134440000Y-119504000D01*
X134440000Y-120266000D01*
X134557234Y-120847374D01*
X134888026Y-121339630D01*
X135382016Y-121667827D01*
X135718270Y-121762656D01*
X135956000Y-121592494D01*
X135956000Y-119504000D01*
X134440000Y-119504000D01*
X130060000Y-119504000D01*
X130060000Y-118734000D01*
X134440000Y-118734000D01*
X134440000Y-119496000D01*
X135956000Y-119496000D01*
X135956000Y-117407506D01*
X135964000Y-117407506D01*
X135964000Y-119496000D01*
X135984000Y-119496000D01*
X135984000Y-119504000D01*
X135964000Y-119504000D01*
X135964000Y-121592494D01*
X136201730Y-121762656D01*
X136537984Y-121667827D01*
X137031974Y-121339630D01*
X137215114Y-121067097D01*
X137425198Y-121381509D01*
X137918321Y-121711004D01*
X138500000Y-121826707D01*
X139081679Y-121711004D01*
X139574802Y-121381509D01*
X139770000Y-121089375D01*
X139965198Y-121381509D01*
X140458321Y-121711004D01*
X141040000Y-121826707D01*
X141621679Y-121711004D01*
X142114802Y-121381509D01*
X142444297Y-120888386D01*
X142560000Y-120306707D01*
X142560000Y-119504000D01*
X146940000Y-119504000D01*
X146940000Y-120266000D01*
X147057234Y-120847374D01*
X147388026Y-121339630D01*
X147882016Y-121667827D01*
X148218270Y-121762656D01*
X148456000Y-121592494D01*
X148456000Y-119504000D01*
X146940000Y-119504000D01*
X142560000Y-119504000D01*
X142560000Y-118734000D01*
X146940000Y-118734000D01*
X146940000Y-119496000D01*
X148456000Y-119496000D01*
X148456000Y-117407506D01*
X148464000Y-117407506D01*
X148464000Y-119496000D01*
X148484000Y-119496000D01*
X148484000Y-119504000D01*
X148464000Y-119504000D01*
X148464000Y-121592494D01*
X148701730Y-121762656D01*
X149037984Y-121667827D01*
X149531974Y-121339630D01*
X149715114Y-121067097D01*
X149925198Y-121381509D01*
X150418321Y-121711004D01*
X151000000Y-121826707D01*
X151581679Y-121711004D01*
X152074802Y-121381509D01*
X152270000Y-121089375D01*
X152465198Y-121381509D01*
X152958321Y-121711004D01*
X153540000Y-121826707D01*
X154121679Y-121711004D01*
X154614802Y-121381509D01*
X154944297Y-120888386D01*
X155060000Y-120306707D01*
X155060000Y-119504000D01*
X159440000Y-119504000D01*
X159440000Y-120266000D01*
X159557234Y-120847374D01*
X159888026Y-121339630D01*
X160382016Y-121667827D01*
X160718270Y-121762656D01*
X160956000Y-121592494D01*
X160956000Y-119504000D01*
X159440000Y-119504000D01*
X155060000Y-119504000D01*
X155060000Y-118734000D01*
X159440000Y-118734000D01*
X159440000Y-119496000D01*
X160956000Y-119496000D01*
X160956000Y-117407506D01*
X160964000Y-117407506D01*
X160964000Y-119496000D01*
X160984000Y-119496000D01*
X160984000Y-119504000D01*
X160964000Y-119504000D01*
X160964000Y-121592494D01*
X161201730Y-121762656D01*
X161537984Y-121667827D01*
X162031974Y-121339630D01*
X162215114Y-121067097D01*
X162425198Y-121381509D01*
X162918321Y-121711004D01*
X163500000Y-121826707D01*
X164081679Y-121711004D01*
X164574802Y-121381509D01*
X164770000Y-121089375D01*
X164965198Y-121381509D01*
X165458321Y-121711004D01*
X166040000Y-121826707D01*
X166621679Y-121711004D01*
X167114802Y-121381509D01*
X167444297Y-120888386D01*
X167560000Y-120306707D01*
X167560000Y-118693293D01*
X169210000Y-118693293D01*
X169210000Y-120306707D01*
X169325703Y-120888386D01*
X169655198Y-121381509D01*
X170148321Y-121711004D01*
X170730000Y-121826707D01*
X171311679Y-121711004D01*
X171804802Y-121381509D01*
X172000000Y-121089375D01*
X172195198Y-121381509D01*
X172688321Y-121711004D01*
X173270000Y-121826707D01*
X173851679Y-121711004D01*
X174344802Y-121381509D01*
X174674297Y-120888386D01*
X174790000Y-120306707D01*
X174790000Y-119504000D01*
X175940000Y-119504000D01*
X175940000Y-120266000D01*
X176057234Y-120847374D01*
X176388026Y-121339630D01*
X176882016Y-121667827D01*
X177218270Y-121762656D01*
X177456000Y-121592494D01*
X177456000Y-119504000D01*
X175940000Y-119504000D01*
X174790000Y-119504000D01*
X174790000Y-118734000D01*
X175940000Y-118734000D01*
X175940000Y-119496000D01*
X177456000Y-119496000D01*
X177456000Y-117407506D01*
X177464000Y-117407506D01*
X177464000Y-119496000D01*
X177484000Y-119496000D01*
X177484000Y-119504000D01*
X177464000Y-119504000D01*
X177464000Y-121592494D01*
X177701730Y-121762656D01*
X178037984Y-121667827D01*
X178531974Y-121339630D01*
X178715114Y-121067097D01*
X178925198Y-121381509D01*
X179418321Y-121711004D01*
X180000000Y-121826707D01*
X180581679Y-121711004D01*
X181074802Y-121381509D01*
X181270000Y-121089375D01*
X181465198Y-121381509D01*
X181958321Y-121711004D01*
X182540000Y-121826707D01*
X183121679Y-121711004D01*
X183614802Y-121381509D01*
X183944297Y-120888386D01*
X184060000Y-120306707D01*
X184060000Y-118693293D01*
X183944297Y-118111614D01*
X183614802Y-117618491D01*
X183121679Y-117288996D01*
X182540000Y-117173293D01*
X181958321Y-117288996D01*
X181465198Y-117618491D01*
X181270000Y-117910625D01*
X181074802Y-117618491D01*
X180581679Y-117288996D01*
X180000000Y-117173293D01*
X179418321Y-117288996D01*
X178925198Y-117618491D01*
X178715114Y-117932903D01*
X178531974Y-117660370D01*
X178037984Y-117332173D01*
X177701730Y-117237344D01*
X177464000Y-117407506D01*
X177456000Y-117407506D01*
X177218270Y-117237344D01*
X176882016Y-117332173D01*
X176388026Y-117660370D01*
X176057234Y-118152626D01*
X175940000Y-118734000D01*
X174790000Y-118734000D01*
X174790000Y-118693293D01*
X174674297Y-118111614D01*
X174344802Y-117618491D01*
X173851679Y-117288996D01*
X173270000Y-117173293D01*
X172688321Y-117288996D01*
X172195198Y-117618491D01*
X172000000Y-117910625D01*
X171804802Y-117618491D01*
X171311679Y-117288996D01*
X170730000Y-117173293D01*
X170148321Y-117288996D01*
X169655198Y-117618491D01*
X169325703Y-118111614D01*
X169210000Y-118693293D01*
X167560000Y-118693293D01*
X167444297Y-118111614D01*
X167114802Y-117618491D01*
X166621679Y-117288996D01*
X166040000Y-117173293D01*
X165458321Y-117288996D01*
X164965198Y-117618491D01*
X164770000Y-117910625D01*
X164574802Y-117618491D01*
X164081679Y-117288996D01*
X163500000Y-117173293D01*
X162918321Y-117288996D01*
X162425198Y-117618491D01*
X162215114Y-117932903D01*
X162031974Y-117660370D01*
X161537984Y-117332173D01*
X161201730Y-117237344D01*
X160964000Y-117407506D01*
X160956000Y-117407506D01*
X160718270Y-117237344D01*
X160382016Y-117332173D01*
X159888026Y-117660370D01*
X159557234Y-118152626D01*
X159440000Y-118734000D01*
X155060000Y-118734000D01*
X155060000Y-118693293D01*
X154944297Y-118111614D01*
X154614802Y-117618491D01*
X154121679Y-117288996D01*
X153540000Y-117173293D01*
X152958321Y-117288996D01*
X152465198Y-117618491D01*
X152270000Y-117910625D01*
X152074802Y-117618491D01*
X151581679Y-117288996D01*
X151000000Y-117173293D01*
X150418321Y-117288996D01*
X149925198Y-117618491D01*
X149715114Y-117932903D01*
X149531974Y-117660370D01*
X149037984Y-117332173D01*
X148701730Y-117237344D01*
X148464000Y-117407506D01*
X148456000Y-117407506D01*
X148218270Y-117237344D01*
X147882016Y-117332173D01*
X147388026Y-117660370D01*
X147057234Y-118152626D01*
X146940000Y-118734000D01*
X142560000Y-118734000D01*
X142560000Y-118693293D01*
X142444297Y-118111614D01*
X142114802Y-117618491D01*
X141621679Y-117288996D01*
X141040000Y-117173293D01*
X140458321Y-117288996D01*
X139965198Y-117618491D01*
X139770000Y-117910625D01*
X139574802Y-117618491D01*
X139081679Y-117288996D01*
X138500000Y-117173293D01*
X137918321Y-117288996D01*
X137425198Y-117618491D01*
X137215114Y-117932903D01*
X137031974Y-117660370D01*
X136537984Y-117332173D01*
X136201730Y-117237344D01*
X135964000Y-117407506D01*
X135956000Y-117407506D01*
X135718270Y-117237344D01*
X135382016Y-117332173D01*
X134888026Y-117660370D01*
X134557234Y-118152626D01*
X134440000Y-118734000D01*
X130060000Y-118734000D01*
X130060000Y-118693293D01*
X129944297Y-118111614D01*
X129614802Y-117618491D01*
X129121679Y-117288996D01*
X128540000Y-117173293D01*
X127958321Y-117288996D01*
X127465198Y-117618491D01*
X127270000Y-117910625D01*
X127074802Y-117618491D01*
X126581679Y-117288996D01*
X126000000Y-117173293D01*
X125418321Y-117288996D01*
X124925198Y-117618491D01*
X124715114Y-117932903D01*
X124531974Y-117660370D01*
X124037984Y-117332173D01*
X123701730Y-117237344D01*
X123464000Y-117407506D01*
X123456000Y-117407506D01*
X123218270Y-117237344D01*
X122882016Y-117332173D01*
X122388026Y-117660370D01*
X122057234Y-118152626D01*
X121940000Y-118734000D01*
X119048807Y-118734000D01*
X118631516Y-118315980D01*
X117250792Y-117742653D01*
X115755767Y-117741349D01*
X115508000Y-117843724D01*
X115508000Y-113831342D01*
X115557816Y-113711372D01*
X115557999Y-113501020D01*
X165479736Y-113501020D01*
X165710655Y-114059886D01*
X166137865Y-114487842D01*
X166696327Y-114719736D01*
X167301020Y-114720264D01*
X167859886Y-114489345D01*
X168287842Y-114062135D01*
X168519736Y-113503673D01*
X168519738Y-113501020D01*
X170579736Y-113501020D01*
X170810655Y-114059886D01*
X171237865Y-114487842D01*
X171796327Y-114719736D01*
X172401020Y-114720264D01*
X172959886Y-114489345D01*
X173387842Y-114062135D01*
X173619736Y-113503673D01*
X173619738Y-113501020D01*
X175659736Y-113501020D01*
X175890655Y-114059886D01*
X176317865Y-114487842D01*
X176876327Y-114719736D01*
X177481020Y-114720264D01*
X178039886Y-114489345D01*
X178467842Y-114062135D01*
X178699736Y-113503673D01*
X178699738Y-113501020D01*
X180739736Y-113501020D01*
X180970655Y-114059886D01*
X181397865Y-114487842D01*
X181956327Y-114719736D01*
X182561020Y-114720264D01*
X183119886Y-114489345D01*
X183530341Y-114079606D01*
X183937865Y-114487842D01*
X184496327Y-114719736D01*
X185101020Y-114720264D01*
X185659886Y-114489345D01*
X186087842Y-114062135D01*
X186319736Y-113503673D01*
X186320264Y-112898980D01*
X186089345Y-112340114D01*
X185662135Y-111912158D01*
X185103673Y-111680264D01*
X184498980Y-111679736D01*
X183940114Y-111910655D01*
X183529659Y-112320394D01*
X183122135Y-111912158D01*
X182563673Y-111680264D01*
X181958980Y-111679736D01*
X181400114Y-111910655D01*
X180972158Y-112337865D01*
X180740264Y-112896327D01*
X180739736Y-113501020D01*
X178699738Y-113501020D01*
X178700264Y-112898980D01*
X178469345Y-112340114D01*
X178042135Y-111912158D01*
X177483673Y-111680264D01*
X176878980Y-111679736D01*
X176320114Y-111910655D01*
X175892158Y-112337865D01*
X175660264Y-112896327D01*
X175659736Y-113501020D01*
X173619738Y-113501020D01*
X173620264Y-112898980D01*
X173389345Y-112340114D01*
X172962135Y-111912158D01*
X172403673Y-111680264D01*
X171798980Y-111679736D01*
X171240114Y-111910655D01*
X170812158Y-112337865D01*
X170580264Y-112896327D01*
X170579736Y-113501020D01*
X168519738Y-113501020D01*
X168520264Y-112898980D01*
X168289345Y-112340114D01*
X167862135Y-111912158D01*
X167303673Y-111680264D01*
X166698980Y-111679736D01*
X166140114Y-111910655D01*
X165712158Y-112337865D01*
X165480264Y-112896327D01*
X165479736Y-113501020D01*
X115557999Y-113501020D01*
X115558183Y-113290474D01*
X115508000Y-113169022D01*
X115508000Y-111185141D01*
X116475516Y-111185141D01*
X116665297Y-111594844D01*
X117626236Y-112036124D01*
X118682899Y-112076080D01*
X119674418Y-111708626D01*
X119844703Y-111594844D01*
X120034484Y-111185141D01*
X118255000Y-109405657D01*
X116475516Y-111185141D01*
X115508000Y-111185141D01*
X115508000Y-109827899D01*
X115578920Y-109827899D01*
X115946374Y-110819418D01*
X116060156Y-110989703D01*
X116469859Y-111179484D01*
X118249343Y-109400000D01*
X118260657Y-109400000D01*
X120040141Y-111179484D01*
X120449844Y-110989703D01*
X120891124Y-110028764D01*
X120931080Y-108972101D01*
X120563626Y-107980582D01*
X120449844Y-107810297D01*
X120040141Y-107620516D01*
X118260657Y-109400000D01*
X118249343Y-109400000D01*
X116469859Y-107620516D01*
X116060156Y-107810297D01*
X115618876Y-108771236D01*
X115578920Y-109827899D01*
X115508000Y-109827899D01*
X115508000Y-106758000D01*
X117735141Y-106758000D01*
X116835582Y-107091374D01*
X116665297Y-107205156D01*
X116475516Y-107614859D01*
X118255000Y-109394343D01*
X120034484Y-107614859D01*
X119844703Y-107205156D01*
X118883764Y-106763876D01*
X118728369Y-106758000D01*
X133178775Y-106758000D01*
X132241331Y-107145344D01*
X131492971Y-107892398D01*
X131087463Y-108868972D01*
X131086540Y-109926389D01*
X131490344Y-110903669D01*
X132237398Y-111652029D01*
X133213972Y-112057537D01*
X134271389Y-112058460D01*
X135248669Y-111654656D01*
X135719004Y-111185141D01*
X141475516Y-111185141D01*
X141665297Y-111594844D01*
X142626236Y-112036124D01*
X143682899Y-112076080D01*
X144674418Y-111708626D01*
X144844703Y-111594844D01*
X145034484Y-111185141D01*
X143255000Y-109405657D01*
X141475516Y-111185141D01*
X135719004Y-111185141D01*
X135997029Y-110907602D01*
X136402537Y-109931028D01*
X136402627Y-109827899D01*
X140578920Y-109827899D01*
X140946374Y-110819418D01*
X141060156Y-110989703D01*
X141469859Y-111179484D01*
X143249343Y-109400000D01*
X143260657Y-109400000D01*
X145040141Y-111179484D01*
X145449844Y-110989703D01*
X145891124Y-110028764D01*
X145931080Y-108972101D01*
X145563626Y-107980582D01*
X145449844Y-107810297D01*
X145040141Y-107620516D01*
X143260657Y-109400000D01*
X143249343Y-109400000D01*
X141469859Y-107620516D01*
X141060156Y-107810297D01*
X140618876Y-108771236D01*
X140578920Y-109827899D01*
X136402627Y-109827899D01*
X136403460Y-108873611D01*
X135999656Y-107896331D01*
X135252602Y-107147971D01*
X134313445Y-106758000D01*
X142735141Y-106758000D01*
X141835582Y-107091374D01*
X141665297Y-107205156D01*
X141475516Y-107614859D01*
X143255000Y-109394343D01*
X145034484Y-107614859D01*
X144844703Y-107205156D01*
X143883764Y-106763876D01*
X143728369Y-106758000D01*
X158178775Y-106758000D01*
X157241331Y-107145344D01*
X156492971Y-107892398D01*
X156087463Y-108868972D01*
X156086540Y-109926389D01*
X156490344Y-110903669D01*
X157237398Y-111652029D01*
X158213972Y-112057537D01*
X159271389Y-112058460D01*
X160248669Y-111654656D01*
X160997029Y-110907602D01*
X161402537Y-109931028D01*
X161403460Y-108873611D01*
X160999656Y-107896331D01*
X160252602Y-107147971D01*
X159313445Y-106758000D01*
X163000000Y-106758000D01*
X163275501Y-106706161D01*
X163528531Y-106543340D01*
X163698280Y-106294904D01*
X163758000Y-106000000D01*
X163758000Y-105881020D01*
X165499736Y-105881020D01*
X165730655Y-106439886D01*
X166157865Y-106867842D01*
X166716327Y-107099736D01*
X167321020Y-107100264D01*
X167879886Y-106869345D01*
X168307842Y-106442135D01*
X168539736Y-105883673D01*
X168539738Y-105881020D01*
X170579736Y-105881020D01*
X170810655Y-106439886D01*
X171237865Y-106867842D01*
X171796327Y-107099736D01*
X172401020Y-107100264D01*
X172959886Y-106869345D01*
X173387842Y-106442135D01*
X173619736Y-105883673D01*
X173619738Y-105881020D01*
X175659736Y-105881020D01*
X175890655Y-106439886D01*
X176317865Y-106867842D01*
X176876327Y-107099736D01*
X177481020Y-107100264D01*
X178039886Y-106869345D01*
X178365110Y-106544687D01*
X181300970Y-106544687D01*
X181352302Y-106836145D01*
X181902101Y-107087888D01*
X182506389Y-107110069D01*
X183073165Y-106899311D01*
X183167698Y-106836145D01*
X183219030Y-106544687D01*
X183840970Y-106544687D01*
X183892302Y-106836145D01*
X184442101Y-107087888D01*
X185046389Y-107110069D01*
X185613165Y-106899311D01*
X185707698Y-106836145D01*
X185759030Y-106544687D01*
X184800000Y-105585657D01*
X183840970Y-106544687D01*
X183219030Y-106544687D01*
X182260000Y-105585657D01*
X181300970Y-106544687D01*
X178365110Y-106544687D01*
X178467842Y-106442135D01*
X178699736Y-105883673D01*
X178699786Y-105826389D01*
X180729931Y-105826389D01*
X180940689Y-106393165D01*
X181003855Y-106487698D01*
X181295313Y-106539030D01*
X182254343Y-105580000D01*
X182265657Y-105580000D01*
X183224687Y-106539030D01*
X183516145Y-106487698D01*
X183527412Y-106463090D01*
X183543855Y-106487698D01*
X183835313Y-106539030D01*
X184794343Y-105580000D01*
X184805657Y-105580000D01*
X185764687Y-106539030D01*
X186056145Y-106487698D01*
X186307888Y-105937899D01*
X186330069Y-105333611D01*
X186119311Y-104766835D01*
X186056145Y-104672302D01*
X185764687Y-104620970D01*
X184805657Y-105580000D01*
X184794343Y-105580000D01*
X183835313Y-104620970D01*
X183543855Y-104672302D01*
X183532588Y-104696910D01*
X183516145Y-104672302D01*
X183224687Y-104620970D01*
X182265657Y-105580000D01*
X182254343Y-105580000D01*
X181295313Y-104620970D01*
X181003855Y-104672302D01*
X180752112Y-105222101D01*
X180729931Y-105826389D01*
X178699786Y-105826389D01*
X178700264Y-105278980D01*
X178469345Y-104720114D01*
X178364727Y-104615313D01*
X181300970Y-104615313D01*
X182260000Y-105574343D01*
X183219030Y-104615313D01*
X183840970Y-104615313D01*
X184800000Y-105574343D01*
X185759030Y-104615313D01*
X185707698Y-104323855D01*
X185157899Y-104072112D01*
X184553611Y-104049931D01*
X183986835Y-104260689D01*
X183892302Y-104323855D01*
X183840970Y-104615313D01*
X183219030Y-104615313D01*
X183167698Y-104323855D01*
X182617899Y-104072112D01*
X182013611Y-104049931D01*
X181446835Y-104260689D01*
X181352302Y-104323855D01*
X181300970Y-104615313D01*
X178364727Y-104615313D01*
X178042135Y-104292158D01*
X177483673Y-104060264D01*
X176878980Y-104059736D01*
X176320114Y-104290655D01*
X175892158Y-104717865D01*
X175660264Y-105276327D01*
X175659736Y-105881020D01*
X173619738Y-105881020D01*
X173620264Y-105278980D01*
X173389345Y-104720114D01*
X172962135Y-104292158D01*
X172403673Y-104060264D01*
X171798980Y-104059736D01*
X171240114Y-104290655D01*
X170812158Y-104717865D01*
X170580264Y-105276327D01*
X170579736Y-105881020D01*
X168539738Y-105881020D01*
X168540264Y-105278980D01*
X168309345Y-104720114D01*
X167882135Y-104292158D01*
X167323673Y-104060264D01*
X166718980Y-104059736D01*
X166160114Y-104290655D01*
X165732158Y-104717865D01*
X165500264Y-105276327D01*
X165499736Y-105881020D01*
X163758000Y-105881020D01*
X163758000Y-82504000D01*
X167614250Y-82504000D01*
X167614250Y-83551750D01*
X167753235Y-84242476D01*
X168145970Y-84827436D01*
X168732664Y-85217576D01*
X169133568Y-85330639D01*
X169416000Y-85163995D01*
X169416000Y-82504000D01*
X169424000Y-82504000D01*
X169424000Y-85163995D01*
X169706432Y-85330639D01*
X170107336Y-85217576D01*
X170694030Y-84827436D01*
X171086765Y-84242476D01*
X171225750Y-83551750D01*
X171225750Y-82504000D01*
X169424000Y-82504000D01*
X169416000Y-82504000D01*
X167614250Y-82504000D01*
X163758000Y-82504000D01*
X163758000Y-81448250D01*
X167614250Y-81448250D01*
X167614250Y-82496000D01*
X169416000Y-82496000D01*
X169416000Y-79836005D01*
X169424000Y-79836005D01*
X169424000Y-82496000D01*
X171225750Y-82496000D01*
X171225750Y-81448250D01*
X171215307Y-81396347D01*
X172694250Y-81396347D01*
X172694250Y-83603653D01*
X172831705Y-84294684D01*
X173223142Y-84880511D01*
X173808969Y-85271948D01*
X174500000Y-85409403D01*
X175191031Y-85271948D01*
X175776858Y-84880511D01*
X176168295Y-84294684D01*
X176305750Y-83603653D01*
X176305750Y-81396347D01*
X177774250Y-81396347D01*
X177774250Y-83603653D01*
X177911705Y-84294684D01*
X178303142Y-84880511D01*
X178888969Y-85271948D01*
X179580000Y-85409403D01*
X180271031Y-85271948D01*
X180856858Y-84880511D01*
X181248295Y-84294684D01*
X181385750Y-83603653D01*
X181385750Y-81396347D01*
X181248295Y-80705316D01*
X180856858Y-80119489D01*
X180271031Y-79728052D01*
X179580000Y-79590597D01*
X178888969Y-79728052D01*
X178303142Y-80119489D01*
X177911705Y-80705316D01*
X177774250Y-81396347D01*
X176305750Y-81396347D01*
X176168295Y-80705316D01*
X175776858Y-80119489D01*
X175191031Y-79728052D01*
X174500000Y-79590597D01*
X173808969Y-79728052D01*
X173223142Y-80119489D01*
X172831705Y-80705316D01*
X172694250Y-81396347D01*
X171215307Y-81396347D01*
X171086765Y-80757524D01*
X170694030Y-80172564D01*
X170107336Y-79782424D01*
X169706432Y-79669361D01*
X169424000Y-79836005D01*
X169416000Y-79836005D01*
X169133568Y-79669361D01*
X168732664Y-79782424D01*
X168145970Y-80172564D01*
X167753235Y-80757524D01*
X167614250Y-81448250D01*
X163758000Y-81448250D01*
X163758000Y-78538154D01*
X163830978Y-78508000D01*
X173168658Y-78508000D01*
X173288628Y-78557816D01*
X173288628Y-78557816D01*
G37*
X173288628Y-78557816D02*
X173709526Y-78558183D01*
X173830978Y-78508000D01*
X183168658Y-78508000D01*
X183288628Y-78557816D01*
X183709526Y-78558183D01*
X183830978Y-78508000D01*
X184842811Y-78508000D01*
X184742653Y-78749208D01*
X184741349Y-80244233D01*
X185312265Y-81625955D01*
X186368484Y-82684020D01*
X187749208Y-83257347D01*
X189244233Y-83258651D01*
X189492000Y-83156276D01*
X189492000Y-83168658D01*
X189442184Y-83288628D01*
X189441817Y-83709526D01*
X189492000Y-83830978D01*
X189492000Y-93168658D01*
X189442184Y-93288628D01*
X189441817Y-93709526D01*
X189492000Y-93830978D01*
X189492000Y-103168658D01*
X189442184Y-103288628D01*
X189441817Y-103709526D01*
X189492000Y-103830978D01*
X189492000Y-113168658D01*
X189442184Y-113288628D01*
X189441817Y-113709526D01*
X189492000Y-113830978D01*
X189492000Y-117842811D01*
X189250792Y-117742653D01*
X187755767Y-117741349D01*
X186374045Y-118312265D01*
X185315980Y-119368484D01*
X184742653Y-120749208D01*
X184741349Y-122244233D01*
X184843724Y-122492000D01*
X178831342Y-122492000D01*
X178711372Y-122442184D01*
X178290474Y-122441817D01*
X178169022Y-122492000D01*
X168831342Y-122492000D01*
X168711372Y-122442184D01*
X168290474Y-122441817D01*
X168169022Y-122492000D01*
X158831342Y-122492000D01*
X158711372Y-122442184D01*
X158290474Y-122441817D01*
X158169022Y-122492000D01*
X148831342Y-122492000D01*
X148711372Y-122442184D01*
X148290474Y-122441817D01*
X148169022Y-122492000D01*
X128831342Y-122492000D01*
X128711372Y-122442184D01*
X128290474Y-122441817D01*
X128169022Y-122492000D01*
X120157189Y-122492000D01*
X120257347Y-122250792D01*
X120258651Y-120755767D01*
X119741432Y-119504000D01*
X121940000Y-119504000D01*
X121940000Y-120266000D01*
X122057234Y-120847374D01*
X122388026Y-121339630D01*
X122882016Y-121667827D01*
X123218270Y-121762656D01*
X123456000Y-121592494D01*
X123456000Y-119504000D01*
X121940000Y-119504000D01*
X119741432Y-119504000D01*
X119687735Y-119374045D01*
X119048807Y-118734000D01*
X121940000Y-118734000D01*
X121940000Y-119496000D01*
X123456000Y-119496000D01*
X123456000Y-117407506D01*
X123464000Y-117407506D01*
X123464000Y-119496000D01*
X123484000Y-119496000D01*
X123484000Y-119504000D01*
X123464000Y-119504000D01*
X123464000Y-121592494D01*
X123701730Y-121762656D01*
X124037984Y-121667827D01*
X124531974Y-121339630D01*
X124715114Y-121067097D01*
X124925198Y-121381509D01*
X125418321Y-121711004D01*
X126000000Y-121826707D01*
X126581679Y-121711004D01*
X127074802Y-121381509D01*
X127270000Y-121089375D01*
X127465198Y-121381509D01*
X127958321Y-121711004D01*
X128540000Y-121826707D01*
X129121679Y-121711004D01*
X129614802Y-121381509D01*
X129944297Y-120888386D01*
X130060000Y-120306707D01*
X130060000Y-119504000D01*
X134440000Y-119504000D01*
X134440000Y-120266000D01*
X134557234Y-120847374D01*
X134888026Y-121339630D01*
X135382016Y-121667827D01*
X135718270Y-121762656D01*
X135956000Y-121592494D01*
X135956000Y-119504000D01*
X134440000Y-119504000D01*
X130060000Y-119504000D01*
X130060000Y-118734000D01*
X134440000Y-118734000D01*
X134440000Y-119496000D01*
X135956000Y-119496000D01*
X135956000Y-117407506D01*
X135964000Y-117407506D01*
X135964000Y-119496000D01*
X135984000Y-119496000D01*
X135984000Y-119504000D01*
X135964000Y-119504000D01*
X135964000Y-121592494D01*
X136201730Y-121762656D01*
X136537984Y-121667827D01*
X137031974Y-121339630D01*
X137215114Y-121067097D01*
X137425198Y-121381509D01*
X137918321Y-121711004D01*
X138500000Y-121826707D01*
X139081679Y-121711004D01*
X139574802Y-121381509D01*
X139770000Y-121089375D01*
X139965198Y-121381509D01*
X140458321Y-121711004D01*
X141040000Y-121826707D01*
X141621679Y-121711004D01*
X142114802Y-121381509D01*
X142444297Y-120888386D01*
X142560000Y-120306707D01*
X142560000Y-119504000D01*
X146940000Y-119504000D01*
X146940000Y-120266000D01*
X147057234Y-120847374D01*
X147388026Y-121339630D01*
X147882016Y-121667827D01*
X148218270Y-121762656D01*
X148456000Y-121592494D01*
X148456000Y-119504000D01*
X146940000Y-119504000D01*
X142560000Y-119504000D01*
X142560000Y-118734000D01*
X146940000Y-118734000D01*
X146940000Y-119496000D01*
X148456000Y-119496000D01*
X148456000Y-117407506D01*
X148464000Y-117407506D01*
X148464000Y-119496000D01*
X148484000Y-119496000D01*
X148484000Y-119504000D01*
X148464000Y-119504000D01*
X148464000Y-121592494D01*
X148701730Y-121762656D01*
X149037984Y-121667827D01*
X149531974Y-121339630D01*
X149715114Y-121067097D01*
X149925198Y-121381509D01*
X150418321Y-121711004D01*
X151000000Y-121826707D01*
X151581679Y-121711004D01*
X152074802Y-121381509D01*
X152270000Y-121089375D01*
X152465198Y-121381509D01*
X152958321Y-121711004D01*
X153540000Y-121826707D01*
X154121679Y-121711004D01*
X154614802Y-121381509D01*
X154944297Y-120888386D01*
X155060000Y-120306707D01*
X155060000Y-119504000D01*
X159440000Y-119504000D01*
X159440000Y-120266000D01*
X159557234Y-120847374D01*
X159888026Y-121339630D01*
X160382016Y-121667827D01*
X160718270Y-121762656D01*
X160956000Y-121592494D01*
X160956000Y-119504000D01*
X159440000Y-119504000D01*
X155060000Y-119504000D01*
X155060000Y-118734000D01*
X159440000Y-118734000D01*
X159440000Y-119496000D01*
X160956000Y-119496000D01*
X160956000Y-117407506D01*
X160964000Y-117407506D01*
X160964000Y-119496000D01*
X160984000Y-119496000D01*
X160984000Y-119504000D01*
X160964000Y-119504000D01*
X160964000Y-121592494D01*
X161201730Y-121762656D01*
X161537984Y-121667827D01*
X162031974Y-121339630D01*
X162215114Y-121067097D01*
X162425198Y-121381509D01*
X162918321Y-121711004D01*
X163500000Y-121826707D01*
X164081679Y-121711004D01*
X164574802Y-121381509D01*
X164770000Y-121089375D01*
X164965198Y-121381509D01*
X165458321Y-121711004D01*
X166040000Y-121826707D01*
X166621679Y-121711004D01*
X167114802Y-121381509D01*
X167444297Y-120888386D01*
X167560000Y-120306707D01*
X167560000Y-118693293D01*
X169210000Y-118693293D01*
X169210000Y-120306707D01*
X169325703Y-120888386D01*
X169655198Y-121381509D01*
X170148321Y-121711004D01*
X170730000Y-121826707D01*
X171311679Y-121711004D01*
X171804802Y-121381509D01*
X172000000Y-121089375D01*
X172195198Y-121381509D01*
X172688321Y-121711004D01*
X173270000Y-121826707D01*
X173851679Y-121711004D01*
X174344802Y-121381509D01*
X174674297Y-120888386D01*
X174790000Y-120306707D01*
X174790000Y-119504000D01*
X175940000Y-119504000D01*
X175940000Y-120266000D01*
X176057234Y-120847374D01*
X176388026Y-121339630D01*
X176882016Y-121667827D01*
X177218270Y-121762656D01*
X177456000Y-121592494D01*
X177456000Y-119504000D01*
X175940000Y-119504000D01*
X174790000Y-119504000D01*
X174790000Y-118734000D01*
X175940000Y-118734000D01*
X175940000Y-119496000D01*
X177456000Y-119496000D01*
X177456000Y-117407506D01*
X177464000Y-117407506D01*
X177464000Y-119496000D01*
X177484000Y-119496000D01*
X177484000Y-119504000D01*
X177464000Y-119504000D01*
X177464000Y-121592494D01*
X177701730Y-121762656D01*
X178037984Y-121667827D01*
X178531974Y-121339630D01*
X178715114Y-121067097D01*
X178925198Y-121381509D01*
X179418321Y-121711004D01*
X180000000Y-121826707D01*
X180581679Y-121711004D01*
X181074802Y-121381509D01*
X181270000Y-121089375D01*
X181465198Y-121381509D01*
X181958321Y-121711004D01*
X182540000Y-121826707D01*
X183121679Y-121711004D01*
X183614802Y-121381509D01*
X183944297Y-120888386D01*
X184060000Y-120306707D01*
X184060000Y-118693293D01*
X183944297Y-118111614D01*
X183614802Y-117618491D01*
X183121679Y-117288996D01*
X182540000Y-117173293D01*
X181958321Y-117288996D01*
X181465198Y-117618491D01*
X181270000Y-117910625D01*
X181074802Y-117618491D01*
X180581679Y-117288996D01*
X180000000Y-117173293D01*
X179418321Y-117288996D01*
X178925198Y-117618491D01*
X178715114Y-117932903D01*
X178531974Y-117660370D01*
X178037984Y-117332173D01*
X177701730Y-117237344D01*
X177464000Y-117407506D01*
X177456000Y-117407506D01*
X177218270Y-117237344D01*
X176882016Y-117332173D01*
X176388026Y-117660370D01*
X176057234Y-118152626D01*
X175940000Y-118734000D01*
X174790000Y-118734000D01*
X174790000Y-118693293D01*
X174674297Y-118111614D01*
X174344802Y-117618491D01*
X173851679Y-117288996D01*
X173270000Y-117173293D01*
X172688321Y-117288996D01*
X172195198Y-117618491D01*
X172000000Y-117910625D01*
X171804802Y-117618491D01*
X171311679Y-117288996D01*
X170730000Y-117173293D01*
X170148321Y-117288996D01*
X169655198Y-117618491D01*
X169325703Y-118111614D01*
X169210000Y-118693293D01*
X167560000Y-118693293D01*
X167444297Y-118111614D01*
X167114802Y-117618491D01*
X166621679Y-117288996D01*
X166040000Y-117173293D01*
X165458321Y-117288996D01*
X164965198Y-117618491D01*
X164770000Y-117910625D01*
X164574802Y-117618491D01*
X164081679Y-117288996D01*
X163500000Y-117173293D01*
X162918321Y-117288996D01*
X162425198Y-117618491D01*
X162215114Y-117932903D01*
X162031974Y-117660370D01*
X161537984Y-117332173D01*
X161201730Y-117237344D01*
X160964000Y-117407506D01*
X160956000Y-117407506D01*
X160718270Y-117237344D01*
X160382016Y-117332173D01*
X159888026Y-117660370D01*
X159557234Y-118152626D01*
X159440000Y-118734000D01*
X155060000Y-118734000D01*
X155060000Y-118693293D01*
X154944297Y-118111614D01*
X154614802Y-117618491D01*
X154121679Y-117288996D01*
X153540000Y-117173293D01*
X152958321Y-117288996D01*
X152465198Y-117618491D01*
X152270000Y-117910625D01*
X152074802Y-117618491D01*
X151581679Y-117288996D01*
X151000000Y-117173293D01*
X150418321Y-117288996D01*
X149925198Y-117618491D01*
X149715114Y-117932903D01*
X149531974Y-117660370D01*
X149037984Y-117332173D01*
X148701730Y-117237344D01*
X148464000Y-117407506D01*
X148456000Y-117407506D01*
X148218270Y-117237344D01*
X147882016Y-117332173D01*
X147388026Y-117660370D01*
X147057234Y-118152626D01*
X146940000Y-118734000D01*
X142560000Y-118734000D01*
X142560000Y-118693293D01*
X142444297Y-118111614D01*
X142114802Y-117618491D01*
X141621679Y-117288996D01*
X141040000Y-117173293D01*
X140458321Y-117288996D01*
X139965198Y-117618491D01*
X139770000Y-117910625D01*
X139574802Y-117618491D01*
X139081679Y-117288996D01*
X138500000Y-117173293D01*
X137918321Y-117288996D01*
X137425198Y-117618491D01*
X137215114Y-117932903D01*
X137031974Y-117660370D01*
X136537984Y-117332173D01*
X136201730Y-117237344D01*
X135964000Y-117407506D01*
X135956000Y-117407506D01*
X135718270Y-117237344D01*
X135382016Y-117332173D01*
X134888026Y-117660370D01*
X134557234Y-118152626D01*
X134440000Y-118734000D01*
X130060000Y-118734000D01*
X130060000Y-118693293D01*
X129944297Y-118111614D01*
X129614802Y-117618491D01*
X129121679Y-117288996D01*
X128540000Y-117173293D01*
X127958321Y-117288996D01*
X127465198Y-117618491D01*
X127270000Y-117910625D01*
X127074802Y-117618491D01*
X126581679Y-117288996D01*
X126000000Y-117173293D01*
X125418321Y-117288996D01*
X124925198Y-117618491D01*
X124715114Y-117932903D01*
X124531974Y-117660370D01*
X124037984Y-117332173D01*
X123701730Y-117237344D01*
X123464000Y-117407506D01*
X123456000Y-117407506D01*
X123218270Y-117237344D01*
X122882016Y-117332173D01*
X122388026Y-117660370D01*
X122057234Y-118152626D01*
X121940000Y-118734000D01*
X119048807Y-118734000D01*
X118631516Y-118315980D01*
X117250792Y-117742653D01*
X115755767Y-117741349D01*
X115508000Y-117843724D01*
X115508000Y-113831342D01*
X115557816Y-113711372D01*
X115557999Y-113501020D01*
X165479736Y-113501020D01*
X165710655Y-114059886D01*
X166137865Y-114487842D01*
X166696327Y-114719736D01*
X167301020Y-114720264D01*
X167859886Y-114489345D01*
X168287842Y-114062135D01*
X168519736Y-113503673D01*
X168519738Y-113501020D01*
X170579736Y-113501020D01*
X170810655Y-114059886D01*
X171237865Y-114487842D01*
X171796327Y-114719736D01*
X172401020Y-114720264D01*
X172959886Y-114489345D01*
X173387842Y-114062135D01*
X173619736Y-113503673D01*
X173619738Y-113501020D01*
X175659736Y-113501020D01*
X175890655Y-114059886D01*
X176317865Y-114487842D01*
X176876327Y-114719736D01*
X177481020Y-114720264D01*
X178039886Y-114489345D01*
X178467842Y-114062135D01*
X178699736Y-113503673D01*
X178699738Y-113501020D01*
X180739736Y-113501020D01*
X180970655Y-114059886D01*
X181397865Y-114487842D01*
X181956327Y-114719736D01*
X182561020Y-114720264D01*
X183119886Y-114489345D01*
X183530341Y-114079606D01*
X183937865Y-114487842D01*
X184496327Y-114719736D01*
X185101020Y-114720264D01*
X185659886Y-114489345D01*
X186087842Y-114062135D01*
X186319736Y-113503673D01*
X186320264Y-112898980D01*
X186089345Y-112340114D01*
X185662135Y-111912158D01*
X185103673Y-111680264D01*
X184498980Y-111679736D01*
X183940114Y-111910655D01*
X183529659Y-112320394D01*
X183122135Y-111912158D01*
X182563673Y-111680264D01*
X181958980Y-111679736D01*
X181400114Y-111910655D01*
X180972158Y-112337865D01*
X180740264Y-112896327D01*
X180739736Y-113501020D01*
X178699738Y-113501020D01*
X178700264Y-112898980D01*
X178469345Y-112340114D01*
X178042135Y-111912158D01*
X177483673Y-111680264D01*
X176878980Y-111679736D01*
X176320114Y-111910655D01*
X175892158Y-112337865D01*
X175660264Y-112896327D01*
X175659736Y-113501020D01*
X173619738Y-113501020D01*
X173620264Y-112898980D01*
X173389345Y-112340114D01*
X172962135Y-111912158D01*
X172403673Y-111680264D01*
X171798980Y-111679736D01*
X171240114Y-111910655D01*
X170812158Y-112337865D01*
X170580264Y-112896327D01*
X170579736Y-113501020D01*
X168519738Y-113501020D01*
X168520264Y-112898980D01*
X168289345Y-112340114D01*
X167862135Y-111912158D01*
X167303673Y-111680264D01*
X166698980Y-111679736D01*
X166140114Y-111910655D01*
X165712158Y-112337865D01*
X165480264Y-112896327D01*
X165479736Y-113501020D01*
X115557999Y-113501020D01*
X115558183Y-113290474D01*
X115508000Y-113169022D01*
X115508000Y-111185141D01*
X116475516Y-111185141D01*
X116665297Y-111594844D01*
X117626236Y-112036124D01*
X118682899Y-112076080D01*
X119674418Y-111708626D01*
X119844703Y-111594844D01*
X120034484Y-111185141D01*
X118255000Y-109405657D01*
X116475516Y-111185141D01*
X115508000Y-111185141D01*
X115508000Y-109827899D01*
X115578920Y-109827899D01*
X115946374Y-110819418D01*
X116060156Y-110989703D01*
X116469859Y-111179484D01*
X118249343Y-109400000D01*
X118260657Y-109400000D01*
X120040141Y-111179484D01*
X120449844Y-110989703D01*
X120891124Y-110028764D01*
X120931080Y-108972101D01*
X120563626Y-107980582D01*
X120449844Y-107810297D01*
X120040141Y-107620516D01*
X118260657Y-109400000D01*
X118249343Y-109400000D01*
X116469859Y-107620516D01*
X116060156Y-107810297D01*
X115618876Y-108771236D01*
X115578920Y-109827899D01*
X115508000Y-109827899D01*
X115508000Y-106758000D01*
X117735141Y-106758000D01*
X116835582Y-107091374D01*
X116665297Y-107205156D01*
X116475516Y-107614859D01*
X118255000Y-109394343D01*
X120034484Y-107614859D01*
X119844703Y-107205156D01*
X118883764Y-106763876D01*
X118728369Y-106758000D01*
X133178775Y-106758000D01*
X132241331Y-107145344D01*
X131492971Y-107892398D01*
X131087463Y-108868972D01*
X131086540Y-109926389D01*
X131490344Y-110903669D01*
X132237398Y-111652029D01*
X133213972Y-112057537D01*
X134271389Y-112058460D01*
X135248669Y-111654656D01*
X135719004Y-111185141D01*
X141475516Y-111185141D01*
X141665297Y-111594844D01*
X142626236Y-112036124D01*
X143682899Y-112076080D01*
X144674418Y-111708626D01*
X144844703Y-111594844D01*
X145034484Y-111185141D01*
X143255000Y-109405657D01*
X141475516Y-111185141D01*
X135719004Y-111185141D01*
X135997029Y-110907602D01*
X136402537Y-109931028D01*
X136402627Y-109827899D01*
X140578920Y-109827899D01*
X140946374Y-110819418D01*
X141060156Y-110989703D01*
X141469859Y-111179484D01*
X143249343Y-109400000D01*
X143260657Y-109400000D01*
X145040141Y-111179484D01*
X145449844Y-110989703D01*
X145891124Y-110028764D01*
X145931080Y-108972101D01*
X145563626Y-107980582D01*
X145449844Y-107810297D01*
X145040141Y-107620516D01*
X143260657Y-109400000D01*
X143249343Y-109400000D01*
X141469859Y-107620516D01*
X141060156Y-107810297D01*
X140618876Y-108771236D01*
X140578920Y-109827899D01*
X136402627Y-109827899D01*
X136403460Y-108873611D01*
X135999656Y-107896331D01*
X135252602Y-107147971D01*
X134313445Y-106758000D01*
X142735141Y-106758000D01*
X141835582Y-107091374D01*
X141665297Y-107205156D01*
X141475516Y-107614859D01*
X143255000Y-109394343D01*
X145034484Y-107614859D01*
X144844703Y-107205156D01*
X143883764Y-106763876D01*
X143728369Y-106758000D01*
X158178775Y-106758000D01*
X157241331Y-107145344D01*
X156492971Y-107892398D01*
X156087463Y-108868972D01*
X156086540Y-109926389D01*
X156490344Y-110903669D01*
X157237398Y-111652029D01*
X158213972Y-112057537D01*
X159271389Y-112058460D01*
X160248669Y-111654656D01*
X160997029Y-110907602D01*
X161402537Y-109931028D01*
X161403460Y-108873611D01*
X160999656Y-107896331D01*
X160252602Y-107147971D01*
X159313445Y-106758000D01*
X163000000Y-106758000D01*
X163275501Y-106706161D01*
X163528531Y-106543340D01*
X163698280Y-106294904D01*
X163758000Y-106000000D01*
X163758000Y-105881020D01*
X165499736Y-105881020D01*
X165730655Y-106439886D01*
X166157865Y-106867842D01*
X166716327Y-107099736D01*
X167321020Y-107100264D01*
X167879886Y-106869345D01*
X168307842Y-106442135D01*
X168539736Y-105883673D01*
X168539738Y-105881020D01*
X170579736Y-105881020D01*
X170810655Y-106439886D01*
X171237865Y-106867842D01*
X171796327Y-107099736D01*
X172401020Y-107100264D01*
X172959886Y-106869345D01*
X173387842Y-106442135D01*
X173619736Y-105883673D01*
X173619738Y-105881020D01*
X175659736Y-105881020D01*
X175890655Y-106439886D01*
X176317865Y-106867842D01*
X176876327Y-107099736D01*
X177481020Y-107100264D01*
X178039886Y-106869345D01*
X178365110Y-106544687D01*
X181300970Y-106544687D01*
X181352302Y-106836145D01*
X181902101Y-107087888D01*
X182506389Y-107110069D01*
X183073165Y-106899311D01*
X183167698Y-106836145D01*
X183219030Y-106544687D01*
X183840970Y-106544687D01*
X183892302Y-106836145D01*
X184442101Y-107087888D01*
X185046389Y-107110069D01*
X185613165Y-106899311D01*
X185707698Y-106836145D01*
X185759030Y-106544687D01*
X184800000Y-105585657D01*
X183840970Y-106544687D01*
X183219030Y-106544687D01*
X182260000Y-105585657D01*
X181300970Y-106544687D01*
X178365110Y-106544687D01*
X178467842Y-106442135D01*
X178699736Y-105883673D01*
X178699786Y-105826389D01*
X180729931Y-105826389D01*
X180940689Y-106393165D01*
X181003855Y-106487698D01*
X181295313Y-106539030D01*
X182254343Y-105580000D01*
X182265657Y-105580000D01*
X183224687Y-106539030D01*
X183516145Y-106487698D01*
X183527412Y-106463090D01*
X183543855Y-106487698D01*
X183835313Y-106539030D01*
X184794343Y-105580000D01*
X184805657Y-105580000D01*
X185764687Y-106539030D01*
X186056145Y-106487698D01*
X186307888Y-105937899D01*
X186330069Y-105333611D01*
X186119311Y-104766835D01*
X186056145Y-104672302D01*
X185764687Y-104620970D01*
X184805657Y-105580000D01*
X184794343Y-105580000D01*
X183835313Y-104620970D01*
X183543855Y-104672302D01*
X183532588Y-104696910D01*
X183516145Y-104672302D01*
X183224687Y-104620970D01*
X182265657Y-105580000D01*
X182254343Y-105580000D01*
X181295313Y-104620970D01*
X181003855Y-104672302D01*
X180752112Y-105222101D01*
X180729931Y-105826389D01*
X178699786Y-105826389D01*
X178700264Y-105278980D01*
X178469345Y-104720114D01*
X178364727Y-104615313D01*
X181300970Y-104615313D01*
X182260000Y-105574343D01*
X183219030Y-104615313D01*
X183840970Y-104615313D01*
X184800000Y-105574343D01*
X185759030Y-104615313D01*
X185707698Y-104323855D01*
X185157899Y-104072112D01*
X184553611Y-104049931D01*
X183986835Y-104260689D01*
X183892302Y-104323855D01*
X183840970Y-104615313D01*
X183219030Y-104615313D01*
X183167698Y-104323855D01*
X182617899Y-104072112D01*
X182013611Y-104049931D01*
X181446835Y-104260689D01*
X181352302Y-104323855D01*
X181300970Y-104615313D01*
X178364727Y-104615313D01*
X178042135Y-104292158D01*
X177483673Y-104060264D01*
X176878980Y-104059736D01*
X176320114Y-104290655D01*
X175892158Y-104717865D01*
X175660264Y-105276327D01*
X175659736Y-105881020D01*
X173619738Y-105881020D01*
X173620264Y-105278980D01*
X173389345Y-104720114D01*
X172962135Y-104292158D01*
X172403673Y-104060264D01*
X171798980Y-104059736D01*
X171240114Y-104290655D01*
X170812158Y-104717865D01*
X170580264Y-105276327D01*
X170579736Y-105881020D01*
X168539738Y-105881020D01*
X168540264Y-105278980D01*
X168309345Y-104720114D01*
X167882135Y-104292158D01*
X167323673Y-104060264D01*
X166718980Y-104059736D01*
X166160114Y-104290655D01*
X165732158Y-104717865D01*
X165500264Y-105276327D01*
X165499736Y-105881020D01*
X163758000Y-105881020D01*
X163758000Y-82504000D01*
X167614250Y-82504000D01*
X167614250Y-83551750D01*
X167753235Y-84242476D01*
X168145970Y-84827436D01*
X168732664Y-85217576D01*
X169133568Y-85330639D01*
X169416000Y-85163995D01*
X169416000Y-82504000D01*
X169424000Y-82504000D01*
X169424000Y-85163995D01*
X169706432Y-85330639D01*
X170107336Y-85217576D01*
X170694030Y-84827436D01*
X171086765Y-84242476D01*
X171225750Y-83551750D01*
X171225750Y-82504000D01*
X169424000Y-82504000D01*
X169416000Y-82504000D01*
X167614250Y-82504000D01*
X163758000Y-82504000D01*
X163758000Y-81448250D01*
X167614250Y-81448250D01*
X167614250Y-82496000D01*
X169416000Y-82496000D01*
X169416000Y-79836005D01*
X169424000Y-79836005D01*
X169424000Y-82496000D01*
X171225750Y-82496000D01*
X171225750Y-81448250D01*
X171215307Y-81396347D01*
X172694250Y-81396347D01*
X172694250Y-83603653D01*
X172831705Y-84294684D01*
X173223142Y-84880511D01*
X173808969Y-85271948D01*
X174500000Y-85409403D01*
X175191031Y-85271948D01*
X175776858Y-84880511D01*
X176168295Y-84294684D01*
X176305750Y-83603653D01*
X176305750Y-81396347D01*
X177774250Y-81396347D01*
X177774250Y-83603653D01*
X177911705Y-84294684D01*
X178303142Y-84880511D01*
X178888969Y-85271948D01*
X179580000Y-85409403D01*
X180271031Y-85271948D01*
X180856858Y-84880511D01*
X181248295Y-84294684D01*
X181385750Y-83603653D01*
X181385750Y-81396347D01*
X181248295Y-80705316D01*
X180856858Y-80119489D01*
X180271031Y-79728052D01*
X179580000Y-79590597D01*
X178888969Y-79728052D01*
X178303142Y-80119489D01*
X177911705Y-80705316D01*
X177774250Y-81396347D01*
X176305750Y-81396347D01*
X176168295Y-80705316D01*
X175776858Y-80119489D01*
X175191031Y-79728052D01*
X174500000Y-79590597D01*
X173808969Y-79728052D01*
X173223142Y-80119489D01*
X172831705Y-80705316D01*
X172694250Y-81396347D01*
X171215307Y-81396347D01*
X171086765Y-80757524D01*
X170694030Y-80172564D01*
X170107336Y-79782424D01*
X169706432Y-79669361D01*
X169424000Y-79836005D01*
X169416000Y-79836005D01*
X169133568Y-79669361D01*
X168732664Y-79782424D01*
X168145970Y-80172564D01*
X167753235Y-80757524D01*
X167614250Y-81448250D01*
X163758000Y-81448250D01*
X163758000Y-78538154D01*
X163830978Y-78508000D01*
X173168658Y-78508000D01*
X173288628Y-78557816D01*
D20*
G36*
X123138789Y-79307686D02*
X123858056Y-79308313D01*
X123979823Y-79258000D01*
X133019132Y-79258000D01*
X133138789Y-79307686D01*
X133858056Y-79308313D01*
X133979823Y-79258000D01*
X143019132Y-79258000D01*
X143138789Y-79307686D01*
X143858056Y-79308313D01*
X143979823Y-79258000D01*
X153019132Y-79258000D01*
X153138789Y-79307686D01*
X153858056Y-79308313D01*
X153979823Y-79258000D01*
X162000000Y-79258000D01*
X162000000Y-105000000D01*
X158820445Y-105000000D01*
X158837477Y-104982998D01*
X159357407Y-103730867D01*
X159358591Y-102375081D01*
X158840847Y-101122045D01*
X157882998Y-100162523D01*
X157504257Y-100005256D01*
X157877955Y-99850847D01*
X158837477Y-98892998D01*
X159357407Y-97640867D01*
X159358591Y-96285081D01*
X158840847Y-95032045D01*
X158484642Y-94675218D01*
X158837477Y-94322998D01*
X159357407Y-93070867D01*
X159358591Y-91715081D01*
X158840847Y-90462045D01*
X157882998Y-89502523D01*
X156630867Y-88982593D01*
X155275081Y-88981409D01*
X154022045Y-89499153D01*
X153062523Y-90457002D01*
X152542593Y-91709133D01*
X152541409Y-93064919D01*
X153059153Y-94317955D01*
X153415358Y-94674782D01*
X153062523Y-95027002D01*
X152542593Y-96279133D01*
X152541409Y-97634919D01*
X153059153Y-98887955D01*
X154017002Y-99847477D01*
X154395743Y-100004744D01*
X154022045Y-100159153D01*
X153062523Y-101117002D01*
X152542593Y-102369133D01*
X152541409Y-103724919D01*
X153059153Y-104977955D01*
X153081160Y-105000000D01*
X148920445Y-105000000D01*
X148937477Y-104982998D01*
X149457407Y-103730867D01*
X149458591Y-102375081D01*
X148940847Y-101122045D01*
X147982998Y-100162523D01*
X147604257Y-100005256D01*
X147977955Y-99850847D01*
X148937477Y-98892998D01*
X149457407Y-97640867D01*
X149458591Y-96285081D01*
X148940847Y-95032045D01*
X148584642Y-94675218D01*
X148937477Y-94322998D01*
X149457407Y-93070867D01*
X149458591Y-91715081D01*
X148940847Y-90462045D01*
X147982998Y-89502523D01*
X146730867Y-88982593D01*
X145375081Y-88981409D01*
X144122045Y-89499153D01*
X143162523Y-90457002D01*
X142642593Y-91709133D01*
X142641409Y-93064919D01*
X143159153Y-94317955D01*
X143515358Y-94674782D01*
X143162523Y-95027002D01*
X142642593Y-96279133D01*
X142641409Y-97634919D01*
X143159153Y-98887955D01*
X144117002Y-99847477D01*
X144495743Y-100004744D01*
X144122045Y-100159153D01*
X143162523Y-101117002D01*
X142642593Y-102369133D01*
X142641409Y-103724919D01*
X143159153Y-104977955D01*
X143181160Y-105000000D01*
X133820445Y-105000000D01*
X133837477Y-104982998D01*
X134357407Y-103730867D01*
X134358591Y-102375081D01*
X133840847Y-101122045D01*
X132882998Y-100162523D01*
X132504257Y-100005256D01*
X132877955Y-99850847D01*
X133837477Y-98892998D01*
X134357407Y-97640867D01*
X134358591Y-96285081D01*
X133840847Y-95032045D01*
X133484642Y-94675218D01*
X133837477Y-94322998D01*
X134357407Y-93070867D01*
X134358591Y-91715081D01*
X133840847Y-90462045D01*
X132882998Y-89502523D01*
X131630867Y-88982593D01*
X130275081Y-88981409D01*
X129022045Y-89499153D01*
X128062523Y-90457002D01*
X127542593Y-91709133D01*
X127541409Y-93064919D01*
X128059153Y-94317955D01*
X128415358Y-94674782D01*
X128062523Y-95027002D01*
X127542593Y-96279133D01*
X127541409Y-97634919D01*
X128059153Y-98887955D01*
X129017002Y-99847477D01*
X129395743Y-100004744D01*
X129022045Y-100159153D01*
X128062523Y-101117002D01*
X127542593Y-102369133D01*
X127541409Y-103724919D01*
X128059153Y-104977955D01*
X128081160Y-105000000D01*
X123920445Y-105000000D01*
X123937477Y-104982998D01*
X124457407Y-103730867D01*
X124458591Y-102375081D01*
X123940847Y-101122045D01*
X122982998Y-100162523D01*
X122604257Y-100005256D01*
X122977955Y-99850847D01*
X123937477Y-98892998D01*
X124457407Y-97640867D01*
X124458591Y-96285081D01*
X123940847Y-95032045D01*
X123584642Y-94675218D01*
X123937477Y-94322998D01*
X124457407Y-93070867D01*
X124458591Y-91715081D01*
X123940847Y-90462045D01*
X122982998Y-89502523D01*
X121730867Y-88982593D01*
X120375081Y-88981409D01*
X119122045Y-89499153D01*
X118162523Y-90457002D01*
X117642593Y-91709133D01*
X117641409Y-93064919D01*
X118159153Y-94317955D01*
X118515358Y-94674782D01*
X118162523Y-95027002D01*
X117642593Y-96279133D01*
X117641409Y-97634919D01*
X118159153Y-98887955D01*
X119117002Y-99847477D01*
X119495743Y-100004744D01*
X119122045Y-100159153D01*
X118162523Y-101117002D01*
X117642593Y-102369133D01*
X117641409Y-103724919D01*
X118159153Y-104977955D01*
X118181160Y-105000000D01*
X116258000Y-105000000D01*
X116258000Y-103980868D01*
X116307686Y-103861211D01*
X116308313Y-103141944D01*
X116258000Y-103020177D01*
X116258000Y-93980868D01*
X116307686Y-93861211D01*
X116308313Y-93141944D01*
X116258000Y-93020177D01*
X116258000Y-84663763D01*
X123361922Y-84663763D01*
X123496309Y-85195119D01*
X124639103Y-85550096D01*
X125830751Y-85440723D01*
X126423691Y-85195119D01*
X126558078Y-84663763D01*
X124960000Y-83065685D01*
X123361922Y-84663763D01*
X116258000Y-84663763D01*
X116258000Y-84007791D01*
X117392763Y-84008781D01*
X119050241Y-83323925D01*
X120197062Y-82179103D01*
X121909904Y-82179103D01*
X122019277Y-83370751D01*
X122264881Y-83963691D01*
X122796237Y-84098078D01*
X124394315Y-82500000D01*
X125525685Y-82500000D01*
X127002457Y-83976772D01*
X127002457Y-84000000D01*
X127107608Y-84558831D01*
X127437877Y-85072084D01*
X127941810Y-85416406D01*
X128540000Y-85537543D01*
X131540000Y-85537543D01*
X132098831Y-85432392D01*
X132612084Y-85102123D01*
X132911601Y-84663763D01*
X137361922Y-84663763D01*
X137496309Y-85195119D01*
X138639103Y-85550096D01*
X139830751Y-85440723D01*
X140423691Y-85195119D01*
X140558078Y-84663763D01*
X138960000Y-83065685D01*
X137361922Y-84663763D01*
X132911601Y-84663763D01*
X132956406Y-84598190D01*
X133077543Y-84000000D01*
X133077543Y-82179103D01*
X135909904Y-82179103D01*
X136019277Y-83370751D01*
X136264881Y-83963691D01*
X136796237Y-84098078D01*
X138394315Y-82500000D01*
X139525685Y-82500000D01*
X141002457Y-83976772D01*
X141002457Y-84000000D01*
X141107608Y-84558831D01*
X141437877Y-85072084D01*
X141941810Y-85416406D01*
X142540000Y-85537543D01*
X145540000Y-85537543D01*
X146098831Y-85432392D01*
X146612084Y-85102123D01*
X146911601Y-84663763D01*
X151361922Y-84663763D01*
X151496309Y-85195119D01*
X152639103Y-85550096D01*
X153830751Y-85440723D01*
X154423691Y-85195119D01*
X154558078Y-84663763D01*
X152960000Y-83065685D01*
X151361922Y-84663763D01*
X146911601Y-84663763D01*
X146956406Y-84598190D01*
X147077543Y-84000000D01*
X147077543Y-82179103D01*
X149909904Y-82179103D01*
X150019277Y-83370751D01*
X150264881Y-83963691D01*
X150796237Y-84098078D01*
X152394315Y-82500000D01*
X153525685Y-82500000D01*
X155002457Y-83976772D01*
X155002457Y-84000000D01*
X155107608Y-84558831D01*
X155437877Y-85072084D01*
X155941810Y-85416406D01*
X156540000Y-85537543D01*
X159540000Y-85537543D01*
X160098831Y-85432392D01*
X160612084Y-85102123D01*
X160956406Y-84598190D01*
X161077543Y-84000000D01*
X161077543Y-81000000D01*
X160972392Y-80441169D01*
X160642123Y-79927916D01*
X160138190Y-79583594D01*
X159540000Y-79462457D01*
X156540000Y-79462457D01*
X155981169Y-79567608D01*
X155467916Y-79897877D01*
X155123594Y-80401810D01*
X155002457Y-81000000D01*
X155002457Y-81023228D01*
X153525685Y-82500000D01*
X152394315Y-82500000D01*
X150796237Y-80901922D01*
X150264881Y-81036309D01*
X149909904Y-82179103D01*
X147077543Y-82179103D01*
X147077543Y-81000000D01*
X146972392Y-80441169D01*
X146904871Y-80336237D01*
X151361922Y-80336237D01*
X152960000Y-81934315D01*
X154558078Y-80336237D01*
X154423691Y-79804881D01*
X153280897Y-79449904D01*
X152089249Y-79559277D01*
X151496309Y-79804881D01*
X151361922Y-80336237D01*
X146904871Y-80336237D01*
X146642123Y-79927916D01*
X146138190Y-79583594D01*
X145540000Y-79462457D01*
X142540000Y-79462457D01*
X141981169Y-79567608D01*
X141467916Y-79897877D01*
X141123594Y-80401810D01*
X141002457Y-81000000D01*
X141002457Y-81023228D01*
X139525685Y-82500000D01*
X138394315Y-82500000D01*
X136796237Y-80901922D01*
X136264881Y-81036309D01*
X135909904Y-82179103D01*
X133077543Y-82179103D01*
X133077543Y-81000000D01*
X132972392Y-80441169D01*
X132904871Y-80336237D01*
X137361922Y-80336237D01*
X138960000Y-81934315D01*
X140558078Y-80336237D01*
X140423691Y-79804881D01*
X139280897Y-79449904D01*
X138089249Y-79559277D01*
X137496309Y-79804881D01*
X137361922Y-80336237D01*
X132904871Y-80336237D01*
X132642123Y-79927916D01*
X132138190Y-79583594D01*
X131540000Y-79462457D01*
X128540000Y-79462457D01*
X127981169Y-79567608D01*
X127467916Y-79897877D01*
X127123594Y-80401810D01*
X127002457Y-81000000D01*
X127002457Y-81023228D01*
X125525685Y-82500000D01*
X124394315Y-82500000D01*
X122796237Y-80901922D01*
X122264881Y-81036309D01*
X121909904Y-82179103D01*
X120197062Y-82179103D01*
X120319468Y-82056911D01*
X121007216Y-80400631D01*
X121007272Y-80336237D01*
X123361922Y-80336237D01*
X124960000Y-81934315D01*
X126558078Y-80336237D01*
X126423691Y-79804881D01*
X125280897Y-79449904D01*
X124089249Y-79559277D01*
X123496309Y-79804881D01*
X123361922Y-80336237D01*
X121007272Y-80336237D01*
X121008213Y-79258000D01*
X123019132Y-79258000D01*
X123138789Y-79307686D01*
X123138789Y-79307686D01*
G37*
X123138789Y-79307686D02*
X123858056Y-79308313D01*
X123979823Y-79258000D01*
X133019132Y-79258000D01*
X133138789Y-79307686D01*
X133858056Y-79308313D01*
X133979823Y-79258000D01*
X143019132Y-79258000D01*
X143138789Y-79307686D01*
X143858056Y-79308313D01*
X143979823Y-79258000D01*
X153019132Y-79258000D01*
X153138789Y-79307686D01*
X153858056Y-79308313D01*
X153979823Y-79258000D01*
X162000000Y-79258000D01*
X162000000Y-105000000D01*
X158820445Y-105000000D01*
X158837477Y-104982998D01*
X159357407Y-103730867D01*
X159358591Y-102375081D01*
X158840847Y-101122045D01*
X157882998Y-100162523D01*
X157504257Y-100005256D01*
X157877955Y-99850847D01*
X158837477Y-98892998D01*
X159357407Y-97640867D01*
X159358591Y-96285081D01*
X158840847Y-95032045D01*
X158484642Y-94675218D01*
X158837477Y-94322998D01*
X159357407Y-93070867D01*
X159358591Y-91715081D01*
X158840847Y-90462045D01*
X157882998Y-89502523D01*
X156630867Y-88982593D01*
X155275081Y-88981409D01*
X154022045Y-89499153D01*
X153062523Y-90457002D01*
X152542593Y-91709133D01*
X152541409Y-93064919D01*
X153059153Y-94317955D01*
X153415358Y-94674782D01*
X153062523Y-95027002D01*
X152542593Y-96279133D01*
X152541409Y-97634919D01*
X153059153Y-98887955D01*
X154017002Y-99847477D01*
X154395743Y-100004744D01*
X154022045Y-100159153D01*
X153062523Y-101117002D01*
X152542593Y-102369133D01*
X152541409Y-103724919D01*
X153059153Y-104977955D01*
X153081160Y-105000000D01*
X148920445Y-105000000D01*
X148937477Y-104982998D01*
X149457407Y-103730867D01*
X149458591Y-102375081D01*
X148940847Y-101122045D01*
X147982998Y-100162523D01*
X147604257Y-100005256D01*
X147977955Y-99850847D01*
X148937477Y-98892998D01*
X149457407Y-97640867D01*
X149458591Y-96285081D01*
X148940847Y-95032045D01*
X148584642Y-94675218D01*
X148937477Y-94322998D01*
X149457407Y-93070867D01*
X149458591Y-91715081D01*
X148940847Y-90462045D01*
X147982998Y-89502523D01*
X146730867Y-88982593D01*
X145375081Y-88981409D01*
X144122045Y-89499153D01*
X143162523Y-90457002D01*
X142642593Y-91709133D01*
X142641409Y-93064919D01*
X143159153Y-94317955D01*
X143515358Y-94674782D01*
X143162523Y-95027002D01*
X142642593Y-96279133D01*
X142641409Y-97634919D01*
X143159153Y-98887955D01*
X144117002Y-99847477D01*
X144495743Y-100004744D01*
X144122045Y-100159153D01*
X143162523Y-101117002D01*
X142642593Y-102369133D01*
X142641409Y-103724919D01*
X143159153Y-104977955D01*
X143181160Y-105000000D01*
X133820445Y-105000000D01*
X133837477Y-104982998D01*
X134357407Y-103730867D01*
X134358591Y-102375081D01*
X133840847Y-101122045D01*
X132882998Y-100162523D01*
X132504257Y-100005256D01*
X132877955Y-99850847D01*
X133837477Y-98892998D01*
X134357407Y-97640867D01*
X134358591Y-96285081D01*
X133840847Y-95032045D01*
X133484642Y-94675218D01*
X133837477Y-94322998D01*
X134357407Y-93070867D01*
X134358591Y-91715081D01*
X133840847Y-90462045D01*
X132882998Y-89502523D01*
X131630867Y-88982593D01*
X130275081Y-88981409D01*
X129022045Y-89499153D01*
X128062523Y-90457002D01*
X127542593Y-91709133D01*
X127541409Y-93064919D01*
X128059153Y-94317955D01*
X128415358Y-94674782D01*
X128062523Y-95027002D01*
X127542593Y-96279133D01*
X127541409Y-97634919D01*
X128059153Y-98887955D01*
X129017002Y-99847477D01*
X129395743Y-100004744D01*
X129022045Y-100159153D01*
X128062523Y-101117002D01*
X127542593Y-102369133D01*
X127541409Y-103724919D01*
X128059153Y-104977955D01*
X128081160Y-105000000D01*
X123920445Y-105000000D01*
X123937477Y-104982998D01*
X124457407Y-103730867D01*
X124458591Y-102375081D01*
X123940847Y-101122045D01*
X122982998Y-100162523D01*
X122604257Y-100005256D01*
X122977955Y-99850847D01*
X123937477Y-98892998D01*
X124457407Y-97640867D01*
X124458591Y-96285081D01*
X123940847Y-95032045D01*
X123584642Y-94675218D01*
X123937477Y-94322998D01*
X124457407Y-93070867D01*
X124458591Y-91715081D01*
X123940847Y-90462045D01*
X122982998Y-89502523D01*
X121730867Y-88982593D01*
X120375081Y-88981409D01*
X119122045Y-89499153D01*
X118162523Y-90457002D01*
X117642593Y-91709133D01*
X117641409Y-93064919D01*
X118159153Y-94317955D01*
X118515358Y-94674782D01*
X118162523Y-95027002D01*
X117642593Y-96279133D01*
X117641409Y-97634919D01*
X118159153Y-98887955D01*
X119117002Y-99847477D01*
X119495743Y-100004744D01*
X119122045Y-100159153D01*
X118162523Y-101117002D01*
X117642593Y-102369133D01*
X117641409Y-103724919D01*
X118159153Y-104977955D01*
X118181160Y-105000000D01*
X116258000Y-105000000D01*
X116258000Y-103980868D01*
X116307686Y-103861211D01*
X116308313Y-103141944D01*
X116258000Y-103020177D01*
X116258000Y-93980868D01*
X116307686Y-93861211D01*
X116308313Y-93141944D01*
X116258000Y-93020177D01*
X116258000Y-84663763D01*
X123361922Y-84663763D01*
X123496309Y-85195119D01*
X124639103Y-85550096D01*
X125830751Y-85440723D01*
X126423691Y-85195119D01*
X126558078Y-84663763D01*
X124960000Y-83065685D01*
X123361922Y-84663763D01*
X116258000Y-84663763D01*
X116258000Y-84007791D01*
X117392763Y-84008781D01*
X119050241Y-83323925D01*
X120197062Y-82179103D01*
X121909904Y-82179103D01*
X122019277Y-83370751D01*
X122264881Y-83963691D01*
X122796237Y-84098078D01*
X124394315Y-82500000D01*
X125525685Y-82500000D01*
X127002457Y-83976772D01*
X127002457Y-84000000D01*
X127107608Y-84558831D01*
X127437877Y-85072084D01*
X127941810Y-85416406D01*
X128540000Y-85537543D01*
X131540000Y-85537543D01*
X132098831Y-85432392D01*
X132612084Y-85102123D01*
X132911601Y-84663763D01*
X137361922Y-84663763D01*
X137496309Y-85195119D01*
X138639103Y-85550096D01*
X139830751Y-85440723D01*
X140423691Y-85195119D01*
X140558078Y-84663763D01*
X138960000Y-83065685D01*
X137361922Y-84663763D01*
X132911601Y-84663763D01*
X132956406Y-84598190D01*
X133077543Y-84000000D01*
X133077543Y-82179103D01*
X135909904Y-82179103D01*
X136019277Y-83370751D01*
X136264881Y-83963691D01*
X136796237Y-84098078D01*
X138394315Y-82500000D01*
X139525685Y-82500000D01*
X141002457Y-83976772D01*
X141002457Y-84000000D01*
X141107608Y-84558831D01*
X141437877Y-85072084D01*
X141941810Y-85416406D01*
X142540000Y-85537543D01*
X145540000Y-85537543D01*
X146098831Y-85432392D01*
X146612084Y-85102123D01*
X146911601Y-84663763D01*
X151361922Y-84663763D01*
X151496309Y-85195119D01*
X152639103Y-85550096D01*
X153830751Y-85440723D01*
X154423691Y-85195119D01*
X154558078Y-84663763D01*
X152960000Y-83065685D01*
X151361922Y-84663763D01*
X146911601Y-84663763D01*
X146956406Y-84598190D01*
X147077543Y-84000000D01*
X147077543Y-82179103D01*
X149909904Y-82179103D01*
X150019277Y-83370751D01*
X150264881Y-83963691D01*
X150796237Y-84098078D01*
X152394315Y-82500000D01*
X153525685Y-82500000D01*
X155002457Y-83976772D01*
X155002457Y-84000000D01*
X155107608Y-84558831D01*
X155437877Y-85072084D01*
X155941810Y-85416406D01*
X156540000Y-85537543D01*
X159540000Y-85537543D01*
X160098831Y-85432392D01*
X160612084Y-85102123D01*
X160956406Y-84598190D01*
X161077543Y-84000000D01*
X161077543Y-81000000D01*
X160972392Y-80441169D01*
X160642123Y-79927916D01*
X160138190Y-79583594D01*
X159540000Y-79462457D01*
X156540000Y-79462457D01*
X155981169Y-79567608D01*
X155467916Y-79897877D01*
X155123594Y-80401810D01*
X155002457Y-81000000D01*
X155002457Y-81023228D01*
X153525685Y-82500000D01*
X152394315Y-82500000D01*
X150796237Y-80901922D01*
X150264881Y-81036309D01*
X149909904Y-82179103D01*
X147077543Y-82179103D01*
X147077543Y-81000000D01*
X146972392Y-80441169D01*
X146904871Y-80336237D01*
X151361922Y-80336237D01*
X152960000Y-81934315D01*
X154558078Y-80336237D01*
X154423691Y-79804881D01*
X153280897Y-79449904D01*
X152089249Y-79559277D01*
X151496309Y-79804881D01*
X151361922Y-80336237D01*
X146904871Y-80336237D01*
X146642123Y-79927916D01*
X146138190Y-79583594D01*
X145540000Y-79462457D01*
X142540000Y-79462457D01*
X141981169Y-79567608D01*
X141467916Y-79897877D01*
X141123594Y-80401810D01*
X141002457Y-81000000D01*
X141002457Y-81023228D01*
X139525685Y-82500000D01*
X138394315Y-82500000D01*
X136796237Y-80901922D01*
X136264881Y-81036309D01*
X135909904Y-82179103D01*
X133077543Y-82179103D01*
X133077543Y-81000000D01*
X132972392Y-80441169D01*
X132904871Y-80336237D01*
X137361922Y-80336237D01*
X138960000Y-81934315D01*
X140558078Y-80336237D01*
X140423691Y-79804881D01*
X139280897Y-79449904D01*
X138089249Y-79559277D01*
X137496309Y-79804881D01*
X137361922Y-80336237D01*
X132904871Y-80336237D01*
X132642123Y-79927916D01*
X132138190Y-79583594D01*
X131540000Y-79462457D01*
X128540000Y-79462457D01*
X127981169Y-79567608D01*
X127467916Y-79897877D01*
X127123594Y-80401810D01*
X127002457Y-81000000D01*
X127002457Y-81023228D01*
X125525685Y-82500000D01*
X124394315Y-82500000D01*
X122796237Y-80901922D01*
X122264881Y-81036309D01*
X121909904Y-82179103D01*
X120197062Y-82179103D01*
X120319468Y-82056911D01*
X121007216Y-80400631D01*
X121007272Y-80336237D01*
X123361922Y-80336237D01*
X124960000Y-81934315D01*
X126558078Y-80336237D01*
X126423691Y-79804881D01*
X125280897Y-79449904D01*
X124089249Y-79559277D01*
X123496309Y-79804881D01*
X123361922Y-80336237D01*
X121007272Y-80336237D01*
X121008213Y-79258000D01*
X123019132Y-79258000D01*
X123138789Y-79307686D01*
M02*
