G75*
%MOIN*%
%OFA0B0*%
%FSLAX25Y25*%
%IPPOS*%
%LPD*%
%AMOC8*
5,1,8,0,0,1.08239X$1,22.5*
%
%ADD10C,0.05906*%
%ADD11C,0.18898*%
%ADD12C,0.06000*%
%ADD13C,0.08250*%
%ADD14C,0.00700*%
%ADD15C,0.02953*%
D10*
X0116744Y0153409D03*
X0127649Y0153409D03*
X0138555Y0153409D03*
X0149460Y0153409D03*
X0160366Y0153409D03*
X0154913Y0164591D03*
X0144007Y0164591D03*
X0133102Y0164591D03*
X0122196Y0164591D03*
D11*
X0089362Y0159000D03*
X0187748Y0159000D03*
D12*
X0227350Y0120709D02*
X0233350Y0120709D01*
X0233350Y0110709D02*
X0227350Y0110709D01*
X0151350Y0058000D02*
X0151350Y0052000D01*
X0141350Y0052000D02*
X0141350Y0058000D01*
D13*
X0070475Y0105709D02*
X0062225Y0105709D01*
X0062225Y0125709D02*
X0070475Y0125709D01*
D14*
X0052292Y0037965D02*
X0049467Y0036334D01*
X0227484Y0036334D01*
X0226836Y0036589D01*
X0223026Y0039627D01*
X0223026Y0039627D01*
X0220281Y0043654D01*
X0218844Y0048311D01*
X0218844Y0053185D01*
X0220281Y0057842D01*
X0220281Y0057842D01*
X0223026Y0061869D01*
X0223026Y0061869D01*
X0226836Y0064908D01*
X0226836Y0064908D01*
X0231373Y0066688D01*
X0231373Y0066688D01*
X0236233Y0067052D01*
X0236233Y0067052D01*
X0240985Y0065968D01*
X0240985Y0065968D01*
X0245205Y0063531D01*
X0245205Y0063531D01*
X0248520Y0059958D01*
X0248520Y0059958D01*
X0249425Y0058079D01*
X0249425Y0173338D01*
X0248520Y0171459D01*
X0248520Y0171459D01*
X0245205Y0167886D01*
X0245205Y0167886D01*
X0240985Y0165450D01*
X0240985Y0165450D01*
X0236233Y0164365D01*
X0236233Y0164365D01*
X0231373Y0164729D01*
X0231373Y0164729D01*
X0226836Y0166510D01*
X0226836Y0166510D01*
X0223026Y0169548D01*
X0223026Y0169548D01*
X0223026Y0169548D01*
X0220281Y0173575D01*
X0220281Y0173575D01*
X0218844Y0178232D01*
X0218844Y0183106D01*
X0220281Y0187763D01*
X0220281Y0187763D01*
X0223026Y0191790D01*
X0223026Y0191790D01*
X0223026Y0191790D01*
X0226836Y0194829D01*
X0227484Y0195083D01*
X0049467Y0195083D01*
X0052292Y0193452D01*
X0052292Y0193452D01*
X0055607Y0189880D01*
X0055607Y0189880D01*
X0057722Y0185489D01*
X0057722Y0185489D01*
X0058448Y0180669D01*
X0057722Y0175850D01*
X0057722Y0175850D01*
X0055607Y0171459D01*
X0055607Y0171459D01*
X0052292Y0167886D01*
X0052292Y0167886D01*
X0052292Y0167886D01*
X0048071Y0165450D01*
X0048071Y0165450D01*
X0043320Y0164365D01*
X0043320Y0164365D01*
X0038460Y0164729D01*
X0038460Y0164729D01*
X0033923Y0166510D01*
X0033923Y0166510D01*
X0030113Y0169548D01*
X0030113Y0169548D01*
X0030113Y0169548D01*
X0027684Y0173110D01*
X0027684Y0058307D01*
X0030113Y0061869D01*
X0030113Y0061869D01*
X0033923Y0064908D01*
X0033923Y0064908D01*
X0038460Y0066688D01*
X0038460Y0066688D01*
X0043320Y0067052D01*
X0043320Y0067052D01*
X0048071Y0065968D01*
X0048071Y0065968D01*
X0052292Y0063531D01*
X0052292Y0063531D01*
X0055607Y0059958D01*
X0055607Y0059958D01*
X0057722Y0055567D01*
X0058448Y0050748D01*
X0058448Y0050748D01*
X0057722Y0045929D01*
X0057722Y0045929D01*
X0055607Y0041538D01*
X0055607Y0041538D01*
X0052292Y0037965D01*
X0052292Y0037965D01*
X0051996Y0037794D02*
X0225325Y0037794D01*
X0226201Y0037096D02*
X0050786Y0037096D01*
X0049576Y0036397D02*
X0227324Y0036397D01*
X0224449Y0038493D02*
X0052781Y0038493D01*
X0053430Y0039191D02*
X0223573Y0039191D01*
X0222847Y0039890D02*
X0054078Y0039890D01*
X0054726Y0040588D02*
X0222371Y0040588D01*
X0221895Y0041287D02*
X0055374Y0041287D01*
X0055822Y0041985D02*
X0221418Y0041985D01*
X0220942Y0042684D02*
X0056159Y0042684D01*
X0056495Y0043382D02*
X0220466Y0043382D01*
X0220149Y0044081D02*
X0056832Y0044081D01*
X0057168Y0044779D02*
X0219934Y0044779D01*
X0219718Y0045478D02*
X0057504Y0045478D01*
X0057759Y0046176D02*
X0219503Y0046176D01*
X0219287Y0046875D02*
X0057864Y0046875D01*
X0057969Y0047573D02*
X0219072Y0047573D01*
X0218856Y0048272D02*
X0152646Y0048272D01*
X0152134Y0048059D02*
X0153582Y0048659D01*
X0154691Y0049768D01*
X0155291Y0051216D01*
X0155291Y0058784D01*
X0154691Y0060232D01*
X0153582Y0061341D01*
X0152134Y0061941D01*
X0150566Y0061941D01*
X0149118Y0061341D01*
X0148009Y0060232D01*
X0147409Y0058784D01*
X0147409Y0051216D01*
X0148009Y0049768D01*
X0149118Y0048659D01*
X0150566Y0048059D01*
X0152134Y0048059D01*
X0153893Y0048970D02*
X0218844Y0048970D01*
X0218844Y0049669D02*
X0154592Y0049669D01*
X0154939Y0050367D02*
X0218844Y0050367D01*
X0218844Y0051066D02*
X0155228Y0051066D01*
X0155291Y0051764D02*
X0218844Y0051764D01*
X0218844Y0052463D02*
X0155291Y0052463D01*
X0155291Y0053161D02*
X0218844Y0053161D01*
X0219052Y0053860D02*
X0155291Y0053860D01*
X0155291Y0054558D02*
X0219268Y0054558D01*
X0219483Y0055257D02*
X0155291Y0055257D01*
X0155291Y0055955D02*
X0219699Y0055955D01*
X0219914Y0056654D02*
X0155291Y0056654D01*
X0155291Y0057352D02*
X0220130Y0057352D01*
X0220423Y0058051D02*
X0155291Y0058051D01*
X0155291Y0058749D02*
X0220899Y0058749D01*
X0221375Y0059448D02*
X0155015Y0059448D01*
X0154726Y0060146D02*
X0221852Y0060146D01*
X0222328Y0060845D02*
X0154078Y0060845D01*
X0153093Y0061543D02*
X0222804Y0061543D01*
X0223494Y0062242D02*
X0053488Y0062242D01*
X0052840Y0062940D02*
X0224370Y0062940D01*
X0225246Y0063639D02*
X0052105Y0063639D01*
X0050895Y0064337D02*
X0226122Y0064337D01*
X0227164Y0065036D02*
X0049685Y0065036D01*
X0048475Y0065734D02*
X0228943Y0065734D01*
X0230723Y0066433D02*
X0046033Y0066433D01*
X0054136Y0061543D02*
X0139607Y0061543D01*
X0139118Y0061341D02*
X0138009Y0060232D01*
X0137409Y0058784D01*
X0137409Y0051216D01*
X0138009Y0049768D01*
X0139118Y0048659D01*
X0140566Y0048059D01*
X0142134Y0048059D01*
X0143582Y0048659D01*
X0144691Y0049768D01*
X0145291Y0051216D01*
X0145291Y0058784D01*
X0144691Y0060232D01*
X0143582Y0061341D01*
X0142134Y0061941D01*
X0140566Y0061941D01*
X0139118Y0061341D01*
X0138622Y0060845D02*
X0054784Y0060845D01*
X0055432Y0060146D02*
X0137974Y0060146D01*
X0137685Y0059448D02*
X0055853Y0059448D01*
X0056189Y0058749D02*
X0137409Y0058749D01*
X0137409Y0058051D02*
X0056526Y0058051D01*
X0056862Y0057352D02*
X0137409Y0057352D01*
X0137409Y0056654D02*
X0057198Y0056654D01*
X0057535Y0055955D02*
X0137409Y0055955D01*
X0137409Y0055257D02*
X0057768Y0055257D01*
X0057874Y0054558D02*
X0137409Y0054558D01*
X0137409Y0053860D02*
X0057979Y0053860D01*
X0058084Y0053161D02*
X0137409Y0053161D01*
X0137409Y0052463D02*
X0058190Y0052463D01*
X0058295Y0051764D02*
X0137409Y0051764D01*
X0137472Y0051066D02*
X0058400Y0051066D01*
X0058391Y0050367D02*
X0137761Y0050367D01*
X0138108Y0049669D02*
X0058285Y0049669D01*
X0058180Y0048970D02*
X0138807Y0048970D01*
X0140054Y0048272D02*
X0058075Y0048272D01*
X0037810Y0066433D02*
X0027684Y0066433D01*
X0027684Y0065734D02*
X0036030Y0065734D01*
X0034250Y0065036D02*
X0027684Y0065036D01*
X0027684Y0064337D02*
X0033208Y0064337D01*
X0032332Y0063639D02*
X0027684Y0063639D01*
X0027684Y0062940D02*
X0031456Y0062940D01*
X0030580Y0062242D02*
X0027684Y0062242D01*
X0027684Y0061543D02*
X0029891Y0061543D01*
X0030113Y0061869D02*
X0030113Y0061869D01*
X0029415Y0060845D02*
X0027684Y0060845D01*
X0027684Y0060146D02*
X0028938Y0060146D01*
X0028462Y0059448D02*
X0027684Y0059448D01*
X0027684Y0058749D02*
X0027986Y0058749D01*
X0027684Y0067132D02*
X0249425Y0067132D01*
X0249425Y0067830D02*
X0027684Y0067830D01*
X0027684Y0068529D02*
X0249425Y0068529D01*
X0249425Y0069227D02*
X0027684Y0069227D01*
X0027684Y0069926D02*
X0249425Y0069926D01*
X0249425Y0070624D02*
X0027684Y0070624D01*
X0027684Y0071323D02*
X0249425Y0071323D01*
X0249425Y0072021D02*
X0027684Y0072021D01*
X0027684Y0072720D02*
X0249425Y0072720D01*
X0249425Y0073418D02*
X0027684Y0073418D01*
X0027684Y0074117D02*
X0249425Y0074117D01*
X0249425Y0074815D02*
X0027684Y0074815D01*
X0027684Y0075514D02*
X0249425Y0075514D01*
X0249425Y0076212D02*
X0027684Y0076212D01*
X0027684Y0076911D02*
X0249425Y0076911D01*
X0249425Y0077609D02*
X0027684Y0077609D01*
X0027684Y0078308D02*
X0249425Y0078308D01*
X0249425Y0079006D02*
X0027684Y0079006D01*
X0027684Y0079705D02*
X0249425Y0079705D01*
X0249425Y0080403D02*
X0027684Y0080403D01*
X0027684Y0081102D02*
X0249425Y0081102D01*
X0249425Y0081800D02*
X0027684Y0081800D01*
X0027684Y0082499D02*
X0249425Y0082499D01*
X0249425Y0083197D02*
X0027684Y0083197D01*
X0027684Y0083896D02*
X0249425Y0083896D01*
X0249425Y0084594D02*
X0027684Y0084594D01*
X0027684Y0085293D02*
X0249425Y0085293D01*
X0249425Y0085991D02*
X0027684Y0085991D01*
X0027684Y0086690D02*
X0249425Y0086690D01*
X0249425Y0087388D02*
X0027684Y0087388D01*
X0027684Y0088087D02*
X0249425Y0088087D01*
X0249425Y0088785D02*
X0027684Y0088785D01*
X0027684Y0089484D02*
X0249425Y0089484D01*
X0249425Y0090182D02*
X0027684Y0090182D01*
X0027684Y0090881D02*
X0249425Y0090881D01*
X0249425Y0091579D02*
X0027684Y0091579D01*
X0027684Y0092278D02*
X0249425Y0092278D01*
X0249425Y0092976D02*
X0027684Y0092976D01*
X0027684Y0093675D02*
X0249425Y0093675D01*
X0249425Y0094373D02*
X0027684Y0094373D01*
X0027684Y0095072D02*
X0249425Y0095072D01*
X0249425Y0095770D02*
X0027684Y0095770D01*
X0027684Y0096469D02*
X0249425Y0096469D01*
X0249425Y0097168D02*
X0027684Y0097168D01*
X0027684Y0097866D02*
X0249425Y0097866D01*
X0249425Y0098565D02*
X0027684Y0098565D01*
X0027684Y0099263D02*
X0249425Y0099263D01*
X0249425Y0099962D02*
X0027684Y0099962D01*
X0027684Y0100660D02*
X0060733Y0100660D01*
X0060993Y0100576D02*
X0061811Y0100446D01*
X0066000Y0100446D01*
X0066000Y0105359D01*
X0056963Y0105359D01*
X0056963Y0105294D01*
X0057092Y0104476D01*
X0057348Y0103689D01*
X0057724Y0102951D01*
X0058211Y0102280D01*
X0058797Y0101695D01*
X0059467Y0101208D01*
X0060205Y0100832D01*
X0060993Y0100576D01*
X0059259Y0101359D02*
X0027684Y0101359D01*
X0027684Y0102057D02*
X0058434Y0102057D01*
X0057866Y0102756D02*
X0027684Y0102756D01*
X0027684Y0103454D02*
X0057468Y0103454D01*
X0057197Y0104153D02*
X0027684Y0104153D01*
X0027684Y0104851D02*
X0057033Y0104851D01*
X0056963Y0106059D02*
X0066000Y0106059D01*
X0066000Y0110971D01*
X0061811Y0110971D01*
X0060993Y0110841D01*
X0060205Y0110586D01*
X0059467Y0110209D01*
X0058797Y0109723D01*
X0058211Y0109137D01*
X0057724Y0108467D01*
X0057348Y0107729D01*
X0057092Y0106941D01*
X0056963Y0106123D01*
X0056963Y0106059D01*
X0056982Y0106248D02*
X0027684Y0106248D01*
X0027684Y0105550D02*
X0066000Y0105550D01*
X0066000Y0105359D02*
X0066000Y0106059D01*
X0066700Y0106059D01*
X0066700Y0110971D01*
X0070889Y0110971D01*
X0071707Y0110841D01*
X0072495Y0110586D01*
X0073233Y0110209D01*
X0073903Y0109723D01*
X0074489Y0109137D01*
X0074976Y0108467D01*
X0075352Y0107729D01*
X0075608Y0106941D01*
X0075737Y0106123D01*
X0075737Y0106059D01*
X0066700Y0106059D01*
X0066700Y0105359D01*
X0075737Y0105359D01*
X0075737Y0105294D01*
X0075608Y0104476D01*
X0075352Y0103689D01*
X0074976Y0102951D01*
X0074489Y0102280D01*
X0073903Y0101695D01*
X0073233Y0101208D01*
X0072495Y0100832D01*
X0071707Y0100576D01*
X0070889Y0100446D01*
X0066700Y0100446D01*
X0066700Y0105359D01*
X0066000Y0105359D01*
X0066000Y0104851D02*
X0066700Y0104851D01*
X0066700Y0104153D02*
X0066000Y0104153D01*
X0066000Y0103454D02*
X0066700Y0103454D01*
X0066700Y0102756D02*
X0066000Y0102756D01*
X0066000Y0102057D02*
X0066700Y0102057D01*
X0066700Y0101359D02*
X0066000Y0101359D01*
X0066000Y0100660D02*
X0066700Y0100660D01*
X0066700Y0105550D02*
X0249425Y0105550D01*
X0249425Y0106248D02*
X0075718Y0106248D01*
X0075606Y0106947D02*
X0225620Y0106947D01*
X0225762Y0106874D02*
X0226381Y0106673D01*
X0227024Y0106571D01*
X0230000Y0106571D01*
X0230000Y0110359D01*
X0223216Y0110359D01*
X0223314Y0109740D01*
X0223516Y0109120D01*
X0223811Y0108540D01*
X0224194Y0108013D01*
X0224655Y0107553D01*
X0225182Y0107170D01*
X0225762Y0106874D01*
X0224562Y0107645D02*
X0075379Y0107645D01*
X0075039Y0108344D02*
X0223954Y0108344D01*
X0223556Y0109042D02*
X0074558Y0109042D01*
X0073878Y0109741D02*
X0223314Y0109741D01*
X0223216Y0111059D02*
X0230000Y0111059D01*
X0230000Y0114846D01*
X0227024Y0114846D01*
X0226381Y0114744D01*
X0225762Y0114543D01*
X0225182Y0114247D01*
X0224655Y0113864D01*
X0224194Y0113404D01*
X0223811Y0112877D01*
X0223516Y0112297D01*
X0223314Y0111677D01*
X0223216Y0111059D01*
X0223229Y0111138D02*
X0027684Y0111138D01*
X0027684Y0111836D02*
X0223366Y0111836D01*
X0223637Y0112535D02*
X0027684Y0112535D01*
X0027684Y0113233D02*
X0224070Y0113233D01*
X0224747Y0113932D02*
X0027684Y0113932D01*
X0027684Y0114630D02*
X0226031Y0114630D01*
X0226566Y0116768D02*
X0225118Y0117368D01*
X0224009Y0118477D01*
X0223409Y0119925D01*
X0223409Y0121492D01*
X0224009Y0122941D01*
X0225118Y0124049D01*
X0226566Y0124649D01*
X0234134Y0124649D01*
X0235582Y0124049D01*
X0236691Y0122941D01*
X0237291Y0121492D01*
X0237291Y0119925D01*
X0236691Y0118477D01*
X0235582Y0117368D01*
X0234134Y0116768D01*
X0226566Y0116768D01*
X0225062Y0117424D02*
X0027684Y0117424D01*
X0027684Y0116726D02*
X0249425Y0116726D01*
X0249425Y0117424D02*
X0235638Y0117424D01*
X0236337Y0118123D02*
X0249425Y0118123D01*
X0249425Y0118821D02*
X0236833Y0118821D01*
X0237123Y0119520D02*
X0249425Y0119520D01*
X0249425Y0120218D02*
X0237291Y0120218D01*
X0237291Y0120917D02*
X0249425Y0120917D01*
X0249425Y0121615D02*
X0237240Y0121615D01*
X0236950Y0122314D02*
X0249425Y0122314D01*
X0249425Y0123012D02*
X0236619Y0123012D01*
X0235920Y0123711D02*
X0249425Y0123711D01*
X0249425Y0124409D02*
X0234713Y0124409D01*
X0225987Y0124409D02*
X0153431Y0124409D01*
X0153380Y0124334D02*
X0153666Y0124762D01*
X0153863Y0125238D01*
X0153964Y0125743D01*
X0153964Y0125858D01*
X0151492Y0125858D01*
X0151492Y0123386D01*
X0151607Y0123386D01*
X0152112Y0123487D01*
X0152588Y0123684D01*
X0153016Y0123970D01*
X0153380Y0124334D01*
X0153810Y0125108D02*
X0249425Y0125108D01*
X0249425Y0125806D02*
X0153964Y0125806D01*
X0153964Y0126142D02*
X0153964Y0126257D01*
X0153863Y0126762D01*
X0153666Y0127238D01*
X0153380Y0127666D01*
X0153016Y0128030D01*
X0152588Y0128316D01*
X0152112Y0128513D01*
X0151607Y0128614D01*
X0151492Y0128614D01*
X0151492Y0126142D01*
X0153964Y0126142D01*
X0153915Y0126505D02*
X0249425Y0126505D01*
X0249425Y0127203D02*
X0153681Y0127203D01*
X0153144Y0127902D02*
X0249425Y0127902D01*
X0249425Y0128601D02*
X0151674Y0128601D01*
X0151492Y0128601D02*
X0151208Y0128601D01*
X0151208Y0128614D02*
X0151093Y0128614D01*
X0150588Y0128513D01*
X0150112Y0128316D01*
X0149684Y0128030D01*
X0149320Y0127666D01*
X0149034Y0127238D01*
X0148837Y0126762D01*
X0148736Y0126257D01*
X0148736Y0126142D01*
X0151208Y0126142D01*
X0151208Y0125858D01*
X0151492Y0125858D01*
X0151492Y0126142D01*
X0151208Y0126142D01*
X0151208Y0128614D01*
X0151026Y0128601D02*
X0141674Y0128601D01*
X0141607Y0128614D02*
X0141492Y0128614D01*
X0141492Y0126142D01*
X0143964Y0126142D01*
X0143964Y0126257D01*
X0143863Y0126762D01*
X0143666Y0127238D01*
X0143380Y0127666D01*
X0143016Y0128030D01*
X0142588Y0128316D01*
X0142112Y0128513D01*
X0141607Y0128614D01*
X0141492Y0128601D02*
X0141208Y0128601D01*
X0141208Y0128614D02*
X0141093Y0128614D01*
X0140588Y0128513D01*
X0140112Y0128316D01*
X0139684Y0128030D01*
X0139320Y0127666D01*
X0139034Y0127238D01*
X0138837Y0126762D01*
X0138736Y0126257D01*
X0138736Y0126142D01*
X0141208Y0126142D01*
X0141208Y0125858D01*
X0141492Y0125858D01*
X0141492Y0123386D01*
X0141607Y0123386D01*
X0142112Y0123487D01*
X0142588Y0123684D01*
X0143016Y0123970D01*
X0143380Y0124334D01*
X0143666Y0124762D01*
X0143863Y0125238D01*
X0143964Y0125743D01*
X0143964Y0125858D01*
X0141492Y0125858D01*
X0141492Y0126142D01*
X0141208Y0126142D01*
X0141208Y0128614D01*
X0141026Y0128601D02*
X0074747Y0128601D01*
X0074769Y0128578D02*
X0073344Y0130003D01*
X0071483Y0130774D01*
X0061217Y0130774D01*
X0059356Y0130003D01*
X0057931Y0128578D01*
X0057159Y0126716D01*
X0057159Y0124701D01*
X0057931Y0122839D01*
X0059356Y0121414D01*
X0061217Y0120643D01*
X0071483Y0120643D01*
X0073344Y0121414D01*
X0074769Y0122839D01*
X0075541Y0124701D01*
X0075541Y0126716D01*
X0074769Y0128578D01*
X0075049Y0127902D02*
X0139556Y0127902D01*
X0139019Y0127203D02*
X0075339Y0127203D01*
X0075541Y0126505D02*
X0138785Y0126505D01*
X0138736Y0125858D02*
X0138736Y0125743D01*
X0138837Y0125238D01*
X0139034Y0124762D01*
X0139320Y0124334D01*
X0139684Y0123970D01*
X0140112Y0123684D01*
X0140588Y0123487D01*
X0141093Y0123386D01*
X0141208Y0123386D01*
X0141208Y0125858D01*
X0138736Y0125858D01*
X0138736Y0125806D02*
X0075541Y0125806D01*
X0075541Y0125108D02*
X0138890Y0125108D01*
X0139269Y0124409D02*
X0075420Y0124409D01*
X0075130Y0123711D02*
X0140071Y0123711D01*
X0141208Y0123711D02*
X0141492Y0123711D01*
X0141492Y0124409D02*
X0141208Y0124409D01*
X0141208Y0125108D02*
X0141492Y0125108D01*
X0141492Y0125806D02*
X0141208Y0125806D01*
X0141208Y0126505D02*
X0141492Y0126505D01*
X0141492Y0127203D02*
X0141208Y0127203D01*
X0141208Y0127902D02*
X0141492Y0127902D01*
X0143144Y0127902D02*
X0149556Y0127902D01*
X0149019Y0127203D02*
X0143681Y0127203D01*
X0143915Y0126505D02*
X0148785Y0126505D01*
X0148736Y0125858D02*
X0148736Y0125743D01*
X0148837Y0125238D01*
X0149034Y0124762D01*
X0149320Y0124334D01*
X0149684Y0123970D01*
X0150112Y0123684D01*
X0150588Y0123487D01*
X0151093Y0123386D01*
X0151208Y0123386D01*
X0151208Y0125858D01*
X0148736Y0125858D01*
X0148736Y0125806D02*
X0143964Y0125806D01*
X0143810Y0125108D02*
X0148890Y0125108D01*
X0149269Y0124409D02*
X0143431Y0124409D01*
X0142629Y0123711D02*
X0150071Y0123711D01*
X0151208Y0123711D02*
X0151492Y0123711D01*
X0151492Y0124409D02*
X0151208Y0124409D01*
X0151208Y0125108D02*
X0151492Y0125108D01*
X0151492Y0125806D02*
X0151208Y0125806D01*
X0151208Y0126505D02*
X0151492Y0126505D01*
X0151492Y0127203D02*
X0151208Y0127203D01*
X0151208Y0127902D02*
X0151492Y0127902D01*
X0152629Y0123711D02*
X0224780Y0123711D01*
X0224081Y0123012D02*
X0074841Y0123012D01*
X0074244Y0122314D02*
X0223750Y0122314D01*
X0223460Y0121615D02*
X0073546Y0121615D01*
X0072144Y0120917D02*
X0223409Y0120917D01*
X0223409Y0120218D02*
X0027684Y0120218D01*
X0027684Y0119520D02*
X0223577Y0119520D01*
X0223867Y0118821D02*
X0027684Y0118821D01*
X0027684Y0118123D02*
X0224363Y0118123D01*
X0230000Y0114630D02*
X0230700Y0114630D01*
X0230700Y0114846D02*
X0230700Y0111059D01*
X0230000Y0111059D01*
X0230000Y0110359D01*
X0230700Y0110359D01*
X0230700Y0111059D01*
X0237484Y0111059D01*
X0237386Y0111677D01*
X0237184Y0112297D01*
X0236889Y0112877D01*
X0236506Y0113404D01*
X0236045Y0113864D01*
X0235518Y0114247D01*
X0234938Y0114543D01*
X0234319Y0114744D01*
X0233676Y0114846D01*
X0230700Y0114846D01*
X0230700Y0113932D02*
X0230000Y0113932D01*
X0230000Y0113233D02*
X0230700Y0113233D01*
X0230700Y0112535D02*
X0230000Y0112535D01*
X0230000Y0111836D02*
X0230700Y0111836D01*
X0230700Y0111138D02*
X0230000Y0111138D01*
X0230000Y0110439D02*
X0072782Y0110439D01*
X0066700Y0110439D02*
X0066000Y0110439D01*
X0066000Y0109741D02*
X0066700Y0109741D01*
X0066700Y0109042D02*
X0066000Y0109042D01*
X0066000Y0108344D02*
X0066700Y0108344D01*
X0066700Y0107645D02*
X0066000Y0107645D01*
X0066000Y0106947D02*
X0066700Y0106947D01*
X0066700Y0106248D02*
X0066000Y0106248D01*
X0071966Y0100660D02*
X0249425Y0100660D01*
X0249425Y0101359D02*
X0073441Y0101359D01*
X0074266Y0102057D02*
X0249425Y0102057D01*
X0249425Y0102756D02*
X0074834Y0102756D01*
X0075232Y0103454D02*
X0249425Y0103454D01*
X0249425Y0104153D02*
X0075503Y0104153D01*
X0075667Y0104851D02*
X0249425Y0104851D01*
X0249425Y0106947D02*
X0235080Y0106947D01*
X0234938Y0106874D02*
X0235518Y0107170D01*
X0236045Y0107553D01*
X0236506Y0108013D01*
X0236889Y0108540D01*
X0237184Y0109120D01*
X0237386Y0109740D01*
X0237484Y0110359D01*
X0230700Y0110359D01*
X0230700Y0106571D01*
X0233676Y0106571D01*
X0234319Y0106673D01*
X0234938Y0106874D01*
X0236138Y0107645D02*
X0249425Y0107645D01*
X0249425Y0108344D02*
X0236746Y0108344D01*
X0237144Y0109042D02*
X0249425Y0109042D01*
X0249425Y0109741D02*
X0237386Y0109741D01*
X0237471Y0111138D02*
X0249425Y0111138D01*
X0249425Y0111836D02*
X0237334Y0111836D01*
X0237063Y0112535D02*
X0249425Y0112535D01*
X0249425Y0113233D02*
X0236630Y0113233D01*
X0235953Y0113932D02*
X0249425Y0113932D01*
X0249425Y0114630D02*
X0234669Y0114630D01*
X0230700Y0110439D02*
X0249425Y0110439D01*
X0249425Y0115329D02*
X0027684Y0115329D01*
X0027684Y0116027D02*
X0249425Y0116027D01*
X0249425Y0129299D02*
X0074048Y0129299D01*
X0073350Y0129998D02*
X0249425Y0129998D01*
X0249425Y0130696D02*
X0071671Y0130696D01*
X0061029Y0130696D02*
X0027684Y0130696D01*
X0027684Y0129998D02*
X0059350Y0129998D01*
X0058652Y0129299D02*
X0027684Y0129299D01*
X0027684Y0128601D02*
X0057953Y0128601D01*
X0057651Y0127902D02*
X0027684Y0127902D01*
X0027684Y0127203D02*
X0057361Y0127203D01*
X0057159Y0126505D02*
X0027684Y0126505D01*
X0027684Y0125806D02*
X0057159Y0125806D01*
X0057159Y0125108D02*
X0027684Y0125108D01*
X0027684Y0124409D02*
X0057280Y0124409D01*
X0057570Y0123711D02*
X0027684Y0123711D01*
X0027684Y0123012D02*
X0057859Y0123012D01*
X0058456Y0122314D02*
X0027684Y0122314D01*
X0027684Y0121615D02*
X0059154Y0121615D01*
X0060556Y0120917D02*
X0027684Y0120917D01*
X0027684Y0131395D02*
X0249425Y0131395D01*
X0249425Y0132093D02*
X0027684Y0132093D01*
X0027684Y0132792D02*
X0249425Y0132792D01*
X0249425Y0133490D02*
X0027684Y0133490D01*
X0027684Y0134189D02*
X0249425Y0134189D01*
X0249425Y0134887D02*
X0027684Y0134887D01*
X0027684Y0135586D02*
X0249425Y0135586D01*
X0249425Y0136284D02*
X0027684Y0136284D01*
X0027684Y0136983D02*
X0249425Y0136983D01*
X0249425Y0137681D02*
X0027684Y0137681D01*
X0027684Y0138380D02*
X0249425Y0138380D01*
X0249425Y0139078D02*
X0027684Y0139078D01*
X0027684Y0139777D02*
X0249425Y0139777D01*
X0249425Y0140475D02*
X0027684Y0140475D01*
X0027684Y0141174D02*
X0249425Y0141174D01*
X0249425Y0141872D02*
X0027684Y0141872D01*
X0027684Y0142571D02*
X0249425Y0142571D01*
X0249425Y0143269D02*
X0027684Y0143269D01*
X0027684Y0143968D02*
X0249425Y0143968D01*
X0249425Y0144666D02*
X0027684Y0144666D01*
X0027684Y0145365D02*
X0249425Y0145365D01*
X0249425Y0146063D02*
X0027684Y0146063D01*
X0027684Y0146762D02*
X0249425Y0146762D01*
X0249425Y0147460D02*
X0027684Y0147460D01*
X0027684Y0148159D02*
X0249425Y0148159D01*
X0249425Y0148857D02*
X0190036Y0148857D01*
X0189115Y0148611D02*
X0191758Y0149319D01*
X0194127Y0150686D01*
X0196061Y0152621D01*
X0197429Y0154990D01*
X0198137Y0157632D01*
X0198137Y0160368D01*
X0197429Y0163010D01*
X0196061Y0165379D01*
X0194127Y0167314D01*
X0191758Y0168681D01*
X0189115Y0169389D01*
X0186380Y0169389D01*
X0183737Y0168681D01*
X0181368Y0167314D01*
X0179434Y0165379D01*
X0178066Y0163010D01*
X0177358Y0160368D01*
X0177358Y0157632D01*
X0178066Y0154990D01*
X0179434Y0152621D01*
X0181368Y0150686D01*
X0183737Y0149319D01*
X0186380Y0148611D01*
X0189115Y0148611D01*
X0192169Y0149556D02*
X0249425Y0149556D01*
X0249425Y0150254D02*
X0193378Y0150254D01*
X0194393Y0150953D02*
X0249425Y0150953D01*
X0249425Y0151651D02*
X0195092Y0151651D01*
X0195790Y0152350D02*
X0249425Y0152350D01*
X0249425Y0153048D02*
X0196308Y0153048D01*
X0196711Y0153747D02*
X0249425Y0153747D01*
X0249425Y0154445D02*
X0197115Y0154445D01*
X0197470Y0155144D02*
X0249425Y0155144D01*
X0249425Y0155842D02*
X0197657Y0155842D01*
X0197845Y0156541D02*
X0249425Y0156541D01*
X0249425Y0157239D02*
X0198032Y0157239D01*
X0198137Y0157938D02*
X0249425Y0157938D01*
X0249425Y0158637D02*
X0198137Y0158637D01*
X0198137Y0159335D02*
X0249425Y0159335D01*
X0249425Y0160034D02*
X0198137Y0160034D01*
X0198039Y0160732D02*
X0249425Y0160732D01*
X0249425Y0161431D02*
X0197852Y0161431D01*
X0197665Y0162129D02*
X0249425Y0162129D01*
X0249425Y0162828D02*
X0197478Y0162828D01*
X0197131Y0163526D02*
X0249425Y0163526D01*
X0249425Y0164225D02*
X0196728Y0164225D01*
X0196325Y0164923D02*
X0230879Y0164923D01*
X0229099Y0165622D02*
X0195819Y0165622D01*
X0195120Y0166320D02*
X0227320Y0166320D01*
X0226198Y0167019D02*
X0194422Y0167019D01*
X0193428Y0167717D02*
X0225322Y0167717D01*
X0224447Y0168416D02*
X0192218Y0168416D01*
X0190142Y0169114D02*
X0223571Y0169114D01*
X0222846Y0169813D02*
X0054079Y0169813D01*
X0053431Y0169114D02*
X0086967Y0169114D01*
X0087994Y0169389D02*
X0085352Y0168681D01*
X0082983Y0167314D01*
X0081048Y0165379D01*
X0079680Y0163010D01*
X0078972Y0160368D01*
X0078972Y0157632D01*
X0079680Y0154990D01*
X0081048Y0152621D01*
X0082983Y0150686D01*
X0085352Y0149319D01*
X0087994Y0148611D01*
X0090730Y0148611D01*
X0093372Y0149319D01*
X0095741Y0150686D01*
X0097675Y0152621D01*
X0099043Y0154990D01*
X0099751Y0157632D01*
X0099751Y0160368D01*
X0099043Y0163010D01*
X0097675Y0165379D01*
X0095741Y0167314D01*
X0093372Y0168681D01*
X0090730Y0169389D01*
X0087994Y0169389D01*
X0084891Y0168416D02*
X0052783Y0168416D01*
X0051999Y0167717D02*
X0083682Y0167717D01*
X0082688Y0167019D02*
X0050789Y0167019D01*
X0049579Y0166320D02*
X0081989Y0166320D01*
X0081291Y0165622D02*
X0048369Y0165622D01*
X0045765Y0164923D02*
X0080785Y0164923D01*
X0080382Y0164225D02*
X0027684Y0164225D01*
X0027684Y0164923D02*
X0037966Y0164923D01*
X0036186Y0165622D02*
X0027684Y0165622D01*
X0027684Y0166320D02*
X0034406Y0166320D01*
X0033285Y0167019D02*
X0027684Y0167019D01*
X0027684Y0167717D02*
X0032409Y0167717D01*
X0031533Y0168416D02*
X0027684Y0168416D01*
X0027684Y0169114D02*
X0030657Y0169114D01*
X0029932Y0169813D02*
X0027684Y0169813D01*
X0027684Y0170511D02*
X0029456Y0170511D01*
X0028980Y0171210D02*
X0027684Y0171210D01*
X0027684Y0171908D02*
X0028504Y0171908D01*
X0028028Y0172607D02*
X0027684Y0172607D01*
X0027684Y0163526D02*
X0079978Y0163526D01*
X0079632Y0162828D02*
X0027684Y0162828D01*
X0027684Y0162129D02*
X0079444Y0162129D01*
X0079257Y0161431D02*
X0027684Y0161431D01*
X0027684Y0160732D02*
X0079070Y0160732D01*
X0078972Y0160034D02*
X0027684Y0160034D01*
X0027684Y0159335D02*
X0078972Y0159335D01*
X0078972Y0158637D02*
X0027684Y0158637D01*
X0027684Y0157938D02*
X0078972Y0157938D01*
X0079078Y0157239D02*
X0027684Y0157239D01*
X0027684Y0156541D02*
X0079265Y0156541D01*
X0079452Y0155842D02*
X0027684Y0155842D01*
X0027684Y0155144D02*
X0079639Y0155144D01*
X0079995Y0154445D02*
X0027684Y0154445D01*
X0027684Y0153747D02*
X0080398Y0153747D01*
X0080801Y0153048D02*
X0027684Y0153048D01*
X0027684Y0152350D02*
X0081319Y0152350D01*
X0082018Y0151651D02*
X0027684Y0151651D01*
X0027684Y0150953D02*
X0082716Y0150953D01*
X0083731Y0150254D02*
X0027684Y0150254D01*
X0027684Y0149556D02*
X0084941Y0149556D01*
X0087073Y0148857D02*
X0027684Y0148857D01*
X0054728Y0170511D02*
X0222370Y0170511D01*
X0221893Y0171210D02*
X0055376Y0171210D01*
X0055823Y0171908D02*
X0221417Y0171908D01*
X0220941Y0172607D02*
X0056160Y0172607D01*
X0056496Y0173305D02*
X0220465Y0173305D01*
X0220148Y0174004D02*
X0056833Y0174004D01*
X0057169Y0174702D02*
X0219933Y0174702D01*
X0219717Y0175401D02*
X0057505Y0175401D01*
X0057759Y0176099D02*
X0219502Y0176099D01*
X0219287Y0176798D02*
X0057864Y0176798D01*
X0057970Y0177496D02*
X0219071Y0177496D01*
X0218856Y0178195D02*
X0058075Y0178195D01*
X0058180Y0178893D02*
X0218844Y0178893D01*
X0218844Y0179592D02*
X0058286Y0179592D01*
X0058391Y0180290D02*
X0218844Y0180290D01*
X0218844Y0180989D02*
X0058400Y0180989D01*
X0058295Y0181687D02*
X0218844Y0181687D01*
X0218844Y0182386D02*
X0058189Y0182386D01*
X0058084Y0183084D02*
X0218844Y0183084D01*
X0219053Y0183783D02*
X0057979Y0183783D01*
X0057873Y0184481D02*
X0219268Y0184481D01*
X0219484Y0185180D02*
X0057768Y0185180D01*
X0057534Y0185878D02*
X0219699Y0185878D01*
X0219915Y0186577D02*
X0057197Y0186577D01*
X0056861Y0187275D02*
X0220130Y0187275D01*
X0220424Y0187974D02*
X0056525Y0187974D01*
X0056188Y0188672D02*
X0220900Y0188672D01*
X0221377Y0189371D02*
X0055852Y0189371D01*
X0055431Y0190070D02*
X0221853Y0190070D01*
X0222329Y0190768D02*
X0054783Y0190768D01*
X0054135Y0191467D02*
X0222805Y0191467D01*
X0223496Y0192165D02*
X0053486Y0192165D01*
X0052838Y0192864D02*
X0224372Y0192864D01*
X0225248Y0193562D02*
X0052102Y0193562D01*
X0050892Y0194261D02*
X0226124Y0194261D01*
X0227168Y0194959D02*
X0049682Y0194959D01*
X0091757Y0169114D02*
X0185353Y0169114D01*
X0183277Y0168416D02*
X0156377Y0168416D01*
X0156483Y0168381D02*
X0155871Y0168580D01*
X0155263Y0168676D01*
X0155263Y0164941D01*
X0154563Y0164941D01*
X0154563Y0168676D01*
X0153955Y0168580D01*
X0153343Y0168381D01*
X0152769Y0168089D01*
X0152248Y0167710D01*
X0151793Y0167255D01*
X0151415Y0166734D01*
X0151122Y0166161D01*
X0150924Y0165548D01*
X0150827Y0164941D01*
X0154563Y0164941D01*
X0154563Y0164241D01*
X0150827Y0164241D01*
X0150924Y0163633D01*
X0151122Y0163020D01*
X0151415Y0162447D01*
X0151793Y0161926D01*
X0152248Y0161471D01*
X0152769Y0161092D01*
X0153343Y0160800D01*
X0153955Y0160601D01*
X0154563Y0160505D01*
X0154563Y0164240D01*
X0155263Y0164240D01*
X0155263Y0160505D01*
X0155871Y0160601D01*
X0156483Y0160800D01*
X0157057Y0161092D01*
X0157578Y0161471D01*
X0158033Y0161926D01*
X0158411Y0162447D01*
X0158703Y0163020D01*
X0158902Y0163633D01*
X0158999Y0164241D01*
X0155263Y0164241D01*
X0155263Y0164941D01*
X0158999Y0164941D01*
X0158902Y0165548D01*
X0158703Y0166161D01*
X0158411Y0166734D01*
X0158033Y0167255D01*
X0157578Y0167710D01*
X0157057Y0168089D01*
X0156483Y0168381D01*
X0155263Y0168416D02*
X0154563Y0168416D01*
X0154563Y0167717D02*
X0155263Y0167717D01*
X0155263Y0167019D02*
X0154563Y0167019D01*
X0154563Y0166320D02*
X0155263Y0166320D01*
X0155263Y0165622D02*
X0154563Y0165622D01*
X0154563Y0164923D02*
X0147901Y0164923D01*
X0147901Y0165365D02*
X0147308Y0166796D01*
X0146213Y0167891D01*
X0144782Y0168484D01*
X0143233Y0168484D01*
X0141802Y0167891D01*
X0140707Y0166796D01*
X0140114Y0165365D01*
X0140114Y0163816D01*
X0140707Y0162385D01*
X0141802Y0161290D01*
X0143233Y0160697D01*
X0144782Y0160697D01*
X0146213Y0161290D01*
X0147308Y0162385D01*
X0147901Y0163816D01*
X0147901Y0165365D01*
X0147794Y0165622D02*
X0150947Y0165622D01*
X0151204Y0166320D02*
X0147505Y0166320D01*
X0147085Y0167019D02*
X0151621Y0167019D01*
X0152258Y0167717D02*
X0146387Y0167717D01*
X0144947Y0168416D02*
X0153449Y0168416D01*
X0155263Y0164923D02*
X0179171Y0164923D01*
X0178767Y0164225D02*
X0158996Y0164225D01*
X0158868Y0163526D02*
X0178364Y0163526D01*
X0178017Y0162828D02*
X0158605Y0162828D01*
X0158180Y0162129D02*
X0177830Y0162129D01*
X0177643Y0161431D02*
X0157522Y0161431D01*
X0156274Y0160732D02*
X0177456Y0160732D01*
X0177358Y0160034D02*
X0099751Y0160034D01*
X0099751Y0159335D02*
X0177358Y0159335D01*
X0177358Y0158637D02*
X0099751Y0158637D01*
X0099751Y0157938D02*
X0177358Y0157938D01*
X0177463Y0157239D02*
X0161293Y0157239D01*
X0161140Y0157303D02*
X0159591Y0157303D01*
X0158160Y0156710D01*
X0157065Y0155615D01*
X0156472Y0154184D01*
X0156472Y0152635D01*
X0157065Y0151204D01*
X0158160Y0150109D01*
X0159591Y0149516D01*
X0161140Y0149516D01*
X0162571Y0150109D01*
X0163666Y0151204D01*
X0164259Y0152635D01*
X0164259Y0154184D01*
X0163666Y0155615D01*
X0162571Y0156710D01*
X0161140Y0157303D01*
X0159439Y0157239D02*
X0150387Y0157239D01*
X0150235Y0157303D02*
X0148686Y0157303D01*
X0147255Y0156710D01*
X0146160Y0155615D01*
X0145567Y0154184D01*
X0145567Y0152635D01*
X0146160Y0151204D01*
X0147255Y0150109D01*
X0148686Y0149516D01*
X0150235Y0149516D01*
X0151666Y0150109D01*
X0152761Y0151204D01*
X0153354Y0152635D01*
X0153354Y0154184D01*
X0152761Y0155615D01*
X0151666Y0156710D01*
X0150235Y0157303D01*
X0148533Y0157239D02*
X0140003Y0157239D01*
X0140125Y0157200D02*
X0139513Y0157399D01*
X0138905Y0157495D01*
X0138905Y0153759D01*
X0142640Y0153759D01*
X0142544Y0154367D01*
X0142345Y0154980D01*
X0142053Y0155553D01*
X0141675Y0156074D01*
X0141219Y0156529D01*
X0140698Y0156908D01*
X0140125Y0157200D01*
X0138905Y0157239D02*
X0138205Y0157239D01*
X0138205Y0157495D02*
X0137597Y0157399D01*
X0136985Y0157200D01*
X0136411Y0156908D01*
X0135890Y0156529D01*
X0135435Y0156074D01*
X0135057Y0155553D01*
X0134764Y0154980D01*
X0134565Y0154367D01*
X0134469Y0153759D01*
X0138205Y0153759D01*
X0138205Y0153059D01*
X0138905Y0153059D01*
X0138905Y0149324D01*
X0139513Y0149420D01*
X0140125Y0149619D01*
X0140698Y0149911D01*
X0141219Y0150290D01*
X0141675Y0150745D01*
X0142053Y0151266D01*
X0142345Y0151839D01*
X0142544Y0152452D01*
X0142640Y0153059D01*
X0138905Y0153059D01*
X0138905Y0153759D01*
X0138205Y0153759D01*
X0138205Y0157495D01*
X0138205Y0156541D02*
X0138905Y0156541D01*
X0138905Y0155842D02*
X0138205Y0155842D01*
X0138205Y0155144D02*
X0138905Y0155144D01*
X0138905Y0154445D02*
X0138205Y0154445D01*
X0138205Y0153747D02*
X0131543Y0153747D01*
X0131543Y0154184D02*
X0130950Y0155615D01*
X0129855Y0156710D01*
X0128424Y0157303D01*
X0126875Y0157303D01*
X0125444Y0156710D01*
X0124349Y0155615D01*
X0123756Y0154184D01*
X0123756Y0152635D01*
X0124349Y0151204D01*
X0125444Y0150109D01*
X0126875Y0149516D01*
X0128424Y0149516D01*
X0129855Y0150109D01*
X0130950Y0151204D01*
X0131543Y0152635D01*
X0131543Y0154184D01*
X0131434Y0154445D02*
X0134591Y0154445D01*
X0134848Y0155144D02*
X0131145Y0155144D01*
X0130722Y0155842D02*
X0135267Y0155842D01*
X0135906Y0156541D02*
X0130024Y0156541D01*
X0128576Y0157239D02*
X0137106Y0157239D01*
X0138905Y0153747D02*
X0145567Y0153747D01*
X0145567Y0153048D02*
X0142639Y0153048D01*
X0142511Y0152350D02*
X0145685Y0152350D01*
X0145974Y0151651D02*
X0142249Y0151651D01*
X0141826Y0150953D02*
X0146411Y0150953D01*
X0147109Y0150254D02*
X0141171Y0150254D01*
X0139931Y0149556D02*
X0148590Y0149556D01*
X0150331Y0149556D02*
X0159495Y0149556D01*
X0158015Y0150254D02*
X0151811Y0150254D01*
X0152510Y0150953D02*
X0157316Y0150953D01*
X0156880Y0151651D02*
X0152946Y0151651D01*
X0153235Y0152350D02*
X0156591Y0152350D01*
X0156472Y0153048D02*
X0153354Y0153048D01*
X0153354Y0153747D02*
X0156472Y0153747D01*
X0156581Y0154445D02*
X0153245Y0154445D01*
X0152956Y0155144D02*
X0156870Y0155144D01*
X0157293Y0155842D02*
X0152533Y0155842D01*
X0151835Y0156541D02*
X0157991Y0156541D01*
X0162740Y0156541D02*
X0177651Y0156541D01*
X0177838Y0155842D02*
X0163439Y0155842D01*
X0163861Y0155144D02*
X0178025Y0155144D01*
X0178381Y0154445D02*
X0164151Y0154445D01*
X0164259Y0153747D02*
X0178784Y0153747D01*
X0179187Y0153048D02*
X0164259Y0153048D01*
X0164141Y0152350D02*
X0179705Y0152350D01*
X0180403Y0151651D02*
X0163852Y0151651D01*
X0163415Y0150953D02*
X0181102Y0150953D01*
X0182117Y0150254D02*
X0162717Y0150254D01*
X0161236Y0149556D02*
X0183327Y0149556D01*
X0185459Y0148857D02*
X0091650Y0148857D01*
X0093783Y0149556D02*
X0115873Y0149556D01*
X0115969Y0149516D02*
X0117518Y0149516D01*
X0118949Y0150109D01*
X0120044Y0151204D01*
X0120637Y0152635D01*
X0120637Y0154184D01*
X0120044Y0155615D01*
X0118949Y0156710D01*
X0117518Y0157303D01*
X0115969Y0157303D01*
X0114538Y0156710D01*
X0113443Y0155615D01*
X0112850Y0154184D01*
X0112850Y0152635D01*
X0113443Y0151204D01*
X0114538Y0150109D01*
X0115969Y0149516D01*
X0117614Y0149556D02*
X0126779Y0149556D01*
X0125298Y0150254D02*
X0119095Y0150254D01*
X0119793Y0150953D02*
X0124600Y0150953D01*
X0124163Y0151651D02*
X0120230Y0151651D01*
X0120519Y0152350D02*
X0123874Y0152350D01*
X0123756Y0153048D02*
X0120637Y0153048D01*
X0120637Y0153747D02*
X0123756Y0153747D01*
X0123864Y0154445D02*
X0120529Y0154445D01*
X0120239Y0155144D02*
X0124154Y0155144D01*
X0124576Y0155842D02*
X0119817Y0155842D01*
X0119118Y0156541D02*
X0125275Y0156541D01*
X0126722Y0157239D02*
X0117671Y0157239D01*
X0115817Y0157239D02*
X0099646Y0157239D01*
X0099459Y0156541D02*
X0114369Y0156541D01*
X0113671Y0155842D02*
X0099272Y0155842D01*
X0099084Y0155144D02*
X0113248Y0155144D01*
X0112959Y0154445D02*
X0098729Y0154445D01*
X0098326Y0153747D02*
X0112850Y0153747D01*
X0112850Y0153048D02*
X0097922Y0153048D01*
X0097405Y0152350D02*
X0112968Y0152350D01*
X0113258Y0151651D02*
X0096706Y0151651D01*
X0096007Y0150953D02*
X0113694Y0150953D01*
X0114393Y0150254D02*
X0094993Y0150254D01*
X0099654Y0160732D02*
X0121338Y0160732D01*
X0121422Y0160697D02*
X0119991Y0161290D01*
X0118896Y0162385D01*
X0118303Y0163816D01*
X0118303Y0165365D01*
X0118896Y0166796D01*
X0119991Y0167891D01*
X0121422Y0168484D01*
X0122971Y0168484D01*
X0124402Y0167891D01*
X0125497Y0166796D01*
X0126090Y0165365D01*
X0126090Y0163816D01*
X0125497Y0162385D01*
X0124402Y0161290D01*
X0122971Y0160697D01*
X0121422Y0160697D01*
X0123055Y0160732D02*
X0132244Y0160732D01*
X0132328Y0160697D02*
X0133876Y0160697D01*
X0135307Y0161290D01*
X0136403Y0162385D01*
X0136995Y0163816D01*
X0136995Y0165365D01*
X0136403Y0166796D01*
X0135307Y0167891D01*
X0133876Y0168484D01*
X0132328Y0168484D01*
X0130897Y0167891D01*
X0129801Y0166796D01*
X0129209Y0165365D01*
X0129209Y0163816D01*
X0129801Y0162385D01*
X0130897Y0161290D01*
X0132328Y0160697D01*
X0133960Y0160732D02*
X0143149Y0160732D01*
X0141662Y0161431D02*
X0135448Y0161431D01*
X0136146Y0162129D02*
X0140963Y0162129D01*
X0140524Y0162828D02*
X0136586Y0162828D01*
X0136875Y0163526D02*
X0140234Y0163526D01*
X0140114Y0164225D02*
X0136995Y0164225D01*
X0136995Y0164923D02*
X0140114Y0164923D01*
X0140220Y0165622D02*
X0136889Y0165622D01*
X0136600Y0166320D02*
X0140510Y0166320D01*
X0140930Y0167019D02*
X0136180Y0167019D01*
X0135481Y0167717D02*
X0141628Y0167717D01*
X0143068Y0168416D02*
X0134041Y0168416D01*
X0132163Y0168416D02*
X0123135Y0168416D01*
X0124576Y0167717D02*
X0130723Y0167717D01*
X0130024Y0167019D02*
X0125274Y0167019D01*
X0125694Y0166320D02*
X0129604Y0166320D01*
X0129315Y0165622D02*
X0125983Y0165622D01*
X0126090Y0164923D02*
X0129209Y0164923D01*
X0129209Y0164225D02*
X0126090Y0164225D01*
X0125970Y0163526D02*
X0129329Y0163526D01*
X0129618Y0162828D02*
X0125680Y0162828D01*
X0125241Y0162129D02*
X0130057Y0162129D01*
X0130756Y0161431D02*
X0124542Y0161431D01*
X0119850Y0161431D02*
X0099466Y0161431D01*
X0099279Y0162129D02*
X0119152Y0162129D01*
X0118713Y0162828D02*
X0099092Y0162828D01*
X0098745Y0163526D02*
X0118423Y0163526D01*
X0118303Y0164225D02*
X0098342Y0164225D01*
X0097939Y0164923D02*
X0118303Y0164923D01*
X0118409Y0165622D02*
X0097433Y0165622D01*
X0096734Y0166320D02*
X0118699Y0166320D01*
X0119119Y0167019D02*
X0096036Y0167019D01*
X0095042Y0167717D02*
X0119817Y0167717D01*
X0121257Y0168416D02*
X0093832Y0168416D01*
X0128520Y0149556D02*
X0137179Y0149556D01*
X0136985Y0149619D02*
X0137597Y0149420D01*
X0138205Y0149324D01*
X0138205Y0153059D01*
X0134469Y0153059D01*
X0134565Y0152452D01*
X0134764Y0151839D01*
X0135057Y0151266D01*
X0135435Y0150745D01*
X0135890Y0150290D01*
X0136411Y0149911D01*
X0136985Y0149619D01*
X0138205Y0149556D02*
X0138905Y0149556D01*
X0138905Y0150254D02*
X0138205Y0150254D01*
X0138205Y0150953D02*
X0138905Y0150953D01*
X0138905Y0151651D02*
X0138205Y0151651D01*
X0138205Y0152350D02*
X0138905Y0152350D01*
X0138905Y0153048D02*
X0138205Y0153048D01*
X0135284Y0150953D02*
X0130699Y0150953D01*
X0131135Y0151651D02*
X0134860Y0151651D01*
X0134598Y0152350D02*
X0131424Y0152350D01*
X0131543Y0153048D02*
X0134471Y0153048D01*
X0135939Y0150254D02*
X0130000Y0150254D01*
X0141203Y0156541D02*
X0147086Y0156541D01*
X0146387Y0155842D02*
X0141843Y0155842D01*
X0142261Y0155144D02*
X0145965Y0155144D01*
X0145675Y0154445D02*
X0142519Y0154445D01*
X0144866Y0160732D02*
X0153552Y0160732D01*
X0154563Y0160732D02*
X0155263Y0160732D01*
X0155263Y0161431D02*
X0154563Y0161431D01*
X0154563Y0162129D02*
X0155263Y0162129D01*
X0155263Y0162828D02*
X0154563Y0162828D01*
X0154563Y0163526D02*
X0155263Y0163526D01*
X0155263Y0164225D02*
X0154563Y0164225D01*
X0151646Y0162129D02*
X0147052Y0162129D01*
X0147491Y0162828D02*
X0151221Y0162828D01*
X0150958Y0163526D02*
X0147781Y0163526D01*
X0147901Y0164225D02*
X0150830Y0164225D01*
X0152304Y0161431D02*
X0146353Y0161431D01*
X0157568Y0167717D02*
X0182067Y0167717D01*
X0181073Y0167019D02*
X0158205Y0167019D01*
X0158622Y0166320D02*
X0180375Y0166320D01*
X0179676Y0165622D02*
X0158879Y0165622D01*
X0230000Y0109741D02*
X0230700Y0109741D01*
X0230700Y0109042D02*
X0230000Y0109042D01*
X0230000Y0108344D02*
X0230700Y0108344D01*
X0230700Y0107645D02*
X0230000Y0107645D01*
X0230000Y0106947D02*
X0230700Y0106947D01*
X0238947Y0066433D02*
X0249425Y0066433D01*
X0249425Y0065734D02*
X0241389Y0065734D01*
X0242599Y0065036D02*
X0249425Y0065036D01*
X0249425Y0064337D02*
X0243809Y0064337D01*
X0245018Y0063639D02*
X0249425Y0063639D01*
X0249425Y0062940D02*
X0245753Y0062940D01*
X0246402Y0062242D02*
X0249425Y0062242D01*
X0249425Y0061543D02*
X0247050Y0061543D01*
X0247698Y0060845D02*
X0249425Y0060845D01*
X0249425Y0060146D02*
X0248346Y0060146D01*
X0248766Y0059448D02*
X0249425Y0059448D01*
X0249425Y0058749D02*
X0249103Y0058749D01*
X0149607Y0061543D02*
X0143093Y0061543D01*
X0144078Y0060845D02*
X0148622Y0060845D01*
X0147974Y0060146D02*
X0144726Y0060146D01*
X0145015Y0059448D02*
X0147685Y0059448D01*
X0147409Y0058749D02*
X0145291Y0058749D01*
X0145291Y0058051D02*
X0147409Y0058051D01*
X0147409Y0057352D02*
X0145291Y0057352D01*
X0145291Y0056654D02*
X0147409Y0056654D01*
X0147409Y0055955D02*
X0145291Y0055955D01*
X0145291Y0055257D02*
X0147409Y0055257D01*
X0147409Y0054558D02*
X0145291Y0054558D01*
X0145291Y0053860D02*
X0147409Y0053860D01*
X0147409Y0053161D02*
X0145291Y0053161D01*
X0145291Y0052463D02*
X0147409Y0052463D01*
X0147409Y0051764D02*
X0145291Y0051764D01*
X0145228Y0051066D02*
X0147472Y0051066D01*
X0147761Y0050367D02*
X0144939Y0050367D01*
X0144592Y0049669D02*
X0148108Y0049669D01*
X0148807Y0048970D02*
X0143893Y0048970D01*
X0142646Y0048272D02*
X0150054Y0048272D01*
X0059918Y0110439D02*
X0027684Y0110439D01*
X0027684Y0109741D02*
X0058822Y0109741D01*
X0058142Y0109042D02*
X0027684Y0109042D01*
X0027684Y0108344D02*
X0057661Y0108344D01*
X0057321Y0107645D02*
X0027684Y0107645D01*
X0027684Y0106947D02*
X0057094Y0106947D01*
X0238678Y0164923D02*
X0249425Y0164923D01*
X0249425Y0165622D02*
X0241283Y0165622D01*
X0242493Y0166320D02*
X0249425Y0166320D01*
X0249425Y0167019D02*
X0243703Y0167019D01*
X0244912Y0167717D02*
X0249425Y0167717D01*
X0249425Y0168416D02*
X0245697Y0168416D01*
X0246345Y0169114D02*
X0249425Y0169114D01*
X0249425Y0169813D02*
X0246993Y0169813D01*
X0247641Y0170511D02*
X0249425Y0170511D01*
X0249425Y0171210D02*
X0248289Y0171210D01*
X0248737Y0171908D02*
X0249425Y0171908D01*
X0249425Y0172607D02*
X0249073Y0172607D01*
X0249409Y0173305D02*
X0249425Y0173305D01*
D15*
X0151350Y0126000D03*
X0141350Y0126000D03*
M02*
