G75*
%MOIN*%
%OFA0B0*%
%FSLAX25Y25*%
%IPPOS*%
%LPD*%
%AMOC8*
5,1,8,0,0,1.08239X$1,22.5*
%
%ADD10C,0.00000*%
%ADD11R,0.02200X0.07800*%
%ADD12R,0.04331X0.03937*%
%ADD13R,0.03937X0.04331*%
%ADD14C,0.05906*%
%ADD15C,0.18898*%
%ADD16C,0.03937*%
%ADD17C,0.06000*%
%ADD18C,0.08250*%
%ADD19C,0.00700*%
%ADD20C,0.02953*%
%ADD21C,0.01600*%
D10*
X0042098Y0035000D02*
X0235011Y0035000D01*
X0229105Y0050748D02*
X0229107Y0050901D01*
X0229113Y0051055D01*
X0229123Y0051208D01*
X0229137Y0051360D01*
X0229155Y0051513D01*
X0229177Y0051664D01*
X0229202Y0051815D01*
X0229232Y0051966D01*
X0229266Y0052116D01*
X0229303Y0052264D01*
X0229344Y0052412D01*
X0229389Y0052558D01*
X0229438Y0052704D01*
X0229491Y0052848D01*
X0229547Y0052990D01*
X0229607Y0053131D01*
X0229671Y0053271D01*
X0229738Y0053409D01*
X0229809Y0053545D01*
X0229884Y0053679D01*
X0229961Y0053811D01*
X0230043Y0053941D01*
X0230127Y0054069D01*
X0230215Y0054195D01*
X0230306Y0054318D01*
X0230400Y0054439D01*
X0230498Y0054557D01*
X0230598Y0054673D01*
X0230702Y0054786D01*
X0230808Y0054897D01*
X0230917Y0055005D01*
X0231029Y0055110D01*
X0231143Y0055211D01*
X0231261Y0055310D01*
X0231380Y0055406D01*
X0231502Y0055499D01*
X0231627Y0055588D01*
X0231754Y0055675D01*
X0231883Y0055757D01*
X0232014Y0055837D01*
X0232147Y0055913D01*
X0232282Y0055986D01*
X0232419Y0056055D01*
X0232558Y0056120D01*
X0232698Y0056182D01*
X0232840Y0056240D01*
X0232983Y0056295D01*
X0233128Y0056346D01*
X0233274Y0056393D01*
X0233421Y0056436D01*
X0233569Y0056475D01*
X0233718Y0056511D01*
X0233868Y0056542D01*
X0234019Y0056570D01*
X0234170Y0056594D01*
X0234323Y0056614D01*
X0234475Y0056630D01*
X0234628Y0056642D01*
X0234781Y0056650D01*
X0234934Y0056654D01*
X0235088Y0056654D01*
X0235241Y0056650D01*
X0235394Y0056642D01*
X0235547Y0056630D01*
X0235699Y0056614D01*
X0235852Y0056594D01*
X0236003Y0056570D01*
X0236154Y0056542D01*
X0236304Y0056511D01*
X0236453Y0056475D01*
X0236601Y0056436D01*
X0236748Y0056393D01*
X0236894Y0056346D01*
X0237039Y0056295D01*
X0237182Y0056240D01*
X0237324Y0056182D01*
X0237464Y0056120D01*
X0237603Y0056055D01*
X0237740Y0055986D01*
X0237875Y0055913D01*
X0238008Y0055837D01*
X0238139Y0055757D01*
X0238268Y0055675D01*
X0238395Y0055588D01*
X0238520Y0055499D01*
X0238642Y0055406D01*
X0238761Y0055310D01*
X0238879Y0055211D01*
X0238993Y0055110D01*
X0239105Y0055005D01*
X0239214Y0054897D01*
X0239320Y0054786D01*
X0239424Y0054673D01*
X0239524Y0054557D01*
X0239622Y0054439D01*
X0239716Y0054318D01*
X0239807Y0054195D01*
X0239895Y0054069D01*
X0239979Y0053941D01*
X0240061Y0053811D01*
X0240138Y0053679D01*
X0240213Y0053545D01*
X0240284Y0053409D01*
X0240351Y0053271D01*
X0240415Y0053131D01*
X0240475Y0052990D01*
X0240531Y0052848D01*
X0240584Y0052704D01*
X0240633Y0052558D01*
X0240678Y0052412D01*
X0240719Y0052264D01*
X0240756Y0052116D01*
X0240790Y0051966D01*
X0240820Y0051815D01*
X0240845Y0051664D01*
X0240867Y0051513D01*
X0240885Y0051360D01*
X0240899Y0051208D01*
X0240909Y0051055D01*
X0240915Y0050901D01*
X0240917Y0050748D01*
X0240915Y0050595D01*
X0240909Y0050441D01*
X0240899Y0050288D01*
X0240885Y0050136D01*
X0240867Y0049983D01*
X0240845Y0049832D01*
X0240820Y0049681D01*
X0240790Y0049530D01*
X0240756Y0049380D01*
X0240719Y0049232D01*
X0240678Y0049084D01*
X0240633Y0048938D01*
X0240584Y0048792D01*
X0240531Y0048648D01*
X0240475Y0048506D01*
X0240415Y0048365D01*
X0240351Y0048225D01*
X0240284Y0048087D01*
X0240213Y0047951D01*
X0240138Y0047817D01*
X0240061Y0047685D01*
X0239979Y0047555D01*
X0239895Y0047427D01*
X0239807Y0047301D01*
X0239716Y0047178D01*
X0239622Y0047057D01*
X0239524Y0046939D01*
X0239424Y0046823D01*
X0239320Y0046710D01*
X0239214Y0046599D01*
X0239105Y0046491D01*
X0238993Y0046386D01*
X0238879Y0046285D01*
X0238761Y0046186D01*
X0238642Y0046090D01*
X0238520Y0045997D01*
X0238395Y0045908D01*
X0238268Y0045821D01*
X0238139Y0045739D01*
X0238008Y0045659D01*
X0237875Y0045583D01*
X0237740Y0045510D01*
X0237603Y0045441D01*
X0237464Y0045376D01*
X0237324Y0045314D01*
X0237182Y0045256D01*
X0237039Y0045201D01*
X0236894Y0045150D01*
X0236748Y0045103D01*
X0236601Y0045060D01*
X0236453Y0045021D01*
X0236304Y0044985D01*
X0236154Y0044954D01*
X0236003Y0044926D01*
X0235852Y0044902D01*
X0235699Y0044882D01*
X0235547Y0044866D01*
X0235394Y0044854D01*
X0235241Y0044846D01*
X0235088Y0044842D01*
X0234934Y0044842D01*
X0234781Y0044846D01*
X0234628Y0044854D01*
X0234475Y0044866D01*
X0234323Y0044882D01*
X0234170Y0044902D01*
X0234019Y0044926D01*
X0233868Y0044954D01*
X0233718Y0044985D01*
X0233569Y0045021D01*
X0233421Y0045060D01*
X0233274Y0045103D01*
X0233128Y0045150D01*
X0232983Y0045201D01*
X0232840Y0045256D01*
X0232698Y0045314D01*
X0232558Y0045376D01*
X0232419Y0045441D01*
X0232282Y0045510D01*
X0232147Y0045583D01*
X0232014Y0045659D01*
X0231883Y0045739D01*
X0231754Y0045821D01*
X0231627Y0045908D01*
X0231502Y0045997D01*
X0231380Y0046090D01*
X0231261Y0046186D01*
X0231143Y0046285D01*
X0231029Y0046386D01*
X0230917Y0046491D01*
X0230808Y0046599D01*
X0230702Y0046710D01*
X0230598Y0046823D01*
X0230498Y0046939D01*
X0230400Y0047057D01*
X0230306Y0047178D01*
X0230215Y0047301D01*
X0230127Y0047427D01*
X0230043Y0047555D01*
X0229961Y0047685D01*
X0229884Y0047817D01*
X0229809Y0047951D01*
X0229738Y0048087D01*
X0229671Y0048225D01*
X0229607Y0048365D01*
X0229547Y0048506D01*
X0229491Y0048648D01*
X0229438Y0048792D01*
X0229389Y0048938D01*
X0229344Y0049084D01*
X0229303Y0049232D01*
X0229266Y0049380D01*
X0229232Y0049530D01*
X0229202Y0049681D01*
X0229177Y0049832D01*
X0229155Y0049983D01*
X0229137Y0050136D01*
X0229123Y0050288D01*
X0229113Y0050441D01*
X0229107Y0050595D01*
X0229105Y0050748D01*
X0235011Y0035000D02*
X0235392Y0035005D01*
X0235772Y0035018D01*
X0236152Y0035041D01*
X0236531Y0035074D01*
X0236909Y0035115D01*
X0237286Y0035165D01*
X0237662Y0035225D01*
X0238037Y0035293D01*
X0238409Y0035371D01*
X0238780Y0035458D01*
X0239148Y0035553D01*
X0239514Y0035658D01*
X0239877Y0035771D01*
X0240238Y0035893D01*
X0240595Y0036023D01*
X0240949Y0036163D01*
X0241300Y0036310D01*
X0241647Y0036467D01*
X0241990Y0036631D01*
X0242329Y0036804D01*
X0242664Y0036985D01*
X0242995Y0037174D01*
X0243320Y0037371D01*
X0243641Y0037575D01*
X0243957Y0037788D01*
X0244267Y0038008D01*
X0244573Y0038235D01*
X0244872Y0038470D01*
X0245166Y0038712D01*
X0245454Y0038960D01*
X0245736Y0039216D01*
X0246011Y0039479D01*
X0246280Y0039748D01*
X0246543Y0040023D01*
X0246799Y0040305D01*
X0247047Y0040593D01*
X0247289Y0040887D01*
X0247524Y0041186D01*
X0247751Y0041492D01*
X0247971Y0041802D01*
X0248184Y0042118D01*
X0248388Y0042439D01*
X0248585Y0042764D01*
X0248774Y0043095D01*
X0248955Y0043430D01*
X0249128Y0043769D01*
X0249292Y0044112D01*
X0249449Y0044459D01*
X0249596Y0044810D01*
X0249736Y0045164D01*
X0249866Y0045521D01*
X0249988Y0045882D01*
X0250101Y0046245D01*
X0250206Y0046611D01*
X0250301Y0046979D01*
X0250388Y0047350D01*
X0250466Y0047722D01*
X0250534Y0048097D01*
X0250594Y0048473D01*
X0250644Y0048850D01*
X0250685Y0049228D01*
X0250718Y0049607D01*
X0250741Y0049987D01*
X0250754Y0050367D01*
X0250759Y0050748D01*
X0250759Y0180669D01*
X0229105Y0180669D02*
X0229107Y0180822D01*
X0229113Y0180976D01*
X0229123Y0181129D01*
X0229137Y0181281D01*
X0229155Y0181434D01*
X0229177Y0181585D01*
X0229202Y0181736D01*
X0229232Y0181887D01*
X0229266Y0182037D01*
X0229303Y0182185D01*
X0229344Y0182333D01*
X0229389Y0182479D01*
X0229438Y0182625D01*
X0229491Y0182769D01*
X0229547Y0182911D01*
X0229607Y0183052D01*
X0229671Y0183192D01*
X0229738Y0183330D01*
X0229809Y0183466D01*
X0229884Y0183600D01*
X0229961Y0183732D01*
X0230043Y0183862D01*
X0230127Y0183990D01*
X0230215Y0184116D01*
X0230306Y0184239D01*
X0230400Y0184360D01*
X0230498Y0184478D01*
X0230598Y0184594D01*
X0230702Y0184707D01*
X0230808Y0184818D01*
X0230917Y0184926D01*
X0231029Y0185031D01*
X0231143Y0185132D01*
X0231261Y0185231D01*
X0231380Y0185327D01*
X0231502Y0185420D01*
X0231627Y0185509D01*
X0231754Y0185596D01*
X0231883Y0185678D01*
X0232014Y0185758D01*
X0232147Y0185834D01*
X0232282Y0185907D01*
X0232419Y0185976D01*
X0232558Y0186041D01*
X0232698Y0186103D01*
X0232840Y0186161D01*
X0232983Y0186216D01*
X0233128Y0186267D01*
X0233274Y0186314D01*
X0233421Y0186357D01*
X0233569Y0186396D01*
X0233718Y0186432D01*
X0233868Y0186463D01*
X0234019Y0186491D01*
X0234170Y0186515D01*
X0234323Y0186535D01*
X0234475Y0186551D01*
X0234628Y0186563D01*
X0234781Y0186571D01*
X0234934Y0186575D01*
X0235088Y0186575D01*
X0235241Y0186571D01*
X0235394Y0186563D01*
X0235547Y0186551D01*
X0235699Y0186535D01*
X0235852Y0186515D01*
X0236003Y0186491D01*
X0236154Y0186463D01*
X0236304Y0186432D01*
X0236453Y0186396D01*
X0236601Y0186357D01*
X0236748Y0186314D01*
X0236894Y0186267D01*
X0237039Y0186216D01*
X0237182Y0186161D01*
X0237324Y0186103D01*
X0237464Y0186041D01*
X0237603Y0185976D01*
X0237740Y0185907D01*
X0237875Y0185834D01*
X0238008Y0185758D01*
X0238139Y0185678D01*
X0238268Y0185596D01*
X0238395Y0185509D01*
X0238520Y0185420D01*
X0238642Y0185327D01*
X0238761Y0185231D01*
X0238879Y0185132D01*
X0238993Y0185031D01*
X0239105Y0184926D01*
X0239214Y0184818D01*
X0239320Y0184707D01*
X0239424Y0184594D01*
X0239524Y0184478D01*
X0239622Y0184360D01*
X0239716Y0184239D01*
X0239807Y0184116D01*
X0239895Y0183990D01*
X0239979Y0183862D01*
X0240061Y0183732D01*
X0240138Y0183600D01*
X0240213Y0183466D01*
X0240284Y0183330D01*
X0240351Y0183192D01*
X0240415Y0183052D01*
X0240475Y0182911D01*
X0240531Y0182769D01*
X0240584Y0182625D01*
X0240633Y0182479D01*
X0240678Y0182333D01*
X0240719Y0182185D01*
X0240756Y0182037D01*
X0240790Y0181887D01*
X0240820Y0181736D01*
X0240845Y0181585D01*
X0240867Y0181434D01*
X0240885Y0181281D01*
X0240899Y0181129D01*
X0240909Y0180976D01*
X0240915Y0180822D01*
X0240917Y0180669D01*
X0240915Y0180516D01*
X0240909Y0180362D01*
X0240899Y0180209D01*
X0240885Y0180057D01*
X0240867Y0179904D01*
X0240845Y0179753D01*
X0240820Y0179602D01*
X0240790Y0179451D01*
X0240756Y0179301D01*
X0240719Y0179153D01*
X0240678Y0179005D01*
X0240633Y0178859D01*
X0240584Y0178713D01*
X0240531Y0178569D01*
X0240475Y0178427D01*
X0240415Y0178286D01*
X0240351Y0178146D01*
X0240284Y0178008D01*
X0240213Y0177872D01*
X0240138Y0177738D01*
X0240061Y0177606D01*
X0239979Y0177476D01*
X0239895Y0177348D01*
X0239807Y0177222D01*
X0239716Y0177099D01*
X0239622Y0176978D01*
X0239524Y0176860D01*
X0239424Y0176744D01*
X0239320Y0176631D01*
X0239214Y0176520D01*
X0239105Y0176412D01*
X0238993Y0176307D01*
X0238879Y0176206D01*
X0238761Y0176107D01*
X0238642Y0176011D01*
X0238520Y0175918D01*
X0238395Y0175829D01*
X0238268Y0175742D01*
X0238139Y0175660D01*
X0238008Y0175580D01*
X0237875Y0175504D01*
X0237740Y0175431D01*
X0237603Y0175362D01*
X0237464Y0175297D01*
X0237324Y0175235D01*
X0237182Y0175177D01*
X0237039Y0175122D01*
X0236894Y0175071D01*
X0236748Y0175024D01*
X0236601Y0174981D01*
X0236453Y0174942D01*
X0236304Y0174906D01*
X0236154Y0174875D01*
X0236003Y0174847D01*
X0235852Y0174823D01*
X0235699Y0174803D01*
X0235547Y0174787D01*
X0235394Y0174775D01*
X0235241Y0174767D01*
X0235088Y0174763D01*
X0234934Y0174763D01*
X0234781Y0174767D01*
X0234628Y0174775D01*
X0234475Y0174787D01*
X0234323Y0174803D01*
X0234170Y0174823D01*
X0234019Y0174847D01*
X0233868Y0174875D01*
X0233718Y0174906D01*
X0233569Y0174942D01*
X0233421Y0174981D01*
X0233274Y0175024D01*
X0233128Y0175071D01*
X0232983Y0175122D01*
X0232840Y0175177D01*
X0232698Y0175235D01*
X0232558Y0175297D01*
X0232419Y0175362D01*
X0232282Y0175431D01*
X0232147Y0175504D01*
X0232014Y0175580D01*
X0231883Y0175660D01*
X0231754Y0175742D01*
X0231627Y0175829D01*
X0231502Y0175918D01*
X0231380Y0176011D01*
X0231261Y0176107D01*
X0231143Y0176206D01*
X0231029Y0176307D01*
X0230917Y0176412D01*
X0230808Y0176520D01*
X0230702Y0176631D01*
X0230598Y0176744D01*
X0230498Y0176860D01*
X0230400Y0176978D01*
X0230306Y0177099D01*
X0230215Y0177222D01*
X0230127Y0177348D01*
X0230043Y0177476D01*
X0229961Y0177606D01*
X0229884Y0177738D01*
X0229809Y0177872D01*
X0229738Y0178008D01*
X0229671Y0178146D01*
X0229607Y0178286D01*
X0229547Y0178427D01*
X0229491Y0178569D01*
X0229438Y0178713D01*
X0229389Y0178859D01*
X0229344Y0179005D01*
X0229303Y0179153D01*
X0229266Y0179301D01*
X0229232Y0179451D01*
X0229202Y0179602D01*
X0229177Y0179753D01*
X0229155Y0179904D01*
X0229137Y0180057D01*
X0229123Y0180209D01*
X0229113Y0180362D01*
X0229107Y0180516D01*
X0229105Y0180669D01*
X0235011Y0196417D02*
X0235392Y0196412D01*
X0235772Y0196399D01*
X0236152Y0196376D01*
X0236531Y0196343D01*
X0236909Y0196302D01*
X0237286Y0196252D01*
X0237662Y0196192D01*
X0238037Y0196124D01*
X0238409Y0196046D01*
X0238780Y0195959D01*
X0239148Y0195864D01*
X0239514Y0195759D01*
X0239877Y0195646D01*
X0240238Y0195524D01*
X0240595Y0195394D01*
X0240949Y0195254D01*
X0241300Y0195107D01*
X0241647Y0194950D01*
X0241990Y0194786D01*
X0242329Y0194613D01*
X0242664Y0194432D01*
X0242995Y0194243D01*
X0243320Y0194046D01*
X0243641Y0193842D01*
X0243957Y0193629D01*
X0244267Y0193409D01*
X0244573Y0193182D01*
X0244872Y0192947D01*
X0245166Y0192705D01*
X0245454Y0192457D01*
X0245736Y0192201D01*
X0246011Y0191938D01*
X0246280Y0191669D01*
X0246543Y0191394D01*
X0246799Y0191112D01*
X0247047Y0190824D01*
X0247289Y0190530D01*
X0247524Y0190231D01*
X0247751Y0189925D01*
X0247971Y0189615D01*
X0248184Y0189299D01*
X0248388Y0188978D01*
X0248585Y0188653D01*
X0248774Y0188322D01*
X0248955Y0187987D01*
X0249128Y0187648D01*
X0249292Y0187305D01*
X0249449Y0186958D01*
X0249596Y0186607D01*
X0249736Y0186253D01*
X0249866Y0185896D01*
X0249988Y0185535D01*
X0250101Y0185172D01*
X0250206Y0184806D01*
X0250301Y0184438D01*
X0250388Y0184067D01*
X0250466Y0183695D01*
X0250534Y0183320D01*
X0250594Y0182944D01*
X0250644Y0182567D01*
X0250685Y0182189D01*
X0250718Y0181810D01*
X0250741Y0181430D01*
X0250754Y0181050D01*
X0250759Y0180669D01*
X0235011Y0196417D02*
X0042098Y0196417D01*
X0036192Y0180669D02*
X0036194Y0180822D01*
X0036200Y0180976D01*
X0036210Y0181129D01*
X0036224Y0181281D01*
X0036242Y0181434D01*
X0036264Y0181585D01*
X0036289Y0181736D01*
X0036319Y0181887D01*
X0036353Y0182037D01*
X0036390Y0182185D01*
X0036431Y0182333D01*
X0036476Y0182479D01*
X0036525Y0182625D01*
X0036578Y0182769D01*
X0036634Y0182911D01*
X0036694Y0183052D01*
X0036758Y0183192D01*
X0036825Y0183330D01*
X0036896Y0183466D01*
X0036971Y0183600D01*
X0037048Y0183732D01*
X0037130Y0183862D01*
X0037214Y0183990D01*
X0037302Y0184116D01*
X0037393Y0184239D01*
X0037487Y0184360D01*
X0037585Y0184478D01*
X0037685Y0184594D01*
X0037789Y0184707D01*
X0037895Y0184818D01*
X0038004Y0184926D01*
X0038116Y0185031D01*
X0038230Y0185132D01*
X0038348Y0185231D01*
X0038467Y0185327D01*
X0038589Y0185420D01*
X0038714Y0185509D01*
X0038841Y0185596D01*
X0038970Y0185678D01*
X0039101Y0185758D01*
X0039234Y0185834D01*
X0039369Y0185907D01*
X0039506Y0185976D01*
X0039645Y0186041D01*
X0039785Y0186103D01*
X0039927Y0186161D01*
X0040070Y0186216D01*
X0040215Y0186267D01*
X0040361Y0186314D01*
X0040508Y0186357D01*
X0040656Y0186396D01*
X0040805Y0186432D01*
X0040955Y0186463D01*
X0041106Y0186491D01*
X0041257Y0186515D01*
X0041410Y0186535D01*
X0041562Y0186551D01*
X0041715Y0186563D01*
X0041868Y0186571D01*
X0042021Y0186575D01*
X0042175Y0186575D01*
X0042328Y0186571D01*
X0042481Y0186563D01*
X0042634Y0186551D01*
X0042786Y0186535D01*
X0042939Y0186515D01*
X0043090Y0186491D01*
X0043241Y0186463D01*
X0043391Y0186432D01*
X0043540Y0186396D01*
X0043688Y0186357D01*
X0043835Y0186314D01*
X0043981Y0186267D01*
X0044126Y0186216D01*
X0044269Y0186161D01*
X0044411Y0186103D01*
X0044551Y0186041D01*
X0044690Y0185976D01*
X0044827Y0185907D01*
X0044962Y0185834D01*
X0045095Y0185758D01*
X0045226Y0185678D01*
X0045355Y0185596D01*
X0045482Y0185509D01*
X0045607Y0185420D01*
X0045729Y0185327D01*
X0045848Y0185231D01*
X0045966Y0185132D01*
X0046080Y0185031D01*
X0046192Y0184926D01*
X0046301Y0184818D01*
X0046407Y0184707D01*
X0046511Y0184594D01*
X0046611Y0184478D01*
X0046709Y0184360D01*
X0046803Y0184239D01*
X0046894Y0184116D01*
X0046982Y0183990D01*
X0047066Y0183862D01*
X0047148Y0183732D01*
X0047225Y0183600D01*
X0047300Y0183466D01*
X0047371Y0183330D01*
X0047438Y0183192D01*
X0047502Y0183052D01*
X0047562Y0182911D01*
X0047618Y0182769D01*
X0047671Y0182625D01*
X0047720Y0182479D01*
X0047765Y0182333D01*
X0047806Y0182185D01*
X0047843Y0182037D01*
X0047877Y0181887D01*
X0047907Y0181736D01*
X0047932Y0181585D01*
X0047954Y0181434D01*
X0047972Y0181281D01*
X0047986Y0181129D01*
X0047996Y0180976D01*
X0048002Y0180822D01*
X0048004Y0180669D01*
X0048002Y0180516D01*
X0047996Y0180362D01*
X0047986Y0180209D01*
X0047972Y0180057D01*
X0047954Y0179904D01*
X0047932Y0179753D01*
X0047907Y0179602D01*
X0047877Y0179451D01*
X0047843Y0179301D01*
X0047806Y0179153D01*
X0047765Y0179005D01*
X0047720Y0178859D01*
X0047671Y0178713D01*
X0047618Y0178569D01*
X0047562Y0178427D01*
X0047502Y0178286D01*
X0047438Y0178146D01*
X0047371Y0178008D01*
X0047300Y0177872D01*
X0047225Y0177738D01*
X0047148Y0177606D01*
X0047066Y0177476D01*
X0046982Y0177348D01*
X0046894Y0177222D01*
X0046803Y0177099D01*
X0046709Y0176978D01*
X0046611Y0176860D01*
X0046511Y0176744D01*
X0046407Y0176631D01*
X0046301Y0176520D01*
X0046192Y0176412D01*
X0046080Y0176307D01*
X0045966Y0176206D01*
X0045848Y0176107D01*
X0045729Y0176011D01*
X0045607Y0175918D01*
X0045482Y0175829D01*
X0045355Y0175742D01*
X0045226Y0175660D01*
X0045095Y0175580D01*
X0044962Y0175504D01*
X0044827Y0175431D01*
X0044690Y0175362D01*
X0044551Y0175297D01*
X0044411Y0175235D01*
X0044269Y0175177D01*
X0044126Y0175122D01*
X0043981Y0175071D01*
X0043835Y0175024D01*
X0043688Y0174981D01*
X0043540Y0174942D01*
X0043391Y0174906D01*
X0043241Y0174875D01*
X0043090Y0174847D01*
X0042939Y0174823D01*
X0042786Y0174803D01*
X0042634Y0174787D01*
X0042481Y0174775D01*
X0042328Y0174767D01*
X0042175Y0174763D01*
X0042021Y0174763D01*
X0041868Y0174767D01*
X0041715Y0174775D01*
X0041562Y0174787D01*
X0041410Y0174803D01*
X0041257Y0174823D01*
X0041106Y0174847D01*
X0040955Y0174875D01*
X0040805Y0174906D01*
X0040656Y0174942D01*
X0040508Y0174981D01*
X0040361Y0175024D01*
X0040215Y0175071D01*
X0040070Y0175122D01*
X0039927Y0175177D01*
X0039785Y0175235D01*
X0039645Y0175297D01*
X0039506Y0175362D01*
X0039369Y0175431D01*
X0039234Y0175504D01*
X0039101Y0175580D01*
X0038970Y0175660D01*
X0038841Y0175742D01*
X0038714Y0175829D01*
X0038589Y0175918D01*
X0038467Y0176011D01*
X0038348Y0176107D01*
X0038230Y0176206D01*
X0038116Y0176307D01*
X0038004Y0176412D01*
X0037895Y0176520D01*
X0037789Y0176631D01*
X0037685Y0176744D01*
X0037585Y0176860D01*
X0037487Y0176978D01*
X0037393Y0177099D01*
X0037302Y0177222D01*
X0037214Y0177348D01*
X0037130Y0177476D01*
X0037048Y0177606D01*
X0036971Y0177738D01*
X0036896Y0177872D01*
X0036825Y0178008D01*
X0036758Y0178146D01*
X0036694Y0178286D01*
X0036634Y0178427D01*
X0036578Y0178569D01*
X0036525Y0178713D01*
X0036476Y0178859D01*
X0036431Y0179005D01*
X0036390Y0179153D01*
X0036353Y0179301D01*
X0036319Y0179451D01*
X0036289Y0179602D01*
X0036264Y0179753D01*
X0036242Y0179904D01*
X0036224Y0180057D01*
X0036210Y0180209D01*
X0036200Y0180362D01*
X0036194Y0180516D01*
X0036192Y0180669D01*
X0026350Y0180669D02*
X0026355Y0181050D01*
X0026368Y0181430D01*
X0026391Y0181810D01*
X0026424Y0182189D01*
X0026465Y0182567D01*
X0026515Y0182944D01*
X0026575Y0183320D01*
X0026643Y0183695D01*
X0026721Y0184067D01*
X0026808Y0184438D01*
X0026903Y0184806D01*
X0027008Y0185172D01*
X0027121Y0185535D01*
X0027243Y0185896D01*
X0027373Y0186253D01*
X0027513Y0186607D01*
X0027660Y0186958D01*
X0027817Y0187305D01*
X0027981Y0187648D01*
X0028154Y0187987D01*
X0028335Y0188322D01*
X0028524Y0188653D01*
X0028721Y0188978D01*
X0028925Y0189299D01*
X0029138Y0189615D01*
X0029358Y0189925D01*
X0029585Y0190231D01*
X0029820Y0190530D01*
X0030062Y0190824D01*
X0030310Y0191112D01*
X0030566Y0191394D01*
X0030829Y0191669D01*
X0031098Y0191938D01*
X0031373Y0192201D01*
X0031655Y0192457D01*
X0031943Y0192705D01*
X0032237Y0192947D01*
X0032536Y0193182D01*
X0032842Y0193409D01*
X0033152Y0193629D01*
X0033468Y0193842D01*
X0033789Y0194046D01*
X0034114Y0194243D01*
X0034445Y0194432D01*
X0034780Y0194613D01*
X0035119Y0194786D01*
X0035462Y0194950D01*
X0035809Y0195107D01*
X0036160Y0195254D01*
X0036514Y0195394D01*
X0036871Y0195524D01*
X0037232Y0195646D01*
X0037595Y0195759D01*
X0037961Y0195864D01*
X0038329Y0195959D01*
X0038700Y0196046D01*
X0039072Y0196124D01*
X0039447Y0196192D01*
X0039823Y0196252D01*
X0040200Y0196302D01*
X0040578Y0196343D01*
X0040957Y0196376D01*
X0041337Y0196399D01*
X0041717Y0196412D01*
X0042098Y0196417D01*
X0026350Y0180669D02*
X0026350Y0050748D01*
X0036192Y0050748D02*
X0036194Y0050901D01*
X0036200Y0051055D01*
X0036210Y0051208D01*
X0036224Y0051360D01*
X0036242Y0051513D01*
X0036264Y0051664D01*
X0036289Y0051815D01*
X0036319Y0051966D01*
X0036353Y0052116D01*
X0036390Y0052264D01*
X0036431Y0052412D01*
X0036476Y0052558D01*
X0036525Y0052704D01*
X0036578Y0052848D01*
X0036634Y0052990D01*
X0036694Y0053131D01*
X0036758Y0053271D01*
X0036825Y0053409D01*
X0036896Y0053545D01*
X0036971Y0053679D01*
X0037048Y0053811D01*
X0037130Y0053941D01*
X0037214Y0054069D01*
X0037302Y0054195D01*
X0037393Y0054318D01*
X0037487Y0054439D01*
X0037585Y0054557D01*
X0037685Y0054673D01*
X0037789Y0054786D01*
X0037895Y0054897D01*
X0038004Y0055005D01*
X0038116Y0055110D01*
X0038230Y0055211D01*
X0038348Y0055310D01*
X0038467Y0055406D01*
X0038589Y0055499D01*
X0038714Y0055588D01*
X0038841Y0055675D01*
X0038970Y0055757D01*
X0039101Y0055837D01*
X0039234Y0055913D01*
X0039369Y0055986D01*
X0039506Y0056055D01*
X0039645Y0056120D01*
X0039785Y0056182D01*
X0039927Y0056240D01*
X0040070Y0056295D01*
X0040215Y0056346D01*
X0040361Y0056393D01*
X0040508Y0056436D01*
X0040656Y0056475D01*
X0040805Y0056511D01*
X0040955Y0056542D01*
X0041106Y0056570D01*
X0041257Y0056594D01*
X0041410Y0056614D01*
X0041562Y0056630D01*
X0041715Y0056642D01*
X0041868Y0056650D01*
X0042021Y0056654D01*
X0042175Y0056654D01*
X0042328Y0056650D01*
X0042481Y0056642D01*
X0042634Y0056630D01*
X0042786Y0056614D01*
X0042939Y0056594D01*
X0043090Y0056570D01*
X0043241Y0056542D01*
X0043391Y0056511D01*
X0043540Y0056475D01*
X0043688Y0056436D01*
X0043835Y0056393D01*
X0043981Y0056346D01*
X0044126Y0056295D01*
X0044269Y0056240D01*
X0044411Y0056182D01*
X0044551Y0056120D01*
X0044690Y0056055D01*
X0044827Y0055986D01*
X0044962Y0055913D01*
X0045095Y0055837D01*
X0045226Y0055757D01*
X0045355Y0055675D01*
X0045482Y0055588D01*
X0045607Y0055499D01*
X0045729Y0055406D01*
X0045848Y0055310D01*
X0045966Y0055211D01*
X0046080Y0055110D01*
X0046192Y0055005D01*
X0046301Y0054897D01*
X0046407Y0054786D01*
X0046511Y0054673D01*
X0046611Y0054557D01*
X0046709Y0054439D01*
X0046803Y0054318D01*
X0046894Y0054195D01*
X0046982Y0054069D01*
X0047066Y0053941D01*
X0047148Y0053811D01*
X0047225Y0053679D01*
X0047300Y0053545D01*
X0047371Y0053409D01*
X0047438Y0053271D01*
X0047502Y0053131D01*
X0047562Y0052990D01*
X0047618Y0052848D01*
X0047671Y0052704D01*
X0047720Y0052558D01*
X0047765Y0052412D01*
X0047806Y0052264D01*
X0047843Y0052116D01*
X0047877Y0051966D01*
X0047907Y0051815D01*
X0047932Y0051664D01*
X0047954Y0051513D01*
X0047972Y0051360D01*
X0047986Y0051208D01*
X0047996Y0051055D01*
X0048002Y0050901D01*
X0048004Y0050748D01*
X0048002Y0050595D01*
X0047996Y0050441D01*
X0047986Y0050288D01*
X0047972Y0050136D01*
X0047954Y0049983D01*
X0047932Y0049832D01*
X0047907Y0049681D01*
X0047877Y0049530D01*
X0047843Y0049380D01*
X0047806Y0049232D01*
X0047765Y0049084D01*
X0047720Y0048938D01*
X0047671Y0048792D01*
X0047618Y0048648D01*
X0047562Y0048506D01*
X0047502Y0048365D01*
X0047438Y0048225D01*
X0047371Y0048087D01*
X0047300Y0047951D01*
X0047225Y0047817D01*
X0047148Y0047685D01*
X0047066Y0047555D01*
X0046982Y0047427D01*
X0046894Y0047301D01*
X0046803Y0047178D01*
X0046709Y0047057D01*
X0046611Y0046939D01*
X0046511Y0046823D01*
X0046407Y0046710D01*
X0046301Y0046599D01*
X0046192Y0046491D01*
X0046080Y0046386D01*
X0045966Y0046285D01*
X0045848Y0046186D01*
X0045729Y0046090D01*
X0045607Y0045997D01*
X0045482Y0045908D01*
X0045355Y0045821D01*
X0045226Y0045739D01*
X0045095Y0045659D01*
X0044962Y0045583D01*
X0044827Y0045510D01*
X0044690Y0045441D01*
X0044551Y0045376D01*
X0044411Y0045314D01*
X0044269Y0045256D01*
X0044126Y0045201D01*
X0043981Y0045150D01*
X0043835Y0045103D01*
X0043688Y0045060D01*
X0043540Y0045021D01*
X0043391Y0044985D01*
X0043241Y0044954D01*
X0043090Y0044926D01*
X0042939Y0044902D01*
X0042786Y0044882D01*
X0042634Y0044866D01*
X0042481Y0044854D01*
X0042328Y0044846D01*
X0042175Y0044842D01*
X0042021Y0044842D01*
X0041868Y0044846D01*
X0041715Y0044854D01*
X0041562Y0044866D01*
X0041410Y0044882D01*
X0041257Y0044902D01*
X0041106Y0044926D01*
X0040955Y0044954D01*
X0040805Y0044985D01*
X0040656Y0045021D01*
X0040508Y0045060D01*
X0040361Y0045103D01*
X0040215Y0045150D01*
X0040070Y0045201D01*
X0039927Y0045256D01*
X0039785Y0045314D01*
X0039645Y0045376D01*
X0039506Y0045441D01*
X0039369Y0045510D01*
X0039234Y0045583D01*
X0039101Y0045659D01*
X0038970Y0045739D01*
X0038841Y0045821D01*
X0038714Y0045908D01*
X0038589Y0045997D01*
X0038467Y0046090D01*
X0038348Y0046186D01*
X0038230Y0046285D01*
X0038116Y0046386D01*
X0038004Y0046491D01*
X0037895Y0046599D01*
X0037789Y0046710D01*
X0037685Y0046823D01*
X0037585Y0046939D01*
X0037487Y0047057D01*
X0037393Y0047178D01*
X0037302Y0047301D01*
X0037214Y0047427D01*
X0037130Y0047555D01*
X0037048Y0047685D01*
X0036971Y0047817D01*
X0036896Y0047951D01*
X0036825Y0048087D01*
X0036758Y0048225D01*
X0036694Y0048365D01*
X0036634Y0048506D01*
X0036578Y0048648D01*
X0036525Y0048792D01*
X0036476Y0048938D01*
X0036431Y0049084D01*
X0036390Y0049232D01*
X0036353Y0049380D01*
X0036319Y0049530D01*
X0036289Y0049681D01*
X0036264Y0049832D01*
X0036242Y0049983D01*
X0036224Y0050136D01*
X0036210Y0050288D01*
X0036200Y0050441D01*
X0036194Y0050595D01*
X0036192Y0050748D01*
X0026350Y0050748D02*
X0026355Y0050367D01*
X0026368Y0049987D01*
X0026391Y0049607D01*
X0026424Y0049228D01*
X0026465Y0048850D01*
X0026515Y0048473D01*
X0026575Y0048097D01*
X0026643Y0047722D01*
X0026721Y0047350D01*
X0026808Y0046979D01*
X0026903Y0046611D01*
X0027008Y0046245D01*
X0027121Y0045882D01*
X0027243Y0045521D01*
X0027373Y0045164D01*
X0027513Y0044810D01*
X0027660Y0044459D01*
X0027817Y0044112D01*
X0027981Y0043769D01*
X0028154Y0043430D01*
X0028335Y0043095D01*
X0028524Y0042764D01*
X0028721Y0042439D01*
X0028925Y0042118D01*
X0029138Y0041802D01*
X0029358Y0041492D01*
X0029585Y0041186D01*
X0029820Y0040887D01*
X0030062Y0040593D01*
X0030310Y0040305D01*
X0030566Y0040023D01*
X0030829Y0039748D01*
X0031098Y0039479D01*
X0031373Y0039216D01*
X0031655Y0038960D01*
X0031943Y0038712D01*
X0032237Y0038470D01*
X0032536Y0038235D01*
X0032842Y0038008D01*
X0033152Y0037788D01*
X0033468Y0037575D01*
X0033789Y0037371D01*
X0034114Y0037174D01*
X0034445Y0036985D01*
X0034780Y0036804D01*
X0035119Y0036631D01*
X0035462Y0036467D01*
X0035809Y0036310D01*
X0036160Y0036163D01*
X0036514Y0036023D01*
X0036871Y0035893D01*
X0037232Y0035771D01*
X0037595Y0035658D01*
X0037961Y0035553D01*
X0038329Y0035458D01*
X0038700Y0035371D01*
X0039072Y0035293D01*
X0039447Y0035225D01*
X0039823Y0035165D01*
X0040200Y0035115D01*
X0040578Y0035074D01*
X0040957Y0035041D01*
X0041337Y0035018D01*
X0041717Y0035005D01*
X0042098Y0035000D01*
D11*
X0138850Y0100700D03*
X0143850Y0100700D03*
X0148850Y0100700D03*
X0153850Y0100700D03*
X0153850Y0119300D03*
X0148850Y0119300D03*
X0143850Y0119300D03*
X0138850Y0119300D03*
D12*
X0140350Y0130654D03*
X0140350Y0137346D03*
X0152350Y0137346D03*
X0152350Y0130654D03*
X0149696Y0091000D03*
X0143004Y0091000D03*
D13*
X0163350Y0114654D03*
X0163350Y0121346D03*
D14*
X0160366Y0153409D03*
X0149460Y0153409D03*
X0138555Y0153409D03*
X0127649Y0153409D03*
X0116744Y0153409D03*
X0122196Y0164591D03*
X0133102Y0164591D03*
X0144007Y0164591D03*
X0154913Y0164591D03*
D15*
X0187748Y0159000D03*
X0089362Y0159000D03*
D16*
X0042098Y0157047D03*
X0042098Y0070433D03*
X0235011Y0070433D03*
X0235011Y0157047D03*
D17*
X0233350Y0120709D02*
X0227350Y0120709D01*
X0227350Y0110709D02*
X0233350Y0110709D01*
X0151350Y0058000D02*
X0151350Y0052000D01*
X0141350Y0052000D02*
X0141350Y0058000D01*
D18*
X0070475Y0105709D02*
X0062225Y0105709D01*
X0062225Y0125709D02*
X0070475Y0125709D01*
D19*
X0074048Y0129299D02*
X0098188Y0129299D01*
X0098886Y0129998D02*
X0073350Y0129998D01*
X0073344Y0130003D02*
X0071483Y0130774D01*
X0061217Y0130774D01*
X0059356Y0130003D01*
X0057931Y0128578D01*
X0057159Y0126716D01*
X0057159Y0124701D01*
X0057931Y0122839D01*
X0059356Y0121414D01*
X0061217Y0120643D01*
X0071483Y0120643D01*
X0073344Y0121414D01*
X0074769Y0122839D01*
X0075237Y0123968D01*
X0097780Y0123968D01*
X0098799Y0124988D01*
X0108091Y0134279D01*
X0108091Y0154279D01*
X0116662Y0162850D01*
X0118703Y0162850D01*
X0118896Y0162385D01*
X0119991Y0161290D01*
X0121422Y0160697D01*
X0122971Y0160697D01*
X0124402Y0161290D01*
X0125497Y0162385D01*
X0126090Y0163816D01*
X0126090Y0165365D01*
X0125497Y0166796D01*
X0124402Y0167891D01*
X0122971Y0168484D01*
X0121422Y0168484D01*
X0119991Y0167891D01*
X0118896Y0166796D01*
X0118703Y0166331D01*
X0115220Y0166331D01*
X0105629Y0156741D01*
X0104609Y0155721D01*
X0104609Y0135721D01*
X0096338Y0127449D01*
X0075237Y0127449D01*
X0074769Y0128578D01*
X0073344Y0130003D01*
X0071671Y0130696D02*
X0099585Y0130696D01*
X0100283Y0131395D02*
X0027684Y0131395D01*
X0027684Y0132093D02*
X0100982Y0132093D01*
X0101680Y0132792D02*
X0027684Y0132792D01*
X0027684Y0133490D02*
X0102379Y0133490D01*
X0103077Y0134189D02*
X0027684Y0134189D01*
X0027684Y0134887D02*
X0103776Y0134887D01*
X0104474Y0135586D02*
X0027684Y0135586D01*
X0027684Y0136284D02*
X0104609Y0136284D01*
X0104609Y0136983D02*
X0027684Y0136983D01*
X0027684Y0137681D02*
X0104609Y0137681D01*
X0104609Y0138380D02*
X0027684Y0138380D01*
X0027684Y0139078D02*
X0104609Y0139078D01*
X0104609Y0139777D02*
X0027684Y0139777D01*
X0027684Y0140475D02*
X0104609Y0140475D01*
X0104609Y0141174D02*
X0027684Y0141174D01*
X0027684Y0141872D02*
X0104609Y0141872D01*
X0104609Y0142571D02*
X0027684Y0142571D01*
X0027684Y0143269D02*
X0104609Y0143269D01*
X0104609Y0143968D02*
X0027684Y0143968D01*
X0027684Y0144666D02*
X0104609Y0144666D01*
X0104609Y0145365D02*
X0027684Y0145365D01*
X0027684Y0146063D02*
X0104609Y0146063D01*
X0104609Y0146762D02*
X0027684Y0146762D01*
X0027684Y0147460D02*
X0104609Y0147460D01*
X0104609Y0148159D02*
X0027684Y0148159D01*
X0027684Y0148857D02*
X0087073Y0148857D01*
X0087994Y0148611D02*
X0090730Y0148611D01*
X0093372Y0149319D01*
X0095741Y0150686D01*
X0097675Y0152621D01*
X0099043Y0154990D01*
X0099751Y0157632D01*
X0099751Y0160368D01*
X0099043Y0163010D01*
X0097675Y0165379D01*
X0095741Y0167314D01*
X0093372Y0168681D01*
X0090730Y0169389D01*
X0087994Y0169389D01*
X0085352Y0168681D01*
X0082983Y0167314D01*
X0081048Y0165379D01*
X0079680Y0163010D01*
X0078972Y0160368D01*
X0078972Y0157632D01*
X0079680Y0154990D01*
X0081048Y0152621D01*
X0082983Y0150686D01*
X0085352Y0149319D01*
X0087994Y0148611D01*
X0084941Y0149556D02*
X0027684Y0149556D01*
X0027684Y0150254D02*
X0083731Y0150254D01*
X0082716Y0150953D02*
X0027684Y0150953D01*
X0027684Y0151651D02*
X0082018Y0151651D01*
X0081319Y0152350D02*
X0027684Y0152350D01*
X0027684Y0153048D02*
X0080801Y0153048D01*
X0080398Y0153747D02*
X0027684Y0153747D01*
X0027684Y0154445D02*
X0040778Y0154445D01*
X0040450Y0154581D02*
X0041519Y0154138D01*
X0042677Y0154138D01*
X0043746Y0154581D01*
X0044564Y0155399D01*
X0045007Y0156469D01*
X0045007Y0157626D01*
X0044564Y0158695D01*
X0043746Y0159513D01*
X0042677Y0159956D01*
X0041519Y0159956D01*
X0040450Y0159513D01*
X0039632Y0158695D01*
X0039189Y0157626D01*
X0039189Y0156469D01*
X0039632Y0155399D01*
X0040450Y0154581D01*
X0039887Y0155144D02*
X0027684Y0155144D01*
X0027684Y0155842D02*
X0039448Y0155842D01*
X0039189Y0156541D02*
X0027684Y0156541D01*
X0027684Y0157239D02*
X0039189Y0157239D01*
X0039318Y0157938D02*
X0027684Y0157938D01*
X0027684Y0158637D02*
X0039608Y0158637D01*
X0040272Y0159335D02*
X0027684Y0159335D01*
X0027684Y0160034D02*
X0078972Y0160034D01*
X0078972Y0159335D02*
X0043924Y0159335D01*
X0044588Y0158637D02*
X0078972Y0158637D01*
X0078972Y0157938D02*
X0044878Y0157938D01*
X0045007Y0157239D02*
X0079078Y0157239D01*
X0079265Y0156541D02*
X0045007Y0156541D01*
X0044748Y0155842D02*
X0079452Y0155842D01*
X0079639Y0155144D02*
X0044309Y0155144D01*
X0043418Y0154445D02*
X0079995Y0154445D01*
X0079070Y0160732D02*
X0027684Y0160732D01*
X0027684Y0161431D02*
X0079257Y0161431D01*
X0079444Y0162129D02*
X0027684Y0162129D01*
X0027684Y0162828D02*
X0079632Y0162828D01*
X0079978Y0163526D02*
X0027684Y0163526D01*
X0027684Y0164225D02*
X0080382Y0164225D01*
X0080785Y0164923D02*
X0045765Y0164923D01*
X0048071Y0165450D02*
X0048071Y0165450D01*
X0043320Y0164365D01*
X0043320Y0164365D01*
X0038460Y0164729D01*
X0038460Y0164729D01*
X0033923Y0166510D01*
X0033923Y0166510D01*
X0030113Y0169548D01*
X0030113Y0169548D01*
X0030113Y0169548D01*
X0027684Y0173110D01*
X0027684Y0058307D01*
X0030113Y0061869D01*
X0030113Y0061869D01*
X0033923Y0064908D01*
X0033923Y0064908D01*
X0038460Y0066688D01*
X0038460Y0066688D01*
X0043320Y0067052D01*
X0043320Y0067052D01*
X0048071Y0065968D01*
X0048071Y0065968D01*
X0052292Y0063531D01*
X0052292Y0063531D01*
X0055607Y0059958D01*
X0055607Y0059958D01*
X0057722Y0055567D01*
X0057722Y0055567D01*
X0058448Y0050748D01*
X0057722Y0045929D01*
X0057722Y0045929D01*
X0055607Y0041538D01*
X0055607Y0041538D01*
X0052292Y0037965D01*
X0052292Y0037965D01*
X0049467Y0036334D01*
X0227484Y0036334D01*
X0226836Y0036589D01*
X0226836Y0036589D01*
X0223026Y0039627D01*
X0223026Y0039627D01*
X0223026Y0039627D01*
X0220281Y0043654D01*
X0220281Y0043654D01*
X0218844Y0048311D01*
X0218844Y0053185D01*
X0220281Y0057842D01*
X0223026Y0061869D01*
X0223026Y0061869D01*
X0226836Y0064908D01*
X0226836Y0064908D01*
X0231373Y0066688D01*
X0231373Y0066688D01*
X0236233Y0067052D01*
X0236233Y0067052D01*
X0240985Y0065968D01*
X0240985Y0065968D01*
X0245205Y0063531D01*
X0245205Y0063531D01*
X0248520Y0059958D01*
X0248520Y0059958D01*
X0249425Y0058079D01*
X0249425Y0173338D01*
X0248520Y0171459D01*
X0248520Y0171459D01*
X0245205Y0167886D01*
X0245205Y0167886D01*
X0240985Y0165450D01*
X0240985Y0165450D01*
X0236233Y0164365D01*
X0236233Y0164365D01*
X0231373Y0164729D01*
X0231373Y0164729D01*
X0226836Y0166510D01*
X0226836Y0166510D01*
X0223026Y0169548D01*
X0223026Y0169548D01*
X0223026Y0169548D01*
X0220281Y0173575D01*
X0220281Y0173575D01*
X0218844Y0178232D01*
X0218844Y0183106D01*
X0220281Y0187763D01*
X0220281Y0187763D01*
X0223026Y0191790D01*
X0223026Y0191790D01*
X0223026Y0191790D01*
X0226836Y0194829D01*
X0226836Y0194829D01*
X0227484Y0195083D01*
X0049467Y0195083D01*
X0052292Y0193452D01*
X0052292Y0193452D01*
X0055607Y0189880D01*
X0055607Y0189880D01*
X0057722Y0185489D01*
X0057722Y0185489D01*
X0058448Y0180669D01*
X0057722Y0175850D01*
X0057722Y0175850D01*
X0055607Y0171459D01*
X0055607Y0171459D01*
X0052292Y0167886D01*
X0052292Y0167886D01*
X0052292Y0167886D01*
X0048071Y0165450D01*
X0048369Y0165622D02*
X0081291Y0165622D01*
X0081989Y0166320D02*
X0049579Y0166320D01*
X0050789Y0167019D02*
X0082688Y0167019D01*
X0083682Y0167717D02*
X0051999Y0167717D01*
X0052783Y0168416D02*
X0084891Y0168416D01*
X0086967Y0169114D02*
X0053431Y0169114D01*
X0054079Y0169813D02*
X0222846Y0169813D01*
X0222370Y0170511D02*
X0054728Y0170511D01*
X0055376Y0171210D02*
X0221893Y0171210D01*
X0221417Y0171908D02*
X0055823Y0171908D01*
X0056160Y0172607D02*
X0220941Y0172607D01*
X0220465Y0173305D02*
X0056496Y0173305D01*
X0056833Y0174004D02*
X0220148Y0174004D01*
X0219933Y0174702D02*
X0057169Y0174702D01*
X0057505Y0175401D02*
X0219717Y0175401D01*
X0219502Y0176099D02*
X0057759Y0176099D01*
X0057864Y0176798D02*
X0219287Y0176798D01*
X0219071Y0177496D02*
X0057970Y0177496D01*
X0058075Y0178195D02*
X0218856Y0178195D01*
X0218844Y0178893D02*
X0058180Y0178893D01*
X0058286Y0179592D02*
X0218844Y0179592D01*
X0218844Y0180290D02*
X0058391Y0180290D01*
X0058400Y0180989D02*
X0218844Y0180989D01*
X0218844Y0181687D02*
X0058295Y0181687D01*
X0058189Y0182386D02*
X0218844Y0182386D01*
X0218844Y0183084D02*
X0058084Y0183084D01*
X0057979Y0183783D02*
X0219053Y0183783D01*
X0219268Y0184481D02*
X0057873Y0184481D01*
X0057768Y0185180D02*
X0219484Y0185180D01*
X0219699Y0185878D02*
X0057534Y0185878D01*
X0057197Y0186577D02*
X0219915Y0186577D01*
X0220130Y0187275D02*
X0056861Y0187275D01*
X0056525Y0187974D02*
X0220424Y0187974D01*
X0220900Y0188672D02*
X0056188Y0188672D01*
X0055852Y0189371D02*
X0221377Y0189371D01*
X0221853Y0190070D02*
X0055431Y0190070D01*
X0054783Y0190768D02*
X0222329Y0190768D01*
X0222805Y0191467D02*
X0054135Y0191467D01*
X0053486Y0192165D02*
X0223496Y0192165D01*
X0224372Y0192864D02*
X0052838Y0192864D01*
X0052102Y0193562D02*
X0225248Y0193562D01*
X0226124Y0194261D02*
X0050892Y0194261D01*
X0049682Y0194959D02*
X0227168Y0194959D01*
X0249409Y0173305D02*
X0249425Y0173305D01*
X0249425Y0172607D02*
X0249073Y0172607D01*
X0248737Y0171908D02*
X0249425Y0171908D01*
X0249425Y0171210D02*
X0248289Y0171210D01*
X0247641Y0170511D02*
X0249425Y0170511D01*
X0249425Y0169813D02*
X0246993Y0169813D01*
X0246345Y0169114D02*
X0249425Y0169114D01*
X0249425Y0168416D02*
X0245697Y0168416D01*
X0244912Y0167717D02*
X0249425Y0167717D01*
X0249425Y0167019D02*
X0243703Y0167019D01*
X0242493Y0166320D02*
X0249425Y0166320D01*
X0249425Y0165622D02*
X0241283Y0165622D01*
X0238678Y0164923D02*
X0249425Y0164923D01*
X0249425Y0164225D02*
X0196728Y0164225D01*
X0196325Y0164923D02*
X0230879Y0164923D01*
X0229099Y0165622D02*
X0195819Y0165622D01*
X0196061Y0165379D02*
X0194127Y0167314D01*
X0191758Y0168681D01*
X0189115Y0169389D01*
X0186380Y0169389D01*
X0183737Y0168681D01*
X0181368Y0167314D01*
X0179434Y0165379D01*
X0178066Y0163010D01*
X0177358Y0160368D01*
X0177358Y0157632D01*
X0178066Y0154990D01*
X0179434Y0152621D01*
X0181368Y0150686D01*
X0183737Y0149319D01*
X0186380Y0148611D01*
X0189115Y0148611D01*
X0191758Y0149319D01*
X0194127Y0150686D01*
X0196061Y0152621D01*
X0197429Y0154990D01*
X0198137Y0157632D01*
X0198137Y0160368D01*
X0197429Y0163010D01*
X0196061Y0165379D01*
X0195120Y0166320D02*
X0227320Y0166320D01*
X0226198Y0167019D02*
X0194422Y0167019D01*
X0193428Y0167717D02*
X0225322Y0167717D01*
X0224447Y0168416D02*
X0192218Y0168416D01*
X0190142Y0169114D02*
X0223571Y0169114D01*
X0233185Y0159335D02*
X0198137Y0159335D01*
X0198137Y0158637D02*
X0232521Y0158637D01*
X0232545Y0158695D02*
X0232102Y0157626D01*
X0232102Y0156469D01*
X0232545Y0155399D01*
X0233364Y0154581D01*
X0234433Y0154138D01*
X0235590Y0154138D01*
X0236659Y0154581D01*
X0237478Y0155399D01*
X0237920Y0156469D01*
X0237920Y0157626D01*
X0237478Y0158695D01*
X0236659Y0159513D01*
X0235590Y0159956D01*
X0234433Y0159956D01*
X0233364Y0159513D01*
X0232545Y0158695D01*
X0232232Y0157938D02*
X0198137Y0157938D01*
X0198032Y0157239D02*
X0232102Y0157239D01*
X0232102Y0156541D02*
X0197845Y0156541D01*
X0197657Y0155842D02*
X0232362Y0155842D01*
X0232801Y0155144D02*
X0197470Y0155144D01*
X0197115Y0154445D02*
X0233691Y0154445D01*
X0236332Y0154445D02*
X0249425Y0154445D01*
X0249425Y0153747D02*
X0196711Y0153747D01*
X0196308Y0153048D02*
X0249425Y0153048D01*
X0249425Y0152350D02*
X0195790Y0152350D01*
X0195092Y0151651D02*
X0249425Y0151651D01*
X0249425Y0150953D02*
X0194393Y0150953D01*
X0193378Y0150254D02*
X0249425Y0150254D01*
X0249425Y0149556D02*
X0192169Y0149556D01*
X0190036Y0148857D02*
X0249425Y0148857D01*
X0249425Y0148159D02*
X0148979Y0148159D01*
X0148286Y0147465D02*
X0149995Y0149174D01*
X0150409Y0149588D01*
X0151666Y0150109D01*
X0152761Y0151204D01*
X0153354Y0152635D01*
X0153354Y0154184D01*
X0152761Y0155615D01*
X0151666Y0156710D01*
X0150235Y0157303D01*
X0148686Y0157303D01*
X0147255Y0156710D01*
X0146160Y0155615D01*
X0145567Y0154184D01*
X0145567Y0152635D01*
X0146160Y0151204D01*
X0147255Y0150109D01*
X0147272Y0150102D01*
X0146350Y0149180D01*
X0145298Y0150232D01*
X0145298Y0160911D01*
X0146213Y0161290D01*
X0147308Y0162385D01*
X0147901Y0163816D01*
X0147901Y0165365D01*
X0147308Y0166796D01*
X0146213Y0167891D01*
X0144782Y0168484D01*
X0143233Y0168484D01*
X0141802Y0167891D01*
X0140707Y0166796D01*
X0140114Y0165365D01*
X0140114Y0163816D01*
X0140707Y0162385D01*
X0141802Y0161290D01*
X0142717Y0160911D01*
X0142717Y0149163D01*
X0143473Y0148407D01*
X0144414Y0147465D01*
X0144414Y0138116D01*
X0143893Y0138637D01*
X0143456Y0138637D01*
X0143456Y0139705D01*
X0142905Y0140255D01*
X0137795Y0140255D01*
X0137244Y0139705D01*
X0137244Y0134988D01*
X0137795Y0134437D01*
X0142905Y0134437D01*
X0143456Y0134988D01*
X0143456Y0135424D01*
X0144414Y0134465D01*
X0144414Y0124141D01*
X0143187Y0124141D01*
X0143380Y0124334D01*
X0143666Y0124762D01*
X0143863Y0125238D01*
X0143964Y0125743D01*
X0143964Y0125858D01*
X0141492Y0125858D01*
X0141492Y0123386D01*
X0141607Y0123386D01*
X0141809Y0123426D01*
X0141809Y0115010D01*
X0142360Y0114459D01*
X0145340Y0114459D01*
X0145891Y0115010D01*
X0145891Y0119515D01*
X0146239Y0119864D01*
X0146350Y0119975D01*
X0146809Y0119515D01*
X0146809Y0115010D01*
X0147360Y0114459D01*
X0150340Y0114459D01*
X0150891Y0115010D01*
X0150891Y0123426D01*
X0151093Y0123386D01*
X0151208Y0123386D01*
X0151208Y0125858D01*
X0148736Y0125858D01*
X0148736Y0125743D01*
X0148837Y0125238D01*
X0149034Y0124762D01*
X0149320Y0124334D01*
X0149513Y0124141D01*
X0148286Y0124141D01*
X0148286Y0134465D01*
X0149244Y0135424D01*
X0149244Y0134988D01*
X0149795Y0134437D01*
X0154905Y0134437D01*
X0155456Y0134988D01*
X0155456Y0139705D01*
X0154905Y0140255D01*
X0149795Y0140255D01*
X0149244Y0139705D01*
X0149244Y0138637D01*
X0148807Y0138637D01*
X0148286Y0138116D01*
X0148286Y0147465D01*
X0148286Y0147460D02*
X0249425Y0147460D01*
X0249425Y0146762D02*
X0148286Y0146762D01*
X0148286Y0146063D02*
X0249425Y0146063D01*
X0249425Y0145365D02*
X0148286Y0145365D01*
X0148286Y0144666D02*
X0249425Y0144666D01*
X0249425Y0143968D02*
X0148286Y0143968D01*
X0148286Y0143269D02*
X0249425Y0143269D01*
X0249425Y0142571D02*
X0148286Y0142571D01*
X0148286Y0141872D02*
X0249425Y0141872D01*
X0249425Y0141174D02*
X0148286Y0141174D01*
X0148286Y0140475D02*
X0249425Y0140475D01*
X0249425Y0139777D02*
X0155384Y0139777D01*
X0155456Y0139078D02*
X0249425Y0139078D01*
X0249425Y0138380D02*
X0155456Y0138380D01*
X0155456Y0137681D02*
X0249425Y0137681D01*
X0249425Y0136983D02*
X0155456Y0136983D01*
X0155456Y0136284D02*
X0249425Y0136284D01*
X0249425Y0135586D02*
X0155456Y0135586D01*
X0155355Y0134887D02*
X0249425Y0134887D01*
X0249425Y0134189D02*
X0148286Y0134189D01*
X0148286Y0133490D02*
X0149723Y0133490D01*
X0149795Y0133563D02*
X0149244Y0133012D01*
X0149244Y0128295D01*
X0149597Y0127943D01*
X0149320Y0127666D01*
X0149034Y0127238D01*
X0148837Y0126762D01*
X0148736Y0126257D01*
X0148736Y0126142D01*
X0151208Y0126142D01*
X0151208Y0125858D01*
X0151492Y0125858D01*
X0151492Y0123386D01*
X0151607Y0123386D01*
X0151809Y0123426D01*
X0151809Y0115010D01*
X0152360Y0114459D01*
X0155340Y0114459D01*
X0155891Y0115010D01*
X0155891Y0119515D01*
X0156431Y0120056D01*
X0160441Y0120056D01*
X0160441Y0118792D01*
X0160992Y0118241D01*
X0165708Y0118241D01*
X0166259Y0118792D01*
X0166259Y0123901D01*
X0165708Y0124452D01*
X0160992Y0124452D01*
X0160441Y0123901D01*
X0160441Y0122637D01*
X0155891Y0122637D01*
X0155891Y0123590D01*
X0155340Y0124141D01*
X0153187Y0124141D01*
X0153380Y0124334D01*
X0153666Y0124762D01*
X0153863Y0125238D01*
X0153964Y0125743D01*
X0153964Y0125858D01*
X0151492Y0125858D01*
X0151492Y0126142D01*
X0153964Y0126142D01*
X0153964Y0126257D01*
X0153863Y0126762D01*
X0153666Y0127238D01*
X0153380Y0127666D01*
X0153302Y0127744D01*
X0154905Y0127744D01*
X0155456Y0128295D01*
X0155456Y0129363D01*
X0165162Y0129363D01*
X0167059Y0127465D01*
X0167059Y0117535D01*
X0166259Y0116734D01*
X0166259Y0117208D01*
X0165708Y0117759D01*
X0160992Y0117759D01*
X0160441Y0117208D01*
X0160441Y0115944D01*
X0158469Y0115944D01*
X0157713Y0115188D01*
X0156815Y0114291D01*
X0140204Y0114291D01*
X0140389Y0114340D01*
X0140648Y0114490D01*
X0140860Y0114702D01*
X0141010Y0114961D01*
X0141087Y0115250D01*
X0141087Y0119100D01*
X0139050Y0119100D01*
X0139050Y0119500D01*
X0141087Y0119500D01*
X0141087Y0123350D01*
X0141077Y0123389D01*
X0141093Y0123386D01*
X0141208Y0123386D01*
X0141208Y0125858D01*
X0141492Y0125858D01*
X0141492Y0126142D01*
X0143964Y0126142D01*
X0143964Y0126257D01*
X0143863Y0126762D01*
X0143666Y0127238D01*
X0143380Y0127666D01*
X0143103Y0127943D01*
X0143456Y0128295D01*
X0143456Y0133012D01*
X0142905Y0133563D01*
X0137795Y0133563D01*
X0137244Y0133012D01*
X0137244Y0131719D01*
X0132815Y0127291D01*
X0132059Y0126535D01*
X0132059Y0114465D01*
X0134059Y0112465D01*
X0134815Y0111709D01*
X0157885Y0111709D01*
X0159538Y0113363D01*
X0160441Y0113363D01*
X0160441Y0112099D01*
X0160992Y0111548D01*
X0165708Y0111548D01*
X0166259Y0112099D01*
X0166259Y0113363D01*
X0166538Y0113363D01*
X0167294Y0114119D01*
X0169641Y0116465D01*
X0169641Y0117535D01*
X0169641Y0128535D01*
X0168885Y0129291D01*
X0166231Y0131944D01*
X0155456Y0131944D01*
X0155456Y0133012D01*
X0154905Y0133563D01*
X0149795Y0133563D01*
X0149244Y0132792D02*
X0148286Y0132792D01*
X0148286Y0132093D02*
X0149244Y0132093D01*
X0149244Y0131395D02*
X0148286Y0131395D01*
X0148286Y0130696D02*
X0149244Y0130696D01*
X0149244Y0129998D02*
X0148286Y0129998D01*
X0148286Y0129299D02*
X0149244Y0129299D01*
X0149244Y0128601D02*
X0148286Y0128601D01*
X0148286Y0127902D02*
X0149556Y0127902D01*
X0149019Y0127203D02*
X0148286Y0127203D01*
X0148286Y0126505D02*
X0148785Y0126505D01*
X0148736Y0125806D02*
X0148286Y0125806D01*
X0148286Y0125108D02*
X0148890Y0125108D01*
X0149269Y0124409D02*
X0148286Y0124409D01*
X0151208Y0124409D02*
X0151492Y0124409D01*
X0151492Y0123711D02*
X0151208Y0123711D01*
X0150891Y0123012D02*
X0151809Y0123012D01*
X0151809Y0122314D02*
X0150891Y0122314D01*
X0150891Y0121615D02*
X0151809Y0121615D01*
X0151809Y0120917D02*
X0150891Y0120917D01*
X0150891Y0120218D02*
X0151809Y0120218D01*
X0151809Y0119520D02*
X0150891Y0119520D01*
X0150891Y0118821D02*
X0151809Y0118821D01*
X0151809Y0118123D02*
X0150891Y0118123D01*
X0150891Y0117424D02*
X0151809Y0117424D01*
X0151809Y0116726D02*
X0150891Y0116726D01*
X0150891Y0116027D02*
X0151809Y0116027D01*
X0151809Y0115329D02*
X0150891Y0115329D01*
X0150510Y0114630D02*
X0152190Y0114630D01*
X0155510Y0114630D02*
X0157155Y0114630D01*
X0157854Y0115329D02*
X0155891Y0115329D01*
X0155891Y0116027D02*
X0160441Y0116027D01*
X0160441Y0116726D02*
X0155891Y0116726D01*
X0155891Y0117424D02*
X0160657Y0117424D01*
X0160441Y0118821D02*
X0155891Y0118821D01*
X0155891Y0118123D02*
X0167059Y0118123D01*
X0167059Y0118821D02*
X0166259Y0118821D01*
X0166259Y0119520D02*
X0167059Y0119520D01*
X0167059Y0120218D02*
X0166259Y0120218D01*
X0166259Y0120917D02*
X0167059Y0120917D01*
X0167059Y0121615D02*
X0166259Y0121615D01*
X0166259Y0122314D02*
X0167059Y0122314D01*
X0167059Y0123012D02*
X0166259Y0123012D01*
X0166259Y0123711D02*
X0167059Y0123711D01*
X0167059Y0124409D02*
X0165751Y0124409D01*
X0167059Y0125108D02*
X0153810Y0125108D01*
X0153964Y0125806D02*
X0167059Y0125806D01*
X0167059Y0126505D02*
X0153915Y0126505D01*
X0153681Y0127203D02*
X0167059Y0127203D01*
X0166623Y0127902D02*
X0155062Y0127902D01*
X0155456Y0128601D02*
X0165924Y0128601D01*
X0165226Y0129299D02*
X0155456Y0129299D01*
X0155456Y0132093D02*
X0249425Y0132093D01*
X0249425Y0131395D02*
X0166781Y0131395D01*
X0167479Y0130696D02*
X0249425Y0130696D01*
X0249425Y0129998D02*
X0168178Y0129998D01*
X0168876Y0129299D02*
X0249425Y0129299D01*
X0249425Y0128601D02*
X0169575Y0128601D01*
X0169641Y0127902D02*
X0249425Y0127902D01*
X0249425Y0127203D02*
X0169641Y0127203D01*
X0169641Y0126505D02*
X0249425Y0126505D01*
X0249425Y0125806D02*
X0169641Y0125806D01*
X0169641Y0125108D02*
X0249425Y0125108D01*
X0249425Y0124409D02*
X0234713Y0124409D01*
X0234134Y0124649D02*
X0226566Y0124649D01*
X0225118Y0124049D01*
X0224009Y0122941D01*
X0223806Y0122449D01*
X0221338Y0122449D01*
X0209629Y0110741D01*
X0150629Y0110741D01*
X0149609Y0109721D01*
X0147109Y0107221D01*
X0147109Y0105290D01*
X0146809Y0104990D01*
X0146809Y0096410D01*
X0147109Y0096110D01*
X0147109Y0093877D01*
X0146591Y0093358D01*
X0146591Y0088642D01*
X0147142Y0088091D01*
X0152251Y0088091D01*
X0152559Y0088399D01*
X0152559Y0073035D01*
X0150815Y0071291D01*
X0150059Y0070535D01*
X0150059Y0061731D01*
X0149118Y0061341D01*
X0148009Y0060232D01*
X0147409Y0058784D01*
X0147409Y0051216D01*
X0148009Y0049768D01*
X0149118Y0048659D01*
X0150566Y0048059D01*
X0152134Y0048059D01*
X0153582Y0048659D01*
X0154691Y0049768D01*
X0155291Y0051216D01*
X0155291Y0058784D01*
X0154691Y0060232D01*
X0153582Y0061341D01*
X0152641Y0061731D01*
X0152641Y0069465D01*
X0155141Y0071965D01*
X0155141Y0095859D01*
X0155340Y0095859D01*
X0155891Y0096410D01*
X0155891Y0104990D01*
X0155340Y0105541D01*
X0152360Y0105541D01*
X0151809Y0104990D01*
X0151809Y0096410D01*
X0152360Y0095859D01*
X0152559Y0095859D01*
X0152559Y0093601D01*
X0152251Y0093909D01*
X0150591Y0093909D01*
X0150591Y0096110D01*
X0150891Y0096410D01*
X0150891Y0104990D01*
X0150591Y0105290D01*
X0150591Y0105779D01*
X0152071Y0107259D01*
X0211071Y0107259D01*
X0222780Y0118968D01*
X0223806Y0118968D01*
X0224009Y0118477D01*
X0225118Y0117368D01*
X0226566Y0116768D01*
X0234134Y0116768D01*
X0235582Y0117368D01*
X0236691Y0118477D01*
X0237291Y0119925D01*
X0237291Y0121492D01*
X0236691Y0122941D01*
X0235582Y0124049D01*
X0234134Y0124649D01*
X0235920Y0123711D02*
X0249425Y0123711D01*
X0249425Y0123012D02*
X0236619Y0123012D01*
X0236950Y0122314D02*
X0249425Y0122314D01*
X0249425Y0121615D02*
X0237240Y0121615D01*
X0237291Y0120917D02*
X0249425Y0120917D01*
X0249425Y0120218D02*
X0237291Y0120218D01*
X0237123Y0119520D02*
X0249425Y0119520D01*
X0249425Y0118821D02*
X0236833Y0118821D01*
X0236337Y0118123D02*
X0249425Y0118123D01*
X0249425Y0117424D02*
X0235638Y0117424D01*
X0234669Y0114630D02*
X0249425Y0114630D01*
X0249425Y0113932D02*
X0235953Y0113932D01*
X0236045Y0113864D02*
X0235518Y0114247D01*
X0234938Y0114543D01*
X0234319Y0114744D01*
X0233676Y0114846D01*
X0230700Y0114846D01*
X0230700Y0111059D01*
X0230000Y0111059D01*
X0230000Y0114846D01*
X0227024Y0114846D01*
X0226381Y0114744D01*
X0225762Y0114543D01*
X0225182Y0114247D01*
X0224655Y0113864D01*
X0224194Y0113404D01*
X0223811Y0112877D01*
X0223516Y0112297D01*
X0223314Y0111677D01*
X0223216Y0111059D01*
X0230000Y0111059D01*
X0230000Y0110359D01*
X0223216Y0110359D01*
X0223314Y0109740D01*
X0223516Y0109120D01*
X0223811Y0108540D01*
X0224194Y0108013D01*
X0224655Y0107553D01*
X0225182Y0107170D01*
X0225762Y0106874D01*
X0226381Y0106673D01*
X0227024Y0106571D01*
X0230000Y0106571D01*
X0230000Y0110359D01*
X0230700Y0110359D01*
X0230700Y0111059D01*
X0237484Y0111059D01*
X0237386Y0111677D01*
X0237184Y0112297D01*
X0236889Y0112877D01*
X0236506Y0113404D01*
X0236045Y0113864D01*
X0236630Y0113233D02*
X0249425Y0113233D01*
X0249425Y0112535D02*
X0237063Y0112535D01*
X0237334Y0111836D02*
X0249425Y0111836D01*
X0249425Y0111138D02*
X0237471Y0111138D01*
X0237484Y0110359D02*
X0230700Y0110359D01*
X0230700Y0106571D01*
X0233676Y0106571D01*
X0234319Y0106673D01*
X0234938Y0106874D01*
X0235518Y0107170D01*
X0236045Y0107553D01*
X0236506Y0108013D01*
X0236889Y0108540D01*
X0237184Y0109120D01*
X0237386Y0109740D01*
X0237484Y0110359D01*
X0237386Y0109741D02*
X0249425Y0109741D01*
X0249425Y0110439D02*
X0230700Y0110439D01*
X0230700Y0109741D02*
X0230000Y0109741D01*
X0230000Y0110439D02*
X0214251Y0110439D01*
X0214949Y0111138D02*
X0223229Y0111138D01*
X0223366Y0111836D02*
X0215648Y0111836D01*
X0216346Y0112535D02*
X0223637Y0112535D01*
X0224070Y0113233D02*
X0217045Y0113233D01*
X0217743Y0113932D02*
X0224747Y0113932D01*
X0226031Y0114630D02*
X0218442Y0114630D01*
X0219140Y0115329D02*
X0249425Y0115329D01*
X0249425Y0116027D02*
X0219839Y0116027D01*
X0220537Y0116726D02*
X0249425Y0116726D01*
X0249425Y0109042D02*
X0237144Y0109042D01*
X0236746Y0108344D02*
X0249425Y0108344D01*
X0249425Y0107645D02*
X0236138Y0107645D01*
X0235080Y0106947D02*
X0249425Y0106947D01*
X0249425Y0106248D02*
X0151060Y0106248D01*
X0150591Y0105550D02*
X0249425Y0105550D01*
X0249425Y0104851D02*
X0155891Y0104851D01*
X0155891Y0104153D02*
X0249425Y0104153D01*
X0249425Y0103454D02*
X0155891Y0103454D01*
X0155891Y0102756D02*
X0249425Y0102756D01*
X0249425Y0102057D02*
X0155891Y0102057D01*
X0155891Y0101359D02*
X0249425Y0101359D01*
X0249425Y0100660D02*
X0155891Y0100660D01*
X0155891Y0099962D02*
X0249425Y0099962D01*
X0249425Y0099263D02*
X0155891Y0099263D01*
X0155891Y0098565D02*
X0249425Y0098565D01*
X0249425Y0097866D02*
X0155891Y0097866D01*
X0155891Y0097168D02*
X0249425Y0097168D01*
X0249425Y0096469D02*
X0155891Y0096469D01*
X0155141Y0095770D02*
X0249425Y0095770D01*
X0249425Y0095072D02*
X0155141Y0095072D01*
X0155141Y0094373D02*
X0249425Y0094373D01*
X0249425Y0093675D02*
X0155141Y0093675D01*
X0155141Y0092976D02*
X0249425Y0092976D01*
X0249425Y0092278D02*
X0155141Y0092278D01*
X0155141Y0091579D02*
X0249425Y0091579D01*
X0249425Y0090881D02*
X0155141Y0090881D01*
X0155141Y0090182D02*
X0249425Y0090182D01*
X0249425Y0089484D02*
X0155141Y0089484D01*
X0155141Y0088785D02*
X0249425Y0088785D01*
X0249425Y0088087D02*
X0155141Y0088087D01*
X0155141Y0087388D02*
X0249425Y0087388D01*
X0249425Y0086690D02*
X0155141Y0086690D01*
X0155141Y0085991D02*
X0249425Y0085991D01*
X0249425Y0085293D02*
X0155141Y0085293D01*
X0155141Y0084594D02*
X0249425Y0084594D01*
X0249425Y0083896D02*
X0155141Y0083896D01*
X0155141Y0083197D02*
X0249425Y0083197D01*
X0249425Y0082499D02*
X0155141Y0082499D01*
X0155141Y0081800D02*
X0249425Y0081800D01*
X0249425Y0081102D02*
X0155141Y0081102D01*
X0155141Y0080403D02*
X0249425Y0080403D01*
X0249425Y0079705D02*
X0155141Y0079705D01*
X0155141Y0079006D02*
X0249425Y0079006D01*
X0249425Y0078308D02*
X0155141Y0078308D01*
X0155141Y0077609D02*
X0249425Y0077609D01*
X0249425Y0076911D02*
X0155141Y0076911D01*
X0155141Y0076212D02*
X0249425Y0076212D01*
X0249425Y0075514D02*
X0155141Y0075514D01*
X0155141Y0074815D02*
X0249425Y0074815D01*
X0249425Y0074117D02*
X0155141Y0074117D01*
X0155141Y0073418D02*
X0249425Y0073418D01*
X0249425Y0072720D02*
X0236839Y0072720D01*
X0236659Y0072899D02*
X0235590Y0073342D01*
X0234433Y0073342D01*
X0233364Y0072899D01*
X0232545Y0072081D01*
X0232102Y0071012D01*
X0232102Y0069854D01*
X0232545Y0068785D01*
X0233364Y0067967D01*
X0234433Y0067524D01*
X0235590Y0067524D01*
X0236659Y0067967D01*
X0237478Y0068785D01*
X0237920Y0069854D01*
X0237920Y0071012D01*
X0237478Y0072081D01*
X0236659Y0072899D01*
X0237502Y0072021D02*
X0249425Y0072021D01*
X0249425Y0071323D02*
X0237792Y0071323D01*
X0237920Y0070624D02*
X0249425Y0070624D01*
X0249425Y0069926D02*
X0237920Y0069926D01*
X0237661Y0069227D02*
X0249425Y0069227D01*
X0249425Y0068529D02*
X0237221Y0068529D01*
X0236329Y0067830D02*
X0249425Y0067830D01*
X0249425Y0067132D02*
X0152641Y0067132D01*
X0152641Y0067830D02*
X0233694Y0067830D01*
X0232802Y0068529D02*
X0152641Y0068529D01*
X0152641Y0069227D02*
X0232362Y0069227D01*
X0232102Y0069926D02*
X0153101Y0069926D01*
X0153799Y0070624D02*
X0232102Y0070624D01*
X0232231Y0071323D02*
X0154498Y0071323D01*
X0155141Y0072021D02*
X0232520Y0072021D01*
X0233184Y0072720D02*
X0155141Y0072720D01*
X0153850Y0072500D02*
X0151350Y0070000D01*
X0151350Y0055000D01*
X0155291Y0055257D02*
X0219483Y0055257D01*
X0219699Y0055955D02*
X0155291Y0055955D01*
X0155291Y0056654D02*
X0219914Y0056654D01*
X0220130Y0057352D02*
X0155291Y0057352D01*
X0155291Y0058051D02*
X0220423Y0058051D01*
X0220899Y0058749D02*
X0155291Y0058749D01*
X0155015Y0059448D02*
X0221375Y0059448D01*
X0221852Y0060146D02*
X0154726Y0060146D01*
X0154078Y0060845D02*
X0222328Y0060845D01*
X0222804Y0061543D02*
X0153093Y0061543D01*
X0152641Y0062242D02*
X0223494Y0062242D01*
X0224370Y0062940D02*
X0152641Y0062940D01*
X0152641Y0063639D02*
X0225246Y0063639D01*
X0226122Y0064337D02*
X0152641Y0064337D01*
X0152641Y0065036D02*
X0227164Y0065036D01*
X0228943Y0065734D02*
X0152641Y0065734D01*
X0152641Y0066433D02*
X0230723Y0066433D01*
X0238947Y0066433D02*
X0249425Y0066433D01*
X0249425Y0065734D02*
X0241389Y0065734D01*
X0242599Y0065036D02*
X0249425Y0065036D01*
X0249425Y0064337D02*
X0243809Y0064337D01*
X0245018Y0063639D02*
X0249425Y0063639D01*
X0249425Y0062940D02*
X0245753Y0062940D01*
X0246402Y0062242D02*
X0249425Y0062242D01*
X0249425Y0061543D02*
X0247050Y0061543D01*
X0247698Y0060845D02*
X0249425Y0060845D01*
X0249425Y0060146D02*
X0248346Y0060146D01*
X0248766Y0059448D02*
X0249425Y0059448D01*
X0249425Y0058749D02*
X0249103Y0058749D01*
X0227324Y0036397D02*
X0049576Y0036397D01*
X0050786Y0037096D02*
X0226201Y0037096D01*
X0225325Y0037794D02*
X0051996Y0037794D01*
X0052292Y0037965D02*
X0052292Y0037965D01*
X0052781Y0038493D02*
X0224449Y0038493D01*
X0223573Y0039191D02*
X0053430Y0039191D01*
X0054078Y0039890D02*
X0222847Y0039890D01*
X0222371Y0040588D02*
X0054726Y0040588D01*
X0055374Y0041287D02*
X0221895Y0041287D01*
X0221418Y0041985D02*
X0055822Y0041985D01*
X0056159Y0042684D02*
X0220942Y0042684D01*
X0220466Y0043382D02*
X0056495Y0043382D01*
X0056832Y0044081D02*
X0220149Y0044081D01*
X0219934Y0044779D02*
X0057168Y0044779D01*
X0057504Y0045478D02*
X0219718Y0045478D01*
X0219503Y0046176D02*
X0057759Y0046176D01*
X0057864Y0046875D02*
X0219287Y0046875D01*
X0219072Y0047573D02*
X0057969Y0047573D01*
X0058075Y0048272D02*
X0140054Y0048272D01*
X0140566Y0048059D02*
X0142134Y0048059D01*
X0143582Y0048659D01*
X0144691Y0049768D01*
X0145291Y0051216D01*
X0145291Y0058784D01*
X0144691Y0060232D01*
X0143582Y0061341D01*
X0142641Y0061731D01*
X0142641Y0070535D01*
X0141885Y0071291D01*
X0140141Y0073035D01*
X0140141Y0088121D01*
X0140399Y0087972D01*
X0140688Y0087894D01*
X0142654Y0087894D01*
X0142654Y0090650D01*
X0143354Y0090650D01*
X0143354Y0091350D01*
X0146306Y0091350D01*
X0146306Y0093118D01*
X0146229Y0093408D01*
X0146079Y0093667D01*
X0145867Y0093879D01*
X0145608Y0094028D01*
X0145319Y0094106D01*
X0143354Y0094106D01*
X0143354Y0091350D01*
X0142654Y0091350D01*
X0142654Y0094106D01*
X0140688Y0094106D01*
X0140399Y0094028D01*
X0140141Y0093879D01*
X0140141Y0095859D01*
X0140340Y0095859D01*
X0140891Y0096410D01*
X0140891Y0104990D01*
X0140340Y0105541D01*
X0137360Y0105541D01*
X0136809Y0104990D01*
X0136809Y0096410D01*
X0137360Y0095859D01*
X0137559Y0095859D01*
X0137559Y0071965D01*
X0140059Y0069465D01*
X0140059Y0061731D01*
X0139118Y0061341D01*
X0138009Y0060232D01*
X0137409Y0058784D01*
X0137409Y0051216D01*
X0138009Y0049768D01*
X0139118Y0048659D01*
X0140566Y0048059D01*
X0138807Y0048970D02*
X0058180Y0048970D01*
X0058285Y0049669D02*
X0138108Y0049669D01*
X0137761Y0050367D02*
X0058391Y0050367D01*
X0058400Y0051066D02*
X0137472Y0051066D01*
X0137409Y0051764D02*
X0058295Y0051764D01*
X0058190Y0052463D02*
X0137409Y0052463D01*
X0137409Y0053161D02*
X0058084Y0053161D01*
X0057979Y0053860D02*
X0137409Y0053860D01*
X0137409Y0054558D02*
X0057874Y0054558D01*
X0057768Y0055257D02*
X0137409Y0055257D01*
X0137409Y0055955D02*
X0057535Y0055955D01*
X0057198Y0056654D02*
X0137409Y0056654D01*
X0137409Y0057352D02*
X0056862Y0057352D01*
X0056526Y0058051D02*
X0137409Y0058051D01*
X0137409Y0058749D02*
X0056189Y0058749D01*
X0055853Y0059448D02*
X0137685Y0059448D01*
X0137974Y0060146D02*
X0055432Y0060146D01*
X0054784Y0060845D02*
X0138622Y0060845D01*
X0139607Y0061543D02*
X0054136Y0061543D01*
X0053488Y0062242D02*
X0140059Y0062242D01*
X0140059Y0062940D02*
X0052840Y0062940D01*
X0052105Y0063639D02*
X0140059Y0063639D01*
X0140059Y0064337D02*
X0050895Y0064337D01*
X0049685Y0065036D02*
X0140059Y0065036D01*
X0140059Y0065734D02*
X0048475Y0065734D01*
X0046033Y0066433D02*
X0140059Y0066433D01*
X0140059Y0067132D02*
X0027684Y0067132D01*
X0027684Y0067830D02*
X0040781Y0067830D01*
X0040450Y0067967D02*
X0041519Y0067524D01*
X0042677Y0067524D01*
X0043746Y0067967D01*
X0044564Y0068785D01*
X0045007Y0069854D01*
X0045007Y0071012D01*
X0044564Y0072081D01*
X0043746Y0072899D01*
X0042677Y0073342D01*
X0041519Y0073342D01*
X0040450Y0072899D01*
X0039632Y0072081D01*
X0039189Y0071012D01*
X0039189Y0069854D01*
X0039632Y0068785D01*
X0040450Y0067967D01*
X0039889Y0068529D02*
X0027684Y0068529D01*
X0027684Y0069227D02*
X0039449Y0069227D01*
X0039189Y0069926D02*
X0027684Y0069926D01*
X0027684Y0070624D02*
X0039189Y0070624D01*
X0039318Y0071323D02*
X0027684Y0071323D01*
X0027684Y0072021D02*
X0039607Y0072021D01*
X0040271Y0072720D02*
X0027684Y0072720D01*
X0027684Y0073418D02*
X0137559Y0073418D01*
X0137559Y0072720D02*
X0043925Y0072720D01*
X0044589Y0072021D02*
X0137559Y0072021D01*
X0138202Y0071323D02*
X0044878Y0071323D01*
X0045007Y0070624D02*
X0138901Y0070624D01*
X0139599Y0069926D02*
X0045007Y0069926D01*
X0044747Y0069227D02*
X0140059Y0069227D01*
X0140059Y0068529D02*
X0044308Y0068529D01*
X0043415Y0067830D02*
X0140059Y0067830D01*
X0141350Y0070000D02*
X0141350Y0055000D01*
X0145291Y0055257D02*
X0147409Y0055257D01*
X0147409Y0055955D02*
X0145291Y0055955D01*
X0145291Y0056654D02*
X0147409Y0056654D01*
X0147409Y0057352D02*
X0145291Y0057352D01*
X0145291Y0058051D02*
X0147409Y0058051D01*
X0147409Y0058749D02*
X0145291Y0058749D01*
X0145015Y0059448D02*
X0147685Y0059448D01*
X0147974Y0060146D02*
X0144726Y0060146D01*
X0144078Y0060845D02*
X0148622Y0060845D01*
X0149607Y0061543D02*
X0143093Y0061543D01*
X0142641Y0062242D02*
X0150059Y0062242D01*
X0150059Y0062940D02*
X0142641Y0062940D01*
X0142641Y0063639D02*
X0150059Y0063639D01*
X0150059Y0064337D02*
X0142641Y0064337D01*
X0142641Y0065036D02*
X0150059Y0065036D01*
X0150059Y0065734D02*
X0142641Y0065734D01*
X0142641Y0066433D02*
X0150059Y0066433D01*
X0150059Y0067132D02*
X0142641Y0067132D01*
X0142641Y0067830D02*
X0150059Y0067830D01*
X0150059Y0068529D02*
X0142641Y0068529D01*
X0142641Y0069227D02*
X0150059Y0069227D01*
X0150059Y0069926D02*
X0142641Y0069926D01*
X0142551Y0070624D02*
X0150149Y0070624D01*
X0150847Y0071323D02*
X0141853Y0071323D01*
X0141154Y0072021D02*
X0151546Y0072021D01*
X0152245Y0072720D02*
X0140455Y0072720D01*
X0140141Y0073418D02*
X0152559Y0073418D01*
X0152559Y0074117D02*
X0140141Y0074117D01*
X0140141Y0074815D02*
X0152559Y0074815D01*
X0152559Y0075514D02*
X0140141Y0075514D01*
X0140141Y0076212D02*
X0152559Y0076212D01*
X0152559Y0076911D02*
X0140141Y0076911D01*
X0140141Y0077609D02*
X0152559Y0077609D01*
X0152559Y0078308D02*
X0140141Y0078308D01*
X0140141Y0079006D02*
X0152559Y0079006D01*
X0152559Y0079705D02*
X0140141Y0079705D01*
X0140141Y0080403D02*
X0152559Y0080403D01*
X0152559Y0081102D02*
X0140141Y0081102D01*
X0140141Y0081800D02*
X0152559Y0081800D01*
X0152559Y0082499D02*
X0140141Y0082499D01*
X0140141Y0083197D02*
X0152559Y0083197D01*
X0152559Y0083896D02*
X0140141Y0083896D01*
X0140141Y0084594D02*
X0152559Y0084594D01*
X0152559Y0085293D02*
X0140141Y0085293D01*
X0140141Y0085991D02*
X0152559Y0085991D01*
X0152559Y0086690D02*
X0140141Y0086690D01*
X0140141Y0087388D02*
X0152559Y0087388D01*
X0152559Y0088087D02*
X0145808Y0088087D01*
X0145867Y0088121D02*
X0146079Y0088333D01*
X0146229Y0088592D01*
X0146306Y0088882D01*
X0146306Y0090650D01*
X0143354Y0090650D01*
X0143354Y0087894D01*
X0145319Y0087894D01*
X0145608Y0087972D01*
X0145867Y0088121D01*
X0146280Y0088785D02*
X0146591Y0088785D01*
X0146591Y0089484D02*
X0146306Y0089484D01*
X0146306Y0090182D02*
X0146591Y0090182D01*
X0146591Y0090881D02*
X0143354Y0090881D01*
X0143354Y0091579D02*
X0142654Y0091579D01*
X0142654Y0092278D02*
X0143354Y0092278D01*
X0143354Y0092976D02*
X0142654Y0092976D01*
X0142654Y0093675D02*
X0143354Y0093675D01*
X0143650Y0095663D02*
X0142600Y0095663D01*
X0142311Y0095740D01*
X0142052Y0095890D01*
X0141840Y0096102D01*
X0141690Y0096361D01*
X0141613Y0096650D01*
X0141613Y0100500D01*
X0143650Y0100500D01*
X0144050Y0100500D01*
X0144050Y0100900D01*
X0143650Y0100900D01*
X0143650Y0105737D01*
X0142600Y0105737D01*
X0142311Y0105660D01*
X0142052Y0105510D01*
X0141840Y0105298D01*
X0141690Y0105039D01*
X0141613Y0104750D01*
X0141613Y0100900D01*
X0143650Y0100900D01*
X0143650Y0100500D01*
X0143650Y0095663D01*
X0143650Y0095770D02*
X0144050Y0095770D01*
X0144050Y0095663D02*
X0145100Y0095663D01*
X0145389Y0095740D01*
X0145648Y0095890D01*
X0145860Y0096102D01*
X0146010Y0096361D01*
X0146087Y0096650D01*
X0146087Y0100500D01*
X0144050Y0100500D01*
X0144050Y0095663D01*
X0144050Y0096469D02*
X0143650Y0096469D01*
X0143650Y0097168D02*
X0144050Y0097168D01*
X0144050Y0097866D02*
X0143650Y0097866D01*
X0143650Y0098565D02*
X0144050Y0098565D01*
X0144050Y0099263D02*
X0143650Y0099263D01*
X0143650Y0099962D02*
X0144050Y0099962D01*
X0144050Y0100660D02*
X0146809Y0100660D01*
X0146809Y0099962D02*
X0146087Y0099962D01*
X0146087Y0099263D02*
X0146809Y0099263D01*
X0146809Y0098565D02*
X0146087Y0098565D01*
X0146087Y0097866D02*
X0146809Y0097866D01*
X0146809Y0097168D02*
X0146087Y0097168D01*
X0146039Y0096469D02*
X0146809Y0096469D01*
X0147109Y0095770D02*
X0145442Y0095770D01*
X0147109Y0095072D02*
X0140141Y0095072D01*
X0140141Y0095770D02*
X0142258Y0095770D01*
X0141661Y0096469D02*
X0140891Y0096469D01*
X0140891Y0097168D02*
X0141613Y0097168D01*
X0141613Y0097866D02*
X0140891Y0097866D01*
X0140891Y0098565D02*
X0141613Y0098565D01*
X0141613Y0099263D02*
X0140891Y0099263D01*
X0140891Y0099962D02*
X0141613Y0099962D01*
X0140891Y0100660D02*
X0143650Y0100660D01*
X0144050Y0100900D02*
X0144050Y0105737D01*
X0145100Y0105737D01*
X0145389Y0105660D01*
X0145648Y0105510D01*
X0145860Y0105298D01*
X0146010Y0105039D01*
X0146087Y0104750D01*
X0146087Y0100900D01*
X0144050Y0100900D01*
X0144050Y0101359D02*
X0143650Y0101359D01*
X0143650Y0102057D02*
X0144050Y0102057D01*
X0144050Y0102756D02*
X0143650Y0102756D01*
X0143650Y0103454D02*
X0144050Y0103454D01*
X0144050Y0104153D02*
X0143650Y0104153D01*
X0143650Y0104851D02*
X0144050Y0104851D01*
X0144050Y0105550D02*
X0143650Y0105550D01*
X0142120Y0105550D02*
X0066700Y0105550D01*
X0066700Y0105359D02*
X0066700Y0106059D01*
X0066000Y0106059D01*
X0066000Y0110971D01*
X0061811Y0110971D01*
X0060993Y0110841D01*
X0060205Y0110586D01*
X0059467Y0110209D01*
X0058797Y0109723D01*
X0058211Y0109137D01*
X0057724Y0108467D01*
X0057348Y0107729D01*
X0057092Y0106941D01*
X0056963Y0106123D01*
X0056963Y0106059D01*
X0066000Y0106059D01*
X0066000Y0105359D01*
X0056963Y0105359D01*
X0056963Y0105294D01*
X0057092Y0104476D01*
X0057348Y0103689D01*
X0057724Y0102951D01*
X0058211Y0102280D01*
X0058797Y0101695D01*
X0059467Y0101208D01*
X0060205Y0100832D01*
X0060993Y0100576D01*
X0061811Y0100446D01*
X0066000Y0100446D01*
X0066000Y0105359D01*
X0066700Y0105359D01*
X0075737Y0105359D01*
X0075737Y0105294D01*
X0075608Y0104476D01*
X0075352Y0103689D01*
X0074976Y0102951D01*
X0074489Y0102280D01*
X0073903Y0101695D01*
X0073233Y0101208D01*
X0072495Y0100832D01*
X0071707Y0100576D01*
X0070889Y0100446D01*
X0066700Y0100446D01*
X0066700Y0105359D01*
X0066700Y0104851D02*
X0066000Y0104851D01*
X0066000Y0104153D02*
X0066700Y0104153D01*
X0066700Y0103454D02*
X0066000Y0103454D01*
X0066000Y0102756D02*
X0066700Y0102756D01*
X0066700Y0102057D02*
X0066000Y0102057D01*
X0066000Y0101359D02*
X0066700Y0101359D01*
X0066700Y0100660D02*
X0066000Y0100660D01*
X0066000Y0105550D02*
X0027684Y0105550D01*
X0027684Y0106248D02*
X0056982Y0106248D01*
X0057094Y0106947D02*
X0027684Y0106947D01*
X0027684Y0107645D02*
X0057321Y0107645D01*
X0057661Y0108344D02*
X0027684Y0108344D01*
X0027684Y0109042D02*
X0058142Y0109042D01*
X0058822Y0109741D02*
X0027684Y0109741D01*
X0027684Y0110439D02*
X0059918Y0110439D01*
X0057033Y0104851D02*
X0027684Y0104851D01*
X0027684Y0104153D02*
X0057197Y0104153D01*
X0057468Y0103454D02*
X0027684Y0103454D01*
X0027684Y0102756D02*
X0057866Y0102756D01*
X0058434Y0102057D02*
X0027684Y0102057D01*
X0027684Y0101359D02*
X0059259Y0101359D01*
X0060733Y0100660D02*
X0027684Y0100660D01*
X0027684Y0099962D02*
X0136809Y0099962D01*
X0136809Y0100660D02*
X0071966Y0100660D01*
X0073441Y0101359D02*
X0136809Y0101359D01*
X0136809Y0102057D02*
X0074266Y0102057D01*
X0074834Y0102756D02*
X0136809Y0102756D01*
X0136809Y0103454D02*
X0075232Y0103454D01*
X0075503Y0104153D02*
X0136809Y0104153D01*
X0136809Y0104851D02*
X0075667Y0104851D01*
X0075737Y0106059D02*
X0075737Y0106123D01*
X0075608Y0106941D01*
X0075352Y0107729D01*
X0074976Y0108467D01*
X0074489Y0109137D01*
X0073903Y0109723D01*
X0073233Y0110209D01*
X0072495Y0110586D01*
X0071707Y0110841D01*
X0070889Y0110971D01*
X0066700Y0110971D01*
X0066700Y0106059D01*
X0075737Y0106059D01*
X0075718Y0106248D02*
X0147109Y0106248D01*
X0147109Y0105550D02*
X0145580Y0105550D01*
X0146060Y0104851D02*
X0146809Y0104851D01*
X0146809Y0104153D02*
X0146087Y0104153D01*
X0146087Y0103454D02*
X0146809Y0103454D01*
X0146809Y0102756D02*
X0146087Y0102756D01*
X0146087Y0102057D02*
X0146809Y0102057D01*
X0146809Y0101359D02*
X0146087Y0101359D01*
X0150891Y0101359D02*
X0151809Y0101359D01*
X0151809Y0102057D02*
X0150891Y0102057D01*
X0150891Y0102756D02*
X0151809Y0102756D01*
X0151809Y0103454D02*
X0150891Y0103454D01*
X0150891Y0104153D02*
X0151809Y0104153D01*
X0151809Y0104851D02*
X0150891Y0104851D01*
X0151758Y0106947D02*
X0225620Y0106947D01*
X0224562Y0107645D02*
X0211457Y0107645D01*
X0212155Y0108344D02*
X0223954Y0108344D01*
X0223556Y0109042D02*
X0212854Y0109042D01*
X0213552Y0109741D02*
X0223314Y0109741D01*
X0230000Y0109042D02*
X0230700Y0109042D01*
X0230700Y0108344D02*
X0230000Y0108344D01*
X0230000Y0107645D02*
X0230700Y0107645D01*
X0230700Y0106947D02*
X0230000Y0106947D01*
X0230000Y0111138D02*
X0230700Y0111138D01*
X0230700Y0111836D02*
X0230000Y0111836D01*
X0230000Y0112535D02*
X0230700Y0112535D01*
X0230700Y0113233D02*
X0230000Y0113233D01*
X0230000Y0113932D02*
X0230700Y0113932D01*
X0230700Y0114630D02*
X0230000Y0114630D01*
X0225062Y0117424D02*
X0221236Y0117424D01*
X0221934Y0118123D02*
X0224363Y0118123D01*
X0223867Y0118821D02*
X0222633Y0118821D01*
X0220504Y0121615D02*
X0169641Y0121615D01*
X0169641Y0120917D02*
X0219805Y0120917D01*
X0219107Y0120218D02*
X0169641Y0120218D01*
X0169641Y0119520D02*
X0218408Y0119520D01*
X0217710Y0118821D02*
X0169641Y0118821D01*
X0169641Y0118123D02*
X0217011Y0118123D01*
X0216313Y0117424D02*
X0169641Y0117424D01*
X0169641Y0116726D02*
X0215614Y0116726D01*
X0214916Y0116027D02*
X0169202Y0116027D01*
X0168504Y0115329D02*
X0214217Y0115329D01*
X0213519Y0114630D02*
X0167805Y0114630D01*
X0167107Y0113932D02*
X0212820Y0113932D01*
X0212122Y0113233D02*
X0166259Y0113233D01*
X0166259Y0112535D02*
X0211423Y0112535D01*
X0210725Y0111836D02*
X0165997Y0111836D01*
X0166004Y0114654D02*
X0163350Y0114654D01*
X0159004Y0114654D01*
X0157350Y0113000D01*
X0135350Y0113000D01*
X0133350Y0115000D01*
X0133350Y0126000D01*
X0138004Y0130654D01*
X0140350Y0130654D01*
X0139398Y0127744D02*
X0139320Y0127666D01*
X0139034Y0127238D01*
X0138837Y0126762D01*
X0138736Y0126257D01*
X0138736Y0126142D01*
X0141208Y0126142D01*
X0141208Y0125858D01*
X0138736Y0125858D01*
X0138736Y0125743D01*
X0138837Y0125238D01*
X0139034Y0124762D01*
X0139317Y0124337D01*
X0139050Y0124337D01*
X0139050Y0119500D01*
X0138650Y0119500D01*
X0138650Y0124337D01*
X0137600Y0124337D01*
X0137311Y0124260D01*
X0137052Y0124110D01*
X0136840Y0123898D01*
X0136690Y0123639D01*
X0136613Y0123350D01*
X0136613Y0119500D01*
X0138650Y0119500D01*
X0138650Y0119100D01*
X0136613Y0119100D01*
X0136613Y0115250D01*
X0136690Y0114961D01*
X0136840Y0114702D01*
X0137052Y0114490D01*
X0137311Y0114340D01*
X0137496Y0114291D01*
X0135885Y0114291D01*
X0134641Y0115535D01*
X0134641Y0125465D01*
X0137357Y0128182D01*
X0137795Y0127744D01*
X0139398Y0127744D01*
X0139019Y0127203D02*
X0136379Y0127203D01*
X0135680Y0126505D02*
X0138785Y0126505D01*
X0138736Y0125806D02*
X0134982Y0125806D01*
X0134641Y0125108D02*
X0138890Y0125108D01*
X0139269Y0124409D02*
X0134641Y0124409D01*
X0134641Y0123711D02*
X0136732Y0123711D01*
X0136613Y0123012D02*
X0134641Y0123012D01*
X0134641Y0122314D02*
X0136613Y0122314D01*
X0136613Y0121615D02*
X0134641Y0121615D01*
X0134641Y0120917D02*
X0136613Y0120917D01*
X0136613Y0120218D02*
X0134641Y0120218D01*
X0134641Y0119520D02*
X0136613Y0119520D01*
X0136613Y0118821D02*
X0134641Y0118821D01*
X0134641Y0118123D02*
X0136613Y0118123D01*
X0136613Y0117424D02*
X0134641Y0117424D01*
X0134641Y0116726D02*
X0136613Y0116726D01*
X0136613Y0116027D02*
X0134641Y0116027D01*
X0134846Y0115329D02*
X0136613Y0115329D01*
X0136911Y0114630D02*
X0135545Y0114630D01*
X0133990Y0112535D02*
X0027684Y0112535D01*
X0027684Y0113233D02*
X0133292Y0113233D01*
X0132593Y0113932D02*
X0027684Y0113932D01*
X0027684Y0114630D02*
X0132059Y0114630D01*
X0132059Y0115329D02*
X0027684Y0115329D01*
X0027684Y0116027D02*
X0132059Y0116027D01*
X0132059Y0116726D02*
X0027684Y0116726D01*
X0027684Y0117424D02*
X0132059Y0117424D01*
X0132059Y0118123D02*
X0027684Y0118123D01*
X0027684Y0118821D02*
X0132059Y0118821D01*
X0132059Y0119520D02*
X0027684Y0119520D01*
X0027684Y0120218D02*
X0132059Y0120218D01*
X0132059Y0120917D02*
X0072144Y0120917D01*
X0073546Y0121615D02*
X0132059Y0121615D01*
X0132059Y0122314D02*
X0074244Y0122314D01*
X0074841Y0123012D02*
X0132059Y0123012D01*
X0132059Y0123711D02*
X0075130Y0123711D01*
X0075049Y0127902D02*
X0096791Y0127902D01*
X0097489Y0128601D02*
X0074747Y0128601D01*
X0061029Y0130696D02*
X0027684Y0130696D01*
X0027684Y0129998D02*
X0059350Y0129998D01*
X0058652Y0129299D02*
X0027684Y0129299D01*
X0027684Y0128601D02*
X0057953Y0128601D01*
X0057651Y0127902D02*
X0027684Y0127902D01*
X0027684Y0127203D02*
X0057361Y0127203D01*
X0057159Y0126505D02*
X0027684Y0126505D01*
X0027684Y0125806D02*
X0057159Y0125806D01*
X0057159Y0125108D02*
X0027684Y0125108D01*
X0027684Y0124409D02*
X0057280Y0124409D01*
X0057570Y0123711D02*
X0027684Y0123711D01*
X0027684Y0123012D02*
X0057859Y0123012D01*
X0058456Y0122314D02*
X0027684Y0122314D01*
X0027684Y0121615D02*
X0059154Y0121615D01*
X0060556Y0120917D02*
X0027684Y0120917D01*
X0027684Y0111836D02*
X0134689Y0111836D01*
X0140789Y0114630D02*
X0142190Y0114630D01*
X0141809Y0115329D02*
X0141087Y0115329D01*
X0141087Y0116027D02*
X0141809Y0116027D01*
X0141809Y0116726D02*
X0141087Y0116726D01*
X0141087Y0117424D02*
X0141809Y0117424D01*
X0141809Y0118123D02*
X0141087Y0118123D01*
X0141087Y0118821D02*
X0141809Y0118821D01*
X0141809Y0119520D02*
X0141087Y0119520D01*
X0141087Y0120218D02*
X0141809Y0120218D01*
X0141809Y0120917D02*
X0141087Y0120917D01*
X0141087Y0121615D02*
X0141809Y0121615D01*
X0141809Y0122314D02*
X0141087Y0122314D01*
X0141087Y0123012D02*
X0141809Y0123012D01*
X0141492Y0123711D02*
X0141208Y0123711D01*
X0141208Y0124409D02*
X0141492Y0124409D01*
X0141492Y0125108D02*
X0141208Y0125108D01*
X0141208Y0125806D02*
X0141492Y0125806D01*
X0143431Y0124409D02*
X0144414Y0124409D01*
X0144414Y0125108D02*
X0143810Y0125108D01*
X0143964Y0125806D02*
X0144414Y0125806D01*
X0144414Y0126505D02*
X0143915Y0126505D01*
X0143681Y0127203D02*
X0144414Y0127203D01*
X0144414Y0127902D02*
X0143144Y0127902D01*
X0143456Y0128601D02*
X0144414Y0128601D01*
X0144414Y0129299D02*
X0143456Y0129299D01*
X0143456Y0129998D02*
X0144414Y0129998D01*
X0144414Y0130696D02*
X0143456Y0130696D01*
X0143456Y0131395D02*
X0144414Y0131395D01*
X0144414Y0132093D02*
X0143456Y0132093D01*
X0143456Y0132792D02*
X0144414Y0132792D01*
X0144414Y0133490D02*
X0142977Y0133490D01*
X0143355Y0134887D02*
X0143992Y0134887D01*
X0144414Y0134189D02*
X0108000Y0134189D01*
X0108091Y0134887D02*
X0137345Y0134887D01*
X0137244Y0135586D02*
X0108091Y0135586D01*
X0108091Y0136284D02*
X0137244Y0136284D01*
X0137244Y0136983D02*
X0108091Y0136983D01*
X0108091Y0137681D02*
X0137244Y0137681D01*
X0137244Y0138380D02*
X0108091Y0138380D01*
X0108091Y0139078D02*
X0137244Y0139078D01*
X0137316Y0139777D02*
X0108091Y0139777D01*
X0108091Y0140475D02*
X0144414Y0140475D01*
X0144414Y0139777D02*
X0143384Y0139777D01*
X0143456Y0139078D02*
X0144414Y0139078D01*
X0144414Y0138380D02*
X0144150Y0138380D01*
X0143358Y0137346D02*
X0145705Y0135000D01*
X0145705Y0148000D01*
X0144007Y0149697D01*
X0144007Y0164591D01*
X0140510Y0166320D02*
X0136600Y0166320D01*
X0136403Y0166796D02*
X0135307Y0167891D01*
X0133876Y0168484D01*
X0132328Y0168484D01*
X0130897Y0167891D01*
X0129801Y0166796D01*
X0129209Y0165365D01*
X0129209Y0163816D01*
X0129801Y0162385D01*
X0130897Y0161290D01*
X0132328Y0160697D01*
X0133876Y0160697D01*
X0135307Y0161290D01*
X0136403Y0162385D01*
X0136995Y0163816D01*
X0136995Y0165365D01*
X0136403Y0166796D01*
X0136180Y0167019D02*
X0140930Y0167019D01*
X0141628Y0167717D02*
X0135481Y0167717D01*
X0134041Y0168416D02*
X0143068Y0168416D01*
X0144947Y0168416D02*
X0153449Y0168416D01*
X0153343Y0168381D02*
X0152769Y0168089D01*
X0152248Y0167710D01*
X0151793Y0167255D01*
X0151415Y0166734D01*
X0151122Y0166161D01*
X0150924Y0165548D01*
X0150827Y0164941D01*
X0154563Y0164941D01*
X0154563Y0168676D01*
X0153955Y0168580D01*
X0153343Y0168381D01*
X0154563Y0168416D02*
X0155263Y0168416D01*
X0155263Y0168676D02*
X0155871Y0168580D01*
X0156483Y0168381D01*
X0157057Y0168089D01*
X0157578Y0167710D01*
X0158033Y0167255D01*
X0158411Y0166734D01*
X0158703Y0166161D01*
X0158902Y0165548D01*
X0158999Y0164941D01*
X0155263Y0164941D01*
X0154563Y0164941D01*
X0154563Y0164241D01*
X0150827Y0164241D01*
X0150924Y0163633D01*
X0151122Y0163020D01*
X0151415Y0162447D01*
X0151793Y0161926D01*
X0152248Y0161471D01*
X0152769Y0161092D01*
X0153343Y0160800D01*
X0153955Y0160601D01*
X0154563Y0160505D01*
X0154563Y0164240D01*
X0155263Y0164240D01*
X0155263Y0160505D01*
X0155871Y0160601D01*
X0156483Y0160800D01*
X0157057Y0161092D01*
X0157578Y0161471D01*
X0158033Y0161926D01*
X0158411Y0162447D01*
X0158703Y0163020D01*
X0158902Y0163633D01*
X0158999Y0164241D01*
X0155263Y0164241D01*
X0155263Y0164941D01*
X0155263Y0168676D01*
X0155263Y0167717D02*
X0154563Y0167717D01*
X0154563Y0167019D02*
X0155263Y0167019D01*
X0155263Y0166320D02*
X0154563Y0166320D01*
X0154563Y0165622D02*
X0155263Y0165622D01*
X0155263Y0164923D02*
X0179171Y0164923D01*
X0178767Y0164225D02*
X0158996Y0164225D01*
X0158868Y0163526D02*
X0178364Y0163526D01*
X0178017Y0162828D02*
X0158605Y0162828D01*
X0158180Y0162129D02*
X0177830Y0162129D01*
X0177643Y0161431D02*
X0157522Y0161431D01*
X0156274Y0160732D02*
X0177456Y0160732D01*
X0177358Y0160034D02*
X0145298Y0160034D01*
X0145298Y0160732D02*
X0153552Y0160732D01*
X0154563Y0160732D02*
X0155263Y0160732D01*
X0155263Y0161431D02*
X0154563Y0161431D01*
X0154563Y0162129D02*
X0155263Y0162129D01*
X0155263Y0162828D02*
X0154563Y0162828D01*
X0154563Y0163526D02*
X0155263Y0163526D01*
X0155263Y0164225D02*
X0154563Y0164225D01*
X0154563Y0164923D02*
X0147901Y0164923D01*
X0147901Y0164225D02*
X0150830Y0164225D01*
X0150958Y0163526D02*
X0147781Y0163526D01*
X0147491Y0162828D02*
X0151221Y0162828D01*
X0151646Y0162129D02*
X0147052Y0162129D01*
X0146353Y0161431D02*
X0152304Y0161431D01*
X0150947Y0165622D02*
X0147794Y0165622D01*
X0147505Y0166320D02*
X0151204Y0166320D01*
X0151621Y0167019D02*
X0147085Y0167019D01*
X0146387Y0167717D02*
X0152258Y0167717D01*
X0156377Y0168416D02*
X0183277Y0168416D01*
X0182067Y0167717D02*
X0157568Y0167717D01*
X0158205Y0167019D02*
X0181073Y0167019D01*
X0180375Y0166320D02*
X0158622Y0166320D01*
X0158879Y0165622D02*
X0179676Y0165622D01*
X0185353Y0169114D02*
X0091757Y0169114D01*
X0093832Y0168416D02*
X0121257Y0168416D01*
X0119817Y0167717D02*
X0095042Y0167717D01*
X0096036Y0167019D02*
X0119119Y0167019D01*
X0115209Y0166320D02*
X0096734Y0166320D01*
X0097433Y0165622D02*
X0114510Y0165622D01*
X0113812Y0164923D02*
X0097939Y0164923D01*
X0098342Y0164225D02*
X0113113Y0164225D01*
X0112415Y0163526D02*
X0098745Y0163526D01*
X0099092Y0162828D02*
X0111716Y0162828D01*
X0111018Y0162129D02*
X0099279Y0162129D01*
X0099466Y0161431D02*
X0110319Y0161431D01*
X0109621Y0160732D02*
X0099654Y0160732D01*
X0099751Y0160034D02*
X0108922Y0160034D01*
X0108224Y0159335D02*
X0099751Y0159335D01*
X0099751Y0158637D02*
X0107525Y0158637D01*
X0106826Y0157938D02*
X0099751Y0157938D01*
X0099646Y0157239D02*
X0106128Y0157239D01*
X0105429Y0156541D02*
X0099459Y0156541D01*
X0099272Y0155842D02*
X0104731Y0155842D01*
X0104609Y0155144D02*
X0099084Y0155144D01*
X0098729Y0154445D02*
X0104609Y0154445D01*
X0104609Y0153747D02*
X0098326Y0153747D01*
X0097922Y0153048D02*
X0104609Y0153048D01*
X0104609Y0152350D02*
X0097405Y0152350D01*
X0096706Y0151651D02*
X0104609Y0151651D01*
X0104609Y0150953D02*
X0096007Y0150953D01*
X0094993Y0150254D02*
X0104609Y0150254D01*
X0104609Y0149556D02*
X0093783Y0149556D01*
X0091650Y0148857D02*
X0104609Y0148857D01*
X0108091Y0148857D02*
X0143022Y0148857D01*
X0142717Y0149556D02*
X0139931Y0149556D01*
X0140125Y0149619D02*
X0140698Y0149911D01*
X0141219Y0150290D01*
X0141675Y0150745D01*
X0142053Y0151266D01*
X0142345Y0151839D01*
X0142544Y0152452D01*
X0142640Y0153059D01*
X0138905Y0153059D01*
X0138905Y0149324D01*
X0139513Y0149420D01*
X0140125Y0149619D01*
X0138905Y0149556D02*
X0138205Y0149556D01*
X0138205Y0149324D02*
X0138205Y0153059D01*
X0138905Y0153059D01*
X0138905Y0153759D01*
X0142640Y0153759D01*
X0142544Y0154367D01*
X0142345Y0154980D01*
X0142053Y0155553D01*
X0141675Y0156074D01*
X0141219Y0156529D01*
X0140698Y0156908D01*
X0140125Y0157200D01*
X0139513Y0157399D01*
X0138905Y0157495D01*
X0138905Y0153759D01*
X0138205Y0153759D01*
X0138205Y0153059D01*
X0134469Y0153059D01*
X0134565Y0152452D01*
X0134764Y0151839D01*
X0135057Y0151266D01*
X0135435Y0150745D01*
X0135890Y0150290D01*
X0136411Y0149911D01*
X0136985Y0149619D01*
X0137597Y0149420D01*
X0138205Y0149324D01*
X0138205Y0150254D02*
X0138905Y0150254D01*
X0138905Y0150953D02*
X0138205Y0150953D01*
X0138205Y0151651D02*
X0138905Y0151651D01*
X0138905Y0152350D02*
X0138205Y0152350D01*
X0138205Y0153048D02*
X0138905Y0153048D01*
X0138905Y0153747D02*
X0142717Y0153747D01*
X0142717Y0154445D02*
X0142519Y0154445D01*
X0142717Y0155144D02*
X0142261Y0155144D01*
X0141843Y0155842D02*
X0142717Y0155842D01*
X0142717Y0156541D02*
X0141203Y0156541D01*
X0140003Y0157239D02*
X0142717Y0157239D01*
X0142717Y0157938D02*
X0111749Y0157938D01*
X0111051Y0157239D02*
X0115817Y0157239D01*
X0115969Y0157303D02*
X0114538Y0156710D01*
X0113443Y0155615D01*
X0112850Y0154184D01*
X0112850Y0152635D01*
X0113443Y0151204D01*
X0114538Y0150109D01*
X0115969Y0149516D01*
X0117518Y0149516D01*
X0118949Y0150109D01*
X0120044Y0151204D01*
X0120637Y0152635D01*
X0120637Y0154184D01*
X0120044Y0155615D01*
X0118949Y0156710D01*
X0117518Y0157303D01*
X0115969Y0157303D01*
X0117671Y0157239D02*
X0126722Y0157239D01*
X0126875Y0157303D02*
X0125444Y0156710D01*
X0124349Y0155615D01*
X0123756Y0154184D01*
X0123756Y0152635D01*
X0124349Y0151204D01*
X0125444Y0150109D01*
X0126875Y0149516D01*
X0128424Y0149516D01*
X0129855Y0150109D01*
X0130950Y0151204D01*
X0131543Y0152635D01*
X0131543Y0154184D01*
X0130950Y0155615D01*
X0129855Y0156710D01*
X0128424Y0157303D01*
X0126875Y0157303D01*
X0128576Y0157239D02*
X0137106Y0157239D01*
X0136985Y0157200D02*
X0136411Y0156908D01*
X0135890Y0156529D01*
X0135435Y0156074D01*
X0135057Y0155553D01*
X0134764Y0154980D01*
X0134565Y0154367D01*
X0134469Y0153759D01*
X0138205Y0153759D01*
X0138205Y0157495D01*
X0137597Y0157399D01*
X0136985Y0157200D01*
X0138205Y0157239D02*
X0138905Y0157239D01*
X0138905Y0156541D02*
X0138205Y0156541D01*
X0138205Y0155842D02*
X0138905Y0155842D01*
X0138905Y0155144D02*
X0138205Y0155144D01*
X0138205Y0154445D02*
X0138905Y0154445D01*
X0138205Y0153747D02*
X0131543Y0153747D01*
X0131543Y0153048D02*
X0134471Y0153048D01*
X0134598Y0152350D02*
X0131424Y0152350D01*
X0131135Y0151651D02*
X0134860Y0151651D01*
X0135284Y0150953D02*
X0130699Y0150953D01*
X0130000Y0150254D02*
X0135939Y0150254D01*
X0137179Y0149556D02*
X0128520Y0149556D01*
X0126779Y0149556D02*
X0117614Y0149556D01*
X0119095Y0150254D02*
X0125298Y0150254D01*
X0124600Y0150953D02*
X0119793Y0150953D01*
X0120230Y0151651D02*
X0124163Y0151651D01*
X0123874Y0152350D02*
X0120519Y0152350D01*
X0120637Y0153048D02*
X0123756Y0153048D01*
X0123756Y0153747D02*
X0120637Y0153747D01*
X0120529Y0154445D02*
X0123864Y0154445D01*
X0124154Y0155144D02*
X0120239Y0155144D01*
X0119817Y0155842D02*
X0124576Y0155842D01*
X0125275Y0156541D02*
X0119118Y0156541D01*
X0114369Y0156541D02*
X0110352Y0156541D01*
X0109654Y0155842D02*
X0113671Y0155842D01*
X0113248Y0155144D02*
X0108955Y0155144D01*
X0108257Y0154445D02*
X0112959Y0154445D01*
X0112850Y0153747D02*
X0108091Y0153747D01*
X0108091Y0153048D02*
X0112850Y0153048D01*
X0112968Y0152350D02*
X0108091Y0152350D01*
X0108091Y0151651D02*
X0113258Y0151651D01*
X0113694Y0150953D02*
X0108091Y0150953D01*
X0108091Y0150254D02*
X0114393Y0150254D01*
X0115873Y0149556D02*
X0108091Y0149556D01*
X0108091Y0148159D02*
X0143721Y0148159D01*
X0144414Y0147460D02*
X0108091Y0147460D01*
X0108091Y0146762D02*
X0144414Y0146762D01*
X0144414Y0146063D02*
X0108091Y0146063D01*
X0108091Y0145365D02*
X0144414Y0145365D01*
X0144414Y0144666D02*
X0108091Y0144666D01*
X0108091Y0143968D02*
X0144414Y0143968D01*
X0144414Y0143269D02*
X0108091Y0143269D01*
X0108091Y0142571D02*
X0144414Y0142571D01*
X0144414Y0141872D02*
X0108091Y0141872D01*
X0108091Y0141174D02*
X0144414Y0141174D01*
X0143358Y0137346D02*
X0140350Y0137346D01*
X0137723Y0133490D02*
X0107302Y0133490D01*
X0106603Y0132792D02*
X0137244Y0132792D01*
X0137244Y0132093D02*
X0105905Y0132093D01*
X0105206Y0131395D02*
X0136919Y0131395D01*
X0136221Y0130696D02*
X0104508Y0130696D01*
X0103809Y0129998D02*
X0135522Y0129998D01*
X0134824Y0129299D02*
X0103111Y0129299D01*
X0102412Y0128601D02*
X0134125Y0128601D01*
X0133427Y0127902D02*
X0101714Y0127902D01*
X0101015Y0127203D02*
X0132728Y0127203D01*
X0132059Y0126505D02*
X0100316Y0126505D01*
X0099618Y0125806D02*
X0132059Y0125806D01*
X0132059Y0125108D02*
X0098919Y0125108D01*
X0098221Y0124409D02*
X0132059Y0124409D01*
X0137077Y0127902D02*
X0137638Y0127902D01*
X0138650Y0123711D02*
X0139050Y0123711D01*
X0139050Y0123012D02*
X0138650Y0123012D01*
X0138650Y0122314D02*
X0139050Y0122314D01*
X0139050Y0121615D02*
X0138650Y0121615D01*
X0138650Y0120917D02*
X0139050Y0120917D01*
X0139050Y0120218D02*
X0138650Y0120218D01*
X0138650Y0119520D02*
X0139050Y0119520D01*
X0143850Y0119300D02*
X0145705Y0121155D01*
X0145705Y0135000D01*
X0146995Y0135000D02*
X0149342Y0137346D01*
X0152350Y0137346D01*
X0149244Y0139078D02*
X0148286Y0139078D01*
X0148286Y0138380D02*
X0148550Y0138380D01*
X0148286Y0139777D02*
X0149316Y0139777D01*
X0149345Y0134887D02*
X0148707Y0134887D01*
X0146995Y0135000D02*
X0146995Y0148000D01*
X0149460Y0150465D01*
X0149460Y0153409D01*
X0145965Y0155144D02*
X0145298Y0155144D01*
X0145298Y0155842D02*
X0146387Y0155842D01*
X0147086Y0156541D02*
X0145298Y0156541D01*
X0145298Y0157239D02*
X0148533Y0157239D01*
X0150387Y0157239D02*
X0159439Y0157239D01*
X0159591Y0157303D02*
X0158160Y0156710D01*
X0157065Y0155615D01*
X0156472Y0154184D01*
X0156472Y0152635D01*
X0157065Y0151204D01*
X0158160Y0150109D01*
X0159591Y0149516D01*
X0161140Y0149516D01*
X0162571Y0150109D01*
X0163666Y0151204D01*
X0164259Y0152635D01*
X0164259Y0154184D01*
X0163666Y0155615D01*
X0162571Y0156710D01*
X0161140Y0157303D01*
X0159591Y0157303D01*
X0161293Y0157239D02*
X0177463Y0157239D01*
X0177358Y0157938D02*
X0145298Y0157938D01*
X0145298Y0158637D02*
X0177358Y0158637D01*
X0177358Y0159335D02*
X0145298Y0159335D01*
X0142717Y0159335D02*
X0113147Y0159335D01*
X0113845Y0160034D02*
X0142717Y0160034D01*
X0142717Y0160732D02*
X0133960Y0160732D01*
X0135448Y0161431D02*
X0141662Y0161431D01*
X0140963Y0162129D02*
X0136146Y0162129D01*
X0136586Y0162828D02*
X0140524Y0162828D01*
X0140234Y0163526D02*
X0136875Y0163526D01*
X0136995Y0164225D02*
X0140114Y0164225D01*
X0140114Y0164923D02*
X0136995Y0164923D01*
X0136889Y0165622D02*
X0140220Y0165622D01*
X0142717Y0158637D02*
X0112448Y0158637D01*
X0114544Y0160732D02*
X0121338Y0160732D01*
X0119850Y0161431D02*
X0115242Y0161431D01*
X0115941Y0162129D02*
X0119152Y0162129D01*
X0118713Y0162828D02*
X0116639Y0162828D01*
X0123055Y0160732D02*
X0132244Y0160732D01*
X0130756Y0161431D02*
X0124542Y0161431D01*
X0125241Y0162129D02*
X0130057Y0162129D01*
X0129618Y0162828D02*
X0125680Y0162828D01*
X0125970Y0163526D02*
X0129329Y0163526D01*
X0129209Y0164225D02*
X0126090Y0164225D01*
X0126090Y0164923D02*
X0129209Y0164923D01*
X0129315Y0165622D02*
X0125983Y0165622D01*
X0125694Y0166320D02*
X0129604Y0166320D01*
X0130024Y0167019D02*
X0125274Y0167019D01*
X0124576Y0167717D02*
X0130723Y0167717D01*
X0132163Y0168416D02*
X0123135Y0168416D01*
X0130024Y0156541D02*
X0135906Y0156541D01*
X0135267Y0155842D02*
X0130722Y0155842D01*
X0131145Y0155144D02*
X0134848Y0155144D01*
X0134591Y0154445D02*
X0131434Y0154445D01*
X0141171Y0150254D02*
X0142717Y0150254D01*
X0142717Y0150953D02*
X0141826Y0150953D01*
X0142249Y0151651D02*
X0142717Y0151651D01*
X0142717Y0152350D02*
X0142511Y0152350D01*
X0142639Y0153048D02*
X0142717Y0153048D01*
X0145298Y0153048D02*
X0145567Y0153048D01*
X0145567Y0153747D02*
X0145298Y0153747D01*
X0145298Y0154445D02*
X0145675Y0154445D01*
X0145685Y0152350D02*
X0145298Y0152350D01*
X0145298Y0151651D02*
X0145974Y0151651D01*
X0146411Y0150953D02*
X0145298Y0150953D01*
X0145298Y0150254D02*
X0147109Y0150254D01*
X0146726Y0149556D02*
X0145974Y0149556D01*
X0149678Y0148857D02*
X0185459Y0148857D01*
X0183327Y0149556D02*
X0161236Y0149556D01*
X0162717Y0150254D02*
X0182117Y0150254D01*
X0181102Y0150953D02*
X0163415Y0150953D01*
X0163852Y0151651D02*
X0180403Y0151651D01*
X0179705Y0152350D02*
X0164141Y0152350D01*
X0164259Y0153048D02*
X0179187Y0153048D01*
X0178784Y0153747D02*
X0164259Y0153747D01*
X0164151Y0154445D02*
X0178381Y0154445D01*
X0178025Y0155144D02*
X0163861Y0155144D01*
X0163439Y0155842D02*
X0177838Y0155842D01*
X0177651Y0156541D02*
X0162740Y0156541D01*
X0157991Y0156541D02*
X0151835Y0156541D01*
X0152533Y0155842D02*
X0157293Y0155842D01*
X0156870Y0155144D02*
X0152956Y0155144D01*
X0153245Y0154445D02*
X0156581Y0154445D01*
X0156472Y0153747D02*
X0153354Y0153747D01*
X0153354Y0153048D02*
X0156472Y0153048D01*
X0156591Y0152350D02*
X0153235Y0152350D01*
X0152946Y0151651D02*
X0156880Y0151651D01*
X0157316Y0150953D02*
X0152510Y0150953D01*
X0151811Y0150254D02*
X0158015Y0150254D01*
X0159495Y0149556D02*
X0150376Y0149556D01*
X0146995Y0135000D02*
X0146995Y0121155D01*
X0148850Y0119300D01*
X0146805Y0119520D02*
X0145895Y0119520D01*
X0145891Y0118821D02*
X0146809Y0118821D01*
X0146809Y0118123D02*
X0145891Y0118123D01*
X0145891Y0117424D02*
X0146809Y0117424D01*
X0146809Y0116726D02*
X0145891Y0116726D01*
X0145891Y0116027D02*
X0146809Y0116027D01*
X0146809Y0115329D02*
X0145891Y0115329D01*
X0145510Y0114630D02*
X0147190Y0114630D01*
X0150328Y0110439D02*
X0072782Y0110439D01*
X0073878Y0109741D02*
X0149629Y0109741D01*
X0148931Y0109042D02*
X0074558Y0109042D01*
X0075039Y0108344D02*
X0148232Y0108344D01*
X0147534Y0107645D02*
X0075379Y0107645D01*
X0075606Y0106947D02*
X0147109Y0106947D01*
X0141640Y0104851D02*
X0140891Y0104851D01*
X0140891Y0104153D02*
X0141613Y0104153D01*
X0141613Y0103454D02*
X0140891Y0103454D01*
X0140891Y0102756D02*
X0141613Y0102756D01*
X0141613Y0102057D02*
X0140891Y0102057D01*
X0140891Y0101359D02*
X0141613Y0101359D01*
X0138850Y0100700D02*
X0138850Y0072500D01*
X0141350Y0070000D01*
X0137559Y0074117D02*
X0027684Y0074117D01*
X0027684Y0074815D02*
X0137559Y0074815D01*
X0137559Y0075514D02*
X0027684Y0075514D01*
X0027684Y0076212D02*
X0137559Y0076212D01*
X0137559Y0076911D02*
X0027684Y0076911D01*
X0027684Y0077609D02*
X0137559Y0077609D01*
X0137559Y0078308D02*
X0027684Y0078308D01*
X0027684Y0079006D02*
X0137559Y0079006D01*
X0137559Y0079705D02*
X0027684Y0079705D01*
X0027684Y0080403D02*
X0137559Y0080403D01*
X0137559Y0081102D02*
X0027684Y0081102D01*
X0027684Y0081800D02*
X0137559Y0081800D01*
X0137559Y0082499D02*
X0027684Y0082499D01*
X0027684Y0083197D02*
X0137559Y0083197D01*
X0137559Y0083896D02*
X0027684Y0083896D01*
X0027684Y0084594D02*
X0137559Y0084594D01*
X0137559Y0085293D02*
X0027684Y0085293D01*
X0027684Y0085991D02*
X0137559Y0085991D01*
X0137559Y0086690D02*
X0027684Y0086690D01*
X0027684Y0087388D02*
X0137559Y0087388D01*
X0137559Y0088087D02*
X0027684Y0088087D01*
X0027684Y0088785D02*
X0137559Y0088785D01*
X0137559Y0089484D02*
X0027684Y0089484D01*
X0027684Y0090182D02*
X0137559Y0090182D01*
X0137559Y0090881D02*
X0027684Y0090881D01*
X0027684Y0091579D02*
X0137559Y0091579D01*
X0137559Y0092278D02*
X0027684Y0092278D01*
X0027684Y0092976D02*
X0137559Y0092976D01*
X0137559Y0093675D02*
X0027684Y0093675D01*
X0027684Y0094373D02*
X0137559Y0094373D01*
X0137559Y0095072D02*
X0027684Y0095072D01*
X0027684Y0095770D02*
X0137559Y0095770D01*
X0136809Y0096469D02*
X0027684Y0096469D01*
X0027684Y0097168D02*
X0136809Y0097168D01*
X0136809Y0097866D02*
X0027684Y0097866D01*
X0027684Y0098565D02*
X0136809Y0098565D01*
X0136809Y0099263D02*
X0027684Y0099263D01*
X0027684Y0111138D02*
X0210026Y0111138D01*
X0221202Y0122314D02*
X0169641Y0122314D01*
X0169641Y0123012D02*
X0224081Y0123012D01*
X0224780Y0123711D02*
X0169641Y0123711D01*
X0169641Y0124409D02*
X0225987Y0124409D01*
X0249425Y0132792D02*
X0155456Y0132792D01*
X0154977Y0133490D02*
X0249425Y0133490D01*
X0249425Y0155144D02*
X0237222Y0155144D01*
X0237661Y0155842D02*
X0249425Y0155842D01*
X0249425Y0156541D02*
X0237920Y0156541D01*
X0237920Y0157239D02*
X0249425Y0157239D01*
X0249425Y0157938D02*
X0237791Y0157938D01*
X0237502Y0158637D02*
X0249425Y0158637D01*
X0249425Y0159335D02*
X0236838Y0159335D01*
X0249425Y0160034D02*
X0198137Y0160034D01*
X0198039Y0160732D02*
X0249425Y0160732D01*
X0249425Y0161431D02*
X0197852Y0161431D01*
X0197665Y0162129D02*
X0249425Y0162129D01*
X0249425Y0162828D02*
X0197478Y0162828D01*
X0197131Y0163526D02*
X0249425Y0163526D01*
X0168350Y0128000D02*
X0168350Y0117000D01*
X0166004Y0114654D01*
X0166043Y0117424D02*
X0166949Y0117424D01*
X0163350Y0121346D02*
X0155896Y0121346D01*
X0153850Y0119300D01*
X0155895Y0119520D02*
X0160441Y0119520D01*
X0160441Y0123012D02*
X0155891Y0123012D01*
X0155769Y0123711D02*
X0160441Y0123711D01*
X0160949Y0124409D02*
X0153431Y0124409D01*
X0151492Y0125108D02*
X0151208Y0125108D01*
X0151208Y0125806D02*
X0151492Y0125806D01*
X0152350Y0130654D02*
X0165696Y0130654D01*
X0168350Y0128000D01*
X0160441Y0113233D02*
X0159408Y0113233D01*
X0158710Y0112535D02*
X0160441Y0112535D01*
X0160703Y0111836D02*
X0158011Y0111836D01*
X0153850Y0100700D02*
X0153850Y0072500D01*
X0155291Y0054558D02*
X0219268Y0054558D01*
X0219052Y0053860D02*
X0155291Y0053860D01*
X0155291Y0053161D02*
X0218844Y0053161D01*
X0218844Y0052463D02*
X0155291Y0052463D01*
X0155291Y0051764D02*
X0218844Y0051764D01*
X0218844Y0051066D02*
X0155228Y0051066D01*
X0154939Y0050367D02*
X0218844Y0050367D01*
X0218844Y0049669D02*
X0154592Y0049669D01*
X0153893Y0048970D02*
X0218844Y0048970D01*
X0218856Y0048272D02*
X0152646Y0048272D01*
X0150054Y0048272D02*
X0142646Y0048272D01*
X0143893Y0048970D02*
X0148807Y0048970D01*
X0148108Y0049669D02*
X0144592Y0049669D01*
X0144939Y0050367D02*
X0147761Y0050367D01*
X0147472Y0051066D02*
X0145228Y0051066D01*
X0145291Y0051764D02*
X0147409Y0051764D01*
X0147409Y0052463D02*
X0145291Y0052463D01*
X0145291Y0053161D02*
X0147409Y0053161D01*
X0147409Y0053860D02*
X0145291Y0053860D01*
X0145291Y0054558D02*
X0147409Y0054558D01*
X0143354Y0088087D02*
X0142654Y0088087D01*
X0142654Y0088785D02*
X0143354Y0088785D01*
X0143354Y0089484D02*
X0142654Y0089484D01*
X0142654Y0090182D02*
X0143354Y0090182D01*
X0146306Y0091579D02*
X0146591Y0091579D01*
X0146591Y0092278D02*
X0146306Y0092278D01*
X0146306Y0092976D02*
X0146591Y0092976D01*
X0146907Y0093675D02*
X0146071Y0093675D01*
X0147109Y0094373D02*
X0140141Y0094373D01*
X0140141Y0088087D02*
X0140200Y0088087D01*
X0150591Y0094373D02*
X0152559Y0094373D01*
X0152559Y0093675D02*
X0152485Y0093675D01*
X0152559Y0095072D02*
X0150591Y0095072D01*
X0150591Y0095770D02*
X0152559Y0095770D01*
X0151809Y0096469D02*
X0150891Y0096469D01*
X0150891Y0097168D02*
X0151809Y0097168D01*
X0151809Y0097866D02*
X0150891Y0097866D01*
X0150891Y0098565D02*
X0151809Y0098565D01*
X0151809Y0099263D02*
X0150891Y0099263D01*
X0150891Y0099962D02*
X0151809Y0099962D01*
X0151809Y0100660D02*
X0150891Y0100660D01*
X0066700Y0106248D02*
X0066000Y0106248D01*
X0066000Y0106947D02*
X0066700Y0106947D01*
X0066700Y0107645D02*
X0066000Y0107645D01*
X0066000Y0108344D02*
X0066700Y0108344D01*
X0066700Y0109042D02*
X0066000Y0109042D01*
X0066000Y0109741D02*
X0066700Y0109741D01*
X0066700Y0110439D02*
X0066000Y0110439D01*
X0037810Y0066433D02*
X0027684Y0066433D01*
X0027684Y0065734D02*
X0036030Y0065734D01*
X0034250Y0065036D02*
X0027684Y0065036D01*
X0027684Y0064337D02*
X0033208Y0064337D01*
X0032332Y0063639D02*
X0027684Y0063639D01*
X0027684Y0062940D02*
X0031456Y0062940D01*
X0030580Y0062242D02*
X0027684Y0062242D01*
X0027684Y0061543D02*
X0029891Y0061543D01*
X0030113Y0061869D02*
X0030113Y0061869D01*
X0029415Y0060845D02*
X0027684Y0060845D01*
X0027684Y0060146D02*
X0028938Y0060146D01*
X0028462Y0059448D02*
X0027684Y0059448D01*
X0027684Y0058749D02*
X0027986Y0058749D01*
X0027684Y0164923D02*
X0037966Y0164923D01*
X0036186Y0165622D02*
X0027684Y0165622D01*
X0027684Y0166320D02*
X0034406Y0166320D01*
X0033285Y0167019D02*
X0027684Y0167019D01*
X0027684Y0167717D02*
X0032409Y0167717D01*
X0031533Y0168416D02*
X0027684Y0168416D01*
X0027684Y0169114D02*
X0030657Y0169114D01*
X0029932Y0169813D02*
X0027684Y0169813D01*
X0027684Y0170511D02*
X0029456Y0170511D01*
X0028980Y0171210D02*
X0027684Y0171210D01*
X0027684Y0171908D02*
X0028504Y0171908D01*
X0028028Y0172607D02*
X0027684Y0172607D01*
D20*
X0141350Y0126000D03*
X0151350Y0126000D03*
D21*
X0151350Y0109000D02*
X0210350Y0109000D01*
X0222059Y0120709D01*
X0230350Y0120709D01*
X0151350Y0109000D02*
X0148850Y0106500D01*
X0148850Y0100700D01*
X0148850Y0091000D01*
X0149696Y0091000D01*
X0106350Y0135000D02*
X0097059Y0125709D01*
X0066350Y0125709D01*
X0106350Y0135000D02*
X0106350Y0155000D01*
X0115941Y0164591D01*
X0122196Y0164591D01*
M02*
