%
M48
M72
T01C0.01378
T02C0.01969
T03C0.02362
T04C0.03600
T05C0.04000
T06C0.05500
T07C0.06299
T08C0.09000
T09C0.11811
%
T01
X121800Y186800
X126800Y191800
X136300Y205800
X139800Y210300
X145800Y232800
X124300Y256800
X129300Y261800
X129300Y272300
X151800Y287800
X151800Y297300
X139300Y300300
X134300Y302800
X166800Y304300
X171800Y302800
X181300Y303800
X198300Y306300
X224800Y292300
X233300Y297300
X271454Y271300
X270954Y261800
X270954Y251800
X270954Y241800
X254300Y236800
X254300Y246800
X254300Y256800
X233300Y249300
X230300Y236800
X233300Y231300
X239300Y227800
X244300Y225800
X227300Y219800
X224300Y215300
X259300Y201800
X270550Y224300
X279300Y224300
X288050Y224300
X296800Y224300
X274300Y161800
X265550Y156800
X269300Y149300
X274300Y136800
X274300Y124300
X251800Y126800
X241800Y126800
X231800Y126800
X221800Y126800
X109300Y234300
X114300Y239300
X84300Y281800
T02
X94800Y274300
X104800Y280300
X108300Y272800
X114800Y299300
X111300Y331800
X170800Y260800
X178300Y254800
X194800Y249300
X201300Y245800
X207300Y253800
X194800Y260800
X166300Y238300
X165300Y230300
X171300Y230300
X165300Y222800
X167800Y216300
X146800Y225800
X135800Y230300
X120800Y225800
X100300Y225300
X101800Y245300
X194800Y234800
X194800Y228800
X194800Y217300
X202300Y217300
X208800Y220300
X254300Y231550
X262800Y223050
X301800Y231800
X301800Y241800
X301800Y251800
X301800Y261800
X314300Y288800
X331800Y180300
X319300Y177800
X313300Y157800
X313300Y142800
X313300Y127800
X321800Y106800
X274300Y109300
X252800Y81800
X205800Y102800
X192800Y102800
X186800Y103800
X193800Y83800
X166800Y116800
X154300Y146800
X154300Y152800
X154300Y158800
X146800Y158800
X146800Y152800
X146800Y146800
X115300Y101300
X114300Y92800
X95800Y116800
X80800Y142300
X74300Y142300
X74300Y148300
X74300Y154300
X80800Y154300
X80800Y148300
X226800Y154300
X236800Y154300
X246800Y154300
X261300Y146800
X199300Y314300
X198800Y331800
T03
X211780Y348887
X172410Y348887
X133040Y348887
X105481Y348887
X93670Y317391
X62174Y317391
X62174Y278020
X62174Y238650
X62174Y199280
X62174Y159910
X62174Y120540
X62174Y81170
X93670Y81170
X104300Y109300
X109418Y49674
X133040Y49674
X172410Y49674
X211780Y49674
X251150Y49674
X290520Y49674
X310206Y65422
X329891Y81170
X353513Y81170
X361387Y120540
X361387Y159910
X361387Y199280
X361387Y238650
X361387Y278020
X361387Y317391
X329891Y317391
X314143Y348887
X290520Y348887
X251150Y348887
X176800Y109300
T04
X90400Y191900
X82500Y191900
X82500Y201700
X90400Y201700
T05
X221800Y324300
X231800Y324300
X241800Y324300
X251800Y324300
X261800Y324300
X271800Y324300
X349300Y271800
X349300Y261800
X349300Y251800
X349300Y241800
X349300Y231800
X349300Y221800
X349300Y201800
X349300Y191800
X349300Y171800
X349300Y161800
X349300Y151800
X349300Y141800
X349300Y131800
X349300Y121800
X349300Y101800
X349300Y91800
T06
X221780Y69300
X201780Y69300
T07
X174800Y67600
X174800Y81000
X133800Y81000
X133800Y67600
T08
X71800Y173100
X71800Y220500
T09
X70048Y57548
X353513Y57548
X353513Y341013
X70048Y341013
M30
