G75*
%MOIN*%
%OFA0B0*%
%FSLAX25Y25*%
%IPPOS*%
%LPD*%
%AMOC8*
5,1,8,0,0,1.08239X$1,22.5*
%
%ADD10C,0.03937*%
%ADD11R,0.06800X0.01100*%
%ADD12R,0.01100X0.06800*%
%ADD13R,0.02200X0.08600*%
%ADD14R,0.04331X0.03937*%
%ADD15R,0.03937X0.04331*%
%ADD16R,0.07087X0.03937*%
%ADD17R,0.02559X0.03543*%
%ADD18R,0.06299X0.05512*%
%ADD19R,0.03150X0.03150*%
%ADD20R,0.05000X0.12598*%
%ADD21C,0.06000*%
%ADD22C,0.08250*%
%ADD23C,0.09449*%
%ADD24R,0.09449X0.09449*%
%ADD25R,0.03200X0.01200*%
%ADD26R,0.06500X0.09400*%
%ADD27R,0.08661X0.09843*%
%ADD28R,0.08465X0.21654*%
%ADD29R,0.05906X0.05118*%
%ADD30R,0.04724X0.07087*%
%ADD31R,0.02500X0.05000*%
%ADD32C,0.23622*%
%ADD33R,0.05200X0.02200*%
%ADD34R,0.01969X0.03937*%
%ADD35R,0.03937X0.01969*%
%ADD36R,0.07800X0.02200*%
%ADD37C,0.05400*%
%ADD38C,0.13500*%
%ADD39C,0.03543*%
%ADD40C,0.02953*%
D10*
X0085796Y0073296D03*
X0337765Y0073296D03*
X0337765Y0325265D03*
X0085796Y0325265D03*
D11*
X0156780Y0261957D03*
X0156780Y0259989D03*
X0156780Y0258020D03*
X0156780Y0256052D03*
X0156780Y0254083D03*
X0156780Y0252115D03*
X0156780Y0250146D03*
X0156780Y0248178D03*
X0156780Y0246209D03*
X0156780Y0244241D03*
X0156780Y0242272D03*
X0156780Y0240304D03*
X0156780Y0238335D03*
X0156780Y0236367D03*
X0156780Y0234398D03*
X0156780Y0232430D03*
X0156780Y0230461D03*
X0156780Y0228493D03*
X0156780Y0226524D03*
X0156780Y0224556D03*
X0156780Y0222587D03*
X0156780Y0220619D03*
X0156780Y0218650D03*
X0156780Y0216682D03*
X0156780Y0214713D03*
X0216780Y0214713D03*
X0216780Y0216682D03*
X0216780Y0218650D03*
X0216780Y0220619D03*
X0216780Y0222587D03*
X0216780Y0224556D03*
X0216780Y0226524D03*
X0216780Y0228493D03*
X0216780Y0230461D03*
X0216780Y0232430D03*
X0216780Y0234398D03*
X0216780Y0236367D03*
X0216780Y0238335D03*
X0216780Y0240304D03*
X0216780Y0242272D03*
X0216780Y0244241D03*
X0216780Y0246209D03*
X0216780Y0248178D03*
X0216780Y0250146D03*
X0216780Y0252115D03*
X0216780Y0254083D03*
X0216780Y0256052D03*
X0216780Y0258020D03*
X0216780Y0259989D03*
X0216780Y0261957D03*
D12*
X0210402Y0268335D03*
X0208434Y0268335D03*
X0206465Y0268335D03*
X0204497Y0268335D03*
X0202528Y0268335D03*
X0200560Y0268335D03*
X0198591Y0268335D03*
X0196623Y0268335D03*
X0194654Y0268335D03*
X0192686Y0268335D03*
X0190717Y0268335D03*
X0188749Y0268335D03*
X0186780Y0268335D03*
X0184812Y0268335D03*
X0182843Y0268335D03*
X0180875Y0268335D03*
X0178906Y0268335D03*
X0176938Y0268335D03*
X0174969Y0268335D03*
X0173001Y0268335D03*
X0171032Y0268335D03*
X0169064Y0268335D03*
X0167095Y0268335D03*
X0165127Y0268335D03*
X0163158Y0268335D03*
X0163158Y0208335D03*
X0165127Y0208335D03*
X0167095Y0208335D03*
X0169064Y0208335D03*
X0171032Y0208335D03*
X0173001Y0208335D03*
X0174969Y0208335D03*
X0176938Y0208335D03*
X0178906Y0208335D03*
X0180875Y0208335D03*
X0182843Y0208335D03*
X0184812Y0208335D03*
X0186780Y0208335D03*
X0188749Y0208335D03*
X0190717Y0208335D03*
X0192686Y0208335D03*
X0194654Y0208335D03*
X0196623Y0208335D03*
X0198591Y0208335D03*
X0200560Y0208335D03*
X0202528Y0208335D03*
X0204497Y0208335D03*
X0206465Y0208335D03*
X0208434Y0208335D03*
X0210402Y0208335D03*
D13*
X0089300Y0275000D03*
X0084300Y0275000D03*
X0079300Y0275000D03*
X0074300Y0275000D03*
X0074300Y0293600D03*
X0079300Y0293600D03*
X0084300Y0293600D03*
X0089300Y0293600D03*
D14*
X0101800Y0272646D03*
X0101800Y0265954D03*
X0101800Y0257646D03*
X0101800Y0250954D03*
X0123454Y0244300D03*
X0130146Y0244300D03*
X0130146Y0234300D03*
X0123454Y0234300D03*
X0100300Y0220146D03*
X0100300Y0213454D03*
X0074300Y0113146D03*
X0074300Y0106454D03*
X0074300Y0100146D03*
X0074300Y0093454D03*
X0094300Y0093454D03*
X0094300Y0100146D03*
X0146800Y0100146D03*
X0146800Y0105954D03*
X0146800Y0112646D03*
X0146800Y0093454D03*
X0166800Y0093454D03*
X0166800Y0100146D03*
X0199300Y0102646D03*
X0199300Y0095954D03*
X0211800Y0095954D03*
X0211800Y0102646D03*
X0221800Y0103454D03*
X0221800Y0110146D03*
X0231800Y0110146D03*
X0231800Y0103454D03*
X0241800Y0103454D03*
X0241800Y0110146D03*
X0251800Y0110146D03*
X0251800Y0103454D03*
X0256800Y0097646D03*
X0256800Y0090954D03*
X0274300Y0095954D03*
X0274300Y0102646D03*
X0281800Y0125954D03*
X0281800Y0132646D03*
X0281800Y0138454D03*
X0281800Y0145146D03*
X0281800Y0150954D03*
X0281800Y0157646D03*
X0281800Y0163454D03*
X0281800Y0170146D03*
X0271800Y0178454D03*
X0271800Y0185146D03*
X0256800Y0182646D03*
X0256800Y0175954D03*
X0246800Y0175954D03*
X0246800Y0182646D03*
X0236800Y0182646D03*
X0236800Y0175954D03*
X0226800Y0175954D03*
X0226800Y0182646D03*
X0250954Y0223050D03*
X0257646Y0223050D03*
X0270550Y0207646D03*
X0270550Y0200954D03*
X0279300Y0200954D03*
X0279300Y0207646D03*
X0288050Y0207646D03*
X0288050Y0200954D03*
X0296800Y0200954D03*
X0296800Y0207646D03*
X0331800Y0192646D03*
X0331800Y0185954D03*
X0319300Y0172646D03*
X0319300Y0165954D03*
X0319300Y0157646D03*
X0319300Y0150954D03*
X0319300Y0142646D03*
X0319300Y0135954D03*
X0319300Y0127646D03*
X0319300Y0120954D03*
X0334300Y0100146D03*
X0334300Y0093454D03*
X0251800Y0130954D03*
X0251800Y0137646D03*
X0241800Y0137646D03*
X0241800Y0130954D03*
X0231800Y0130954D03*
X0231800Y0137646D03*
X0221800Y0137646D03*
X0221800Y0130954D03*
X0314300Y0293454D03*
X0314300Y0300146D03*
D15*
X0305146Y0299300D03*
X0298454Y0299300D03*
X0298454Y0289300D03*
X0305146Y0289300D03*
X0282646Y0266800D03*
X0275954Y0266800D03*
X0275954Y0256800D03*
X0282646Y0256800D03*
X0282646Y0246800D03*
X0275954Y0246800D03*
X0275954Y0236800D03*
X0282646Y0236800D03*
X0330954Y0231800D03*
X0337646Y0231800D03*
X0337646Y0241800D03*
X0330954Y0241800D03*
X0330954Y0251800D03*
X0337646Y0251800D03*
X0337646Y0261800D03*
X0330954Y0261800D03*
X0330954Y0199300D03*
X0337646Y0199300D03*
X0335146Y0166800D03*
X0328454Y0166800D03*
X0328454Y0151800D03*
X0335146Y0151800D03*
X0335146Y0136800D03*
X0328454Y0136800D03*
X0328454Y0121800D03*
X0335146Y0121800D03*
X0295146Y0126800D03*
X0288454Y0126800D03*
X0288454Y0139300D03*
X0295146Y0139300D03*
X0295146Y0154300D03*
X0288454Y0154300D03*
X0288454Y0169300D03*
X0295146Y0169300D03*
X0295146Y0190550D03*
X0288454Y0190550D03*
X0209300Y0126646D03*
X0209300Y0119954D03*
X0258454Y0081800D03*
X0265146Y0081800D03*
X0266800Y0090954D03*
X0266800Y0097646D03*
X0159300Y0116954D03*
X0159300Y0123646D03*
X0158146Y0138800D03*
X0151454Y0138800D03*
X0137300Y0127146D03*
X0137300Y0120454D03*
X0156800Y0100146D03*
X0156800Y0093454D03*
X0089300Y0115954D03*
X0089300Y0122646D03*
X0089646Y0133300D03*
X0082954Y0133300D03*
X0084300Y0100146D03*
X0084300Y0093454D03*
X0100954Y0196800D03*
X0107646Y0196800D03*
X0107646Y0205800D03*
X0100954Y0205800D03*
X0126800Y0218454D03*
X0126800Y0225146D03*
X0077646Y0236800D03*
X0070954Y0236800D03*
X0070954Y0246800D03*
X0077646Y0246800D03*
X0099300Y0280954D03*
X0099300Y0287646D03*
X0120954Y0299300D03*
X0127646Y0299300D03*
D16*
X0139300Y0244221D03*
X0139300Y0234379D03*
D17*
X0136052Y0225934D03*
X0142548Y0225934D03*
X0142548Y0217666D03*
X0136052Y0217666D03*
D18*
X0127528Y0307272D03*
X0109812Y0307272D03*
X0109812Y0338769D03*
X0127528Y0338769D03*
X0296032Y0338769D03*
X0313749Y0338769D03*
X0313749Y0307272D03*
X0296032Y0307272D03*
D19*
X0296800Y0219753D03*
X0296800Y0213847D03*
X0288050Y0213847D03*
X0288050Y0219753D03*
X0279300Y0219753D03*
X0279300Y0213847D03*
X0270550Y0213847D03*
X0270550Y0219753D03*
X0279300Y0184753D03*
X0279300Y0178847D03*
X0251800Y0122253D03*
X0251800Y0116347D03*
X0241800Y0116347D03*
X0241800Y0122253D03*
X0231800Y0122253D03*
X0231800Y0116347D03*
X0221800Y0116347D03*
X0221800Y0122253D03*
X0211800Y0089753D03*
X0211800Y0083847D03*
X0199300Y0083847D03*
X0199300Y0089753D03*
X0157253Y0132300D03*
X0151347Y0132300D03*
X0089253Y0127300D03*
X0083347Y0127300D03*
X0086347Y0236800D03*
X0092253Y0236800D03*
X0092253Y0246800D03*
X0086347Y0246800D03*
X0274300Y0089753D03*
X0274300Y0083847D03*
D20*
X0191800Y0314457D03*
X0181800Y0314457D03*
X0171800Y0314457D03*
X0161800Y0314457D03*
X0151800Y0314457D03*
X0151800Y0334143D03*
X0161800Y0334143D03*
X0171800Y0334143D03*
X0181800Y0334143D03*
X0191800Y0334143D03*
D21*
X0221800Y0327300D02*
X0221800Y0321300D01*
X0231800Y0321300D02*
X0231800Y0327300D01*
X0241800Y0327300D02*
X0241800Y0321300D01*
X0251800Y0321300D02*
X0251800Y0327300D01*
X0261800Y0327300D02*
X0261800Y0321300D01*
X0271800Y0321300D02*
X0271800Y0327300D01*
X0346300Y0271800D02*
X0352300Y0271800D01*
X0352300Y0261800D02*
X0346300Y0261800D01*
X0346300Y0251800D02*
X0352300Y0251800D01*
X0352300Y0241800D02*
X0346300Y0241800D01*
X0346300Y0231800D02*
X0352300Y0231800D01*
X0352300Y0221800D02*
X0346300Y0221800D01*
X0346300Y0201800D02*
X0352300Y0201800D01*
X0352300Y0191800D02*
X0346300Y0191800D01*
X0346300Y0171800D02*
X0352300Y0171800D01*
X0352300Y0161800D02*
X0346300Y0161800D01*
X0346300Y0151800D02*
X0352300Y0151800D01*
X0352300Y0141800D02*
X0346300Y0141800D01*
X0346300Y0131800D02*
X0352300Y0131800D01*
X0352300Y0121800D02*
X0346300Y0121800D01*
X0346300Y0101800D02*
X0352300Y0101800D01*
X0352300Y0091800D02*
X0346300Y0091800D01*
D22*
X0221780Y0073425D02*
X0221780Y0065175D01*
X0201780Y0065175D02*
X0201780Y0073425D01*
D23*
X0174800Y0067600D03*
X0174800Y0081000D03*
X0133800Y0081000D03*
X0133800Y0067600D03*
D24*
X0114300Y0068139D03*
X0114300Y0085461D03*
D25*
X0110000Y0105400D03*
X0110000Y0107300D03*
X0110000Y0109300D03*
X0110000Y0111300D03*
X0110000Y0113200D03*
X0098600Y0113200D03*
X0098600Y0111300D03*
X0098600Y0109300D03*
X0098600Y0107300D03*
X0098600Y0105400D03*
X0171100Y0105400D03*
X0171100Y0107300D03*
X0171100Y0109300D03*
X0171100Y0111300D03*
X0171100Y0113200D03*
X0182500Y0113200D03*
X0182500Y0111300D03*
X0182500Y0109300D03*
X0182500Y0107300D03*
X0182500Y0105400D03*
D26*
X0176800Y0109300D03*
X0104300Y0109300D03*
D27*
X0124300Y0117548D03*
X0124300Y0136052D03*
X0196800Y0136052D03*
X0196800Y0117548D03*
D28*
X0184379Y0149300D03*
X0169221Y0149300D03*
X0111879Y0149300D03*
X0096721Y0149300D03*
D29*
X0099300Y0130540D03*
X0099300Y0123060D03*
X0169300Y0125560D03*
X0169300Y0133040D03*
D30*
X0284339Y0108020D03*
X0293001Y0108020D03*
X0301662Y0108020D03*
X0314261Y0108020D03*
X0314261Y0085580D03*
X0301662Y0085580D03*
X0293001Y0085580D03*
X0284339Y0085580D03*
D31*
X0328588Y0057552D03*
X0331831Y0057552D03*
X0095292Y0057548D03*
X0092048Y0057548D03*
X0092048Y0341013D03*
X0095292Y0341013D03*
X0328269Y0341013D03*
X0331512Y0341013D03*
D32*
X0070048Y0057548D03*
X0353513Y0057548D03*
X0353513Y0341013D03*
X0070048Y0341013D03*
D33*
X0302500Y0190500D03*
X0302500Y0183100D03*
X0311100Y0186800D03*
X0302500Y0170500D03*
X0302500Y0163100D03*
X0302500Y0155500D03*
X0302500Y0148100D03*
X0302500Y0140500D03*
X0302500Y0133100D03*
X0302500Y0125500D03*
X0302500Y0118100D03*
X0311100Y0121800D03*
X0311100Y0136800D03*
X0311100Y0151800D03*
X0311100Y0166800D03*
D34*
X0256800Y0169556D03*
X0251800Y0169556D03*
X0246800Y0169556D03*
X0241800Y0169556D03*
X0236800Y0169556D03*
X0231800Y0169556D03*
X0226800Y0169556D03*
X0221800Y0169556D03*
X0221800Y0144044D03*
X0226800Y0144044D03*
X0231800Y0144044D03*
X0236800Y0144044D03*
X0241800Y0144044D03*
X0246800Y0144044D03*
X0251800Y0144044D03*
X0256800Y0144044D03*
D35*
X0294044Y0231800D03*
X0294044Y0236800D03*
X0294044Y0241800D03*
X0294044Y0246800D03*
X0294044Y0251800D03*
X0294044Y0256800D03*
X0294044Y0261800D03*
X0294044Y0266800D03*
X0319556Y0266800D03*
X0319556Y0261800D03*
X0319556Y0256800D03*
X0319556Y0251800D03*
X0319556Y0246800D03*
X0319556Y0241800D03*
X0319556Y0236800D03*
X0319556Y0231800D03*
D36*
X0264000Y0231800D03*
X0264000Y0236800D03*
X0264000Y0241800D03*
X0264000Y0246800D03*
X0264000Y0251800D03*
X0264000Y0256800D03*
X0264000Y0261800D03*
X0264000Y0266800D03*
X0244600Y0266800D03*
X0244600Y0261800D03*
X0244600Y0256800D03*
X0244600Y0251800D03*
X0244600Y0246800D03*
X0244600Y0241800D03*
X0244600Y0236800D03*
X0244600Y0231800D03*
D37*
X0090400Y0201700D03*
X0082500Y0201700D03*
X0082500Y0191900D03*
X0090400Y0191900D03*
D38*
X0071800Y0173100D03*
X0071800Y0220500D03*
D39*
X0062174Y0238650D03*
X0062174Y0199280D03*
X0062174Y0159910D03*
X0062174Y0120540D03*
X0062174Y0081170D03*
X0093670Y0081170D03*
X0104300Y0109300D03*
X0109418Y0049674D03*
X0133040Y0049674D03*
X0172410Y0049674D03*
X0211780Y0049674D03*
X0251150Y0049674D03*
X0290520Y0049674D03*
X0310206Y0065422D03*
X0329891Y0081170D03*
X0353513Y0081170D03*
X0361387Y0120540D03*
X0361387Y0159910D03*
X0361387Y0199280D03*
X0361387Y0238650D03*
X0361387Y0278020D03*
X0361387Y0317391D03*
X0329891Y0317391D03*
X0314143Y0348887D03*
X0290520Y0348887D03*
X0251150Y0348887D03*
X0211780Y0348887D03*
X0172410Y0348887D03*
X0133040Y0348887D03*
X0105481Y0348887D03*
X0093670Y0317391D03*
X0062174Y0317391D03*
X0062174Y0278020D03*
X0176800Y0109300D03*
D40*
X0166800Y0116800D03*
X0186800Y0103800D03*
X0192800Y0102800D03*
X0205800Y0102800D03*
X0193800Y0083800D03*
X0252800Y0081800D03*
X0274300Y0109300D03*
X0261300Y0146800D03*
X0246800Y0154300D03*
X0236800Y0154300D03*
X0226800Y0154300D03*
X0202300Y0217300D03*
X0208800Y0220300D03*
X0194800Y0217300D03*
X0194800Y0228800D03*
X0194800Y0234800D03*
X0201300Y0245800D03*
X0194800Y0249300D03*
X0194800Y0260800D03*
X0207300Y0253800D03*
X0178300Y0254800D03*
X0170800Y0260800D03*
X0166300Y0238300D03*
X0165300Y0230300D03*
X0171300Y0230300D03*
X0165300Y0222800D03*
X0167800Y0216300D03*
X0146800Y0225800D03*
X0135800Y0230300D03*
X0120800Y0225800D03*
X0100300Y0225300D03*
X0101800Y0245300D03*
X0108300Y0272800D03*
X0104800Y0280300D03*
X0094800Y0274300D03*
X0114800Y0299300D03*
X0111300Y0331800D03*
X0198800Y0331800D03*
X0199300Y0314300D03*
X0254300Y0231550D03*
X0262800Y0223050D03*
X0301800Y0231800D03*
X0301800Y0241800D03*
X0301800Y0251800D03*
X0301800Y0261800D03*
X0314300Y0288800D03*
X0331800Y0180300D03*
X0319300Y0177800D03*
X0313300Y0157800D03*
X0313300Y0142800D03*
X0313300Y0127800D03*
X0321800Y0106800D03*
X0154300Y0146800D03*
X0154300Y0152800D03*
X0154300Y0158800D03*
X0146800Y0158800D03*
X0146800Y0152800D03*
X0146800Y0146800D03*
X0115300Y0101300D03*
X0114300Y0092800D03*
X0095800Y0116800D03*
X0080800Y0142300D03*
X0074300Y0142300D03*
X0074300Y0148300D03*
X0074300Y0154300D03*
X0080800Y0154300D03*
X0080800Y0148300D03*
M02*
