G75*
%MOIN*%
%OFA0B0*%
%FSLAX25Y25*%
%IPPOS*%
%LPD*%
%AMOC8*
5,1,8,0,0,1.08239X$1,22.5*
%
%ADD10C,0.00000*%
%ADD11C,0.06000*%
%ADD12C,0.08250*%
%ADD13C,0.09449*%
%ADD14C,0.17717*%
%ADD15C,0.05400*%
%ADD16C,0.13500*%
%ADD17C,0.03543*%
%ADD18C,0.01600*%
%ADD19C,0.02953*%
%ADD20C,0.02362*%
%ADD21C,0.01000*%
D10*
X0054300Y0057548D02*
X0054300Y0341013D01*
X0054305Y0341394D01*
X0054318Y0341774D01*
X0054341Y0342154D01*
X0054374Y0342533D01*
X0054415Y0342911D01*
X0054465Y0343288D01*
X0054525Y0343664D01*
X0054593Y0344039D01*
X0054671Y0344411D01*
X0054758Y0344782D01*
X0054853Y0345150D01*
X0054958Y0345516D01*
X0055071Y0345879D01*
X0055193Y0346240D01*
X0055323Y0346597D01*
X0055463Y0346951D01*
X0055610Y0347302D01*
X0055767Y0347649D01*
X0055931Y0347992D01*
X0056104Y0348331D01*
X0056285Y0348666D01*
X0056474Y0348997D01*
X0056671Y0349322D01*
X0056875Y0349643D01*
X0057088Y0349959D01*
X0057308Y0350269D01*
X0057535Y0350575D01*
X0057770Y0350874D01*
X0058012Y0351168D01*
X0058260Y0351456D01*
X0058516Y0351738D01*
X0058779Y0352013D01*
X0059048Y0352282D01*
X0059323Y0352545D01*
X0059605Y0352801D01*
X0059893Y0353049D01*
X0060187Y0353291D01*
X0060486Y0353526D01*
X0060792Y0353753D01*
X0061102Y0353973D01*
X0061418Y0354186D01*
X0061739Y0354390D01*
X0062064Y0354587D01*
X0062395Y0354776D01*
X0062730Y0354957D01*
X0063069Y0355130D01*
X0063412Y0355294D01*
X0063759Y0355451D01*
X0064110Y0355598D01*
X0064464Y0355738D01*
X0064821Y0355868D01*
X0065182Y0355990D01*
X0065545Y0356103D01*
X0065911Y0356208D01*
X0066279Y0356303D01*
X0066650Y0356390D01*
X0067022Y0356468D01*
X0067397Y0356536D01*
X0067773Y0356596D01*
X0068150Y0356646D01*
X0068528Y0356687D01*
X0068907Y0356720D01*
X0069287Y0356743D01*
X0069667Y0356756D01*
X0070048Y0356761D01*
X0353513Y0356761D01*
X0353894Y0356756D01*
X0354274Y0356743D01*
X0354654Y0356720D01*
X0355033Y0356687D01*
X0355411Y0356646D01*
X0355788Y0356596D01*
X0356164Y0356536D01*
X0356539Y0356468D01*
X0356911Y0356390D01*
X0357282Y0356303D01*
X0357650Y0356208D01*
X0358016Y0356103D01*
X0358379Y0355990D01*
X0358740Y0355868D01*
X0359097Y0355738D01*
X0359451Y0355598D01*
X0359802Y0355451D01*
X0360149Y0355294D01*
X0360492Y0355130D01*
X0360831Y0354957D01*
X0361166Y0354776D01*
X0361497Y0354587D01*
X0361822Y0354390D01*
X0362143Y0354186D01*
X0362459Y0353973D01*
X0362769Y0353753D01*
X0363075Y0353526D01*
X0363374Y0353291D01*
X0363668Y0353049D01*
X0363956Y0352801D01*
X0364238Y0352545D01*
X0364513Y0352282D01*
X0364782Y0352013D01*
X0365045Y0351738D01*
X0365301Y0351456D01*
X0365549Y0351168D01*
X0365791Y0350874D01*
X0366026Y0350575D01*
X0366253Y0350269D01*
X0366473Y0349959D01*
X0366686Y0349643D01*
X0366890Y0349322D01*
X0367087Y0348997D01*
X0367276Y0348666D01*
X0367457Y0348331D01*
X0367630Y0347992D01*
X0367794Y0347649D01*
X0367951Y0347302D01*
X0368098Y0346951D01*
X0368238Y0346597D01*
X0368368Y0346240D01*
X0368490Y0345879D01*
X0368603Y0345516D01*
X0368708Y0345150D01*
X0368803Y0344782D01*
X0368890Y0344411D01*
X0368968Y0344039D01*
X0369036Y0343664D01*
X0369096Y0343288D01*
X0369146Y0342911D01*
X0369187Y0342533D01*
X0369220Y0342154D01*
X0369243Y0341774D01*
X0369256Y0341394D01*
X0369261Y0341013D01*
X0369261Y0057548D01*
X0369256Y0057167D01*
X0369243Y0056787D01*
X0369220Y0056407D01*
X0369187Y0056028D01*
X0369146Y0055650D01*
X0369096Y0055273D01*
X0369036Y0054897D01*
X0368968Y0054522D01*
X0368890Y0054150D01*
X0368803Y0053779D01*
X0368708Y0053411D01*
X0368603Y0053045D01*
X0368490Y0052682D01*
X0368368Y0052321D01*
X0368238Y0051964D01*
X0368098Y0051610D01*
X0367951Y0051259D01*
X0367794Y0050912D01*
X0367630Y0050569D01*
X0367457Y0050230D01*
X0367276Y0049895D01*
X0367087Y0049564D01*
X0366890Y0049239D01*
X0366686Y0048918D01*
X0366473Y0048602D01*
X0366253Y0048292D01*
X0366026Y0047986D01*
X0365791Y0047687D01*
X0365549Y0047393D01*
X0365301Y0047105D01*
X0365045Y0046823D01*
X0364782Y0046548D01*
X0364513Y0046279D01*
X0364238Y0046016D01*
X0363956Y0045760D01*
X0363668Y0045512D01*
X0363374Y0045270D01*
X0363075Y0045035D01*
X0362769Y0044808D01*
X0362459Y0044588D01*
X0362143Y0044375D01*
X0361822Y0044171D01*
X0361497Y0043974D01*
X0361166Y0043785D01*
X0360831Y0043604D01*
X0360492Y0043431D01*
X0360149Y0043267D01*
X0359802Y0043110D01*
X0359451Y0042963D01*
X0359097Y0042823D01*
X0358740Y0042693D01*
X0358379Y0042571D01*
X0358016Y0042458D01*
X0357650Y0042353D01*
X0357282Y0042258D01*
X0356911Y0042171D01*
X0356539Y0042093D01*
X0356164Y0042025D01*
X0355788Y0041965D01*
X0355411Y0041915D01*
X0355033Y0041874D01*
X0354654Y0041841D01*
X0354274Y0041818D01*
X0353894Y0041805D01*
X0353513Y0041800D01*
X0070048Y0041800D01*
X0069667Y0041805D01*
X0069287Y0041818D01*
X0068907Y0041841D01*
X0068528Y0041874D01*
X0068150Y0041915D01*
X0067773Y0041965D01*
X0067397Y0042025D01*
X0067022Y0042093D01*
X0066650Y0042171D01*
X0066279Y0042258D01*
X0065911Y0042353D01*
X0065545Y0042458D01*
X0065182Y0042571D01*
X0064821Y0042693D01*
X0064464Y0042823D01*
X0064110Y0042963D01*
X0063759Y0043110D01*
X0063412Y0043267D01*
X0063069Y0043431D01*
X0062730Y0043604D01*
X0062395Y0043785D01*
X0062064Y0043974D01*
X0061739Y0044171D01*
X0061418Y0044375D01*
X0061102Y0044588D01*
X0060792Y0044808D01*
X0060486Y0045035D01*
X0060187Y0045270D01*
X0059893Y0045512D01*
X0059605Y0045760D01*
X0059323Y0046016D01*
X0059048Y0046279D01*
X0058779Y0046548D01*
X0058516Y0046823D01*
X0058260Y0047105D01*
X0058012Y0047393D01*
X0057770Y0047687D01*
X0057535Y0047986D01*
X0057308Y0048292D01*
X0057088Y0048602D01*
X0056875Y0048918D01*
X0056671Y0049239D01*
X0056474Y0049564D01*
X0056285Y0049895D01*
X0056104Y0050230D01*
X0055931Y0050569D01*
X0055767Y0050912D01*
X0055610Y0051259D01*
X0055463Y0051610D01*
X0055323Y0051964D01*
X0055193Y0052321D01*
X0055071Y0052682D01*
X0054958Y0053045D01*
X0054853Y0053411D01*
X0054758Y0053779D01*
X0054671Y0054150D01*
X0054593Y0054522D01*
X0054525Y0054897D01*
X0054465Y0055273D01*
X0054415Y0055650D01*
X0054374Y0056028D01*
X0054341Y0056407D01*
X0054318Y0056787D01*
X0054305Y0057167D01*
X0054300Y0057548D01*
D11*
X0221800Y0324300D03*
X0231800Y0324300D03*
X0241800Y0324300D03*
X0251800Y0324300D03*
X0261800Y0324300D03*
X0271800Y0324300D03*
X0349300Y0271800D03*
X0349300Y0261800D03*
X0349300Y0251800D03*
X0349300Y0241800D03*
X0349300Y0231800D03*
X0349300Y0221800D03*
X0349300Y0201800D03*
X0349300Y0191800D03*
X0349300Y0171800D03*
X0349300Y0161800D03*
X0349300Y0151800D03*
X0349300Y0141800D03*
X0349300Y0131800D03*
X0349300Y0121800D03*
X0349300Y0101800D03*
X0349300Y0091800D03*
D12*
X0221780Y0069300D03*
X0201780Y0069300D03*
D13*
X0174800Y0067600D03*
X0174800Y0081000D03*
X0133800Y0081000D03*
X0133800Y0067600D03*
D14*
X0070048Y0057548D03*
X0353513Y0057548D03*
X0353513Y0341013D03*
X0070048Y0341013D03*
D15*
X0082500Y0201700D03*
X0090400Y0201700D03*
X0090400Y0191900D03*
X0082500Y0191900D03*
D16*
X0071800Y0173100D03*
X0071800Y0220500D03*
D17*
X0062174Y0238650D03*
X0062174Y0199280D03*
X0062174Y0159910D03*
X0062174Y0120540D03*
X0062174Y0081170D03*
X0093670Y0081170D03*
X0104300Y0109300D03*
X0109418Y0049674D03*
X0133040Y0049674D03*
X0172410Y0049674D03*
X0211780Y0049674D03*
X0251150Y0049674D03*
X0290520Y0049674D03*
X0310206Y0065422D03*
X0329891Y0081170D03*
X0353513Y0081170D03*
X0361387Y0120540D03*
X0361387Y0159910D03*
X0361387Y0199280D03*
X0361387Y0238650D03*
X0361387Y0278020D03*
X0361387Y0317391D03*
X0329891Y0317391D03*
X0314143Y0348887D03*
X0290520Y0348887D03*
X0251150Y0348887D03*
X0211780Y0348887D03*
X0172410Y0348887D03*
X0133040Y0348887D03*
X0105481Y0348887D03*
X0093670Y0317391D03*
X0062174Y0317391D03*
X0062174Y0278020D03*
X0176800Y0109300D03*
D18*
X0058970Y0049047D02*
X0057147Y0052204D01*
X0056204Y0055725D01*
X0056084Y0057548D01*
X0056084Y0341013D01*
X0056204Y0342835D01*
X0057147Y0346356D01*
X0058970Y0349513D01*
X0061547Y0352091D01*
X0064704Y0353913D01*
X0068225Y0354857D01*
X0070048Y0354976D01*
X0353513Y0354976D01*
X0355335Y0354857D01*
X0358856Y0353913D01*
X0362013Y0352091D01*
X0364591Y0349513D01*
X0366413Y0346356D01*
X0367357Y0342835D01*
X0367476Y0341013D01*
X0367476Y0286600D01*
X0316433Y0286600D01*
X0316680Y0286847D01*
X0317015Y0287349D01*
X0317246Y0287906D01*
X0317364Y0288498D01*
X0317364Y0288800D01*
X0317364Y0289102D01*
X0317246Y0289694D01*
X0317015Y0290251D01*
X0316680Y0290753D01*
X0316253Y0291180D01*
X0315751Y0291515D01*
X0315194Y0291746D01*
X0314602Y0291864D01*
X0314300Y0291864D01*
X0313998Y0291864D01*
X0313406Y0291746D01*
X0312849Y0291515D01*
X0312347Y0291180D01*
X0311920Y0290753D01*
X0311585Y0290251D01*
X0311354Y0289694D01*
X0311236Y0289102D01*
X0311236Y0288800D01*
X0311236Y0288498D01*
X0311354Y0287906D01*
X0311585Y0287349D01*
X0311920Y0286847D01*
X0312167Y0286600D01*
X0308347Y0286600D01*
X0308050Y0286303D01*
X0307753Y0286600D01*
X0288347Y0286600D01*
X0287000Y0285253D01*
X0287000Y0226767D01*
X0286531Y0226573D01*
X0285777Y0225819D01*
X0285369Y0224833D01*
X0285369Y0223767D01*
X0285777Y0222781D01*
X0286531Y0222027D01*
X0287000Y0221833D01*
X0287000Y0166600D01*
X0140847Y0166600D01*
X0139500Y0165253D01*
X0139500Y0123100D01*
X0090347Y0123100D01*
X0089000Y0121753D01*
X0089000Y0053347D01*
X0090347Y0052000D01*
X0107117Y0052000D01*
X0106645Y0051527D01*
X0106146Y0050325D01*
X0106146Y0049023D01*
X0106645Y0047821D01*
X0107565Y0046900D01*
X0108767Y0046402D01*
X0110069Y0046402D01*
X0111271Y0046900D01*
X0112192Y0047821D01*
X0112690Y0049023D01*
X0112690Y0050325D01*
X0112192Y0051527D01*
X0111719Y0052000D01*
X0130739Y0052000D01*
X0130267Y0051527D01*
X0129769Y0050325D01*
X0129769Y0049023D01*
X0130267Y0047821D01*
X0131187Y0046900D01*
X0132389Y0046402D01*
X0133691Y0046402D01*
X0134893Y0046900D01*
X0135814Y0047821D01*
X0136312Y0049023D01*
X0136312Y0050325D01*
X0135814Y0051527D01*
X0135341Y0052000D01*
X0170109Y0052000D01*
X0169637Y0051527D01*
X0169139Y0050325D01*
X0169139Y0049023D01*
X0169637Y0047821D01*
X0170557Y0046900D01*
X0171759Y0046402D01*
X0173061Y0046402D01*
X0174263Y0046900D01*
X0175184Y0047821D01*
X0175682Y0049023D01*
X0175682Y0050325D01*
X0175184Y0051527D01*
X0174711Y0052000D01*
X0209480Y0052000D01*
X0209007Y0051527D01*
X0208509Y0050325D01*
X0208509Y0049023D01*
X0209007Y0047821D01*
X0209927Y0046900D01*
X0211130Y0046402D01*
X0212431Y0046402D01*
X0213634Y0046900D01*
X0214554Y0047821D01*
X0215052Y0049023D01*
X0215052Y0050325D01*
X0214554Y0051527D01*
X0214081Y0052000D01*
X0248850Y0052000D01*
X0248377Y0051527D01*
X0247879Y0050325D01*
X0247879Y0049023D01*
X0248377Y0047821D01*
X0249297Y0046900D01*
X0250500Y0046402D01*
X0251801Y0046402D01*
X0253004Y0046900D01*
X0253924Y0047821D01*
X0254422Y0049023D01*
X0254422Y0050325D01*
X0253924Y0051527D01*
X0253451Y0052000D01*
X0288220Y0052000D01*
X0287747Y0051527D01*
X0287249Y0050325D01*
X0287249Y0049023D01*
X0287747Y0047821D01*
X0288667Y0046900D01*
X0289870Y0046402D01*
X0291171Y0046402D01*
X0292374Y0046900D01*
X0293294Y0047821D01*
X0293792Y0049023D01*
X0293792Y0050325D01*
X0293294Y0051527D01*
X0292821Y0052000D01*
X0322753Y0052000D01*
X0324100Y0053347D01*
X0324100Y0074500D01*
X0367476Y0074500D01*
X0367476Y0057548D01*
X0367357Y0055725D01*
X0366413Y0052204D01*
X0364591Y0049047D01*
X0362013Y0046470D01*
X0358856Y0044647D01*
X0355335Y0043704D01*
X0353513Y0043584D01*
X0070048Y0043584D01*
X0068225Y0043704D01*
X0064704Y0044647D01*
X0061547Y0046470D01*
X0058970Y0049047D01*
X0058540Y0049793D02*
X0063155Y0049793D01*
X0063688Y0049259D02*
X0066050Y0047896D01*
X0068684Y0047190D01*
X0071412Y0047190D01*
X0074046Y0047896D01*
X0076408Y0049259D01*
X0078337Y0051188D01*
X0079700Y0053550D01*
X0080406Y0056184D01*
X0080406Y0058912D01*
X0079700Y0061546D01*
X0078337Y0063908D01*
X0076408Y0065837D01*
X0074046Y0067200D01*
X0071412Y0067906D01*
X0068684Y0067906D01*
X0066050Y0067200D01*
X0063688Y0065837D01*
X0061759Y0063908D01*
X0060396Y0061546D01*
X0059690Y0058912D01*
X0059690Y0056184D01*
X0060396Y0053550D01*
X0061759Y0051188D01*
X0063688Y0049259D01*
X0065533Y0048194D02*
X0059823Y0048194D01*
X0061422Y0046596D02*
X0108301Y0046596D01*
X0110535Y0046596D02*
X0131923Y0046596D01*
X0134157Y0046596D02*
X0171293Y0046596D01*
X0173527Y0046596D02*
X0210663Y0046596D01*
X0212897Y0046596D02*
X0250033Y0046596D01*
X0252268Y0046596D02*
X0289403Y0046596D01*
X0291638Y0046596D02*
X0362139Y0046596D01*
X0363737Y0048194D02*
X0358028Y0048194D01*
X0357511Y0047896D02*
X0359873Y0049259D01*
X0361801Y0051188D01*
X0363165Y0053550D01*
X0363871Y0056184D01*
X0363871Y0058912D01*
X0363165Y0061546D01*
X0361801Y0063908D01*
X0359873Y0065837D01*
X0357511Y0067200D01*
X0354876Y0067906D01*
X0352149Y0067906D01*
X0349514Y0067200D01*
X0347152Y0065837D01*
X0345224Y0063908D01*
X0343860Y0061546D01*
X0343154Y0058912D01*
X0343154Y0056184D01*
X0343860Y0053550D01*
X0345224Y0051188D01*
X0347152Y0049259D01*
X0349514Y0047896D01*
X0352149Y0047190D01*
X0354876Y0047190D01*
X0357511Y0047896D01*
X0360406Y0049793D02*
X0365021Y0049793D01*
X0365944Y0051391D02*
X0361919Y0051391D01*
X0362841Y0052990D02*
X0366624Y0052990D01*
X0367052Y0054588D02*
X0363443Y0054588D01*
X0363871Y0056187D02*
X0367387Y0056187D01*
X0367476Y0057785D02*
X0363871Y0057785D01*
X0363744Y0059384D02*
X0367476Y0059384D01*
X0367476Y0060982D02*
X0363316Y0060982D01*
X0362568Y0062581D02*
X0367476Y0062581D01*
X0367476Y0064179D02*
X0361530Y0064179D01*
X0359932Y0065778D02*
X0367476Y0065778D01*
X0367476Y0067376D02*
X0356855Y0067376D01*
X0350170Y0067376D02*
X0324100Y0067376D01*
X0324100Y0065778D02*
X0347093Y0065778D01*
X0345495Y0064179D02*
X0324100Y0064179D01*
X0324100Y0062581D02*
X0344457Y0062581D01*
X0343709Y0060982D02*
X0324100Y0060982D01*
X0324100Y0059384D02*
X0343281Y0059384D01*
X0343154Y0057785D02*
X0324100Y0057785D01*
X0324100Y0056187D02*
X0343154Y0056187D01*
X0343582Y0054588D02*
X0324100Y0054588D01*
X0323742Y0052990D02*
X0344184Y0052990D01*
X0345107Y0051391D02*
X0293350Y0051391D01*
X0293792Y0049793D02*
X0346619Y0049793D01*
X0348998Y0048194D02*
X0293449Y0048194D01*
X0287592Y0048194D02*
X0254079Y0048194D01*
X0254422Y0049793D02*
X0287249Y0049793D01*
X0287691Y0051391D02*
X0253980Y0051391D01*
X0248320Y0051391D02*
X0214610Y0051391D01*
X0215052Y0049793D02*
X0247879Y0049793D01*
X0248222Y0048194D02*
X0214708Y0048194D01*
X0208852Y0048194D02*
X0175338Y0048194D01*
X0175682Y0049793D02*
X0208509Y0049793D01*
X0208950Y0051391D02*
X0175240Y0051391D01*
X0169580Y0051391D02*
X0135870Y0051391D01*
X0136312Y0049793D02*
X0169139Y0049793D01*
X0169482Y0048194D02*
X0135968Y0048194D01*
X0130112Y0048194D02*
X0112346Y0048194D01*
X0112690Y0049793D02*
X0129769Y0049793D01*
X0130210Y0051391D02*
X0112248Y0051391D01*
X0106588Y0051391D02*
X0078454Y0051391D01*
X0079377Y0052990D02*
X0089358Y0052990D01*
X0089000Y0054588D02*
X0079979Y0054588D01*
X0080406Y0056187D02*
X0089000Y0056187D01*
X0089000Y0057785D02*
X0080406Y0057785D01*
X0080280Y0059384D02*
X0089000Y0059384D01*
X0089000Y0060982D02*
X0079852Y0060982D01*
X0079103Y0062581D02*
X0089000Y0062581D01*
X0089000Y0064179D02*
X0078066Y0064179D01*
X0076467Y0065778D02*
X0089000Y0065778D01*
X0089000Y0067376D02*
X0073390Y0067376D01*
X0066706Y0067376D02*
X0056084Y0067376D01*
X0056084Y0065778D02*
X0063629Y0065778D01*
X0062030Y0064179D02*
X0056084Y0064179D01*
X0056084Y0062581D02*
X0060993Y0062581D01*
X0060245Y0060982D02*
X0056084Y0060982D01*
X0056084Y0059384D02*
X0059816Y0059384D01*
X0059690Y0057785D02*
X0056084Y0057785D01*
X0056173Y0056187D02*
X0059690Y0056187D01*
X0060117Y0054588D02*
X0056508Y0054588D01*
X0056937Y0052990D02*
X0060719Y0052990D01*
X0061642Y0051391D02*
X0057617Y0051391D01*
X0064098Y0044997D02*
X0359462Y0044997D01*
X0367476Y0068975D02*
X0324100Y0068975D01*
X0324100Y0070573D02*
X0367476Y0070573D01*
X0367476Y0072172D02*
X0324100Y0072172D01*
X0324100Y0073770D02*
X0367476Y0073770D01*
X0367476Y0076800D02*
X0309300Y0076800D01*
X0309300Y0284300D01*
X0367476Y0284300D01*
X0367476Y0076800D01*
X0367476Y0076967D02*
X0309300Y0076967D01*
X0308398Y0077800D02*
X0321800Y0077800D01*
X0321800Y0054300D01*
X0091300Y0054300D01*
X0091300Y0079068D01*
X0091879Y0078489D01*
X0093041Y0078008D01*
X0094299Y0078008D01*
X0095461Y0078489D01*
X0096351Y0079379D01*
X0096832Y0080541D01*
X0096832Y0081799D01*
X0096351Y0082961D01*
X0095461Y0083851D01*
X0094299Y0084332D01*
X0093041Y0084332D01*
X0091879Y0083851D01*
X0091300Y0083272D01*
X0091300Y0120800D01*
X0139702Y0120800D01*
X0140893Y0119609D01*
X0165577Y0119609D01*
X0165349Y0119515D01*
X0164847Y0119180D01*
X0164420Y0118753D01*
X0164085Y0118251D01*
X0163854Y0117694D01*
X0163736Y0117102D01*
X0163736Y0116800D01*
X0163736Y0116498D01*
X0163854Y0115906D01*
X0164085Y0115349D01*
X0164420Y0114847D01*
X0164847Y0114420D01*
X0165349Y0114085D01*
X0165906Y0113854D01*
X0166498Y0113736D01*
X0166800Y0113736D01*
X0167102Y0113736D01*
X0167694Y0113854D01*
X0168251Y0114085D01*
X0168753Y0114420D01*
X0169180Y0114847D01*
X0169515Y0115349D01*
X0169746Y0115906D01*
X0169864Y0116498D01*
X0169864Y0116800D01*
X0169864Y0117102D01*
X0169746Y0117694D01*
X0169515Y0118251D01*
X0169180Y0118753D01*
X0168753Y0119180D01*
X0168251Y0119515D01*
X0168023Y0119609D01*
X0212109Y0119609D01*
X0212109Y0090991D01*
X0150893Y0090991D01*
X0149609Y0089707D01*
X0149609Y0058393D01*
X0150893Y0057109D01*
X0213207Y0057109D01*
X0214491Y0058393D01*
X0214491Y0077109D01*
X0307707Y0077109D01*
X0308398Y0077800D01*
X0309300Y0078566D02*
X0328023Y0078566D01*
X0328099Y0078489D02*
X0329262Y0078008D01*
X0330520Y0078008D01*
X0331682Y0078489D01*
X0332571Y0079379D01*
X0333053Y0080541D01*
X0333053Y0081799D01*
X0332571Y0082961D01*
X0331682Y0083851D01*
X0330520Y0084332D01*
X0329262Y0084332D01*
X0328099Y0083851D01*
X0327210Y0082961D01*
X0326728Y0081799D01*
X0326728Y0080541D01*
X0327210Y0079379D01*
X0328099Y0078489D01*
X0326884Y0080164D02*
X0309300Y0080164D01*
X0309300Y0081763D02*
X0326728Y0081763D01*
X0327610Y0083361D02*
X0309300Y0083361D01*
X0309300Y0084960D02*
X0367476Y0084960D01*
X0367476Y0086558D02*
X0309300Y0086558D01*
X0309300Y0088157D02*
X0346734Y0088157D01*
X0346813Y0088078D02*
X0348427Y0087409D01*
X0350173Y0087409D01*
X0351787Y0088078D01*
X0353022Y0089313D01*
X0353691Y0090927D01*
X0353691Y0092673D01*
X0353022Y0094287D01*
X0351787Y0095522D01*
X0350173Y0096191D01*
X0348427Y0096191D01*
X0346813Y0095522D01*
X0345578Y0094287D01*
X0344909Y0092673D01*
X0344909Y0090927D01*
X0345578Y0089313D01*
X0346813Y0088078D01*
X0345395Y0089755D02*
X0309300Y0089755D01*
X0309300Y0091354D02*
X0344909Y0091354D01*
X0345025Y0092952D02*
X0309300Y0092952D01*
X0309300Y0094551D02*
X0345842Y0094551D01*
X0348327Y0096149D02*
X0309300Y0096149D01*
X0309300Y0097748D02*
X0347148Y0097748D01*
X0346896Y0097877D02*
X0347539Y0097549D01*
X0348226Y0097326D01*
X0348939Y0097213D01*
X0349100Y0097213D01*
X0349100Y0101600D01*
X0349500Y0101600D01*
X0349500Y0102000D01*
X0353887Y0102000D01*
X0353887Y0102161D01*
X0353774Y0102874D01*
X0353551Y0103561D01*
X0353223Y0104204D01*
X0352799Y0104788D01*
X0352288Y0105299D01*
X0351704Y0105723D01*
X0351061Y0106051D01*
X0350374Y0106274D01*
X0349661Y0106387D01*
X0349500Y0106387D01*
X0349500Y0102000D01*
X0349100Y0102000D01*
X0349100Y0106387D01*
X0348939Y0106387D01*
X0348226Y0106274D01*
X0347539Y0106051D01*
X0346896Y0105723D01*
X0346312Y0105299D01*
X0345801Y0104788D01*
X0345377Y0104204D01*
X0345049Y0103561D01*
X0344826Y0102874D01*
X0344713Y0102161D01*
X0344713Y0102000D01*
X0349100Y0102000D01*
X0349100Y0101600D01*
X0344713Y0101600D01*
X0344713Y0101439D01*
X0344826Y0100726D01*
X0345049Y0100039D01*
X0345377Y0099396D01*
X0345801Y0098812D01*
X0346312Y0098301D01*
X0346896Y0097877D01*
X0345412Y0099346D02*
X0309300Y0099346D01*
X0309300Y0100945D02*
X0344791Y0100945D01*
X0344773Y0102543D02*
X0309300Y0102543D01*
X0309300Y0104142D02*
X0320725Y0104142D01*
X0321230Y0103933D02*
X0320176Y0104370D01*
X0319370Y0105176D01*
X0318933Y0106230D01*
X0318933Y0107370D01*
X0319370Y0108424D01*
X0320176Y0109230D01*
X0321230Y0109667D01*
X0322370Y0109667D01*
X0323424Y0109230D01*
X0324230Y0108424D01*
X0324667Y0107370D01*
X0324667Y0106230D01*
X0324230Y0105176D01*
X0323424Y0104370D01*
X0322370Y0103933D01*
X0321230Y0103933D01*
X0322875Y0104142D02*
X0345345Y0104142D01*
X0346929Y0105740D02*
X0324464Y0105740D01*
X0324667Y0107339D02*
X0367476Y0107339D01*
X0367476Y0108937D02*
X0323717Y0108937D01*
X0319883Y0108937D02*
X0309300Y0108937D01*
X0309300Y0107339D02*
X0318933Y0107339D01*
X0319136Y0105740D02*
X0309300Y0105740D01*
X0306800Y0105740D02*
X0214300Y0105740D01*
X0214300Y0104142D02*
X0306800Y0104142D01*
X0306800Y0102543D02*
X0214300Y0102543D01*
X0214300Y0100945D02*
X0306800Y0100945D01*
X0306800Y0099346D02*
X0214300Y0099346D01*
X0214300Y0097748D02*
X0306800Y0097748D01*
X0306800Y0096149D02*
X0214300Y0096149D01*
X0214300Y0094551D02*
X0306800Y0094551D01*
X0306800Y0092952D02*
X0214300Y0092952D01*
X0214300Y0091354D02*
X0306800Y0091354D01*
X0306800Y0089755D02*
X0214443Y0089755D01*
X0214491Y0089707D02*
X0214300Y0089898D01*
X0214300Y0121800D01*
X0141800Y0121800D01*
X0141800Y0164300D01*
X0273616Y0164300D01*
X0272843Y0163980D01*
X0272120Y0163257D01*
X0271728Y0162312D01*
X0271728Y0161288D01*
X0272120Y0160343D01*
X0272843Y0159620D01*
X0273788Y0159228D01*
X0274812Y0159228D01*
X0275757Y0159620D01*
X0276480Y0160343D01*
X0276872Y0161288D01*
X0276872Y0162312D01*
X0276480Y0163257D01*
X0275757Y0163980D01*
X0274984Y0164300D01*
X0289300Y0164300D01*
X0289300Y0222034D01*
X0289507Y0222120D01*
X0290230Y0222843D01*
X0290622Y0223788D01*
X0290622Y0224812D01*
X0290230Y0225757D01*
X0289507Y0226480D01*
X0289300Y0226566D01*
X0289300Y0284300D01*
X0306800Y0284300D01*
X0306800Y0079300D01*
X0254573Y0079300D01*
X0254753Y0079420D01*
X0255180Y0079847D01*
X0255515Y0080349D01*
X0255746Y0080906D01*
X0255864Y0081498D01*
X0255864Y0081800D01*
X0255864Y0082102D01*
X0255746Y0082694D01*
X0255515Y0083251D01*
X0255180Y0083753D01*
X0254753Y0084180D01*
X0254251Y0084515D01*
X0253694Y0084746D01*
X0253102Y0084864D01*
X0252800Y0084864D01*
X0252498Y0084864D01*
X0251906Y0084746D01*
X0251349Y0084515D01*
X0250847Y0084180D01*
X0250420Y0083753D01*
X0250085Y0083251D01*
X0249854Y0082694D01*
X0249736Y0082102D01*
X0249736Y0081800D01*
X0249736Y0081498D01*
X0249854Y0080906D01*
X0250085Y0080349D01*
X0250420Y0079847D01*
X0250847Y0079420D01*
X0251027Y0079300D01*
X0214491Y0079300D01*
X0214491Y0089707D01*
X0214491Y0088157D02*
X0306800Y0088157D01*
X0306800Y0086558D02*
X0214491Y0086558D01*
X0214491Y0084960D02*
X0306800Y0084960D01*
X0306800Y0083361D02*
X0255442Y0083361D01*
X0255864Y0081800D02*
X0252800Y0081800D01*
X0252800Y0081800D01*
X0252800Y0081800D01*
X0252800Y0084864D01*
X0252800Y0081800D01*
X0255864Y0081800D01*
X0255864Y0081763D02*
X0306800Y0081763D01*
X0306800Y0080164D02*
X0255392Y0080164D01*
X0252800Y0081800D02*
X0249736Y0081800D01*
X0252800Y0081800D01*
X0252800Y0081800D01*
X0252800Y0083361D02*
X0252800Y0083361D01*
X0250158Y0083361D02*
X0214491Y0083361D01*
X0214491Y0081763D02*
X0249736Y0081763D01*
X0250208Y0080164D02*
X0214491Y0080164D01*
X0212300Y0080164D02*
X0181058Y0080164D01*
X0181068Y0080225D02*
X0175575Y0080225D01*
X0175575Y0081775D01*
X0181068Y0081775D01*
X0180956Y0082478D01*
X0180649Y0083423D01*
X0180198Y0084308D01*
X0179614Y0085112D01*
X0178912Y0085814D01*
X0178108Y0086398D01*
X0177223Y0086849D01*
X0176278Y0087156D01*
X0175575Y0087268D01*
X0175575Y0081775D01*
X0174025Y0081775D01*
X0174025Y0087268D01*
X0173322Y0087156D01*
X0172377Y0086849D01*
X0171492Y0086398D01*
X0170688Y0085814D01*
X0169986Y0085112D01*
X0169402Y0084308D01*
X0168951Y0083423D01*
X0168644Y0082478D01*
X0168532Y0081775D01*
X0174025Y0081775D01*
X0174025Y0080225D01*
X0175575Y0080225D01*
X0175575Y0074732D01*
X0176278Y0074844D01*
X0177223Y0075151D01*
X0178108Y0075602D01*
X0178912Y0076186D01*
X0179614Y0076888D01*
X0180198Y0077692D01*
X0180649Y0078577D01*
X0180956Y0079522D01*
X0181068Y0080225D01*
X0180644Y0078566D02*
X0212300Y0078566D01*
X0212300Y0076967D02*
X0179672Y0076967D01*
X0177651Y0075369D02*
X0212300Y0075369D01*
X0212300Y0073770D02*
X0205346Y0073770D01*
X0205502Y0073657D02*
X0204774Y0074186D01*
X0203973Y0074594D01*
X0203118Y0074872D01*
X0202355Y0074993D01*
X0202355Y0069875D01*
X0201205Y0069875D01*
X0201205Y0068725D01*
X0196088Y0068725D01*
X0196209Y0067962D01*
X0196486Y0067107D01*
X0196895Y0066306D01*
X0197423Y0065579D01*
X0198059Y0064943D01*
X0198786Y0064414D01*
X0199588Y0064006D01*
X0200443Y0063728D01*
X0201205Y0063607D01*
X0201205Y0068725D01*
X0202355Y0068725D01*
X0202355Y0063607D01*
X0203118Y0063728D01*
X0203973Y0064006D01*
X0204774Y0064414D01*
X0205502Y0064943D01*
X0206137Y0065579D01*
X0206666Y0066306D01*
X0207074Y0067107D01*
X0207352Y0067962D01*
X0207473Y0068725D01*
X0202355Y0068725D01*
X0202355Y0069875D01*
X0207473Y0069875D01*
X0207352Y0070638D01*
X0207074Y0071493D01*
X0206666Y0072294D01*
X0206137Y0073021D01*
X0205502Y0073657D01*
X0206728Y0072172D02*
X0212300Y0072172D01*
X0212300Y0070573D02*
X0207362Y0070573D01*
X0207162Y0067376D02*
X0212300Y0067376D01*
X0212300Y0065778D02*
X0206282Y0065778D01*
X0204313Y0064179D02*
X0212300Y0064179D01*
X0212300Y0062581D02*
X0178630Y0062581D01*
X0178912Y0062786D02*
X0179614Y0063488D01*
X0180198Y0064292D01*
X0180649Y0065177D01*
X0180956Y0066122D01*
X0181068Y0066825D01*
X0175575Y0066825D01*
X0175575Y0068375D01*
X0181068Y0068375D01*
X0180956Y0069078D01*
X0180649Y0070023D01*
X0180198Y0070908D01*
X0179614Y0071712D01*
X0178912Y0072414D01*
X0178108Y0072998D01*
X0177223Y0073449D01*
X0176278Y0073756D01*
X0175575Y0073868D01*
X0175575Y0068375D01*
X0174025Y0068375D01*
X0174025Y0073868D01*
X0173322Y0073756D01*
X0172377Y0073449D01*
X0171492Y0072998D01*
X0170688Y0072414D01*
X0169986Y0071712D01*
X0169402Y0070908D01*
X0168951Y0070023D01*
X0168644Y0069078D01*
X0168532Y0068375D01*
X0174025Y0068375D01*
X0174025Y0066825D01*
X0175575Y0066825D01*
X0175575Y0061332D01*
X0176278Y0061444D01*
X0177223Y0061751D01*
X0178108Y0062202D01*
X0178912Y0062786D01*
X0180116Y0064179D02*
X0199248Y0064179D01*
X0201205Y0064179D02*
X0202355Y0064179D01*
X0202355Y0065778D02*
X0201205Y0065778D01*
X0201205Y0067376D02*
X0202355Y0067376D01*
X0202355Y0068975D02*
X0212300Y0068975D01*
X0214491Y0068975D02*
X0216265Y0068975D01*
X0216265Y0068203D02*
X0217104Y0066176D01*
X0218656Y0064624D01*
X0220683Y0063784D01*
X0222877Y0063784D01*
X0224905Y0064624D01*
X0226456Y0066176D01*
X0227296Y0068203D01*
X0227296Y0070397D01*
X0226456Y0072424D01*
X0224905Y0073976D01*
X0222877Y0074816D01*
X0220683Y0074816D01*
X0218656Y0073976D01*
X0217104Y0072424D01*
X0216265Y0070397D01*
X0216265Y0068203D01*
X0216607Y0067376D02*
X0214491Y0067376D01*
X0214491Y0065778D02*
X0217502Y0065778D01*
X0219730Y0064179D02*
X0214491Y0064179D01*
X0214491Y0062581D02*
X0308802Y0062581D01*
X0308414Y0062741D02*
X0309577Y0062260D01*
X0310835Y0062260D01*
X0311997Y0062741D01*
X0312886Y0063631D01*
X0313368Y0064793D01*
X0313368Y0066051D01*
X0312886Y0067213D01*
X0311997Y0068103D01*
X0310835Y0068584D01*
X0309577Y0068584D01*
X0308414Y0068103D01*
X0307525Y0067213D01*
X0307043Y0066051D01*
X0307043Y0064793D01*
X0307525Y0063631D01*
X0308414Y0062741D01*
X0307298Y0064179D02*
X0223830Y0064179D01*
X0226058Y0065778D02*
X0307043Y0065778D01*
X0307688Y0067376D02*
X0226953Y0067376D01*
X0227296Y0068975D02*
X0321800Y0068975D01*
X0321800Y0070573D02*
X0227223Y0070573D01*
X0226561Y0072172D02*
X0321800Y0072172D01*
X0321800Y0073770D02*
X0225110Y0073770D01*
X0218450Y0073770D02*
X0214491Y0073770D01*
X0214491Y0072172D02*
X0217000Y0072172D01*
X0216338Y0070573D02*
X0214491Y0070573D01*
X0214491Y0075369D02*
X0321800Y0075369D01*
X0321800Y0076967D02*
X0214491Y0076967D01*
X0212300Y0081763D02*
X0196096Y0081763D01*
X0196180Y0081847D02*
X0196515Y0082349D01*
X0196746Y0082906D01*
X0196864Y0083498D01*
X0196864Y0083800D01*
X0196864Y0084102D01*
X0196746Y0084694D01*
X0196515Y0085251D01*
X0196180Y0085753D01*
X0195753Y0086180D01*
X0195251Y0086515D01*
X0194694Y0086746D01*
X0194102Y0086864D01*
X0193800Y0086864D01*
X0193498Y0086864D01*
X0192906Y0086746D01*
X0192349Y0086515D01*
X0191847Y0086180D01*
X0191420Y0085753D01*
X0191085Y0085251D01*
X0190854Y0084694D01*
X0190736Y0084102D01*
X0190736Y0083800D01*
X0190736Y0083498D01*
X0190854Y0082906D01*
X0191085Y0082349D01*
X0191420Y0081847D01*
X0191847Y0081420D01*
X0192349Y0081085D01*
X0192906Y0080854D01*
X0193498Y0080736D01*
X0193800Y0080736D01*
X0194102Y0080736D01*
X0194694Y0080854D01*
X0195251Y0081085D01*
X0195753Y0081420D01*
X0196180Y0081847D01*
X0196837Y0083361D02*
X0212300Y0083361D01*
X0212300Y0084960D02*
X0196636Y0084960D01*
X0196864Y0083800D02*
X0193800Y0083800D01*
X0193800Y0083800D01*
X0193800Y0083800D01*
X0193800Y0086864D01*
X0193800Y0083800D01*
X0196864Y0083800D01*
X0193800Y0083800D02*
X0193800Y0080736D01*
X0193800Y0083800D01*
X0193800Y0083800D01*
X0193800Y0083800D01*
X0190736Y0083800D01*
X0193800Y0083800D01*
X0193800Y0083361D02*
X0193800Y0083361D01*
X0193800Y0081763D02*
X0193800Y0081763D01*
X0191504Y0081763D02*
X0175575Y0081763D01*
X0174025Y0081763D02*
X0151800Y0081763D01*
X0151800Y0083361D02*
X0168931Y0083361D01*
X0169875Y0084960D02*
X0151800Y0084960D01*
X0151800Y0086558D02*
X0171806Y0086558D01*
X0174025Y0086558D02*
X0175575Y0086558D01*
X0175575Y0084960D02*
X0174025Y0084960D01*
X0174025Y0083361D02*
X0175575Y0083361D01*
X0175575Y0080164D02*
X0174025Y0080164D01*
X0174025Y0080225D02*
X0174025Y0074732D01*
X0173322Y0074844D01*
X0172377Y0075151D01*
X0171492Y0075602D01*
X0170688Y0076186D01*
X0169986Y0076888D01*
X0169402Y0077692D01*
X0168951Y0078577D01*
X0168644Y0079522D01*
X0168532Y0080225D01*
X0174025Y0080225D01*
X0174025Y0078566D02*
X0175575Y0078566D01*
X0175575Y0076967D02*
X0174025Y0076967D01*
X0174025Y0075369D02*
X0175575Y0075369D01*
X0175575Y0073770D02*
X0174025Y0073770D01*
X0173409Y0073770D02*
X0151800Y0073770D01*
X0151800Y0072172D02*
X0170445Y0072172D01*
X0169231Y0070573D02*
X0151800Y0070573D01*
X0151800Y0068975D02*
X0168627Y0068975D01*
X0168532Y0066825D02*
X0168644Y0066122D01*
X0168951Y0065177D01*
X0169402Y0064292D01*
X0169986Y0063488D01*
X0170688Y0062786D01*
X0171492Y0062202D01*
X0172377Y0061751D01*
X0173322Y0061444D01*
X0174025Y0061332D01*
X0174025Y0066825D01*
X0168532Y0066825D01*
X0168755Y0065778D02*
X0151800Y0065778D01*
X0151800Y0067376D02*
X0174025Y0067376D01*
X0175575Y0067376D02*
X0196399Y0067376D01*
X0197279Y0065778D02*
X0180845Y0065778D01*
X0180973Y0068975D02*
X0201205Y0068975D01*
X0201205Y0069875D02*
X0196088Y0069875D01*
X0196209Y0070638D01*
X0196486Y0071493D01*
X0196895Y0072294D01*
X0197423Y0073021D01*
X0198059Y0073657D01*
X0198786Y0074186D01*
X0199588Y0074594D01*
X0200443Y0074872D01*
X0201205Y0074993D01*
X0201205Y0069875D01*
X0201205Y0070573D02*
X0202355Y0070573D01*
X0202355Y0072172D02*
X0201205Y0072172D01*
X0201205Y0073770D02*
X0202355Y0073770D01*
X0198215Y0073770D02*
X0176191Y0073770D01*
X0175575Y0072172D02*
X0174025Y0072172D01*
X0174025Y0070573D02*
X0175575Y0070573D01*
X0175575Y0068975D02*
X0174025Y0068975D01*
X0174025Y0065778D02*
X0175575Y0065778D01*
X0175575Y0064179D02*
X0174025Y0064179D01*
X0174025Y0062581D02*
X0175575Y0062581D01*
X0170970Y0062581D02*
X0151800Y0062581D01*
X0151800Y0064179D02*
X0169484Y0064179D01*
X0171949Y0075369D02*
X0151800Y0075369D01*
X0151800Y0076967D02*
X0169928Y0076967D01*
X0168956Y0078566D02*
X0151800Y0078566D01*
X0151800Y0080164D02*
X0168542Y0080164D01*
X0177794Y0086558D02*
X0192453Y0086558D01*
X0193800Y0086558D02*
X0193800Y0086558D01*
X0195147Y0086558D02*
X0212300Y0086558D01*
X0212300Y0088157D02*
X0151800Y0088157D01*
X0151800Y0088800D02*
X0212300Y0088800D01*
X0212300Y0059300D01*
X0151800Y0059300D01*
X0151800Y0088800D01*
X0149609Y0088157D02*
X0091300Y0088157D01*
X0091300Y0089755D02*
X0113902Y0089755D01*
X0113998Y0089736D02*
X0114300Y0089736D01*
X0114602Y0089736D01*
X0115194Y0089854D01*
X0115751Y0090085D01*
X0116253Y0090420D01*
X0116680Y0090847D01*
X0117015Y0091349D01*
X0117246Y0091906D01*
X0117364Y0092498D01*
X0117364Y0092800D01*
X0117364Y0093102D01*
X0117246Y0093694D01*
X0117015Y0094251D01*
X0116680Y0094753D01*
X0116253Y0095180D01*
X0115751Y0095515D01*
X0115194Y0095746D01*
X0114602Y0095864D01*
X0114300Y0095864D01*
X0113998Y0095864D01*
X0113406Y0095746D01*
X0112849Y0095515D01*
X0112347Y0095180D01*
X0111920Y0094753D01*
X0111585Y0094251D01*
X0111354Y0093694D01*
X0111236Y0093102D01*
X0111236Y0092800D01*
X0111236Y0092498D01*
X0111354Y0091906D01*
X0111585Y0091349D01*
X0111920Y0090847D01*
X0112347Y0090420D01*
X0112849Y0090085D01*
X0113406Y0089854D01*
X0113998Y0089736D01*
X0114300Y0089736D02*
X0114300Y0092800D01*
X0117364Y0092800D01*
X0114300Y0092800D01*
X0114300Y0092800D01*
X0114300Y0092800D01*
X0114300Y0095864D01*
X0114300Y0092800D01*
X0114300Y0089736D01*
X0114300Y0089755D02*
X0114300Y0089755D01*
X0114698Y0089755D02*
X0149657Y0089755D01*
X0149609Y0086558D02*
X0136794Y0086558D01*
X0137108Y0086398D02*
X0136223Y0086849D01*
X0135278Y0087156D01*
X0134575Y0087268D01*
X0134575Y0081775D01*
X0140068Y0081775D01*
X0139956Y0082478D01*
X0139649Y0083423D01*
X0139198Y0084308D01*
X0138614Y0085112D01*
X0137912Y0085814D01*
X0137108Y0086398D01*
X0138725Y0084960D02*
X0149609Y0084960D01*
X0149609Y0083361D02*
X0139669Y0083361D01*
X0140068Y0080225D02*
X0134575Y0080225D01*
X0134575Y0081775D01*
X0133025Y0081775D01*
X0133025Y0087268D01*
X0132322Y0087156D01*
X0131377Y0086849D01*
X0130492Y0086398D01*
X0129688Y0085814D01*
X0128986Y0085112D01*
X0128402Y0084308D01*
X0127951Y0083423D01*
X0127644Y0082478D01*
X0127532Y0081775D01*
X0133025Y0081775D01*
X0133025Y0080225D01*
X0134575Y0080225D01*
X0134575Y0074732D01*
X0135278Y0074844D01*
X0136223Y0075151D01*
X0137108Y0075602D01*
X0137912Y0076186D01*
X0138614Y0076888D01*
X0139198Y0077692D01*
X0139649Y0078577D01*
X0139956Y0079522D01*
X0140068Y0080225D01*
X0140058Y0080164D02*
X0149609Y0080164D01*
X0149609Y0078566D02*
X0139644Y0078566D01*
X0138672Y0076967D02*
X0149609Y0076967D01*
X0149609Y0075369D02*
X0136651Y0075369D01*
X0136223Y0073449D02*
X0135278Y0073756D01*
X0134575Y0073868D01*
X0134575Y0068375D01*
X0140068Y0068375D01*
X0139956Y0069078D01*
X0139649Y0070023D01*
X0139198Y0070908D01*
X0138614Y0071712D01*
X0137912Y0072414D01*
X0137108Y0072998D01*
X0136223Y0073449D01*
X0135191Y0073770D02*
X0149609Y0073770D01*
X0149609Y0072172D02*
X0138155Y0072172D01*
X0139369Y0070573D02*
X0149609Y0070573D01*
X0149609Y0068975D02*
X0139973Y0068975D01*
X0140068Y0066825D02*
X0134575Y0066825D01*
X0134575Y0068375D01*
X0133025Y0068375D01*
X0133025Y0073868D01*
X0132322Y0073756D01*
X0131377Y0073449D01*
X0130492Y0072998D01*
X0129688Y0072414D01*
X0128986Y0071712D01*
X0128402Y0070908D01*
X0127951Y0070023D01*
X0127644Y0069078D01*
X0127532Y0068375D01*
X0133025Y0068375D01*
X0133025Y0066825D01*
X0134575Y0066825D01*
X0134575Y0061332D01*
X0135278Y0061444D01*
X0136223Y0061751D01*
X0137108Y0062202D01*
X0137912Y0062786D01*
X0138614Y0063488D01*
X0139198Y0064292D01*
X0139649Y0065177D01*
X0139956Y0066122D01*
X0140068Y0066825D01*
X0139845Y0065778D02*
X0149609Y0065778D01*
X0149609Y0067376D02*
X0134575Y0067376D01*
X0133025Y0067376D02*
X0091300Y0067376D01*
X0091300Y0065778D02*
X0127755Y0065778D01*
X0127644Y0066122D02*
X0127951Y0065177D01*
X0128402Y0064292D01*
X0128986Y0063488D01*
X0129688Y0062786D01*
X0130492Y0062202D01*
X0131377Y0061751D01*
X0132322Y0061444D01*
X0133025Y0061332D01*
X0133025Y0066825D01*
X0127532Y0066825D01*
X0127644Y0066122D01*
X0128484Y0064179D02*
X0091300Y0064179D01*
X0091300Y0062581D02*
X0129970Y0062581D01*
X0133025Y0062581D02*
X0134575Y0062581D01*
X0134575Y0064179D02*
X0133025Y0064179D01*
X0133025Y0065778D02*
X0134575Y0065778D01*
X0134575Y0068975D02*
X0133025Y0068975D01*
X0133025Y0070573D02*
X0134575Y0070573D01*
X0134575Y0072172D02*
X0133025Y0072172D01*
X0133025Y0073770D02*
X0134575Y0073770D01*
X0134575Y0075369D02*
X0133025Y0075369D01*
X0133025Y0074732D02*
X0133025Y0080225D01*
X0127532Y0080225D01*
X0127644Y0079522D01*
X0127951Y0078577D01*
X0128402Y0077692D01*
X0128986Y0076888D01*
X0129688Y0076186D01*
X0130492Y0075602D01*
X0131377Y0075151D01*
X0132322Y0074844D01*
X0133025Y0074732D01*
X0132409Y0073770D02*
X0091300Y0073770D01*
X0091300Y0072172D02*
X0129445Y0072172D01*
X0128231Y0070573D02*
X0091300Y0070573D01*
X0091300Y0068975D02*
X0127627Y0068975D01*
X0130949Y0075369D02*
X0091300Y0075369D01*
X0091300Y0076967D02*
X0128928Y0076967D01*
X0127956Y0078566D02*
X0095538Y0078566D01*
X0096676Y0080164D02*
X0127542Y0080164D01*
X0127931Y0083361D02*
X0095951Y0083361D01*
X0096832Y0081763D02*
X0133025Y0081763D01*
X0134575Y0081763D02*
X0149609Y0081763D01*
X0134575Y0083361D02*
X0133025Y0083361D01*
X0133025Y0084960D02*
X0134575Y0084960D01*
X0134575Y0086558D02*
X0133025Y0086558D01*
X0130806Y0086558D02*
X0091300Y0086558D01*
X0091300Y0084960D02*
X0128875Y0084960D01*
X0133025Y0080164D02*
X0134575Y0080164D01*
X0134575Y0078566D02*
X0133025Y0078566D01*
X0133025Y0076967D02*
X0134575Y0076967D01*
X0139116Y0064179D02*
X0149609Y0064179D01*
X0149609Y0062581D02*
X0137630Y0062581D01*
X0149609Y0060982D02*
X0091300Y0060982D01*
X0091300Y0059384D02*
X0149609Y0059384D01*
X0150217Y0057785D02*
X0091300Y0057785D01*
X0091300Y0056187D02*
X0321800Y0056187D01*
X0321800Y0057785D02*
X0213883Y0057785D01*
X0214491Y0059384D02*
X0321800Y0059384D01*
X0321800Y0060982D02*
X0214491Y0060982D01*
X0212300Y0060982D02*
X0151800Y0060982D01*
X0151800Y0059384D02*
X0212300Y0059384D01*
X0196198Y0070573D02*
X0180369Y0070573D01*
X0179155Y0072172D02*
X0196832Y0072172D01*
X0190763Y0083361D02*
X0180669Y0083361D01*
X0179725Y0084960D02*
X0190964Y0084960D01*
X0193800Y0084960D02*
X0193800Y0084960D01*
X0193102Y0099736D02*
X0193694Y0099854D01*
X0194251Y0100085D01*
X0194753Y0100420D01*
X0195180Y0100847D01*
X0195515Y0101349D01*
X0195746Y0101906D01*
X0195864Y0102498D01*
X0195864Y0102800D01*
X0195864Y0103102D01*
X0195746Y0103694D01*
X0195515Y0104251D01*
X0195180Y0104753D01*
X0194753Y0105180D01*
X0194251Y0105515D01*
X0193694Y0105746D01*
X0193102Y0105864D01*
X0192800Y0105864D01*
X0192498Y0105864D01*
X0191906Y0105746D01*
X0191349Y0105515D01*
X0190847Y0105180D01*
X0190420Y0104753D01*
X0190085Y0104251D01*
X0189864Y0103717D01*
X0189864Y0103800D01*
X0189864Y0104102D01*
X0189746Y0104694D01*
X0189515Y0105251D01*
X0189180Y0105753D01*
X0188753Y0106180D01*
X0188251Y0106515D01*
X0187694Y0106746D01*
X0187102Y0106864D01*
X0186800Y0106864D01*
X0186498Y0106864D01*
X0185906Y0106746D01*
X0185349Y0106515D01*
X0184847Y0106180D01*
X0184420Y0105753D01*
X0184085Y0105251D01*
X0183854Y0104694D01*
X0183736Y0104102D01*
X0183736Y0103800D01*
X0183736Y0103498D01*
X0183854Y0102906D01*
X0184085Y0102349D01*
X0184420Y0101847D01*
X0184847Y0101420D01*
X0185349Y0101085D01*
X0185906Y0100854D01*
X0186498Y0100736D01*
X0186800Y0100736D01*
X0187102Y0100736D01*
X0187694Y0100854D01*
X0188251Y0101085D01*
X0188753Y0101420D01*
X0189180Y0101847D01*
X0189515Y0102349D01*
X0189736Y0102883D01*
X0189736Y0102800D01*
X0189736Y0102498D01*
X0189854Y0101906D01*
X0190085Y0101349D01*
X0190420Y0100847D01*
X0190847Y0100420D01*
X0191349Y0100085D01*
X0191906Y0099854D01*
X0192498Y0099736D01*
X0192800Y0099736D01*
X0193102Y0099736D01*
X0192800Y0099736D02*
X0192800Y0102800D01*
X0195864Y0102800D01*
X0192800Y0102800D01*
X0192800Y0102800D01*
X0192800Y0102800D01*
X0192800Y0105864D01*
X0192800Y0102800D01*
X0192800Y0102800D01*
X0192800Y0102800D01*
X0189736Y0102800D01*
X0192800Y0102800D01*
X0192800Y0099736D01*
X0192800Y0100945D02*
X0192800Y0100945D01*
X0192800Y0102543D02*
X0192800Y0102543D01*
X0192800Y0104142D02*
X0192800Y0104142D01*
X0192800Y0105740D02*
X0192800Y0105740D01*
X0193707Y0105740D02*
X0204893Y0105740D01*
X0204906Y0105746D02*
X0204349Y0105515D01*
X0203847Y0105180D01*
X0203420Y0104753D01*
X0203085Y0104251D01*
X0202854Y0103694D01*
X0202736Y0103102D01*
X0202736Y0102800D01*
X0202736Y0102498D01*
X0202854Y0101906D01*
X0203085Y0101349D01*
X0203420Y0100847D01*
X0203847Y0100420D01*
X0204349Y0100085D01*
X0204906Y0099854D01*
X0205498Y0099736D01*
X0205800Y0099736D01*
X0206102Y0099736D01*
X0206694Y0099854D01*
X0207251Y0100085D01*
X0207753Y0100420D01*
X0208180Y0100847D01*
X0208515Y0101349D01*
X0208746Y0101906D01*
X0208864Y0102498D01*
X0208864Y0102800D01*
X0208864Y0103102D01*
X0208746Y0103694D01*
X0208515Y0104251D01*
X0208180Y0104753D01*
X0207753Y0105180D01*
X0207251Y0105515D01*
X0206694Y0105746D01*
X0206102Y0105864D01*
X0205800Y0105864D01*
X0205498Y0105864D01*
X0204906Y0105746D01*
X0205800Y0105740D02*
X0205800Y0105740D01*
X0205800Y0105864D02*
X0205800Y0102800D01*
X0208864Y0102800D01*
X0205800Y0102800D01*
X0205800Y0102800D01*
X0205800Y0102800D01*
X0205800Y0105864D01*
X0206707Y0105740D02*
X0212109Y0105740D01*
X0212109Y0104142D02*
X0208560Y0104142D01*
X0208864Y0102543D02*
X0212109Y0102543D01*
X0212109Y0100945D02*
X0208245Y0100945D01*
X0205800Y0100945D02*
X0205800Y0100945D01*
X0205800Y0099736D02*
X0205800Y0102800D01*
X0205800Y0102800D01*
X0205800Y0102800D01*
X0202736Y0102800D01*
X0205800Y0102800D01*
X0205800Y0099736D01*
X0203355Y0100945D02*
X0195245Y0100945D01*
X0195864Y0102543D02*
X0202736Y0102543D01*
X0203040Y0104142D02*
X0195560Y0104142D01*
X0191893Y0105740D02*
X0189188Y0105740D01*
X0189856Y0104142D02*
X0190040Y0104142D01*
X0189864Y0103800D02*
X0186800Y0103800D01*
X0186800Y0103800D01*
X0186800Y0106864D01*
X0186800Y0103800D01*
X0186800Y0103800D01*
X0186800Y0100736D01*
X0186800Y0103800D01*
X0186800Y0103800D01*
X0186800Y0103800D01*
X0183736Y0103800D01*
X0186800Y0103800D01*
X0189864Y0103800D01*
X0189736Y0102543D02*
X0189596Y0102543D01*
X0190355Y0100945D02*
X0187913Y0100945D01*
X0186800Y0100945D02*
X0186800Y0100945D01*
X0185687Y0100945D02*
X0118353Y0100945D01*
X0118364Y0100998D02*
X0118364Y0101300D01*
X0118364Y0101602D01*
X0118246Y0102194D01*
X0118015Y0102751D01*
X0117680Y0103253D01*
X0117253Y0103680D01*
X0116751Y0104015D01*
X0116194Y0104246D01*
X0115602Y0104364D01*
X0115300Y0104364D01*
X0114998Y0104364D01*
X0114406Y0104246D01*
X0113849Y0104015D01*
X0113347Y0103680D01*
X0112920Y0103253D01*
X0112585Y0102751D01*
X0112354Y0102194D01*
X0112236Y0101602D01*
X0112236Y0101300D01*
X0112236Y0100998D01*
X0112354Y0100406D01*
X0112585Y0099849D01*
X0112920Y0099347D01*
X0113347Y0098920D01*
X0113849Y0098585D01*
X0114406Y0098354D01*
X0114998Y0098236D01*
X0115300Y0098236D01*
X0115602Y0098236D01*
X0116194Y0098354D01*
X0116751Y0098585D01*
X0117253Y0098920D01*
X0117680Y0099347D01*
X0118015Y0099849D01*
X0118246Y0100406D01*
X0118364Y0100998D01*
X0118364Y0101300D02*
X0115300Y0101300D01*
X0118364Y0101300D01*
X0118101Y0102543D02*
X0184004Y0102543D01*
X0183744Y0104142D02*
X0116445Y0104142D01*
X0115300Y0104142D02*
X0115300Y0104142D01*
X0115300Y0104364D02*
X0115300Y0101300D01*
X0115300Y0101300D01*
X0115300Y0101300D01*
X0115300Y0104364D01*
X0114155Y0104142D02*
X0091300Y0104142D01*
X0091300Y0105740D02*
X0184412Y0105740D01*
X0186800Y0105740D02*
X0186800Y0105740D01*
X0186800Y0104142D02*
X0186800Y0104142D01*
X0186800Y0102543D02*
X0186800Y0102543D01*
X0179481Y0107509D02*
X0179962Y0108671D01*
X0179962Y0109929D01*
X0179481Y0111091D01*
X0178591Y0111981D01*
X0177429Y0112462D01*
X0176171Y0112462D01*
X0175009Y0111981D01*
X0174119Y0111091D01*
X0173638Y0109929D01*
X0173638Y0108671D01*
X0174119Y0107509D01*
X0175009Y0106619D01*
X0176171Y0106138D01*
X0177429Y0106138D01*
X0178591Y0106619D01*
X0179481Y0107509D01*
X0179311Y0107339D02*
X0212109Y0107339D01*
X0212109Y0108937D02*
X0179962Y0108937D01*
X0179711Y0110536D02*
X0212109Y0110536D01*
X0212109Y0112134D02*
X0178220Y0112134D01*
X0175380Y0112134D02*
X0105720Y0112134D01*
X0106091Y0111981D02*
X0104929Y0112462D01*
X0103671Y0112462D01*
X0102509Y0111981D01*
X0101619Y0111091D01*
X0101138Y0109929D01*
X0101138Y0108671D01*
X0101619Y0107509D01*
X0102509Y0106619D01*
X0103671Y0106138D01*
X0104929Y0106138D01*
X0106091Y0106619D01*
X0106981Y0107509D01*
X0107462Y0108671D01*
X0107462Y0109929D01*
X0106981Y0111091D01*
X0106091Y0111981D01*
X0107211Y0110536D02*
X0173889Y0110536D01*
X0173638Y0108937D02*
X0107462Y0108937D01*
X0106811Y0107339D02*
X0174289Y0107339D01*
X0169504Y0115332D02*
X0212109Y0115332D01*
X0212109Y0116930D02*
X0169864Y0116930D01*
X0169864Y0116800D02*
X0166800Y0116800D01*
X0166800Y0116800D01*
X0169864Y0116800D01*
X0169330Y0118529D02*
X0212109Y0118529D01*
X0214300Y0118529D02*
X0306800Y0118529D01*
X0306800Y0120127D02*
X0214300Y0120127D01*
X0214300Y0121726D02*
X0306800Y0121726D01*
X0306800Y0123324D02*
X0276679Y0123324D01*
X0276872Y0123788D02*
X0276480Y0122843D01*
X0275757Y0122120D01*
X0274812Y0121728D01*
X0273788Y0121728D01*
X0272843Y0122120D01*
X0272120Y0122843D01*
X0271728Y0123788D01*
X0271728Y0124812D01*
X0272120Y0125757D01*
X0272843Y0126480D01*
X0273788Y0126872D01*
X0274812Y0126872D01*
X0275757Y0126480D01*
X0276480Y0125757D01*
X0276872Y0124812D01*
X0276872Y0123788D01*
X0276826Y0124923D02*
X0306800Y0124923D01*
X0306800Y0126521D02*
X0275658Y0126521D01*
X0272942Y0126521D02*
X0254372Y0126521D01*
X0254372Y0126288D02*
X0253980Y0125343D01*
X0253257Y0124620D01*
X0252312Y0124228D01*
X0251288Y0124228D01*
X0250343Y0124620D01*
X0249620Y0125343D01*
X0249228Y0126288D01*
X0249228Y0127312D01*
X0249620Y0128257D01*
X0250343Y0128980D01*
X0251288Y0129372D01*
X0252312Y0129372D01*
X0253257Y0128980D01*
X0253980Y0128257D01*
X0254372Y0127312D01*
X0254372Y0126288D01*
X0253559Y0124923D02*
X0271774Y0124923D01*
X0271921Y0123324D02*
X0141800Y0123324D01*
X0141800Y0124923D02*
X0220041Y0124923D01*
X0220343Y0124620D02*
X0221288Y0124228D01*
X0222312Y0124228D01*
X0223257Y0124620D01*
X0223980Y0125343D01*
X0224372Y0126288D01*
X0224372Y0127312D01*
X0223980Y0128257D01*
X0223257Y0128980D01*
X0222312Y0129372D01*
X0221288Y0129372D01*
X0220343Y0128980D01*
X0219620Y0128257D01*
X0219228Y0127312D01*
X0219228Y0126288D01*
X0219620Y0125343D01*
X0220343Y0124620D01*
X0219228Y0126521D02*
X0141800Y0126521D01*
X0141800Y0128120D02*
X0219563Y0128120D01*
X0224037Y0128120D02*
X0229563Y0128120D01*
X0229620Y0128257D02*
X0229228Y0127312D01*
X0229228Y0126288D01*
X0229620Y0125343D01*
X0230343Y0124620D01*
X0231288Y0124228D01*
X0232312Y0124228D01*
X0233257Y0124620D01*
X0233980Y0125343D01*
X0234372Y0126288D01*
X0234372Y0127312D01*
X0233980Y0128257D01*
X0233257Y0128980D01*
X0232312Y0129372D01*
X0231288Y0129372D01*
X0230343Y0128980D01*
X0229620Y0128257D01*
X0229228Y0126521D02*
X0224372Y0126521D01*
X0223559Y0124923D02*
X0230041Y0124923D01*
X0233559Y0124923D02*
X0240041Y0124923D01*
X0240343Y0124620D02*
X0241288Y0124228D01*
X0242312Y0124228D01*
X0243257Y0124620D01*
X0243980Y0125343D01*
X0244372Y0126288D01*
X0244372Y0127312D01*
X0243980Y0128257D01*
X0243257Y0128980D01*
X0242312Y0129372D01*
X0241288Y0129372D01*
X0240343Y0128980D01*
X0239620Y0128257D01*
X0239228Y0127312D01*
X0239228Y0126288D01*
X0239620Y0125343D01*
X0240343Y0124620D01*
X0239228Y0126521D02*
X0234372Y0126521D01*
X0234037Y0128120D02*
X0239563Y0128120D01*
X0244037Y0128120D02*
X0249563Y0128120D01*
X0249228Y0126521D02*
X0244372Y0126521D01*
X0243559Y0124923D02*
X0250041Y0124923D01*
X0254037Y0128120D02*
X0306800Y0128120D01*
X0306800Y0129718D02*
X0141800Y0129718D01*
X0141800Y0131317D02*
X0306800Y0131317D01*
X0306800Y0132915D02*
X0141800Y0132915D01*
X0141800Y0134514D02*
X0273100Y0134514D01*
X0272843Y0134620D02*
X0273788Y0134228D01*
X0274812Y0134228D01*
X0275757Y0134620D01*
X0276480Y0135343D01*
X0276872Y0136288D01*
X0276872Y0137312D01*
X0276480Y0138257D01*
X0275757Y0138980D01*
X0274812Y0139372D01*
X0273788Y0139372D01*
X0272843Y0138980D01*
X0272120Y0138257D01*
X0271728Y0137312D01*
X0271728Y0136288D01*
X0272120Y0135343D01*
X0272843Y0134620D01*
X0271801Y0136112D02*
X0141800Y0136112D01*
X0141800Y0137711D02*
X0271894Y0137711D01*
X0273638Y0139309D02*
X0141800Y0139309D01*
X0141800Y0140908D02*
X0306800Y0140908D01*
X0306800Y0142506D02*
X0141800Y0142506D01*
X0141800Y0144105D02*
X0145319Y0144105D01*
X0145349Y0144085D02*
X0145906Y0143854D01*
X0146498Y0143736D01*
X0146800Y0143736D01*
X0147102Y0143736D01*
X0147694Y0143854D01*
X0148251Y0144085D01*
X0148753Y0144420D01*
X0149180Y0144847D01*
X0149515Y0145349D01*
X0149746Y0145906D01*
X0149864Y0146498D01*
X0149864Y0146800D01*
X0149864Y0147102D01*
X0149746Y0147694D01*
X0149515Y0148251D01*
X0149180Y0148753D01*
X0148753Y0149180D01*
X0148251Y0149515D01*
X0147694Y0149746D01*
X0147422Y0149800D01*
X0147694Y0149854D01*
X0148251Y0150085D01*
X0148753Y0150420D01*
X0149180Y0150847D01*
X0149515Y0151349D01*
X0149746Y0151906D01*
X0149864Y0152498D01*
X0149864Y0152800D01*
X0149864Y0153102D01*
X0149746Y0153694D01*
X0149515Y0154251D01*
X0149180Y0154753D01*
X0148753Y0155180D01*
X0148251Y0155515D01*
X0147694Y0155746D01*
X0147422Y0155800D01*
X0147694Y0155854D01*
X0148251Y0156085D01*
X0148753Y0156420D01*
X0149180Y0156847D01*
X0149515Y0157349D01*
X0149746Y0157906D01*
X0149864Y0158498D01*
X0149864Y0158800D01*
X0149864Y0159102D01*
X0149746Y0159694D01*
X0149515Y0160251D01*
X0149180Y0160753D01*
X0148753Y0161180D01*
X0148251Y0161515D01*
X0147694Y0161746D01*
X0147102Y0161864D01*
X0146800Y0161864D01*
X0146498Y0161864D01*
X0145906Y0161746D01*
X0145349Y0161515D01*
X0144847Y0161180D01*
X0144420Y0160753D01*
X0144085Y0160251D01*
X0143854Y0159694D01*
X0143736Y0159102D01*
X0143736Y0158800D01*
X0143736Y0158498D01*
X0143854Y0157906D01*
X0144085Y0157349D01*
X0144420Y0156847D01*
X0144847Y0156420D01*
X0145349Y0156085D01*
X0145906Y0155854D01*
X0146178Y0155800D01*
X0145906Y0155746D01*
X0145349Y0155515D01*
X0144847Y0155180D01*
X0144420Y0154753D01*
X0144085Y0154251D01*
X0143854Y0153694D01*
X0143736Y0153102D01*
X0143736Y0152800D01*
X0143736Y0152498D01*
X0143854Y0151906D01*
X0144085Y0151349D01*
X0144420Y0150847D01*
X0144847Y0150420D01*
X0145349Y0150085D01*
X0145906Y0149854D01*
X0146178Y0149800D01*
X0145906Y0149746D01*
X0145349Y0149515D01*
X0144847Y0149180D01*
X0144420Y0148753D01*
X0144085Y0148251D01*
X0143854Y0147694D01*
X0143736Y0147102D01*
X0143736Y0146800D01*
X0143736Y0146498D01*
X0143854Y0145906D01*
X0144085Y0145349D01*
X0144420Y0144847D01*
X0144847Y0144420D01*
X0145349Y0144085D01*
X0146800Y0144105D02*
X0146800Y0144105D01*
X0146800Y0143736D02*
X0146800Y0146800D01*
X0149864Y0146800D01*
X0146800Y0146800D01*
X0146800Y0146800D01*
X0146800Y0146800D01*
X0146800Y0152800D01*
X0149864Y0152800D01*
X0146800Y0152800D01*
X0146800Y0152800D01*
X0146800Y0152800D01*
X0146800Y0158800D01*
X0146800Y0158800D01*
X0146800Y0161864D01*
X0146800Y0158800D01*
X0149864Y0158800D01*
X0146800Y0158800D01*
X0146800Y0158800D01*
X0146800Y0158800D01*
X0143736Y0158800D01*
X0146800Y0158800D01*
X0146800Y0158800D01*
X0146800Y0155736D01*
X0146800Y0152800D01*
X0146800Y0152800D01*
X0143736Y0152800D01*
X0146800Y0152800D01*
X0146800Y0152800D01*
X0146800Y0149864D01*
X0146800Y0146800D01*
X0146800Y0146800D01*
X0143736Y0146800D01*
X0146800Y0146800D01*
X0146800Y0146800D01*
X0146800Y0143736D01*
X0148281Y0144105D02*
X0152819Y0144105D01*
X0152849Y0144085D02*
X0153406Y0143854D01*
X0153998Y0143736D01*
X0154300Y0143736D01*
X0154602Y0143736D01*
X0155194Y0143854D01*
X0155751Y0144085D01*
X0156253Y0144420D01*
X0156680Y0144847D01*
X0157015Y0145349D01*
X0157246Y0145906D01*
X0157364Y0146498D01*
X0157364Y0146800D01*
X0157364Y0147102D01*
X0157246Y0147694D01*
X0157015Y0148251D01*
X0156680Y0148753D01*
X0156253Y0149180D01*
X0155751Y0149515D01*
X0155194Y0149746D01*
X0154922Y0149800D01*
X0155194Y0149854D01*
X0155751Y0150085D01*
X0156253Y0150420D01*
X0156680Y0150847D01*
X0157015Y0151349D01*
X0157246Y0151906D01*
X0157364Y0152498D01*
X0157364Y0152800D01*
X0157364Y0153102D01*
X0157246Y0153694D01*
X0157015Y0154251D01*
X0156680Y0154753D01*
X0156253Y0155180D01*
X0155751Y0155515D01*
X0155194Y0155746D01*
X0154922Y0155800D01*
X0155194Y0155854D01*
X0155751Y0156085D01*
X0156253Y0156420D01*
X0156680Y0156847D01*
X0157015Y0157349D01*
X0157246Y0157906D01*
X0157364Y0158498D01*
X0157364Y0158800D01*
X0157364Y0159102D01*
X0157246Y0159694D01*
X0157015Y0160251D01*
X0156680Y0160753D01*
X0156253Y0161180D01*
X0155751Y0161515D01*
X0155194Y0161746D01*
X0154602Y0161864D01*
X0154300Y0161864D01*
X0153998Y0161864D01*
X0153406Y0161746D01*
X0152849Y0161515D01*
X0152347Y0161180D01*
X0151920Y0160753D01*
X0151585Y0160251D01*
X0151354Y0159694D01*
X0151236Y0159102D01*
X0151236Y0158800D01*
X0151236Y0158498D01*
X0151354Y0157906D01*
X0151585Y0157349D01*
X0151920Y0156847D01*
X0152347Y0156420D01*
X0152849Y0156085D01*
X0153406Y0155854D01*
X0153678Y0155800D01*
X0153406Y0155746D01*
X0152849Y0155515D01*
X0152347Y0155180D01*
X0151920Y0154753D01*
X0151585Y0154251D01*
X0151354Y0153694D01*
X0151236Y0153102D01*
X0151236Y0152800D01*
X0151236Y0152498D01*
X0151354Y0151906D01*
X0151585Y0151349D01*
X0151920Y0150847D01*
X0152347Y0150420D01*
X0152849Y0150085D01*
X0153406Y0149854D01*
X0153678Y0149800D01*
X0153406Y0149746D01*
X0152849Y0149515D01*
X0152347Y0149180D01*
X0151920Y0148753D01*
X0151585Y0148251D01*
X0151354Y0147694D01*
X0151236Y0147102D01*
X0151236Y0146800D01*
X0151236Y0146498D01*
X0151354Y0145906D01*
X0151585Y0145349D01*
X0151920Y0144847D01*
X0152347Y0144420D01*
X0152849Y0144085D01*
X0154300Y0144105D02*
X0154300Y0144105D01*
X0154300Y0143736D02*
X0154300Y0146800D01*
X0157364Y0146800D01*
X0154300Y0146800D01*
X0154300Y0146800D01*
X0154300Y0146800D01*
X0154300Y0149736D01*
X0154300Y0152800D01*
X0157364Y0152800D01*
X0154300Y0152800D01*
X0154300Y0152800D01*
X0154300Y0152800D01*
X0154300Y0155736D01*
X0154300Y0158800D01*
X0157364Y0158800D01*
X0154300Y0158800D01*
X0154300Y0158800D01*
X0154300Y0158800D01*
X0154300Y0161864D01*
X0154300Y0158800D01*
X0154300Y0158800D01*
X0151236Y0158800D01*
X0154300Y0158800D01*
X0154300Y0158800D01*
X0154300Y0152800D01*
X0154300Y0152800D01*
X0151236Y0152800D01*
X0154300Y0152800D01*
X0154300Y0152800D01*
X0154300Y0146800D01*
X0154300Y0146800D01*
X0154300Y0146800D01*
X0151236Y0146800D01*
X0154300Y0146800D01*
X0154300Y0143736D01*
X0155781Y0144105D02*
X0259819Y0144105D01*
X0259849Y0144085D02*
X0260406Y0143854D01*
X0260998Y0143736D01*
X0261300Y0143736D01*
X0261602Y0143736D01*
X0262194Y0143854D01*
X0262751Y0144085D01*
X0263253Y0144420D01*
X0263680Y0144847D01*
X0264015Y0145349D01*
X0264246Y0145906D01*
X0264364Y0146498D01*
X0264364Y0146800D01*
X0264364Y0147102D01*
X0264246Y0147694D01*
X0264015Y0148251D01*
X0263680Y0148753D01*
X0263253Y0149180D01*
X0262751Y0149515D01*
X0262194Y0149746D01*
X0261602Y0149864D01*
X0261300Y0149864D01*
X0260998Y0149864D01*
X0260406Y0149746D01*
X0259849Y0149515D01*
X0259347Y0149180D01*
X0258920Y0148753D01*
X0258585Y0148251D01*
X0258354Y0147694D01*
X0258236Y0147102D01*
X0258236Y0146800D01*
X0258236Y0146498D01*
X0258354Y0145906D01*
X0258585Y0145349D01*
X0258920Y0144847D01*
X0259347Y0144420D01*
X0259849Y0144085D01*
X0261300Y0144105D02*
X0261300Y0144105D01*
X0261300Y0143736D02*
X0261300Y0146800D01*
X0264364Y0146800D01*
X0261300Y0146800D01*
X0261300Y0146800D01*
X0261300Y0146800D01*
X0261300Y0149864D01*
X0261300Y0146800D01*
X0261300Y0146800D01*
X0261300Y0146800D01*
X0258236Y0146800D01*
X0261300Y0146800D01*
X0261300Y0143736D01*
X0262781Y0144105D02*
X0306800Y0144105D01*
X0306800Y0145703D02*
X0264162Y0145703D01*
X0264324Y0147302D02*
X0267661Y0147302D01*
X0267843Y0147120D02*
X0268788Y0146728D01*
X0269812Y0146728D01*
X0270757Y0147120D01*
X0271480Y0147843D01*
X0271872Y0148788D01*
X0271872Y0149812D01*
X0271480Y0150757D01*
X0270757Y0151480D01*
X0269812Y0151872D01*
X0268788Y0151872D01*
X0267843Y0151480D01*
X0267120Y0150757D01*
X0266728Y0149812D01*
X0266728Y0148788D01*
X0267120Y0147843D01*
X0267843Y0147120D01*
X0266728Y0148900D02*
X0263533Y0148900D01*
X0261300Y0148900D02*
X0261300Y0148900D01*
X0261300Y0147302D02*
X0261300Y0147302D01*
X0261300Y0145703D02*
X0261300Y0145703D01*
X0258438Y0145703D02*
X0157162Y0145703D01*
X0157324Y0147302D02*
X0258276Y0147302D01*
X0259067Y0148900D02*
X0156533Y0148900D01*
X0156332Y0150499D02*
X0267013Y0150499D01*
X0266062Y0154228D02*
X0267007Y0154620D01*
X0267730Y0155343D01*
X0268122Y0156288D01*
X0268122Y0157312D01*
X0267730Y0158257D01*
X0267007Y0158980D01*
X0266062Y0159372D01*
X0265038Y0159372D01*
X0264093Y0158980D01*
X0263370Y0158257D01*
X0262978Y0157312D01*
X0262978Y0156288D01*
X0263370Y0155343D01*
X0264093Y0154620D01*
X0265038Y0154228D01*
X0266062Y0154228D01*
X0267681Y0155294D02*
X0306800Y0155294D01*
X0306800Y0153696D02*
X0249804Y0153696D01*
X0249746Y0153406D02*
X0249864Y0153998D01*
X0249864Y0154300D01*
X0249864Y0154602D01*
X0249746Y0155194D01*
X0249515Y0155751D01*
X0249180Y0156253D01*
X0248753Y0156680D01*
X0248251Y0157015D01*
X0247694Y0157246D01*
X0247102Y0157364D01*
X0246800Y0157364D01*
X0246498Y0157364D01*
X0245906Y0157246D01*
X0245349Y0157015D01*
X0244847Y0156680D01*
X0244420Y0156253D01*
X0244085Y0155751D01*
X0243854Y0155194D01*
X0243736Y0154602D01*
X0243736Y0154300D01*
X0243736Y0153998D01*
X0243854Y0153406D01*
X0244085Y0152849D01*
X0244420Y0152347D01*
X0244847Y0151920D01*
X0245349Y0151585D01*
X0245906Y0151354D01*
X0246498Y0151236D01*
X0246800Y0151236D01*
X0247102Y0151236D01*
X0247694Y0151354D01*
X0248251Y0151585D01*
X0248753Y0151920D01*
X0249180Y0152347D01*
X0249515Y0152849D01*
X0249746Y0153406D01*
X0249864Y0154300D02*
X0246800Y0154300D01*
X0249864Y0154300D01*
X0249704Y0155294D02*
X0263419Y0155294D01*
X0262978Y0156893D02*
X0248434Y0156893D01*
X0246800Y0156893D02*
X0246800Y0156893D01*
X0246800Y0157364D02*
X0246800Y0154300D01*
X0246800Y0154300D01*
X0246800Y0154300D01*
X0246800Y0157364D01*
X0245166Y0156893D02*
X0238434Y0156893D01*
X0238251Y0157015D02*
X0237694Y0157246D01*
X0237102Y0157364D01*
X0236800Y0157364D01*
X0236498Y0157364D01*
X0235906Y0157246D01*
X0235349Y0157015D01*
X0234847Y0156680D01*
X0234420Y0156253D01*
X0234085Y0155751D01*
X0233854Y0155194D01*
X0233736Y0154602D01*
X0233736Y0154300D01*
X0233736Y0153998D01*
X0233854Y0153406D01*
X0234085Y0152849D01*
X0234420Y0152347D01*
X0234847Y0151920D01*
X0235349Y0151585D01*
X0235906Y0151354D01*
X0236498Y0151236D01*
X0236800Y0151236D01*
X0237102Y0151236D01*
X0237694Y0151354D01*
X0238251Y0151585D01*
X0238753Y0151920D01*
X0239180Y0152347D01*
X0239515Y0152849D01*
X0239746Y0153406D01*
X0239864Y0153998D01*
X0239864Y0154300D01*
X0239864Y0154602D01*
X0239746Y0155194D01*
X0239515Y0155751D01*
X0239180Y0156253D01*
X0238753Y0156680D01*
X0238251Y0157015D01*
X0236800Y0156893D02*
X0236800Y0156893D01*
X0236800Y0157364D02*
X0236800Y0154300D01*
X0239864Y0154300D01*
X0236800Y0154300D01*
X0236800Y0154300D01*
X0236800Y0154300D01*
X0236800Y0157364D01*
X0235166Y0156893D02*
X0228434Y0156893D01*
X0228251Y0157015D02*
X0227694Y0157246D01*
X0227102Y0157364D01*
X0226800Y0157364D01*
X0226498Y0157364D01*
X0225906Y0157246D01*
X0225349Y0157015D01*
X0224847Y0156680D01*
X0224420Y0156253D01*
X0224085Y0155751D01*
X0223854Y0155194D01*
X0223736Y0154602D01*
X0223736Y0154300D01*
X0223736Y0153998D01*
X0223854Y0153406D01*
X0224085Y0152849D01*
X0224420Y0152347D01*
X0224847Y0151920D01*
X0225349Y0151585D01*
X0225906Y0151354D01*
X0226498Y0151236D01*
X0226800Y0151236D01*
X0227102Y0151236D01*
X0227694Y0151354D01*
X0228251Y0151585D01*
X0228753Y0151920D01*
X0229180Y0152347D01*
X0229515Y0152849D01*
X0229746Y0153406D01*
X0229864Y0153998D01*
X0229864Y0154300D01*
X0229864Y0154602D01*
X0229746Y0155194D01*
X0229515Y0155751D01*
X0229180Y0156253D01*
X0228753Y0156680D01*
X0228251Y0157015D01*
X0226800Y0156893D02*
X0226800Y0156893D01*
X0226800Y0157364D02*
X0226800Y0154300D01*
X0229864Y0154300D01*
X0226800Y0154300D01*
X0226800Y0154300D01*
X0226800Y0154300D01*
X0226800Y0157364D01*
X0225166Y0156893D02*
X0156710Y0156893D01*
X0156082Y0155294D02*
X0223896Y0155294D01*
X0223736Y0154300D02*
X0226800Y0154300D01*
X0226800Y0151236D01*
X0226800Y0154300D01*
X0226800Y0154300D01*
X0226800Y0154300D01*
X0223736Y0154300D01*
X0223796Y0153696D02*
X0157245Y0153696D01*
X0157284Y0152097D02*
X0224670Y0152097D01*
X0226800Y0152097D02*
X0226800Y0152097D01*
X0226800Y0153696D02*
X0226800Y0153696D01*
X0226800Y0155294D02*
X0226800Y0155294D01*
X0229704Y0155294D02*
X0233896Y0155294D01*
X0233736Y0154300D02*
X0236800Y0154300D01*
X0236800Y0151236D01*
X0236800Y0154300D01*
X0236800Y0154300D01*
X0236800Y0154300D01*
X0233736Y0154300D01*
X0233796Y0153696D02*
X0229804Y0153696D01*
X0228930Y0152097D02*
X0234670Y0152097D01*
X0236800Y0152097D02*
X0236800Y0152097D01*
X0236800Y0153696D02*
X0236800Y0153696D01*
X0236800Y0155294D02*
X0236800Y0155294D01*
X0239704Y0155294D02*
X0243896Y0155294D01*
X0243736Y0154300D02*
X0246800Y0154300D01*
X0246800Y0151236D01*
X0246800Y0154300D01*
X0246800Y0154300D01*
X0246800Y0154300D01*
X0243736Y0154300D01*
X0243796Y0153696D02*
X0239804Y0153696D01*
X0238930Y0152097D02*
X0244670Y0152097D01*
X0246800Y0152097D02*
X0246800Y0152097D01*
X0246800Y0153696D02*
X0246800Y0153696D01*
X0246800Y0155294D02*
X0246800Y0155294D01*
X0248930Y0152097D02*
X0306800Y0152097D01*
X0306800Y0150499D02*
X0271587Y0150499D01*
X0271872Y0148900D02*
X0306800Y0148900D01*
X0306800Y0147302D02*
X0270939Y0147302D01*
X0274962Y0139309D02*
X0306800Y0139309D01*
X0306800Y0137711D02*
X0276706Y0137711D01*
X0276799Y0136112D02*
X0306800Y0136112D01*
X0306800Y0134514D02*
X0275500Y0134514D01*
X0274602Y0112364D02*
X0274300Y0112364D01*
X0273998Y0112364D01*
X0273406Y0112246D01*
X0272849Y0112015D01*
X0272347Y0111680D01*
X0271920Y0111253D01*
X0271585Y0110751D01*
X0271354Y0110194D01*
X0271236Y0109602D01*
X0271236Y0109300D01*
X0271236Y0108998D01*
X0271354Y0108406D01*
X0271585Y0107849D01*
X0271920Y0107347D01*
X0272347Y0106920D01*
X0272849Y0106585D01*
X0273406Y0106354D01*
X0273998Y0106236D01*
X0274300Y0106236D01*
X0274602Y0106236D01*
X0275194Y0106354D01*
X0275751Y0106585D01*
X0276253Y0106920D01*
X0276680Y0107347D01*
X0277015Y0107849D01*
X0277246Y0108406D01*
X0277364Y0108998D01*
X0277364Y0109300D01*
X0277364Y0109602D01*
X0277246Y0110194D01*
X0277015Y0110751D01*
X0276680Y0111253D01*
X0276253Y0111680D01*
X0275751Y0112015D01*
X0275194Y0112246D01*
X0274602Y0112364D01*
X0274300Y0112364D02*
X0274300Y0109300D01*
X0277364Y0109300D01*
X0274300Y0109300D01*
X0274300Y0109300D01*
X0274300Y0109300D01*
X0274300Y0106236D01*
X0274300Y0109300D01*
X0274300Y0109300D01*
X0274300Y0109300D01*
X0271236Y0109300D01*
X0274300Y0109300D01*
X0274300Y0112364D01*
X0274300Y0112134D02*
X0274300Y0112134D01*
X0275463Y0112134D02*
X0306800Y0112134D01*
X0306800Y0110536D02*
X0277104Y0110536D01*
X0277352Y0108937D02*
X0306800Y0108937D01*
X0306800Y0107339D02*
X0276672Y0107339D01*
X0274300Y0107339D02*
X0274300Y0107339D01*
X0274300Y0108937D02*
X0274300Y0108937D01*
X0274300Y0110536D02*
X0274300Y0110536D01*
X0273137Y0112134D02*
X0214300Y0112134D01*
X0214300Y0110536D02*
X0271496Y0110536D01*
X0271248Y0108937D02*
X0214300Y0108937D01*
X0214300Y0107339D02*
X0271928Y0107339D01*
X0306800Y0113733D02*
X0214300Y0113733D01*
X0214300Y0115332D02*
X0306800Y0115332D01*
X0306800Y0116930D02*
X0214300Y0116930D01*
X0212109Y0113733D02*
X0091300Y0113733D01*
X0091300Y0112134D02*
X0102880Y0112134D01*
X0101389Y0110536D02*
X0091300Y0110536D01*
X0091300Y0108937D02*
X0101138Y0108937D01*
X0101789Y0107339D02*
X0091300Y0107339D01*
X0089000Y0107339D02*
X0056084Y0107339D01*
X0056084Y0108937D02*
X0089000Y0108937D01*
X0089000Y0110536D02*
X0056084Y0110536D01*
X0056084Y0112134D02*
X0089000Y0112134D01*
X0089000Y0113733D02*
X0056084Y0113733D01*
X0056084Y0115332D02*
X0089000Y0115332D01*
X0089000Y0116930D02*
X0056084Y0116930D01*
X0056084Y0118529D02*
X0059559Y0118529D01*
X0059400Y0118687D02*
X0060321Y0117767D01*
X0061523Y0117269D01*
X0062825Y0117269D01*
X0064027Y0117767D01*
X0064948Y0118687D01*
X0065446Y0119889D01*
X0065446Y0121191D01*
X0064948Y0122393D01*
X0064027Y0123314D01*
X0062825Y0123812D01*
X0061523Y0123812D01*
X0060321Y0123314D01*
X0059400Y0122393D01*
X0058902Y0121191D01*
X0058902Y0119889D01*
X0059400Y0118687D01*
X0058902Y0120127D02*
X0056084Y0120127D01*
X0056084Y0121726D02*
X0059124Y0121726D01*
X0060346Y0123324D02*
X0056084Y0123324D01*
X0056084Y0124923D02*
X0139500Y0124923D01*
X0139500Y0126521D02*
X0056084Y0126521D01*
X0056084Y0128120D02*
X0139500Y0128120D01*
X0139500Y0129718D02*
X0056084Y0129718D01*
X0056084Y0131317D02*
X0139500Y0131317D01*
X0139500Y0132915D02*
X0056084Y0132915D01*
X0056084Y0134514D02*
X0139500Y0134514D01*
X0139500Y0136112D02*
X0056084Y0136112D01*
X0056084Y0137711D02*
X0139500Y0137711D01*
X0139500Y0139309D02*
X0081469Y0139309D01*
X0081694Y0139354D02*
X0082251Y0139585D01*
X0082753Y0139920D01*
X0083180Y0140347D01*
X0083515Y0140849D01*
X0083746Y0141406D01*
X0083864Y0141998D01*
X0083864Y0142300D01*
X0083864Y0142602D01*
X0083746Y0143194D01*
X0083515Y0143751D01*
X0083180Y0144253D01*
X0082753Y0144680D01*
X0082251Y0145015D01*
X0081694Y0145246D01*
X0081422Y0145300D01*
X0081694Y0145354D01*
X0082251Y0145585D01*
X0082753Y0145920D01*
X0083180Y0146347D01*
X0083515Y0146849D01*
X0083746Y0147406D01*
X0083864Y0147998D01*
X0083864Y0148300D01*
X0083864Y0148602D01*
X0083746Y0149194D01*
X0083515Y0149751D01*
X0083180Y0150253D01*
X0082753Y0150680D01*
X0082251Y0151015D01*
X0081694Y0151246D01*
X0081422Y0151300D01*
X0081694Y0151354D01*
X0082251Y0151585D01*
X0082753Y0151920D01*
X0083180Y0152347D01*
X0083515Y0152849D01*
X0083746Y0153406D01*
X0083864Y0153998D01*
X0083864Y0154300D01*
X0083864Y0154602D01*
X0083746Y0155194D01*
X0083515Y0155751D01*
X0083180Y0156253D01*
X0082753Y0156680D01*
X0082251Y0157015D01*
X0081694Y0157246D01*
X0081102Y0157364D01*
X0080800Y0157364D01*
X0080498Y0157364D01*
X0079906Y0157246D01*
X0079349Y0157015D01*
X0078847Y0156680D01*
X0078420Y0156253D01*
X0078085Y0155751D01*
X0077854Y0155194D01*
X0077736Y0154602D01*
X0077736Y0154300D01*
X0077736Y0153998D01*
X0077854Y0153406D01*
X0078085Y0152849D01*
X0078420Y0152347D01*
X0078847Y0151920D01*
X0079349Y0151585D01*
X0079906Y0151354D01*
X0080178Y0151300D01*
X0079906Y0151246D01*
X0079349Y0151015D01*
X0078847Y0150680D01*
X0078420Y0150253D01*
X0078085Y0149751D01*
X0077854Y0149194D01*
X0077736Y0148602D01*
X0077736Y0148300D01*
X0077736Y0147998D01*
X0077854Y0147406D01*
X0078085Y0146849D01*
X0078420Y0146347D01*
X0078847Y0145920D01*
X0079349Y0145585D01*
X0079906Y0145354D01*
X0080178Y0145300D01*
X0079906Y0145246D01*
X0079349Y0145015D01*
X0078847Y0144680D01*
X0078420Y0144253D01*
X0078085Y0143751D01*
X0077854Y0143194D01*
X0077736Y0142602D01*
X0077736Y0142300D01*
X0077736Y0141998D01*
X0077854Y0141406D01*
X0078085Y0140849D01*
X0078420Y0140347D01*
X0078847Y0139920D01*
X0079349Y0139585D01*
X0079906Y0139354D01*
X0080498Y0139236D01*
X0080800Y0139236D01*
X0081102Y0139236D01*
X0081694Y0139354D01*
X0080800Y0139309D02*
X0080800Y0139309D01*
X0080800Y0139236D02*
X0080800Y0142300D01*
X0083864Y0142300D01*
X0080800Y0142300D01*
X0080800Y0142300D01*
X0080800Y0142300D01*
X0080800Y0148300D01*
X0083864Y0148300D01*
X0080800Y0148300D01*
X0080800Y0148300D01*
X0080800Y0148300D01*
X0080800Y0151236D01*
X0080800Y0154300D01*
X0080800Y0154300D01*
X0080800Y0157364D01*
X0080800Y0154300D01*
X0083864Y0154300D01*
X0080800Y0154300D01*
X0080800Y0154300D01*
X0080800Y0154300D01*
X0077736Y0154300D01*
X0080800Y0154300D01*
X0080800Y0154300D01*
X0080800Y0148300D01*
X0080800Y0148300D01*
X0077736Y0148300D01*
X0080800Y0148300D01*
X0080800Y0148300D01*
X0080800Y0145364D01*
X0080800Y0142300D01*
X0080800Y0142300D01*
X0077736Y0142300D01*
X0080800Y0142300D01*
X0080800Y0142300D01*
X0080800Y0139236D01*
X0080131Y0139309D02*
X0074969Y0139309D01*
X0075194Y0139354D02*
X0075751Y0139585D01*
X0076253Y0139920D01*
X0076680Y0140347D01*
X0077015Y0140849D01*
X0077246Y0141406D01*
X0077364Y0141998D01*
X0077364Y0142300D01*
X0077364Y0142602D01*
X0077246Y0143194D01*
X0077015Y0143751D01*
X0076680Y0144253D01*
X0076253Y0144680D01*
X0075751Y0145015D01*
X0075194Y0145246D01*
X0074922Y0145300D01*
X0075194Y0145354D01*
X0075751Y0145585D01*
X0076253Y0145920D01*
X0076680Y0146347D01*
X0077015Y0146849D01*
X0077246Y0147406D01*
X0077364Y0147998D01*
X0077364Y0148300D01*
X0077364Y0148602D01*
X0077246Y0149194D01*
X0077015Y0149751D01*
X0076680Y0150253D01*
X0076253Y0150680D01*
X0075751Y0151015D01*
X0075194Y0151246D01*
X0074922Y0151300D01*
X0075194Y0151354D01*
X0075751Y0151585D01*
X0076253Y0151920D01*
X0076680Y0152347D01*
X0077015Y0152849D01*
X0077246Y0153406D01*
X0077364Y0153998D01*
X0077364Y0154300D01*
X0077364Y0154602D01*
X0077246Y0155194D01*
X0077015Y0155751D01*
X0076680Y0156253D01*
X0076253Y0156680D01*
X0075751Y0157015D01*
X0075194Y0157246D01*
X0074602Y0157364D01*
X0074300Y0157364D01*
X0073998Y0157364D01*
X0073406Y0157246D01*
X0072849Y0157015D01*
X0072347Y0156680D01*
X0071920Y0156253D01*
X0071585Y0155751D01*
X0071354Y0155194D01*
X0071236Y0154602D01*
X0071236Y0154300D01*
X0071236Y0153998D01*
X0071354Y0153406D01*
X0071585Y0152849D01*
X0071920Y0152347D01*
X0072347Y0151920D01*
X0072849Y0151585D01*
X0073406Y0151354D01*
X0073678Y0151300D01*
X0073406Y0151246D01*
X0072849Y0151015D01*
X0072347Y0150680D01*
X0071920Y0150253D01*
X0071585Y0149751D01*
X0071354Y0149194D01*
X0071236Y0148602D01*
X0071236Y0148300D01*
X0071236Y0147998D01*
X0071354Y0147406D01*
X0071585Y0146849D01*
X0071920Y0146347D01*
X0072347Y0145920D01*
X0072849Y0145585D01*
X0073406Y0145354D01*
X0073678Y0145300D01*
X0073406Y0145246D01*
X0072849Y0145015D01*
X0072347Y0144680D01*
X0071920Y0144253D01*
X0071585Y0143751D01*
X0071354Y0143194D01*
X0071236Y0142602D01*
X0071236Y0142300D01*
X0071236Y0141998D01*
X0071354Y0141406D01*
X0071585Y0140849D01*
X0071920Y0140347D01*
X0072347Y0139920D01*
X0072849Y0139585D01*
X0073406Y0139354D01*
X0073998Y0139236D01*
X0074300Y0139236D01*
X0074602Y0139236D01*
X0075194Y0139354D01*
X0074300Y0139309D02*
X0074300Y0139309D01*
X0074300Y0139236D02*
X0074300Y0142300D01*
X0077364Y0142300D01*
X0074300Y0142300D01*
X0074300Y0142300D01*
X0074300Y0142300D01*
X0074300Y0148300D01*
X0077364Y0148300D01*
X0074300Y0148300D01*
X0074300Y0148300D01*
X0074300Y0148300D01*
X0074300Y0154300D01*
X0074300Y0154300D01*
X0074300Y0157364D01*
X0074300Y0154300D01*
X0077364Y0154300D01*
X0074300Y0154300D01*
X0074300Y0154300D01*
X0074300Y0154300D01*
X0071236Y0154300D01*
X0074300Y0154300D01*
X0074300Y0154300D01*
X0074300Y0151364D01*
X0074300Y0148300D01*
X0074300Y0148300D01*
X0071236Y0148300D01*
X0074300Y0148300D01*
X0074300Y0148300D01*
X0074300Y0145364D01*
X0074300Y0142300D01*
X0074300Y0142300D01*
X0071236Y0142300D01*
X0074300Y0142300D01*
X0074300Y0142300D01*
X0074300Y0139236D01*
X0073631Y0139309D02*
X0056084Y0139309D01*
X0056084Y0140908D02*
X0071560Y0140908D01*
X0071236Y0142506D02*
X0056084Y0142506D01*
X0056084Y0144105D02*
X0071821Y0144105D01*
X0072672Y0145703D02*
X0056084Y0145703D01*
X0056084Y0147302D02*
X0071397Y0147302D01*
X0071296Y0148900D02*
X0056084Y0148900D01*
X0056084Y0150499D02*
X0072166Y0150499D01*
X0072170Y0152097D02*
X0056084Y0152097D01*
X0056084Y0153696D02*
X0071296Y0153696D01*
X0071396Y0155294D02*
X0056084Y0155294D01*
X0056084Y0156893D02*
X0060909Y0156893D01*
X0060321Y0157137D02*
X0061523Y0156639D01*
X0062825Y0156639D01*
X0064027Y0157137D01*
X0064948Y0158057D01*
X0065446Y0159259D01*
X0065446Y0160561D01*
X0064948Y0161763D01*
X0064027Y0162684D01*
X0062825Y0163182D01*
X0061523Y0163182D01*
X0060321Y0162684D01*
X0059400Y0161763D01*
X0058902Y0160561D01*
X0058902Y0159259D01*
X0059400Y0158057D01*
X0060321Y0157137D01*
X0059221Y0158491D02*
X0056084Y0158491D01*
X0056084Y0160090D02*
X0058902Y0160090D01*
X0059369Y0161688D02*
X0056084Y0161688D01*
X0056084Y0163287D02*
X0139500Y0163287D01*
X0139500Y0164885D02*
X0073526Y0164885D01*
X0073441Y0164850D02*
X0076473Y0166106D01*
X0078794Y0168427D01*
X0080050Y0171459D01*
X0080050Y0174741D01*
X0078794Y0177773D01*
X0076473Y0180094D01*
X0073441Y0181350D01*
X0070159Y0181350D01*
X0067127Y0180094D01*
X0064806Y0177773D01*
X0063550Y0174741D01*
X0063550Y0171459D01*
X0064806Y0168427D01*
X0067127Y0166106D01*
X0070159Y0164850D01*
X0073441Y0164850D01*
X0070074Y0164885D02*
X0056084Y0164885D01*
X0056084Y0166484D02*
X0066749Y0166484D01*
X0065150Y0168082D02*
X0056084Y0168082D01*
X0056084Y0169681D02*
X0064286Y0169681D01*
X0063624Y0171279D02*
X0056084Y0171279D01*
X0056084Y0172878D02*
X0063550Y0172878D01*
X0063550Y0174476D02*
X0056084Y0174476D01*
X0056084Y0176075D02*
X0064103Y0176075D01*
X0064765Y0177673D02*
X0056084Y0177673D01*
X0056084Y0179272D02*
X0066305Y0179272D01*
X0069001Y0180870D02*
X0056084Y0180870D01*
X0056084Y0182469D02*
X0287000Y0182469D01*
X0287000Y0180870D02*
X0074599Y0180870D01*
X0077295Y0179272D02*
X0287000Y0179272D01*
X0287000Y0177673D02*
X0078835Y0177673D01*
X0079497Y0176075D02*
X0287000Y0176075D01*
X0287000Y0174476D02*
X0080050Y0174476D01*
X0080050Y0172878D02*
X0287000Y0172878D01*
X0287000Y0171279D02*
X0079976Y0171279D01*
X0079313Y0169681D02*
X0287000Y0169681D01*
X0287000Y0168082D02*
X0078450Y0168082D01*
X0076851Y0166484D02*
X0140731Y0166484D01*
X0141800Y0163287D02*
X0272150Y0163287D01*
X0271728Y0161688D02*
X0155333Y0161688D01*
X0154300Y0161688D02*
X0154300Y0161688D01*
X0153267Y0161688D02*
X0147833Y0161688D01*
X0146800Y0161688D02*
X0146800Y0161688D01*
X0145767Y0161688D02*
X0141800Y0161688D01*
X0141800Y0160090D02*
X0144018Y0160090D01*
X0143738Y0158491D02*
X0141800Y0158491D01*
X0141800Y0156893D02*
X0144390Y0156893D01*
X0145018Y0155294D02*
X0141800Y0155294D01*
X0141800Y0153696D02*
X0143855Y0153696D01*
X0143816Y0152097D02*
X0141800Y0152097D01*
X0141800Y0150499D02*
X0144768Y0150499D01*
X0144567Y0148900D02*
X0141800Y0148900D01*
X0141800Y0147302D02*
X0143776Y0147302D01*
X0143938Y0145703D02*
X0141800Y0145703D01*
X0139500Y0145703D02*
X0082428Y0145703D01*
X0080800Y0145703D02*
X0080800Y0145703D01*
X0080800Y0144105D02*
X0080800Y0144105D01*
X0080800Y0142506D02*
X0080800Y0142506D01*
X0080800Y0140908D02*
X0080800Y0140908D01*
X0083539Y0140908D02*
X0139500Y0140908D01*
X0139500Y0142506D02*
X0083864Y0142506D01*
X0083279Y0144105D02*
X0139500Y0144105D01*
X0139500Y0147302D02*
X0083703Y0147302D01*
X0083804Y0148900D02*
X0139500Y0148900D01*
X0139500Y0150499D02*
X0082934Y0150499D01*
X0082930Y0152097D02*
X0139500Y0152097D01*
X0139500Y0153696D02*
X0083804Y0153696D01*
X0083704Y0155294D02*
X0139500Y0155294D01*
X0139500Y0156893D02*
X0082434Y0156893D01*
X0080800Y0156893D02*
X0080800Y0156893D01*
X0080800Y0155294D02*
X0080800Y0155294D01*
X0080800Y0153696D02*
X0080800Y0153696D01*
X0080800Y0152097D02*
X0080800Y0152097D01*
X0080800Y0150499D02*
X0080800Y0150499D01*
X0080800Y0148900D02*
X0080800Y0148900D01*
X0080800Y0147302D02*
X0080800Y0147302D01*
X0079172Y0145703D02*
X0075928Y0145703D01*
X0074300Y0145703D02*
X0074300Y0145703D01*
X0074300Y0144105D02*
X0074300Y0144105D01*
X0074300Y0142506D02*
X0074300Y0142506D01*
X0074300Y0140908D02*
X0074300Y0140908D01*
X0077039Y0140908D02*
X0078060Y0140908D01*
X0077736Y0142506D02*
X0077364Y0142506D01*
X0076779Y0144105D02*
X0078321Y0144105D01*
X0077897Y0147302D02*
X0077203Y0147302D01*
X0077304Y0148900D02*
X0077796Y0148900D01*
X0078666Y0150499D02*
X0076434Y0150499D01*
X0076430Y0152097D02*
X0078670Y0152097D01*
X0077796Y0153696D02*
X0077304Y0153696D01*
X0077204Y0155294D02*
X0077896Y0155294D01*
X0079166Y0156893D02*
X0075934Y0156893D01*
X0074300Y0156893D02*
X0074300Y0156893D01*
X0074300Y0155294D02*
X0074300Y0155294D01*
X0074300Y0153696D02*
X0074300Y0153696D01*
X0074300Y0152097D02*
X0074300Y0152097D01*
X0074300Y0150499D02*
X0074300Y0150499D01*
X0074300Y0148900D02*
X0074300Y0148900D01*
X0074300Y0147302D02*
X0074300Y0147302D01*
X0072666Y0156893D02*
X0063439Y0156893D01*
X0065127Y0158491D02*
X0139500Y0158491D01*
X0139500Y0160090D02*
X0065446Y0160090D01*
X0064979Y0161688D02*
X0139500Y0161688D01*
X0146800Y0160090D02*
X0146800Y0160090D01*
X0146800Y0158491D02*
X0146800Y0158491D01*
X0146800Y0156893D02*
X0146800Y0156893D01*
X0146800Y0155294D02*
X0146800Y0155294D01*
X0146800Y0153696D02*
X0146800Y0153696D01*
X0146800Y0152097D02*
X0146800Y0152097D01*
X0146800Y0150499D02*
X0146800Y0150499D01*
X0146800Y0148900D02*
X0146800Y0148900D01*
X0146800Y0147302D02*
X0146800Y0147302D01*
X0146800Y0145703D02*
X0146800Y0145703D01*
X0149662Y0145703D02*
X0151438Y0145703D01*
X0151276Y0147302D02*
X0149824Y0147302D01*
X0149033Y0148900D02*
X0152067Y0148900D01*
X0152268Y0150499D02*
X0148832Y0150499D01*
X0149784Y0152097D02*
X0151316Y0152097D01*
X0151355Y0153696D02*
X0149745Y0153696D01*
X0148582Y0155294D02*
X0152518Y0155294D01*
X0151890Y0156893D02*
X0149210Y0156893D01*
X0149862Y0158491D02*
X0151238Y0158491D01*
X0151518Y0160090D02*
X0149582Y0160090D01*
X0154300Y0160090D02*
X0154300Y0160090D01*
X0154300Y0158491D02*
X0154300Y0158491D01*
X0154300Y0156893D02*
X0154300Y0156893D01*
X0154300Y0155294D02*
X0154300Y0155294D01*
X0154300Y0153696D02*
X0154300Y0153696D01*
X0154300Y0152097D02*
X0154300Y0152097D01*
X0154300Y0150499D02*
X0154300Y0150499D01*
X0154300Y0148900D02*
X0154300Y0148900D01*
X0154300Y0147302D02*
X0154300Y0147302D01*
X0154300Y0145703D02*
X0154300Y0145703D01*
X0157362Y0158491D02*
X0263604Y0158491D01*
X0267496Y0158491D02*
X0306800Y0158491D01*
X0306800Y0156893D02*
X0268122Y0156893D01*
X0272373Y0160090D02*
X0157082Y0160090D01*
X0128319Y0189527D02*
X0129073Y0190281D01*
X0129481Y0191267D01*
X0129481Y0192333D01*
X0129073Y0193319D01*
X0128319Y0194073D01*
X0127333Y0194481D01*
X0126267Y0194481D01*
X0125281Y0194073D01*
X0124527Y0193319D01*
X0124119Y0192333D01*
X0124119Y0191267D01*
X0124527Y0190281D01*
X0125281Y0189527D01*
X0126267Y0189119D01*
X0127333Y0189119D01*
X0128319Y0189527D01*
X0129148Y0190462D02*
X0287000Y0190462D01*
X0287000Y0192060D02*
X0129481Y0192060D01*
X0128733Y0193659D02*
X0287000Y0193659D01*
X0287000Y0195257D02*
X0115586Y0195257D01*
X0117184Y0196856D02*
X0287000Y0196856D01*
X0287000Y0198454D02*
X0118783Y0198454D01*
X0120381Y0200053D02*
X0257256Y0200053D01*
X0257027Y0200281D02*
X0257781Y0199527D01*
X0258767Y0199119D01*
X0259833Y0199119D01*
X0260819Y0199527D01*
X0261573Y0200281D01*
X0261981Y0201267D01*
X0261981Y0202333D01*
X0261573Y0203319D01*
X0260819Y0204073D01*
X0259833Y0204481D01*
X0258767Y0204481D01*
X0257781Y0204073D01*
X0257027Y0203319D01*
X0256619Y0202333D01*
X0256619Y0201267D01*
X0257027Y0200281D01*
X0256619Y0201651D02*
X0121980Y0201651D01*
X0123578Y0203250D02*
X0135451Y0203250D01*
X0135767Y0203119D02*
X0136833Y0203119D01*
X0137819Y0203527D01*
X0138573Y0204281D01*
X0138981Y0205267D01*
X0138981Y0206333D01*
X0138573Y0207319D01*
X0137819Y0208073D01*
X0136833Y0208481D01*
X0135767Y0208481D01*
X0134781Y0208073D01*
X0134027Y0207319D01*
X0133619Y0206333D01*
X0133619Y0205267D01*
X0134027Y0204281D01*
X0134781Y0203527D01*
X0135767Y0203119D01*
X0137149Y0203250D02*
X0256998Y0203250D01*
X0261602Y0203250D02*
X0287000Y0203250D01*
X0287000Y0204848D02*
X0138808Y0204848D01*
X0138934Y0206447D02*
X0287000Y0206447D01*
X0287000Y0208045D02*
X0141337Y0208045D01*
X0141319Y0208027D02*
X0142073Y0208781D01*
X0142481Y0209767D01*
X0142481Y0210833D01*
X0142073Y0211819D01*
X0141319Y0212573D01*
X0140333Y0212981D01*
X0139267Y0212981D01*
X0138281Y0212573D01*
X0137527Y0211819D01*
X0137119Y0210833D01*
X0137119Y0209767D01*
X0137527Y0208781D01*
X0138281Y0208027D01*
X0139267Y0207619D01*
X0140333Y0207619D01*
X0141319Y0208027D01*
X0142430Y0209644D02*
X0287000Y0209644D01*
X0287000Y0211242D02*
X0142312Y0211242D01*
X0140672Y0212841D02*
X0223231Y0212841D01*
X0222781Y0213027D02*
X0223767Y0212619D01*
X0224833Y0212619D01*
X0225819Y0213027D01*
X0226573Y0213781D01*
X0226981Y0214767D01*
X0226981Y0215833D01*
X0226573Y0216819D01*
X0225923Y0217468D01*
X0226767Y0217119D01*
X0227833Y0217119D01*
X0228819Y0217527D01*
X0229573Y0218281D01*
X0229981Y0219267D01*
X0229981Y0220333D01*
X0229573Y0221319D01*
X0228819Y0222073D01*
X0227833Y0222481D01*
X0226767Y0222481D01*
X0225781Y0222073D01*
X0225027Y0221319D01*
X0224619Y0220333D01*
X0224619Y0219267D01*
X0225027Y0218281D01*
X0225677Y0217632D01*
X0224833Y0217981D01*
X0223767Y0217981D01*
X0222781Y0217573D01*
X0222027Y0216819D01*
X0221619Y0215833D01*
X0221619Y0214767D01*
X0222027Y0213781D01*
X0222781Y0213027D01*
X0221755Y0214439D02*
X0203399Y0214439D01*
X0203194Y0214354D02*
X0203751Y0214585D01*
X0204253Y0214920D01*
X0204680Y0215347D01*
X0205015Y0215849D01*
X0205246Y0216406D01*
X0205364Y0216998D01*
X0205364Y0217300D01*
X0205364Y0217602D01*
X0205246Y0218194D01*
X0205015Y0218751D01*
X0204680Y0219253D01*
X0204253Y0219680D01*
X0203751Y0220015D01*
X0203194Y0220246D01*
X0202602Y0220364D01*
X0202300Y0220364D01*
X0201998Y0220364D01*
X0201406Y0220246D01*
X0200849Y0220015D01*
X0200347Y0219680D01*
X0199920Y0219253D01*
X0199585Y0218751D01*
X0199354Y0218194D01*
X0199236Y0217602D01*
X0199236Y0217300D01*
X0199236Y0216998D01*
X0199354Y0216406D01*
X0199585Y0215849D01*
X0199920Y0215347D01*
X0200347Y0214920D01*
X0200849Y0214585D01*
X0201406Y0214354D01*
X0201998Y0214236D01*
X0202300Y0214236D01*
X0202602Y0214236D01*
X0203194Y0214354D01*
X0202300Y0214439D02*
X0202300Y0214439D01*
X0202300Y0214236D02*
X0202300Y0217300D01*
X0205364Y0217300D01*
X0202300Y0217300D01*
X0202300Y0217300D01*
X0202300Y0217300D01*
X0202300Y0220364D01*
X0202300Y0217300D01*
X0202300Y0217300D01*
X0202300Y0217300D01*
X0199236Y0217300D01*
X0202300Y0217300D01*
X0202300Y0214236D01*
X0201200Y0214439D02*
X0195899Y0214439D01*
X0195694Y0214354D02*
X0196251Y0214585D01*
X0196753Y0214920D01*
X0197180Y0215347D01*
X0197515Y0215849D01*
X0197746Y0216406D01*
X0197864Y0216998D01*
X0197864Y0217300D01*
X0197864Y0217602D01*
X0197746Y0218194D01*
X0197515Y0218751D01*
X0197180Y0219253D01*
X0196753Y0219680D01*
X0196251Y0220015D01*
X0195694Y0220246D01*
X0195102Y0220364D01*
X0194800Y0220364D01*
X0194498Y0220364D01*
X0193906Y0220246D01*
X0193349Y0220015D01*
X0192847Y0219680D01*
X0192420Y0219253D01*
X0192085Y0218751D01*
X0191854Y0218194D01*
X0191736Y0217602D01*
X0191736Y0217300D01*
X0191736Y0216998D01*
X0191854Y0216406D01*
X0192085Y0215849D01*
X0192420Y0215347D01*
X0192847Y0214920D01*
X0193349Y0214585D01*
X0193906Y0214354D01*
X0194498Y0214236D01*
X0194800Y0214236D01*
X0195102Y0214236D01*
X0195694Y0214354D01*
X0194800Y0214439D02*
X0194800Y0214439D01*
X0194800Y0214236D02*
X0194800Y0217300D01*
X0197864Y0217300D01*
X0194800Y0217300D01*
X0194800Y0217300D01*
X0194800Y0217300D01*
X0194800Y0220364D01*
X0194800Y0217300D01*
X0194800Y0217300D01*
X0194800Y0217300D01*
X0191736Y0217300D01*
X0194800Y0217300D01*
X0194800Y0214236D01*
X0193700Y0214439D02*
X0170241Y0214439D01*
X0170180Y0214347D02*
X0170515Y0214849D01*
X0170746Y0215406D01*
X0170864Y0215998D01*
X0170864Y0216300D01*
X0170864Y0216602D01*
X0170746Y0217194D01*
X0170515Y0217751D01*
X0170180Y0218253D01*
X0169753Y0218680D01*
X0169251Y0219015D01*
X0168694Y0219246D01*
X0168102Y0219364D01*
X0167800Y0219364D01*
X0167498Y0219364D01*
X0166906Y0219246D01*
X0166349Y0219015D01*
X0165847Y0218680D01*
X0165420Y0218253D01*
X0165085Y0217751D01*
X0164854Y0217194D01*
X0164736Y0216602D01*
X0164736Y0216300D01*
X0164736Y0215998D01*
X0164854Y0215406D01*
X0165085Y0214849D01*
X0165420Y0214347D01*
X0165847Y0213920D01*
X0166349Y0213585D01*
X0166906Y0213354D01*
X0167498Y0213236D01*
X0167800Y0213236D01*
X0168102Y0213236D01*
X0168694Y0213354D01*
X0169251Y0213585D01*
X0169753Y0213920D01*
X0170180Y0214347D01*
X0170864Y0216038D02*
X0192007Y0216038D01*
X0191743Y0217636D02*
X0170563Y0217636D01*
X0170864Y0216300D02*
X0167800Y0216300D01*
X0167800Y0216300D01*
X0167800Y0216300D01*
X0167800Y0219364D01*
X0167800Y0216300D01*
X0170864Y0216300D01*
X0167800Y0216300D02*
X0167800Y0213236D01*
X0167800Y0216300D01*
X0167800Y0216300D01*
X0167800Y0216300D01*
X0164736Y0216300D01*
X0167800Y0216300D01*
X0167800Y0216038D02*
X0167800Y0216038D01*
X0167800Y0217636D02*
X0167800Y0217636D01*
X0167800Y0219235D02*
X0167800Y0219235D01*
X0168721Y0219235D02*
X0192408Y0219235D01*
X0194800Y0219235D02*
X0194800Y0219235D01*
X0194800Y0217636D02*
X0194800Y0217636D01*
X0194800Y0216038D02*
X0194800Y0216038D01*
X0197593Y0216038D02*
X0199507Y0216038D01*
X0199243Y0217636D02*
X0197857Y0217636D01*
X0197192Y0219235D02*
X0199908Y0219235D01*
X0202300Y0219235D02*
X0202300Y0219235D01*
X0202300Y0217636D02*
X0202300Y0217636D01*
X0202300Y0216038D02*
X0202300Y0216038D01*
X0205093Y0216038D02*
X0221704Y0216038D01*
X0222934Y0217636D02*
X0210328Y0217636D01*
X0210251Y0217585D02*
X0210753Y0217920D01*
X0211180Y0218347D01*
X0211515Y0218849D01*
X0211746Y0219406D01*
X0211864Y0219998D01*
X0211864Y0220300D01*
X0211864Y0220602D01*
X0211746Y0221194D01*
X0211515Y0221751D01*
X0211180Y0222253D01*
X0210753Y0222680D01*
X0210251Y0223015D01*
X0209694Y0223246D01*
X0209102Y0223364D01*
X0208800Y0223364D01*
X0208498Y0223364D01*
X0207906Y0223246D01*
X0207349Y0223015D01*
X0206847Y0222680D01*
X0206420Y0222253D01*
X0206085Y0221751D01*
X0205854Y0221194D01*
X0205736Y0220602D01*
X0205736Y0220300D01*
X0205736Y0219998D01*
X0205854Y0219406D01*
X0206085Y0218849D01*
X0206420Y0218347D01*
X0206847Y0217920D01*
X0207349Y0217585D01*
X0207906Y0217354D01*
X0208498Y0217236D01*
X0208800Y0217236D01*
X0209102Y0217236D01*
X0209694Y0217354D01*
X0210251Y0217585D01*
X0208800Y0217636D02*
X0208800Y0217636D01*
X0208800Y0217236D02*
X0208800Y0220300D01*
X0211864Y0220300D01*
X0208800Y0220300D01*
X0208800Y0220300D01*
X0208800Y0220300D01*
X0208800Y0223364D01*
X0208800Y0220300D01*
X0208800Y0220300D01*
X0208800Y0220300D01*
X0205736Y0220300D01*
X0208800Y0220300D01*
X0208800Y0217236D01*
X0207272Y0217636D02*
X0205357Y0217636D01*
X0205925Y0219235D02*
X0204692Y0219235D01*
X0205782Y0220833D02*
X0167542Y0220833D01*
X0167823Y0221114D02*
X0168276Y0222208D01*
X0168276Y0223392D01*
X0167823Y0224486D01*
X0166986Y0225323D01*
X0165892Y0225776D01*
X0164708Y0225776D01*
X0163614Y0225323D01*
X0163091Y0224800D01*
X0149702Y0224800D01*
X0149746Y0224906D01*
X0149864Y0225498D01*
X0149864Y0225800D01*
X0149864Y0226102D01*
X0149746Y0226694D01*
X0149515Y0227251D01*
X0149180Y0227753D01*
X0148753Y0228180D01*
X0148251Y0228515D01*
X0147694Y0228746D01*
X0147102Y0228864D01*
X0146800Y0228864D01*
X0146498Y0228864D01*
X0145906Y0228746D01*
X0145349Y0228515D01*
X0144847Y0228180D01*
X0144420Y0227753D01*
X0144085Y0227251D01*
X0143854Y0226694D01*
X0143736Y0226102D01*
X0143736Y0225800D01*
X0143736Y0225498D01*
X0143854Y0224906D01*
X0143898Y0224800D01*
X0139472Y0224800D01*
X0138300Y0223628D01*
X0108572Y0193900D01*
X0094118Y0193900D01*
X0093961Y0194279D01*
X0092779Y0195461D01*
X0091235Y0196100D01*
X0089565Y0196100D01*
X0088021Y0195461D01*
X0086839Y0194279D01*
X0086450Y0193339D01*
X0086061Y0194279D01*
X0084879Y0195461D01*
X0083335Y0196100D01*
X0081665Y0196100D01*
X0080121Y0195461D01*
X0078939Y0194279D01*
X0078300Y0192735D01*
X0078300Y0191065D01*
X0078939Y0189521D01*
X0080121Y0188339D01*
X0081665Y0187700D01*
X0083335Y0187700D01*
X0084879Y0188339D01*
X0086061Y0189521D01*
X0086450Y0190461D01*
X0086839Y0189521D01*
X0088021Y0188339D01*
X0089565Y0187700D01*
X0091235Y0187700D01*
X0092779Y0188339D01*
X0093961Y0189521D01*
X0094118Y0189900D01*
X0110228Y0189900D01*
X0141128Y0220800D01*
X0163091Y0220800D01*
X0163614Y0220277D01*
X0164708Y0219824D01*
X0165892Y0219824D01*
X0166986Y0220277D01*
X0167823Y0221114D01*
X0168276Y0222432D02*
X0206599Y0222432D01*
X0208800Y0222432D02*
X0208800Y0222432D01*
X0208800Y0220833D02*
X0208800Y0220833D01*
X0208800Y0219235D02*
X0208800Y0219235D01*
X0211675Y0219235D02*
X0224632Y0219235D01*
X0224826Y0220833D02*
X0211818Y0220833D01*
X0211001Y0222432D02*
X0226648Y0222432D01*
X0227952Y0222432D02*
X0259799Y0222432D01*
X0259854Y0222156D02*
X0260085Y0221599D01*
X0260420Y0221097D01*
X0260847Y0220670D01*
X0261349Y0220335D01*
X0261906Y0220104D01*
X0262498Y0219986D01*
X0262800Y0219986D01*
X0263102Y0219986D01*
X0263694Y0220104D01*
X0264251Y0220335D01*
X0264753Y0220670D01*
X0265180Y0221097D01*
X0265515Y0221599D01*
X0265746Y0222156D01*
X0265864Y0222748D01*
X0265864Y0223050D01*
X0265864Y0223352D01*
X0265746Y0223944D01*
X0265515Y0224501D01*
X0265180Y0225003D01*
X0264753Y0225430D01*
X0264251Y0225765D01*
X0263694Y0225996D01*
X0263102Y0226114D01*
X0262800Y0226114D01*
X0262498Y0226114D01*
X0261906Y0225996D01*
X0261349Y0225765D01*
X0260847Y0225430D01*
X0260420Y0225003D01*
X0260085Y0224501D01*
X0259854Y0223944D01*
X0259736Y0223352D01*
X0259736Y0223050D01*
X0259736Y0222748D01*
X0259854Y0222156D01*
X0259736Y0223050D02*
X0262800Y0223050D01*
X0265864Y0223050D01*
X0262800Y0223050D01*
X0262800Y0223050D01*
X0262800Y0223050D01*
X0262800Y0226114D01*
X0262800Y0223050D01*
X0262800Y0219986D01*
X0262800Y0223050D01*
X0262800Y0223050D01*
X0262800Y0223050D01*
X0259736Y0223050D01*
X0259890Y0224030D02*
X0246322Y0224030D01*
X0246573Y0224281D02*
X0246981Y0225267D01*
X0246981Y0226333D01*
X0246573Y0227319D01*
X0245819Y0228073D01*
X0244833Y0228481D01*
X0243767Y0228481D01*
X0242781Y0228073D01*
X0242027Y0227319D01*
X0241619Y0226333D01*
X0241619Y0225267D01*
X0242027Y0224281D01*
X0242781Y0223527D01*
X0243767Y0223119D01*
X0244833Y0223119D01*
X0245819Y0223527D01*
X0246573Y0224281D01*
X0246981Y0225629D02*
X0261145Y0225629D01*
X0262800Y0225629D02*
X0262800Y0225629D01*
X0262800Y0224030D02*
X0262800Y0224030D01*
X0262800Y0222432D02*
X0262800Y0222432D01*
X0262800Y0220833D02*
X0262800Y0220833D01*
X0264916Y0220833D02*
X0287000Y0220833D01*
X0287000Y0219235D02*
X0229968Y0219235D01*
X0229774Y0220833D02*
X0260684Y0220833D01*
X0265801Y0222432D02*
X0268627Y0222432D01*
X0268277Y0222781D02*
X0269031Y0222027D01*
X0270017Y0221619D01*
X0271083Y0221619D01*
X0272069Y0222027D01*
X0272823Y0222781D01*
X0273231Y0223767D01*
X0273231Y0224833D01*
X0272823Y0225819D01*
X0272069Y0226573D01*
X0271083Y0226981D01*
X0270017Y0226981D01*
X0269031Y0226573D01*
X0268277Y0225819D01*
X0267869Y0224833D01*
X0267869Y0223767D01*
X0268277Y0222781D01*
X0267869Y0224030D02*
X0265710Y0224030D01*
X0264455Y0225629D02*
X0268198Y0225629D01*
X0272902Y0225629D02*
X0276948Y0225629D01*
X0277027Y0225819D02*
X0276619Y0224833D01*
X0276619Y0223767D01*
X0277027Y0222781D01*
X0277781Y0222027D01*
X0278767Y0221619D01*
X0279833Y0221619D01*
X0280819Y0222027D01*
X0281573Y0222781D01*
X0281981Y0223767D01*
X0281981Y0224833D01*
X0281573Y0225819D01*
X0280819Y0226573D01*
X0279833Y0226981D01*
X0278767Y0226981D01*
X0277781Y0226573D01*
X0277027Y0225819D01*
X0276619Y0224030D02*
X0273231Y0224030D01*
X0272473Y0222432D02*
X0277377Y0222432D01*
X0281223Y0222432D02*
X0286127Y0222432D01*
X0285369Y0224030D02*
X0281981Y0224030D01*
X0281652Y0225629D02*
X0285698Y0225629D01*
X0287000Y0227227D02*
X0246611Y0227227D01*
X0241989Y0227227D02*
X0241965Y0227227D01*
X0241981Y0227267D02*
X0241573Y0226281D01*
X0240819Y0225527D01*
X0239833Y0225119D01*
X0238767Y0225119D01*
X0237781Y0225527D01*
X0237027Y0226281D01*
X0236619Y0227267D01*
X0236619Y0228333D01*
X0237027Y0229319D01*
X0237781Y0230073D01*
X0238767Y0230481D01*
X0239833Y0230481D01*
X0240819Y0230073D01*
X0241573Y0229319D01*
X0241981Y0228333D01*
X0241981Y0227267D01*
X0241777Y0228826D02*
X0252871Y0228826D01*
X0252849Y0228835D02*
X0253406Y0228604D01*
X0253998Y0228486D01*
X0254300Y0228486D01*
X0254602Y0228486D01*
X0255194Y0228604D01*
X0255751Y0228835D01*
X0256253Y0229170D01*
X0256680Y0229597D01*
X0257015Y0230099D01*
X0257246Y0230656D01*
X0257364Y0231248D01*
X0257364Y0231550D01*
X0257364Y0231852D01*
X0257246Y0232444D01*
X0257015Y0233001D01*
X0256680Y0233503D01*
X0256253Y0233930D01*
X0255751Y0234265D01*
X0255469Y0234382D01*
X0255819Y0234527D01*
X0256573Y0235281D01*
X0256981Y0236267D01*
X0256981Y0237333D01*
X0256573Y0238319D01*
X0255819Y0239073D01*
X0254833Y0239481D01*
X0253767Y0239481D01*
X0252781Y0239073D01*
X0252027Y0238319D01*
X0251619Y0237333D01*
X0251619Y0236267D01*
X0252027Y0235281D01*
X0252781Y0234527D01*
X0253131Y0234382D01*
X0252849Y0234265D01*
X0252347Y0233930D01*
X0251920Y0233503D01*
X0251585Y0233001D01*
X0251354Y0232444D01*
X0251236Y0231852D01*
X0251236Y0231550D01*
X0251236Y0231248D01*
X0251354Y0230656D01*
X0251585Y0230099D01*
X0251920Y0229597D01*
X0252347Y0229170D01*
X0252849Y0228835D01*
X0254300Y0228826D02*
X0254300Y0228826D01*
X0254300Y0228486D02*
X0254300Y0231550D01*
X0257364Y0231550D01*
X0254300Y0231550D01*
X0254300Y0231550D01*
X0254300Y0231550D01*
X0254300Y0231550D01*
X0251236Y0231550D01*
X0254300Y0231550D01*
X0254300Y0228486D01*
X0255729Y0228826D02*
X0287000Y0228826D01*
X0287000Y0230424D02*
X0257150Y0230424D01*
X0257330Y0232023D02*
X0287000Y0232023D01*
X0287000Y0233621D02*
X0256561Y0233621D01*
X0256512Y0235220D02*
X0287000Y0235220D01*
X0287000Y0236818D02*
X0256981Y0236818D01*
X0256475Y0238417D02*
X0287000Y0238417D01*
X0287000Y0240015D02*
X0272961Y0240015D01*
X0273226Y0240281D02*
X0272472Y0239527D01*
X0271487Y0239119D01*
X0270420Y0239119D01*
X0269435Y0239527D01*
X0268681Y0240281D01*
X0268272Y0241267D01*
X0268272Y0242333D01*
X0268681Y0243319D01*
X0269435Y0244073D01*
X0270420Y0244481D01*
X0271487Y0244481D01*
X0272472Y0244073D01*
X0273226Y0243319D01*
X0273635Y0242333D01*
X0273635Y0241267D01*
X0273226Y0240281D01*
X0273635Y0241614D02*
X0287000Y0241614D01*
X0287000Y0243212D02*
X0273270Y0243212D01*
X0268946Y0240015D02*
X0168839Y0240015D01*
X0168680Y0240253D02*
X0168253Y0240680D01*
X0167751Y0241015D01*
X0167194Y0241246D01*
X0166602Y0241364D01*
X0166300Y0241364D01*
X0165998Y0241364D01*
X0165406Y0241246D01*
X0164849Y0241015D01*
X0164347Y0240680D01*
X0163920Y0240253D01*
X0163585Y0239751D01*
X0163354Y0239194D01*
X0163236Y0238602D01*
X0163236Y0238300D01*
X0163236Y0237998D01*
X0163354Y0237406D01*
X0163585Y0236849D01*
X0163920Y0236347D01*
X0164347Y0235920D01*
X0164849Y0235585D01*
X0165406Y0235354D01*
X0165998Y0235236D01*
X0166300Y0235236D01*
X0166602Y0235236D01*
X0167194Y0235354D01*
X0167751Y0235585D01*
X0168253Y0235920D01*
X0168680Y0236347D01*
X0169015Y0236849D01*
X0169246Y0237406D01*
X0169364Y0237998D01*
X0169364Y0238300D01*
X0169364Y0238602D01*
X0169246Y0239194D01*
X0169015Y0239751D01*
X0168680Y0240253D01*
X0169364Y0238417D02*
X0228125Y0238417D01*
X0228027Y0238319D02*
X0227619Y0237333D01*
X0227619Y0236267D01*
X0228027Y0235281D01*
X0228781Y0234527D01*
X0229767Y0234119D01*
X0230833Y0234119D01*
X0231819Y0234527D01*
X0232573Y0235281D01*
X0232981Y0236267D01*
X0232981Y0237333D01*
X0232573Y0238319D01*
X0231819Y0239073D01*
X0230833Y0239481D01*
X0229767Y0239481D01*
X0228781Y0239073D01*
X0228027Y0238319D01*
X0227619Y0236818D02*
X0197114Y0236818D01*
X0197180Y0236753D02*
X0196753Y0237180D01*
X0196251Y0237515D01*
X0195694Y0237746D01*
X0195102Y0237864D01*
X0194800Y0237864D01*
X0194498Y0237864D01*
X0193906Y0237746D01*
X0193349Y0237515D01*
X0192847Y0237180D01*
X0192420Y0236753D01*
X0192085Y0236251D01*
X0191854Y0235694D01*
X0191736Y0235102D01*
X0191736Y0234800D01*
X0191736Y0234498D01*
X0191854Y0233906D01*
X0192085Y0233349D01*
X0192420Y0232847D01*
X0192847Y0232420D01*
X0193349Y0232085D01*
X0193906Y0231854D01*
X0194178Y0231800D01*
X0193906Y0231746D01*
X0193349Y0231515D01*
X0192847Y0231180D01*
X0192420Y0230753D01*
X0192085Y0230251D01*
X0191854Y0229694D01*
X0191736Y0229102D01*
X0191736Y0228800D01*
X0191736Y0228498D01*
X0191854Y0227906D01*
X0192085Y0227349D01*
X0192420Y0226847D01*
X0192847Y0226420D01*
X0193349Y0226085D01*
X0193906Y0225854D01*
X0194498Y0225736D01*
X0194800Y0225736D01*
X0195102Y0225736D01*
X0195694Y0225854D01*
X0196251Y0226085D01*
X0196753Y0226420D01*
X0197180Y0226847D01*
X0197515Y0227349D01*
X0197746Y0227906D01*
X0197864Y0228498D01*
X0197864Y0228800D01*
X0197864Y0229102D01*
X0197746Y0229694D01*
X0197515Y0230251D01*
X0197180Y0230753D01*
X0196753Y0231180D01*
X0196251Y0231515D01*
X0195694Y0231746D01*
X0195422Y0231800D01*
X0195694Y0231854D01*
X0196251Y0232085D01*
X0196753Y0232420D01*
X0197180Y0232847D01*
X0197515Y0233349D01*
X0197746Y0233906D01*
X0197864Y0234498D01*
X0197864Y0234800D01*
X0197864Y0235102D01*
X0197746Y0235694D01*
X0197515Y0236251D01*
X0197180Y0236753D01*
X0197840Y0235220D02*
X0228088Y0235220D01*
X0231027Y0232819D02*
X0230619Y0231833D01*
X0230619Y0230767D01*
X0231027Y0229781D01*
X0231781Y0229027D01*
X0232767Y0228619D01*
X0233833Y0228619D01*
X0234819Y0229027D01*
X0235573Y0229781D01*
X0235981Y0230767D01*
X0235981Y0231833D01*
X0235573Y0232819D01*
X0234819Y0233573D01*
X0233833Y0233981D01*
X0232767Y0233981D01*
X0231781Y0233573D01*
X0231027Y0232819D01*
X0230697Y0232023D02*
X0196101Y0232023D01*
X0194800Y0232023D02*
X0194800Y0232023D01*
X0194800Y0231736D02*
X0194800Y0234800D01*
X0197864Y0234800D01*
X0194800Y0234800D01*
X0194800Y0234800D01*
X0194800Y0234800D01*
X0194800Y0237864D01*
X0194800Y0234800D01*
X0194800Y0234800D01*
X0191736Y0234800D01*
X0194800Y0234800D01*
X0194800Y0234800D01*
X0194800Y0228800D01*
X0197864Y0228800D01*
X0194800Y0228800D01*
X0194800Y0228800D01*
X0194800Y0228800D01*
X0194800Y0231736D01*
X0194800Y0230424D02*
X0194800Y0230424D01*
X0194800Y0228826D02*
X0194800Y0228826D01*
X0194800Y0228800D02*
X0194800Y0228800D01*
X0194800Y0225736D01*
X0194800Y0228800D01*
X0194800Y0228800D01*
X0191736Y0228800D01*
X0194800Y0228800D01*
X0194800Y0227227D02*
X0194800Y0227227D01*
X0197434Y0227227D02*
X0236635Y0227227D01*
X0236823Y0228826D02*
X0234333Y0228826D01*
X0232267Y0228826D02*
X0197864Y0228826D01*
X0197399Y0230424D02*
X0230761Y0230424D01*
X0231898Y0233621D02*
X0197628Y0233621D01*
X0194800Y0233621D02*
X0194800Y0233621D01*
X0194800Y0235220D02*
X0194800Y0235220D01*
X0194800Y0236818D02*
X0194800Y0236818D01*
X0192486Y0236818D02*
X0168995Y0236818D01*
X0169364Y0238300D02*
X0166300Y0238300D01*
X0169364Y0238300D01*
X0166300Y0238300D02*
X0166300Y0238300D01*
X0166300Y0238300D01*
X0166300Y0241364D01*
X0166300Y0238300D01*
X0166300Y0235236D01*
X0166300Y0238300D01*
X0166300Y0238300D01*
X0166300Y0238300D01*
X0163236Y0238300D01*
X0166300Y0238300D01*
X0166300Y0238417D02*
X0166300Y0238417D01*
X0166300Y0240015D02*
X0166300Y0240015D01*
X0163761Y0240015D02*
X0158837Y0240015D01*
X0160436Y0238417D02*
X0163236Y0238417D01*
X0163605Y0236818D02*
X0162034Y0236818D01*
X0163633Y0235220D02*
X0191760Y0235220D01*
X0191972Y0233621D02*
X0165231Y0233621D01*
X0165576Y0233276D02*
X0146600Y0252253D01*
X0146600Y0320347D01*
X0155753Y0329500D01*
X0196891Y0329500D01*
X0197114Y0329277D01*
X0198208Y0328824D01*
X0199392Y0328824D01*
X0200486Y0329277D01*
X0201323Y0330114D01*
X0201776Y0331208D01*
X0201776Y0332392D01*
X0201323Y0333486D01*
X0200486Y0334323D01*
X0199392Y0334776D01*
X0198208Y0334776D01*
X0197114Y0334323D01*
X0196891Y0334100D01*
X0153847Y0334100D01*
X0152500Y0332753D01*
X0144300Y0324553D01*
X0136100Y0332753D01*
X0134753Y0334100D01*
X0113209Y0334100D01*
X0112986Y0334323D01*
X0111892Y0334776D01*
X0110708Y0334776D01*
X0109614Y0334323D01*
X0108777Y0333486D01*
X0108324Y0332392D01*
X0108324Y0331208D01*
X0108777Y0330114D01*
X0109614Y0329277D01*
X0110708Y0328824D01*
X0111892Y0328824D01*
X0112986Y0329277D01*
X0113209Y0329500D01*
X0132847Y0329500D01*
X0142000Y0320347D01*
X0142000Y0250347D01*
X0162324Y0230024D01*
X0162324Y0229708D01*
X0162777Y0228614D01*
X0163614Y0227777D01*
X0164708Y0227324D01*
X0165892Y0227324D01*
X0166986Y0227777D01*
X0167823Y0228614D01*
X0168276Y0229708D01*
X0168276Y0229796D01*
X0168354Y0229406D01*
X0168585Y0228849D01*
X0168920Y0228347D01*
X0169347Y0227920D01*
X0169849Y0227585D01*
X0170406Y0227354D01*
X0170998Y0227236D01*
X0171300Y0227236D01*
X0171602Y0227236D01*
X0172194Y0227354D01*
X0172751Y0227585D01*
X0173253Y0227920D01*
X0173680Y0228347D01*
X0174015Y0228849D01*
X0174246Y0229406D01*
X0174364Y0229998D01*
X0174364Y0230300D01*
X0174364Y0230602D01*
X0174246Y0231194D01*
X0174015Y0231751D01*
X0173680Y0232253D01*
X0173253Y0232680D01*
X0172751Y0233015D01*
X0172194Y0233246D01*
X0171602Y0233364D01*
X0171300Y0233364D01*
X0170998Y0233364D01*
X0170406Y0233246D01*
X0169849Y0233015D01*
X0169347Y0232680D01*
X0168920Y0232253D01*
X0168585Y0231751D01*
X0168354Y0231194D01*
X0168276Y0230804D01*
X0168276Y0230892D01*
X0167823Y0231986D01*
X0166986Y0232823D01*
X0165892Y0233276D01*
X0165576Y0233276D01*
X0167786Y0232023D02*
X0168766Y0232023D01*
X0171300Y0232023D02*
X0171300Y0232023D01*
X0171300Y0233364D02*
X0171300Y0230300D01*
X0174364Y0230300D01*
X0171300Y0230300D01*
X0171300Y0230300D01*
X0171300Y0230300D01*
X0171300Y0233364D01*
X0173834Y0232023D02*
X0193499Y0232023D01*
X0192201Y0230424D02*
X0174364Y0230424D01*
X0174000Y0228826D02*
X0191736Y0228826D01*
X0192166Y0227227D02*
X0149525Y0227227D01*
X0149864Y0225800D02*
X0146800Y0225800D01*
X0146800Y0225800D01*
X0146800Y0228864D01*
X0146800Y0225800D01*
X0146800Y0225800D01*
X0146800Y0225800D01*
X0143736Y0225800D01*
X0146800Y0225800D01*
X0149864Y0225800D01*
X0149864Y0225629D02*
X0164352Y0225629D01*
X0166248Y0225629D02*
X0237680Y0225629D01*
X0240920Y0225629D02*
X0241619Y0225629D01*
X0242278Y0224030D02*
X0168012Y0224030D01*
X0171300Y0227236D02*
X0171300Y0230300D01*
X0171300Y0227236D01*
X0171300Y0228826D02*
X0171300Y0228826D01*
X0171300Y0230300D02*
X0171300Y0230300D01*
X0171300Y0230424D02*
X0171300Y0230424D01*
X0168600Y0228826D02*
X0167911Y0228826D01*
X0165300Y0230300D02*
X0144300Y0251300D01*
X0144300Y0321300D01*
X0133800Y0331800D01*
X0111300Y0331800D01*
X0108463Y0332729D02*
X0076413Y0332729D01*
X0076408Y0332724D02*
X0078337Y0334652D01*
X0079700Y0337014D01*
X0080406Y0339649D01*
X0080406Y0342376D01*
X0079700Y0345011D01*
X0078337Y0347373D01*
X0076408Y0349301D01*
X0074046Y0350665D01*
X0071412Y0351371D01*
X0068684Y0351371D01*
X0066050Y0350665D01*
X0063688Y0349301D01*
X0061759Y0347373D01*
X0060396Y0345011D01*
X0059690Y0342376D01*
X0059690Y0339649D01*
X0060396Y0337014D01*
X0061759Y0334652D01*
X0063688Y0332724D01*
X0066050Y0331360D01*
X0068684Y0330654D01*
X0071412Y0330654D01*
X0074046Y0331360D01*
X0076408Y0332724D01*
X0078012Y0334328D02*
X0109624Y0334328D01*
X0112976Y0334328D02*
X0197124Y0334328D01*
X0198800Y0331800D02*
X0154800Y0331800D01*
X0144300Y0321300D01*
X0146600Y0319941D02*
X0220565Y0319941D01*
X0220905Y0319800D02*
X0222695Y0319800D01*
X0224349Y0320485D01*
X0225615Y0321751D01*
X0226300Y0323405D01*
X0226300Y0325195D01*
X0225615Y0326849D01*
X0224349Y0328115D01*
X0222695Y0328800D01*
X0220905Y0328800D01*
X0219251Y0328115D01*
X0217985Y0326849D01*
X0217300Y0325195D01*
X0217300Y0323405D01*
X0217985Y0321751D01*
X0219251Y0320485D01*
X0220905Y0319800D01*
X0223035Y0319941D02*
X0230565Y0319941D01*
X0230905Y0319800D02*
X0232695Y0319800D01*
X0234349Y0320485D01*
X0235615Y0321751D01*
X0236300Y0323405D01*
X0236300Y0325195D01*
X0235615Y0326849D01*
X0234349Y0328115D01*
X0232695Y0328800D01*
X0230905Y0328800D01*
X0229251Y0328115D01*
X0227985Y0326849D01*
X0227300Y0325195D01*
X0227300Y0323405D01*
X0227985Y0321751D01*
X0229251Y0320485D01*
X0230905Y0319800D01*
X0233035Y0319941D02*
X0240565Y0319941D01*
X0240905Y0319800D02*
X0242695Y0319800D01*
X0244349Y0320485D01*
X0245615Y0321751D01*
X0246300Y0323405D01*
X0246300Y0325195D01*
X0245615Y0326849D01*
X0244349Y0328115D01*
X0242695Y0328800D01*
X0240905Y0328800D01*
X0239251Y0328115D01*
X0237985Y0326849D01*
X0237300Y0325195D01*
X0237300Y0323405D01*
X0237985Y0321751D01*
X0239251Y0320485D01*
X0240905Y0319800D01*
X0243035Y0319941D02*
X0250565Y0319941D01*
X0250905Y0319800D02*
X0252695Y0319800D01*
X0254349Y0320485D01*
X0255615Y0321751D01*
X0256300Y0323405D01*
X0256300Y0325195D01*
X0255615Y0326849D01*
X0254349Y0328115D01*
X0252695Y0328800D01*
X0250905Y0328800D01*
X0249251Y0328115D01*
X0247985Y0326849D01*
X0247300Y0325195D01*
X0247300Y0323405D01*
X0247985Y0321751D01*
X0249251Y0320485D01*
X0250905Y0319800D01*
X0253035Y0319941D02*
X0260565Y0319941D01*
X0260905Y0319800D02*
X0262695Y0319800D01*
X0264349Y0320485D01*
X0265615Y0321751D01*
X0266300Y0323405D01*
X0266300Y0325195D01*
X0265615Y0326849D01*
X0264349Y0328115D01*
X0262695Y0328800D01*
X0260905Y0328800D01*
X0259251Y0328115D01*
X0257985Y0326849D01*
X0257300Y0325195D01*
X0257300Y0323405D01*
X0257985Y0321751D01*
X0259251Y0320485D01*
X0260905Y0319800D01*
X0263035Y0319941D02*
X0270565Y0319941D01*
X0270905Y0319800D02*
X0272695Y0319800D01*
X0274349Y0320485D01*
X0275615Y0321751D01*
X0276300Y0323405D01*
X0276300Y0325195D01*
X0275615Y0326849D01*
X0274349Y0328115D01*
X0272695Y0328800D01*
X0270905Y0328800D01*
X0269251Y0328115D01*
X0267985Y0326849D01*
X0267300Y0325195D01*
X0267300Y0323405D01*
X0267985Y0321751D01*
X0269251Y0320485D01*
X0270905Y0319800D01*
X0273035Y0319941D02*
X0327814Y0319941D01*
X0328037Y0320164D02*
X0327117Y0319244D01*
X0326619Y0318041D01*
X0326619Y0316740D01*
X0327117Y0315537D01*
X0328037Y0314617D01*
X0329240Y0314119D01*
X0330541Y0314119D01*
X0331744Y0314617D01*
X0332664Y0315537D01*
X0333162Y0316740D01*
X0333162Y0318041D01*
X0332664Y0319244D01*
X0331744Y0320164D01*
X0330541Y0320662D01*
X0329240Y0320662D01*
X0328037Y0320164D01*
X0326744Y0318342D02*
X0146600Y0318342D01*
X0146600Y0316744D02*
X0197443Y0316744D01*
X0197347Y0316680D02*
X0196920Y0316253D01*
X0196585Y0315751D01*
X0196354Y0315194D01*
X0196236Y0314602D01*
X0196236Y0314300D01*
X0196236Y0313998D01*
X0196354Y0313406D01*
X0196585Y0312849D01*
X0196920Y0312347D01*
X0197347Y0311920D01*
X0197849Y0311585D01*
X0198406Y0311354D01*
X0198998Y0311236D01*
X0199300Y0311236D01*
X0199602Y0311236D01*
X0200194Y0311354D01*
X0200751Y0311585D01*
X0201253Y0311920D01*
X0201680Y0312347D01*
X0202015Y0312849D01*
X0202246Y0313406D01*
X0202364Y0313998D01*
X0202364Y0314300D01*
X0202364Y0314602D01*
X0202246Y0315194D01*
X0202015Y0315751D01*
X0201680Y0316253D01*
X0201253Y0316680D01*
X0200751Y0317015D01*
X0200194Y0317246D01*
X0199602Y0317364D01*
X0199300Y0317364D01*
X0198998Y0317364D01*
X0198406Y0317246D01*
X0197849Y0317015D01*
X0197347Y0316680D01*
X0196344Y0315145D02*
X0146600Y0315145D01*
X0146600Y0313547D02*
X0196326Y0313547D01*
X0196236Y0314300D02*
X0199300Y0314300D01*
X0202364Y0314300D01*
X0199300Y0314300D01*
X0199300Y0314300D01*
X0199300Y0314300D01*
X0199300Y0317364D01*
X0199300Y0314300D01*
X0199300Y0311236D01*
X0199300Y0314300D01*
X0199300Y0314300D01*
X0199300Y0314300D01*
X0196236Y0314300D01*
X0197319Y0311948D02*
X0146600Y0311948D01*
X0146600Y0310350D02*
X0367476Y0310350D01*
X0367476Y0311948D02*
X0201281Y0311948D01*
X0202274Y0313547D02*
X0367476Y0313547D01*
X0367476Y0315145D02*
X0363768Y0315145D01*
X0364160Y0315537D02*
X0364658Y0316740D01*
X0364658Y0318041D01*
X0364160Y0319244D01*
X0363240Y0320164D01*
X0362037Y0320662D01*
X0360736Y0320662D01*
X0359533Y0320164D01*
X0358613Y0319244D01*
X0358115Y0318041D01*
X0358115Y0316740D01*
X0358613Y0315537D01*
X0359533Y0314617D01*
X0360736Y0314119D01*
X0362037Y0314119D01*
X0363240Y0314617D01*
X0364160Y0315537D01*
X0364658Y0316744D02*
X0367476Y0316744D01*
X0367476Y0318342D02*
X0364534Y0318342D01*
X0363463Y0319941D02*
X0367476Y0319941D01*
X0367476Y0321539D02*
X0275403Y0321539D01*
X0276189Y0323138D02*
X0367476Y0323138D01*
X0367476Y0324737D02*
X0276300Y0324737D01*
X0275828Y0326335D02*
X0367476Y0326335D01*
X0367476Y0327934D02*
X0274530Y0327934D01*
X0269070Y0327934D02*
X0264530Y0327934D01*
X0265828Y0326335D02*
X0267772Y0326335D01*
X0267300Y0324737D02*
X0266300Y0324737D01*
X0266189Y0323138D02*
X0267411Y0323138D01*
X0268197Y0321539D02*
X0265403Y0321539D01*
X0258197Y0321539D02*
X0255403Y0321539D01*
X0256189Y0323138D02*
X0257411Y0323138D01*
X0257300Y0324737D02*
X0256300Y0324737D01*
X0255828Y0326335D02*
X0257772Y0326335D01*
X0259070Y0327934D02*
X0254530Y0327934D01*
X0249070Y0327934D02*
X0244530Y0327934D01*
X0245828Y0326335D02*
X0247772Y0326335D01*
X0247300Y0324737D02*
X0246300Y0324737D01*
X0246189Y0323138D02*
X0247411Y0323138D01*
X0248197Y0321539D02*
X0245403Y0321539D01*
X0238197Y0321539D02*
X0235403Y0321539D01*
X0236189Y0323138D02*
X0237411Y0323138D01*
X0237300Y0324737D02*
X0236300Y0324737D01*
X0235828Y0326335D02*
X0237772Y0326335D01*
X0239070Y0327934D02*
X0234530Y0327934D01*
X0229070Y0327934D02*
X0224530Y0327934D01*
X0225828Y0326335D02*
X0227772Y0326335D01*
X0227300Y0324737D02*
X0226300Y0324737D01*
X0226189Y0323138D02*
X0227411Y0323138D01*
X0228197Y0321539D02*
X0225403Y0321539D01*
X0218197Y0321539D02*
X0147792Y0321539D01*
X0149391Y0323138D02*
X0217411Y0323138D01*
X0217300Y0324737D02*
X0150989Y0324737D01*
X0152588Y0326335D02*
X0217772Y0326335D01*
X0219070Y0327934D02*
X0154186Y0327934D01*
X0150878Y0331131D02*
X0137722Y0331131D01*
X0136124Y0332729D02*
X0152476Y0332729D01*
X0149279Y0329532D02*
X0139321Y0329532D01*
X0140919Y0327934D02*
X0147681Y0327934D01*
X0146082Y0326335D02*
X0142518Y0326335D01*
X0144116Y0324737D02*
X0144484Y0324737D01*
X0140808Y0321539D02*
X0056084Y0321539D01*
X0056084Y0319941D02*
X0060098Y0319941D01*
X0060321Y0320164D02*
X0059400Y0319244D01*
X0058902Y0318041D01*
X0058902Y0316740D01*
X0059400Y0315537D01*
X0060321Y0314617D01*
X0061523Y0314119D01*
X0062825Y0314119D01*
X0064027Y0314617D01*
X0064948Y0315537D01*
X0065446Y0316740D01*
X0065446Y0318041D01*
X0064948Y0319244D01*
X0064027Y0320164D01*
X0062825Y0320662D01*
X0061523Y0320662D01*
X0060321Y0320164D01*
X0059027Y0318342D02*
X0056084Y0318342D01*
X0056084Y0316744D02*
X0058902Y0316744D01*
X0059792Y0315145D02*
X0056084Y0315145D01*
X0056084Y0313547D02*
X0142000Y0313547D01*
X0142000Y0315145D02*
X0096052Y0315145D01*
X0096444Y0315537D02*
X0096942Y0316740D01*
X0096942Y0318041D01*
X0096444Y0319244D01*
X0095523Y0320164D01*
X0094321Y0320662D01*
X0093019Y0320662D01*
X0091817Y0320164D01*
X0090897Y0319244D01*
X0090398Y0318041D01*
X0090398Y0316740D01*
X0090897Y0315537D01*
X0091817Y0314617D01*
X0093019Y0314119D01*
X0094321Y0314119D01*
X0095523Y0314617D01*
X0096444Y0315537D01*
X0096942Y0316744D02*
X0142000Y0316744D01*
X0142000Y0318342D02*
X0096817Y0318342D01*
X0095746Y0319941D02*
X0142000Y0319941D01*
X0139209Y0323138D02*
X0056084Y0323138D01*
X0056084Y0324737D02*
X0137611Y0324737D01*
X0136012Y0326335D02*
X0056084Y0326335D01*
X0056084Y0327934D02*
X0134414Y0327934D01*
X0142000Y0311948D02*
X0056084Y0311948D01*
X0056084Y0310350D02*
X0142000Y0310350D01*
X0142000Y0308751D02*
X0056084Y0308751D01*
X0056084Y0307153D02*
X0142000Y0307153D01*
X0142000Y0305554D02*
X0056084Y0305554D01*
X0056084Y0303956D02*
X0131877Y0303956D01*
X0132027Y0304319D02*
X0131619Y0303333D01*
X0131619Y0302267D01*
X0132027Y0301281D01*
X0132781Y0300527D01*
X0133767Y0300119D01*
X0134833Y0300119D01*
X0135819Y0300527D01*
X0136573Y0301281D01*
X0136981Y0302267D01*
X0136981Y0303333D01*
X0136573Y0304319D01*
X0135819Y0305073D01*
X0134833Y0305481D01*
X0133767Y0305481D01*
X0132781Y0305073D01*
X0132027Y0304319D01*
X0131619Y0302357D02*
X0115134Y0302357D01*
X0115102Y0302364D02*
X0114800Y0302364D01*
X0114498Y0302364D01*
X0113906Y0302246D01*
X0113349Y0302015D01*
X0112847Y0301680D01*
X0112420Y0301253D01*
X0112085Y0300751D01*
X0111854Y0300194D01*
X0111736Y0299602D01*
X0111736Y0299300D01*
X0111736Y0298998D01*
X0111854Y0298406D01*
X0112085Y0297849D01*
X0112420Y0297347D01*
X0112847Y0296920D01*
X0113349Y0296585D01*
X0113906Y0296354D01*
X0114498Y0296236D01*
X0114800Y0296236D01*
X0115102Y0296236D01*
X0115694Y0296354D01*
X0116251Y0296585D01*
X0116753Y0296920D01*
X0117180Y0297347D01*
X0117515Y0297849D01*
X0117746Y0298406D01*
X0117864Y0298998D01*
X0117864Y0299300D01*
X0117864Y0299602D01*
X0117746Y0300194D01*
X0117515Y0300751D01*
X0117180Y0301253D01*
X0116753Y0301680D01*
X0116251Y0302015D01*
X0115694Y0302246D01*
X0115102Y0302364D01*
X0114800Y0302364D02*
X0114800Y0299300D01*
X0117864Y0299300D01*
X0114800Y0299300D01*
X0114800Y0299300D01*
X0114800Y0299300D01*
X0114800Y0296236D01*
X0114800Y0299300D01*
X0114800Y0299300D01*
X0114800Y0299300D01*
X0111736Y0299300D01*
X0114800Y0299300D01*
X0114800Y0302364D01*
X0114800Y0302357D02*
X0114800Y0302357D01*
X0114466Y0302357D02*
X0056084Y0302357D01*
X0056084Y0300759D02*
X0112090Y0300759D01*
X0111736Y0299160D02*
X0056084Y0299160D01*
X0056084Y0297562D02*
X0112277Y0297562D01*
X0114800Y0297562D02*
X0114800Y0297562D01*
X0114800Y0299160D02*
X0114800Y0299160D01*
X0114800Y0300759D02*
X0114800Y0300759D01*
X0117510Y0300759D02*
X0132550Y0300759D01*
X0136050Y0300759D02*
X0136619Y0300759D01*
X0136619Y0300833D02*
X0136619Y0299767D01*
X0137027Y0298781D01*
X0137781Y0298027D01*
X0138767Y0297619D01*
X0139833Y0297619D01*
X0140819Y0298027D01*
X0141573Y0298781D01*
X0141981Y0299767D01*
X0141981Y0300833D01*
X0141573Y0301819D01*
X0140819Y0302573D01*
X0139833Y0302981D01*
X0138767Y0302981D01*
X0137781Y0302573D01*
X0137027Y0301819D01*
X0136619Y0300833D01*
X0136981Y0302357D02*
X0137566Y0302357D01*
X0136723Y0303956D02*
X0142000Y0303956D01*
X0142000Y0302357D02*
X0141034Y0302357D01*
X0141981Y0300759D02*
X0142000Y0300759D01*
X0142000Y0299160D02*
X0141730Y0299160D01*
X0142000Y0297562D02*
X0117323Y0297562D01*
X0117864Y0299160D02*
X0136870Y0299160D01*
X0142000Y0295963D02*
X0056084Y0295963D01*
X0056084Y0294365D02*
X0142000Y0294365D01*
X0142000Y0292766D02*
X0056084Y0292766D01*
X0056084Y0291168D02*
X0142000Y0291168D01*
X0142000Y0289569D02*
X0056084Y0289569D01*
X0056084Y0287971D02*
X0142000Y0287971D01*
X0142000Y0286372D02*
X0056084Y0286372D01*
X0056084Y0284774D02*
X0142000Y0284774D01*
X0142000Y0283175D02*
X0105865Y0283175D01*
X0105694Y0283246D02*
X0105102Y0283364D01*
X0104800Y0283364D01*
X0104498Y0283364D01*
X0103906Y0283246D01*
X0103349Y0283015D01*
X0102847Y0282680D01*
X0102420Y0282253D01*
X0102085Y0281751D01*
X0101854Y0281194D01*
X0101736Y0280602D01*
X0101736Y0280300D01*
X0101736Y0279998D01*
X0101854Y0279406D01*
X0102085Y0278849D01*
X0102420Y0278347D01*
X0102847Y0277920D01*
X0103349Y0277585D01*
X0103906Y0277354D01*
X0104498Y0277236D01*
X0104800Y0277236D01*
X0105102Y0277236D01*
X0105694Y0277354D01*
X0106251Y0277585D01*
X0106753Y0277920D01*
X0107180Y0278347D01*
X0107515Y0278849D01*
X0107746Y0279406D01*
X0107864Y0279998D01*
X0107864Y0280300D01*
X0107864Y0280602D01*
X0107746Y0281194D01*
X0107515Y0281751D01*
X0107180Y0282253D01*
X0106753Y0282680D01*
X0106251Y0283015D01*
X0105694Y0283246D01*
X0104800Y0283175D02*
X0104800Y0283175D01*
X0104800Y0283364D02*
X0104800Y0280300D01*
X0107864Y0280300D01*
X0104800Y0280300D01*
X0104800Y0280300D01*
X0104800Y0280300D01*
X0104800Y0283364D01*
X0103735Y0283175D02*
X0086632Y0283175D01*
X0086573Y0283319D02*
X0085819Y0284073D01*
X0084833Y0284481D01*
X0083767Y0284481D01*
X0082781Y0284073D01*
X0082027Y0283319D01*
X0081619Y0282333D01*
X0081619Y0281267D01*
X0082027Y0280281D01*
X0082781Y0279527D01*
X0083767Y0279119D01*
X0084833Y0279119D01*
X0085819Y0279527D01*
X0086573Y0280281D01*
X0086981Y0281267D01*
X0086981Y0282333D01*
X0086573Y0283319D01*
X0086981Y0281577D02*
X0102013Y0281577D01*
X0101736Y0280300D02*
X0104800Y0280300D01*
X0104800Y0277236D01*
X0104800Y0280300D01*
X0104800Y0280300D01*
X0104800Y0280300D01*
X0101736Y0280300D01*
X0101740Y0279978D02*
X0086270Y0279978D01*
X0082330Y0279978D02*
X0064843Y0279978D01*
X0064948Y0279874D02*
X0064027Y0280794D01*
X0062825Y0281292D01*
X0061523Y0281292D01*
X0060321Y0280794D01*
X0059400Y0279874D01*
X0058902Y0278671D01*
X0058902Y0277370D01*
X0059400Y0276167D01*
X0060321Y0275247D01*
X0061523Y0274749D01*
X0062825Y0274749D01*
X0064027Y0275247D01*
X0064948Y0276167D01*
X0065446Y0277370D01*
X0065446Y0278671D01*
X0064948Y0279874D01*
X0065446Y0278380D02*
X0102398Y0278380D01*
X0104800Y0278380D02*
X0104800Y0278380D01*
X0104800Y0279978D02*
X0104800Y0279978D01*
X0104800Y0281577D02*
X0104800Y0281577D01*
X0107587Y0281577D02*
X0142000Y0281577D01*
X0142000Y0279978D02*
X0107860Y0279978D01*
X0107202Y0278380D02*
X0142000Y0278380D01*
X0142000Y0276781D02*
X0096601Y0276781D01*
X0096753Y0276680D02*
X0096251Y0277015D01*
X0095694Y0277246D01*
X0095102Y0277364D01*
X0094800Y0277364D01*
X0094498Y0277364D01*
X0093906Y0277246D01*
X0093349Y0277015D01*
X0092847Y0276680D01*
X0092420Y0276253D01*
X0092085Y0275751D01*
X0091854Y0275194D01*
X0091736Y0274602D01*
X0091736Y0274300D01*
X0091736Y0273998D01*
X0091854Y0273406D01*
X0092085Y0272849D01*
X0092420Y0272347D01*
X0092847Y0271920D01*
X0093349Y0271585D01*
X0093906Y0271354D01*
X0094498Y0271236D01*
X0094800Y0271236D01*
X0095102Y0271236D01*
X0095694Y0271354D01*
X0096251Y0271585D01*
X0096753Y0271920D01*
X0097180Y0272347D01*
X0097515Y0272849D01*
X0097746Y0273406D01*
X0097864Y0273998D01*
X0097864Y0274300D01*
X0097864Y0274602D01*
X0097746Y0275194D01*
X0097515Y0275751D01*
X0097180Y0276253D01*
X0096753Y0276680D01*
X0097748Y0275183D02*
X0106351Y0275183D01*
X0106347Y0275180D02*
X0105920Y0274753D01*
X0105585Y0274251D01*
X0105354Y0273694D01*
X0105236Y0273102D01*
X0105236Y0272800D01*
X0105236Y0272498D01*
X0105354Y0271906D01*
X0105585Y0271349D01*
X0105920Y0270847D01*
X0106347Y0270420D01*
X0106849Y0270085D01*
X0107406Y0269854D01*
X0107998Y0269736D01*
X0108300Y0269736D01*
X0108602Y0269736D01*
X0109194Y0269854D01*
X0109751Y0270085D01*
X0110253Y0270420D01*
X0110680Y0270847D01*
X0111015Y0271349D01*
X0111246Y0271906D01*
X0111364Y0272498D01*
X0111364Y0272800D01*
X0111364Y0273102D01*
X0111246Y0273694D01*
X0111015Y0274251D01*
X0110680Y0274753D01*
X0110253Y0275180D01*
X0109751Y0275515D01*
X0109194Y0275746D01*
X0108602Y0275864D01*
X0108300Y0275864D01*
X0107998Y0275864D01*
X0107406Y0275746D01*
X0106849Y0275515D01*
X0106347Y0275180D01*
X0105332Y0273584D02*
X0097781Y0273584D01*
X0097864Y0274300D02*
X0094800Y0274300D01*
X0097864Y0274300D01*
X0096818Y0271986D02*
X0105338Y0271986D01*
X0105236Y0272800D02*
X0108300Y0272800D01*
X0111364Y0272800D01*
X0108300Y0272800D01*
X0108300Y0272800D01*
X0108300Y0272800D01*
X0108300Y0275864D01*
X0108300Y0272800D01*
X0108300Y0269736D01*
X0108300Y0272800D01*
X0108300Y0272800D01*
X0108300Y0272800D01*
X0105236Y0272800D01*
X0106396Y0270387D02*
X0056084Y0270387D01*
X0056084Y0268789D02*
X0142000Y0268789D01*
X0142000Y0270387D02*
X0131179Y0270387D01*
X0130819Y0270027D02*
X0131573Y0270781D01*
X0131981Y0271767D01*
X0131981Y0272833D01*
X0131573Y0273819D01*
X0130819Y0274573D01*
X0129833Y0274981D01*
X0128767Y0274981D01*
X0127781Y0274573D01*
X0127027Y0273819D01*
X0126619Y0272833D01*
X0126619Y0271767D01*
X0127027Y0270781D01*
X0127781Y0270027D01*
X0128767Y0269619D01*
X0129833Y0269619D01*
X0130819Y0270027D01*
X0131981Y0271986D02*
X0142000Y0271986D01*
X0142000Y0273584D02*
X0131670Y0273584D01*
X0126930Y0273584D02*
X0111268Y0273584D01*
X0111262Y0271986D02*
X0126619Y0271986D01*
X0127421Y0270387D02*
X0110204Y0270387D01*
X0108300Y0270387D02*
X0108300Y0270387D01*
X0108300Y0271986D02*
X0108300Y0271986D01*
X0108300Y0273584D02*
X0108300Y0273584D01*
X0108300Y0275183D02*
X0108300Y0275183D01*
X0110249Y0275183D02*
X0142000Y0275183D01*
X0146600Y0275183D02*
X0287000Y0275183D01*
X0287000Y0276781D02*
X0146600Y0276781D01*
X0146600Y0278380D02*
X0287000Y0278380D01*
X0287000Y0279978D02*
X0146600Y0279978D01*
X0146600Y0281577D02*
X0287000Y0281577D01*
X0287000Y0283175D02*
X0146600Y0283175D01*
X0146600Y0284774D02*
X0287000Y0284774D01*
X0288120Y0286372D02*
X0154111Y0286372D01*
X0154073Y0286281D02*
X0154481Y0287267D01*
X0154481Y0288333D01*
X0154073Y0289319D01*
X0153319Y0290073D01*
X0152333Y0290481D01*
X0151267Y0290481D01*
X0150281Y0290073D01*
X0149527Y0289319D01*
X0149119Y0288333D01*
X0149119Y0287267D01*
X0149527Y0286281D01*
X0150281Y0285527D01*
X0151267Y0285119D01*
X0152333Y0285119D01*
X0153319Y0285527D01*
X0154073Y0286281D01*
X0154481Y0287971D02*
X0311341Y0287971D01*
X0311236Y0288800D02*
X0314300Y0288800D01*
X0314300Y0288800D01*
X0314300Y0291864D01*
X0314300Y0288800D01*
X0317364Y0288800D01*
X0314300Y0288800D01*
X0314300Y0288800D01*
X0314300Y0288800D01*
X0311236Y0288800D01*
X0311329Y0289569D02*
X0153822Y0289569D01*
X0149778Y0289569D02*
X0146600Y0289569D01*
X0146600Y0287971D02*
X0149119Y0287971D01*
X0149489Y0286372D02*
X0146600Y0286372D01*
X0146600Y0291168D02*
X0222367Y0291168D01*
X0222527Y0290781D02*
X0222119Y0291767D01*
X0222119Y0292833D01*
X0222527Y0293819D01*
X0223281Y0294573D01*
X0224267Y0294981D01*
X0225333Y0294981D01*
X0226319Y0294573D01*
X0227073Y0293819D01*
X0227481Y0292833D01*
X0227481Y0291767D01*
X0227073Y0290781D01*
X0226319Y0290027D01*
X0225333Y0289619D01*
X0224267Y0289619D01*
X0223281Y0290027D01*
X0222527Y0290781D01*
X0222119Y0292766D02*
X0146600Y0292766D01*
X0146600Y0294365D02*
X0223073Y0294365D01*
X0226527Y0294365D02*
X0367476Y0294365D01*
X0367476Y0295963D02*
X0235648Y0295963D01*
X0235573Y0295781D02*
X0235981Y0296767D01*
X0235981Y0297833D01*
X0235573Y0298819D01*
X0234819Y0299573D01*
X0233833Y0299981D01*
X0232767Y0299981D01*
X0231781Y0299573D01*
X0231027Y0298819D01*
X0230619Y0297833D01*
X0230619Y0296767D01*
X0231027Y0295781D01*
X0231781Y0295027D01*
X0232767Y0294619D01*
X0233833Y0294619D01*
X0234819Y0295027D01*
X0235573Y0295781D01*
X0235981Y0297562D02*
X0367476Y0297562D01*
X0367476Y0299160D02*
X0235231Y0299160D01*
X0231369Y0299160D02*
X0153731Y0299160D01*
X0154073Y0298819D02*
X0153319Y0299573D01*
X0152333Y0299981D01*
X0151267Y0299981D01*
X0150281Y0299573D01*
X0149527Y0298819D01*
X0149119Y0297833D01*
X0149119Y0296767D01*
X0149527Y0295781D01*
X0150281Y0295027D01*
X0151267Y0294619D01*
X0152333Y0294619D01*
X0153319Y0295027D01*
X0154073Y0295781D01*
X0154481Y0296767D01*
X0154481Y0297833D01*
X0154073Y0298819D01*
X0154481Y0297562D02*
X0230619Y0297562D01*
X0230952Y0295963D02*
X0154148Y0295963D01*
X0149452Y0295963D02*
X0146600Y0295963D01*
X0146600Y0297562D02*
X0149119Y0297562D01*
X0149869Y0299160D02*
X0146600Y0299160D01*
X0146600Y0300759D02*
X0170050Y0300759D01*
X0170281Y0300527D02*
X0171267Y0300119D01*
X0172333Y0300119D01*
X0173319Y0300527D01*
X0174073Y0301281D01*
X0174481Y0302267D01*
X0174481Y0303333D01*
X0174073Y0304319D01*
X0173319Y0305073D01*
X0172333Y0305481D01*
X0171267Y0305481D01*
X0170281Y0305073D01*
X0169527Y0304319D01*
X0169481Y0304208D01*
X0169481Y0304833D01*
X0169073Y0305819D01*
X0168319Y0306573D01*
X0167333Y0306981D01*
X0166267Y0306981D01*
X0165281Y0306573D01*
X0164527Y0305819D01*
X0164119Y0304833D01*
X0164119Y0303767D01*
X0164527Y0302781D01*
X0165281Y0302027D01*
X0166267Y0301619D01*
X0167333Y0301619D01*
X0168319Y0302027D01*
X0169073Y0302781D01*
X0169119Y0302892D01*
X0169119Y0302267D01*
X0169527Y0301281D01*
X0170281Y0300527D01*
X0169119Y0302357D02*
X0168649Y0302357D01*
X0169182Y0305554D02*
X0179263Y0305554D01*
X0179027Y0305319D02*
X0178619Y0304333D01*
X0178619Y0303267D01*
X0179027Y0302281D01*
X0179781Y0301527D01*
X0180767Y0301119D01*
X0181833Y0301119D01*
X0182819Y0301527D01*
X0183573Y0302281D01*
X0183981Y0303267D01*
X0183981Y0304333D01*
X0183573Y0305319D01*
X0182819Y0306073D01*
X0181833Y0306481D01*
X0180767Y0306481D01*
X0179781Y0306073D01*
X0179027Y0305319D01*
X0178619Y0303956D02*
X0174223Y0303956D01*
X0174481Y0302357D02*
X0178996Y0302357D01*
X0183604Y0302357D02*
X0367476Y0302357D01*
X0367476Y0300759D02*
X0173550Y0300759D01*
X0164951Y0302357D02*
X0146600Y0302357D01*
X0146600Y0303956D02*
X0164119Y0303956D01*
X0164418Y0305554D02*
X0146600Y0305554D01*
X0146600Y0307153D02*
X0195751Y0307153D01*
X0195619Y0306833D02*
X0196027Y0307819D01*
X0196781Y0308573D01*
X0197767Y0308981D01*
X0198833Y0308981D01*
X0199819Y0308573D01*
X0200573Y0307819D01*
X0200981Y0306833D01*
X0200981Y0305767D01*
X0200573Y0304781D01*
X0199819Y0304027D01*
X0198833Y0303619D01*
X0197767Y0303619D01*
X0196781Y0304027D01*
X0196027Y0304781D01*
X0195619Y0305767D01*
X0195619Y0306833D01*
X0195707Y0305554D02*
X0183337Y0305554D01*
X0183981Y0303956D02*
X0196953Y0303956D01*
X0199647Y0303956D02*
X0367476Y0303956D01*
X0367476Y0305554D02*
X0200893Y0305554D01*
X0200849Y0307153D02*
X0367476Y0307153D01*
X0367476Y0308751D02*
X0199388Y0308751D01*
X0197212Y0308751D02*
X0146600Y0308751D01*
X0109359Y0329532D02*
X0056084Y0329532D01*
X0056084Y0331131D02*
X0066907Y0331131D01*
X0063683Y0332729D02*
X0056084Y0332729D01*
X0056084Y0334328D02*
X0062084Y0334328D01*
X0061024Y0335926D02*
X0056084Y0335926D01*
X0056084Y0337525D02*
X0060259Y0337525D01*
X0059831Y0339123D02*
X0056084Y0339123D01*
X0056084Y0340722D02*
X0059690Y0340722D01*
X0059690Y0342320D02*
X0056170Y0342320D01*
X0056494Y0343919D02*
X0060103Y0343919D01*
X0060688Y0345517D02*
X0056922Y0345517D01*
X0057147Y0346356D02*
X0057147Y0346356D01*
X0057586Y0347116D02*
X0061611Y0347116D01*
X0063101Y0348714D02*
X0058508Y0348714D01*
X0059769Y0350313D02*
X0065440Y0350313D01*
X0064005Y0353510D02*
X0359556Y0353510D01*
X0362193Y0351911D02*
X0315390Y0351911D01*
X0314793Y0352158D02*
X0313492Y0352158D01*
X0312289Y0351660D01*
X0311369Y0350740D01*
X0310871Y0349537D01*
X0310871Y0348236D01*
X0311369Y0347033D01*
X0312289Y0346113D01*
X0313492Y0345615D01*
X0314793Y0345615D01*
X0315996Y0346113D01*
X0316916Y0347033D01*
X0317414Y0348236D01*
X0317414Y0349537D01*
X0316916Y0350740D01*
X0315996Y0351660D01*
X0314793Y0352158D01*
X0312895Y0351911D02*
X0291768Y0351911D01*
X0291171Y0352158D02*
X0289870Y0352158D01*
X0288667Y0351660D01*
X0287747Y0350740D01*
X0287249Y0349537D01*
X0287249Y0348236D01*
X0287747Y0347033D01*
X0288667Y0346113D01*
X0289870Y0345615D01*
X0291171Y0345615D01*
X0292374Y0346113D01*
X0293294Y0347033D01*
X0293792Y0348236D01*
X0293792Y0349537D01*
X0293294Y0350740D01*
X0292374Y0351660D01*
X0291171Y0352158D01*
X0289273Y0351911D02*
X0252398Y0351911D01*
X0251801Y0352158D02*
X0250500Y0352158D01*
X0249297Y0351660D01*
X0248377Y0350740D01*
X0247879Y0349537D01*
X0247879Y0348236D01*
X0248377Y0347033D01*
X0249297Y0346113D01*
X0250500Y0345615D01*
X0251801Y0345615D01*
X0253004Y0346113D01*
X0253924Y0347033D01*
X0254422Y0348236D01*
X0254422Y0349537D01*
X0253924Y0350740D01*
X0253004Y0351660D01*
X0251801Y0352158D01*
X0249903Y0351911D02*
X0213028Y0351911D01*
X0212431Y0352158D02*
X0213634Y0351660D01*
X0214554Y0350740D01*
X0215052Y0349537D01*
X0215052Y0348236D01*
X0214554Y0347033D01*
X0213634Y0346113D01*
X0212431Y0345615D01*
X0211130Y0345615D01*
X0209927Y0346113D01*
X0209007Y0347033D01*
X0208509Y0348236D01*
X0208509Y0349537D01*
X0209007Y0350740D01*
X0209927Y0351660D01*
X0211130Y0352158D01*
X0212431Y0352158D01*
X0210533Y0351911D02*
X0173657Y0351911D01*
X0173061Y0352158D02*
X0174263Y0351660D01*
X0175184Y0350740D01*
X0175682Y0349537D01*
X0175682Y0348236D01*
X0175184Y0347033D01*
X0174263Y0346113D01*
X0173061Y0345615D01*
X0171759Y0345615D01*
X0170557Y0346113D01*
X0169637Y0347033D01*
X0169139Y0348236D01*
X0169139Y0349537D01*
X0169637Y0350740D01*
X0170557Y0351660D01*
X0171759Y0352158D01*
X0173061Y0352158D01*
X0171163Y0351911D02*
X0134287Y0351911D01*
X0133691Y0352158D02*
X0132389Y0352158D01*
X0131187Y0351660D01*
X0130267Y0350740D01*
X0129769Y0349537D01*
X0129769Y0348236D01*
X0130267Y0347033D01*
X0131187Y0346113D01*
X0132389Y0345615D01*
X0133691Y0345615D01*
X0134893Y0346113D01*
X0135814Y0347033D01*
X0136312Y0348236D01*
X0136312Y0349537D01*
X0135814Y0350740D01*
X0134893Y0351660D01*
X0133691Y0352158D01*
X0131793Y0351911D02*
X0106728Y0351911D01*
X0106132Y0352158D02*
X0104830Y0352158D01*
X0103628Y0351660D01*
X0102708Y0350740D01*
X0102209Y0349537D01*
X0102209Y0348236D01*
X0102708Y0347033D01*
X0103628Y0346113D01*
X0104830Y0345615D01*
X0106132Y0345615D01*
X0107334Y0346113D01*
X0108255Y0347033D01*
X0108753Y0348236D01*
X0108753Y0349537D01*
X0108255Y0350740D01*
X0107334Y0351660D01*
X0106132Y0352158D01*
X0104234Y0351911D02*
X0061368Y0351911D01*
X0074656Y0350313D02*
X0102531Y0350313D01*
X0102209Y0348714D02*
X0076995Y0348714D01*
X0078485Y0347116D02*
X0102673Y0347116D01*
X0108289Y0347116D02*
X0130232Y0347116D01*
X0129769Y0348714D02*
X0108753Y0348714D01*
X0108432Y0350313D02*
X0130090Y0350313D01*
X0135991Y0350313D02*
X0169460Y0350313D01*
X0169139Y0348714D02*
X0136312Y0348714D01*
X0135848Y0347116D02*
X0169603Y0347116D01*
X0175218Y0347116D02*
X0208973Y0347116D01*
X0208509Y0348714D02*
X0175682Y0348714D01*
X0175361Y0350313D02*
X0208830Y0350313D01*
X0214731Y0350313D02*
X0248200Y0350313D01*
X0247879Y0348714D02*
X0215052Y0348714D01*
X0214588Y0347116D02*
X0248343Y0347116D01*
X0253958Y0347116D02*
X0287713Y0347116D01*
X0287249Y0348714D02*
X0254422Y0348714D01*
X0254101Y0350313D02*
X0287570Y0350313D01*
X0293471Y0350313D02*
X0311192Y0350313D01*
X0310871Y0348714D02*
X0293792Y0348714D01*
X0293328Y0347116D02*
X0311335Y0347116D01*
X0316950Y0347116D02*
X0345076Y0347116D01*
X0345224Y0347373D02*
X0343860Y0345011D01*
X0343154Y0342376D01*
X0343154Y0339649D01*
X0343860Y0337014D01*
X0345224Y0334652D01*
X0347152Y0332724D01*
X0349514Y0331360D01*
X0352149Y0330654D01*
X0354876Y0330654D01*
X0357511Y0331360D01*
X0359873Y0332724D01*
X0361801Y0334652D01*
X0363165Y0337014D01*
X0363871Y0339649D01*
X0363871Y0342376D01*
X0363165Y0345011D01*
X0361801Y0347373D01*
X0359873Y0349301D01*
X0357511Y0350665D01*
X0354876Y0351371D01*
X0352149Y0351371D01*
X0349514Y0350665D01*
X0347152Y0349301D01*
X0345224Y0347373D01*
X0346565Y0348714D02*
X0317414Y0348714D01*
X0317093Y0350313D02*
X0348904Y0350313D01*
X0344153Y0345517D02*
X0079408Y0345517D01*
X0079993Y0343919D02*
X0343568Y0343919D01*
X0343154Y0342320D02*
X0080406Y0342320D01*
X0080406Y0340722D02*
X0343154Y0340722D01*
X0343295Y0339123D02*
X0080265Y0339123D01*
X0079837Y0337525D02*
X0343724Y0337525D01*
X0344489Y0335926D02*
X0079072Y0335926D01*
X0073189Y0331131D02*
X0108356Y0331131D01*
X0091594Y0319941D02*
X0064250Y0319941D01*
X0065321Y0318342D02*
X0090523Y0318342D01*
X0090398Y0316744D02*
X0065446Y0316744D01*
X0064556Y0315145D02*
X0091288Y0315145D01*
X0081968Y0283175D02*
X0056084Y0283175D01*
X0056084Y0281577D02*
X0081619Y0281577D01*
X0091852Y0275183D02*
X0063872Y0275183D01*
X0065202Y0276781D02*
X0092999Y0276781D01*
X0094800Y0276781D02*
X0094800Y0276781D01*
X0094800Y0277364D02*
X0094800Y0274300D01*
X0094800Y0274300D01*
X0094800Y0274300D01*
X0094800Y0277364D01*
X0094800Y0275183D02*
X0094800Y0275183D01*
X0094800Y0274300D02*
X0094800Y0274300D01*
X0094800Y0271236D01*
X0094800Y0274300D01*
X0094800Y0274300D01*
X0091736Y0274300D01*
X0094800Y0274300D01*
X0094800Y0273584D02*
X0094800Y0273584D01*
X0094800Y0271986D02*
X0094800Y0271986D01*
X0092782Y0271986D02*
X0056084Y0271986D01*
X0056084Y0273584D02*
X0091819Y0273584D01*
X0100906Y0248246D02*
X0100349Y0248015D01*
X0099847Y0247680D01*
X0099420Y0247253D01*
X0099085Y0246751D01*
X0098854Y0246194D01*
X0098736Y0245602D01*
X0098736Y0245300D01*
X0098736Y0244998D01*
X0098854Y0244406D01*
X0099085Y0243849D01*
X0099420Y0243347D01*
X0099847Y0242920D01*
X0100349Y0242585D01*
X0100906Y0242354D01*
X0101498Y0242236D01*
X0101800Y0242236D01*
X0102102Y0242236D01*
X0102694Y0242354D01*
X0103251Y0242585D01*
X0103753Y0242920D01*
X0104180Y0243347D01*
X0104515Y0243849D01*
X0104746Y0244406D01*
X0104864Y0244998D01*
X0104864Y0245300D01*
X0104864Y0245602D01*
X0104746Y0246194D01*
X0104515Y0246751D01*
X0104180Y0247253D01*
X0103753Y0247680D01*
X0103251Y0248015D01*
X0102694Y0248246D01*
X0102102Y0248364D01*
X0101800Y0248364D01*
X0101498Y0248364D01*
X0100906Y0248246D01*
X0100338Y0248008D02*
X0056084Y0248008D01*
X0056084Y0249606D02*
X0142741Y0249606D01*
X0142000Y0251205D02*
X0056084Y0251205D01*
X0056084Y0252803D02*
X0142000Y0252803D01*
X0142000Y0254402D02*
X0125517Y0254402D01*
X0125819Y0254527D02*
X0124833Y0254119D01*
X0123767Y0254119D01*
X0122781Y0254527D01*
X0122027Y0255281D01*
X0121619Y0256267D01*
X0121619Y0257333D01*
X0122027Y0258319D01*
X0122781Y0259073D01*
X0123767Y0259481D01*
X0124833Y0259481D01*
X0125819Y0259073D01*
X0126573Y0258319D01*
X0126981Y0257333D01*
X0126981Y0256267D01*
X0126573Y0255281D01*
X0125819Y0254527D01*
X0126871Y0256001D02*
X0142000Y0256001D01*
X0142000Y0257599D02*
X0126871Y0257599D01*
X0125518Y0259198D02*
X0128577Y0259198D01*
X0128767Y0259119D02*
X0129833Y0259119D01*
X0130819Y0259527D01*
X0131573Y0260281D01*
X0131981Y0261267D01*
X0131981Y0262333D01*
X0131573Y0263319D01*
X0130819Y0264073D01*
X0129833Y0264481D01*
X0128767Y0264481D01*
X0127781Y0264073D01*
X0127027Y0263319D01*
X0126619Y0262333D01*
X0126619Y0261267D01*
X0127027Y0260281D01*
X0127781Y0259527D01*
X0128767Y0259119D01*
X0130023Y0259198D02*
X0142000Y0259198D01*
X0142000Y0260796D02*
X0131786Y0260796D01*
X0131956Y0262395D02*
X0142000Y0262395D01*
X0142000Y0263993D02*
X0130899Y0263993D01*
X0127701Y0263993D02*
X0056084Y0263993D01*
X0056084Y0262395D02*
X0126644Y0262395D01*
X0126814Y0260796D02*
X0056084Y0260796D01*
X0056084Y0259198D02*
X0123082Y0259198D01*
X0121729Y0257599D02*
X0056084Y0257599D01*
X0056084Y0256001D02*
X0121729Y0256001D01*
X0123083Y0254402D02*
X0056084Y0254402D01*
X0056084Y0246409D02*
X0098943Y0246409D01*
X0098736Y0245300D02*
X0101800Y0245300D01*
X0104864Y0245300D01*
X0101800Y0245300D01*
X0101800Y0245300D01*
X0101800Y0245300D01*
X0101800Y0248364D01*
X0101800Y0245300D01*
X0101800Y0242236D01*
X0101800Y0245300D01*
X0101800Y0245300D01*
X0101800Y0245300D01*
X0098736Y0245300D01*
X0098773Y0244811D02*
X0056084Y0244811D01*
X0056084Y0243212D02*
X0099555Y0243212D01*
X0101800Y0243212D02*
X0101800Y0243212D01*
X0101800Y0244811D02*
X0101800Y0244811D01*
X0101800Y0246409D02*
X0101800Y0246409D01*
X0101800Y0248008D02*
X0101800Y0248008D01*
X0103262Y0248008D02*
X0144339Y0248008D01*
X0145938Y0246409D02*
X0104657Y0246409D01*
X0104827Y0244811D02*
X0147536Y0244811D01*
X0149135Y0243212D02*
X0104045Y0243212D01*
X0107781Y0236573D02*
X0107027Y0235819D01*
X0106619Y0234833D01*
X0106619Y0233767D01*
X0107027Y0232781D01*
X0107781Y0232027D01*
X0108767Y0231619D01*
X0109833Y0231619D01*
X0110819Y0232027D01*
X0111573Y0232781D01*
X0111981Y0233767D01*
X0111981Y0234833D01*
X0111573Y0235819D01*
X0110819Y0236573D01*
X0109833Y0236981D01*
X0108767Y0236981D01*
X0107781Y0236573D01*
X0108374Y0236818D02*
X0064956Y0236818D01*
X0064948Y0236797D02*
X0065446Y0238000D01*
X0065446Y0239301D01*
X0064948Y0240504D01*
X0064027Y0241424D01*
X0062825Y0241922D01*
X0061523Y0241922D01*
X0060321Y0241424D01*
X0059400Y0240504D01*
X0058902Y0239301D01*
X0058902Y0238000D01*
X0059400Y0236797D01*
X0060321Y0235877D01*
X0061523Y0235379D01*
X0062825Y0235379D01*
X0064027Y0235877D01*
X0064948Y0236797D01*
X0065446Y0238417D02*
X0111764Y0238417D01*
X0111619Y0238767D02*
X0112027Y0237781D01*
X0112781Y0237027D01*
X0113767Y0236619D01*
X0114833Y0236619D01*
X0115819Y0237027D01*
X0116573Y0237781D01*
X0116981Y0238767D01*
X0116981Y0239833D01*
X0116573Y0240819D01*
X0115819Y0241573D01*
X0114833Y0241981D01*
X0113767Y0241981D01*
X0112781Y0241573D01*
X0112027Y0240819D01*
X0111619Y0239833D01*
X0111619Y0238767D01*
X0111694Y0240015D02*
X0065150Y0240015D01*
X0063569Y0241614D02*
X0112880Y0241614D01*
X0115720Y0241614D02*
X0150733Y0241614D01*
X0152332Y0240015D02*
X0116906Y0240015D01*
X0116836Y0238417D02*
X0153930Y0238417D01*
X0155529Y0236818D02*
X0115315Y0236818D01*
X0113285Y0236818D02*
X0110226Y0236818D01*
X0111821Y0235220D02*
X0144636Y0235220D01*
X0144281Y0235073D02*
X0145267Y0235481D01*
X0146333Y0235481D01*
X0147319Y0235073D01*
X0148073Y0234319D01*
X0148481Y0233333D01*
X0148481Y0232267D01*
X0148073Y0231281D01*
X0147319Y0230527D01*
X0146333Y0230119D01*
X0145267Y0230119D01*
X0144281Y0230527D01*
X0143527Y0231281D01*
X0143119Y0232267D01*
X0143119Y0233333D01*
X0143527Y0234319D01*
X0144281Y0235073D01*
X0143238Y0233621D02*
X0111921Y0233621D01*
X0110809Y0232023D02*
X0133266Y0232023D01*
X0133420Y0232253D02*
X0133085Y0231751D01*
X0132854Y0231194D01*
X0132736Y0230602D01*
X0132736Y0230300D01*
X0132736Y0229998D01*
X0132854Y0229406D01*
X0133085Y0228849D01*
X0133420Y0228347D01*
X0133847Y0227920D01*
X0134349Y0227585D01*
X0134906Y0227354D01*
X0135498Y0227236D01*
X0135800Y0227236D01*
X0136102Y0227236D01*
X0136694Y0227354D01*
X0137251Y0227585D01*
X0137753Y0227920D01*
X0138180Y0228347D01*
X0138515Y0228849D01*
X0138746Y0229406D01*
X0138864Y0229998D01*
X0138864Y0230300D01*
X0138864Y0230602D01*
X0138746Y0231194D01*
X0138515Y0231751D01*
X0138180Y0232253D01*
X0137753Y0232680D01*
X0137251Y0233015D01*
X0136694Y0233246D01*
X0136102Y0233364D01*
X0135800Y0233364D01*
X0135498Y0233364D01*
X0134906Y0233246D01*
X0134349Y0233015D01*
X0133847Y0232680D01*
X0133420Y0232253D01*
X0132736Y0230424D02*
X0056084Y0230424D01*
X0056084Y0228826D02*
X0120307Y0228826D01*
X0120498Y0228864D02*
X0119906Y0228746D01*
X0119349Y0228515D01*
X0118847Y0228180D01*
X0118420Y0227753D01*
X0118085Y0227251D01*
X0117854Y0226694D01*
X0117736Y0226102D01*
X0117736Y0225800D01*
X0117736Y0225498D01*
X0117854Y0224906D01*
X0118085Y0224349D01*
X0118420Y0223847D01*
X0118847Y0223420D01*
X0119349Y0223085D01*
X0119906Y0222854D01*
X0120498Y0222736D01*
X0120800Y0222736D01*
X0121102Y0222736D01*
X0121694Y0222854D01*
X0122251Y0223085D01*
X0122753Y0223420D01*
X0123180Y0223847D01*
X0123515Y0224349D01*
X0123746Y0224906D01*
X0123864Y0225498D01*
X0123864Y0225800D01*
X0123864Y0226102D01*
X0123746Y0226694D01*
X0123515Y0227251D01*
X0123180Y0227753D01*
X0122753Y0228180D01*
X0122251Y0228515D01*
X0121694Y0228746D01*
X0121102Y0228864D01*
X0120800Y0228864D01*
X0120498Y0228864D01*
X0120800Y0228864D02*
X0120800Y0225800D01*
X0123864Y0225800D01*
X0120800Y0225800D01*
X0120800Y0225800D01*
X0120800Y0225800D01*
X0120800Y0228864D01*
X0120800Y0228826D02*
X0120800Y0228826D01*
X0121293Y0228826D02*
X0133100Y0228826D01*
X0132736Y0230300D02*
X0135800Y0230300D01*
X0138864Y0230300D01*
X0135800Y0230300D01*
X0135800Y0230300D01*
X0135800Y0230300D01*
X0135800Y0233364D01*
X0135800Y0230300D01*
X0135800Y0227236D01*
X0135800Y0230300D01*
X0135800Y0230300D01*
X0135800Y0230300D01*
X0132736Y0230300D01*
X0135800Y0230424D02*
X0135800Y0230424D01*
X0135800Y0228826D02*
X0135800Y0228826D01*
X0138500Y0228826D02*
X0146307Y0228826D01*
X0146800Y0228826D02*
X0146800Y0228826D01*
X0147293Y0228826D02*
X0162689Y0228826D01*
X0161923Y0230424D02*
X0147071Y0230424D01*
X0148380Y0232023D02*
X0160324Y0232023D01*
X0158726Y0233621D02*
X0148362Y0233621D01*
X0146964Y0235220D02*
X0157127Y0235220D01*
X0157239Y0241614D02*
X0268272Y0241614D01*
X0268637Y0243212D02*
X0202942Y0243212D01*
X0202751Y0243085D02*
X0203253Y0243420D01*
X0203680Y0243847D01*
X0204015Y0244349D01*
X0204246Y0244906D01*
X0204364Y0245498D01*
X0204364Y0245800D01*
X0204364Y0246102D01*
X0204246Y0246694D01*
X0204015Y0247251D01*
X0203680Y0247753D01*
X0203253Y0248180D01*
X0202751Y0248515D01*
X0202194Y0248746D01*
X0201602Y0248864D01*
X0201300Y0248864D01*
X0200998Y0248864D01*
X0200406Y0248746D01*
X0199849Y0248515D01*
X0199347Y0248180D01*
X0198920Y0247753D01*
X0198585Y0247251D01*
X0198354Y0246694D01*
X0198236Y0246102D01*
X0198236Y0245800D01*
X0198236Y0245498D01*
X0198354Y0244906D01*
X0198585Y0244349D01*
X0198920Y0243847D01*
X0199347Y0243420D01*
X0199849Y0243085D01*
X0200406Y0242854D01*
X0200998Y0242736D01*
X0201300Y0242736D01*
X0201602Y0242736D01*
X0202194Y0242854D01*
X0202751Y0243085D01*
X0201300Y0243212D02*
X0201300Y0243212D01*
X0201300Y0242736D02*
X0201300Y0245800D01*
X0204364Y0245800D01*
X0201300Y0245800D01*
X0201300Y0245800D01*
X0201300Y0245800D01*
X0201300Y0248864D01*
X0201300Y0245800D01*
X0201300Y0245800D01*
X0201300Y0245800D01*
X0198236Y0245800D01*
X0201300Y0245800D01*
X0201300Y0242736D01*
X0199658Y0243212D02*
X0155640Y0243212D01*
X0154042Y0244811D02*
X0198393Y0244811D01*
X0198297Y0246409D02*
X0195828Y0246409D01*
X0195694Y0246354D02*
X0196251Y0246585D01*
X0196753Y0246920D01*
X0197180Y0247347D01*
X0197515Y0247849D01*
X0197746Y0248406D01*
X0197864Y0248998D01*
X0197864Y0249300D01*
X0197864Y0249602D01*
X0197746Y0250194D01*
X0197515Y0250751D01*
X0197180Y0251253D01*
X0196753Y0251680D01*
X0196251Y0252015D01*
X0195694Y0252246D01*
X0195102Y0252364D01*
X0194800Y0252364D01*
X0194498Y0252364D01*
X0193906Y0252246D01*
X0193349Y0252015D01*
X0192847Y0251680D01*
X0192420Y0251253D01*
X0192085Y0250751D01*
X0191854Y0250194D01*
X0191736Y0249602D01*
X0191736Y0249300D01*
X0191736Y0248998D01*
X0191854Y0248406D01*
X0192085Y0247849D01*
X0192420Y0247347D01*
X0192847Y0246920D01*
X0193349Y0246585D01*
X0193906Y0246354D01*
X0194498Y0246236D01*
X0194800Y0246236D01*
X0195102Y0246236D01*
X0195694Y0246354D01*
X0194800Y0246409D02*
X0194800Y0246409D01*
X0194800Y0246236D02*
X0194800Y0249300D01*
X0197864Y0249300D01*
X0194800Y0249300D01*
X0194800Y0249300D01*
X0194800Y0249300D01*
X0194800Y0252364D01*
X0194800Y0249300D01*
X0194800Y0249300D01*
X0194800Y0249300D01*
X0191736Y0249300D01*
X0194800Y0249300D01*
X0194800Y0246236D01*
X0193772Y0246409D02*
X0152443Y0246409D01*
X0150845Y0248008D02*
X0192019Y0248008D01*
X0191737Y0249606D02*
X0149246Y0249606D01*
X0147648Y0251205D02*
X0192388Y0251205D01*
X0194800Y0251205D02*
X0194800Y0251205D01*
X0194800Y0249606D02*
X0194800Y0249606D01*
X0194800Y0248008D02*
X0194800Y0248008D01*
X0197581Y0248008D02*
X0199175Y0248008D01*
X0197863Y0249606D02*
X0230619Y0249606D01*
X0230619Y0249833D02*
X0230619Y0248767D01*
X0231027Y0247781D01*
X0231781Y0247027D01*
X0232767Y0246619D01*
X0233833Y0246619D01*
X0234819Y0247027D01*
X0235573Y0247781D01*
X0235981Y0248767D01*
X0235981Y0249833D01*
X0235573Y0250819D01*
X0234819Y0251573D01*
X0233833Y0251981D01*
X0232767Y0251981D01*
X0231781Y0251573D01*
X0231027Y0250819D01*
X0230619Y0249833D01*
X0231413Y0251205D02*
X0208931Y0251205D01*
X0208751Y0251085D02*
X0209253Y0251420D01*
X0209680Y0251847D01*
X0210015Y0252349D01*
X0210246Y0252906D01*
X0210364Y0253498D01*
X0210364Y0253800D01*
X0210364Y0254102D01*
X0210246Y0254694D01*
X0210015Y0255251D01*
X0209680Y0255753D01*
X0209253Y0256180D01*
X0208751Y0256515D01*
X0208194Y0256746D01*
X0207602Y0256864D01*
X0207300Y0256864D01*
X0206998Y0256864D01*
X0206406Y0256746D01*
X0205849Y0256515D01*
X0205347Y0256180D01*
X0204920Y0255753D01*
X0204585Y0255251D01*
X0204354Y0254694D01*
X0204236Y0254102D01*
X0204236Y0253800D01*
X0204236Y0253498D01*
X0204354Y0252906D01*
X0204585Y0252349D01*
X0204920Y0251847D01*
X0205347Y0251420D01*
X0205849Y0251085D01*
X0206406Y0250854D01*
X0206998Y0250736D01*
X0207300Y0250736D01*
X0207602Y0250736D01*
X0208194Y0250854D01*
X0208751Y0251085D01*
X0207300Y0251205D02*
X0207300Y0251205D01*
X0207300Y0250736D02*
X0207300Y0253800D01*
X0210364Y0253800D01*
X0207300Y0253800D01*
X0207300Y0253800D01*
X0207300Y0253800D01*
X0207300Y0256864D01*
X0207300Y0253800D01*
X0207300Y0253800D01*
X0207300Y0253800D01*
X0204236Y0253800D01*
X0207300Y0253800D01*
X0207300Y0250736D01*
X0205669Y0251205D02*
X0197212Y0251205D01*
X0201300Y0248008D02*
X0201300Y0248008D01*
X0201300Y0246409D02*
X0201300Y0246409D01*
X0201300Y0244811D02*
X0201300Y0244811D01*
X0204207Y0244811D02*
X0252497Y0244811D01*
X0252781Y0244527D02*
X0253767Y0244119D01*
X0254833Y0244119D01*
X0255819Y0244527D01*
X0256573Y0245281D01*
X0256981Y0246267D01*
X0256981Y0247333D01*
X0256573Y0248319D01*
X0255819Y0249073D01*
X0254833Y0249481D01*
X0253767Y0249481D01*
X0252781Y0249073D01*
X0252027Y0248319D01*
X0251619Y0247333D01*
X0251619Y0246267D01*
X0252027Y0245281D01*
X0252781Y0244527D01*
X0251619Y0246409D02*
X0204303Y0246409D01*
X0203425Y0248008D02*
X0230933Y0248008D01*
X0235667Y0248008D02*
X0251898Y0248008D01*
X0256702Y0248008D02*
X0287000Y0248008D01*
X0287000Y0249606D02*
X0272552Y0249606D01*
X0272472Y0249527D02*
X0273226Y0250281D01*
X0273635Y0251267D01*
X0273635Y0252333D01*
X0273226Y0253319D01*
X0272472Y0254073D01*
X0271487Y0254481D01*
X0270420Y0254481D01*
X0269435Y0254073D01*
X0268681Y0253319D01*
X0268272Y0252333D01*
X0268272Y0251267D01*
X0268681Y0250281D01*
X0269435Y0249527D01*
X0270420Y0249119D01*
X0271487Y0249119D01*
X0272472Y0249527D01*
X0273609Y0251205D02*
X0287000Y0251205D01*
X0287000Y0252803D02*
X0273440Y0252803D01*
X0271678Y0254402D02*
X0287000Y0254402D01*
X0287000Y0256001D02*
X0256871Y0256001D01*
X0256981Y0256267D02*
X0256573Y0255281D01*
X0255819Y0254527D01*
X0254833Y0254119D01*
X0253767Y0254119D01*
X0252781Y0254527D01*
X0252027Y0255281D01*
X0251619Y0256267D01*
X0251619Y0257333D01*
X0252027Y0258319D01*
X0252781Y0259073D01*
X0253767Y0259481D01*
X0254833Y0259481D01*
X0255819Y0259073D01*
X0256573Y0258319D01*
X0256981Y0257333D01*
X0256981Y0256267D01*
X0256871Y0257599D02*
X0287000Y0257599D01*
X0287000Y0259198D02*
X0271677Y0259198D01*
X0271487Y0259119D02*
X0272472Y0259527D01*
X0273226Y0260281D01*
X0273635Y0261267D01*
X0273635Y0262333D01*
X0273226Y0263319D01*
X0272472Y0264073D01*
X0271487Y0264481D01*
X0270420Y0264481D01*
X0269435Y0264073D01*
X0268681Y0263319D01*
X0268272Y0262333D01*
X0268272Y0261267D01*
X0268681Y0260281D01*
X0269435Y0259527D01*
X0270420Y0259119D01*
X0271487Y0259119D01*
X0270230Y0259198D02*
X0255518Y0259198D01*
X0253082Y0259198D02*
X0197414Y0259198D01*
X0197515Y0259349D02*
X0197746Y0259906D01*
X0197864Y0260498D01*
X0197864Y0260800D01*
X0197864Y0261102D01*
X0197746Y0261694D01*
X0197515Y0262251D01*
X0197180Y0262753D01*
X0196753Y0263180D01*
X0196251Y0263515D01*
X0195694Y0263746D01*
X0195102Y0263864D01*
X0194800Y0263864D01*
X0194498Y0263864D01*
X0193906Y0263746D01*
X0193349Y0263515D01*
X0192847Y0263180D01*
X0192420Y0262753D01*
X0192085Y0262251D01*
X0191854Y0261694D01*
X0191736Y0261102D01*
X0191736Y0260800D01*
X0191736Y0260498D01*
X0191854Y0259906D01*
X0192085Y0259349D01*
X0192420Y0258847D01*
X0192847Y0258420D01*
X0193349Y0258085D01*
X0193906Y0257854D01*
X0194498Y0257736D01*
X0194800Y0257736D01*
X0195102Y0257736D01*
X0195694Y0257854D01*
X0196251Y0258085D01*
X0196753Y0258420D01*
X0197180Y0258847D01*
X0197515Y0259349D01*
X0197864Y0260796D02*
X0268467Y0260796D01*
X0268298Y0262395D02*
X0197419Y0262395D01*
X0197864Y0260800D02*
X0194800Y0260800D01*
X0194800Y0260800D01*
X0194800Y0260800D01*
X0194800Y0263864D01*
X0194800Y0260800D01*
X0197864Y0260800D01*
X0194800Y0260800D02*
X0194800Y0257736D01*
X0194800Y0260800D01*
X0194800Y0260800D01*
X0194800Y0260800D01*
X0191736Y0260800D01*
X0194800Y0260800D01*
X0194800Y0260796D02*
X0194800Y0260796D01*
X0194800Y0259198D02*
X0194800Y0259198D01*
X0192186Y0259198D02*
X0173414Y0259198D01*
X0173515Y0259349D02*
X0173180Y0258847D01*
X0172753Y0258420D01*
X0172251Y0258085D01*
X0171694Y0257854D01*
X0171102Y0257736D01*
X0170800Y0257736D01*
X0170800Y0260800D01*
X0173864Y0260800D01*
X0173864Y0261102D01*
X0173746Y0261694D01*
X0173515Y0262251D01*
X0173180Y0262753D01*
X0172753Y0263180D01*
X0172251Y0263515D01*
X0171694Y0263746D01*
X0171102Y0263864D01*
X0170800Y0263864D01*
X0170498Y0263864D01*
X0169906Y0263746D01*
X0169349Y0263515D01*
X0168847Y0263180D01*
X0168420Y0262753D01*
X0168085Y0262251D01*
X0167854Y0261694D01*
X0167736Y0261102D01*
X0167736Y0260800D01*
X0167736Y0260498D01*
X0167854Y0259906D01*
X0168085Y0259349D01*
X0168420Y0258847D01*
X0168847Y0258420D01*
X0169349Y0258085D01*
X0169906Y0257854D01*
X0170498Y0257736D01*
X0170800Y0257736D01*
X0170800Y0260800D01*
X0170800Y0260800D01*
X0170800Y0260800D01*
X0170800Y0263864D01*
X0170800Y0260800D01*
X0173864Y0260800D01*
X0173864Y0260498D01*
X0173746Y0259906D01*
X0173515Y0259349D01*
X0173864Y0260796D02*
X0191736Y0260796D01*
X0192181Y0262395D02*
X0173419Y0262395D01*
X0170800Y0262395D02*
X0170800Y0262395D01*
X0170800Y0260800D02*
X0170800Y0260800D01*
X0170800Y0260800D01*
X0167736Y0260800D01*
X0170800Y0260800D01*
X0170800Y0260796D02*
X0170800Y0260796D01*
X0170800Y0259198D02*
X0170800Y0259198D01*
X0168186Y0259198D02*
X0146600Y0259198D01*
X0146600Y0260796D02*
X0167736Y0260796D01*
X0168181Y0262395D02*
X0146600Y0262395D01*
X0146600Y0263993D02*
X0269355Y0263993D01*
X0272552Y0263993D02*
X0287000Y0263993D01*
X0287000Y0262395D02*
X0273609Y0262395D01*
X0273440Y0260796D02*
X0287000Y0260796D01*
X0289300Y0260796D02*
X0298900Y0260796D01*
X0298854Y0260906D02*
X0299085Y0260349D01*
X0299420Y0259847D01*
X0299847Y0259420D01*
X0300349Y0259085D01*
X0300906Y0258854D01*
X0301498Y0258736D01*
X0301800Y0258736D01*
X0302102Y0258736D01*
X0302694Y0258854D01*
X0303251Y0259085D01*
X0303753Y0259420D01*
X0304180Y0259847D01*
X0304515Y0260349D01*
X0304746Y0260906D01*
X0304864Y0261498D01*
X0304864Y0261800D01*
X0304864Y0262102D01*
X0304746Y0262694D01*
X0304515Y0263251D01*
X0304180Y0263753D01*
X0303753Y0264180D01*
X0303251Y0264515D01*
X0302694Y0264746D01*
X0302102Y0264864D01*
X0301800Y0264864D01*
X0301498Y0264864D01*
X0300906Y0264746D01*
X0300349Y0264515D01*
X0299847Y0264180D01*
X0299420Y0263753D01*
X0299085Y0263251D01*
X0298854Y0262694D01*
X0298736Y0262102D01*
X0298736Y0261800D01*
X0298736Y0261498D01*
X0298854Y0260906D01*
X0298736Y0261800D02*
X0301800Y0261800D01*
X0304864Y0261800D01*
X0301800Y0261800D01*
X0301800Y0261800D01*
X0301800Y0261800D01*
X0301800Y0264864D01*
X0301800Y0261800D01*
X0301800Y0258736D01*
X0301800Y0261800D01*
X0301800Y0261800D01*
X0301800Y0261800D01*
X0298736Y0261800D01*
X0298794Y0262395D02*
X0289300Y0262395D01*
X0289300Y0263993D02*
X0299660Y0263993D01*
X0301800Y0263993D02*
X0301800Y0263993D01*
X0301800Y0262395D02*
X0301800Y0262395D01*
X0301800Y0260796D02*
X0301800Y0260796D01*
X0301800Y0259198D02*
X0301800Y0259198D01*
X0303420Y0259198D02*
X0306800Y0259198D01*
X0306800Y0260796D02*
X0304700Y0260796D01*
X0304806Y0262395D02*
X0306800Y0262395D01*
X0306800Y0263993D02*
X0303940Y0263993D01*
X0306800Y0265592D02*
X0289300Y0265592D01*
X0289300Y0267190D02*
X0306800Y0267190D01*
X0306800Y0268789D02*
X0289300Y0268789D01*
X0289300Y0270387D02*
X0306800Y0270387D01*
X0306800Y0271986D02*
X0289300Y0271986D01*
X0289300Y0273584D02*
X0306800Y0273584D01*
X0306800Y0275183D02*
X0289300Y0275183D01*
X0289300Y0276781D02*
X0306800Y0276781D01*
X0306800Y0278380D02*
X0289300Y0278380D01*
X0289300Y0279978D02*
X0306800Y0279978D01*
X0306800Y0281577D02*
X0289300Y0281577D01*
X0289300Y0283175D02*
X0306800Y0283175D01*
X0309300Y0283175D02*
X0367476Y0283175D01*
X0367476Y0281577D02*
X0309300Y0281577D01*
X0309300Y0279978D02*
X0358872Y0279978D01*
X0358706Y0279812D02*
X0358224Y0278649D01*
X0358224Y0277391D01*
X0358706Y0276229D01*
X0359595Y0275340D01*
X0360758Y0274858D01*
X0362016Y0274858D01*
X0363178Y0275340D01*
X0364067Y0276229D01*
X0364549Y0277391D01*
X0364549Y0278649D01*
X0364067Y0279812D01*
X0363178Y0280701D01*
X0362016Y0281183D01*
X0360758Y0281183D01*
X0359595Y0280701D01*
X0358706Y0279812D01*
X0358224Y0278380D02*
X0309300Y0278380D01*
X0309300Y0276781D02*
X0358477Y0276781D01*
X0359974Y0275183D02*
X0352405Y0275183D01*
X0352288Y0275299D02*
X0351704Y0275723D01*
X0351061Y0276051D01*
X0350374Y0276274D01*
X0349661Y0276387D01*
X0349500Y0276387D01*
X0349500Y0272000D01*
X0353887Y0272000D01*
X0353887Y0272161D01*
X0353774Y0272874D01*
X0353551Y0273561D01*
X0353223Y0274204D01*
X0352799Y0274788D01*
X0352288Y0275299D01*
X0353539Y0273584D02*
X0367476Y0273584D01*
X0367476Y0271986D02*
X0349500Y0271986D01*
X0349500Y0272000D02*
X0349500Y0271600D01*
X0353887Y0271600D01*
X0353887Y0271439D01*
X0353774Y0270726D01*
X0353551Y0270039D01*
X0353223Y0269396D01*
X0352799Y0268812D01*
X0352288Y0268301D01*
X0351704Y0267877D01*
X0351061Y0267549D01*
X0350374Y0267326D01*
X0349661Y0267213D01*
X0349500Y0267213D01*
X0349500Y0271600D01*
X0349100Y0271600D01*
X0349100Y0267213D01*
X0348939Y0267213D01*
X0348226Y0267326D01*
X0347539Y0267549D01*
X0346896Y0267877D01*
X0346312Y0268301D01*
X0345801Y0268812D01*
X0345377Y0269396D01*
X0345049Y0270039D01*
X0344826Y0270726D01*
X0344713Y0271439D01*
X0344713Y0271600D01*
X0349100Y0271600D01*
X0349100Y0272000D01*
X0349100Y0276387D01*
X0348939Y0276387D01*
X0348226Y0276274D01*
X0347539Y0276051D01*
X0346896Y0275723D01*
X0346312Y0275299D01*
X0345801Y0274788D01*
X0345377Y0274204D01*
X0345049Y0273561D01*
X0344826Y0272874D01*
X0344713Y0272161D01*
X0344713Y0272000D01*
X0349100Y0272000D01*
X0349500Y0272000D01*
X0349100Y0271986D02*
X0309300Y0271986D01*
X0309300Y0273584D02*
X0345061Y0273584D01*
X0346195Y0275183D02*
X0309300Y0275183D01*
X0309300Y0270387D02*
X0344936Y0270387D01*
X0345824Y0268789D02*
X0309300Y0268789D01*
X0309300Y0267190D02*
X0367476Y0267190D01*
X0367476Y0265592D02*
X0351619Y0265592D01*
X0351787Y0265522D02*
X0350173Y0266191D01*
X0348427Y0266191D01*
X0346813Y0265522D01*
X0345578Y0264287D01*
X0344909Y0262673D01*
X0344909Y0260927D01*
X0345578Y0259313D01*
X0346813Y0258078D01*
X0348427Y0257409D01*
X0350173Y0257409D01*
X0351787Y0258078D01*
X0353022Y0259313D01*
X0353691Y0260927D01*
X0353691Y0262673D01*
X0353022Y0264287D01*
X0351787Y0265522D01*
X0353144Y0263993D02*
X0367476Y0263993D01*
X0367476Y0262395D02*
X0353691Y0262395D01*
X0353636Y0260796D02*
X0367476Y0260796D01*
X0367476Y0259198D02*
X0352907Y0259198D01*
X0350631Y0257599D02*
X0367476Y0257599D01*
X0367476Y0256001D02*
X0350632Y0256001D01*
X0350173Y0256191D02*
X0348427Y0256191D01*
X0346813Y0255522D01*
X0345578Y0254287D01*
X0344909Y0252673D01*
X0344909Y0250927D01*
X0345578Y0249313D01*
X0346813Y0248078D01*
X0348427Y0247409D01*
X0350173Y0247409D01*
X0351787Y0248078D01*
X0353022Y0249313D01*
X0353691Y0250927D01*
X0353691Y0252673D01*
X0353022Y0254287D01*
X0351787Y0255522D01*
X0350173Y0256191D01*
X0347968Y0256001D02*
X0309300Y0256001D01*
X0309300Y0257599D02*
X0347969Y0257599D01*
X0345693Y0259198D02*
X0309300Y0259198D01*
X0309300Y0260796D02*
X0344964Y0260796D01*
X0344909Y0262395D02*
X0309300Y0262395D01*
X0309300Y0263993D02*
X0345456Y0263993D01*
X0346981Y0265592D02*
X0309300Y0265592D01*
X0306800Y0257599D02*
X0289300Y0257599D01*
X0289300Y0256001D02*
X0306800Y0256001D01*
X0306800Y0254402D02*
X0303420Y0254402D01*
X0303251Y0254515D02*
X0302694Y0254746D01*
X0302102Y0254864D01*
X0301800Y0254864D01*
X0301498Y0254864D01*
X0300906Y0254746D01*
X0300349Y0254515D01*
X0299847Y0254180D01*
X0299420Y0253753D01*
X0299085Y0253251D01*
X0298854Y0252694D01*
X0298736Y0252102D01*
X0298736Y0251800D01*
X0298736Y0251498D01*
X0298854Y0250906D01*
X0299085Y0250349D01*
X0299420Y0249847D01*
X0299847Y0249420D01*
X0300349Y0249085D01*
X0300906Y0248854D01*
X0301498Y0248736D01*
X0301800Y0248736D01*
X0302102Y0248736D01*
X0302694Y0248854D01*
X0303251Y0249085D01*
X0303753Y0249420D01*
X0304180Y0249847D01*
X0304515Y0250349D01*
X0304746Y0250906D01*
X0304864Y0251498D01*
X0304864Y0251800D01*
X0304864Y0252102D01*
X0304746Y0252694D01*
X0304515Y0253251D01*
X0304180Y0253753D01*
X0303753Y0254180D01*
X0303251Y0254515D01*
X0301800Y0254402D02*
X0301800Y0254402D01*
X0301800Y0254864D02*
X0301800Y0251800D01*
X0304864Y0251800D01*
X0301800Y0251800D01*
X0301800Y0251800D01*
X0301800Y0251800D01*
X0301800Y0254864D01*
X0300180Y0254402D02*
X0289300Y0254402D01*
X0289300Y0252803D02*
X0298899Y0252803D01*
X0298736Y0251800D02*
X0301800Y0251800D01*
X0301800Y0248736D01*
X0301800Y0251800D01*
X0301800Y0251800D01*
X0301800Y0251800D01*
X0298736Y0251800D01*
X0298795Y0251205D02*
X0289300Y0251205D01*
X0289300Y0249606D02*
X0299661Y0249606D01*
X0301800Y0249606D02*
X0301800Y0249606D01*
X0301800Y0251205D02*
X0301800Y0251205D01*
X0301800Y0252803D02*
X0301800Y0252803D01*
X0304701Y0252803D02*
X0306800Y0252803D01*
X0306800Y0251205D02*
X0304805Y0251205D01*
X0303939Y0249606D02*
X0306800Y0249606D01*
X0306800Y0248008D02*
X0289300Y0248008D01*
X0289300Y0246409D02*
X0306800Y0246409D01*
X0306800Y0244811D02*
X0302367Y0244811D01*
X0302102Y0244864D02*
X0301800Y0244864D01*
X0301498Y0244864D01*
X0300906Y0244746D01*
X0300349Y0244515D01*
X0299847Y0244180D01*
X0299420Y0243753D01*
X0299085Y0243251D01*
X0298854Y0242694D01*
X0298736Y0242102D01*
X0298736Y0241800D01*
X0298736Y0241498D01*
X0298854Y0240906D01*
X0299085Y0240349D01*
X0299420Y0239847D01*
X0299847Y0239420D01*
X0300349Y0239085D01*
X0300906Y0238854D01*
X0301498Y0238736D01*
X0301800Y0238736D01*
X0302102Y0238736D01*
X0302694Y0238854D01*
X0303251Y0239085D01*
X0303753Y0239420D01*
X0304180Y0239847D01*
X0304515Y0240349D01*
X0304746Y0240906D01*
X0304864Y0241498D01*
X0304864Y0241800D01*
X0304864Y0242102D01*
X0304746Y0242694D01*
X0304515Y0243251D01*
X0304180Y0243753D01*
X0303753Y0244180D01*
X0303251Y0244515D01*
X0302694Y0244746D01*
X0302102Y0244864D01*
X0301800Y0244864D02*
X0301800Y0241800D01*
X0304864Y0241800D01*
X0301800Y0241800D01*
X0301800Y0241800D01*
X0301800Y0241800D01*
X0301800Y0238736D01*
X0301800Y0241800D01*
X0301800Y0241800D01*
X0301800Y0241800D01*
X0298736Y0241800D01*
X0301800Y0241800D01*
X0301800Y0244864D01*
X0301800Y0244811D02*
X0301800Y0244811D01*
X0301233Y0244811D02*
X0289300Y0244811D01*
X0289300Y0243212D02*
X0299069Y0243212D01*
X0298736Y0241614D02*
X0289300Y0241614D01*
X0289300Y0240015D02*
X0299308Y0240015D01*
X0301800Y0240015D02*
X0301800Y0240015D01*
X0301800Y0241614D02*
X0301800Y0241614D01*
X0301800Y0243212D02*
X0301800Y0243212D01*
X0304531Y0243212D02*
X0306800Y0243212D01*
X0306800Y0241614D02*
X0304864Y0241614D01*
X0304292Y0240015D02*
X0306800Y0240015D01*
X0306800Y0238417D02*
X0289300Y0238417D01*
X0289300Y0236818D02*
X0306800Y0236818D01*
X0306800Y0235220D02*
X0289300Y0235220D01*
X0289300Y0233621D02*
X0299332Y0233621D01*
X0299420Y0233753D02*
X0299085Y0233251D01*
X0298854Y0232694D01*
X0298736Y0232102D01*
X0298736Y0231800D01*
X0298736Y0231498D01*
X0298854Y0230906D01*
X0299085Y0230349D01*
X0299420Y0229847D01*
X0299847Y0229420D01*
X0300349Y0229085D01*
X0300906Y0228854D01*
X0301498Y0228736D01*
X0301800Y0228736D01*
X0302102Y0228736D01*
X0302694Y0228854D01*
X0303251Y0229085D01*
X0303753Y0229420D01*
X0304180Y0229847D01*
X0304515Y0230349D01*
X0304746Y0230906D01*
X0304864Y0231498D01*
X0304864Y0231800D01*
X0304864Y0232102D01*
X0304746Y0232694D01*
X0304515Y0233251D01*
X0304180Y0233753D01*
X0303753Y0234180D01*
X0303251Y0234515D01*
X0302694Y0234746D01*
X0302102Y0234864D01*
X0301800Y0234864D01*
X0301498Y0234864D01*
X0300906Y0234746D01*
X0300349Y0234515D01*
X0299847Y0234180D01*
X0299420Y0233753D01*
X0298736Y0232023D02*
X0289300Y0232023D01*
X0289300Y0230424D02*
X0299054Y0230424D01*
X0298736Y0231800D02*
X0301800Y0231800D01*
X0304864Y0231800D01*
X0301800Y0231800D01*
X0301800Y0231800D01*
X0301800Y0231800D01*
X0301800Y0234864D01*
X0301800Y0231800D01*
X0301800Y0228736D01*
X0301800Y0231800D01*
X0301800Y0231800D01*
X0301800Y0231800D01*
X0298736Y0231800D01*
X0301800Y0232023D02*
X0301800Y0232023D01*
X0301800Y0233621D02*
X0301800Y0233621D01*
X0304268Y0233621D02*
X0306800Y0233621D01*
X0306800Y0232023D02*
X0304864Y0232023D01*
X0304546Y0230424D02*
X0306800Y0230424D01*
X0306800Y0228826D02*
X0302552Y0228826D01*
X0301800Y0228826D02*
X0301800Y0228826D01*
X0301048Y0228826D02*
X0289300Y0228826D01*
X0289300Y0227227D02*
X0306800Y0227227D01*
X0306800Y0225629D02*
X0299033Y0225629D01*
X0298980Y0225757D02*
X0298257Y0226480D01*
X0297312Y0226872D01*
X0296288Y0226872D01*
X0295343Y0226480D01*
X0294620Y0225757D01*
X0294228Y0224812D01*
X0294228Y0223788D01*
X0294620Y0222843D01*
X0295343Y0222120D01*
X0296288Y0221728D01*
X0297312Y0221728D01*
X0298257Y0222120D01*
X0298980Y0222843D01*
X0299372Y0223788D01*
X0299372Y0224812D01*
X0298980Y0225757D01*
X0299372Y0224030D02*
X0306800Y0224030D01*
X0306800Y0222432D02*
X0298569Y0222432D01*
X0295031Y0222432D02*
X0289819Y0222432D01*
X0289300Y0220833D02*
X0306800Y0220833D01*
X0306800Y0219235D02*
X0289300Y0219235D01*
X0289300Y0217636D02*
X0306800Y0217636D01*
X0306800Y0216038D02*
X0289300Y0216038D01*
X0289300Y0214439D02*
X0306800Y0214439D01*
X0306800Y0212841D02*
X0289300Y0212841D01*
X0289300Y0211242D02*
X0306800Y0211242D01*
X0306800Y0209644D02*
X0289300Y0209644D01*
X0289300Y0208045D02*
X0306800Y0208045D01*
X0306800Y0206447D02*
X0289300Y0206447D01*
X0289300Y0204848D02*
X0306800Y0204848D01*
X0306800Y0203250D02*
X0289300Y0203250D01*
X0289300Y0201651D02*
X0306800Y0201651D01*
X0306800Y0200053D02*
X0289300Y0200053D01*
X0289300Y0198454D02*
X0306800Y0198454D01*
X0306800Y0196856D02*
X0289300Y0196856D01*
X0289300Y0195257D02*
X0306800Y0195257D01*
X0306800Y0193659D02*
X0289300Y0193659D01*
X0289300Y0192060D02*
X0306800Y0192060D01*
X0306800Y0190462D02*
X0289300Y0190462D01*
X0289300Y0188863D02*
X0306800Y0188863D01*
X0306800Y0187265D02*
X0289300Y0187265D01*
X0289300Y0185666D02*
X0306800Y0185666D01*
X0306800Y0184068D02*
X0289300Y0184068D01*
X0289300Y0182469D02*
X0306800Y0182469D01*
X0306800Y0180870D02*
X0289300Y0180870D01*
X0289300Y0179272D02*
X0306800Y0179272D01*
X0306800Y0177673D02*
X0289300Y0177673D01*
X0289300Y0176075D02*
X0306800Y0176075D01*
X0306800Y0174476D02*
X0289300Y0174476D01*
X0289300Y0172878D02*
X0306800Y0172878D01*
X0306800Y0171279D02*
X0289300Y0171279D01*
X0289300Y0169681D02*
X0306800Y0169681D01*
X0306800Y0168082D02*
X0289300Y0168082D01*
X0289300Y0166484D02*
X0306800Y0166484D01*
X0306800Y0164885D02*
X0289300Y0164885D01*
X0276872Y0161688D02*
X0306800Y0161688D01*
X0306800Y0160090D02*
X0276227Y0160090D01*
X0276450Y0163287D02*
X0306800Y0163287D01*
X0309300Y0163287D02*
X0345164Y0163287D01*
X0344909Y0162673D02*
X0344909Y0160927D01*
X0345578Y0159313D01*
X0346813Y0158078D01*
X0348427Y0157409D01*
X0350173Y0157409D01*
X0351787Y0158078D01*
X0353022Y0159313D01*
X0353691Y0160927D01*
X0353691Y0162673D01*
X0353022Y0164287D01*
X0351787Y0165522D01*
X0350173Y0166191D01*
X0348427Y0166191D01*
X0346813Y0165522D01*
X0345578Y0164287D01*
X0344909Y0162673D01*
X0344909Y0161688D02*
X0309300Y0161688D01*
X0309300Y0160090D02*
X0311257Y0160090D01*
X0311347Y0160180D02*
X0310920Y0159753D01*
X0310585Y0159251D01*
X0310354Y0158694D01*
X0310236Y0158102D01*
X0310236Y0157800D01*
X0310236Y0157498D01*
X0310354Y0156906D01*
X0310585Y0156349D01*
X0310920Y0155847D01*
X0311347Y0155420D01*
X0311849Y0155085D01*
X0312406Y0154854D01*
X0312998Y0154736D01*
X0313300Y0154736D01*
X0313602Y0154736D01*
X0314194Y0154854D01*
X0314751Y0155085D01*
X0315253Y0155420D01*
X0315680Y0155847D01*
X0316015Y0156349D01*
X0316246Y0156906D01*
X0316364Y0157498D01*
X0316364Y0157800D01*
X0316364Y0158102D01*
X0316246Y0158694D01*
X0316015Y0159251D01*
X0315680Y0159753D01*
X0315253Y0160180D01*
X0314751Y0160515D01*
X0314194Y0160746D01*
X0313602Y0160864D01*
X0313300Y0160864D01*
X0312998Y0160864D01*
X0312406Y0160746D01*
X0311849Y0160515D01*
X0311347Y0160180D01*
X0313300Y0160090D02*
X0313300Y0160090D01*
X0313300Y0160864D02*
X0313300Y0157800D01*
X0316364Y0157800D01*
X0313300Y0157800D01*
X0313300Y0157800D01*
X0313300Y0157800D01*
X0313300Y0160864D01*
X0315343Y0160090D02*
X0345256Y0160090D01*
X0346399Y0158491D02*
X0316286Y0158491D01*
X0316240Y0156893D02*
X0360408Y0156893D01*
X0360758Y0156748D02*
X0362016Y0156748D01*
X0363178Y0157229D01*
X0364067Y0158119D01*
X0364549Y0159281D01*
X0364549Y0160539D01*
X0364067Y0161701D01*
X0363178Y0162591D01*
X0362016Y0163072D01*
X0360758Y0163072D01*
X0359595Y0162591D01*
X0358706Y0161701D01*
X0358224Y0160539D01*
X0358224Y0159281D01*
X0358706Y0158119D01*
X0359595Y0157229D01*
X0360758Y0156748D01*
X0362365Y0156893D02*
X0367476Y0156893D01*
X0367476Y0158491D02*
X0364222Y0158491D01*
X0364549Y0160090D02*
X0367476Y0160090D01*
X0367476Y0161688D02*
X0364073Y0161688D01*
X0367476Y0163287D02*
X0353436Y0163287D01*
X0353691Y0161688D02*
X0358700Y0161688D01*
X0358224Y0160090D02*
X0353344Y0160090D01*
X0352201Y0158491D02*
X0358552Y0158491D01*
X0353022Y0154287D02*
X0351787Y0155522D01*
X0350173Y0156191D01*
X0348427Y0156191D01*
X0346813Y0155522D01*
X0345578Y0154287D01*
X0344909Y0152673D01*
X0344909Y0150927D01*
X0345578Y0149313D01*
X0346813Y0148078D01*
X0348427Y0147409D01*
X0350173Y0147409D01*
X0351787Y0148078D01*
X0353022Y0149313D01*
X0353691Y0150927D01*
X0353691Y0152673D01*
X0353022Y0154287D01*
X0353267Y0153696D02*
X0367476Y0153696D01*
X0367476Y0155294D02*
X0352015Y0155294D01*
X0353691Y0152097D02*
X0367476Y0152097D01*
X0367476Y0150499D02*
X0353513Y0150499D01*
X0352609Y0148900D02*
X0367476Y0148900D01*
X0367476Y0147302D02*
X0309300Y0147302D01*
X0309300Y0148900D02*
X0345991Y0148900D01*
X0345087Y0150499D02*
X0309300Y0150499D01*
X0309300Y0152097D02*
X0344909Y0152097D01*
X0345333Y0153696D02*
X0309300Y0153696D01*
X0309300Y0155294D02*
X0311535Y0155294D01*
X0313300Y0155294D02*
X0313300Y0155294D01*
X0313300Y0154736D02*
X0313300Y0157800D01*
X0313300Y0157800D01*
X0313300Y0157800D01*
X0310236Y0157800D01*
X0313300Y0157800D01*
X0313300Y0154736D01*
X0315065Y0155294D02*
X0346585Y0155294D01*
X0348427Y0146191D02*
X0346813Y0145522D01*
X0345578Y0144287D01*
X0344909Y0142673D01*
X0344909Y0140927D01*
X0345578Y0139313D01*
X0346813Y0138078D01*
X0348427Y0137409D01*
X0350173Y0137409D01*
X0351787Y0138078D01*
X0353022Y0139313D01*
X0353691Y0140927D01*
X0353691Y0142673D01*
X0353022Y0144287D01*
X0351787Y0145522D01*
X0350173Y0146191D01*
X0348427Y0146191D01*
X0347250Y0145703D02*
X0314297Y0145703D01*
X0314194Y0145746D02*
X0313602Y0145864D01*
X0313300Y0145864D01*
X0312998Y0145864D01*
X0312406Y0145746D01*
X0311849Y0145515D01*
X0311347Y0145180D01*
X0310920Y0144753D01*
X0310585Y0144251D01*
X0310354Y0143694D01*
X0310236Y0143102D01*
X0310236Y0142800D01*
X0310236Y0142498D01*
X0310354Y0141906D01*
X0310585Y0141349D01*
X0310920Y0140847D01*
X0311347Y0140420D01*
X0311849Y0140085D01*
X0312406Y0139854D01*
X0312998Y0139736D01*
X0313300Y0139736D01*
X0313602Y0139736D01*
X0314194Y0139854D01*
X0314751Y0140085D01*
X0315253Y0140420D01*
X0315680Y0140847D01*
X0316015Y0141349D01*
X0316246Y0141906D01*
X0316364Y0142498D01*
X0316364Y0142800D01*
X0316364Y0143102D01*
X0316246Y0143694D01*
X0316015Y0144251D01*
X0315680Y0144753D01*
X0315253Y0145180D01*
X0314751Y0145515D01*
X0314194Y0145746D01*
X0313300Y0145703D02*
X0313300Y0145703D01*
X0313300Y0145864D02*
X0313300Y0142800D01*
X0316364Y0142800D01*
X0313300Y0142800D01*
X0313300Y0142800D01*
X0313300Y0142800D01*
X0313300Y0145864D01*
X0312303Y0145703D02*
X0309300Y0145703D01*
X0309300Y0144105D02*
X0310524Y0144105D01*
X0310236Y0142800D02*
X0313300Y0142800D01*
X0313300Y0139736D01*
X0313300Y0142800D01*
X0313300Y0142800D01*
X0313300Y0142800D01*
X0310236Y0142800D01*
X0310236Y0142506D02*
X0309300Y0142506D01*
X0309300Y0140908D02*
X0310880Y0140908D01*
X0309300Y0139309D02*
X0345582Y0139309D01*
X0344917Y0140908D02*
X0315720Y0140908D01*
X0316364Y0142506D02*
X0344909Y0142506D01*
X0345502Y0144105D02*
X0316076Y0144105D01*
X0313300Y0144105D02*
X0313300Y0144105D01*
X0313300Y0142506D02*
X0313300Y0142506D01*
X0313300Y0140908D02*
X0313300Y0140908D01*
X0309300Y0137711D02*
X0347699Y0137711D01*
X0348427Y0136191D02*
X0346813Y0135522D01*
X0345578Y0134287D01*
X0344909Y0132673D01*
X0344909Y0130927D01*
X0345578Y0129313D01*
X0346813Y0128078D01*
X0348427Y0127409D01*
X0350173Y0127409D01*
X0351787Y0128078D01*
X0353022Y0129313D01*
X0353691Y0130927D01*
X0353691Y0132673D01*
X0353022Y0134287D01*
X0351787Y0135522D01*
X0350173Y0136191D01*
X0348427Y0136191D01*
X0348237Y0136112D02*
X0309300Y0136112D01*
X0309300Y0134514D02*
X0345804Y0134514D01*
X0345010Y0132915D02*
X0309300Y0132915D01*
X0309300Y0131317D02*
X0344909Y0131317D01*
X0345410Y0129718D02*
X0315703Y0129718D01*
X0315680Y0129753D02*
X0315253Y0130180D01*
X0314751Y0130515D01*
X0314194Y0130746D01*
X0313602Y0130864D01*
X0313300Y0130864D01*
X0312998Y0130864D01*
X0312406Y0130746D01*
X0311849Y0130515D01*
X0311347Y0130180D01*
X0310920Y0129753D01*
X0310585Y0129251D01*
X0310354Y0128694D01*
X0310236Y0128102D01*
X0310236Y0127800D01*
X0310236Y0127498D01*
X0310354Y0126906D01*
X0310585Y0126349D01*
X0310920Y0125847D01*
X0311347Y0125420D01*
X0311849Y0125085D01*
X0312406Y0124854D01*
X0312998Y0124736D01*
X0313300Y0124736D01*
X0313602Y0124736D01*
X0314194Y0124854D01*
X0314751Y0125085D01*
X0315253Y0125420D01*
X0315680Y0125847D01*
X0316015Y0126349D01*
X0316246Y0126906D01*
X0316364Y0127498D01*
X0316364Y0127800D01*
X0316364Y0128102D01*
X0316246Y0128694D01*
X0316015Y0129251D01*
X0315680Y0129753D01*
X0316360Y0128120D02*
X0346771Y0128120D01*
X0348427Y0126191D02*
X0346813Y0125522D01*
X0345578Y0124287D01*
X0344909Y0122673D01*
X0344909Y0120927D01*
X0345578Y0119313D01*
X0346813Y0118078D01*
X0348427Y0117409D01*
X0350173Y0117409D01*
X0351787Y0118078D01*
X0353022Y0119313D01*
X0353691Y0120927D01*
X0353691Y0122673D01*
X0353022Y0124287D01*
X0351787Y0125522D01*
X0350173Y0126191D01*
X0348427Y0126191D01*
X0346213Y0124923D02*
X0314359Y0124923D01*
X0313300Y0124923D02*
X0313300Y0124923D01*
X0313300Y0124736D02*
X0313300Y0127800D01*
X0316364Y0127800D01*
X0313300Y0127800D01*
X0313300Y0127800D01*
X0313300Y0127800D01*
X0313300Y0130864D01*
X0313300Y0127800D01*
X0313300Y0127800D01*
X0313300Y0127800D01*
X0310236Y0127800D01*
X0313300Y0127800D01*
X0313300Y0124736D01*
X0312241Y0124923D02*
X0309300Y0124923D01*
X0309300Y0126521D02*
X0310514Y0126521D01*
X0310240Y0128120D02*
X0309300Y0128120D01*
X0309300Y0129718D02*
X0310897Y0129718D01*
X0313300Y0129718D02*
X0313300Y0129718D01*
X0313300Y0128120D02*
X0313300Y0128120D01*
X0313300Y0126521D02*
X0313300Y0126521D01*
X0316086Y0126521D02*
X0367476Y0126521D01*
X0367476Y0124923D02*
X0352387Y0124923D01*
X0353421Y0123324D02*
X0359844Y0123324D01*
X0359595Y0123221D02*
X0358706Y0122331D01*
X0358224Y0121169D01*
X0358224Y0119911D01*
X0358706Y0118749D01*
X0359595Y0117859D01*
X0360758Y0117378D01*
X0362016Y0117378D01*
X0363178Y0117859D01*
X0364067Y0118749D01*
X0364549Y0119911D01*
X0364549Y0121169D01*
X0364067Y0122331D01*
X0363178Y0123221D01*
X0362016Y0123702D01*
X0360758Y0123702D01*
X0359595Y0123221D01*
X0358455Y0121726D02*
X0353691Y0121726D01*
X0353359Y0120127D02*
X0358224Y0120127D01*
X0358926Y0118529D02*
X0352238Y0118529D01*
X0346362Y0118529D02*
X0309300Y0118529D01*
X0309300Y0120127D02*
X0345241Y0120127D01*
X0344909Y0121726D02*
X0309300Y0121726D01*
X0309300Y0123324D02*
X0345179Y0123324D01*
X0351829Y0128120D02*
X0367476Y0128120D01*
X0367476Y0129718D02*
X0353190Y0129718D01*
X0353691Y0131317D02*
X0367476Y0131317D01*
X0367476Y0132915D02*
X0353590Y0132915D01*
X0352796Y0134514D02*
X0367476Y0134514D01*
X0367476Y0136112D02*
X0350363Y0136112D01*
X0350901Y0137711D02*
X0367476Y0137711D01*
X0367476Y0139309D02*
X0353018Y0139309D01*
X0353683Y0140908D02*
X0367476Y0140908D01*
X0367476Y0142506D02*
X0353691Y0142506D01*
X0353098Y0144105D02*
X0367476Y0144105D01*
X0367476Y0145703D02*
X0351350Y0145703D01*
X0352424Y0164885D02*
X0367476Y0164885D01*
X0367476Y0166484D02*
X0309300Y0166484D01*
X0309300Y0168082D02*
X0346612Y0168082D01*
X0346896Y0167877D02*
X0346312Y0168301D01*
X0345801Y0168812D01*
X0345377Y0169396D01*
X0345049Y0170039D01*
X0344826Y0170726D01*
X0344713Y0171439D01*
X0344713Y0171600D01*
X0349100Y0171600D01*
X0349500Y0171600D01*
X0349500Y0172000D01*
X0353887Y0172000D01*
X0353887Y0172161D01*
X0353774Y0172874D01*
X0353551Y0173561D01*
X0353223Y0174204D01*
X0352799Y0174788D01*
X0352288Y0175299D01*
X0351704Y0175723D01*
X0351061Y0176051D01*
X0350374Y0176274D01*
X0349661Y0176387D01*
X0349500Y0176387D01*
X0349500Y0172000D01*
X0349100Y0172000D01*
X0349100Y0176387D01*
X0348939Y0176387D01*
X0348226Y0176274D01*
X0347539Y0176051D01*
X0346896Y0175723D01*
X0346312Y0175299D01*
X0345801Y0174788D01*
X0345377Y0174204D01*
X0345049Y0173561D01*
X0344826Y0172874D01*
X0344713Y0172161D01*
X0344713Y0172000D01*
X0349100Y0172000D01*
X0349100Y0171600D01*
X0349100Y0167213D01*
X0348939Y0167213D01*
X0348226Y0167326D01*
X0347539Y0167549D01*
X0346896Y0167877D01*
X0349100Y0168082D02*
X0349500Y0168082D01*
X0349500Y0167213D02*
X0349661Y0167213D01*
X0350374Y0167326D01*
X0351061Y0167549D01*
X0351704Y0167877D01*
X0352288Y0168301D01*
X0352799Y0168812D01*
X0353223Y0169396D01*
X0353551Y0170039D01*
X0353774Y0170726D01*
X0353887Y0171439D01*
X0353887Y0171600D01*
X0349500Y0171600D01*
X0349500Y0167213D01*
X0349500Y0169681D02*
X0349100Y0169681D01*
X0349100Y0171279D02*
X0349500Y0171279D01*
X0349500Y0172878D02*
X0349100Y0172878D01*
X0349100Y0174476D02*
X0349500Y0174476D01*
X0349500Y0176075D02*
X0349100Y0176075D01*
X0347612Y0176075D02*
X0321832Y0176075D01*
X0321680Y0175847D02*
X0322015Y0176349D01*
X0322246Y0176906D01*
X0322364Y0177498D01*
X0322364Y0177800D01*
X0322364Y0178102D01*
X0322246Y0178694D01*
X0322015Y0179251D01*
X0321680Y0179753D01*
X0321253Y0180180D01*
X0320751Y0180515D01*
X0320194Y0180746D01*
X0319602Y0180864D01*
X0319300Y0180864D01*
X0318998Y0180864D01*
X0318406Y0180746D01*
X0317849Y0180515D01*
X0317347Y0180180D01*
X0316920Y0179753D01*
X0316585Y0179251D01*
X0316354Y0178694D01*
X0316236Y0178102D01*
X0316236Y0177800D01*
X0316236Y0177498D01*
X0316354Y0176906D01*
X0316585Y0176349D01*
X0316920Y0175847D01*
X0317347Y0175420D01*
X0317849Y0175085D01*
X0318406Y0174854D01*
X0318998Y0174736D01*
X0319300Y0174736D01*
X0319602Y0174736D01*
X0320194Y0174854D01*
X0320751Y0175085D01*
X0321253Y0175420D01*
X0321680Y0175847D01*
X0322364Y0177673D02*
X0330216Y0177673D01*
X0330349Y0177585D02*
X0330906Y0177354D01*
X0331498Y0177236D01*
X0331800Y0177236D01*
X0332102Y0177236D01*
X0332694Y0177354D01*
X0333251Y0177585D01*
X0333753Y0177920D01*
X0334180Y0178347D01*
X0334515Y0178849D01*
X0334746Y0179406D01*
X0334864Y0179998D01*
X0334864Y0180300D01*
X0334864Y0180602D01*
X0334746Y0181194D01*
X0334515Y0181751D01*
X0334180Y0182253D01*
X0333753Y0182680D01*
X0333251Y0183015D01*
X0332694Y0183246D01*
X0332102Y0183364D01*
X0331800Y0183364D01*
X0331498Y0183364D01*
X0330906Y0183246D01*
X0330349Y0183015D01*
X0329847Y0182680D01*
X0329420Y0182253D01*
X0329085Y0181751D01*
X0328854Y0181194D01*
X0328736Y0180602D01*
X0328736Y0180300D01*
X0328736Y0179998D01*
X0328854Y0179406D01*
X0329085Y0178849D01*
X0329420Y0178347D01*
X0329847Y0177920D01*
X0330349Y0177585D01*
X0331800Y0177673D02*
X0331800Y0177673D01*
X0331800Y0177236D02*
X0331800Y0180300D01*
X0334864Y0180300D01*
X0331800Y0180300D01*
X0331800Y0180300D01*
X0331800Y0180300D01*
X0331800Y0183364D01*
X0331800Y0180300D01*
X0331800Y0180300D01*
X0331800Y0180300D01*
X0328736Y0180300D01*
X0331800Y0180300D01*
X0331800Y0177236D01*
X0333384Y0177673D02*
X0367476Y0177673D01*
X0367476Y0176075D02*
X0350988Y0176075D01*
X0353026Y0174476D02*
X0367476Y0174476D01*
X0367476Y0172878D02*
X0353773Y0172878D01*
X0353862Y0171279D02*
X0367476Y0171279D01*
X0367476Y0169681D02*
X0353369Y0169681D01*
X0351988Y0168082D02*
X0367476Y0168082D01*
X0367476Y0179272D02*
X0334690Y0179272D01*
X0334810Y0180870D02*
X0367476Y0180870D01*
X0367476Y0182469D02*
X0333964Y0182469D01*
X0331800Y0182469D02*
X0331800Y0182469D01*
X0331800Y0180870D02*
X0331800Y0180870D01*
X0331800Y0179272D02*
X0331800Y0179272D01*
X0328910Y0179272D02*
X0322001Y0179272D01*
X0322364Y0177800D02*
X0319300Y0177800D01*
X0319300Y0177800D01*
X0319300Y0177800D01*
X0319300Y0180864D01*
X0319300Y0177800D01*
X0322364Y0177800D01*
X0319300Y0177800D02*
X0319300Y0174736D01*
X0319300Y0177800D01*
X0319300Y0177800D01*
X0319300Y0177800D01*
X0316236Y0177800D01*
X0319300Y0177800D01*
X0319300Y0177673D02*
X0319300Y0177673D01*
X0319300Y0176075D02*
X0319300Y0176075D01*
X0316768Y0176075D02*
X0309300Y0176075D01*
X0309300Y0177673D02*
X0316236Y0177673D01*
X0316599Y0179272D02*
X0309300Y0179272D01*
X0309300Y0180870D02*
X0328790Y0180870D01*
X0329636Y0182469D02*
X0309300Y0182469D01*
X0309300Y0184068D02*
X0367476Y0184068D01*
X0367476Y0185666D02*
X0309300Y0185666D01*
X0309300Y0187265D02*
X0367476Y0187265D01*
X0367476Y0188863D02*
X0352572Y0188863D01*
X0353022Y0189313D02*
X0353691Y0190927D01*
X0353691Y0192673D01*
X0353022Y0194287D01*
X0351787Y0195522D01*
X0350173Y0196191D01*
X0348427Y0196191D01*
X0346813Y0195522D01*
X0345578Y0194287D01*
X0344909Y0192673D01*
X0344909Y0190927D01*
X0345578Y0189313D01*
X0346813Y0188078D01*
X0348427Y0187409D01*
X0350173Y0187409D01*
X0351787Y0188078D01*
X0353022Y0189313D01*
X0353498Y0190462D02*
X0367476Y0190462D01*
X0367476Y0192060D02*
X0353691Y0192060D01*
X0353282Y0193659D02*
X0367476Y0193659D01*
X0367476Y0195257D02*
X0352052Y0195257D01*
X0351787Y0198078D02*
X0350173Y0197409D01*
X0348427Y0197409D01*
X0346813Y0198078D01*
X0345578Y0199313D01*
X0344909Y0200927D01*
X0344909Y0202673D01*
X0345578Y0204287D01*
X0346813Y0205522D01*
X0348427Y0206191D01*
X0350173Y0206191D01*
X0351787Y0205522D01*
X0353022Y0204287D01*
X0353691Y0202673D01*
X0353691Y0200927D01*
X0353022Y0199313D01*
X0351787Y0198078D01*
X0352163Y0198454D02*
X0358306Y0198454D01*
X0358224Y0198651D02*
X0358706Y0197489D01*
X0359595Y0196600D01*
X0360758Y0196118D01*
X0362016Y0196118D01*
X0363178Y0196600D01*
X0364067Y0197489D01*
X0364549Y0198651D01*
X0364549Y0199909D01*
X0364067Y0201072D01*
X0363178Y0201961D01*
X0362016Y0202443D01*
X0360758Y0202443D01*
X0359595Y0201961D01*
X0358706Y0201072D01*
X0358224Y0199909D01*
X0358224Y0198651D01*
X0358284Y0200053D02*
X0353328Y0200053D01*
X0353691Y0201651D02*
X0359285Y0201651D01*
X0363488Y0201651D02*
X0367476Y0201651D01*
X0367476Y0200053D02*
X0364489Y0200053D01*
X0364467Y0198454D02*
X0367476Y0198454D01*
X0367476Y0196856D02*
X0363434Y0196856D01*
X0359339Y0196856D02*
X0309300Y0196856D01*
X0309300Y0198454D02*
X0346437Y0198454D01*
X0345271Y0200053D02*
X0309300Y0200053D01*
X0309300Y0201651D02*
X0344909Y0201651D01*
X0345148Y0203250D02*
X0309300Y0203250D01*
X0309300Y0204848D02*
X0346139Y0204848D01*
X0352461Y0204848D02*
X0367476Y0204848D01*
X0367476Y0203250D02*
X0353452Y0203250D01*
X0346548Y0195257D02*
X0309300Y0195257D01*
X0309300Y0193659D02*
X0345318Y0193659D01*
X0344909Y0192060D02*
X0309300Y0192060D01*
X0309300Y0190462D02*
X0345102Y0190462D01*
X0346028Y0188863D02*
X0309300Y0188863D01*
X0319300Y0179272D02*
X0319300Y0179272D01*
X0309300Y0174476D02*
X0345574Y0174476D01*
X0344827Y0172878D02*
X0309300Y0172878D01*
X0309300Y0171279D02*
X0344738Y0171279D01*
X0345231Y0169681D02*
X0309300Y0169681D01*
X0309300Y0164885D02*
X0346176Y0164885D01*
X0313300Y0158491D02*
X0313300Y0158491D01*
X0313300Y0156893D02*
X0313300Y0156893D01*
X0310360Y0156893D02*
X0309300Y0156893D01*
X0309300Y0158491D02*
X0310314Y0158491D01*
X0287000Y0184068D02*
X0056084Y0184068D01*
X0056084Y0185666D02*
X0119368Y0185666D01*
X0119527Y0185281D02*
X0120281Y0184527D01*
X0121267Y0184119D01*
X0122333Y0184119D01*
X0123319Y0184527D01*
X0124073Y0185281D01*
X0124481Y0186267D01*
X0124481Y0187333D01*
X0124073Y0188319D01*
X0123319Y0189073D01*
X0122333Y0189481D01*
X0121267Y0189481D01*
X0120281Y0189073D01*
X0119527Y0188319D01*
X0119119Y0187333D01*
X0119119Y0186267D01*
X0119527Y0185281D01*
X0119119Y0187265D02*
X0056084Y0187265D01*
X0056084Y0188863D02*
X0079597Y0188863D01*
X0078550Y0190462D02*
X0056084Y0190462D01*
X0056084Y0192060D02*
X0078300Y0192060D01*
X0078682Y0193659D02*
X0056084Y0193659D01*
X0056084Y0195257D02*
X0079917Y0195257D01*
X0081665Y0197500D02*
X0083335Y0197500D01*
X0084879Y0198139D01*
X0086061Y0199321D01*
X0086450Y0200261D01*
X0086839Y0199321D01*
X0088021Y0198139D01*
X0089565Y0197500D01*
X0091235Y0197500D01*
X0092779Y0198139D01*
X0093961Y0199321D01*
X0094600Y0200865D01*
X0094600Y0202535D01*
X0093961Y0204079D01*
X0092779Y0205261D01*
X0091235Y0205900D01*
X0089565Y0205900D01*
X0088021Y0205261D01*
X0086839Y0204079D01*
X0086450Y0203139D01*
X0086061Y0204079D01*
X0084879Y0205261D01*
X0083335Y0205900D01*
X0081665Y0205900D01*
X0080121Y0205261D01*
X0078939Y0204079D01*
X0078300Y0202535D01*
X0078300Y0200865D01*
X0078939Y0199321D01*
X0080121Y0198139D01*
X0081665Y0197500D01*
X0079806Y0198454D02*
X0065373Y0198454D01*
X0065446Y0198630D02*
X0064948Y0197427D01*
X0064027Y0196507D01*
X0062825Y0196009D01*
X0061523Y0196009D01*
X0060321Y0196507D01*
X0059400Y0197427D01*
X0058902Y0198630D01*
X0058902Y0199931D01*
X0059400Y0201134D01*
X0060321Y0202054D01*
X0061523Y0202552D01*
X0062825Y0202552D01*
X0064027Y0202054D01*
X0064948Y0201134D01*
X0065446Y0199931D01*
X0065446Y0198630D01*
X0065395Y0200053D02*
X0078636Y0200053D01*
X0078300Y0201651D02*
X0064430Y0201651D01*
X0059918Y0201651D02*
X0056084Y0201651D01*
X0056084Y0200053D02*
X0058953Y0200053D01*
X0058975Y0198454D02*
X0056084Y0198454D01*
X0056084Y0196856D02*
X0059972Y0196856D01*
X0064376Y0196856D02*
X0111527Y0196856D01*
X0113126Y0198454D02*
X0093094Y0198454D01*
X0094264Y0200053D02*
X0114724Y0200053D01*
X0116323Y0201651D02*
X0094600Y0201651D01*
X0094304Y0203250D02*
X0117921Y0203250D01*
X0119520Y0204848D02*
X0093192Y0204848D01*
X0087608Y0204848D02*
X0085292Y0204848D01*
X0086404Y0203250D02*
X0086496Y0203250D01*
X0086536Y0200053D02*
X0086364Y0200053D01*
X0085194Y0198454D02*
X0087706Y0198454D01*
X0087817Y0195257D02*
X0085083Y0195257D01*
X0086318Y0193659D02*
X0086582Y0193659D01*
X0087497Y0188863D02*
X0085403Y0188863D01*
X0093303Y0188863D02*
X0120071Y0188863D01*
X0123529Y0188863D02*
X0287000Y0188863D01*
X0287000Y0187265D02*
X0124481Y0187265D01*
X0124232Y0185666D02*
X0287000Y0185666D01*
X0287000Y0200053D02*
X0261344Y0200053D01*
X0261981Y0201651D02*
X0287000Y0201651D01*
X0287000Y0212841D02*
X0225369Y0212841D01*
X0226845Y0214439D02*
X0287000Y0214439D01*
X0287000Y0216038D02*
X0226896Y0216038D01*
X0225672Y0217636D02*
X0225666Y0217636D01*
X0228928Y0217636D02*
X0287000Y0217636D01*
X0290622Y0224030D02*
X0294228Y0224030D01*
X0294567Y0225629D02*
X0290283Y0225629D01*
X0301800Y0230424D02*
X0301800Y0230424D01*
X0309300Y0230424D02*
X0345118Y0230424D01*
X0344909Y0230927D02*
X0345578Y0229313D01*
X0346813Y0228078D01*
X0348427Y0227409D01*
X0350173Y0227409D01*
X0351787Y0228078D01*
X0353022Y0229313D01*
X0353691Y0230927D01*
X0353691Y0232673D01*
X0353022Y0234287D01*
X0351787Y0235522D01*
X0350173Y0236191D01*
X0348427Y0236191D01*
X0346813Y0235522D01*
X0345578Y0234287D01*
X0344909Y0232673D01*
X0344909Y0230927D01*
X0344909Y0232023D02*
X0309300Y0232023D01*
X0309300Y0233621D02*
X0345302Y0233621D01*
X0346511Y0235220D02*
X0309300Y0235220D01*
X0309300Y0236818D02*
X0358747Y0236818D01*
X0358706Y0236859D02*
X0359595Y0235970D01*
X0360758Y0235488D01*
X0362016Y0235488D01*
X0363178Y0235970D01*
X0364067Y0236859D01*
X0364549Y0238021D01*
X0364549Y0239279D01*
X0364067Y0240442D01*
X0363178Y0241331D01*
X0362016Y0241813D01*
X0360758Y0241813D01*
X0359595Y0241331D01*
X0358706Y0240442D01*
X0358224Y0239279D01*
X0358224Y0238021D01*
X0358706Y0236859D01*
X0358224Y0238417D02*
X0352126Y0238417D01*
X0351787Y0238078D02*
X0353022Y0239313D01*
X0353691Y0240927D01*
X0353691Y0242673D01*
X0353022Y0244287D01*
X0351787Y0245522D01*
X0350173Y0246191D01*
X0348427Y0246191D01*
X0346813Y0245522D01*
X0345578Y0244287D01*
X0344909Y0242673D01*
X0344909Y0240927D01*
X0345578Y0239313D01*
X0346813Y0238078D01*
X0348427Y0237409D01*
X0350173Y0237409D01*
X0351787Y0238078D01*
X0353313Y0240015D02*
X0358529Y0240015D01*
X0360278Y0241614D02*
X0353691Y0241614D01*
X0353467Y0243212D02*
X0367476Y0243212D01*
X0367476Y0241614D02*
X0362495Y0241614D01*
X0364244Y0240015D02*
X0367476Y0240015D01*
X0367476Y0238417D02*
X0364549Y0238417D01*
X0364027Y0236818D02*
X0367476Y0236818D01*
X0367476Y0235220D02*
X0352089Y0235220D01*
X0353298Y0233621D02*
X0367476Y0233621D01*
X0367476Y0232023D02*
X0353691Y0232023D01*
X0353482Y0230424D02*
X0367476Y0230424D01*
X0367476Y0228826D02*
X0352535Y0228826D01*
X0351530Y0225629D02*
X0367476Y0225629D01*
X0367476Y0227227D02*
X0309300Y0227227D01*
X0309300Y0225629D02*
X0347070Y0225629D01*
X0346813Y0225522D02*
X0348427Y0226191D01*
X0350173Y0226191D01*
X0351787Y0225522D01*
X0353022Y0224287D01*
X0353691Y0222673D01*
X0353691Y0220927D01*
X0353022Y0219313D01*
X0351787Y0218078D01*
X0350173Y0217409D01*
X0348427Y0217409D01*
X0346813Y0218078D01*
X0345578Y0219313D01*
X0344909Y0220927D01*
X0344909Y0222673D01*
X0345578Y0224287D01*
X0346813Y0225522D01*
X0345472Y0224030D02*
X0309300Y0224030D01*
X0309300Y0222432D02*
X0344909Y0222432D01*
X0344948Y0220833D02*
X0309300Y0220833D01*
X0309300Y0219235D02*
X0345656Y0219235D01*
X0347879Y0217636D02*
X0309300Y0217636D01*
X0309300Y0216038D02*
X0367476Y0216038D01*
X0367476Y0217636D02*
X0350721Y0217636D01*
X0352944Y0219235D02*
X0367476Y0219235D01*
X0367476Y0220833D02*
X0353652Y0220833D01*
X0353691Y0222432D02*
X0367476Y0222432D01*
X0367476Y0224030D02*
X0353128Y0224030D01*
X0346065Y0228826D02*
X0309300Y0228826D01*
X0309300Y0238417D02*
X0346474Y0238417D01*
X0345287Y0240015D02*
X0309300Y0240015D01*
X0309300Y0241614D02*
X0344909Y0241614D01*
X0345133Y0243212D02*
X0309300Y0243212D01*
X0309300Y0244811D02*
X0346102Y0244811D01*
X0346982Y0248008D02*
X0309300Y0248008D01*
X0309300Y0249606D02*
X0345456Y0249606D01*
X0344909Y0251205D02*
X0309300Y0251205D01*
X0309300Y0252803D02*
X0344963Y0252803D01*
X0345693Y0254402D02*
X0309300Y0254402D01*
X0309300Y0246409D02*
X0367476Y0246409D01*
X0367476Y0244811D02*
X0352498Y0244811D01*
X0351618Y0248008D02*
X0367476Y0248008D01*
X0367476Y0249606D02*
X0353144Y0249606D01*
X0353691Y0251205D02*
X0367476Y0251205D01*
X0367476Y0252803D02*
X0353637Y0252803D01*
X0352907Y0254402D02*
X0367476Y0254402D01*
X0367476Y0268789D02*
X0352776Y0268789D01*
X0353664Y0270387D02*
X0367476Y0270387D01*
X0367476Y0275183D02*
X0362799Y0275183D01*
X0364296Y0276781D02*
X0367476Y0276781D01*
X0367476Y0278380D02*
X0364549Y0278380D01*
X0363901Y0279978D02*
X0367476Y0279978D01*
X0367476Y0287971D02*
X0317259Y0287971D01*
X0317271Y0289569D02*
X0367476Y0289569D01*
X0367476Y0291168D02*
X0316265Y0291168D01*
X0314300Y0291168D02*
X0314300Y0291168D01*
X0314300Y0289569D02*
X0314300Y0289569D01*
X0312335Y0291168D02*
X0227233Y0291168D01*
X0227481Y0292766D02*
X0367476Y0292766D01*
X0349500Y0275183D02*
X0349100Y0275183D01*
X0349100Y0273584D02*
X0349500Y0273584D01*
X0349500Y0270387D02*
X0349100Y0270387D01*
X0349100Y0268789D02*
X0349500Y0268789D01*
X0308120Y0286372D02*
X0307980Y0286372D01*
X0287000Y0273584D02*
X0272945Y0273584D01*
X0272972Y0273573D02*
X0271987Y0273981D01*
X0270920Y0273981D01*
X0269935Y0273573D01*
X0269181Y0272819D01*
X0268772Y0271833D01*
X0268772Y0270767D01*
X0269181Y0269781D01*
X0269935Y0269027D01*
X0270920Y0268619D01*
X0271987Y0268619D01*
X0272972Y0269027D01*
X0273726Y0269781D01*
X0274135Y0270767D01*
X0274135Y0271833D01*
X0273726Y0272819D01*
X0272972Y0273573D01*
X0274072Y0271986D02*
X0287000Y0271986D01*
X0287000Y0270387D02*
X0273977Y0270387D01*
X0272397Y0268789D02*
X0287000Y0268789D01*
X0287000Y0267190D02*
X0146600Y0267190D01*
X0146600Y0265592D02*
X0287000Y0265592D01*
X0289300Y0259198D02*
X0300180Y0259198D01*
X0287000Y0246409D02*
X0256981Y0246409D01*
X0256103Y0244811D02*
X0287000Y0244811D01*
X0269355Y0249606D02*
X0235981Y0249606D01*
X0235187Y0251205D02*
X0268298Y0251205D01*
X0268467Y0252803D02*
X0210203Y0252803D01*
X0210304Y0254402D02*
X0253083Y0254402D01*
X0251729Y0256001D02*
X0209432Y0256001D01*
X0207300Y0256001D02*
X0207300Y0256001D01*
X0207300Y0254402D02*
X0207300Y0254402D01*
X0207300Y0252803D02*
X0207300Y0252803D01*
X0204397Y0252803D02*
X0180636Y0252803D01*
X0180680Y0252847D02*
X0181015Y0253349D01*
X0181246Y0253906D01*
X0181364Y0254498D01*
X0181364Y0254800D01*
X0181364Y0255102D01*
X0181246Y0255694D01*
X0181015Y0256251D01*
X0180680Y0256753D01*
X0180253Y0257180D01*
X0179751Y0257515D01*
X0179194Y0257746D01*
X0178602Y0257864D01*
X0178300Y0257864D01*
X0177998Y0257864D01*
X0177406Y0257746D01*
X0176849Y0257515D01*
X0176347Y0257180D01*
X0175920Y0256753D01*
X0175585Y0256251D01*
X0175354Y0255694D01*
X0175236Y0255102D01*
X0175236Y0254800D01*
X0175236Y0254498D01*
X0175354Y0253906D01*
X0175585Y0253349D01*
X0175920Y0252847D01*
X0176347Y0252420D01*
X0176849Y0252085D01*
X0177406Y0251854D01*
X0177998Y0251736D01*
X0178300Y0251736D01*
X0178602Y0251736D01*
X0179194Y0251854D01*
X0179751Y0252085D01*
X0180253Y0252420D01*
X0180680Y0252847D01*
X0181345Y0254402D02*
X0204296Y0254402D01*
X0205168Y0256001D02*
X0181119Y0256001D01*
X0181364Y0254800D02*
X0178300Y0254800D01*
X0178300Y0254800D01*
X0178300Y0254800D01*
X0178300Y0257864D01*
X0178300Y0254800D01*
X0181364Y0254800D01*
X0178300Y0254800D02*
X0178300Y0251736D01*
X0178300Y0254800D01*
X0178300Y0254800D01*
X0178300Y0254800D01*
X0175236Y0254800D01*
X0178300Y0254800D01*
X0178300Y0254402D02*
X0178300Y0254402D01*
X0178300Y0252803D02*
X0178300Y0252803D01*
X0175964Y0252803D02*
X0146600Y0252803D01*
X0146600Y0254402D02*
X0175255Y0254402D01*
X0175481Y0256001D02*
X0146600Y0256001D01*
X0146600Y0257599D02*
X0177051Y0257599D01*
X0178300Y0257599D02*
X0178300Y0257599D01*
X0179549Y0257599D02*
X0251729Y0257599D01*
X0255517Y0254402D02*
X0270229Y0254402D01*
X0270511Y0268789D02*
X0146600Y0268789D01*
X0146600Y0270387D02*
X0268930Y0270387D01*
X0268836Y0271986D02*
X0146600Y0271986D01*
X0146600Y0273584D02*
X0269962Y0273584D01*
X0252125Y0238417D02*
X0232475Y0238417D01*
X0232981Y0236818D02*
X0251619Y0236818D01*
X0252088Y0235220D02*
X0232512Y0235220D01*
X0234702Y0233621D02*
X0252039Y0233621D01*
X0251270Y0232023D02*
X0235903Y0232023D01*
X0235839Y0230424D02*
X0238630Y0230424D01*
X0239970Y0230424D02*
X0251450Y0230424D01*
X0254300Y0230424D02*
X0254300Y0230424D01*
X0309300Y0214439D02*
X0367476Y0214439D01*
X0367476Y0212841D02*
X0309300Y0212841D01*
X0309300Y0211242D02*
X0367476Y0211242D01*
X0367476Y0209644D02*
X0309300Y0209644D01*
X0309300Y0208045D02*
X0367476Y0208045D01*
X0367476Y0206447D02*
X0309300Y0206447D01*
X0362929Y0123324D02*
X0367476Y0123324D01*
X0367476Y0121726D02*
X0364318Y0121726D01*
X0364549Y0120127D02*
X0367476Y0120127D01*
X0367476Y0118529D02*
X0363847Y0118529D01*
X0367476Y0116930D02*
X0309300Y0116930D01*
X0309300Y0115332D02*
X0367476Y0115332D01*
X0367476Y0113733D02*
X0309300Y0113733D01*
X0309300Y0112134D02*
X0367476Y0112134D01*
X0367476Y0110536D02*
X0309300Y0110536D01*
X0332171Y0083361D02*
X0351232Y0083361D01*
X0350832Y0082961D02*
X0351721Y0083851D01*
X0352884Y0084332D01*
X0354142Y0084332D01*
X0355304Y0083851D01*
X0356193Y0082961D01*
X0356675Y0081799D01*
X0356675Y0080541D01*
X0356193Y0079379D01*
X0355304Y0078489D01*
X0354142Y0078008D01*
X0352884Y0078008D01*
X0351721Y0078489D01*
X0350832Y0079379D01*
X0350350Y0080541D01*
X0350350Y0081799D01*
X0350832Y0082961D01*
X0350350Y0081763D02*
X0333053Y0081763D01*
X0332897Y0080164D02*
X0350506Y0080164D01*
X0351645Y0078566D02*
X0331758Y0078566D01*
X0321800Y0067376D02*
X0312723Y0067376D01*
X0313368Y0065778D02*
X0321800Y0065778D01*
X0321800Y0064179D02*
X0313113Y0064179D01*
X0311609Y0062581D02*
X0321800Y0062581D01*
X0321800Y0054588D02*
X0091300Y0054588D01*
X0076941Y0049793D02*
X0106146Y0049793D01*
X0106490Y0048194D02*
X0074563Y0048194D01*
X0089000Y0068975D02*
X0056084Y0068975D01*
X0056084Y0070573D02*
X0089000Y0070573D01*
X0089000Y0072172D02*
X0056084Y0072172D01*
X0056084Y0073770D02*
X0089000Y0073770D01*
X0089000Y0075369D02*
X0056084Y0075369D01*
X0056084Y0076967D02*
X0089000Y0076967D01*
X0089000Y0078566D02*
X0064197Y0078566D01*
X0064027Y0078397D02*
X0064948Y0079317D01*
X0065446Y0080519D01*
X0065446Y0081821D01*
X0064948Y0083023D01*
X0064027Y0083944D01*
X0062825Y0084442D01*
X0061523Y0084442D01*
X0060321Y0083944D01*
X0059400Y0083023D01*
X0058902Y0081821D01*
X0058902Y0080519D01*
X0059400Y0079317D01*
X0060321Y0078397D01*
X0061523Y0077898D01*
X0062825Y0077898D01*
X0064027Y0078397D01*
X0065299Y0080164D02*
X0089000Y0080164D01*
X0089000Y0081763D02*
X0065446Y0081763D01*
X0064610Y0083361D02*
X0089000Y0083361D01*
X0089000Y0084960D02*
X0056084Y0084960D01*
X0056084Y0086558D02*
X0089000Y0086558D01*
X0089000Y0088157D02*
X0056084Y0088157D01*
X0056084Y0089755D02*
X0089000Y0089755D01*
X0089000Y0091354D02*
X0056084Y0091354D01*
X0056084Y0092952D02*
X0089000Y0092952D01*
X0089000Y0094551D02*
X0056084Y0094551D01*
X0056084Y0096149D02*
X0089000Y0096149D01*
X0089000Y0097748D02*
X0056084Y0097748D01*
X0056084Y0099346D02*
X0089000Y0099346D01*
X0089000Y0100945D02*
X0056084Y0100945D01*
X0056084Y0102543D02*
X0089000Y0102543D01*
X0089000Y0104142D02*
X0056084Y0104142D01*
X0056084Y0105740D02*
X0089000Y0105740D01*
X0091300Y0102543D02*
X0112499Y0102543D01*
X0112236Y0101300D02*
X0115300Y0101300D01*
X0115300Y0098236D01*
X0115300Y0101300D01*
X0115300Y0101300D01*
X0115300Y0101300D01*
X0112236Y0101300D01*
X0112247Y0100945D02*
X0091300Y0100945D01*
X0091300Y0099346D02*
X0112921Y0099346D01*
X0115300Y0099346D02*
X0115300Y0099346D01*
X0115300Y0100945D02*
X0115300Y0100945D01*
X0115300Y0102543D02*
X0115300Y0102543D01*
X0117679Y0099346D02*
X0212109Y0099346D01*
X0212109Y0097748D02*
X0091300Y0097748D01*
X0091300Y0096149D02*
X0212109Y0096149D01*
X0212109Y0094551D02*
X0116815Y0094551D01*
X0117364Y0092952D02*
X0212109Y0092952D01*
X0212109Y0091354D02*
X0117017Y0091354D01*
X0114300Y0091354D02*
X0114300Y0091354D01*
X0114300Y0092800D02*
X0114300Y0092800D01*
X0114300Y0092800D01*
X0111236Y0092800D01*
X0114300Y0092800D01*
X0114300Y0092952D02*
X0114300Y0092952D01*
X0114300Y0094551D02*
X0114300Y0094551D01*
X0111785Y0094551D02*
X0091300Y0094551D01*
X0091300Y0092952D02*
X0111236Y0092952D01*
X0111583Y0091354D02*
X0091300Y0091354D01*
X0091300Y0083361D02*
X0091389Y0083361D01*
X0091300Y0078566D02*
X0091802Y0078566D01*
X0060152Y0078566D02*
X0056084Y0078566D01*
X0056084Y0080164D02*
X0059049Y0080164D01*
X0058902Y0081763D02*
X0056084Y0081763D01*
X0056084Y0083361D02*
X0059738Y0083361D01*
X0091300Y0115332D02*
X0093096Y0115332D01*
X0093085Y0115349D02*
X0093420Y0114847D01*
X0093847Y0114420D01*
X0094349Y0114085D01*
X0094906Y0113854D01*
X0095498Y0113736D01*
X0095800Y0113736D01*
X0096102Y0113736D01*
X0096694Y0113854D01*
X0097251Y0114085D01*
X0097753Y0114420D01*
X0098180Y0114847D01*
X0098515Y0115349D01*
X0098746Y0115906D01*
X0098864Y0116498D01*
X0098864Y0116800D01*
X0098864Y0117102D01*
X0098746Y0117694D01*
X0098515Y0118251D01*
X0098180Y0118753D01*
X0097753Y0119180D01*
X0097251Y0119515D01*
X0096694Y0119746D01*
X0096102Y0119864D01*
X0095800Y0119864D01*
X0095498Y0119864D01*
X0094906Y0119746D01*
X0094349Y0119515D01*
X0093847Y0119180D01*
X0093420Y0118753D01*
X0093085Y0118251D01*
X0092854Y0117694D01*
X0092736Y0117102D01*
X0092736Y0116800D01*
X0092736Y0116498D01*
X0092854Y0115906D01*
X0093085Y0115349D01*
X0092736Y0116800D02*
X0095800Y0116800D01*
X0098864Y0116800D01*
X0095800Y0116800D01*
X0095800Y0116800D01*
X0095800Y0116800D01*
X0095800Y0119864D01*
X0095800Y0116800D01*
X0095800Y0113736D01*
X0095800Y0116800D01*
X0095800Y0116800D01*
X0095800Y0116800D01*
X0092736Y0116800D01*
X0092736Y0116930D02*
X0091300Y0116930D01*
X0091300Y0118529D02*
X0093270Y0118529D01*
X0095800Y0118529D02*
X0095800Y0118529D01*
X0095800Y0116930D02*
X0095800Y0116930D01*
X0095800Y0115332D02*
X0095800Y0115332D01*
X0098504Y0115332D02*
X0164096Y0115332D01*
X0163736Y0116800D02*
X0166800Y0116800D01*
X0166800Y0113736D01*
X0166800Y0116800D01*
X0166800Y0116800D01*
X0166800Y0116800D01*
X0163736Y0116800D01*
X0163736Y0116930D02*
X0098864Y0116930D01*
X0098330Y0118529D02*
X0164270Y0118529D01*
X0166800Y0115332D02*
X0166800Y0115332D01*
X0140375Y0120127D02*
X0091300Y0120127D01*
X0089000Y0120127D02*
X0065446Y0120127D01*
X0065224Y0121726D02*
X0089000Y0121726D01*
X0089000Y0118529D02*
X0064789Y0118529D01*
X0064002Y0123324D02*
X0139500Y0123324D01*
X0205800Y0104142D02*
X0205800Y0104142D01*
X0205800Y0102543D02*
X0205800Y0102543D01*
X0124452Y0190462D02*
X0110790Y0190462D01*
X0112388Y0192060D02*
X0124119Y0192060D01*
X0124867Y0193659D02*
X0113987Y0193659D01*
X0109929Y0195257D02*
X0092983Y0195257D01*
X0079708Y0204848D02*
X0056084Y0204848D01*
X0056084Y0203250D02*
X0078596Y0203250D01*
X0074867Y0212841D02*
X0127512Y0212841D01*
X0125914Y0211242D02*
X0056084Y0211242D01*
X0056084Y0209644D02*
X0124315Y0209644D01*
X0122717Y0208045D02*
X0056084Y0208045D01*
X0056084Y0206447D02*
X0121118Y0206447D01*
X0125177Y0204848D02*
X0133792Y0204848D01*
X0133666Y0206447D02*
X0126775Y0206447D01*
X0128374Y0208045D02*
X0134754Y0208045D01*
X0137170Y0209644D02*
X0129972Y0209644D01*
X0131571Y0211242D02*
X0137288Y0211242D01*
X0138928Y0212841D02*
X0133169Y0212841D01*
X0134768Y0214439D02*
X0165359Y0214439D01*
X0164736Y0216038D02*
X0136366Y0216038D01*
X0137965Y0217636D02*
X0165037Y0217636D01*
X0166879Y0219235D02*
X0139563Y0219235D01*
X0137103Y0222432D02*
X0101382Y0222432D01*
X0101194Y0222354D02*
X0101751Y0222585D01*
X0102253Y0222920D01*
X0102680Y0223347D01*
X0103015Y0223849D01*
X0103246Y0224406D01*
X0103364Y0224998D01*
X0103364Y0225300D01*
X0103364Y0225602D01*
X0103246Y0226194D01*
X0103015Y0226751D01*
X0102680Y0227253D01*
X0102253Y0227680D01*
X0101751Y0228015D01*
X0101194Y0228246D01*
X0100602Y0228364D01*
X0100300Y0228364D01*
X0099998Y0228364D01*
X0099406Y0228246D01*
X0098849Y0228015D01*
X0098347Y0227680D01*
X0097920Y0227253D01*
X0097585Y0226751D01*
X0097354Y0226194D01*
X0097236Y0225602D01*
X0097236Y0225300D01*
X0097236Y0224998D01*
X0097354Y0224406D01*
X0097585Y0223849D01*
X0097920Y0223347D01*
X0098347Y0222920D01*
X0098849Y0222585D01*
X0099406Y0222354D01*
X0099998Y0222236D01*
X0100300Y0222236D01*
X0100602Y0222236D01*
X0101194Y0222354D01*
X0100300Y0222432D02*
X0100300Y0222432D01*
X0100300Y0222236D02*
X0100300Y0225300D01*
X0103364Y0225300D01*
X0100300Y0225300D01*
X0100300Y0225300D01*
X0100300Y0225300D01*
X0100300Y0228364D01*
X0100300Y0225300D01*
X0100300Y0225300D01*
X0100300Y0225300D01*
X0097236Y0225300D01*
X0100300Y0225300D01*
X0100300Y0222236D01*
X0099218Y0222432D02*
X0079930Y0222432D01*
X0080050Y0222141D02*
X0078794Y0225173D01*
X0076473Y0227494D01*
X0073441Y0228750D01*
X0070159Y0228750D01*
X0067127Y0227494D01*
X0064806Y0225173D01*
X0063550Y0222141D01*
X0063550Y0218859D01*
X0064806Y0215827D01*
X0067127Y0213506D01*
X0070159Y0212250D01*
X0073441Y0212250D01*
X0076473Y0213506D01*
X0078794Y0215827D01*
X0080050Y0218859D01*
X0080050Y0222141D01*
X0080050Y0220833D02*
X0135505Y0220833D01*
X0133906Y0219235D02*
X0080050Y0219235D01*
X0079544Y0217636D02*
X0132308Y0217636D01*
X0130709Y0216038D02*
X0078881Y0216038D01*
X0077406Y0214439D02*
X0129111Y0214439D01*
X0137846Y0208045D02*
X0138263Y0208045D01*
X0138702Y0224030D02*
X0123302Y0224030D01*
X0123864Y0225629D02*
X0143736Y0225629D01*
X0144075Y0227227D02*
X0123525Y0227227D01*
X0120800Y0227227D02*
X0120800Y0227227D01*
X0120800Y0225800D02*
X0120800Y0225800D01*
X0120800Y0222736D01*
X0120800Y0225800D01*
X0120800Y0225800D01*
X0117736Y0225800D01*
X0120800Y0225800D01*
X0120800Y0225629D02*
X0120800Y0225629D01*
X0120800Y0224030D02*
X0120800Y0224030D01*
X0118298Y0224030D02*
X0103090Y0224030D01*
X0103358Y0225629D02*
X0117736Y0225629D01*
X0118075Y0227227D02*
X0102697Y0227227D01*
X0100300Y0227227D02*
X0100300Y0227227D01*
X0100300Y0225629D02*
X0100300Y0225629D01*
X0100300Y0224030D02*
X0100300Y0224030D01*
X0097510Y0224030D02*
X0079267Y0224030D01*
X0078338Y0225629D02*
X0097242Y0225629D01*
X0097903Y0227227D02*
X0076740Y0227227D01*
X0066860Y0227227D02*
X0056084Y0227227D01*
X0056084Y0225629D02*
X0065262Y0225629D01*
X0064333Y0224030D02*
X0056084Y0224030D01*
X0056084Y0222432D02*
X0063670Y0222432D01*
X0063550Y0220833D02*
X0056084Y0220833D01*
X0056084Y0219235D02*
X0063550Y0219235D01*
X0064056Y0217636D02*
X0056084Y0217636D01*
X0056084Y0216038D02*
X0064719Y0216038D01*
X0066194Y0214439D02*
X0056084Y0214439D01*
X0056084Y0212841D02*
X0068733Y0212841D01*
X0056084Y0232023D02*
X0107791Y0232023D01*
X0106679Y0233621D02*
X0056084Y0233621D01*
X0056084Y0235220D02*
X0106779Y0235220D01*
X0135800Y0232023D02*
X0135800Y0232023D01*
X0138334Y0232023D02*
X0143220Y0232023D01*
X0144529Y0230424D02*
X0138864Y0230424D01*
X0146800Y0227227D02*
X0146800Y0227227D01*
X0166300Y0236818D02*
X0166300Y0236818D01*
X0178300Y0256001D02*
X0178300Y0256001D01*
X0194800Y0262395D02*
X0194800Y0262395D01*
X0142000Y0265592D02*
X0056084Y0265592D01*
X0056084Y0267190D02*
X0142000Y0267190D01*
X0199300Y0311948D02*
X0199300Y0311948D01*
X0199300Y0313547D02*
X0199300Y0313547D01*
X0199300Y0315145D02*
X0199300Y0315145D01*
X0199300Y0316744D02*
X0199300Y0316744D01*
X0201157Y0316744D02*
X0326619Y0316744D01*
X0327509Y0315145D02*
X0202256Y0315145D01*
X0200741Y0329532D02*
X0367476Y0329532D01*
X0367476Y0331131D02*
X0356654Y0331131D01*
X0359878Y0332729D02*
X0367476Y0332729D01*
X0367476Y0334328D02*
X0361476Y0334328D01*
X0362537Y0335926D02*
X0367476Y0335926D01*
X0367476Y0337525D02*
X0363302Y0337525D01*
X0363730Y0339123D02*
X0367476Y0339123D01*
X0367476Y0340722D02*
X0363871Y0340722D01*
X0363871Y0342320D02*
X0367391Y0342320D01*
X0367067Y0343919D02*
X0363458Y0343919D01*
X0362873Y0345517D02*
X0366638Y0345517D01*
X0365975Y0347116D02*
X0361950Y0347116D01*
X0360460Y0348714D02*
X0365052Y0348714D01*
X0363791Y0350313D02*
X0358121Y0350313D01*
X0345549Y0334328D02*
X0200476Y0334328D01*
X0201637Y0332729D02*
X0347147Y0332729D01*
X0350372Y0331131D02*
X0201744Y0331131D01*
X0167800Y0214439D02*
X0167800Y0214439D01*
X0060779Y0241614D02*
X0056084Y0241614D01*
X0056084Y0240015D02*
X0059198Y0240015D01*
X0058902Y0238417D02*
X0056084Y0238417D01*
X0056084Y0236818D02*
X0059392Y0236818D01*
X0060476Y0275183D02*
X0056084Y0275183D01*
X0056084Y0276781D02*
X0059146Y0276781D01*
X0058902Y0278380D02*
X0056084Y0278380D01*
X0056084Y0279978D02*
X0059505Y0279978D01*
X0332272Y0315145D02*
X0359005Y0315145D01*
X0358115Y0316744D02*
X0333162Y0316744D01*
X0333037Y0318342D02*
X0358240Y0318342D01*
X0359310Y0319941D02*
X0331967Y0319941D01*
X0349100Y0105740D02*
X0349500Y0105740D01*
X0349500Y0104142D02*
X0349100Y0104142D01*
X0349100Y0102543D02*
X0349500Y0102543D01*
X0349500Y0101600D02*
X0353887Y0101600D01*
X0353887Y0101439D01*
X0353774Y0100726D01*
X0353551Y0100039D01*
X0353223Y0099396D01*
X0352799Y0098812D01*
X0352288Y0098301D01*
X0351704Y0097877D01*
X0351061Y0097549D01*
X0350374Y0097326D01*
X0349661Y0097213D01*
X0349500Y0097213D01*
X0349500Y0101600D01*
X0349500Y0100945D02*
X0349100Y0100945D01*
X0349100Y0099346D02*
X0349500Y0099346D01*
X0349500Y0097748D02*
X0349100Y0097748D01*
X0350273Y0096149D02*
X0367476Y0096149D01*
X0367476Y0094551D02*
X0352758Y0094551D01*
X0353575Y0092952D02*
X0367476Y0092952D01*
X0367476Y0091354D02*
X0353691Y0091354D01*
X0353205Y0089755D02*
X0367476Y0089755D01*
X0367476Y0088157D02*
X0351866Y0088157D01*
X0355793Y0083361D02*
X0367476Y0083361D01*
X0367476Y0081763D02*
X0356675Y0081763D01*
X0356519Y0080164D02*
X0367476Y0080164D01*
X0367476Y0078566D02*
X0355380Y0078566D01*
X0351452Y0097748D02*
X0367476Y0097748D01*
X0367476Y0099346D02*
X0353188Y0099346D01*
X0353809Y0100945D02*
X0367476Y0100945D01*
X0367476Y0102543D02*
X0353827Y0102543D01*
X0353255Y0104142D02*
X0367476Y0104142D01*
X0367476Y0105740D02*
X0351671Y0105740D01*
D19*
X0321800Y0106800D03*
X0313300Y0127800D03*
X0313300Y0142800D03*
X0313300Y0157800D03*
X0319300Y0177800D03*
X0331800Y0180300D03*
X0301800Y0231800D03*
X0301800Y0241800D03*
X0301800Y0251800D03*
X0301800Y0261800D03*
X0314300Y0288800D03*
X0254300Y0231550D03*
X0262800Y0223050D03*
X0208800Y0220300D03*
X0202300Y0217300D03*
X0194800Y0217300D03*
X0194800Y0228800D03*
X0194800Y0234800D03*
X0201300Y0245800D03*
X0194800Y0249300D03*
X0194800Y0260800D03*
X0207300Y0253800D03*
X0178300Y0254800D03*
X0170800Y0260800D03*
X0166300Y0238300D03*
X0165300Y0230300D03*
X0171300Y0230300D03*
X0165300Y0222800D03*
X0167800Y0216300D03*
X0146800Y0225800D03*
X0135800Y0230300D03*
X0120800Y0225800D03*
X0100300Y0225300D03*
X0101800Y0245300D03*
X0108300Y0272800D03*
X0104800Y0280300D03*
X0094800Y0274300D03*
X0114800Y0299300D03*
X0111300Y0331800D03*
X0198800Y0331800D03*
X0199300Y0314300D03*
X0154300Y0158800D03*
X0154300Y0152800D03*
X0154300Y0146800D03*
X0146800Y0146800D03*
X0146800Y0152800D03*
X0146800Y0158800D03*
X0166800Y0116800D03*
X0186800Y0103800D03*
X0192800Y0102800D03*
X0205800Y0102800D03*
X0193800Y0083800D03*
X0252800Y0081800D03*
X0274300Y0109300D03*
X0261300Y0146800D03*
X0246800Y0154300D03*
X0236800Y0154300D03*
X0226800Y0154300D03*
X0115300Y0101300D03*
X0114300Y0092800D03*
X0095800Y0116800D03*
X0080800Y0142300D03*
X0074300Y0142300D03*
X0074300Y0148300D03*
X0074300Y0154300D03*
X0080800Y0154300D03*
X0080800Y0148300D03*
D20*
X0121800Y0186800D03*
X0126800Y0191800D03*
X0136300Y0205800D03*
X0139800Y0210300D03*
X0145800Y0232800D03*
X0124300Y0256800D03*
X0129300Y0261800D03*
X0129300Y0272300D03*
X0151800Y0287800D03*
X0151800Y0297300D03*
X0139300Y0300300D03*
X0134300Y0302800D03*
X0166800Y0304300D03*
X0171800Y0302800D03*
X0181300Y0303800D03*
X0198300Y0306300D03*
X0224800Y0292300D03*
X0233300Y0297300D03*
X0271454Y0271300D03*
X0270954Y0261800D03*
X0270954Y0251800D03*
X0270954Y0241800D03*
X0254300Y0236800D03*
X0254300Y0246800D03*
X0254300Y0256800D03*
X0233300Y0249300D03*
X0230300Y0236800D03*
X0233300Y0231300D03*
X0239300Y0227800D03*
X0244300Y0225800D03*
X0227300Y0219800D03*
X0224300Y0215300D03*
X0259300Y0201800D03*
X0270550Y0224300D03*
X0279300Y0224300D03*
X0288050Y0224300D03*
X0296800Y0224300D03*
X0274300Y0161800D03*
X0265550Y0156800D03*
X0269300Y0149300D03*
X0274300Y0136800D03*
X0274300Y0124300D03*
X0251800Y0126800D03*
X0241800Y0126800D03*
X0231800Y0126800D03*
X0221800Y0126800D03*
X0109300Y0234300D03*
X0114300Y0239300D03*
X0084300Y0281800D03*
D21*
X0140300Y0222800D02*
X0165300Y0222800D01*
X0140300Y0222800D02*
X0109400Y0191900D01*
X0090400Y0191900D01*
M02*
