G75*
%MOIN*%
%OFA0B0*%
%FSLAX25Y25*%
%IPPOS*%
%LPD*%
%AMOC8*
5,1,8,0,0,1.08239X$1,22.5*
%
%ADD10C,0.00000*%
%ADD11C,0.00700*%
%ADD12C,0.05315*%
%ADD13C,0.09449*%
%ADD14C,0.06000*%
%ADD15C,0.02953*%
%ADD16C,0.02362*%
%ADD17C,0.01600*%
D10*
X0050748Y0080383D02*
X0243661Y0080383D01*
X0237755Y0096131D02*
X0237757Y0096284D01*
X0237763Y0096438D01*
X0237773Y0096591D01*
X0237787Y0096743D01*
X0237805Y0096896D01*
X0237827Y0097047D01*
X0237852Y0097198D01*
X0237882Y0097349D01*
X0237916Y0097499D01*
X0237953Y0097647D01*
X0237994Y0097795D01*
X0238039Y0097941D01*
X0238088Y0098087D01*
X0238141Y0098231D01*
X0238197Y0098373D01*
X0238257Y0098514D01*
X0238321Y0098654D01*
X0238388Y0098792D01*
X0238459Y0098928D01*
X0238534Y0099062D01*
X0238611Y0099194D01*
X0238693Y0099324D01*
X0238777Y0099452D01*
X0238865Y0099578D01*
X0238956Y0099701D01*
X0239050Y0099822D01*
X0239148Y0099940D01*
X0239248Y0100056D01*
X0239352Y0100169D01*
X0239458Y0100280D01*
X0239567Y0100388D01*
X0239679Y0100493D01*
X0239793Y0100594D01*
X0239911Y0100693D01*
X0240030Y0100789D01*
X0240152Y0100882D01*
X0240277Y0100971D01*
X0240404Y0101058D01*
X0240533Y0101140D01*
X0240664Y0101220D01*
X0240797Y0101296D01*
X0240932Y0101369D01*
X0241069Y0101438D01*
X0241208Y0101503D01*
X0241348Y0101565D01*
X0241490Y0101623D01*
X0241633Y0101678D01*
X0241778Y0101729D01*
X0241924Y0101776D01*
X0242071Y0101819D01*
X0242219Y0101858D01*
X0242368Y0101894D01*
X0242518Y0101925D01*
X0242669Y0101953D01*
X0242820Y0101977D01*
X0242973Y0101997D01*
X0243125Y0102013D01*
X0243278Y0102025D01*
X0243431Y0102033D01*
X0243584Y0102037D01*
X0243738Y0102037D01*
X0243891Y0102033D01*
X0244044Y0102025D01*
X0244197Y0102013D01*
X0244349Y0101997D01*
X0244502Y0101977D01*
X0244653Y0101953D01*
X0244804Y0101925D01*
X0244954Y0101894D01*
X0245103Y0101858D01*
X0245251Y0101819D01*
X0245398Y0101776D01*
X0245544Y0101729D01*
X0245689Y0101678D01*
X0245832Y0101623D01*
X0245974Y0101565D01*
X0246114Y0101503D01*
X0246253Y0101438D01*
X0246390Y0101369D01*
X0246525Y0101296D01*
X0246658Y0101220D01*
X0246789Y0101140D01*
X0246918Y0101058D01*
X0247045Y0100971D01*
X0247170Y0100882D01*
X0247292Y0100789D01*
X0247411Y0100693D01*
X0247529Y0100594D01*
X0247643Y0100493D01*
X0247755Y0100388D01*
X0247864Y0100280D01*
X0247970Y0100169D01*
X0248074Y0100056D01*
X0248174Y0099940D01*
X0248272Y0099822D01*
X0248366Y0099701D01*
X0248457Y0099578D01*
X0248545Y0099452D01*
X0248629Y0099324D01*
X0248711Y0099194D01*
X0248788Y0099062D01*
X0248863Y0098928D01*
X0248934Y0098792D01*
X0249001Y0098654D01*
X0249065Y0098514D01*
X0249125Y0098373D01*
X0249181Y0098231D01*
X0249234Y0098087D01*
X0249283Y0097941D01*
X0249328Y0097795D01*
X0249369Y0097647D01*
X0249406Y0097499D01*
X0249440Y0097349D01*
X0249470Y0097198D01*
X0249495Y0097047D01*
X0249517Y0096896D01*
X0249535Y0096743D01*
X0249549Y0096591D01*
X0249559Y0096438D01*
X0249565Y0096284D01*
X0249567Y0096131D01*
X0249565Y0095978D01*
X0249559Y0095824D01*
X0249549Y0095671D01*
X0249535Y0095519D01*
X0249517Y0095366D01*
X0249495Y0095215D01*
X0249470Y0095064D01*
X0249440Y0094913D01*
X0249406Y0094763D01*
X0249369Y0094615D01*
X0249328Y0094467D01*
X0249283Y0094321D01*
X0249234Y0094175D01*
X0249181Y0094031D01*
X0249125Y0093889D01*
X0249065Y0093748D01*
X0249001Y0093608D01*
X0248934Y0093470D01*
X0248863Y0093334D01*
X0248788Y0093200D01*
X0248711Y0093068D01*
X0248629Y0092938D01*
X0248545Y0092810D01*
X0248457Y0092684D01*
X0248366Y0092561D01*
X0248272Y0092440D01*
X0248174Y0092322D01*
X0248074Y0092206D01*
X0247970Y0092093D01*
X0247864Y0091982D01*
X0247755Y0091874D01*
X0247643Y0091769D01*
X0247529Y0091668D01*
X0247411Y0091569D01*
X0247292Y0091473D01*
X0247170Y0091380D01*
X0247045Y0091291D01*
X0246918Y0091204D01*
X0246789Y0091122D01*
X0246658Y0091042D01*
X0246525Y0090966D01*
X0246390Y0090893D01*
X0246253Y0090824D01*
X0246114Y0090759D01*
X0245974Y0090697D01*
X0245832Y0090639D01*
X0245689Y0090584D01*
X0245544Y0090533D01*
X0245398Y0090486D01*
X0245251Y0090443D01*
X0245103Y0090404D01*
X0244954Y0090368D01*
X0244804Y0090337D01*
X0244653Y0090309D01*
X0244502Y0090285D01*
X0244349Y0090265D01*
X0244197Y0090249D01*
X0244044Y0090237D01*
X0243891Y0090229D01*
X0243738Y0090225D01*
X0243584Y0090225D01*
X0243431Y0090229D01*
X0243278Y0090237D01*
X0243125Y0090249D01*
X0242973Y0090265D01*
X0242820Y0090285D01*
X0242669Y0090309D01*
X0242518Y0090337D01*
X0242368Y0090368D01*
X0242219Y0090404D01*
X0242071Y0090443D01*
X0241924Y0090486D01*
X0241778Y0090533D01*
X0241633Y0090584D01*
X0241490Y0090639D01*
X0241348Y0090697D01*
X0241208Y0090759D01*
X0241069Y0090824D01*
X0240932Y0090893D01*
X0240797Y0090966D01*
X0240664Y0091042D01*
X0240533Y0091122D01*
X0240404Y0091204D01*
X0240277Y0091291D01*
X0240152Y0091380D01*
X0240030Y0091473D01*
X0239911Y0091569D01*
X0239793Y0091668D01*
X0239679Y0091769D01*
X0239567Y0091874D01*
X0239458Y0091982D01*
X0239352Y0092093D01*
X0239248Y0092206D01*
X0239148Y0092322D01*
X0239050Y0092440D01*
X0238956Y0092561D01*
X0238865Y0092684D01*
X0238777Y0092810D01*
X0238693Y0092938D01*
X0238611Y0093068D01*
X0238534Y0093200D01*
X0238459Y0093334D01*
X0238388Y0093470D01*
X0238321Y0093608D01*
X0238257Y0093748D01*
X0238197Y0093889D01*
X0238141Y0094031D01*
X0238088Y0094175D01*
X0238039Y0094321D01*
X0237994Y0094467D01*
X0237953Y0094615D01*
X0237916Y0094763D01*
X0237882Y0094913D01*
X0237852Y0095064D01*
X0237827Y0095215D01*
X0237805Y0095366D01*
X0237787Y0095519D01*
X0237773Y0095671D01*
X0237763Y0095824D01*
X0237757Y0095978D01*
X0237755Y0096131D01*
X0243661Y0080383D02*
X0244042Y0080388D01*
X0244422Y0080401D01*
X0244802Y0080424D01*
X0245181Y0080457D01*
X0245559Y0080498D01*
X0245936Y0080548D01*
X0246312Y0080608D01*
X0246687Y0080676D01*
X0247059Y0080754D01*
X0247430Y0080841D01*
X0247798Y0080936D01*
X0248164Y0081041D01*
X0248527Y0081154D01*
X0248888Y0081276D01*
X0249245Y0081406D01*
X0249599Y0081546D01*
X0249950Y0081693D01*
X0250297Y0081850D01*
X0250640Y0082014D01*
X0250979Y0082187D01*
X0251314Y0082368D01*
X0251645Y0082557D01*
X0251970Y0082754D01*
X0252291Y0082958D01*
X0252607Y0083171D01*
X0252917Y0083391D01*
X0253223Y0083618D01*
X0253522Y0083853D01*
X0253816Y0084095D01*
X0254104Y0084343D01*
X0254386Y0084599D01*
X0254661Y0084862D01*
X0254930Y0085131D01*
X0255193Y0085406D01*
X0255449Y0085688D01*
X0255697Y0085976D01*
X0255939Y0086270D01*
X0256174Y0086569D01*
X0256401Y0086875D01*
X0256621Y0087185D01*
X0256834Y0087501D01*
X0257038Y0087822D01*
X0257235Y0088147D01*
X0257424Y0088478D01*
X0257605Y0088813D01*
X0257778Y0089152D01*
X0257942Y0089495D01*
X0258099Y0089842D01*
X0258246Y0090193D01*
X0258386Y0090547D01*
X0258516Y0090904D01*
X0258638Y0091265D01*
X0258751Y0091628D01*
X0258856Y0091994D01*
X0258951Y0092362D01*
X0259038Y0092733D01*
X0259116Y0093105D01*
X0259184Y0093480D01*
X0259244Y0093856D01*
X0259294Y0094233D01*
X0259335Y0094611D01*
X0259368Y0094990D01*
X0259391Y0095370D01*
X0259404Y0095750D01*
X0259409Y0096131D01*
X0259409Y0226052D01*
X0237755Y0226052D02*
X0237757Y0226205D01*
X0237763Y0226359D01*
X0237773Y0226512D01*
X0237787Y0226664D01*
X0237805Y0226817D01*
X0237827Y0226968D01*
X0237852Y0227119D01*
X0237882Y0227270D01*
X0237916Y0227420D01*
X0237953Y0227568D01*
X0237994Y0227716D01*
X0238039Y0227862D01*
X0238088Y0228008D01*
X0238141Y0228152D01*
X0238197Y0228294D01*
X0238257Y0228435D01*
X0238321Y0228575D01*
X0238388Y0228713D01*
X0238459Y0228849D01*
X0238534Y0228983D01*
X0238611Y0229115D01*
X0238693Y0229245D01*
X0238777Y0229373D01*
X0238865Y0229499D01*
X0238956Y0229622D01*
X0239050Y0229743D01*
X0239148Y0229861D01*
X0239248Y0229977D01*
X0239352Y0230090D01*
X0239458Y0230201D01*
X0239567Y0230309D01*
X0239679Y0230414D01*
X0239793Y0230515D01*
X0239911Y0230614D01*
X0240030Y0230710D01*
X0240152Y0230803D01*
X0240277Y0230892D01*
X0240404Y0230979D01*
X0240533Y0231061D01*
X0240664Y0231141D01*
X0240797Y0231217D01*
X0240932Y0231290D01*
X0241069Y0231359D01*
X0241208Y0231424D01*
X0241348Y0231486D01*
X0241490Y0231544D01*
X0241633Y0231599D01*
X0241778Y0231650D01*
X0241924Y0231697D01*
X0242071Y0231740D01*
X0242219Y0231779D01*
X0242368Y0231815D01*
X0242518Y0231846D01*
X0242669Y0231874D01*
X0242820Y0231898D01*
X0242973Y0231918D01*
X0243125Y0231934D01*
X0243278Y0231946D01*
X0243431Y0231954D01*
X0243584Y0231958D01*
X0243738Y0231958D01*
X0243891Y0231954D01*
X0244044Y0231946D01*
X0244197Y0231934D01*
X0244349Y0231918D01*
X0244502Y0231898D01*
X0244653Y0231874D01*
X0244804Y0231846D01*
X0244954Y0231815D01*
X0245103Y0231779D01*
X0245251Y0231740D01*
X0245398Y0231697D01*
X0245544Y0231650D01*
X0245689Y0231599D01*
X0245832Y0231544D01*
X0245974Y0231486D01*
X0246114Y0231424D01*
X0246253Y0231359D01*
X0246390Y0231290D01*
X0246525Y0231217D01*
X0246658Y0231141D01*
X0246789Y0231061D01*
X0246918Y0230979D01*
X0247045Y0230892D01*
X0247170Y0230803D01*
X0247292Y0230710D01*
X0247411Y0230614D01*
X0247529Y0230515D01*
X0247643Y0230414D01*
X0247755Y0230309D01*
X0247864Y0230201D01*
X0247970Y0230090D01*
X0248074Y0229977D01*
X0248174Y0229861D01*
X0248272Y0229743D01*
X0248366Y0229622D01*
X0248457Y0229499D01*
X0248545Y0229373D01*
X0248629Y0229245D01*
X0248711Y0229115D01*
X0248788Y0228983D01*
X0248863Y0228849D01*
X0248934Y0228713D01*
X0249001Y0228575D01*
X0249065Y0228435D01*
X0249125Y0228294D01*
X0249181Y0228152D01*
X0249234Y0228008D01*
X0249283Y0227862D01*
X0249328Y0227716D01*
X0249369Y0227568D01*
X0249406Y0227420D01*
X0249440Y0227270D01*
X0249470Y0227119D01*
X0249495Y0226968D01*
X0249517Y0226817D01*
X0249535Y0226664D01*
X0249549Y0226512D01*
X0249559Y0226359D01*
X0249565Y0226205D01*
X0249567Y0226052D01*
X0249565Y0225899D01*
X0249559Y0225745D01*
X0249549Y0225592D01*
X0249535Y0225440D01*
X0249517Y0225287D01*
X0249495Y0225136D01*
X0249470Y0224985D01*
X0249440Y0224834D01*
X0249406Y0224684D01*
X0249369Y0224536D01*
X0249328Y0224388D01*
X0249283Y0224242D01*
X0249234Y0224096D01*
X0249181Y0223952D01*
X0249125Y0223810D01*
X0249065Y0223669D01*
X0249001Y0223529D01*
X0248934Y0223391D01*
X0248863Y0223255D01*
X0248788Y0223121D01*
X0248711Y0222989D01*
X0248629Y0222859D01*
X0248545Y0222731D01*
X0248457Y0222605D01*
X0248366Y0222482D01*
X0248272Y0222361D01*
X0248174Y0222243D01*
X0248074Y0222127D01*
X0247970Y0222014D01*
X0247864Y0221903D01*
X0247755Y0221795D01*
X0247643Y0221690D01*
X0247529Y0221589D01*
X0247411Y0221490D01*
X0247292Y0221394D01*
X0247170Y0221301D01*
X0247045Y0221212D01*
X0246918Y0221125D01*
X0246789Y0221043D01*
X0246658Y0220963D01*
X0246525Y0220887D01*
X0246390Y0220814D01*
X0246253Y0220745D01*
X0246114Y0220680D01*
X0245974Y0220618D01*
X0245832Y0220560D01*
X0245689Y0220505D01*
X0245544Y0220454D01*
X0245398Y0220407D01*
X0245251Y0220364D01*
X0245103Y0220325D01*
X0244954Y0220289D01*
X0244804Y0220258D01*
X0244653Y0220230D01*
X0244502Y0220206D01*
X0244349Y0220186D01*
X0244197Y0220170D01*
X0244044Y0220158D01*
X0243891Y0220150D01*
X0243738Y0220146D01*
X0243584Y0220146D01*
X0243431Y0220150D01*
X0243278Y0220158D01*
X0243125Y0220170D01*
X0242973Y0220186D01*
X0242820Y0220206D01*
X0242669Y0220230D01*
X0242518Y0220258D01*
X0242368Y0220289D01*
X0242219Y0220325D01*
X0242071Y0220364D01*
X0241924Y0220407D01*
X0241778Y0220454D01*
X0241633Y0220505D01*
X0241490Y0220560D01*
X0241348Y0220618D01*
X0241208Y0220680D01*
X0241069Y0220745D01*
X0240932Y0220814D01*
X0240797Y0220887D01*
X0240664Y0220963D01*
X0240533Y0221043D01*
X0240404Y0221125D01*
X0240277Y0221212D01*
X0240152Y0221301D01*
X0240030Y0221394D01*
X0239911Y0221490D01*
X0239793Y0221589D01*
X0239679Y0221690D01*
X0239567Y0221795D01*
X0239458Y0221903D01*
X0239352Y0222014D01*
X0239248Y0222127D01*
X0239148Y0222243D01*
X0239050Y0222361D01*
X0238956Y0222482D01*
X0238865Y0222605D01*
X0238777Y0222731D01*
X0238693Y0222859D01*
X0238611Y0222989D01*
X0238534Y0223121D01*
X0238459Y0223255D01*
X0238388Y0223391D01*
X0238321Y0223529D01*
X0238257Y0223669D01*
X0238197Y0223810D01*
X0238141Y0223952D01*
X0238088Y0224096D01*
X0238039Y0224242D01*
X0237994Y0224388D01*
X0237953Y0224536D01*
X0237916Y0224684D01*
X0237882Y0224834D01*
X0237852Y0224985D01*
X0237827Y0225136D01*
X0237805Y0225287D01*
X0237787Y0225440D01*
X0237773Y0225592D01*
X0237763Y0225745D01*
X0237757Y0225899D01*
X0237755Y0226052D01*
X0243661Y0241800D02*
X0244042Y0241795D01*
X0244422Y0241782D01*
X0244802Y0241759D01*
X0245181Y0241726D01*
X0245559Y0241685D01*
X0245936Y0241635D01*
X0246312Y0241575D01*
X0246687Y0241507D01*
X0247059Y0241429D01*
X0247430Y0241342D01*
X0247798Y0241247D01*
X0248164Y0241142D01*
X0248527Y0241029D01*
X0248888Y0240907D01*
X0249245Y0240777D01*
X0249599Y0240637D01*
X0249950Y0240490D01*
X0250297Y0240333D01*
X0250640Y0240169D01*
X0250979Y0239996D01*
X0251314Y0239815D01*
X0251645Y0239626D01*
X0251970Y0239429D01*
X0252291Y0239225D01*
X0252607Y0239012D01*
X0252917Y0238792D01*
X0253223Y0238565D01*
X0253522Y0238330D01*
X0253816Y0238088D01*
X0254104Y0237840D01*
X0254386Y0237584D01*
X0254661Y0237321D01*
X0254930Y0237052D01*
X0255193Y0236777D01*
X0255449Y0236495D01*
X0255697Y0236207D01*
X0255939Y0235913D01*
X0256174Y0235614D01*
X0256401Y0235308D01*
X0256621Y0234998D01*
X0256834Y0234682D01*
X0257038Y0234361D01*
X0257235Y0234036D01*
X0257424Y0233705D01*
X0257605Y0233370D01*
X0257778Y0233031D01*
X0257942Y0232688D01*
X0258099Y0232341D01*
X0258246Y0231990D01*
X0258386Y0231636D01*
X0258516Y0231279D01*
X0258638Y0230918D01*
X0258751Y0230555D01*
X0258856Y0230189D01*
X0258951Y0229821D01*
X0259038Y0229450D01*
X0259116Y0229078D01*
X0259184Y0228703D01*
X0259244Y0228327D01*
X0259294Y0227950D01*
X0259335Y0227572D01*
X0259368Y0227193D01*
X0259391Y0226813D01*
X0259404Y0226433D01*
X0259409Y0226052D01*
X0243661Y0241800D02*
X0050748Y0241800D01*
X0044842Y0226052D02*
X0044844Y0226205D01*
X0044850Y0226359D01*
X0044860Y0226512D01*
X0044874Y0226664D01*
X0044892Y0226817D01*
X0044914Y0226968D01*
X0044939Y0227119D01*
X0044969Y0227270D01*
X0045003Y0227420D01*
X0045040Y0227568D01*
X0045081Y0227716D01*
X0045126Y0227862D01*
X0045175Y0228008D01*
X0045228Y0228152D01*
X0045284Y0228294D01*
X0045344Y0228435D01*
X0045408Y0228575D01*
X0045475Y0228713D01*
X0045546Y0228849D01*
X0045621Y0228983D01*
X0045698Y0229115D01*
X0045780Y0229245D01*
X0045864Y0229373D01*
X0045952Y0229499D01*
X0046043Y0229622D01*
X0046137Y0229743D01*
X0046235Y0229861D01*
X0046335Y0229977D01*
X0046439Y0230090D01*
X0046545Y0230201D01*
X0046654Y0230309D01*
X0046766Y0230414D01*
X0046880Y0230515D01*
X0046998Y0230614D01*
X0047117Y0230710D01*
X0047239Y0230803D01*
X0047364Y0230892D01*
X0047491Y0230979D01*
X0047620Y0231061D01*
X0047751Y0231141D01*
X0047884Y0231217D01*
X0048019Y0231290D01*
X0048156Y0231359D01*
X0048295Y0231424D01*
X0048435Y0231486D01*
X0048577Y0231544D01*
X0048720Y0231599D01*
X0048865Y0231650D01*
X0049011Y0231697D01*
X0049158Y0231740D01*
X0049306Y0231779D01*
X0049455Y0231815D01*
X0049605Y0231846D01*
X0049756Y0231874D01*
X0049907Y0231898D01*
X0050060Y0231918D01*
X0050212Y0231934D01*
X0050365Y0231946D01*
X0050518Y0231954D01*
X0050671Y0231958D01*
X0050825Y0231958D01*
X0050978Y0231954D01*
X0051131Y0231946D01*
X0051284Y0231934D01*
X0051436Y0231918D01*
X0051589Y0231898D01*
X0051740Y0231874D01*
X0051891Y0231846D01*
X0052041Y0231815D01*
X0052190Y0231779D01*
X0052338Y0231740D01*
X0052485Y0231697D01*
X0052631Y0231650D01*
X0052776Y0231599D01*
X0052919Y0231544D01*
X0053061Y0231486D01*
X0053201Y0231424D01*
X0053340Y0231359D01*
X0053477Y0231290D01*
X0053612Y0231217D01*
X0053745Y0231141D01*
X0053876Y0231061D01*
X0054005Y0230979D01*
X0054132Y0230892D01*
X0054257Y0230803D01*
X0054379Y0230710D01*
X0054498Y0230614D01*
X0054616Y0230515D01*
X0054730Y0230414D01*
X0054842Y0230309D01*
X0054951Y0230201D01*
X0055057Y0230090D01*
X0055161Y0229977D01*
X0055261Y0229861D01*
X0055359Y0229743D01*
X0055453Y0229622D01*
X0055544Y0229499D01*
X0055632Y0229373D01*
X0055716Y0229245D01*
X0055798Y0229115D01*
X0055875Y0228983D01*
X0055950Y0228849D01*
X0056021Y0228713D01*
X0056088Y0228575D01*
X0056152Y0228435D01*
X0056212Y0228294D01*
X0056268Y0228152D01*
X0056321Y0228008D01*
X0056370Y0227862D01*
X0056415Y0227716D01*
X0056456Y0227568D01*
X0056493Y0227420D01*
X0056527Y0227270D01*
X0056557Y0227119D01*
X0056582Y0226968D01*
X0056604Y0226817D01*
X0056622Y0226664D01*
X0056636Y0226512D01*
X0056646Y0226359D01*
X0056652Y0226205D01*
X0056654Y0226052D01*
X0056652Y0225899D01*
X0056646Y0225745D01*
X0056636Y0225592D01*
X0056622Y0225440D01*
X0056604Y0225287D01*
X0056582Y0225136D01*
X0056557Y0224985D01*
X0056527Y0224834D01*
X0056493Y0224684D01*
X0056456Y0224536D01*
X0056415Y0224388D01*
X0056370Y0224242D01*
X0056321Y0224096D01*
X0056268Y0223952D01*
X0056212Y0223810D01*
X0056152Y0223669D01*
X0056088Y0223529D01*
X0056021Y0223391D01*
X0055950Y0223255D01*
X0055875Y0223121D01*
X0055798Y0222989D01*
X0055716Y0222859D01*
X0055632Y0222731D01*
X0055544Y0222605D01*
X0055453Y0222482D01*
X0055359Y0222361D01*
X0055261Y0222243D01*
X0055161Y0222127D01*
X0055057Y0222014D01*
X0054951Y0221903D01*
X0054842Y0221795D01*
X0054730Y0221690D01*
X0054616Y0221589D01*
X0054498Y0221490D01*
X0054379Y0221394D01*
X0054257Y0221301D01*
X0054132Y0221212D01*
X0054005Y0221125D01*
X0053876Y0221043D01*
X0053745Y0220963D01*
X0053612Y0220887D01*
X0053477Y0220814D01*
X0053340Y0220745D01*
X0053201Y0220680D01*
X0053061Y0220618D01*
X0052919Y0220560D01*
X0052776Y0220505D01*
X0052631Y0220454D01*
X0052485Y0220407D01*
X0052338Y0220364D01*
X0052190Y0220325D01*
X0052041Y0220289D01*
X0051891Y0220258D01*
X0051740Y0220230D01*
X0051589Y0220206D01*
X0051436Y0220186D01*
X0051284Y0220170D01*
X0051131Y0220158D01*
X0050978Y0220150D01*
X0050825Y0220146D01*
X0050671Y0220146D01*
X0050518Y0220150D01*
X0050365Y0220158D01*
X0050212Y0220170D01*
X0050060Y0220186D01*
X0049907Y0220206D01*
X0049756Y0220230D01*
X0049605Y0220258D01*
X0049455Y0220289D01*
X0049306Y0220325D01*
X0049158Y0220364D01*
X0049011Y0220407D01*
X0048865Y0220454D01*
X0048720Y0220505D01*
X0048577Y0220560D01*
X0048435Y0220618D01*
X0048295Y0220680D01*
X0048156Y0220745D01*
X0048019Y0220814D01*
X0047884Y0220887D01*
X0047751Y0220963D01*
X0047620Y0221043D01*
X0047491Y0221125D01*
X0047364Y0221212D01*
X0047239Y0221301D01*
X0047117Y0221394D01*
X0046998Y0221490D01*
X0046880Y0221589D01*
X0046766Y0221690D01*
X0046654Y0221795D01*
X0046545Y0221903D01*
X0046439Y0222014D01*
X0046335Y0222127D01*
X0046235Y0222243D01*
X0046137Y0222361D01*
X0046043Y0222482D01*
X0045952Y0222605D01*
X0045864Y0222731D01*
X0045780Y0222859D01*
X0045698Y0222989D01*
X0045621Y0223121D01*
X0045546Y0223255D01*
X0045475Y0223391D01*
X0045408Y0223529D01*
X0045344Y0223669D01*
X0045284Y0223810D01*
X0045228Y0223952D01*
X0045175Y0224096D01*
X0045126Y0224242D01*
X0045081Y0224388D01*
X0045040Y0224536D01*
X0045003Y0224684D01*
X0044969Y0224834D01*
X0044939Y0224985D01*
X0044914Y0225136D01*
X0044892Y0225287D01*
X0044874Y0225440D01*
X0044860Y0225592D01*
X0044850Y0225745D01*
X0044844Y0225899D01*
X0044842Y0226052D01*
X0035000Y0226052D02*
X0035005Y0226433D01*
X0035018Y0226813D01*
X0035041Y0227193D01*
X0035074Y0227572D01*
X0035115Y0227950D01*
X0035165Y0228327D01*
X0035225Y0228703D01*
X0035293Y0229078D01*
X0035371Y0229450D01*
X0035458Y0229821D01*
X0035553Y0230189D01*
X0035658Y0230555D01*
X0035771Y0230918D01*
X0035893Y0231279D01*
X0036023Y0231636D01*
X0036163Y0231990D01*
X0036310Y0232341D01*
X0036467Y0232688D01*
X0036631Y0233031D01*
X0036804Y0233370D01*
X0036985Y0233705D01*
X0037174Y0234036D01*
X0037371Y0234361D01*
X0037575Y0234682D01*
X0037788Y0234998D01*
X0038008Y0235308D01*
X0038235Y0235614D01*
X0038470Y0235913D01*
X0038712Y0236207D01*
X0038960Y0236495D01*
X0039216Y0236777D01*
X0039479Y0237052D01*
X0039748Y0237321D01*
X0040023Y0237584D01*
X0040305Y0237840D01*
X0040593Y0238088D01*
X0040887Y0238330D01*
X0041186Y0238565D01*
X0041492Y0238792D01*
X0041802Y0239012D01*
X0042118Y0239225D01*
X0042439Y0239429D01*
X0042764Y0239626D01*
X0043095Y0239815D01*
X0043430Y0239996D01*
X0043769Y0240169D01*
X0044112Y0240333D01*
X0044459Y0240490D01*
X0044810Y0240637D01*
X0045164Y0240777D01*
X0045521Y0240907D01*
X0045882Y0241029D01*
X0046245Y0241142D01*
X0046611Y0241247D01*
X0046979Y0241342D01*
X0047350Y0241429D01*
X0047722Y0241507D01*
X0048097Y0241575D01*
X0048473Y0241635D01*
X0048850Y0241685D01*
X0049228Y0241726D01*
X0049607Y0241759D01*
X0049987Y0241782D01*
X0050367Y0241795D01*
X0050748Y0241800D01*
X0035000Y0226052D02*
X0035000Y0096131D01*
X0044842Y0096131D02*
X0044844Y0096284D01*
X0044850Y0096438D01*
X0044860Y0096591D01*
X0044874Y0096743D01*
X0044892Y0096896D01*
X0044914Y0097047D01*
X0044939Y0097198D01*
X0044969Y0097349D01*
X0045003Y0097499D01*
X0045040Y0097647D01*
X0045081Y0097795D01*
X0045126Y0097941D01*
X0045175Y0098087D01*
X0045228Y0098231D01*
X0045284Y0098373D01*
X0045344Y0098514D01*
X0045408Y0098654D01*
X0045475Y0098792D01*
X0045546Y0098928D01*
X0045621Y0099062D01*
X0045698Y0099194D01*
X0045780Y0099324D01*
X0045864Y0099452D01*
X0045952Y0099578D01*
X0046043Y0099701D01*
X0046137Y0099822D01*
X0046235Y0099940D01*
X0046335Y0100056D01*
X0046439Y0100169D01*
X0046545Y0100280D01*
X0046654Y0100388D01*
X0046766Y0100493D01*
X0046880Y0100594D01*
X0046998Y0100693D01*
X0047117Y0100789D01*
X0047239Y0100882D01*
X0047364Y0100971D01*
X0047491Y0101058D01*
X0047620Y0101140D01*
X0047751Y0101220D01*
X0047884Y0101296D01*
X0048019Y0101369D01*
X0048156Y0101438D01*
X0048295Y0101503D01*
X0048435Y0101565D01*
X0048577Y0101623D01*
X0048720Y0101678D01*
X0048865Y0101729D01*
X0049011Y0101776D01*
X0049158Y0101819D01*
X0049306Y0101858D01*
X0049455Y0101894D01*
X0049605Y0101925D01*
X0049756Y0101953D01*
X0049907Y0101977D01*
X0050060Y0101997D01*
X0050212Y0102013D01*
X0050365Y0102025D01*
X0050518Y0102033D01*
X0050671Y0102037D01*
X0050825Y0102037D01*
X0050978Y0102033D01*
X0051131Y0102025D01*
X0051284Y0102013D01*
X0051436Y0101997D01*
X0051589Y0101977D01*
X0051740Y0101953D01*
X0051891Y0101925D01*
X0052041Y0101894D01*
X0052190Y0101858D01*
X0052338Y0101819D01*
X0052485Y0101776D01*
X0052631Y0101729D01*
X0052776Y0101678D01*
X0052919Y0101623D01*
X0053061Y0101565D01*
X0053201Y0101503D01*
X0053340Y0101438D01*
X0053477Y0101369D01*
X0053612Y0101296D01*
X0053745Y0101220D01*
X0053876Y0101140D01*
X0054005Y0101058D01*
X0054132Y0100971D01*
X0054257Y0100882D01*
X0054379Y0100789D01*
X0054498Y0100693D01*
X0054616Y0100594D01*
X0054730Y0100493D01*
X0054842Y0100388D01*
X0054951Y0100280D01*
X0055057Y0100169D01*
X0055161Y0100056D01*
X0055261Y0099940D01*
X0055359Y0099822D01*
X0055453Y0099701D01*
X0055544Y0099578D01*
X0055632Y0099452D01*
X0055716Y0099324D01*
X0055798Y0099194D01*
X0055875Y0099062D01*
X0055950Y0098928D01*
X0056021Y0098792D01*
X0056088Y0098654D01*
X0056152Y0098514D01*
X0056212Y0098373D01*
X0056268Y0098231D01*
X0056321Y0098087D01*
X0056370Y0097941D01*
X0056415Y0097795D01*
X0056456Y0097647D01*
X0056493Y0097499D01*
X0056527Y0097349D01*
X0056557Y0097198D01*
X0056582Y0097047D01*
X0056604Y0096896D01*
X0056622Y0096743D01*
X0056636Y0096591D01*
X0056646Y0096438D01*
X0056652Y0096284D01*
X0056654Y0096131D01*
X0056652Y0095978D01*
X0056646Y0095824D01*
X0056636Y0095671D01*
X0056622Y0095519D01*
X0056604Y0095366D01*
X0056582Y0095215D01*
X0056557Y0095064D01*
X0056527Y0094913D01*
X0056493Y0094763D01*
X0056456Y0094615D01*
X0056415Y0094467D01*
X0056370Y0094321D01*
X0056321Y0094175D01*
X0056268Y0094031D01*
X0056212Y0093889D01*
X0056152Y0093748D01*
X0056088Y0093608D01*
X0056021Y0093470D01*
X0055950Y0093334D01*
X0055875Y0093200D01*
X0055798Y0093068D01*
X0055716Y0092938D01*
X0055632Y0092810D01*
X0055544Y0092684D01*
X0055453Y0092561D01*
X0055359Y0092440D01*
X0055261Y0092322D01*
X0055161Y0092206D01*
X0055057Y0092093D01*
X0054951Y0091982D01*
X0054842Y0091874D01*
X0054730Y0091769D01*
X0054616Y0091668D01*
X0054498Y0091569D01*
X0054379Y0091473D01*
X0054257Y0091380D01*
X0054132Y0091291D01*
X0054005Y0091204D01*
X0053876Y0091122D01*
X0053745Y0091042D01*
X0053612Y0090966D01*
X0053477Y0090893D01*
X0053340Y0090824D01*
X0053201Y0090759D01*
X0053061Y0090697D01*
X0052919Y0090639D01*
X0052776Y0090584D01*
X0052631Y0090533D01*
X0052485Y0090486D01*
X0052338Y0090443D01*
X0052190Y0090404D01*
X0052041Y0090368D01*
X0051891Y0090337D01*
X0051740Y0090309D01*
X0051589Y0090285D01*
X0051436Y0090265D01*
X0051284Y0090249D01*
X0051131Y0090237D01*
X0050978Y0090229D01*
X0050825Y0090225D01*
X0050671Y0090225D01*
X0050518Y0090229D01*
X0050365Y0090237D01*
X0050212Y0090249D01*
X0050060Y0090265D01*
X0049907Y0090285D01*
X0049756Y0090309D01*
X0049605Y0090337D01*
X0049455Y0090368D01*
X0049306Y0090404D01*
X0049158Y0090443D01*
X0049011Y0090486D01*
X0048865Y0090533D01*
X0048720Y0090584D01*
X0048577Y0090639D01*
X0048435Y0090697D01*
X0048295Y0090759D01*
X0048156Y0090824D01*
X0048019Y0090893D01*
X0047884Y0090966D01*
X0047751Y0091042D01*
X0047620Y0091122D01*
X0047491Y0091204D01*
X0047364Y0091291D01*
X0047239Y0091380D01*
X0047117Y0091473D01*
X0046998Y0091569D01*
X0046880Y0091668D01*
X0046766Y0091769D01*
X0046654Y0091874D01*
X0046545Y0091982D01*
X0046439Y0092093D01*
X0046335Y0092206D01*
X0046235Y0092322D01*
X0046137Y0092440D01*
X0046043Y0092561D01*
X0045952Y0092684D01*
X0045864Y0092810D01*
X0045780Y0092938D01*
X0045698Y0093068D01*
X0045621Y0093200D01*
X0045546Y0093334D01*
X0045475Y0093470D01*
X0045408Y0093608D01*
X0045344Y0093748D01*
X0045284Y0093889D01*
X0045228Y0094031D01*
X0045175Y0094175D01*
X0045126Y0094321D01*
X0045081Y0094467D01*
X0045040Y0094615D01*
X0045003Y0094763D01*
X0044969Y0094913D01*
X0044939Y0095064D01*
X0044914Y0095215D01*
X0044892Y0095366D01*
X0044874Y0095519D01*
X0044860Y0095671D01*
X0044850Y0095824D01*
X0044844Y0095978D01*
X0044842Y0096131D01*
X0035000Y0096131D02*
X0035005Y0095750D01*
X0035018Y0095370D01*
X0035041Y0094990D01*
X0035074Y0094611D01*
X0035115Y0094233D01*
X0035165Y0093856D01*
X0035225Y0093480D01*
X0035293Y0093105D01*
X0035371Y0092733D01*
X0035458Y0092362D01*
X0035553Y0091994D01*
X0035658Y0091628D01*
X0035771Y0091265D01*
X0035893Y0090904D01*
X0036023Y0090547D01*
X0036163Y0090193D01*
X0036310Y0089842D01*
X0036467Y0089495D01*
X0036631Y0089152D01*
X0036804Y0088813D01*
X0036985Y0088478D01*
X0037174Y0088147D01*
X0037371Y0087822D01*
X0037575Y0087501D01*
X0037788Y0087185D01*
X0038008Y0086875D01*
X0038235Y0086569D01*
X0038470Y0086270D01*
X0038712Y0085976D01*
X0038960Y0085688D01*
X0039216Y0085406D01*
X0039479Y0085131D01*
X0039748Y0084862D01*
X0040023Y0084599D01*
X0040305Y0084343D01*
X0040593Y0084095D01*
X0040887Y0083853D01*
X0041186Y0083618D01*
X0041492Y0083391D01*
X0041802Y0083171D01*
X0042118Y0082958D01*
X0042439Y0082754D01*
X0042764Y0082557D01*
X0043095Y0082368D01*
X0043430Y0082187D01*
X0043769Y0082014D01*
X0044112Y0081850D01*
X0044459Y0081693D01*
X0044810Y0081546D01*
X0045164Y0081406D01*
X0045521Y0081276D01*
X0045882Y0081154D01*
X0046245Y0081041D01*
X0046611Y0080936D01*
X0046979Y0080841D01*
X0047350Y0080754D01*
X0047722Y0080676D01*
X0048097Y0080608D01*
X0048473Y0080548D01*
X0048850Y0080498D01*
X0049228Y0080457D01*
X0049607Y0080424D01*
X0049987Y0080401D01*
X0050367Y0080388D01*
X0050748Y0080383D01*
X0210130Y0138594D02*
X0210132Y0138755D01*
X0210138Y0138915D01*
X0210148Y0139076D01*
X0210162Y0139236D01*
X0210180Y0139395D01*
X0210201Y0139555D01*
X0210227Y0139713D01*
X0210257Y0139871D01*
X0210290Y0140028D01*
X0210328Y0140185D01*
X0210369Y0140340D01*
X0210414Y0140494D01*
X0210463Y0140647D01*
X0210516Y0140799D01*
X0210572Y0140949D01*
X0210632Y0141098D01*
X0210696Y0141246D01*
X0210763Y0141392D01*
X0210834Y0141536D01*
X0210909Y0141678D01*
X0210987Y0141819D01*
X0211068Y0141957D01*
X0211153Y0142094D01*
X0211242Y0142228D01*
X0211333Y0142360D01*
X0211428Y0142490D01*
X0211526Y0142617D01*
X0211627Y0142742D01*
X0211731Y0142865D01*
X0211838Y0142984D01*
X0211948Y0143101D01*
X0212061Y0143216D01*
X0212177Y0143327D01*
X0212295Y0143436D01*
X0212416Y0143541D01*
X0212540Y0143644D01*
X0212666Y0143744D01*
X0212795Y0143840D01*
X0212926Y0143933D01*
X0213059Y0144023D01*
X0213194Y0144110D01*
X0213332Y0144193D01*
X0213471Y0144272D01*
X0213613Y0144349D01*
X0213756Y0144422D01*
X0213901Y0144491D01*
X0214048Y0144556D01*
X0214196Y0144618D01*
X0214346Y0144677D01*
X0214497Y0144731D01*
X0214649Y0144782D01*
X0214803Y0144829D01*
X0214958Y0144872D01*
X0215113Y0144911D01*
X0215270Y0144947D01*
X0215428Y0144979D01*
X0215586Y0145006D01*
X0215745Y0145030D01*
X0215904Y0145050D01*
X0216064Y0145066D01*
X0216225Y0145078D01*
X0216385Y0145086D01*
X0216546Y0145090D01*
X0216706Y0145090D01*
X0216867Y0145086D01*
X0217027Y0145078D01*
X0217188Y0145066D01*
X0217348Y0145050D01*
X0217507Y0145030D01*
X0217666Y0145006D01*
X0217824Y0144979D01*
X0217982Y0144947D01*
X0218139Y0144911D01*
X0218294Y0144872D01*
X0218449Y0144829D01*
X0218603Y0144782D01*
X0218755Y0144731D01*
X0218906Y0144677D01*
X0219056Y0144618D01*
X0219204Y0144556D01*
X0219351Y0144491D01*
X0219496Y0144422D01*
X0219639Y0144349D01*
X0219781Y0144272D01*
X0219920Y0144193D01*
X0220058Y0144110D01*
X0220193Y0144023D01*
X0220326Y0143933D01*
X0220457Y0143840D01*
X0220586Y0143744D01*
X0220712Y0143644D01*
X0220836Y0143541D01*
X0220957Y0143436D01*
X0221075Y0143327D01*
X0221191Y0143216D01*
X0221304Y0143101D01*
X0221414Y0142984D01*
X0221521Y0142865D01*
X0221625Y0142742D01*
X0221726Y0142617D01*
X0221824Y0142490D01*
X0221919Y0142360D01*
X0222010Y0142228D01*
X0222099Y0142094D01*
X0222184Y0141957D01*
X0222265Y0141819D01*
X0222343Y0141678D01*
X0222418Y0141536D01*
X0222489Y0141392D01*
X0222556Y0141246D01*
X0222620Y0141098D01*
X0222680Y0140949D01*
X0222736Y0140799D01*
X0222789Y0140647D01*
X0222838Y0140494D01*
X0222883Y0140340D01*
X0222924Y0140185D01*
X0222962Y0140028D01*
X0222995Y0139871D01*
X0223025Y0139713D01*
X0223051Y0139555D01*
X0223072Y0139395D01*
X0223090Y0139236D01*
X0223104Y0139076D01*
X0223114Y0138915D01*
X0223120Y0138755D01*
X0223122Y0138594D01*
X0223120Y0138433D01*
X0223114Y0138273D01*
X0223104Y0138112D01*
X0223090Y0137952D01*
X0223072Y0137793D01*
X0223051Y0137633D01*
X0223025Y0137475D01*
X0222995Y0137317D01*
X0222962Y0137160D01*
X0222924Y0137003D01*
X0222883Y0136848D01*
X0222838Y0136694D01*
X0222789Y0136541D01*
X0222736Y0136389D01*
X0222680Y0136239D01*
X0222620Y0136090D01*
X0222556Y0135942D01*
X0222489Y0135796D01*
X0222418Y0135652D01*
X0222343Y0135510D01*
X0222265Y0135369D01*
X0222184Y0135231D01*
X0222099Y0135094D01*
X0222010Y0134960D01*
X0221919Y0134828D01*
X0221824Y0134698D01*
X0221726Y0134571D01*
X0221625Y0134446D01*
X0221521Y0134323D01*
X0221414Y0134204D01*
X0221304Y0134087D01*
X0221191Y0133972D01*
X0221075Y0133861D01*
X0220957Y0133752D01*
X0220836Y0133647D01*
X0220712Y0133544D01*
X0220586Y0133444D01*
X0220457Y0133348D01*
X0220326Y0133255D01*
X0220193Y0133165D01*
X0220058Y0133078D01*
X0219920Y0132995D01*
X0219781Y0132916D01*
X0219639Y0132839D01*
X0219496Y0132766D01*
X0219351Y0132697D01*
X0219204Y0132632D01*
X0219056Y0132570D01*
X0218906Y0132511D01*
X0218755Y0132457D01*
X0218603Y0132406D01*
X0218449Y0132359D01*
X0218294Y0132316D01*
X0218139Y0132277D01*
X0217982Y0132241D01*
X0217824Y0132209D01*
X0217666Y0132182D01*
X0217507Y0132158D01*
X0217348Y0132138D01*
X0217188Y0132122D01*
X0217027Y0132110D01*
X0216867Y0132102D01*
X0216706Y0132098D01*
X0216546Y0132098D01*
X0216385Y0132102D01*
X0216225Y0132110D01*
X0216064Y0132122D01*
X0215904Y0132138D01*
X0215745Y0132158D01*
X0215586Y0132182D01*
X0215428Y0132209D01*
X0215270Y0132241D01*
X0215113Y0132277D01*
X0214958Y0132316D01*
X0214803Y0132359D01*
X0214649Y0132406D01*
X0214497Y0132457D01*
X0214346Y0132511D01*
X0214196Y0132570D01*
X0214048Y0132632D01*
X0213901Y0132697D01*
X0213756Y0132766D01*
X0213613Y0132839D01*
X0213471Y0132916D01*
X0213332Y0132995D01*
X0213194Y0133078D01*
X0213059Y0133165D01*
X0212926Y0133255D01*
X0212795Y0133348D01*
X0212666Y0133444D01*
X0212540Y0133544D01*
X0212416Y0133647D01*
X0212295Y0133752D01*
X0212177Y0133861D01*
X0212061Y0133972D01*
X0211948Y0134087D01*
X0211838Y0134204D01*
X0211731Y0134323D01*
X0211627Y0134446D01*
X0211526Y0134571D01*
X0211428Y0134698D01*
X0211333Y0134828D01*
X0211242Y0134960D01*
X0211153Y0135094D01*
X0211068Y0135231D01*
X0210987Y0135369D01*
X0210909Y0135510D01*
X0210834Y0135652D01*
X0210763Y0135796D01*
X0210696Y0135942D01*
X0210632Y0136090D01*
X0210572Y0136239D01*
X0210516Y0136389D01*
X0210463Y0136541D01*
X0210414Y0136694D01*
X0210369Y0136848D01*
X0210328Y0137003D01*
X0210290Y0137160D01*
X0210257Y0137317D01*
X0210227Y0137475D01*
X0210201Y0137633D01*
X0210180Y0137793D01*
X0210162Y0137952D01*
X0210148Y0138112D01*
X0210138Y0138273D01*
X0210132Y0138433D01*
X0210130Y0138594D01*
X0210130Y0183594D02*
X0210132Y0183755D01*
X0210138Y0183915D01*
X0210148Y0184076D01*
X0210162Y0184236D01*
X0210180Y0184395D01*
X0210201Y0184555D01*
X0210227Y0184713D01*
X0210257Y0184871D01*
X0210290Y0185028D01*
X0210328Y0185185D01*
X0210369Y0185340D01*
X0210414Y0185494D01*
X0210463Y0185647D01*
X0210516Y0185799D01*
X0210572Y0185949D01*
X0210632Y0186098D01*
X0210696Y0186246D01*
X0210763Y0186392D01*
X0210834Y0186536D01*
X0210909Y0186678D01*
X0210987Y0186819D01*
X0211068Y0186957D01*
X0211153Y0187094D01*
X0211242Y0187228D01*
X0211333Y0187360D01*
X0211428Y0187490D01*
X0211526Y0187617D01*
X0211627Y0187742D01*
X0211731Y0187865D01*
X0211838Y0187984D01*
X0211948Y0188101D01*
X0212061Y0188216D01*
X0212177Y0188327D01*
X0212295Y0188436D01*
X0212416Y0188541D01*
X0212540Y0188644D01*
X0212666Y0188744D01*
X0212795Y0188840D01*
X0212926Y0188933D01*
X0213059Y0189023D01*
X0213194Y0189110D01*
X0213332Y0189193D01*
X0213471Y0189272D01*
X0213613Y0189349D01*
X0213756Y0189422D01*
X0213901Y0189491D01*
X0214048Y0189556D01*
X0214196Y0189618D01*
X0214346Y0189677D01*
X0214497Y0189731D01*
X0214649Y0189782D01*
X0214803Y0189829D01*
X0214958Y0189872D01*
X0215113Y0189911D01*
X0215270Y0189947D01*
X0215428Y0189979D01*
X0215586Y0190006D01*
X0215745Y0190030D01*
X0215904Y0190050D01*
X0216064Y0190066D01*
X0216225Y0190078D01*
X0216385Y0190086D01*
X0216546Y0190090D01*
X0216706Y0190090D01*
X0216867Y0190086D01*
X0217027Y0190078D01*
X0217188Y0190066D01*
X0217348Y0190050D01*
X0217507Y0190030D01*
X0217666Y0190006D01*
X0217824Y0189979D01*
X0217982Y0189947D01*
X0218139Y0189911D01*
X0218294Y0189872D01*
X0218449Y0189829D01*
X0218603Y0189782D01*
X0218755Y0189731D01*
X0218906Y0189677D01*
X0219056Y0189618D01*
X0219204Y0189556D01*
X0219351Y0189491D01*
X0219496Y0189422D01*
X0219639Y0189349D01*
X0219781Y0189272D01*
X0219920Y0189193D01*
X0220058Y0189110D01*
X0220193Y0189023D01*
X0220326Y0188933D01*
X0220457Y0188840D01*
X0220586Y0188744D01*
X0220712Y0188644D01*
X0220836Y0188541D01*
X0220957Y0188436D01*
X0221075Y0188327D01*
X0221191Y0188216D01*
X0221304Y0188101D01*
X0221414Y0187984D01*
X0221521Y0187865D01*
X0221625Y0187742D01*
X0221726Y0187617D01*
X0221824Y0187490D01*
X0221919Y0187360D01*
X0222010Y0187228D01*
X0222099Y0187094D01*
X0222184Y0186957D01*
X0222265Y0186819D01*
X0222343Y0186678D01*
X0222418Y0186536D01*
X0222489Y0186392D01*
X0222556Y0186246D01*
X0222620Y0186098D01*
X0222680Y0185949D01*
X0222736Y0185799D01*
X0222789Y0185647D01*
X0222838Y0185494D01*
X0222883Y0185340D01*
X0222924Y0185185D01*
X0222962Y0185028D01*
X0222995Y0184871D01*
X0223025Y0184713D01*
X0223051Y0184555D01*
X0223072Y0184395D01*
X0223090Y0184236D01*
X0223104Y0184076D01*
X0223114Y0183915D01*
X0223120Y0183755D01*
X0223122Y0183594D01*
X0223120Y0183433D01*
X0223114Y0183273D01*
X0223104Y0183112D01*
X0223090Y0182952D01*
X0223072Y0182793D01*
X0223051Y0182633D01*
X0223025Y0182475D01*
X0222995Y0182317D01*
X0222962Y0182160D01*
X0222924Y0182003D01*
X0222883Y0181848D01*
X0222838Y0181694D01*
X0222789Y0181541D01*
X0222736Y0181389D01*
X0222680Y0181239D01*
X0222620Y0181090D01*
X0222556Y0180942D01*
X0222489Y0180796D01*
X0222418Y0180652D01*
X0222343Y0180510D01*
X0222265Y0180369D01*
X0222184Y0180231D01*
X0222099Y0180094D01*
X0222010Y0179960D01*
X0221919Y0179828D01*
X0221824Y0179698D01*
X0221726Y0179571D01*
X0221625Y0179446D01*
X0221521Y0179323D01*
X0221414Y0179204D01*
X0221304Y0179087D01*
X0221191Y0178972D01*
X0221075Y0178861D01*
X0220957Y0178752D01*
X0220836Y0178647D01*
X0220712Y0178544D01*
X0220586Y0178444D01*
X0220457Y0178348D01*
X0220326Y0178255D01*
X0220193Y0178165D01*
X0220058Y0178078D01*
X0219920Y0177995D01*
X0219781Y0177916D01*
X0219639Y0177839D01*
X0219496Y0177766D01*
X0219351Y0177697D01*
X0219204Y0177632D01*
X0219056Y0177570D01*
X0218906Y0177511D01*
X0218755Y0177457D01*
X0218603Y0177406D01*
X0218449Y0177359D01*
X0218294Y0177316D01*
X0218139Y0177277D01*
X0217982Y0177241D01*
X0217824Y0177209D01*
X0217666Y0177182D01*
X0217507Y0177158D01*
X0217348Y0177138D01*
X0217188Y0177122D01*
X0217027Y0177110D01*
X0216867Y0177102D01*
X0216706Y0177098D01*
X0216546Y0177098D01*
X0216385Y0177102D01*
X0216225Y0177110D01*
X0216064Y0177122D01*
X0215904Y0177138D01*
X0215745Y0177158D01*
X0215586Y0177182D01*
X0215428Y0177209D01*
X0215270Y0177241D01*
X0215113Y0177277D01*
X0214958Y0177316D01*
X0214803Y0177359D01*
X0214649Y0177406D01*
X0214497Y0177457D01*
X0214346Y0177511D01*
X0214196Y0177570D01*
X0214048Y0177632D01*
X0213901Y0177697D01*
X0213756Y0177766D01*
X0213613Y0177839D01*
X0213471Y0177916D01*
X0213332Y0177995D01*
X0213194Y0178078D01*
X0213059Y0178165D01*
X0212926Y0178255D01*
X0212795Y0178348D01*
X0212666Y0178444D01*
X0212540Y0178544D01*
X0212416Y0178647D01*
X0212295Y0178752D01*
X0212177Y0178861D01*
X0212061Y0178972D01*
X0211948Y0179087D01*
X0211838Y0179204D01*
X0211731Y0179323D01*
X0211627Y0179446D01*
X0211526Y0179571D01*
X0211428Y0179698D01*
X0211333Y0179828D01*
X0211242Y0179960D01*
X0211153Y0180094D01*
X0211068Y0180231D01*
X0210987Y0180369D01*
X0210909Y0180510D01*
X0210834Y0180652D01*
X0210763Y0180796D01*
X0210696Y0180942D01*
X0210632Y0181090D01*
X0210572Y0181239D01*
X0210516Y0181389D01*
X0210463Y0181541D01*
X0210414Y0181694D01*
X0210369Y0181848D01*
X0210328Y0182003D01*
X0210290Y0182160D01*
X0210257Y0182317D01*
X0210227Y0182475D01*
X0210201Y0182633D01*
X0210180Y0182793D01*
X0210162Y0182952D01*
X0210148Y0183112D01*
X0210138Y0183273D01*
X0210132Y0183433D01*
X0210130Y0183594D01*
D11*
X0204172Y0230615D02*
X0202070Y0230615D01*
X0201019Y0231665D01*
X0203121Y0233767D02*
X0204172Y0233767D01*
X0205223Y0232716D01*
X0205223Y0231665D01*
X0204172Y0230615D01*
X0204172Y0233767D02*
X0205223Y0234818D01*
X0205223Y0235869D01*
X0204172Y0236920D01*
X0202070Y0236920D01*
X0201019Y0235869D01*
D12*
X0235912Y0185991D03*
X0229926Y0175998D03*
X0235910Y0146195D03*
X0229928Y0136188D03*
X0191626Y0148594D03*
X0191626Y0158594D03*
X0191626Y0168594D03*
X0191626Y0178594D03*
X0181626Y0173594D03*
X0181626Y0163594D03*
X0181626Y0153594D03*
X0181626Y0143594D03*
D13*
X0204618Y0130091D03*
X0204618Y0192098D03*
D14*
X0172205Y0222115D03*
X0162205Y0222115D03*
X0152205Y0222115D03*
X0142205Y0222115D03*
X0132205Y0222115D03*
X0122205Y0222115D03*
X0055000Y0166091D03*
X0055000Y0156091D03*
X0122205Y0100068D03*
X0132205Y0100068D03*
X0142205Y0100068D03*
X0152205Y0100068D03*
X0162205Y0100068D03*
X0172205Y0100068D03*
D15*
X0159122Y0129111D03*
X0159122Y0138611D03*
X0159122Y0150611D03*
X0159122Y0158611D03*
X0151622Y0169111D03*
X0152622Y0175611D03*
X0159122Y0179611D03*
X0159122Y0170611D03*
X0139122Y0167611D03*
X0133622Y0167611D03*
X0128122Y0167611D03*
X0128122Y0161111D03*
X0133622Y0161111D03*
X0139122Y0161111D03*
X0139122Y0154611D03*
X0133622Y0154611D03*
X0128122Y0154611D03*
X0124622Y0145611D03*
X0114122Y0140611D03*
X0107122Y0142548D03*
X0097992Y0166997D03*
X0103122Y0171111D03*
X0112122Y0198048D03*
X0108740Y0202867D03*
X0119322Y0198048D03*
X0125922Y0198048D03*
X0131122Y0184611D03*
X0131622Y0178111D03*
X0074063Y0143568D03*
X0205122Y0178111D03*
X0214622Y0208611D03*
X0210622Y0114611D03*
D16*
X0151122Y0162611D03*
X0150622Y0172611D03*
X0124122Y0176611D03*
X0229926Y0206807D03*
D17*
X0231822Y0205067D02*
X0257625Y0205067D01*
X0257625Y0206665D02*
X0232497Y0206665D01*
X0232497Y0206296D02*
X0232106Y0205351D01*
X0231382Y0204627D01*
X0230437Y0204236D01*
X0229414Y0204236D01*
X0228469Y0204627D01*
X0227746Y0205351D01*
X0227354Y0206296D01*
X0227354Y0207319D01*
X0227746Y0208264D01*
X0228469Y0208987D01*
X0229414Y0209379D01*
X0230437Y0209379D01*
X0231382Y0208987D01*
X0232106Y0208264D01*
X0232497Y0207319D01*
X0232497Y0206296D01*
X0232106Y0208264D02*
X0257625Y0208264D01*
X0257625Y0209862D02*
X0217420Y0209862D01*
X0217337Y0210062D02*
X0217568Y0209505D01*
X0217686Y0208913D01*
X0217686Y0208611D01*
X0214622Y0208611D01*
X0211558Y0208611D01*
X0211558Y0208309D01*
X0211676Y0207717D01*
X0211907Y0207160D01*
X0212242Y0206658D01*
X0212669Y0206231D01*
X0213171Y0205896D01*
X0213728Y0205665D01*
X0214320Y0205547D01*
X0214622Y0205547D01*
X0214622Y0208611D01*
X0214622Y0208611D01*
X0214622Y0208611D01*
X0211558Y0208611D01*
X0211558Y0208913D01*
X0211676Y0209505D01*
X0211907Y0210062D01*
X0212242Y0210564D01*
X0212669Y0210991D01*
X0213171Y0211326D01*
X0213728Y0211557D01*
X0214320Y0211675D01*
X0214622Y0211675D01*
X0214622Y0208611D01*
X0214622Y0205547D01*
X0214924Y0205547D01*
X0215516Y0205665D01*
X0216073Y0205896D01*
X0216575Y0206231D01*
X0217002Y0206658D01*
X0217337Y0207160D01*
X0217568Y0207717D01*
X0217686Y0208309D01*
X0217686Y0208611D01*
X0214622Y0208611D01*
X0214622Y0208611D01*
X0214622Y0208611D01*
X0214622Y0211675D01*
X0214924Y0211675D01*
X0215516Y0211557D01*
X0216073Y0211326D01*
X0216575Y0210991D01*
X0217002Y0210564D01*
X0217337Y0210062D01*
X0217677Y0208264D02*
X0227745Y0208264D01*
X0227354Y0206665D02*
X0217007Y0206665D01*
X0214622Y0206665D02*
X0214622Y0206665D01*
X0214622Y0208264D02*
X0214622Y0208264D01*
X0214622Y0209862D02*
X0214622Y0209862D01*
X0214622Y0211461D02*
X0214622Y0211461D01*
X0213496Y0211461D02*
X0036784Y0211461D01*
X0036784Y0213059D02*
X0257625Y0213059D01*
X0257625Y0211461D02*
X0215749Y0211461D01*
X0211824Y0209862D02*
X0036784Y0209862D01*
X0036784Y0208264D02*
X0211567Y0208264D01*
X0212237Y0206665D02*
X0036784Y0206665D01*
X0036784Y0205067D02*
X0106885Y0205067D01*
X0107116Y0205297D02*
X0106310Y0204491D01*
X0105873Y0203437D01*
X0105873Y0202297D01*
X0106310Y0201243D01*
X0107116Y0200436D01*
X0108170Y0200000D01*
X0109310Y0200000D01*
X0110046Y0200305D01*
X0109742Y0200001D01*
X0109407Y0199499D01*
X0109176Y0198942D01*
X0109058Y0198350D01*
X0109058Y0198048D01*
X0109058Y0197746D01*
X0109176Y0197154D01*
X0109407Y0196597D01*
X0109742Y0196095D01*
X0110169Y0195668D01*
X0110671Y0195333D01*
X0111228Y0195102D01*
X0111820Y0194984D01*
X0112122Y0194984D01*
X0112122Y0198048D01*
X0109058Y0198048D01*
X0112122Y0198048D01*
X0112122Y0198048D01*
X0112122Y0198048D01*
X0112122Y0194984D01*
X0112424Y0194984D01*
X0113016Y0195102D01*
X0113573Y0195333D01*
X0114075Y0195668D01*
X0114502Y0196095D01*
X0114837Y0196597D01*
X0115068Y0197154D01*
X0115186Y0197746D01*
X0115186Y0198048D01*
X0112122Y0198048D01*
X0112122Y0201112D01*
X0111820Y0201112D01*
X0111228Y0200994D01*
X0110705Y0200777D01*
X0111171Y0201243D01*
X0111607Y0202297D01*
X0111607Y0203437D01*
X0111171Y0204491D01*
X0110364Y0205297D01*
X0109310Y0205734D01*
X0108170Y0205734D01*
X0107116Y0205297D01*
X0105886Y0203468D02*
X0036784Y0203468D01*
X0036784Y0201870D02*
X0106050Y0201870D01*
X0107516Y0200271D02*
X0036784Y0200271D01*
X0036784Y0198673D02*
X0109122Y0198673D01*
X0109209Y0197074D02*
X0036784Y0197074D01*
X0036784Y0195475D02*
X0110457Y0195475D01*
X0112122Y0195475D02*
X0112122Y0195475D01*
X0112122Y0197074D02*
X0112122Y0197074D01*
X0112122Y0198048D02*
X0112122Y0198048D01*
X0112122Y0198048D01*
X0115186Y0198048D01*
X0115186Y0198350D01*
X0115068Y0198942D01*
X0114837Y0199499D01*
X0114502Y0200001D01*
X0114075Y0200428D01*
X0113573Y0200763D01*
X0113016Y0200994D01*
X0112424Y0201112D01*
X0112122Y0201112D01*
X0112122Y0198048D01*
X0112122Y0198673D02*
X0112122Y0198673D01*
X0112122Y0200271D02*
X0112122Y0200271D01*
X0111430Y0201870D02*
X0257625Y0201870D01*
X0257625Y0203468D02*
X0111594Y0203468D01*
X0110595Y0205067D02*
X0228030Y0205067D01*
X0239306Y0219533D02*
X0242132Y0218362D01*
X0245191Y0218362D01*
X0248017Y0219533D01*
X0250180Y0221696D01*
X0251351Y0224522D01*
X0251351Y0227582D01*
X0250180Y0230408D01*
X0248017Y0232571D01*
X0245191Y0233742D01*
X0242132Y0233742D01*
X0239306Y0232571D01*
X0237142Y0230408D01*
X0235972Y0227582D01*
X0235972Y0224522D01*
X0237142Y0221696D01*
X0239306Y0219533D01*
X0239498Y0219453D02*
X0175752Y0219453D01*
X0175927Y0219628D02*
X0174692Y0218393D01*
X0173078Y0217724D01*
X0171331Y0217724D01*
X0169718Y0218393D01*
X0168483Y0219628D01*
X0167814Y0221242D01*
X0167814Y0222988D01*
X0168483Y0224602D01*
X0169718Y0225837D01*
X0171331Y0226505D01*
X0173078Y0226505D01*
X0174692Y0225837D01*
X0175927Y0224602D01*
X0176595Y0222988D01*
X0176595Y0221242D01*
X0175927Y0219628D01*
X0176517Y0221052D02*
X0237787Y0221052D01*
X0236747Y0222650D02*
X0176595Y0222650D01*
X0176073Y0224249D02*
X0236085Y0224249D01*
X0235972Y0225847D02*
X0174667Y0225847D01*
X0169742Y0225847D02*
X0164667Y0225847D01*
X0164692Y0225837D02*
X0163078Y0226505D01*
X0161331Y0226505D01*
X0159718Y0225837D01*
X0158483Y0224602D01*
X0157814Y0222988D01*
X0157814Y0221242D01*
X0158483Y0219628D01*
X0159718Y0218393D01*
X0161331Y0217724D01*
X0163078Y0217724D01*
X0164692Y0218393D01*
X0165927Y0219628D01*
X0166595Y0221242D01*
X0166595Y0222988D01*
X0165927Y0224602D01*
X0164692Y0225837D01*
X0166073Y0224249D02*
X0168336Y0224249D01*
X0167814Y0222650D02*
X0166595Y0222650D01*
X0166517Y0221052D02*
X0167893Y0221052D01*
X0168657Y0219453D02*
X0165752Y0219453D01*
X0163392Y0217855D02*
X0171017Y0217855D01*
X0173392Y0217855D02*
X0257625Y0217855D01*
X0257625Y0219453D02*
X0247825Y0219453D01*
X0249536Y0221052D02*
X0257625Y0221052D01*
X0257625Y0222650D02*
X0250576Y0222650D01*
X0251238Y0224249D02*
X0257625Y0224249D01*
X0257625Y0225313D02*
X0257625Y0226052D01*
X0257506Y0227875D01*
X0256562Y0231396D01*
X0254740Y0234553D01*
X0252162Y0237130D01*
X0249005Y0238953D01*
X0245484Y0239896D01*
X0243661Y0240016D01*
X0050748Y0240016D01*
X0048925Y0239896D01*
X0045404Y0238953D01*
X0042247Y0237130D01*
X0039670Y0234553D01*
X0037847Y0231396D01*
X0036904Y0227875D01*
X0036784Y0226052D01*
X0036784Y0096131D01*
X0036904Y0094308D01*
X0037847Y0090787D01*
X0039670Y0087630D01*
X0042247Y0085052D01*
X0045404Y0083230D01*
X0048925Y0082286D01*
X0050748Y0082167D01*
X0243661Y0082167D01*
X0245484Y0082286D01*
X0249005Y0083230D01*
X0252162Y0085052D01*
X0254740Y0087630D01*
X0256562Y0090787D01*
X0256562Y0090787D01*
X0257506Y0094308D01*
X0257625Y0096131D01*
X0257625Y0225313D01*
X0257625Y0225847D02*
X0251351Y0225847D01*
X0251351Y0227446D02*
X0257534Y0227446D01*
X0257192Y0229044D02*
X0250745Y0229044D01*
X0249946Y0230643D02*
X0256764Y0230643D01*
X0256074Y0232241D02*
X0248347Y0232241D01*
X0252255Y0237037D02*
X0206517Y0237037D01*
X0206963Y0236590D02*
X0205944Y0237610D01*
X0204893Y0238660D01*
X0201349Y0238660D01*
X0200330Y0237641D01*
X0199279Y0236590D01*
X0199279Y0235148D01*
X0200298Y0234129D01*
X0201381Y0234129D01*
X0201381Y0233406D01*
X0200298Y0233406D01*
X0199279Y0232386D01*
X0199279Y0230945D01*
X0201349Y0228874D01*
X0204893Y0228874D01*
X0205913Y0229894D01*
X0206963Y0230945D01*
X0206963Y0233437D01*
X0206633Y0233767D01*
X0206963Y0234097D01*
X0206963Y0236590D01*
X0206963Y0235438D02*
X0253854Y0235438D01*
X0255151Y0233840D02*
X0206706Y0233840D01*
X0206963Y0232241D02*
X0238976Y0232241D01*
X0237377Y0230643D02*
X0206662Y0230643D01*
X0205063Y0229044D02*
X0236578Y0229044D01*
X0235972Y0227446D02*
X0058438Y0227446D01*
X0058438Y0227582D02*
X0057267Y0230408D01*
X0055104Y0232571D01*
X0052278Y0233742D01*
X0049218Y0233742D01*
X0046392Y0232571D01*
X0044229Y0230408D01*
X0043058Y0227582D01*
X0043058Y0224522D01*
X0044229Y0221696D01*
X0046392Y0219533D01*
X0049218Y0218362D01*
X0052278Y0218362D01*
X0055104Y0219533D01*
X0057267Y0221696D01*
X0058438Y0224522D01*
X0058438Y0227582D01*
X0057832Y0229044D02*
X0201179Y0229044D01*
X0199580Y0230643D02*
X0057032Y0230643D01*
X0055434Y0232241D02*
X0199279Y0232241D01*
X0201381Y0233840D02*
X0039258Y0233840D01*
X0038335Y0232241D02*
X0046062Y0232241D01*
X0044464Y0230643D02*
X0037645Y0230643D01*
X0037217Y0229044D02*
X0043664Y0229044D01*
X0043058Y0227446D02*
X0036876Y0227446D01*
X0036784Y0225847D02*
X0043058Y0225847D01*
X0043172Y0224249D02*
X0036784Y0224249D01*
X0036784Y0222650D02*
X0043834Y0222650D01*
X0044873Y0221052D02*
X0036784Y0221052D01*
X0036784Y0219453D02*
X0046585Y0219453D01*
X0054911Y0219453D02*
X0118657Y0219453D01*
X0118483Y0219628D02*
X0119718Y0218393D01*
X0121331Y0217724D01*
X0123078Y0217724D01*
X0124692Y0218393D01*
X0125927Y0219628D01*
X0126595Y0221242D01*
X0126595Y0222988D01*
X0125927Y0224602D01*
X0124692Y0225837D01*
X0123078Y0226505D01*
X0121331Y0226505D01*
X0119718Y0225837D01*
X0118483Y0224602D01*
X0117814Y0222988D01*
X0117814Y0221242D01*
X0118483Y0219628D01*
X0117893Y0221052D02*
X0056623Y0221052D01*
X0057662Y0222650D02*
X0117814Y0222650D01*
X0118336Y0224249D02*
X0058324Y0224249D01*
X0058438Y0225847D02*
X0119742Y0225847D01*
X0124667Y0225847D02*
X0129742Y0225847D01*
X0129718Y0225837D02*
X0131331Y0226505D01*
X0133078Y0226505D01*
X0134692Y0225837D01*
X0135927Y0224602D01*
X0136595Y0222988D01*
X0136595Y0221242D01*
X0135927Y0219628D01*
X0134692Y0218393D01*
X0133078Y0217724D01*
X0131331Y0217724D01*
X0129718Y0218393D01*
X0128483Y0219628D01*
X0127814Y0221242D01*
X0127814Y0222988D01*
X0128483Y0224602D01*
X0129718Y0225837D01*
X0128336Y0224249D02*
X0126073Y0224249D01*
X0126595Y0222650D02*
X0127814Y0222650D01*
X0127893Y0221052D02*
X0126517Y0221052D01*
X0125752Y0219453D02*
X0128657Y0219453D01*
X0131017Y0217855D02*
X0123392Y0217855D01*
X0121017Y0217855D02*
X0036784Y0217855D01*
X0036784Y0216256D02*
X0257625Y0216256D01*
X0257625Y0214658D02*
X0036784Y0214658D01*
X0036784Y0193877D02*
X0198736Y0193877D01*
X0198503Y0193315D02*
X0198503Y0190882D01*
X0199434Y0188635D01*
X0201154Y0186914D01*
X0203402Y0185983D01*
X0205835Y0185983D01*
X0208082Y0186914D01*
X0209802Y0188635D01*
X0210733Y0190882D01*
X0210733Y0193315D01*
X0209802Y0195562D01*
X0208082Y0197282D01*
X0205835Y0198213D01*
X0203402Y0198213D01*
X0201154Y0197282D01*
X0199434Y0195562D01*
X0198503Y0193315D01*
X0198503Y0192278D02*
X0036784Y0192278D01*
X0036784Y0190680D02*
X0198587Y0190680D01*
X0199249Y0189081D02*
X0036784Y0189081D01*
X0036784Y0187483D02*
X0130049Y0187483D01*
X0130228Y0187557D02*
X0129671Y0187326D01*
X0129169Y0186991D01*
X0128742Y0186564D01*
X0128407Y0186062D01*
X0128176Y0185505D01*
X0128058Y0184913D01*
X0128058Y0184611D01*
X0128058Y0184309D01*
X0128176Y0183717D01*
X0128407Y0183160D01*
X0128742Y0182658D01*
X0129169Y0182231D01*
X0129671Y0181896D01*
X0130228Y0181665D01*
X0130820Y0181547D01*
X0131122Y0181547D01*
X0131122Y0184611D01*
X0128058Y0184611D01*
X0131122Y0184611D01*
X0131122Y0184611D01*
X0131122Y0184611D01*
X0131122Y0181547D01*
X0131424Y0181547D01*
X0132016Y0181665D01*
X0132573Y0181896D01*
X0133075Y0182231D01*
X0133502Y0182658D01*
X0133837Y0183160D01*
X0134068Y0183717D01*
X0134186Y0184309D01*
X0134186Y0184611D01*
X0131122Y0184611D01*
X0131122Y0187675D01*
X0130820Y0187675D01*
X0130228Y0187557D01*
X0131122Y0187483D02*
X0131122Y0187483D01*
X0131122Y0187675D02*
X0131424Y0187675D01*
X0132016Y0187557D01*
X0132573Y0187326D01*
X0133075Y0186991D01*
X0133502Y0186564D01*
X0133837Y0186062D01*
X0134068Y0185505D01*
X0134186Y0184913D01*
X0134186Y0184611D01*
X0131122Y0184611D01*
X0131122Y0184611D01*
X0131122Y0184611D01*
X0131122Y0187675D01*
X0132195Y0187483D02*
X0200586Y0187483D01*
X0199398Y0195475D02*
X0127587Y0195475D01*
X0127373Y0195333D02*
X0127875Y0195668D01*
X0128302Y0196095D01*
X0128637Y0196597D01*
X0128868Y0197154D01*
X0128986Y0197746D01*
X0128986Y0198048D01*
X0125922Y0198048D01*
X0122858Y0198048D01*
X0122858Y0197746D01*
X0122976Y0197154D01*
X0123207Y0196597D01*
X0123542Y0196095D01*
X0123969Y0195668D01*
X0124471Y0195333D01*
X0125028Y0195102D01*
X0125620Y0194984D01*
X0125922Y0194984D01*
X0125922Y0198048D01*
X0125922Y0198048D01*
X0125922Y0198048D01*
X0122858Y0198048D01*
X0122858Y0198350D01*
X0122976Y0198942D01*
X0123207Y0199499D01*
X0123542Y0200001D01*
X0123969Y0200428D01*
X0124471Y0200763D01*
X0125028Y0200994D01*
X0125620Y0201112D01*
X0125922Y0201112D01*
X0125922Y0198048D01*
X0125922Y0194984D01*
X0126224Y0194984D01*
X0126816Y0195102D01*
X0127373Y0195333D01*
X0125922Y0195475D02*
X0125922Y0195475D01*
X0125922Y0197074D02*
X0125922Y0197074D01*
X0125922Y0198048D02*
X0125922Y0198048D01*
X0125922Y0198048D01*
X0128986Y0198048D01*
X0128986Y0198350D01*
X0128868Y0198942D01*
X0128637Y0199499D01*
X0128302Y0200001D01*
X0127875Y0200428D01*
X0127373Y0200763D01*
X0126816Y0200994D01*
X0126224Y0201112D01*
X0125922Y0201112D01*
X0125922Y0198048D01*
X0125922Y0198673D02*
X0125922Y0198673D01*
X0125922Y0200271D02*
X0125922Y0200271D01*
X0123812Y0200271D02*
X0121432Y0200271D01*
X0121275Y0200428D02*
X0120773Y0200763D01*
X0120216Y0200994D01*
X0119624Y0201112D01*
X0119322Y0201112D01*
X0119020Y0201112D01*
X0118428Y0200994D01*
X0117871Y0200763D01*
X0117369Y0200428D01*
X0116942Y0200001D01*
X0116607Y0199499D01*
X0116376Y0198942D01*
X0116258Y0198350D01*
X0116258Y0198048D01*
X0116258Y0197746D01*
X0116376Y0197154D01*
X0116607Y0196597D01*
X0116942Y0196095D01*
X0117369Y0195668D01*
X0117871Y0195333D01*
X0118428Y0195102D01*
X0119020Y0194984D01*
X0119322Y0194984D01*
X0119322Y0198048D01*
X0116258Y0198048D01*
X0119322Y0198048D01*
X0119322Y0198048D01*
X0119322Y0198048D01*
X0119322Y0194984D01*
X0119624Y0194984D01*
X0120216Y0195102D01*
X0120773Y0195333D01*
X0121275Y0195668D01*
X0121702Y0196095D01*
X0122037Y0196597D01*
X0122268Y0197154D01*
X0122386Y0197746D01*
X0122386Y0198048D01*
X0119322Y0198048D01*
X0119322Y0201112D01*
X0119322Y0198048D01*
X0119322Y0198048D01*
X0119322Y0198048D01*
X0122386Y0198048D01*
X0122386Y0198350D01*
X0122268Y0198942D01*
X0122037Y0199499D01*
X0121702Y0200001D01*
X0121275Y0200428D01*
X0119322Y0200271D02*
X0119322Y0200271D01*
X0119322Y0198673D02*
X0119322Y0198673D01*
X0119322Y0197074D02*
X0119322Y0197074D01*
X0119322Y0195475D02*
X0119322Y0195475D01*
X0117657Y0195475D02*
X0113787Y0195475D01*
X0115035Y0197074D02*
X0116409Y0197074D01*
X0116322Y0198673D02*
X0115122Y0198673D01*
X0114232Y0200271D02*
X0117212Y0200271D01*
X0122322Y0198673D02*
X0122922Y0198673D01*
X0123009Y0197074D02*
X0122235Y0197074D01*
X0120987Y0195475D02*
X0124257Y0195475D01*
X0128835Y0197074D02*
X0200946Y0197074D01*
X0208291Y0197074D02*
X0257625Y0197074D01*
X0257625Y0195475D02*
X0209838Y0195475D01*
X0210500Y0193877D02*
X0257625Y0193877D01*
X0257625Y0192278D02*
X0210733Y0192278D01*
X0210650Y0190680D02*
X0212095Y0190680D01*
X0211936Y0190614D02*
X0209606Y0188285D01*
X0208346Y0185242D01*
X0208346Y0181947D01*
X0209606Y0178904D01*
X0211936Y0176575D01*
X0214979Y0175314D01*
X0218273Y0175314D01*
X0221317Y0176575D01*
X0223646Y0178904D01*
X0224906Y0181947D01*
X0224906Y0185242D01*
X0223646Y0188285D01*
X0221317Y0190614D01*
X0218273Y0191875D01*
X0214979Y0191875D01*
X0211936Y0190614D01*
X0210403Y0189081D02*
X0209987Y0189081D01*
X0209274Y0187483D02*
X0208651Y0187483D01*
X0208612Y0185884D02*
X0133911Y0185884D01*
X0134181Y0184286D02*
X0208346Y0184286D01*
X0208346Y0182687D02*
X0133521Y0182687D01*
X0133073Y0180826D02*
X0132516Y0181057D01*
X0131924Y0181175D01*
X0131622Y0181175D01*
X0131320Y0181175D01*
X0130728Y0181057D01*
X0130171Y0180826D01*
X0129669Y0180491D01*
X0129242Y0180064D01*
X0128907Y0179562D01*
X0128676Y0179005D01*
X0128558Y0178413D01*
X0128558Y0178111D01*
X0128558Y0177809D01*
X0128676Y0177217D01*
X0128907Y0176660D01*
X0129242Y0176158D01*
X0129669Y0175731D01*
X0130171Y0175396D01*
X0130728Y0175165D01*
X0131320Y0175047D01*
X0131622Y0175047D01*
X0131622Y0178111D01*
X0128558Y0178111D01*
X0131622Y0178111D01*
X0131622Y0178111D01*
X0131622Y0178111D01*
X0131622Y0175047D01*
X0131924Y0175047D01*
X0132516Y0175165D01*
X0133073Y0175396D01*
X0133575Y0175731D01*
X0134002Y0176158D01*
X0134337Y0176660D01*
X0134568Y0177217D01*
X0134686Y0177809D01*
X0134686Y0178111D01*
X0131622Y0178111D01*
X0131622Y0181175D01*
X0131622Y0178111D01*
X0131622Y0178111D01*
X0131622Y0178111D01*
X0134686Y0178111D01*
X0134686Y0178413D01*
X0134568Y0179005D01*
X0134337Y0179562D01*
X0134002Y0180064D01*
X0133575Y0180491D01*
X0133073Y0180826D01*
X0132356Y0181089D02*
X0156425Y0181089D01*
X0156407Y0181062D02*
X0156176Y0180505D01*
X0156058Y0179913D01*
X0156058Y0179611D01*
X0156058Y0179309D01*
X0156176Y0178717D01*
X0156407Y0178160D01*
X0156742Y0177658D01*
X0157169Y0177231D01*
X0157671Y0176896D01*
X0158228Y0176665D01*
X0158820Y0176547D01*
X0159122Y0176547D01*
X0159122Y0179611D01*
X0156058Y0179611D01*
X0159122Y0179611D01*
X0159122Y0179611D01*
X0159122Y0179611D01*
X0159122Y0176547D01*
X0159424Y0176547D01*
X0160016Y0176665D01*
X0160573Y0176896D01*
X0161075Y0177231D01*
X0161502Y0177658D01*
X0161837Y0178160D01*
X0162068Y0178717D01*
X0162186Y0179309D01*
X0162186Y0179611D01*
X0159122Y0179611D01*
X0159122Y0182675D01*
X0158820Y0182675D01*
X0158228Y0182557D01*
X0157671Y0182326D01*
X0157169Y0181991D01*
X0156742Y0181564D01*
X0156407Y0181062D01*
X0156058Y0179490D02*
X0134367Y0179490D01*
X0134686Y0177892D02*
X0150570Y0177892D01*
X0150669Y0177991D02*
X0150242Y0177564D01*
X0149907Y0177062D01*
X0149676Y0176505D01*
X0149558Y0175913D01*
X0149558Y0175611D01*
X0149558Y0175309D01*
X0149624Y0174981D01*
X0149165Y0174791D01*
X0148442Y0174068D01*
X0148050Y0173123D01*
X0148050Y0172099D01*
X0148442Y0171154D01*
X0148958Y0170638D01*
X0148907Y0170562D01*
X0148676Y0170005D01*
X0148558Y0169413D01*
X0148558Y0169111D01*
X0148558Y0168809D01*
X0148676Y0168217D01*
X0148907Y0167660D01*
X0149242Y0167158D01*
X0149669Y0166731D01*
X0150171Y0166396D01*
X0150728Y0166165D01*
X0151320Y0166047D01*
X0151622Y0166047D01*
X0151622Y0169111D01*
X0148558Y0169111D01*
X0151622Y0169111D01*
X0151622Y0169111D01*
X0151622Y0169111D01*
X0151622Y0166047D01*
X0151924Y0166047D01*
X0152516Y0166165D01*
X0153073Y0166396D01*
X0153575Y0166731D01*
X0154002Y0167158D01*
X0154337Y0167660D01*
X0154568Y0168217D01*
X0154686Y0168809D01*
X0154686Y0169111D01*
X0151622Y0169111D01*
X0151622Y0169111D01*
X0154686Y0169111D01*
X0154686Y0169413D01*
X0154568Y0170005D01*
X0154337Y0170562D01*
X0154002Y0171064D01*
X0153575Y0171491D01*
X0153079Y0171822D01*
X0153194Y0172099D01*
X0153194Y0172601D01*
X0153516Y0172665D01*
X0154073Y0172896D01*
X0154575Y0173231D01*
X0155002Y0173658D01*
X0155337Y0174160D01*
X0155568Y0174717D01*
X0155686Y0175309D01*
X0155686Y0175611D01*
X0152622Y0175611D01*
X0149558Y0175611D01*
X0152622Y0175611D01*
X0152622Y0175611D01*
X0152622Y0178675D01*
X0152320Y0178675D01*
X0151728Y0178557D01*
X0151171Y0178326D01*
X0150669Y0177991D01*
X0152622Y0177892D02*
X0152622Y0177892D01*
X0152622Y0178675D02*
X0152622Y0175611D01*
X0152622Y0175611D01*
X0152622Y0175611D01*
X0155686Y0175611D01*
X0155686Y0175913D01*
X0155568Y0176505D01*
X0155337Y0177062D01*
X0155002Y0177564D01*
X0154575Y0177991D01*
X0154073Y0178326D01*
X0153516Y0178557D01*
X0152924Y0178675D01*
X0152622Y0178675D01*
X0154674Y0177892D02*
X0156586Y0177892D01*
X0155610Y0176293D02*
X0178600Y0176293D01*
X0178194Y0175887D02*
X0177578Y0174400D01*
X0177578Y0172789D01*
X0178194Y0171301D01*
X0179333Y0170163D01*
X0180821Y0169546D01*
X0182431Y0169546D01*
X0183919Y0170163D01*
X0185058Y0171301D01*
X0185674Y0172789D01*
X0185674Y0174400D01*
X0185058Y0175887D01*
X0183919Y0177026D01*
X0182431Y0177642D01*
X0180821Y0177642D01*
X0179333Y0177026D01*
X0178194Y0175887D01*
X0177700Y0174695D02*
X0155559Y0174695D01*
X0154373Y0173096D02*
X0157327Y0173096D01*
X0157169Y0172991D02*
X0157671Y0173326D01*
X0158228Y0173557D01*
X0158820Y0173675D01*
X0159122Y0173675D01*
X0159122Y0170611D01*
X0156058Y0170611D01*
X0156058Y0170309D01*
X0156176Y0169717D01*
X0156407Y0169160D01*
X0156742Y0168658D01*
X0157169Y0168231D01*
X0157671Y0167896D01*
X0158228Y0167665D01*
X0158820Y0167547D01*
X0159122Y0167547D01*
X0159122Y0170611D01*
X0159122Y0170611D01*
X0159122Y0170611D01*
X0156058Y0170611D01*
X0156058Y0170913D01*
X0156176Y0171505D01*
X0156407Y0172062D01*
X0156742Y0172564D01*
X0157169Y0172991D01*
X0156175Y0171498D02*
X0153565Y0171498D01*
X0154589Y0169899D02*
X0156140Y0169899D01*
X0157099Y0168301D02*
X0154585Y0168301D01*
X0153532Y0166702D02*
X0179009Y0166702D01*
X0179333Y0167026D02*
X0178194Y0165887D01*
X0177578Y0164400D01*
X0177578Y0162789D01*
X0178194Y0161301D01*
X0179333Y0160163D01*
X0180821Y0159546D01*
X0182431Y0159546D01*
X0183919Y0160163D01*
X0185058Y0161301D01*
X0185674Y0162789D01*
X0185674Y0164400D01*
X0185058Y0165887D01*
X0183919Y0167026D01*
X0182431Y0167642D01*
X0180821Y0167642D01*
X0179333Y0167026D01*
X0177870Y0165104D02*
X0151824Y0165104D01*
X0151634Y0165183D02*
X0150611Y0165183D01*
X0149665Y0164791D01*
X0148942Y0164068D01*
X0148550Y0163123D01*
X0148550Y0162099D01*
X0148942Y0161154D01*
X0149665Y0160431D01*
X0150611Y0160039D01*
X0151634Y0160039D01*
X0152579Y0160431D01*
X0153302Y0161154D01*
X0153694Y0162099D01*
X0153694Y0163123D01*
X0153302Y0164068D01*
X0152579Y0164791D01*
X0151634Y0165183D01*
X0150420Y0165104D02*
X0140561Y0165104D01*
X0140746Y0165181D02*
X0141552Y0165987D01*
X0141989Y0167041D01*
X0141989Y0168181D01*
X0141552Y0169235D01*
X0140746Y0170041D01*
X0139692Y0170478D01*
X0138552Y0170478D01*
X0137498Y0170041D01*
X0136692Y0169235D01*
X0136372Y0168464D01*
X0136052Y0169235D01*
X0135246Y0170041D01*
X0134192Y0170478D01*
X0133052Y0170478D01*
X0131998Y0170041D01*
X0131192Y0169235D01*
X0130872Y0168464D01*
X0130552Y0169235D01*
X0129746Y0170041D01*
X0128692Y0170478D01*
X0127552Y0170478D01*
X0126498Y0170041D01*
X0125692Y0169235D01*
X0125255Y0168181D01*
X0125255Y0167041D01*
X0125692Y0165987D01*
X0126498Y0165181D01*
X0127552Y0164744D01*
X0128692Y0164744D01*
X0129746Y0165181D01*
X0130552Y0165987D01*
X0130872Y0166758D01*
X0131192Y0165987D01*
X0131998Y0165181D01*
X0133052Y0164744D01*
X0134192Y0164744D01*
X0135246Y0165181D01*
X0136052Y0165987D01*
X0136372Y0166758D01*
X0136692Y0165987D01*
X0137498Y0165181D01*
X0138552Y0164744D01*
X0139692Y0164744D01*
X0140746Y0165181D01*
X0139692Y0163978D02*
X0138552Y0163978D01*
X0137498Y0163541D01*
X0136692Y0162735D01*
X0136372Y0161964D01*
X0136052Y0162735D01*
X0135246Y0163541D01*
X0134192Y0163978D01*
X0133052Y0163978D01*
X0131998Y0163541D01*
X0131192Y0162735D01*
X0130872Y0161964D01*
X0130552Y0162735D01*
X0129746Y0163541D01*
X0128692Y0163978D01*
X0127552Y0163978D01*
X0126498Y0163541D01*
X0125692Y0162735D01*
X0125255Y0161681D01*
X0125255Y0160541D01*
X0125692Y0159487D01*
X0126498Y0158681D01*
X0127552Y0158244D01*
X0128692Y0158244D01*
X0129746Y0158681D01*
X0130552Y0159487D01*
X0130872Y0160258D01*
X0131192Y0159487D01*
X0131998Y0158681D01*
X0133052Y0158244D01*
X0134192Y0158244D01*
X0135246Y0158681D01*
X0136052Y0159487D01*
X0136372Y0160258D01*
X0136692Y0159487D01*
X0137498Y0158681D01*
X0138552Y0158244D01*
X0139692Y0158244D01*
X0140746Y0158681D01*
X0141552Y0159487D01*
X0141989Y0160541D01*
X0141989Y0161681D01*
X0141552Y0162735D01*
X0140746Y0163541D01*
X0139692Y0163978D01*
X0140782Y0163505D02*
X0148709Y0163505D01*
X0148630Y0161907D02*
X0141896Y0161907D01*
X0141893Y0160308D02*
X0149961Y0160308D01*
X0152283Y0160308D02*
X0156571Y0160308D01*
X0156407Y0160062D02*
X0156176Y0159505D01*
X0156058Y0158913D01*
X0156058Y0158611D01*
X0156058Y0158309D01*
X0156176Y0157717D01*
X0156407Y0157160D01*
X0156742Y0156658D01*
X0157169Y0156231D01*
X0157671Y0155896D01*
X0158228Y0155665D01*
X0158820Y0155547D01*
X0159122Y0155547D01*
X0159122Y0158611D01*
X0156058Y0158611D01*
X0159122Y0158611D01*
X0159122Y0158611D01*
X0159122Y0158611D01*
X0159122Y0155547D01*
X0159424Y0155547D01*
X0160016Y0155665D01*
X0160573Y0155896D01*
X0161075Y0156231D01*
X0161502Y0156658D01*
X0161837Y0157160D01*
X0162068Y0157717D01*
X0162186Y0158309D01*
X0162186Y0158611D01*
X0159122Y0158611D01*
X0159122Y0161675D01*
X0158820Y0161675D01*
X0158228Y0161557D01*
X0157671Y0161326D01*
X0157169Y0160991D01*
X0156742Y0160564D01*
X0156407Y0160062D01*
X0156058Y0158710D02*
X0140775Y0158710D01*
X0140578Y0157111D02*
X0156439Y0157111D01*
X0159122Y0157111D02*
X0159122Y0157111D01*
X0159122Y0158611D02*
X0159122Y0158611D01*
X0159122Y0158611D01*
X0159122Y0161675D01*
X0159424Y0161675D01*
X0160016Y0161557D01*
X0160573Y0161326D01*
X0161075Y0160991D01*
X0161502Y0160564D01*
X0161837Y0160062D01*
X0162068Y0159505D01*
X0162186Y0158913D01*
X0162186Y0158611D01*
X0159122Y0158611D01*
X0159122Y0158710D02*
X0159122Y0158710D01*
X0159122Y0160308D02*
X0159122Y0160308D01*
X0161673Y0160308D02*
X0179188Y0160308D01*
X0177944Y0161907D02*
X0153614Y0161907D01*
X0153535Y0163505D02*
X0177578Y0163505D01*
X0179538Y0157111D02*
X0161805Y0157111D01*
X0162186Y0158710D02*
X0187578Y0158710D01*
X0187578Y0159400D02*
X0187578Y0157789D01*
X0188194Y0156301D01*
X0189333Y0155163D01*
X0190821Y0154546D01*
X0192431Y0154546D01*
X0193919Y0155163D01*
X0195058Y0156301D01*
X0195674Y0157789D01*
X0195674Y0159400D01*
X0195058Y0160887D01*
X0193919Y0162026D01*
X0192431Y0162642D01*
X0190821Y0162642D01*
X0189333Y0162026D01*
X0188194Y0160887D01*
X0187578Y0159400D01*
X0187954Y0160308D02*
X0184065Y0160308D01*
X0185309Y0161907D02*
X0189214Y0161907D01*
X0189997Y0164661D02*
X0190632Y0164454D01*
X0191292Y0164350D01*
X0191540Y0164350D01*
X0191540Y0168509D01*
X0187381Y0168509D01*
X0187381Y0168260D01*
X0187486Y0167600D01*
X0187692Y0166965D01*
X0187996Y0166370D01*
X0188388Y0165829D01*
X0188861Y0165357D01*
X0189401Y0164964D01*
X0189997Y0164661D01*
X0189209Y0165104D02*
X0185383Y0165104D01*
X0185674Y0163505D02*
X0257625Y0163505D01*
X0257625Y0161907D02*
X0194039Y0161907D01*
X0195298Y0160308D02*
X0257625Y0160308D01*
X0257625Y0158710D02*
X0195674Y0158710D01*
X0195393Y0157111D02*
X0257625Y0157111D01*
X0257625Y0155513D02*
X0194269Y0155513D01*
X0193220Y0152316D02*
X0257625Y0152316D01*
X0257625Y0153914D02*
X0185674Y0153914D01*
X0185674Y0154400D02*
X0185058Y0155887D01*
X0183919Y0157026D01*
X0182431Y0157642D01*
X0180821Y0157642D01*
X0179333Y0157026D01*
X0178194Y0155887D01*
X0177578Y0154400D01*
X0177578Y0152789D01*
X0178194Y0151301D01*
X0179333Y0150163D01*
X0180821Y0149546D01*
X0182431Y0149546D01*
X0183919Y0150163D01*
X0185058Y0151301D01*
X0185674Y0152789D01*
X0185674Y0154400D01*
X0185213Y0155513D02*
X0188983Y0155513D01*
X0187859Y0157111D02*
X0183714Y0157111D01*
X0185478Y0152316D02*
X0190032Y0152316D01*
X0189333Y0152026D02*
X0188194Y0150887D01*
X0187578Y0149400D01*
X0187578Y0147789D01*
X0188194Y0146301D01*
X0189333Y0145163D01*
X0190821Y0144546D01*
X0192431Y0144546D01*
X0193919Y0145163D01*
X0195058Y0146301D01*
X0195674Y0147789D01*
X0195674Y0149400D01*
X0195058Y0150887D01*
X0193919Y0152026D01*
X0192431Y0152642D01*
X0190821Y0152642D01*
X0189333Y0152026D01*
X0188124Y0150717D02*
X0184474Y0150717D01*
X0182727Y0147520D02*
X0187690Y0147520D01*
X0187578Y0149119D02*
X0161810Y0149119D01*
X0161837Y0149160D02*
X0162068Y0149717D01*
X0162186Y0150309D01*
X0162186Y0150611D01*
X0159122Y0150611D01*
X0156058Y0150611D01*
X0156058Y0150309D01*
X0156176Y0149717D01*
X0156407Y0149160D01*
X0156742Y0148658D01*
X0157169Y0148231D01*
X0157671Y0147896D01*
X0158228Y0147665D01*
X0158820Y0147547D01*
X0159122Y0147547D01*
X0159122Y0150611D01*
X0159122Y0150611D01*
X0159122Y0150611D01*
X0156058Y0150611D01*
X0156058Y0150913D01*
X0156176Y0151505D01*
X0156407Y0152062D01*
X0156742Y0152564D01*
X0157169Y0152991D01*
X0157671Y0153326D01*
X0158228Y0153557D01*
X0158820Y0153675D01*
X0159122Y0153675D01*
X0159122Y0150611D01*
X0159122Y0147547D01*
X0159424Y0147547D01*
X0160016Y0147665D01*
X0160573Y0147896D01*
X0161075Y0148231D01*
X0161502Y0148658D01*
X0161837Y0149160D01*
X0162186Y0150611D02*
X0159122Y0150611D01*
X0159122Y0150611D01*
X0159122Y0150611D01*
X0159122Y0153675D01*
X0159424Y0153675D01*
X0160016Y0153557D01*
X0160573Y0153326D01*
X0161075Y0152991D01*
X0161502Y0152564D01*
X0161837Y0152062D01*
X0162068Y0151505D01*
X0162186Y0150913D01*
X0162186Y0150611D01*
X0162186Y0150717D02*
X0178779Y0150717D01*
X0177774Y0152316D02*
X0161668Y0152316D01*
X0159122Y0152316D02*
X0159122Y0152316D01*
X0159122Y0150717D02*
X0159122Y0150717D01*
X0159122Y0149119D02*
X0159122Y0149119D01*
X0156434Y0149119D02*
X0036784Y0149119D01*
X0036784Y0150717D02*
X0156058Y0150717D01*
X0156576Y0152316D02*
X0140881Y0152316D01*
X0140746Y0152181D02*
X0141552Y0152987D01*
X0141989Y0154041D01*
X0141989Y0155181D01*
X0141552Y0156235D01*
X0140746Y0157041D01*
X0139692Y0157478D01*
X0138552Y0157478D01*
X0137498Y0157041D01*
X0136692Y0156235D01*
X0136372Y0155464D01*
X0136052Y0156235D01*
X0135246Y0157041D01*
X0134192Y0157478D01*
X0133052Y0157478D01*
X0131998Y0157041D01*
X0131192Y0156235D01*
X0130872Y0155464D01*
X0130552Y0156235D01*
X0129746Y0157041D01*
X0128692Y0157478D01*
X0127552Y0157478D01*
X0126498Y0157041D01*
X0125692Y0156235D01*
X0125255Y0155181D01*
X0125255Y0154041D01*
X0125692Y0152987D01*
X0126498Y0152181D01*
X0127552Y0151744D01*
X0128692Y0151744D01*
X0129746Y0152181D01*
X0130552Y0152987D01*
X0130872Y0153758D01*
X0131192Y0152987D01*
X0131998Y0152181D01*
X0133052Y0151744D01*
X0134192Y0151744D01*
X0135246Y0152181D01*
X0136052Y0152987D01*
X0136372Y0153758D01*
X0136692Y0152987D01*
X0137498Y0152181D01*
X0138552Y0151744D01*
X0139692Y0151744D01*
X0140746Y0152181D01*
X0141937Y0153914D02*
X0177578Y0153914D01*
X0178039Y0155513D02*
X0141852Y0155513D01*
X0137666Y0157111D02*
X0135078Y0157111D01*
X0135275Y0158710D02*
X0137469Y0158710D01*
X0136392Y0155513D02*
X0136352Y0155513D01*
X0135381Y0152316D02*
X0137363Y0152316D01*
X0131863Y0152316D02*
X0129881Y0152316D01*
X0130852Y0155513D02*
X0130892Y0155513D01*
X0132166Y0157111D02*
X0129578Y0157111D01*
X0129775Y0158710D02*
X0131969Y0158710D01*
X0131962Y0163505D02*
X0129782Y0163505D01*
X0129561Y0165104D02*
X0132183Y0165104D01*
X0130895Y0166702D02*
X0130849Y0166702D01*
X0129888Y0169899D02*
X0131856Y0169899D01*
X0135388Y0169899D02*
X0137356Y0169899D01*
X0136395Y0166702D02*
X0136349Y0166702D01*
X0135061Y0165104D02*
X0137683Y0165104D01*
X0137462Y0163505D02*
X0135282Y0163505D01*
X0140888Y0169899D02*
X0148655Y0169899D01*
X0148659Y0168301D02*
X0141939Y0168301D01*
X0141849Y0166702D02*
X0149712Y0166702D01*
X0151622Y0166702D02*
X0151622Y0166702D01*
X0151622Y0168301D02*
X0151622Y0168301D01*
X0148300Y0171498D02*
X0106169Y0171498D01*
X0106186Y0171413D02*
X0106068Y0172005D01*
X0105837Y0172562D01*
X0105502Y0173064D01*
X0105075Y0173491D01*
X0104573Y0173826D01*
X0104016Y0174057D01*
X0103424Y0174175D01*
X0103122Y0174175D01*
X0102820Y0174175D01*
X0102228Y0174057D01*
X0101671Y0173826D01*
X0101169Y0173491D01*
X0100742Y0173064D01*
X0100407Y0172562D01*
X0100176Y0172005D01*
X0100058Y0171413D01*
X0100058Y0171111D01*
X0100058Y0170809D01*
X0100176Y0170217D01*
X0100407Y0169660D01*
X0100742Y0169158D01*
X0101169Y0168731D01*
X0101671Y0168396D01*
X0102228Y0168165D01*
X0102820Y0168047D01*
X0103122Y0168047D01*
X0103122Y0171111D01*
X0100058Y0171111D01*
X0103122Y0171111D01*
X0103122Y0171111D01*
X0103122Y0171111D01*
X0103122Y0168047D01*
X0103424Y0168047D01*
X0104016Y0168165D01*
X0104573Y0168396D01*
X0105075Y0168731D01*
X0105502Y0169158D01*
X0105837Y0169660D01*
X0106068Y0170217D01*
X0106186Y0170809D01*
X0106186Y0171111D01*
X0103122Y0171111D01*
X0103122Y0174175D01*
X0103122Y0171111D01*
X0103122Y0171111D01*
X0103122Y0171111D01*
X0106186Y0171111D01*
X0106186Y0171413D01*
X0105936Y0169899D02*
X0126356Y0169899D01*
X0125305Y0168301D02*
X0104344Y0168301D01*
X0103122Y0168301D02*
X0103122Y0168301D01*
X0101900Y0168301D02*
X0100555Y0168301D01*
X0100423Y0168621D02*
X0099616Y0169427D01*
X0098562Y0169864D01*
X0097422Y0169864D01*
X0096368Y0169427D01*
X0095562Y0168621D01*
X0095125Y0167567D01*
X0095125Y0166427D01*
X0095562Y0165373D01*
X0096368Y0164566D01*
X0097422Y0164130D01*
X0098562Y0164130D01*
X0099616Y0164566D01*
X0100423Y0165373D01*
X0100859Y0166427D01*
X0100859Y0167567D01*
X0100423Y0168621D01*
X0100308Y0169899D02*
X0057280Y0169899D01*
X0057487Y0169813D02*
X0055873Y0170482D01*
X0054127Y0170482D01*
X0052513Y0169813D01*
X0051278Y0168578D01*
X0050609Y0166965D01*
X0050609Y0165218D01*
X0051278Y0163604D01*
X0052513Y0162369D01*
X0054127Y0161701D01*
X0055873Y0161701D01*
X0057487Y0162369D01*
X0058722Y0163604D01*
X0059391Y0165218D01*
X0059391Y0166965D01*
X0058722Y0168578D01*
X0057487Y0169813D01*
X0058837Y0168301D02*
X0095429Y0168301D01*
X0095125Y0166702D02*
X0059391Y0166702D01*
X0059343Y0165104D02*
X0095831Y0165104D01*
X0100153Y0165104D02*
X0126683Y0165104D01*
X0126462Y0163505D02*
X0058623Y0163505D01*
X0056371Y0161907D02*
X0125349Y0161907D01*
X0125351Y0160308D02*
X0056828Y0160308D01*
X0056761Y0160343D02*
X0056074Y0160566D01*
X0055361Y0160679D01*
X0055200Y0160679D01*
X0055200Y0156291D01*
X0059587Y0156291D01*
X0059587Y0156452D01*
X0059474Y0157166D01*
X0059251Y0157852D01*
X0058923Y0158496D01*
X0058499Y0159080D01*
X0057988Y0159590D01*
X0057404Y0160015D01*
X0056761Y0160343D01*
X0055200Y0160308D02*
X0054800Y0160308D01*
X0054800Y0160679D02*
X0054639Y0160679D01*
X0053926Y0160566D01*
X0053239Y0160343D01*
X0052596Y0160015D01*
X0052012Y0159590D01*
X0051501Y0159080D01*
X0051077Y0158496D01*
X0050749Y0157852D01*
X0050526Y0157166D01*
X0050413Y0156452D01*
X0050413Y0156291D01*
X0054800Y0156291D01*
X0054800Y0155891D01*
X0055200Y0155891D01*
X0055200Y0151504D01*
X0055361Y0151504D01*
X0056074Y0151617D01*
X0056761Y0151840D01*
X0057404Y0152168D01*
X0057988Y0152592D01*
X0058499Y0153103D01*
X0058923Y0153687D01*
X0059251Y0154330D01*
X0059474Y0155017D01*
X0059587Y0155730D01*
X0059587Y0155891D01*
X0055200Y0155891D01*
X0055200Y0156291D01*
X0054800Y0156291D01*
X0054800Y0160679D01*
X0053172Y0160308D02*
X0036784Y0160308D01*
X0036784Y0158710D02*
X0051232Y0158710D01*
X0050517Y0157111D02*
X0036784Y0157111D01*
X0036784Y0155513D02*
X0050447Y0155513D01*
X0050413Y0155730D02*
X0050526Y0155017D01*
X0050749Y0154330D01*
X0051077Y0153687D01*
X0051501Y0153103D01*
X0052012Y0152592D01*
X0052596Y0152168D01*
X0053239Y0151840D01*
X0053926Y0151617D01*
X0054639Y0151504D01*
X0054800Y0151504D01*
X0054800Y0155891D01*
X0050413Y0155891D01*
X0050413Y0155730D01*
X0050961Y0153914D02*
X0036784Y0153914D01*
X0036784Y0152316D02*
X0052392Y0152316D01*
X0054800Y0152316D02*
X0055200Y0152316D01*
X0055200Y0153914D02*
X0054800Y0153914D01*
X0054800Y0155513D02*
X0055200Y0155513D01*
X0055200Y0157111D02*
X0054800Y0157111D01*
X0054800Y0158710D02*
X0055200Y0158710D01*
X0058768Y0158710D02*
X0126469Y0158710D01*
X0126666Y0157111D02*
X0059483Y0157111D01*
X0059553Y0155513D02*
X0125392Y0155513D01*
X0125308Y0153914D02*
X0059039Y0153914D01*
X0057608Y0152316D02*
X0126363Y0152316D01*
X0125516Y0148557D02*
X0124924Y0148675D01*
X0124622Y0148675D01*
X0124320Y0148675D01*
X0123728Y0148557D01*
X0123171Y0148326D01*
X0122669Y0147991D01*
X0122242Y0147564D01*
X0121907Y0147062D01*
X0121676Y0146505D01*
X0121558Y0145913D01*
X0121558Y0145611D01*
X0121558Y0145309D01*
X0121676Y0144717D01*
X0121907Y0144160D01*
X0122242Y0143658D01*
X0122669Y0143231D01*
X0123171Y0142896D01*
X0123728Y0142665D01*
X0124320Y0142547D01*
X0124622Y0142547D01*
X0124622Y0145611D01*
X0121558Y0145611D01*
X0124622Y0145611D01*
X0124622Y0145611D01*
X0124622Y0145611D01*
X0124622Y0142547D01*
X0124924Y0142547D01*
X0125516Y0142665D01*
X0126073Y0142896D01*
X0126575Y0143231D01*
X0127002Y0143658D01*
X0127337Y0144160D01*
X0127568Y0144717D01*
X0127686Y0145309D01*
X0127686Y0145611D01*
X0124622Y0145611D01*
X0124622Y0148675D01*
X0124622Y0145611D01*
X0124622Y0145611D01*
X0124622Y0145611D01*
X0127686Y0145611D01*
X0127686Y0145913D01*
X0127568Y0146505D01*
X0127337Y0147062D01*
X0127002Y0147564D01*
X0126575Y0147991D01*
X0126073Y0148326D01*
X0125516Y0148557D01*
X0124622Y0147520D02*
X0124622Y0147520D01*
X0124622Y0145922D02*
X0124622Y0145922D01*
X0124622Y0144323D02*
X0124622Y0144323D01*
X0124622Y0142725D02*
X0124622Y0142725D01*
X0123584Y0142725D02*
X0116341Y0142725D01*
X0116502Y0142564D02*
X0116075Y0142991D01*
X0115573Y0143326D01*
X0115016Y0143557D01*
X0114424Y0143675D01*
X0114122Y0143675D01*
X0113820Y0143675D01*
X0113228Y0143557D01*
X0112671Y0143326D01*
X0112169Y0142991D01*
X0111742Y0142564D01*
X0111407Y0142062D01*
X0111176Y0141505D01*
X0111058Y0140913D01*
X0111058Y0140611D01*
X0111058Y0140309D01*
X0111176Y0139717D01*
X0111407Y0139160D01*
X0111742Y0138658D01*
X0112169Y0138231D01*
X0112671Y0137896D01*
X0113228Y0137665D01*
X0113820Y0137547D01*
X0114122Y0137547D01*
X0114122Y0140611D01*
X0111058Y0140611D01*
X0114122Y0140611D01*
X0114122Y0140611D01*
X0114122Y0140611D01*
X0114122Y0137547D01*
X0114424Y0137547D01*
X0115016Y0137665D01*
X0115573Y0137896D01*
X0116075Y0138231D01*
X0116502Y0138658D01*
X0116837Y0139160D01*
X0117068Y0139717D01*
X0117186Y0140309D01*
X0117186Y0140611D01*
X0114122Y0140611D01*
X0114122Y0143675D01*
X0114122Y0140611D01*
X0114122Y0140611D01*
X0114122Y0140611D01*
X0117186Y0140611D01*
X0117186Y0140913D01*
X0117068Y0141505D01*
X0116837Y0142062D01*
X0116502Y0142564D01*
X0117143Y0141126D02*
X0157371Y0141126D01*
X0157169Y0140991D02*
X0156742Y0140564D01*
X0156407Y0140062D01*
X0156176Y0139505D01*
X0156058Y0138913D01*
X0156058Y0138611D01*
X0156058Y0138309D01*
X0156176Y0137717D01*
X0156407Y0137160D01*
X0156742Y0136658D01*
X0157169Y0136231D01*
X0157671Y0135896D01*
X0158228Y0135665D01*
X0158820Y0135547D01*
X0159122Y0135547D01*
X0159122Y0138611D01*
X0156058Y0138611D01*
X0159122Y0138611D01*
X0159122Y0138611D01*
X0159122Y0138611D01*
X0159122Y0135547D01*
X0159424Y0135547D01*
X0160016Y0135665D01*
X0160573Y0135896D01*
X0161075Y0136231D01*
X0161502Y0136658D01*
X0161837Y0137160D01*
X0162068Y0137717D01*
X0162186Y0138309D01*
X0162186Y0138611D01*
X0159122Y0138611D01*
X0159122Y0141675D01*
X0158820Y0141675D01*
X0158228Y0141557D01*
X0157671Y0141326D01*
X0157169Y0140991D01*
X0156186Y0139528D02*
X0116989Y0139528D01*
X0115623Y0137929D02*
X0156134Y0137929D01*
X0157070Y0136331D02*
X0036784Y0136331D01*
X0036784Y0137929D02*
X0112621Y0137929D01*
X0114122Y0137929D02*
X0114122Y0137929D01*
X0114122Y0139528D02*
X0114122Y0139528D01*
X0114122Y0141126D02*
X0114122Y0141126D01*
X0114122Y0142725D02*
X0114122Y0142725D01*
X0111903Y0142725D02*
X0110186Y0142725D01*
X0110186Y0142850D02*
X0110068Y0143442D01*
X0109837Y0143999D01*
X0109502Y0144501D01*
X0109075Y0144928D01*
X0108573Y0145263D01*
X0108016Y0145494D01*
X0107424Y0145612D01*
X0107122Y0145612D01*
X0106820Y0145612D01*
X0106228Y0145494D01*
X0105671Y0145263D01*
X0105169Y0144928D01*
X0104742Y0144501D01*
X0104407Y0143999D01*
X0104176Y0143442D01*
X0104058Y0142850D01*
X0104058Y0142548D01*
X0104058Y0142246D01*
X0104176Y0141654D01*
X0104407Y0141097D01*
X0104742Y0140595D01*
X0105169Y0140168D01*
X0105671Y0139833D01*
X0106228Y0139602D01*
X0106820Y0139484D01*
X0107122Y0139484D01*
X0107122Y0142548D01*
X0104058Y0142548D01*
X0107122Y0142548D01*
X0107122Y0142548D01*
X0107122Y0142548D01*
X0107122Y0139484D01*
X0107424Y0139484D01*
X0108016Y0139602D01*
X0108573Y0139833D01*
X0109075Y0140168D01*
X0109502Y0140595D01*
X0109837Y0141097D01*
X0110068Y0141654D01*
X0110186Y0142246D01*
X0110186Y0142548D01*
X0107122Y0142548D01*
X0107122Y0145612D01*
X0107122Y0142548D01*
X0107122Y0142548D01*
X0107122Y0142548D01*
X0110186Y0142548D01*
X0110186Y0142850D01*
X0109621Y0144323D02*
X0121839Y0144323D01*
X0121560Y0145922D02*
X0076042Y0145922D01*
X0076016Y0145948D02*
X0075514Y0146283D01*
X0074957Y0146514D01*
X0074365Y0146631D01*
X0074063Y0146631D01*
X0073761Y0146631D01*
X0073169Y0146514D01*
X0072612Y0146283D01*
X0072110Y0145948D01*
X0071683Y0145521D01*
X0071348Y0145019D01*
X0071117Y0144461D01*
X0070999Y0143869D01*
X0070999Y0143568D01*
X0074063Y0143568D01*
X0074063Y0143568D01*
X0074063Y0146631D01*
X0074063Y0143568D01*
X0077127Y0143568D01*
X0077127Y0143869D01*
X0077009Y0144461D01*
X0076778Y0145019D01*
X0076443Y0145521D01*
X0076016Y0145948D01*
X0077037Y0144323D02*
X0104623Y0144323D01*
X0104058Y0142725D02*
X0077019Y0142725D01*
X0077009Y0142674D02*
X0077127Y0143266D01*
X0077127Y0143568D01*
X0074063Y0143568D01*
X0074063Y0143568D01*
X0074063Y0143568D01*
X0070999Y0143568D01*
X0070999Y0143266D01*
X0071117Y0142674D01*
X0071348Y0142116D01*
X0071683Y0141615D01*
X0072110Y0141188D01*
X0072612Y0140853D01*
X0073169Y0140622D01*
X0073761Y0140504D01*
X0074063Y0140504D01*
X0074365Y0140504D01*
X0074957Y0140622D01*
X0075514Y0140853D01*
X0076016Y0141188D01*
X0076443Y0141615D01*
X0076778Y0142116D01*
X0077009Y0142674D01*
X0075924Y0141126D02*
X0104395Y0141126D01*
X0106602Y0139528D02*
X0036784Y0139528D01*
X0036784Y0141126D02*
X0072202Y0141126D01*
X0074063Y0141126D02*
X0074063Y0141126D01*
X0074063Y0140504D02*
X0074063Y0143568D01*
X0074063Y0143568D01*
X0074063Y0140504D01*
X0074063Y0142725D02*
X0074063Y0142725D01*
X0074063Y0144323D02*
X0074063Y0144323D01*
X0074063Y0145922D02*
X0074063Y0145922D01*
X0072084Y0145922D02*
X0036784Y0145922D01*
X0036784Y0147520D02*
X0122213Y0147520D01*
X0127031Y0147520D02*
X0180526Y0147520D01*
X0180821Y0147642D02*
X0179333Y0147026D01*
X0178194Y0145887D01*
X0177578Y0144400D01*
X0177578Y0142789D01*
X0178194Y0141301D01*
X0179333Y0140163D01*
X0180821Y0139546D01*
X0182431Y0139546D01*
X0183919Y0140163D01*
X0185058Y0141301D01*
X0185674Y0142789D01*
X0185674Y0144400D01*
X0185058Y0145887D01*
X0183919Y0147026D01*
X0182431Y0147642D01*
X0180821Y0147642D01*
X0178229Y0145922D02*
X0127684Y0145922D01*
X0127405Y0144323D02*
X0177578Y0144323D01*
X0177605Y0142725D02*
X0125660Y0142725D01*
X0111101Y0141126D02*
X0109849Y0141126D01*
X0111255Y0139528D02*
X0107642Y0139528D01*
X0107122Y0139528D02*
X0107122Y0139528D01*
X0107122Y0141126D02*
X0107122Y0141126D01*
X0107122Y0142725D02*
X0107122Y0142725D01*
X0107122Y0144323D02*
X0107122Y0144323D01*
X0100859Y0166702D02*
X0125395Y0166702D01*
X0124634Y0174039D02*
X0123611Y0174039D01*
X0122665Y0174431D01*
X0121942Y0175154D01*
X0121550Y0176099D01*
X0121550Y0177123D01*
X0121942Y0178068D01*
X0122665Y0178791D01*
X0123611Y0179183D01*
X0124634Y0179183D01*
X0125579Y0178791D01*
X0126302Y0178068D01*
X0126694Y0177123D01*
X0126694Y0176099D01*
X0126302Y0175154D01*
X0125579Y0174431D01*
X0124634Y0174039D01*
X0125843Y0174695D02*
X0149069Y0174695D01*
X0149634Y0176293D02*
X0134092Y0176293D01*
X0131622Y0176293D02*
X0131622Y0176293D01*
X0131622Y0177892D02*
X0131622Y0177892D01*
X0131622Y0179490D02*
X0131622Y0179490D01*
X0131622Y0181089D02*
X0131622Y0181089D01*
X0130888Y0181089D02*
X0036784Y0181089D01*
X0036784Y0182687D02*
X0128723Y0182687D01*
X0128063Y0184286D02*
X0036784Y0184286D01*
X0036784Y0185884D02*
X0128333Y0185884D01*
X0131122Y0185884D02*
X0131122Y0185884D01*
X0131122Y0184286D02*
X0131122Y0184286D01*
X0131122Y0182687D02*
X0131122Y0182687D01*
X0128877Y0179490D02*
X0036784Y0179490D01*
X0036784Y0177892D02*
X0121869Y0177892D01*
X0121550Y0176293D02*
X0036784Y0176293D01*
X0036784Y0174695D02*
X0122401Y0174695D01*
X0126694Y0176293D02*
X0129152Y0176293D01*
X0128558Y0177892D02*
X0126375Y0177892D01*
X0105470Y0173096D02*
X0148050Y0173096D01*
X0152622Y0176293D02*
X0152622Y0176293D01*
X0159122Y0177892D02*
X0159122Y0177892D01*
X0159122Y0179490D02*
X0159122Y0179490D01*
X0159122Y0179611D02*
X0159122Y0179611D01*
X0159122Y0179611D01*
X0159122Y0182675D01*
X0159424Y0182675D01*
X0160016Y0182557D01*
X0160573Y0182326D01*
X0161075Y0181991D01*
X0161502Y0181564D01*
X0161837Y0181062D01*
X0162068Y0180505D01*
X0162186Y0179913D01*
X0162186Y0179611D01*
X0159122Y0179611D01*
X0159122Y0181089D02*
X0159122Y0181089D01*
X0161819Y0181089D02*
X0188396Y0181089D01*
X0188194Y0180887D02*
X0187578Y0179400D01*
X0187578Y0177789D01*
X0188194Y0176301D01*
X0189333Y0175163D01*
X0190821Y0174546D01*
X0192431Y0174546D01*
X0193919Y0175163D01*
X0195058Y0176301D01*
X0195674Y0177789D01*
X0195674Y0179400D01*
X0195058Y0180887D01*
X0193919Y0182026D01*
X0192431Y0182642D01*
X0190821Y0182642D01*
X0189333Y0182026D01*
X0188194Y0180887D01*
X0187616Y0179490D02*
X0162186Y0179490D01*
X0161658Y0177892D02*
X0187578Y0177892D01*
X0188202Y0176293D02*
X0184652Y0176293D01*
X0185552Y0174695D02*
X0190463Y0174695D01*
X0190632Y0172735D02*
X0189997Y0172528D01*
X0189401Y0172225D01*
X0188861Y0171832D01*
X0188388Y0171360D01*
X0187996Y0170819D01*
X0187692Y0170224D01*
X0187486Y0169588D01*
X0187381Y0168929D01*
X0187381Y0168680D01*
X0191540Y0168680D01*
X0191540Y0168509D01*
X0191712Y0168509D01*
X0191712Y0168680D01*
X0195871Y0168680D01*
X0195871Y0168929D01*
X0195766Y0169588D01*
X0195560Y0170224D01*
X0195257Y0170819D01*
X0194864Y0171360D01*
X0194391Y0171832D01*
X0193851Y0172225D01*
X0193256Y0172528D01*
X0192620Y0172735D01*
X0191960Y0172839D01*
X0191712Y0172839D01*
X0191712Y0168680D01*
X0191540Y0168680D01*
X0191540Y0172839D01*
X0191292Y0172839D01*
X0190632Y0172735D01*
X0191540Y0171498D02*
X0191712Y0171498D01*
X0191712Y0169899D02*
X0191540Y0169899D01*
X0191712Y0168509D02*
X0195871Y0168509D01*
X0195871Y0168260D01*
X0195766Y0167600D01*
X0195560Y0166965D01*
X0195257Y0166370D01*
X0194864Y0165829D01*
X0194391Y0165357D01*
X0193851Y0164964D01*
X0193256Y0164661D01*
X0192620Y0164454D01*
X0191960Y0164350D01*
X0191712Y0164350D01*
X0191712Y0168509D01*
X0191712Y0168301D02*
X0191540Y0168301D01*
X0191540Y0166702D02*
X0191712Y0166702D01*
X0191712Y0165104D02*
X0191540Y0165104D01*
X0194043Y0165104D02*
X0257625Y0165104D01*
X0257625Y0166702D02*
X0195426Y0166702D01*
X0195871Y0168301D02*
X0257625Y0168301D01*
X0257625Y0169899D02*
X0195665Y0169899D01*
X0194726Y0171498D02*
X0257625Y0171498D01*
X0257625Y0173096D02*
X0232748Y0173096D01*
X0232219Y0172567D02*
X0233357Y0173705D01*
X0233974Y0175193D01*
X0233974Y0176804D01*
X0233357Y0178291D01*
X0232219Y0179430D01*
X0230731Y0180046D01*
X0229120Y0180046D01*
X0227633Y0179430D01*
X0226494Y0178291D01*
X0225878Y0176804D01*
X0225878Y0175193D01*
X0226494Y0173705D01*
X0227633Y0172567D01*
X0229120Y0171950D01*
X0230731Y0171950D01*
X0232219Y0172567D01*
X0233767Y0174695D02*
X0257625Y0174695D01*
X0257625Y0176293D02*
X0233974Y0176293D01*
X0233523Y0177892D02*
X0257625Y0177892D01*
X0257625Y0179490D02*
X0232073Y0179490D01*
X0233619Y0182559D02*
X0232480Y0183698D01*
X0231864Y0185186D01*
X0231864Y0186796D01*
X0232480Y0188284D01*
X0233619Y0189423D01*
X0235107Y0190039D01*
X0236717Y0190039D01*
X0238205Y0189423D01*
X0239344Y0188284D01*
X0239960Y0186796D01*
X0239960Y0185186D01*
X0239344Y0183698D01*
X0238205Y0182559D01*
X0236717Y0181943D01*
X0235107Y0181943D01*
X0233619Y0182559D01*
X0233491Y0182687D02*
X0224906Y0182687D01*
X0224906Y0184286D02*
X0232237Y0184286D01*
X0231864Y0185884D02*
X0224640Y0185884D01*
X0223978Y0187483D02*
X0232148Y0187483D01*
X0233278Y0189081D02*
X0222849Y0189081D01*
X0221158Y0190680D02*
X0257625Y0190680D01*
X0257625Y0189081D02*
X0238546Y0189081D01*
X0239676Y0187483D02*
X0257625Y0187483D01*
X0257625Y0185884D02*
X0239960Y0185884D01*
X0239587Y0184286D02*
X0257625Y0184286D01*
X0257625Y0182687D02*
X0238333Y0182687D01*
X0227778Y0179490D02*
X0223889Y0179490D01*
X0224551Y0181089D02*
X0257625Y0181089D01*
X0257625Y0198673D02*
X0128922Y0198673D01*
X0128032Y0200271D02*
X0257625Y0200271D01*
X0226328Y0177892D02*
X0222634Y0177892D01*
X0220637Y0176293D02*
X0225878Y0176293D01*
X0226084Y0174695D02*
X0192790Y0174695D01*
X0195050Y0176293D02*
X0202652Y0176293D01*
X0202742Y0176158D02*
X0203169Y0175731D01*
X0203671Y0175396D01*
X0204228Y0175165D01*
X0204820Y0175047D01*
X0205122Y0175047D01*
X0205122Y0178111D01*
X0202058Y0178111D01*
X0202058Y0177809D01*
X0202176Y0177217D01*
X0202407Y0176660D01*
X0202742Y0176158D01*
X0202058Y0177892D02*
X0195674Y0177892D01*
X0195637Y0179490D02*
X0202377Y0179490D01*
X0202407Y0179562D02*
X0202176Y0179005D01*
X0202058Y0178413D01*
X0202058Y0178111D01*
X0205122Y0178111D01*
X0205122Y0178111D01*
X0205122Y0178111D01*
X0205122Y0175047D01*
X0205424Y0175047D01*
X0206016Y0175165D01*
X0206573Y0175396D01*
X0207075Y0175731D01*
X0207502Y0176158D01*
X0207837Y0176660D01*
X0208068Y0177217D01*
X0208186Y0177809D01*
X0208186Y0178111D01*
X0205122Y0178111D01*
X0205122Y0181175D01*
X0204820Y0181175D01*
X0204228Y0181057D01*
X0203671Y0180826D01*
X0203169Y0180491D01*
X0202742Y0180064D01*
X0202407Y0179562D01*
X0204388Y0181089D02*
X0194856Y0181089D01*
X0188526Y0171498D02*
X0185139Y0171498D01*
X0185674Y0173096D02*
X0227103Y0173096D01*
X0212615Y0176293D02*
X0207592Y0176293D01*
X0208186Y0177892D02*
X0210619Y0177892D01*
X0209364Y0179490D02*
X0207867Y0179490D01*
X0207837Y0179562D02*
X0207502Y0180064D01*
X0207075Y0180491D01*
X0206573Y0180826D01*
X0206016Y0181057D01*
X0205424Y0181175D01*
X0205122Y0181175D01*
X0205122Y0178111D01*
X0205122Y0178111D01*
X0205122Y0178111D01*
X0208186Y0178111D01*
X0208186Y0178413D01*
X0208068Y0179005D01*
X0207837Y0179562D01*
X0208701Y0181089D02*
X0205856Y0181089D01*
X0205122Y0181089D02*
X0205122Y0181089D01*
X0205122Y0179490D02*
X0205122Y0179490D01*
X0205122Y0177892D02*
X0205122Y0177892D01*
X0205122Y0176293D02*
X0205122Y0176293D01*
X0187587Y0169899D02*
X0183283Y0169899D01*
X0179969Y0169899D02*
X0162104Y0169899D01*
X0162068Y0169717D02*
X0162186Y0170309D01*
X0162186Y0170611D01*
X0159122Y0170611D01*
X0159122Y0167547D01*
X0159424Y0167547D01*
X0160016Y0167665D01*
X0160573Y0167896D01*
X0161075Y0168231D01*
X0161502Y0168658D01*
X0161837Y0169160D01*
X0162068Y0169717D01*
X0162186Y0170611D02*
X0159122Y0170611D01*
X0159122Y0170611D01*
X0159122Y0170611D01*
X0159122Y0173675D01*
X0159424Y0173675D01*
X0160016Y0173557D01*
X0160573Y0173326D01*
X0161075Y0172991D01*
X0161502Y0172564D01*
X0161837Y0172062D01*
X0162068Y0171505D01*
X0162186Y0170913D01*
X0162186Y0170611D01*
X0162069Y0171498D02*
X0178113Y0171498D01*
X0177578Y0173096D02*
X0160917Y0173096D01*
X0159122Y0173096D02*
X0159122Y0173096D01*
X0159122Y0171498D02*
X0159122Y0171498D01*
X0159122Y0169899D02*
X0159122Y0169899D01*
X0159122Y0168301D02*
X0159122Y0168301D01*
X0161145Y0168301D02*
X0187381Y0168301D01*
X0187826Y0166702D02*
X0184243Y0166702D01*
X0195128Y0150717D02*
X0257625Y0150717D01*
X0257625Y0149119D02*
X0238711Y0149119D01*
X0238203Y0149627D02*
X0236715Y0150243D01*
X0235105Y0150243D01*
X0233617Y0149627D01*
X0232478Y0148488D01*
X0231862Y0147000D01*
X0231862Y0145390D01*
X0232478Y0143902D01*
X0233617Y0142763D01*
X0235105Y0142147D01*
X0236715Y0142147D01*
X0238203Y0142763D01*
X0239342Y0143902D01*
X0239958Y0145390D01*
X0239958Y0147000D01*
X0239342Y0148488D01*
X0238203Y0149627D01*
X0239743Y0147520D02*
X0257625Y0147520D01*
X0257625Y0145922D02*
X0239958Y0145922D01*
X0239516Y0144323D02*
X0257625Y0144323D01*
X0257625Y0142725D02*
X0238109Y0142725D01*
X0233711Y0142725D02*
X0223878Y0142725D01*
X0223646Y0143285D02*
X0221317Y0145614D01*
X0218273Y0146875D01*
X0214979Y0146875D01*
X0211936Y0145614D01*
X0209606Y0143285D01*
X0208346Y0140242D01*
X0208346Y0136947D01*
X0209606Y0133904D01*
X0211936Y0131575D01*
X0214979Y0130314D01*
X0218273Y0130314D01*
X0221317Y0131575D01*
X0223646Y0133904D01*
X0224906Y0136947D01*
X0224906Y0140242D01*
X0223646Y0143285D01*
X0222608Y0144323D02*
X0232304Y0144323D01*
X0231862Y0145922D02*
X0220574Y0145922D01*
X0224540Y0141126D02*
X0257625Y0141126D01*
X0257625Y0139528D02*
X0232313Y0139528D01*
X0232221Y0139620D02*
X0230733Y0140236D01*
X0229122Y0140236D01*
X0227635Y0139620D01*
X0226496Y0138481D01*
X0225880Y0136993D01*
X0225880Y0135383D01*
X0226496Y0133895D01*
X0227635Y0132756D01*
X0229122Y0132140D01*
X0230733Y0132140D01*
X0232221Y0132756D01*
X0233359Y0133895D01*
X0233976Y0135383D01*
X0233976Y0136993D01*
X0233359Y0138481D01*
X0232221Y0139620D01*
X0233588Y0137929D02*
X0257625Y0137929D01*
X0257625Y0136331D02*
X0233976Y0136331D01*
X0233706Y0134732D02*
X0257625Y0134732D01*
X0257625Y0133134D02*
X0232598Y0133134D01*
X0227257Y0133134D02*
X0222875Y0133134D01*
X0223989Y0134732D02*
X0226149Y0134732D01*
X0225880Y0136331D02*
X0224651Y0136331D01*
X0224906Y0137929D02*
X0226267Y0137929D01*
X0227543Y0139528D02*
X0224906Y0139528D01*
X0221221Y0131535D02*
X0257625Y0131535D01*
X0257625Y0129937D02*
X0210733Y0129937D01*
X0210733Y0128874D02*
X0209802Y0126627D01*
X0208082Y0124906D01*
X0205835Y0123976D01*
X0203402Y0123976D01*
X0201154Y0124906D01*
X0199434Y0126627D01*
X0198503Y0128874D01*
X0198503Y0131307D01*
X0199434Y0133554D01*
X0201154Y0135275D01*
X0203402Y0136205D01*
X0205835Y0136205D01*
X0208082Y0135275D01*
X0209802Y0133554D01*
X0210733Y0131307D01*
X0210733Y0128874D01*
X0210511Y0128338D02*
X0257625Y0128338D01*
X0257625Y0126740D02*
X0209849Y0126740D01*
X0208317Y0125141D02*
X0257625Y0125141D01*
X0257625Y0123542D02*
X0036784Y0123542D01*
X0036784Y0121944D02*
X0257625Y0121944D01*
X0257625Y0120345D02*
X0036784Y0120345D01*
X0036784Y0118747D02*
X0257625Y0118747D01*
X0257625Y0117148D02*
X0212339Y0117148D01*
X0212575Y0116991D02*
X0212073Y0117326D01*
X0211516Y0117557D01*
X0210924Y0117675D01*
X0210622Y0117675D01*
X0210320Y0117675D01*
X0209728Y0117557D01*
X0209171Y0117326D01*
X0208669Y0116991D01*
X0208242Y0116564D01*
X0207907Y0116062D01*
X0207676Y0115505D01*
X0207558Y0114913D01*
X0207558Y0114611D01*
X0207558Y0114309D01*
X0207676Y0113717D01*
X0207907Y0113160D01*
X0208242Y0112658D01*
X0208669Y0112231D01*
X0209171Y0111896D01*
X0209728Y0111665D01*
X0210320Y0111547D01*
X0210622Y0111547D01*
X0210622Y0114611D01*
X0207558Y0114611D01*
X0210622Y0114611D01*
X0210622Y0114611D01*
X0210622Y0114611D01*
X0210622Y0111547D01*
X0210924Y0111547D01*
X0211516Y0111665D01*
X0212073Y0111896D01*
X0212575Y0112231D01*
X0213002Y0112658D01*
X0213337Y0113160D01*
X0213568Y0113717D01*
X0213686Y0114309D01*
X0213686Y0114611D01*
X0210622Y0114611D01*
X0210622Y0117675D01*
X0210622Y0114611D01*
X0210622Y0114611D01*
X0210622Y0114611D01*
X0213686Y0114611D01*
X0213686Y0114913D01*
X0213568Y0115505D01*
X0213337Y0116062D01*
X0213002Y0116564D01*
X0212575Y0116991D01*
X0213549Y0115550D02*
X0257625Y0115550D01*
X0257625Y0113951D02*
X0213615Y0113951D01*
X0212697Y0112353D02*
X0257625Y0112353D01*
X0257625Y0110754D02*
X0036784Y0110754D01*
X0036784Y0109156D02*
X0257625Y0109156D01*
X0257625Y0107557D02*
X0036784Y0107557D01*
X0036784Y0105959D02*
X0257625Y0105959D01*
X0257625Y0104360D02*
X0173314Y0104360D01*
X0173078Y0104458D02*
X0171331Y0104458D01*
X0169718Y0103790D01*
X0168483Y0102555D01*
X0167814Y0100941D01*
X0167814Y0099194D01*
X0168483Y0097581D01*
X0169718Y0096346D01*
X0171331Y0095677D01*
X0173078Y0095677D01*
X0174692Y0096346D01*
X0175927Y0097581D01*
X0176595Y0099194D01*
X0176595Y0100941D01*
X0175927Y0102555D01*
X0174692Y0103790D01*
X0173078Y0104458D01*
X0171095Y0104360D02*
X0163314Y0104360D01*
X0163078Y0104458D02*
X0161331Y0104458D01*
X0159718Y0103790D01*
X0158483Y0102555D01*
X0157814Y0100941D01*
X0157814Y0099194D01*
X0158483Y0097581D01*
X0159718Y0096346D01*
X0161331Y0095677D01*
X0163078Y0095677D01*
X0164692Y0096346D01*
X0165927Y0097581D01*
X0166595Y0099194D01*
X0166595Y0100941D01*
X0165927Y0102555D01*
X0164692Y0103790D01*
X0163078Y0104458D01*
X0161095Y0104360D02*
X0153314Y0104360D01*
X0153078Y0104458D02*
X0151331Y0104458D01*
X0149718Y0103790D01*
X0148483Y0102555D01*
X0147814Y0100941D01*
X0147814Y0099194D01*
X0148483Y0097581D01*
X0149718Y0096346D01*
X0151331Y0095677D01*
X0153078Y0095677D01*
X0154692Y0096346D01*
X0155927Y0097581D01*
X0156595Y0099194D01*
X0156595Y0100941D01*
X0155927Y0102555D01*
X0154692Y0103790D01*
X0153078Y0104458D01*
X0151095Y0104360D02*
X0143314Y0104360D01*
X0143078Y0104458D02*
X0141331Y0104458D01*
X0139718Y0103790D01*
X0138483Y0102555D01*
X0137814Y0100941D01*
X0137814Y0099194D01*
X0138483Y0097581D01*
X0139718Y0096346D01*
X0141331Y0095677D01*
X0143078Y0095677D01*
X0144692Y0096346D01*
X0145927Y0097581D01*
X0146595Y0099194D01*
X0146595Y0100941D01*
X0145927Y0102555D01*
X0144692Y0103790D01*
X0143078Y0104458D01*
X0141095Y0104360D02*
X0133314Y0104360D01*
X0133078Y0104458D02*
X0131331Y0104458D01*
X0129718Y0103790D01*
X0128483Y0102555D01*
X0127814Y0100941D01*
X0127814Y0099194D01*
X0128483Y0097581D01*
X0129718Y0096346D01*
X0131331Y0095677D01*
X0133078Y0095677D01*
X0134692Y0096346D01*
X0135927Y0097581D01*
X0136595Y0099194D01*
X0136595Y0100941D01*
X0135927Y0102555D01*
X0134692Y0103790D01*
X0133078Y0104458D01*
X0131095Y0104360D02*
X0123314Y0104360D01*
X0123078Y0104458D02*
X0121331Y0104458D01*
X0119718Y0103790D01*
X0118483Y0102555D01*
X0117814Y0100941D01*
X0117814Y0099194D01*
X0118483Y0097581D01*
X0119718Y0096346D01*
X0121331Y0095677D01*
X0123078Y0095677D01*
X0124692Y0096346D01*
X0125927Y0097581D01*
X0126595Y0099194D01*
X0126595Y0100941D01*
X0125927Y0102555D01*
X0124692Y0103790D01*
X0123078Y0104458D01*
X0121095Y0104360D02*
X0036784Y0104360D01*
X0036784Y0102762D02*
X0046663Y0102762D01*
X0046392Y0102650D02*
X0044229Y0100487D01*
X0043058Y0097660D01*
X0043058Y0094601D01*
X0044229Y0091775D01*
X0046392Y0089612D01*
X0049218Y0088441D01*
X0052278Y0088441D01*
X0055104Y0089612D01*
X0057267Y0091775D01*
X0058438Y0094601D01*
X0058438Y0097660D01*
X0057267Y0100487D01*
X0055104Y0102650D01*
X0052278Y0103820D01*
X0049218Y0103820D01*
X0046392Y0102650D01*
X0044906Y0101163D02*
X0036784Y0101163D01*
X0036784Y0099565D02*
X0043847Y0099565D01*
X0043185Y0097966D02*
X0036784Y0097966D01*
X0036784Y0096368D02*
X0043058Y0096368D01*
X0043058Y0094769D02*
X0036873Y0094769D01*
X0037208Y0093171D02*
X0043651Y0093171D01*
X0044432Y0091572D02*
X0037637Y0091572D01*
X0038317Y0089974D02*
X0046030Y0089974D01*
X0042122Y0085178D02*
X0252288Y0085178D01*
X0253886Y0086777D02*
X0040523Y0086777D01*
X0039240Y0088375D02*
X0255170Y0088375D01*
X0256093Y0089974D02*
X0248379Y0089974D01*
X0248017Y0089612D02*
X0250180Y0091775D01*
X0251351Y0094601D01*
X0251351Y0097660D01*
X0250180Y0100487D01*
X0248017Y0102650D01*
X0245191Y0103820D01*
X0242132Y0103820D01*
X0239306Y0102650D01*
X0237142Y0100487D01*
X0235972Y0097660D01*
X0235972Y0094601D01*
X0237142Y0091775D01*
X0239306Y0089612D01*
X0242132Y0088441D01*
X0245191Y0088441D01*
X0248017Y0089612D01*
X0249978Y0091572D02*
X0256773Y0091572D01*
X0257201Y0093171D02*
X0250759Y0093171D01*
X0251351Y0094769D02*
X0257536Y0094769D01*
X0257625Y0096368D02*
X0251351Y0096368D01*
X0251224Y0097966D02*
X0257625Y0097966D01*
X0257625Y0099565D02*
X0250562Y0099565D01*
X0249504Y0101163D02*
X0257625Y0101163D01*
X0257625Y0102762D02*
X0247747Y0102762D01*
X0239576Y0102762D02*
X0175720Y0102762D01*
X0176503Y0101163D02*
X0237819Y0101163D01*
X0236761Y0099565D02*
X0176595Y0099565D01*
X0176087Y0097966D02*
X0236098Y0097966D01*
X0235972Y0096368D02*
X0174714Y0096368D01*
X0169695Y0096368D02*
X0164714Y0096368D01*
X0166087Y0097966D02*
X0168323Y0097966D01*
X0167814Y0099565D02*
X0166595Y0099565D01*
X0166503Y0101163D02*
X0167906Y0101163D01*
X0168690Y0102762D02*
X0165720Y0102762D01*
X0158690Y0102762D02*
X0155720Y0102762D01*
X0156503Y0101163D02*
X0157906Y0101163D01*
X0157814Y0099565D02*
X0156595Y0099565D01*
X0156087Y0097966D02*
X0158323Y0097966D01*
X0159695Y0096368D02*
X0154714Y0096368D01*
X0149695Y0096368D02*
X0144714Y0096368D01*
X0146087Y0097966D02*
X0148323Y0097966D01*
X0147814Y0099565D02*
X0146595Y0099565D01*
X0146503Y0101163D02*
X0147906Y0101163D01*
X0148690Y0102762D02*
X0145720Y0102762D01*
X0138690Y0102762D02*
X0135720Y0102762D01*
X0136503Y0101163D02*
X0137906Y0101163D01*
X0137814Y0099565D02*
X0136595Y0099565D01*
X0136087Y0097966D02*
X0138323Y0097966D01*
X0139695Y0096368D02*
X0134714Y0096368D01*
X0129695Y0096368D02*
X0124714Y0096368D01*
X0126087Y0097966D02*
X0128323Y0097966D01*
X0127814Y0099565D02*
X0126595Y0099565D01*
X0126503Y0101163D02*
X0127906Y0101163D01*
X0128690Y0102762D02*
X0125720Y0102762D01*
X0118690Y0102762D02*
X0054833Y0102762D01*
X0056590Y0101163D02*
X0117906Y0101163D01*
X0117814Y0099565D02*
X0057649Y0099565D01*
X0058311Y0097966D02*
X0118323Y0097966D01*
X0119695Y0096368D02*
X0058438Y0096368D01*
X0058438Y0094769D02*
X0235972Y0094769D01*
X0236564Y0093171D02*
X0057845Y0093171D01*
X0057065Y0091572D02*
X0237345Y0091572D01*
X0238943Y0089974D02*
X0055466Y0089974D01*
X0044798Y0083580D02*
X0249611Y0083580D01*
X0210622Y0112353D02*
X0210622Y0112353D01*
X0210622Y0113951D02*
X0210622Y0113951D01*
X0210622Y0115550D02*
X0210622Y0115550D01*
X0210622Y0117148D02*
X0210622Y0117148D01*
X0208905Y0117148D02*
X0036784Y0117148D01*
X0036784Y0115550D02*
X0207695Y0115550D01*
X0207629Y0113951D02*
X0036784Y0113951D01*
X0036784Y0112353D02*
X0208547Y0112353D01*
X0200920Y0125141D02*
X0036784Y0125141D01*
X0036784Y0126740D02*
X0157161Y0126740D01*
X0157169Y0126731D02*
X0157671Y0126396D01*
X0158228Y0126165D01*
X0158820Y0126047D01*
X0159122Y0126047D01*
X0159122Y0129111D01*
X0156058Y0129111D01*
X0156058Y0128809D01*
X0156176Y0128217D01*
X0156407Y0127660D01*
X0156742Y0127158D01*
X0157169Y0126731D01*
X0156152Y0128338D02*
X0036784Y0128338D01*
X0036784Y0129937D02*
X0156162Y0129937D01*
X0156176Y0130005D02*
X0156058Y0129413D01*
X0156058Y0129111D01*
X0159122Y0129111D01*
X0159122Y0129111D01*
X0159122Y0129111D01*
X0159122Y0126047D01*
X0159424Y0126047D01*
X0160016Y0126165D01*
X0160573Y0126396D01*
X0161075Y0126731D01*
X0161502Y0127158D01*
X0161837Y0127660D01*
X0162068Y0128217D01*
X0162186Y0128809D01*
X0162186Y0129111D01*
X0159122Y0129111D01*
X0159122Y0132175D01*
X0158820Y0132175D01*
X0158228Y0132057D01*
X0157671Y0131826D01*
X0157169Y0131491D01*
X0156742Y0131064D01*
X0156407Y0130562D01*
X0156176Y0130005D01*
X0157235Y0131535D02*
X0036784Y0131535D01*
X0036784Y0133134D02*
X0199260Y0133134D01*
X0198598Y0131535D02*
X0161009Y0131535D01*
X0161075Y0131491D02*
X0160573Y0131826D01*
X0160016Y0132057D01*
X0159424Y0132175D01*
X0159122Y0132175D01*
X0159122Y0129111D01*
X0159122Y0129111D01*
X0159122Y0129111D01*
X0162186Y0129111D01*
X0162186Y0129413D01*
X0162068Y0130005D01*
X0161837Y0130562D01*
X0161502Y0131064D01*
X0161075Y0131491D01*
X0162082Y0129937D02*
X0198503Y0129937D01*
X0198725Y0128338D02*
X0162092Y0128338D01*
X0161083Y0126740D02*
X0199387Y0126740D01*
X0200612Y0134732D02*
X0036784Y0134732D01*
X0036784Y0142725D02*
X0071107Y0142725D01*
X0071089Y0144323D02*
X0036784Y0144323D01*
X0036784Y0161907D02*
X0053629Y0161907D01*
X0051377Y0163505D02*
X0036784Y0163505D01*
X0036784Y0165104D02*
X0050657Y0165104D01*
X0050609Y0166702D02*
X0036784Y0166702D01*
X0036784Y0168301D02*
X0051163Y0168301D01*
X0052720Y0169899D02*
X0036784Y0169899D01*
X0036784Y0171498D02*
X0100075Y0171498D01*
X0100775Y0173096D02*
X0036784Y0173096D01*
X0040556Y0235438D02*
X0199279Y0235438D01*
X0199726Y0237037D02*
X0042154Y0237037D01*
X0044854Y0238635D02*
X0201324Y0238635D01*
X0204918Y0238635D02*
X0249555Y0238635D01*
X0159742Y0225847D02*
X0154667Y0225847D01*
X0154692Y0225837D02*
X0153078Y0226505D01*
X0151331Y0226505D01*
X0149718Y0225837D01*
X0148483Y0224602D01*
X0147814Y0222988D01*
X0147814Y0221242D01*
X0148483Y0219628D01*
X0149718Y0218393D01*
X0151331Y0217724D01*
X0153078Y0217724D01*
X0154692Y0218393D01*
X0155927Y0219628D01*
X0156595Y0221242D01*
X0156595Y0222988D01*
X0155927Y0224602D01*
X0154692Y0225837D01*
X0156073Y0224249D02*
X0158336Y0224249D01*
X0157814Y0222650D02*
X0156595Y0222650D01*
X0156517Y0221052D02*
X0157893Y0221052D01*
X0158657Y0219453D02*
X0155752Y0219453D01*
X0153392Y0217855D02*
X0161017Y0217855D01*
X0151017Y0217855D02*
X0143392Y0217855D01*
X0143078Y0217724D02*
X0144692Y0218393D01*
X0145927Y0219628D01*
X0146595Y0221242D01*
X0146595Y0222988D01*
X0145927Y0224602D01*
X0144692Y0225837D01*
X0143078Y0226505D01*
X0141331Y0226505D01*
X0139718Y0225837D01*
X0138483Y0224602D01*
X0137814Y0222988D01*
X0137814Y0221242D01*
X0138483Y0219628D01*
X0139718Y0218393D01*
X0141331Y0217724D01*
X0143078Y0217724D01*
X0141017Y0217855D02*
X0133392Y0217855D01*
X0135752Y0219453D02*
X0138657Y0219453D01*
X0137893Y0221052D02*
X0136517Y0221052D01*
X0136595Y0222650D02*
X0137814Y0222650D01*
X0138336Y0224249D02*
X0136073Y0224249D01*
X0134667Y0225847D02*
X0139742Y0225847D01*
X0144667Y0225847D02*
X0149742Y0225847D01*
X0148336Y0224249D02*
X0146073Y0224249D01*
X0146595Y0222650D02*
X0147814Y0222650D01*
X0147893Y0221052D02*
X0146517Y0221052D01*
X0145752Y0219453D02*
X0148657Y0219453D01*
X0110012Y0200271D02*
X0109965Y0200271D01*
X0103122Y0173096D02*
X0103122Y0173096D01*
X0103122Y0171498D02*
X0103122Y0171498D01*
X0103122Y0169899D02*
X0103122Y0169899D01*
X0159122Y0141675D02*
X0159122Y0138611D01*
X0159122Y0138611D01*
X0159122Y0138611D01*
X0162186Y0138611D01*
X0162186Y0138913D01*
X0162068Y0139505D01*
X0161837Y0140062D01*
X0161502Y0140564D01*
X0161075Y0140991D01*
X0160573Y0141326D01*
X0160016Y0141557D01*
X0159424Y0141675D01*
X0159122Y0141675D01*
X0159122Y0141126D02*
X0159122Y0141126D01*
X0159122Y0139528D02*
X0159122Y0139528D01*
X0159122Y0137929D02*
X0159122Y0137929D01*
X0159122Y0136331D02*
X0159122Y0136331D01*
X0161174Y0136331D02*
X0208601Y0136331D01*
X0208625Y0134732D02*
X0209263Y0134732D01*
X0209977Y0133134D02*
X0210377Y0133134D01*
X0210639Y0131535D02*
X0212032Y0131535D01*
X0208346Y0137929D02*
X0162110Y0137929D01*
X0162059Y0139528D02*
X0208346Y0139528D01*
X0208712Y0141126D02*
X0184883Y0141126D01*
X0185647Y0142725D02*
X0209374Y0142725D01*
X0210645Y0144323D02*
X0185674Y0144323D01*
X0185024Y0145922D02*
X0188574Y0145922D01*
X0194678Y0145922D02*
X0212678Y0145922D01*
X0195563Y0147520D02*
X0232077Y0147520D01*
X0233109Y0149119D02*
X0195674Y0149119D01*
X0178370Y0141126D02*
X0160873Y0141126D01*
X0159122Y0131535D02*
X0159122Y0131535D01*
X0159122Y0129937D02*
X0159122Y0129937D01*
X0159122Y0128338D02*
X0159122Y0128338D01*
X0159122Y0126740D02*
X0159122Y0126740D01*
M02*
