G75*
%MOIN*%
%OFA0B0*%
%FSLAX25Y25*%
%IPPOS*%
%LPD*%
%AMOC8*
5,1,8,0,0,1.08239X$1,22.5*
%
%ADD10C,0.00000*%
%ADD11C,0.00700*%
%ADD12C,0.05315*%
%ADD13C,0.09449*%
%ADD14R,0.03937X0.04331*%
%ADD15R,0.04331X0.03937*%
%ADD16R,0.04724X0.07874*%
%ADD17R,0.01200X0.03200*%
%ADD18R,0.03200X0.01200*%
%ADD19R,0.16929X0.16929*%
%ADD20R,0.02559X0.03543*%
%ADD21C,0.03937*%
%ADD22C,0.06000*%
%ADD23R,0.09449X0.09449*%
%ADD24C,0.01200*%
%ADD25C,0.02953*%
%ADD26C,0.02362*%
%ADD27C,0.01600*%
D10*
X0050748Y0080383D02*
X0243661Y0080383D01*
X0237755Y0096131D02*
X0237757Y0096284D01*
X0237763Y0096438D01*
X0237773Y0096591D01*
X0237787Y0096743D01*
X0237805Y0096896D01*
X0237827Y0097047D01*
X0237852Y0097198D01*
X0237882Y0097349D01*
X0237916Y0097499D01*
X0237953Y0097647D01*
X0237994Y0097795D01*
X0238039Y0097941D01*
X0238088Y0098087D01*
X0238141Y0098231D01*
X0238197Y0098373D01*
X0238257Y0098514D01*
X0238321Y0098654D01*
X0238388Y0098792D01*
X0238459Y0098928D01*
X0238534Y0099062D01*
X0238611Y0099194D01*
X0238693Y0099324D01*
X0238777Y0099452D01*
X0238865Y0099578D01*
X0238956Y0099701D01*
X0239050Y0099822D01*
X0239148Y0099940D01*
X0239248Y0100056D01*
X0239352Y0100169D01*
X0239458Y0100280D01*
X0239567Y0100388D01*
X0239679Y0100493D01*
X0239793Y0100594D01*
X0239911Y0100693D01*
X0240030Y0100789D01*
X0240152Y0100882D01*
X0240277Y0100971D01*
X0240404Y0101058D01*
X0240533Y0101140D01*
X0240664Y0101220D01*
X0240797Y0101296D01*
X0240932Y0101369D01*
X0241069Y0101438D01*
X0241208Y0101503D01*
X0241348Y0101565D01*
X0241490Y0101623D01*
X0241633Y0101678D01*
X0241778Y0101729D01*
X0241924Y0101776D01*
X0242071Y0101819D01*
X0242219Y0101858D01*
X0242368Y0101894D01*
X0242518Y0101925D01*
X0242669Y0101953D01*
X0242820Y0101977D01*
X0242973Y0101997D01*
X0243125Y0102013D01*
X0243278Y0102025D01*
X0243431Y0102033D01*
X0243584Y0102037D01*
X0243738Y0102037D01*
X0243891Y0102033D01*
X0244044Y0102025D01*
X0244197Y0102013D01*
X0244349Y0101997D01*
X0244502Y0101977D01*
X0244653Y0101953D01*
X0244804Y0101925D01*
X0244954Y0101894D01*
X0245103Y0101858D01*
X0245251Y0101819D01*
X0245398Y0101776D01*
X0245544Y0101729D01*
X0245689Y0101678D01*
X0245832Y0101623D01*
X0245974Y0101565D01*
X0246114Y0101503D01*
X0246253Y0101438D01*
X0246390Y0101369D01*
X0246525Y0101296D01*
X0246658Y0101220D01*
X0246789Y0101140D01*
X0246918Y0101058D01*
X0247045Y0100971D01*
X0247170Y0100882D01*
X0247292Y0100789D01*
X0247411Y0100693D01*
X0247529Y0100594D01*
X0247643Y0100493D01*
X0247755Y0100388D01*
X0247864Y0100280D01*
X0247970Y0100169D01*
X0248074Y0100056D01*
X0248174Y0099940D01*
X0248272Y0099822D01*
X0248366Y0099701D01*
X0248457Y0099578D01*
X0248545Y0099452D01*
X0248629Y0099324D01*
X0248711Y0099194D01*
X0248788Y0099062D01*
X0248863Y0098928D01*
X0248934Y0098792D01*
X0249001Y0098654D01*
X0249065Y0098514D01*
X0249125Y0098373D01*
X0249181Y0098231D01*
X0249234Y0098087D01*
X0249283Y0097941D01*
X0249328Y0097795D01*
X0249369Y0097647D01*
X0249406Y0097499D01*
X0249440Y0097349D01*
X0249470Y0097198D01*
X0249495Y0097047D01*
X0249517Y0096896D01*
X0249535Y0096743D01*
X0249549Y0096591D01*
X0249559Y0096438D01*
X0249565Y0096284D01*
X0249567Y0096131D01*
X0249565Y0095978D01*
X0249559Y0095824D01*
X0249549Y0095671D01*
X0249535Y0095519D01*
X0249517Y0095366D01*
X0249495Y0095215D01*
X0249470Y0095064D01*
X0249440Y0094913D01*
X0249406Y0094763D01*
X0249369Y0094615D01*
X0249328Y0094467D01*
X0249283Y0094321D01*
X0249234Y0094175D01*
X0249181Y0094031D01*
X0249125Y0093889D01*
X0249065Y0093748D01*
X0249001Y0093608D01*
X0248934Y0093470D01*
X0248863Y0093334D01*
X0248788Y0093200D01*
X0248711Y0093068D01*
X0248629Y0092938D01*
X0248545Y0092810D01*
X0248457Y0092684D01*
X0248366Y0092561D01*
X0248272Y0092440D01*
X0248174Y0092322D01*
X0248074Y0092206D01*
X0247970Y0092093D01*
X0247864Y0091982D01*
X0247755Y0091874D01*
X0247643Y0091769D01*
X0247529Y0091668D01*
X0247411Y0091569D01*
X0247292Y0091473D01*
X0247170Y0091380D01*
X0247045Y0091291D01*
X0246918Y0091204D01*
X0246789Y0091122D01*
X0246658Y0091042D01*
X0246525Y0090966D01*
X0246390Y0090893D01*
X0246253Y0090824D01*
X0246114Y0090759D01*
X0245974Y0090697D01*
X0245832Y0090639D01*
X0245689Y0090584D01*
X0245544Y0090533D01*
X0245398Y0090486D01*
X0245251Y0090443D01*
X0245103Y0090404D01*
X0244954Y0090368D01*
X0244804Y0090337D01*
X0244653Y0090309D01*
X0244502Y0090285D01*
X0244349Y0090265D01*
X0244197Y0090249D01*
X0244044Y0090237D01*
X0243891Y0090229D01*
X0243738Y0090225D01*
X0243584Y0090225D01*
X0243431Y0090229D01*
X0243278Y0090237D01*
X0243125Y0090249D01*
X0242973Y0090265D01*
X0242820Y0090285D01*
X0242669Y0090309D01*
X0242518Y0090337D01*
X0242368Y0090368D01*
X0242219Y0090404D01*
X0242071Y0090443D01*
X0241924Y0090486D01*
X0241778Y0090533D01*
X0241633Y0090584D01*
X0241490Y0090639D01*
X0241348Y0090697D01*
X0241208Y0090759D01*
X0241069Y0090824D01*
X0240932Y0090893D01*
X0240797Y0090966D01*
X0240664Y0091042D01*
X0240533Y0091122D01*
X0240404Y0091204D01*
X0240277Y0091291D01*
X0240152Y0091380D01*
X0240030Y0091473D01*
X0239911Y0091569D01*
X0239793Y0091668D01*
X0239679Y0091769D01*
X0239567Y0091874D01*
X0239458Y0091982D01*
X0239352Y0092093D01*
X0239248Y0092206D01*
X0239148Y0092322D01*
X0239050Y0092440D01*
X0238956Y0092561D01*
X0238865Y0092684D01*
X0238777Y0092810D01*
X0238693Y0092938D01*
X0238611Y0093068D01*
X0238534Y0093200D01*
X0238459Y0093334D01*
X0238388Y0093470D01*
X0238321Y0093608D01*
X0238257Y0093748D01*
X0238197Y0093889D01*
X0238141Y0094031D01*
X0238088Y0094175D01*
X0238039Y0094321D01*
X0237994Y0094467D01*
X0237953Y0094615D01*
X0237916Y0094763D01*
X0237882Y0094913D01*
X0237852Y0095064D01*
X0237827Y0095215D01*
X0237805Y0095366D01*
X0237787Y0095519D01*
X0237773Y0095671D01*
X0237763Y0095824D01*
X0237757Y0095978D01*
X0237755Y0096131D01*
X0243661Y0080383D02*
X0244042Y0080388D01*
X0244422Y0080401D01*
X0244802Y0080424D01*
X0245181Y0080457D01*
X0245559Y0080498D01*
X0245936Y0080548D01*
X0246312Y0080608D01*
X0246687Y0080676D01*
X0247059Y0080754D01*
X0247430Y0080841D01*
X0247798Y0080936D01*
X0248164Y0081041D01*
X0248527Y0081154D01*
X0248888Y0081276D01*
X0249245Y0081406D01*
X0249599Y0081546D01*
X0249950Y0081693D01*
X0250297Y0081850D01*
X0250640Y0082014D01*
X0250979Y0082187D01*
X0251314Y0082368D01*
X0251645Y0082557D01*
X0251970Y0082754D01*
X0252291Y0082958D01*
X0252607Y0083171D01*
X0252917Y0083391D01*
X0253223Y0083618D01*
X0253522Y0083853D01*
X0253816Y0084095D01*
X0254104Y0084343D01*
X0254386Y0084599D01*
X0254661Y0084862D01*
X0254930Y0085131D01*
X0255193Y0085406D01*
X0255449Y0085688D01*
X0255697Y0085976D01*
X0255939Y0086270D01*
X0256174Y0086569D01*
X0256401Y0086875D01*
X0256621Y0087185D01*
X0256834Y0087501D01*
X0257038Y0087822D01*
X0257235Y0088147D01*
X0257424Y0088478D01*
X0257605Y0088813D01*
X0257778Y0089152D01*
X0257942Y0089495D01*
X0258099Y0089842D01*
X0258246Y0090193D01*
X0258386Y0090547D01*
X0258516Y0090904D01*
X0258638Y0091265D01*
X0258751Y0091628D01*
X0258856Y0091994D01*
X0258951Y0092362D01*
X0259038Y0092733D01*
X0259116Y0093105D01*
X0259184Y0093480D01*
X0259244Y0093856D01*
X0259294Y0094233D01*
X0259335Y0094611D01*
X0259368Y0094990D01*
X0259391Y0095370D01*
X0259404Y0095750D01*
X0259409Y0096131D01*
X0259409Y0226052D01*
X0237755Y0226052D02*
X0237757Y0226205D01*
X0237763Y0226359D01*
X0237773Y0226512D01*
X0237787Y0226664D01*
X0237805Y0226817D01*
X0237827Y0226968D01*
X0237852Y0227119D01*
X0237882Y0227270D01*
X0237916Y0227420D01*
X0237953Y0227568D01*
X0237994Y0227716D01*
X0238039Y0227862D01*
X0238088Y0228008D01*
X0238141Y0228152D01*
X0238197Y0228294D01*
X0238257Y0228435D01*
X0238321Y0228575D01*
X0238388Y0228713D01*
X0238459Y0228849D01*
X0238534Y0228983D01*
X0238611Y0229115D01*
X0238693Y0229245D01*
X0238777Y0229373D01*
X0238865Y0229499D01*
X0238956Y0229622D01*
X0239050Y0229743D01*
X0239148Y0229861D01*
X0239248Y0229977D01*
X0239352Y0230090D01*
X0239458Y0230201D01*
X0239567Y0230309D01*
X0239679Y0230414D01*
X0239793Y0230515D01*
X0239911Y0230614D01*
X0240030Y0230710D01*
X0240152Y0230803D01*
X0240277Y0230892D01*
X0240404Y0230979D01*
X0240533Y0231061D01*
X0240664Y0231141D01*
X0240797Y0231217D01*
X0240932Y0231290D01*
X0241069Y0231359D01*
X0241208Y0231424D01*
X0241348Y0231486D01*
X0241490Y0231544D01*
X0241633Y0231599D01*
X0241778Y0231650D01*
X0241924Y0231697D01*
X0242071Y0231740D01*
X0242219Y0231779D01*
X0242368Y0231815D01*
X0242518Y0231846D01*
X0242669Y0231874D01*
X0242820Y0231898D01*
X0242973Y0231918D01*
X0243125Y0231934D01*
X0243278Y0231946D01*
X0243431Y0231954D01*
X0243584Y0231958D01*
X0243738Y0231958D01*
X0243891Y0231954D01*
X0244044Y0231946D01*
X0244197Y0231934D01*
X0244349Y0231918D01*
X0244502Y0231898D01*
X0244653Y0231874D01*
X0244804Y0231846D01*
X0244954Y0231815D01*
X0245103Y0231779D01*
X0245251Y0231740D01*
X0245398Y0231697D01*
X0245544Y0231650D01*
X0245689Y0231599D01*
X0245832Y0231544D01*
X0245974Y0231486D01*
X0246114Y0231424D01*
X0246253Y0231359D01*
X0246390Y0231290D01*
X0246525Y0231217D01*
X0246658Y0231141D01*
X0246789Y0231061D01*
X0246918Y0230979D01*
X0247045Y0230892D01*
X0247170Y0230803D01*
X0247292Y0230710D01*
X0247411Y0230614D01*
X0247529Y0230515D01*
X0247643Y0230414D01*
X0247755Y0230309D01*
X0247864Y0230201D01*
X0247970Y0230090D01*
X0248074Y0229977D01*
X0248174Y0229861D01*
X0248272Y0229743D01*
X0248366Y0229622D01*
X0248457Y0229499D01*
X0248545Y0229373D01*
X0248629Y0229245D01*
X0248711Y0229115D01*
X0248788Y0228983D01*
X0248863Y0228849D01*
X0248934Y0228713D01*
X0249001Y0228575D01*
X0249065Y0228435D01*
X0249125Y0228294D01*
X0249181Y0228152D01*
X0249234Y0228008D01*
X0249283Y0227862D01*
X0249328Y0227716D01*
X0249369Y0227568D01*
X0249406Y0227420D01*
X0249440Y0227270D01*
X0249470Y0227119D01*
X0249495Y0226968D01*
X0249517Y0226817D01*
X0249535Y0226664D01*
X0249549Y0226512D01*
X0249559Y0226359D01*
X0249565Y0226205D01*
X0249567Y0226052D01*
X0249565Y0225899D01*
X0249559Y0225745D01*
X0249549Y0225592D01*
X0249535Y0225440D01*
X0249517Y0225287D01*
X0249495Y0225136D01*
X0249470Y0224985D01*
X0249440Y0224834D01*
X0249406Y0224684D01*
X0249369Y0224536D01*
X0249328Y0224388D01*
X0249283Y0224242D01*
X0249234Y0224096D01*
X0249181Y0223952D01*
X0249125Y0223810D01*
X0249065Y0223669D01*
X0249001Y0223529D01*
X0248934Y0223391D01*
X0248863Y0223255D01*
X0248788Y0223121D01*
X0248711Y0222989D01*
X0248629Y0222859D01*
X0248545Y0222731D01*
X0248457Y0222605D01*
X0248366Y0222482D01*
X0248272Y0222361D01*
X0248174Y0222243D01*
X0248074Y0222127D01*
X0247970Y0222014D01*
X0247864Y0221903D01*
X0247755Y0221795D01*
X0247643Y0221690D01*
X0247529Y0221589D01*
X0247411Y0221490D01*
X0247292Y0221394D01*
X0247170Y0221301D01*
X0247045Y0221212D01*
X0246918Y0221125D01*
X0246789Y0221043D01*
X0246658Y0220963D01*
X0246525Y0220887D01*
X0246390Y0220814D01*
X0246253Y0220745D01*
X0246114Y0220680D01*
X0245974Y0220618D01*
X0245832Y0220560D01*
X0245689Y0220505D01*
X0245544Y0220454D01*
X0245398Y0220407D01*
X0245251Y0220364D01*
X0245103Y0220325D01*
X0244954Y0220289D01*
X0244804Y0220258D01*
X0244653Y0220230D01*
X0244502Y0220206D01*
X0244349Y0220186D01*
X0244197Y0220170D01*
X0244044Y0220158D01*
X0243891Y0220150D01*
X0243738Y0220146D01*
X0243584Y0220146D01*
X0243431Y0220150D01*
X0243278Y0220158D01*
X0243125Y0220170D01*
X0242973Y0220186D01*
X0242820Y0220206D01*
X0242669Y0220230D01*
X0242518Y0220258D01*
X0242368Y0220289D01*
X0242219Y0220325D01*
X0242071Y0220364D01*
X0241924Y0220407D01*
X0241778Y0220454D01*
X0241633Y0220505D01*
X0241490Y0220560D01*
X0241348Y0220618D01*
X0241208Y0220680D01*
X0241069Y0220745D01*
X0240932Y0220814D01*
X0240797Y0220887D01*
X0240664Y0220963D01*
X0240533Y0221043D01*
X0240404Y0221125D01*
X0240277Y0221212D01*
X0240152Y0221301D01*
X0240030Y0221394D01*
X0239911Y0221490D01*
X0239793Y0221589D01*
X0239679Y0221690D01*
X0239567Y0221795D01*
X0239458Y0221903D01*
X0239352Y0222014D01*
X0239248Y0222127D01*
X0239148Y0222243D01*
X0239050Y0222361D01*
X0238956Y0222482D01*
X0238865Y0222605D01*
X0238777Y0222731D01*
X0238693Y0222859D01*
X0238611Y0222989D01*
X0238534Y0223121D01*
X0238459Y0223255D01*
X0238388Y0223391D01*
X0238321Y0223529D01*
X0238257Y0223669D01*
X0238197Y0223810D01*
X0238141Y0223952D01*
X0238088Y0224096D01*
X0238039Y0224242D01*
X0237994Y0224388D01*
X0237953Y0224536D01*
X0237916Y0224684D01*
X0237882Y0224834D01*
X0237852Y0224985D01*
X0237827Y0225136D01*
X0237805Y0225287D01*
X0237787Y0225440D01*
X0237773Y0225592D01*
X0237763Y0225745D01*
X0237757Y0225899D01*
X0237755Y0226052D01*
X0243661Y0241800D02*
X0244042Y0241795D01*
X0244422Y0241782D01*
X0244802Y0241759D01*
X0245181Y0241726D01*
X0245559Y0241685D01*
X0245936Y0241635D01*
X0246312Y0241575D01*
X0246687Y0241507D01*
X0247059Y0241429D01*
X0247430Y0241342D01*
X0247798Y0241247D01*
X0248164Y0241142D01*
X0248527Y0241029D01*
X0248888Y0240907D01*
X0249245Y0240777D01*
X0249599Y0240637D01*
X0249950Y0240490D01*
X0250297Y0240333D01*
X0250640Y0240169D01*
X0250979Y0239996D01*
X0251314Y0239815D01*
X0251645Y0239626D01*
X0251970Y0239429D01*
X0252291Y0239225D01*
X0252607Y0239012D01*
X0252917Y0238792D01*
X0253223Y0238565D01*
X0253522Y0238330D01*
X0253816Y0238088D01*
X0254104Y0237840D01*
X0254386Y0237584D01*
X0254661Y0237321D01*
X0254930Y0237052D01*
X0255193Y0236777D01*
X0255449Y0236495D01*
X0255697Y0236207D01*
X0255939Y0235913D01*
X0256174Y0235614D01*
X0256401Y0235308D01*
X0256621Y0234998D01*
X0256834Y0234682D01*
X0257038Y0234361D01*
X0257235Y0234036D01*
X0257424Y0233705D01*
X0257605Y0233370D01*
X0257778Y0233031D01*
X0257942Y0232688D01*
X0258099Y0232341D01*
X0258246Y0231990D01*
X0258386Y0231636D01*
X0258516Y0231279D01*
X0258638Y0230918D01*
X0258751Y0230555D01*
X0258856Y0230189D01*
X0258951Y0229821D01*
X0259038Y0229450D01*
X0259116Y0229078D01*
X0259184Y0228703D01*
X0259244Y0228327D01*
X0259294Y0227950D01*
X0259335Y0227572D01*
X0259368Y0227193D01*
X0259391Y0226813D01*
X0259404Y0226433D01*
X0259409Y0226052D01*
X0243661Y0241800D02*
X0050748Y0241800D01*
X0044842Y0226052D02*
X0044844Y0226205D01*
X0044850Y0226359D01*
X0044860Y0226512D01*
X0044874Y0226664D01*
X0044892Y0226817D01*
X0044914Y0226968D01*
X0044939Y0227119D01*
X0044969Y0227270D01*
X0045003Y0227420D01*
X0045040Y0227568D01*
X0045081Y0227716D01*
X0045126Y0227862D01*
X0045175Y0228008D01*
X0045228Y0228152D01*
X0045284Y0228294D01*
X0045344Y0228435D01*
X0045408Y0228575D01*
X0045475Y0228713D01*
X0045546Y0228849D01*
X0045621Y0228983D01*
X0045698Y0229115D01*
X0045780Y0229245D01*
X0045864Y0229373D01*
X0045952Y0229499D01*
X0046043Y0229622D01*
X0046137Y0229743D01*
X0046235Y0229861D01*
X0046335Y0229977D01*
X0046439Y0230090D01*
X0046545Y0230201D01*
X0046654Y0230309D01*
X0046766Y0230414D01*
X0046880Y0230515D01*
X0046998Y0230614D01*
X0047117Y0230710D01*
X0047239Y0230803D01*
X0047364Y0230892D01*
X0047491Y0230979D01*
X0047620Y0231061D01*
X0047751Y0231141D01*
X0047884Y0231217D01*
X0048019Y0231290D01*
X0048156Y0231359D01*
X0048295Y0231424D01*
X0048435Y0231486D01*
X0048577Y0231544D01*
X0048720Y0231599D01*
X0048865Y0231650D01*
X0049011Y0231697D01*
X0049158Y0231740D01*
X0049306Y0231779D01*
X0049455Y0231815D01*
X0049605Y0231846D01*
X0049756Y0231874D01*
X0049907Y0231898D01*
X0050060Y0231918D01*
X0050212Y0231934D01*
X0050365Y0231946D01*
X0050518Y0231954D01*
X0050671Y0231958D01*
X0050825Y0231958D01*
X0050978Y0231954D01*
X0051131Y0231946D01*
X0051284Y0231934D01*
X0051436Y0231918D01*
X0051589Y0231898D01*
X0051740Y0231874D01*
X0051891Y0231846D01*
X0052041Y0231815D01*
X0052190Y0231779D01*
X0052338Y0231740D01*
X0052485Y0231697D01*
X0052631Y0231650D01*
X0052776Y0231599D01*
X0052919Y0231544D01*
X0053061Y0231486D01*
X0053201Y0231424D01*
X0053340Y0231359D01*
X0053477Y0231290D01*
X0053612Y0231217D01*
X0053745Y0231141D01*
X0053876Y0231061D01*
X0054005Y0230979D01*
X0054132Y0230892D01*
X0054257Y0230803D01*
X0054379Y0230710D01*
X0054498Y0230614D01*
X0054616Y0230515D01*
X0054730Y0230414D01*
X0054842Y0230309D01*
X0054951Y0230201D01*
X0055057Y0230090D01*
X0055161Y0229977D01*
X0055261Y0229861D01*
X0055359Y0229743D01*
X0055453Y0229622D01*
X0055544Y0229499D01*
X0055632Y0229373D01*
X0055716Y0229245D01*
X0055798Y0229115D01*
X0055875Y0228983D01*
X0055950Y0228849D01*
X0056021Y0228713D01*
X0056088Y0228575D01*
X0056152Y0228435D01*
X0056212Y0228294D01*
X0056268Y0228152D01*
X0056321Y0228008D01*
X0056370Y0227862D01*
X0056415Y0227716D01*
X0056456Y0227568D01*
X0056493Y0227420D01*
X0056527Y0227270D01*
X0056557Y0227119D01*
X0056582Y0226968D01*
X0056604Y0226817D01*
X0056622Y0226664D01*
X0056636Y0226512D01*
X0056646Y0226359D01*
X0056652Y0226205D01*
X0056654Y0226052D01*
X0056652Y0225899D01*
X0056646Y0225745D01*
X0056636Y0225592D01*
X0056622Y0225440D01*
X0056604Y0225287D01*
X0056582Y0225136D01*
X0056557Y0224985D01*
X0056527Y0224834D01*
X0056493Y0224684D01*
X0056456Y0224536D01*
X0056415Y0224388D01*
X0056370Y0224242D01*
X0056321Y0224096D01*
X0056268Y0223952D01*
X0056212Y0223810D01*
X0056152Y0223669D01*
X0056088Y0223529D01*
X0056021Y0223391D01*
X0055950Y0223255D01*
X0055875Y0223121D01*
X0055798Y0222989D01*
X0055716Y0222859D01*
X0055632Y0222731D01*
X0055544Y0222605D01*
X0055453Y0222482D01*
X0055359Y0222361D01*
X0055261Y0222243D01*
X0055161Y0222127D01*
X0055057Y0222014D01*
X0054951Y0221903D01*
X0054842Y0221795D01*
X0054730Y0221690D01*
X0054616Y0221589D01*
X0054498Y0221490D01*
X0054379Y0221394D01*
X0054257Y0221301D01*
X0054132Y0221212D01*
X0054005Y0221125D01*
X0053876Y0221043D01*
X0053745Y0220963D01*
X0053612Y0220887D01*
X0053477Y0220814D01*
X0053340Y0220745D01*
X0053201Y0220680D01*
X0053061Y0220618D01*
X0052919Y0220560D01*
X0052776Y0220505D01*
X0052631Y0220454D01*
X0052485Y0220407D01*
X0052338Y0220364D01*
X0052190Y0220325D01*
X0052041Y0220289D01*
X0051891Y0220258D01*
X0051740Y0220230D01*
X0051589Y0220206D01*
X0051436Y0220186D01*
X0051284Y0220170D01*
X0051131Y0220158D01*
X0050978Y0220150D01*
X0050825Y0220146D01*
X0050671Y0220146D01*
X0050518Y0220150D01*
X0050365Y0220158D01*
X0050212Y0220170D01*
X0050060Y0220186D01*
X0049907Y0220206D01*
X0049756Y0220230D01*
X0049605Y0220258D01*
X0049455Y0220289D01*
X0049306Y0220325D01*
X0049158Y0220364D01*
X0049011Y0220407D01*
X0048865Y0220454D01*
X0048720Y0220505D01*
X0048577Y0220560D01*
X0048435Y0220618D01*
X0048295Y0220680D01*
X0048156Y0220745D01*
X0048019Y0220814D01*
X0047884Y0220887D01*
X0047751Y0220963D01*
X0047620Y0221043D01*
X0047491Y0221125D01*
X0047364Y0221212D01*
X0047239Y0221301D01*
X0047117Y0221394D01*
X0046998Y0221490D01*
X0046880Y0221589D01*
X0046766Y0221690D01*
X0046654Y0221795D01*
X0046545Y0221903D01*
X0046439Y0222014D01*
X0046335Y0222127D01*
X0046235Y0222243D01*
X0046137Y0222361D01*
X0046043Y0222482D01*
X0045952Y0222605D01*
X0045864Y0222731D01*
X0045780Y0222859D01*
X0045698Y0222989D01*
X0045621Y0223121D01*
X0045546Y0223255D01*
X0045475Y0223391D01*
X0045408Y0223529D01*
X0045344Y0223669D01*
X0045284Y0223810D01*
X0045228Y0223952D01*
X0045175Y0224096D01*
X0045126Y0224242D01*
X0045081Y0224388D01*
X0045040Y0224536D01*
X0045003Y0224684D01*
X0044969Y0224834D01*
X0044939Y0224985D01*
X0044914Y0225136D01*
X0044892Y0225287D01*
X0044874Y0225440D01*
X0044860Y0225592D01*
X0044850Y0225745D01*
X0044844Y0225899D01*
X0044842Y0226052D01*
X0035000Y0226052D02*
X0035005Y0226433D01*
X0035018Y0226813D01*
X0035041Y0227193D01*
X0035074Y0227572D01*
X0035115Y0227950D01*
X0035165Y0228327D01*
X0035225Y0228703D01*
X0035293Y0229078D01*
X0035371Y0229450D01*
X0035458Y0229821D01*
X0035553Y0230189D01*
X0035658Y0230555D01*
X0035771Y0230918D01*
X0035893Y0231279D01*
X0036023Y0231636D01*
X0036163Y0231990D01*
X0036310Y0232341D01*
X0036467Y0232688D01*
X0036631Y0233031D01*
X0036804Y0233370D01*
X0036985Y0233705D01*
X0037174Y0234036D01*
X0037371Y0234361D01*
X0037575Y0234682D01*
X0037788Y0234998D01*
X0038008Y0235308D01*
X0038235Y0235614D01*
X0038470Y0235913D01*
X0038712Y0236207D01*
X0038960Y0236495D01*
X0039216Y0236777D01*
X0039479Y0237052D01*
X0039748Y0237321D01*
X0040023Y0237584D01*
X0040305Y0237840D01*
X0040593Y0238088D01*
X0040887Y0238330D01*
X0041186Y0238565D01*
X0041492Y0238792D01*
X0041802Y0239012D01*
X0042118Y0239225D01*
X0042439Y0239429D01*
X0042764Y0239626D01*
X0043095Y0239815D01*
X0043430Y0239996D01*
X0043769Y0240169D01*
X0044112Y0240333D01*
X0044459Y0240490D01*
X0044810Y0240637D01*
X0045164Y0240777D01*
X0045521Y0240907D01*
X0045882Y0241029D01*
X0046245Y0241142D01*
X0046611Y0241247D01*
X0046979Y0241342D01*
X0047350Y0241429D01*
X0047722Y0241507D01*
X0048097Y0241575D01*
X0048473Y0241635D01*
X0048850Y0241685D01*
X0049228Y0241726D01*
X0049607Y0241759D01*
X0049987Y0241782D01*
X0050367Y0241795D01*
X0050748Y0241800D01*
X0035000Y0226052D02*
X0035000Y0096131D01*
X0044842Y0096131D02*
X0044844Y0096284D01*
X0044850Y0096438D01*
X0044860Y0096591D01*
X0044874Y0096743D01*
X0044892Y0096896D01*
X0044914Y0097047D01*
X0044939Y0097198D01*
X0044969Y0097349D01*
X0045003Y0097499D01*
X0045040Y0097647D01*
X0045081Y0097795D01*
X0045126Y0097941D01*
X0045175Y0098087D01*
X0045228Y0098231D01*
X0045284Y0098373D01*
X0045344Y0098514D01*
X0045408Y0098654D01*
X0045475Y0098792D01*
X0045546Y0098928D01*
X0045621Y0099062D01*
X0045698Y0099194D01*
X0045780Y0099324D01*
X0045864Y0099452D01*
X0045952Y0099578D01*
X0046043Y0099701D01*
X0046137Y0099822D01*
X0046235Y0099940D01*
X0046335Y0100056D01*
X0046439Y0100169D01*
X0046545Y0100280D01*
X0046654Y0100388D01*
X0046766Y0100493D01*
X0046880Y0100594D01*
X0046998Y0100693D01*
X0047117Y0100789D01*
X0047239Y0100882D01*
X0047364Y0100971D01*
X0047491Y0101058D01*
X0047620Y0101140D01*
X0047751Y0101220D01*
X0047884Y0101296D01*
X0048019Y0101369D01*
X0048156Y0101438D01*
X0048295Y0101503D01*
X0048435Y0101565D01*
X0048577Y0101623D01*
X0048720Y0101678D01*
X0048865Y0101729D01*
X0049011Y0101776D01*
X0049158Y0101819D01*
X0049306Y0101858D01*
X0049455Y0101894D01*
X0049605Y0101925D01*
X0049756Y0101953D01*
X0049907Y0101977D01*
X0050060Y0101997D01*
X0050212Y0102013D01*
X0050365Y0102025D01*
X0050518Y0102033D01*
X0050671Y0102037D01*
X0050825Y0102037D01*
X0050978Y0102033D01*
X0051131Y0102025D01*
X0051284Y0102013D01*
X0051436Y0101997D01*
X0051589Y0101977D01*
X0051740Y0101953D01*
X0051891Y0101925D01*
X0052041Y0101894D01*
X0052190Y0101858D01*
X0052338Y0101819D01*
X0052485Y0101776D01*
X0052631Y0101729D01*
X0052776Y0101678D01*
X0052919Y0101623D01*
X0053061Y0101565D01*
X0053201Y0101503D01*
X0053340Y0101438D01*
X0053477Y0101369D01*
X0053612Y0101296D01*
X0053745Y0101220D01*
X0053876Y0101140D01*
X0054005Y0101058D01*
X0054132Y0100971D01*
X0054257Y0100882D01*
X0054379Y0100789D01*
X0054498Y0100693D01*
X0054616Y0100594D01*
X0054730Y0100493D01*
X0054842Y0100388D01*
X0054951Y0100280D01*
X0055057Y0100169D01*
X0055161Y0100056D01*
X0055261Y0099940D01*
X0055359Y0099822D01*
X0055453Y0099701D01*
X0055544Y0099578D01*
X0055632Y0099452D01*
X0055716Y0099324D01*
X0055798Y0099194D01*
X0055875Y0099062D01*
X0055950Y0098928D01*
X0056021Y0098792D01*
X0056088Y0098654D01*
X0056152Y0098514D01*
X0056212Y0098373D01*
X0056268Y0098231D01*
X0056321Y0098087D01*
X0056370Y0097941D01*
X0056415Y0097795D01*
X0056456Y0097647D01*
X0056493Y0097499D01*
X0056527Y0097349D01*
X0056557Y0097198D01*
X0056582Y0097047D01*
X0056604Y0096896D01*
X0056622Y0096743D01*
X0056636Y0096591D01*
X0056646Y0096438D01*
X0056652Y0096284D01*
X0056654Y0096131D01*
X0056652Y0095978D01*
X0056646Y0095824D01*
X0056636Y0095671D01*
X0056622Y0095519D01*
X0056604Y0095366D01*
X0056582Y0095215D01*
X0056557Y0095064D01*
X0056527Y0094913D01*
X0056493Y0094763D01*
X0056456Y0094615D01*
X0056415Y0094467D01*
X0056370Y0094321D01*
X0056321Y0094175D01*
X0056268Y0094031D01*
X0056212Y0093889D01*
X0056152Y0093748D01*
X0056088Y0093608D01*
X0056021Y0093470D01*
X0055950Y0093334D01*
X0055875Y0093200D01*
X0055798Y0093068D01*
X0055716Y0092938D01*
X0055632Y0092810D01*
X0055544Y0092684D01*
X0055453Y0092561D01*
X0055359Y0092440D01*
X0055261Y0092322D01*
X0055161Y0092206D01*
X0055057Y0092093D01*
X0054951Y0091982D01*
X0054842Y0091874D01*
X0054730Y0091769D01*
X0054616Y0091668D01*
X0054498Y0091569D01*
X0054379Y0091473D01*
X0054257Y0091380D01*
X0054132Y0091291D01*
X0054005Y0091204D01*
X0053876Y0091122D01*
X0053745Y0091042D01*
X0053612Y0090966D01*
X0053477Y0090893D01*
X0053340Y0090824D01*
X0053201Y0090759D01*
X0053061Y0090697D01*
X0052919Y0090639D01*
X0052776Y0090584D01*
X0052631Y0090533D01*
X0052485Y0090486D01*
X0052338Y0090443D01*
X0052190Y0090404D01*
X0052041Y0090368D01*
X0051891Y0090337D01*
X0051740Y0090309D01*
X0051589Y0090285D01*
X0051436Y0090265D01*
X0051284Y0090249D01*
X0051131Y0090237D01*
X0050978Y0090229D01*
X0050825Y0090225D01*
X0050671Y0090225D01*
X0050518Y0090229D01*
X0050365Y0090237D01*
X0050212Y0090249D01*
X0050060Y0090265D01*
X0049907Y0090285D01*
X0049756Y0090309D01*
X0049605Y0090337D01*
X0049455Y0090368D01*
X0049306Y0090404D01*
X0049158Y0090443D01*
X0049011Y0090486D01*
X0048865Y0090533D01*
X0048720Y0090584D01*
X0048577Y0090639D01*
X0048435Y0090697D01*
X0048295Y0090759D01*
X0048156Y0090824D01*
X0048019Y0090893D01*
X0047884Y0090966D01*
X0047751Y0091042D01*
X0047620Y0091122D01*
X0047491Y0091204D01*
X0047364Y0091291D01*
X0047239Y0091380D01*
X0047117Y0091473D01*
X0046998Y0091569D01*
X0046880Y0091668D01*
X0046766Y0091769D01*
X0046654Y0091874D01*
X0046545Y0091982D01*
X0046439Y0092093D01*
X0046335Y0092206D01*
X0046235Y0092322D01*
X0046137Y0092440D01*
X0046043Y0092561D01*
X0045952Y0092684D01*
X0045864Y0092810D01*
X0045780Y0092938D01*
X0045698Y0093068D01*
X0045621Y0093200D01*
X0045546Y0093334D01*
X0045475Y0093470D01*
X0045408Y0093608D01*
X0045344Y0093748D01*
X0045284Y0093889D01*
X0045228Y0094031D01*
X0045175Y0094175D01*
X0045126Y0094321D01*
X0045081Y0094467D01*
X0045040Y0094615D01*
X0045003Y0094763D01*
X0044969Y0094913D01*
X0044939Y0095064D01*
X0044914Y0095215D01*
X0044892Y0095366D01*
X0044874Y0095519D01*
X0044860Y0095671D01*
X0044850Y0095824D01*
X0044844Y0095978D01*
X0044842Y0096131D01*
X0035000Y0096131D02*
X0035005Y0095750D01*
X0035018Y0095370D01*
X0035041Y0094990D01*
X0035074Y0094611D01*
X0035115Y0094233D01*
X0035165Y0093856D01*
X0035225Y0093480D01*
X0035293Y0093105D01*
X0035371Y0092733D01*
X0035458Y0092362D01*
X0035553Y0091994D01*
X0035658Y0091628D01*
X0035771Y0091265D01*
X0035893Y0090904D01*
X0036023Y0090547D01*
X0036163Y0090193D01*
X0036310Y0089842D01*
X0036467Y0089495D01*
X0036631Y0089152D01*
X0036804Y0088813D01*
X0036985Y0088478D01*
X0037174Y0088147D01*
X0037371Y0087822D01*
X0037575Y0087501D01*
X0037788Y0087185D01*
X0038008Y0086875D01*
X0038235Y0086569D01*
X0038470Y0086270D01*
X0038712Y0085976D01*
X0038960Y0085688D01*
X0039216Y0085406D01*
X0039479Y0085131D01*
X0039748Y0084862D01*
X0040023Y0084599D01*
X0040305Y0084343D01*
X0040593Y0084095D01*
X0040887Y0083853D01*
X0041186Y0083618D01*
X0041492Y0083391D01*
X0041802Y0083171D01*
X0042118Y0082958D01*
X0042439Y0082754D01*
X0042764Y0082557D01*
X0043095Y0082368D01*
X0043430Y0082187D01*
X0043769Y0082014D01*
X0044112Y0081850D01*
X0044459Y0081693D01*
X0044810Y0081546D01*
X0045164Y0081406D01*
X0045521Y0081276D01*
X0045882Y0081154D01*
X0046245Y0081041D01*
X0046611Y0080936D01*
X0046979Y0080841D01*
X0047350Y0080754D01*
X0047722Y0080676D01*
X0048097Y0080608D01*
X0048473Y0080548D01*
X0048850Y0080498D01*
X0049228Y0080457D01*
X0049607Y0080424D01*
X0049987Y0080401D01*
X0050367Y0080388D01*
X0050748Y0080383D01*
X0210130Y0138594D02*
X0210132Y0138755D01*
X0210138Y0138915D01*
X0210148Y0139076D01*
X0210162Y0139236D01*
X0210180Y0139395D01*
X0210201Y0139555D01*
X0210227Y0139713D01*
X0210257Y0139871D01*
X0210290Y0140028D01*
X0210328Y0140185D01*
X0210369Y0140340D01*
X0210414Y0140494D01*
X0210463Y0140647D01*
X0210516Y0140799D01*
X0210572Y0140949D01*
X0210632Y0141098D01*
X0210696Y0141246D01*
X0210763Y0141392D01*
X0210834Y0141536D01*
X0210909Y0141678D01*
X0210987Y0141819D01*
X0211068Y0141957D01*
X0211153Y0142094D01*
X0211242Y0142228D01*
X0211333Y0142360D01*
X0211428Y0142490D01*
X0211526Y0142617D01*
X0211627Y0142742D01*
X0211731Y0142865D01*
X0211838Y0142984D01*
X0211948Y0143101D01*
X0212061Y0143216D01*
X0212177Y0143327D01*
X0212295Y0143436D01*
X0212416Y0143541D01*
X0212540Y0143644D01*
X0212666Y0143744D01*
X0212795Y0143840D01*
X0212926Y0143933D01*
X0213059Y0144023D01*
X0213194Y0144110D01*
X0213332Y0144193D01*
X0213471Y0144272D01*
X0213613Y0144349D01*
X0213756Y0144422D01*
X0213901Y0144491D01*
X0214048Y0144556D01*
X0214196Y0144618D01*
X0214346Y0144677D01*
X0214497Y0144731D01*
X0214649Y0144782D01*
X0214803Y0144829D01*
X0214958Y0144872D01*
X0215113Y0144911D01*
X0215270Y0144947D01*
X0215428Y0144979D01*
X0215586Y0145006D01*
X0215745Y0145030D01*
X0215904Y0145050D01*
X0216064Y0145066D01*
X0216225Y0145078D01*
X0216385Y0145086D01*
X0216546Y0145090D01*
X0216706Y0145090D01*
X0216867Y0145086D01*
X0217027Y0145078D01*
X0217188Y0145066D01*
X0217348Y0145050D01*
X0217507Y0145030D01*
X0217666Y0145006D01*
X0217824Y0144979D01*
X0217982Y0144947D01*
X0218139Y0144911D01*
X0218294Y0144872D01*
X0218449Y0144829D01*
X0218603Y0144782D01*
X0218755Y0144731D01*
X0218906Y0144677D01*
X0219056Y0144618D01*
X0219204Y0144556D01*
X0219351Y0144491D01*
X0219496Y0144422D01*
X0219639Y0144349D01*
X0219781Y0144272D01*
X0219920Y0144193D01*
X0220058Y0144110D01*
X0220193Y0144023D01*
X0220326Y0143933D01*
X0220457Y0143840D01*
X0220586Y0143744D01*
X0220712Y0143644D01*
X0220836Y0143541D01*
X0220957Y0143436D01*
X0221075Y0143327D01*
X0221191Y0143216D01*
X0221304Y0143101D01*
X0221414Y0142984D01*
X0221521Y0142865D01*
X0221625Y0142742D01*
X0221726Y0142617D01*
X0221824Y0142490D01*
X0221919Y0142360D01*
X0222010Y0142228D01*
X0222099Y0142094D01*
X0222184Y0141957D01*
X0222265Y0141819D01*
X0222343Y0141678D01*
X0222418Y0141536D01*
X0222489Y0141392D01*
X0222556Y0141246D01*
X0222620Y0141098D01*
X0222680Y0140949D01*
X0222736Y0140799D01*
X0222789Y0140647D01*
X0222838Y0140494D01*
X0222883Y0140340D01*
X0222924Y0140185D01*
X0222962Y0140028D01*
X0222995Y0139871D01*
X0223025Y0139713D01*
X0223051Y0139555D01*
X0223072Y0139395D01*
X0223090Y0139236D01*
X0223104Y0139076D01*
X0223114Y0138915D01*
X0223120Y0138755D01*
X0223122Y0138594D01*
X0223120Y0138433D01*
X0223114Y0138273D01*
X0223104Y0138112D01*
X0223090Y0137952D01*
X0223072Y0137793D01*
X0223051Y0137633D01*
X0223025Y0137475D01*
X0222995Y0137317D01*
X0222962Y0137160D01*
X0222924Y0137003D01*
X0222883Y0136848D01*
X0222838Y0136694D01*
X0222789Y0136541D01*
X0222736Y0136389D01*
X0222680Y0136239D01*
X0222620Y0136090D01*
X0222556Y0135942D01*
X0222489Y0135796D01*
X0222418Y0135652D01*
X0222343Y0135510D01*
X0222265Y0135369D01*
X0222184Y0135231D01*
X0222099Y0135094D01*
X0222010Y0134960D01*
X0221919Y0134828D01*
X0221824Y0134698D01*
X0221726Y0134571D01*
X0221625Y0134446D01*
X0221521Y0134323D01*
X0221414Y0134204D01*
X0221304Y0134087D01*
X0221191Y0133972D01*
X0221075Y0133861D01*
X0220957Y0133752D01*
X0220836Y0133647D01*
X0220712Y0133544D01*
X0220586Y0133444D01*
X0220457Y0133348D01*
X0220326Y0133255D01*
X0220193Y0133165D01*
X0220058Y0133078D01*
X0219920Y0132995D01*
X0219781Y0132916D01*
X0219639Y0132839D01*
X0219496Y0132766D01*
X0219351Y0132697D01*
X0219204Y0132632D01*
X0219056Y0132570D01*
X0218906Y0132511D01*
X0218755Y0132457D01*
X0218603Y0132406D01*
X0218449Y0132359D01*
X0218294Y0132316D01*
X0218139Y0132277D01*
X0217982Y0132241D01*
X0217824Y0132209D01*
X0217666Y0132182D01*
X0217507Y0132158D01*
X0217348Y0132138D01*
X0217188Y0132122D01*
X0217027Y0132110D01*
X0216867Y0132102D01*
X0216706Y0132098D01*
X0216546Y0132098D01*
X0216385Y0132102D01*
X0216225Y0132110D01*
X0216064Y0132122D01*
X0215904Y0132138D01*
X0215745Y0132158D01*
X0215586Y0132182D01*
X0215428Y0132209D01*
X0215270Y0132241D01*
X0215113Y0132277D01*
X0214958Y0132316D01*
X0214803Y0132359D01*
X0214649Y0132406D01*
X0214497Y0132457D01*
X0214346Y0132511D01*
X0214196Y0132570D01*
X0214048Y0132632D01*
X0213901Y0132697D01*
X0213756Y0132766D01*
X0213613Y0132839D01*
X0213471Y0132916D01*
X0213332Y0132995D01*
X0213194Y0133078D01*
X0213059Y0133165D01*
X0212926Y0133255D01*
X0212795Y0133348D01*
X0212666Y0133444D01*
X0212540Y0133544D01*
X0212416Y0133647D01*
X0212295Y0133752D01*
X0212177Y0133861D01*
X0212061Y0133972D01*
X0211948Y0134087D01*
X0211838Y0134204D01*
X0211731Y0134323D01*
X0211627Y0134446D01*
X0211526Y0134571D01*
X0211428Y0134698D01*
X0211333Y0134828D01*
X0211242Y0134960D01*
X0211153Y0135094D01*
X0211068Y0135231D01*
X0210987Y0135369D01*
X0210909Y0135510D01*
X0210834Y0135652D01*
X0210763Y0135796D01*
X0210696Y0135942D01*
X0210632Y0136090D01*
X0210572Y0136239D01*
X0210516Y0136389D01*
X0210463Y0136541D01*
X0210414Y0136694D01*
X0210369Y0136848D01*
X0210328Y0137003D01*
X0210290Y0137160D01*
X0210257Y0137317D01*
X0210227Y0137475D01*
X0210201Y0137633D01*
X0210180Y0137793D01*
X0210162Y0137952D01*
X0210148Y0138112D01*
X0210138Y0138273D01*
X0210132Y0138433D01*
X0210130Y0138594D01*
X0210130Y0183594D02*
X0210132Y0183755D01*
X0210138Y0183915D01*
X0210148Y0184076D01*
X0210162Y0184236D01*
X0210180Y0184395D01*
X0210201Y0184555D01*
X0210227Y0184713D01*
X0210257Y0184871D01*
X0210290Y0185028D01*
X0210328Y0185185D01*
X0210369Y0185340D01*
X0210414Y0185494D01*
X0210463Y0185647D01*
X0210516Y0185799D01*
X0210572Y0185949D01*
X0210632Y0186098D01*
X0210696Y0186246D01*
X0210763Y0186392D01*
X0210834Y0186536D01*
X0210909Y0186678D01*
X0210987Y0186819D01*
X0211068Y0186957D01*
X0211153Y0187094D01*
X0211242Y0187228D01*
X0211333Y0187360D01*
X0211428Y0187490D01*
X0211526Y0187617D01*
X0211627Y0187742D01*
X0211731Y0187865D01*
X0211838Y0187984D01*
X0211948Y0188101D01*
X0212061Y0188216D01*
X0212177Y0188327D01*
X0212295Y0188436D01*
X0212416Y0188541D01*
X0212540Y0188644D01*
X0212666Y0188744D01*
X0212795Y0188840D01*
X0212926Y0188933D01*
X0213059Y0189023D01*
X0213194Y0189110D01*
X0213332Y0189193D01*
X0213471Y0189272D01*
X0213613Y0189349D01*
X0213756Y0189422D01*
X0213901Y0189491D01*
X0214048Y0189556D01*
X0214196Y0189618D01*
X0214346Y0189677D01*
X0214497Y0189731D01*
X0214649Y0189782D01*
X0214803Y0189829D01*
X0214958Y0189872D01*
X0215113Y0189911D01*
X0215270Y0189947D01*
X0215428Y0189979D01*
X0215586Y0190006D01*
X0215745Y0190030D01*
X0215904Y0190050D01*
X0216064Y0190066D01*
X0216225Y0190078D01*
X0216385Y0190086D01*
X0216546Y0190090D01*
X0216706Y0190090D01*
X0216867Y0190086D01*
X0217027Y0190078D01*
X0217188Y0190066D01*
X0217348Y0190050D01*
X0217507Y0190030D01*
X0217666Y0190006D01*
X0217824Y0189979D01*
X0217982Y0189947D01*
X0218139Y0189911D01*
X0218294Y0189872D01*
X0218449Y0189829D01*
X0218603Y0189782D01*
X0218755Y0189731D01*
X0218906Y0189677D01*
X0219056Y0189618D01*
X0219204Y0189556D01*
X0219351Y0189491D01*
X0219496Y0189422D01*
X0219639Y0189349D01*
X0219781Y0189272D01*
X0219920Y0189193D01*
X0220058Y0189110D01*
X0220193Y0189023D01*
X0220326Y0188933D01*
X0220457Y0188840D01*
X0220586Y0188744D01*
X0220712Y0188644D01*
X0220836Y0188541D01*
X0220957Y0188436D01*
X0221075Y0188327D01*
X0221191Y0188216D01*
X0221304Y0188101D01*
X0221414Y0187984D01*
X0221521Y0187865D01*
X0221625Y0187742D01*
X0221726Y0187617D01*
X0221824Y0187490D01*
X0221919Y0187360D01*
X0222010Y0187228D01*
X0222099Y0187094D01*
X0222184Y0186957D01*
X0222265Y0186819D01*
X0222343Y0186678D01*
X0222418Y0186536D01*
X0222489Y0186392D01*
X0222556Y0186246D01*
X0222620Y0186098D01*
X0222680Y0185949D01*
X0222736Y0185799D01*
X0222789Y0185647D01*
X0222838Y0185494D01*
X0222883Y0185340D01*
X0222924Y0185185D01*
X0222962Y0185028D01*
X0222995Y0184871D01*
X0223025Y0184713D01*
X0223051Y0184555D01*
X0223072Y0184395D01*
X0223090Y0184236D01*
X0223104Y0184076D01*
X0223114Y0183915D01*
X0223120Y0183755D01*
X0223122Y0183594D01*
X0223120Y0183433D01*
X0223114Y0183273D01*
X0223104Y0183112D01*
X0223090Y0182952D01*
X0223072Y0182793D01*
X0223051Y0182633D01*
X0223025Y0182475D01*
X0222995Y0182317D01*
X0222962Y0182160D01*
X0222924Y0182003D01*
X0222883Y0181848D01*
X0222838Y0181694D01*
X0222789Y0181541D01*
X0222736Y0181389D01*
X0222680Y0181239D01*
X0222620Y0181090D01*
X0222556Y0180942D01*
X0222489Y0180796D01*
X0222418Y0180652D01*
X0222343Y0180510D01*
X0222265Y0180369D01*
X0222184Y0180231D01*
X0222099Y0180094D01*
X0222010Y0179960D01*
X0221919Y0179828D01*
X0221824Y0179698D01*
X0221726Y0179571D01*
X0221625Y0179446D01*
X0221521Y0179323D01*
X0221414Y0179204D01*
X0221304Y0179087D01*
X0221191Y0178972D01*
X0221075Y0178861D01*
X0220957Y0178752D01*
X0220836Y0178647D01*
X0220712Y0178544D01*
X0220586Y0178444D01*
X0220457Y0178348D01*
X0220326Y0178255D01*
X0220193Y0178165D01*
X0220058Y0178078D01*
X0219920Y0177995D01*
X0219781Y0177916D01*
X0219639Y0177839D01*
X0219496Y0177766D01*
X0219351Y0177697D01*
X0219204Y0177632D01*
X0219056Y0177570D01*
X0218906Y0177511D01*
X0218755Y0177457D01*
X0218603Y0177406D01*
X0218449Y0177359D01*
X0218294Y0177316D01*
X0218139Y0177277D01*
X0217982Y0177241D01*
X0217824Y0177209D01*
X0217666Y0177182D01*
X0217507Y0177158D01*
X0217348Y0177138D01*
X0217188Y0177122D01*
X0217027Y0177110D01*
X0216867Y0177102D01*
X0216706Y0177098D01*
X0216546Y0177098D01*
X0216385Y0177102D01*
X0216225Y0177110D01*
X0216064Y0177122D01*
X0215904Y0177138D01*
X0215745Y0177158D01*
X0215586Y0177182D01*
X0215428Y0177209D01*
X0215270Y0177241D01*
X0215113Y0177277D01*
X0214958Y0177316D01*
X0214803Y0177359D01*
X0214649Y0177406D01*
X0214497Y0177457D01*
X0214346Y0177511D01*
X0214196Y0177570D01*
X0214048Y0177632D01*
X0213901Y0177697D01*
X0213756Y0177766D01*
X0213613Y0177839D01*
X0213471Y0177916D01*
X0213332Y0177995D01*
X0213194Y0178078D01*
X0213059Y0178165D01*
X0212926Y0178255D01*
X0212795Y0178348D01*
X0212666Y0178444D01*
X0212540Y0178544D01*
X0212416Y0178647D01*
X0212295Y0178752D01*
X0212177Y0178861D01*
X0212061Y0178972D01*
X0211948Y0179087D01*
X0211838Y0179204D01*
X0211731Y0179323D01*
X0211627Y0179446D01*
X0211526Y0179571D01*
X0211428Y0179698D01*
X0211333Y0179828D01*
X0211242Y0179960D01*
X0211153Y0180094D01*
X0211068Y0180231D01*
X0210987Y0180369D01*
X0210909Y0180510D01*
X0210834Y0180652D01*
X0210763Y0180796D01*
X0210696Y0180942D01*
X0210632Y0181090D01*
X0210572Y0181239D01*
X0210516Y0181389D01*
X0210463Y0181541D01*
X0210414Y0181694D01*
X0210369Y0181848D01*
X0210328Y0182003D01*
X0210290Y0182160D01*
X0210257Y0182317D01*
X0210227Y0182475D01*
X0210201Y0182633D01*
X0210180Y0182793D01*
X0210162Y0182952D01*
X0210148Y0183112D01*
X0210138Y0183273D01*
X0210132Y0183433D01*
X0210130Y0183594D01*
D11*
X0191626Y0178594D02*
X0178605Y0178594D01*
X0174977Y0174966D01*
X0174977Y0166878D01*
X0173355Y0165256D01*
X0168622Y0165256D01*
X0169969Y0166603D01*
X0169969Y0170611D01*
X0168622Y0165256D02*
X0156855Y0165256D01*
X0151706Y0160107D01*
X0145222Y0160107D01*
X0145222Y0158139D02*
X0151562Y0158139D01*
X0157389Y0163966D01*
X0168622Y0163966D01*
X0169969Y0162619D01*
X0169969Y0158611D01*
X0168622Y0163966D02*
X0173889Y0163966D01*
X0176267Y0166344D01*
X0176267Y0172611D01*
X0177251Y0173594D01*
X0181626Y0173594D01*
X0169969Y0150611D02*
X0169969Y0146603D01*
X0168622Y0145256D01*
X0176622Y0145256D01*
X0179960Y0148594D01*
X0191626Y0148594D01*
X0181626Y0143594D02*
X0181255Y0143966D01*
X0168622Y0143966D01*
X0169969Y0142619D01*
X0169969Y0138611D01*
X0168622Y0143966D02*
X0157355Y0143966D01*
X0149087Y0152233D01*
X0145222Y0152233D01*
X0145222Y0154202D02*
X0148944Y0154202D01*
X0157889Y0145256D01*
X0168622Y0145256D01*
X0152000Y0133883D02*
X0149382Y0136501D01*
X0133425Y0136501D01*
X0132638Y0137288D01*
X0132638Y0149491D01*
X0130669Y0149491D02*
X0130669Y0135237D01*
X0133524Y0132383D01*
X0147500Y0132383D01*
X0148500Y0131383D01*
X0148500Y0120383D01*
X0152500Y0116383D01*
X0159000Y0116383D01*
X0162205Y0113178D01*
X0162205Y0100068D01*
X0172205Y0100068D02*
X0172205Y0116406D01*
X0168858Y0119753D01*
X0154630Y0119753D01*
X0152000Y0122383D01*
X0152000Y0133883D01*
X0145000Y0127883D02*
X0145000Y0118383D01*
X0152205Y0111178D01*
X0152205Y0100068D01*
X0142205Y0100068D02*
X0142205Y0112804D01*
X0139626Y0115383D01*
X0129500Y0115383D01*
X0125500Y0119383D01*
X0125500Y0131615D01*
X0121614Y0135501D01*
X0103504Y0135501D01*
X0101437Y0137568D01*
X0101437Y0154383D01*
X0105193Y0158139D01*
X0122022Y0158139D01*
X0122022Y0160107D02*
X0100476Y0160107D01*
X0097992Y0157623D01*
X0097992Y0135391D01*
X0101819Y0131564D01*
X0119819Y0131564D01*
X0122000Y0129383D01*
X0122000Y0117383D01*
X0127500Y0111883D01*
X0130000Y0111883D01*
X0132205Y0109678D01*
X0132205Y0100068D01*
X0122205Y0100068D02*
X0122205Y0110678D01*
X0118500Y0114383D01*
X0118500Y0126383D01*
X0117000Y0127883D01*
X0099500Y0127883D01*
X0094500Y0132883D01*
X0094500Y0160883D01*
X0097661Y0164044D01*
X0122022Y0164044D01*
X0122022Y0166013D02*
X0098976Y0166013D01*
X0097992Y0166997D01*
X0108000Y0180245D02*
X0104500Y0183745D01*
X0104500Y0209383D01*
X0108500Y0213383D01*
X0119500Y0213383D01*
X0122205Y0216087D01*
X0122205Y0222115D01*
X0131000Y0208883D02*
X0112319Y0208883D01*
X0108740Y0205304D01*
X0108740Y0202867D01*
X0125870Y0184914D02*
X0121201Y0180245D01*
X0108000Y0180245D01*
X0114969Y0171111D02*
X0117122Y0171111D01*
X0118622Y0169611D01*
X0118622Y0168611D01*
X0119252Y0167981D01*
X0122022Y0167981D01*
X0128701Y0172691D02*
X0128701Y0183969D01*
X0127756Y0184914D01*
X0125870Y0184914D01*
X0134606Y0172691D02*
X0134606Y0204989D01*
X0142000Y0212383D01*
X0149500Y0212383D01*
X0152205Y0215087D01*
X0152205Y0222115D01*
X0142205Y0222115D02*
X0142205Y0216087D01*
X0141000Y0214883D01*
X0137000Y0214883D01*
X0131000Y0208883D01*
X0136575Y0201871D02*
X0143508Y0208804D01*
X0160984Y0208804D01*
X0162205Y0210024D01*
X0162205Y0222115D01*
X0172205Y0222115D02*
X0172205Y0208713D01*
X0168858Y0205367D01*
X0145236Y0205367D01*
X0138543Y0198674D01*
X0138543Y0172691D01*
X0136575Y0172691D02*
X0136575Y0201871D01*
X0140512Y0195501D02*
X0140512Y0172691D01*
X0142480Y0172691D02*
X0142480Y0192469D01*
X0148622Y0198611D01*
X0223292Y0198611D01*
X0235912Y0185991D01*
X0241622Y0193111D02*
X0232622Y0202111D01*
X0147122Y0202111D01*
X0140512Y0195501D01*
X0150622Y0172611D02*
X0148122Y0170111D01*
X0148122Y0169111D01*
X0146992Y0167981D01*
X0145222Y0167981D01*
X0145320Y0166111D02*
X0145222Y0166013D01*
X0145222Y0162076D02*
X0150587Y0162076D01*
X0151122Y0162611D01*
X0128701Y0149491D02*
X0128701Y0132682D01*
X0132500Y0128883D01*
X0144000Y0128883D01*
X0145000Y0127883D01*
X0124764Y0145753D02*
X0124622Y0145611D01*
X0181019Y0230615D02*
X0185223Y0230615D01*
X0183121Y0230615D02*
X0183121Y0236920D01*
X0181019Y0234818D01*
X0225969Y0208611D02*
X0228122Y0208611D01*
X0229926Y0206807D01*
X0241622Y0193111D02*
X0241622Y0151907D01*
X0235910Y0146195D01*
X0229928Y0136188D02*
X0229928Y0117417D01*
X0227122Y0114611D01*
X0222469Y0114611D01*
D12*
X0229928Y0136188D03*
X0235910Y0146195D03*
X0229926Y0175998D03*
X0235912Y0185991D03*
X0191626Y0178594D03*
X0191626Y0168594D03*
X0191626Y0158594D03*
X0191626Y0148594D03*
X0181626Y0143594D03*
X0181626Y0153594D03*
X0181626Y0163594D03*
X0181626Y0173594D03*
D13*
X0204618Y0192098D03*
X0204618Y0130091D03*
D14*
X0215776Y0114611D03*
X0222469Y0114611D03*
X0169969Y0138611D03*
X0163276Y0138611D03*
X0163276Y0150611D03*
X0169969Y0150611D03*
X0169969Y0158611D03*
X0163276Y0158611D03*
X0163276Y0170611D03*
X0169969Y0170611D03*
X0219276Y0208611D03*
X0225969Y0208611D03*
X0114969Y0171111D03*
X0108276Y0171111D03*
X0112122Y0185702D03*
X0112122Y0192394D03*
X0114122Y0151957D03*
X0114122Y0145265D03*
D15*
X0148122Y0178265D03*
X0148122Y0184957D03*
X0163276Y0179611D03*
X0169969Y0179611D03*
X0169969Y0129111D03*
X0163276Y0129111D03*
D16*
X0205122Y0158599D03*
X0205122Y0169623D03*
D17*
X0142480Y0172691D03*
X0140512Y0172691D03*
X0138543Y0172691D03*
X0136575Y0172691D03*
X0134606Y0172691D03*
X0132638Y0172691D03*
X0130669Y0172691D03*
X0128701Y0172691D03*
X0126732Y0172691D03*
X0124764Y0172691D03*
X0124764Y0149491D03*
X0126732Y0149491D03*
X0128701Y0149491D03*
X0130669Y0149491D03*
X0132638Y0149491D03*
X0134606Y0149491D03*
X0136575Y0149491D03*
X0138543Y0149491D03*
X0140512Y0149491D03*
X0142480Y0149491D03*
D18*
X0145222Y0152233D03*
X0145222Y0154202D03*
X0145222Y0156170D03*
X0145222Y0158139D03*
X0145222Y0160107D03*
X0145222Y0162076D03*
X0145222Y0164044D03*
X0145222Y0166013D03*
X0145222Y0167981D03*
X0145222Y0169950D03*
X0122022Y0169950D03*
X0122022Y0167981D03*
X0122022Y0166013D03*
X0122022Y0164044D03*
X0122022Y0162076D03*
X0122022Y0160107D03*
X0122022Y0158139D03*
X0122022Y0156170D03*
X0122022Y0154202D03*
X0122022Y0152233D03*
D19*
X0133622Y0161091D03*
D20*
X0125870Y0184914D03*
X0119374Y0184914D03*
X0119374Y0193182D03*
X0125870Y0193182D03*
D21*
X0070433Y0226052D03*
X0070433Y0096131D03*
X0223976Y0096131D03*
X0223976Y0226052D03*
D22*
X0172205Y0225115D02*
X0172205Y0219115D01*
X0162205Y0219115D02*
X0162205Y0225115D01*
X0152205Y0225115D02*
X0152205Y0219115D01*
X0142205Y0219115D02*
X0142205Y0225115D01*
X0132205Y0225115D02*
X0132205Y0219115D01*
X0122205Y0219115D02*
X0122205Y0225115D01*
X0058000Y0166091D02*
X0052000Y0166091D01*
X0052000Y0156091D02*
X0058000Y0156091D01*
X0122205Y0103068D02*
X0122205Y0097068D01*
X0132205Y0097068D02*
X0132205Y0103068D01*
X0142205Y0103068D02*
X0142205Y0097068D01*
X0152205Y0097068D02*
X0152205Y0103068D01*
X0162205Y0103068D02*
X0162205Y0097068D01*
X0172205Y0097068D02*
X0172205Y0103068D01*
D23*
X0074063Y0152513D03*
X0074063Y0169835D03*
D24*
X0074663Y0170271D02*
X0100583Y0170271D01*
X0100455Y0170581D02*
X0100861Y0169600D01*
X0101611Y0168850D01*
X0102592Y0168444D01*
X0103653Y0168444D01*
X0104633Y0168850D01*
X0104903Y0169120D01*
X0105117Y0169120D01*
X0105117Y0168453D01*
X0105814Y0167755D01*
X0110737Y0167755D01*
X0111435Y0168453D01*
X0111435Y0173770D01*
X0110737Y0174467D01*
X0105814Y0174467D01*
X0105117Y0173770D01*
X0105117Y0173102D01*
X0104903Y0173102D01*
X0104633Y0173372D01*
X0103653Y0173778D01*
X0102592Y0173778D01*
X0101611Y0173372D01*
X0100861Y0172622D01*
X0100455Y0171642D01*
X0100455Y0170581D01*
X0100455Y0171470D02*
X0080175Y0171470D01*
X0080175Y0170435D02*
X0080175Y0174742D01*
X0080080Y0175095D01*
X0079898Y0175412D01*
X0079639Y0175670D01*
X0079323Y0175853D01*
X0078970Y0175947D01*
X0074663Y0175947D01*
X0074663Y0170435D01*
X0080175Y0170435D01*
X0080175Y0169235D02*
X0074663Y0169235D01*
X0074663Y0163724D01*
X0078970Y0163724D01*
X0079323Y0163818D01*
X0079639Y0164001D01*
X0079898Y0164259D01*
X0080080Y0164576D01*
X0080175Y0164928D01*
X0080175Y0169235D01*
X0080175Y0169073D02*
X0096296Y0169073D01*
X0096481Y0169258D02*
X0095731Y0168508D01*
X0095325Y0167527D01*
X0095325Y0166466D01*
X0095731Y0165486D01*
X0096328Y0164889D01*
X0096121Y0164682D01*
X0093862Y0162423D01*
X0092959Y0161521D01*
X0092959Y0132245D01*
X0093862Y0131342D01*
X0098862Y0126342D01*
X0116362Y0126342D01*
X0116959Y0125745D01*
X0116959Y0113745D01*
X0117862Y0112842D01*
X0120664Y0110040D01*
X0120664Y0106965D01*
X0119831Y0106620D01*
X0118652Y0105441D01*
X0118014Y0103901D01*
X0118014Y0096234D01*
X0118652Y0094694D01*
X0119831Y0093515D01*
X0121371Y0092877D01*
X0123038Y0092877D01*
X0124578Y0093515D01*
X0125757Y0094694D01*
X0126395Y0096234D01*
X0126395Y0103901D01*
X0125757Y0105441D01*
X0124578Y0106620D01*
X0123745Y0106965D01*
X0123745Y0111316D01*
X0120041Y0115021D01*
X0120041Y0127021D01*
X0118541Y0128521D01*
X0117638Y0129423D01*
X0100138Y0129423D01*
X0096041Y0133521D01*
X0096041Y0160245D01*
X0098300Y0162504D01*
X0119231Y0162504D01*
X0119231Y0161648D01*
X0099838Y0161648D01*
X0096452Y0158261D01*
X0096452Y0134752D01*
X0097354Y0133850D01*
X0101181Y0130023D01*
X0119181Y0130023D01*
X0120459Y0128745D01*
X0120459Y0116745D01*
X0121362Y0115842D01*
X0126862Y0110342D01*
X0129362Y0110342D01*
X0130664Y0109040D01*
X0130664Y0106965D01*
X0129831Y0106620D01*
X0128652Y0105441D01*
X0128014Y0103901D01*
X0128014Y0096234D01*
X0128652Y0094694D01*
X0129831Y0093515D01*
X0131371Y0092877D01*
X0133038Y0092877D01*
X0134578Y0093515D01*
X0135757Y0094694D01*
X0136395Y0096234D01*
X0136395Y0103901D01*
X0135757Y0105441D01*
X0134578Y0106620D01*
X0133745Y0106965D01*
X0133745Y0110316D01*
X0131541Y0112521D01*
X0130638Y0113423D01*
X0128138Y0113423D01*
X0123541Y0118021D01*
X0123541Y0130021D01*
X0121359Y0132202D01*
X0120457Y0133104D01*
X0102457Y0133104D01*
X0099533Y0136029D01*
X0099533Y0156985D01*
X0101114Y0158567D01*
X0103442Y0158567D01*
X0100799Y0155923D01*
X0099896Y0155021D01*
X0099896Y0136930D01*
X0101963Y0134863D01*
X0102866Y0133960D01*
X0120976Y0133960D01*
X0123959Y0130977D01*
X0123959Y0118745D01*
X0124862Y0117842D01*
X0128862Y0113842D01*
X0138988Y0113842D01*
X0140664Y0112166D01*
X0140664Y0106965D01*
X0139831Y0106620D01*
X0138652Y0105441D01*
X0138014Y0103901D01*
X0138014Y0096234D01*
X0138652Y0094694D01*
X0139831Y0093515D01*
X0141371Y0092877D01*
X0143038Y0092877D01*
X0144578Y0093515D01*
X0145757Y0094694D01*
X0146395Y0096234D01*
X0146395Y0103901D01*
X0145757Y0105441D01*
X0144578Y0106620D01*
X0143745Y0106965D01*
X0143745Y0113442D01*
X0141167Y0116021D01*
X0140264Y0116923D01*
X0130138Y0116923D01*
X0127041Y0120021D01*
X0127041Y0132253D01*
X0126138Y0133155D01*
X0122252Y0137041D01*
X0104142Y0137041D01*
X0102978Y0138206D01*
X0102978Y0153745D01*
X0105831Y0156598D01*
X0119231Y0156598D01*
X0119231Y0153546D01*
X0119129Y0153369D01*
X0119035Y0153016D01*
X0119035Y0152233D01*
X0119035Y0151450D01*
X0119129Y0151098D01*
X0119312Y0150781D01*
X0119570Y0150523D01*
X0119887Y0150340D01*
X0120239Y0150246D01*
X0122022Y0150246D01*
X0122973Y0150246D01*
X0122973Y0147734D01*
X0122361Y0147122D01*
X0121955Y0146142D01*
X0121955Y0145081D01*
X0122361Y0144100D01*
X0123111Y0143350D01*
X0124092Y0142944D01*
X0125153Y0142944D01*
X0126133Y0143350D01*
X0126883Y0144100D01*
X0127160Y0144770D01*
X0127160Y0132044D01*
X0130959Y0128245D01*
X0131862Y0127342D01*
X0143362Y0127342D01*
X0143459Y0127245D01*
X0143459Y0117745D01*
X0150664Y0110540D01*
X0150664Y0106965D01*
X0149831Y0106620D01*
X0148652Y0105441D01*
X0148014Y0103901D01*
X0148014Y0096234D01*
X0148652Y0094694D01*
X0149831Y0093515D01*
X0151371Y0092877D01*
X0153038Y0092877D01*
X0154578Y0093515D01*
X0155757Y0094694D01*
X0156395Y0096234D01*
X0156395Y0103901D01*
X0155757Y0105441D01*
X0154578Y0106620D01*
X0153745Y0106965D01*
X0153745Y0111816D01*
X0152843Y0112718D01*
X0146541Y0119021D01*
X0146541Y0128521D01*
X0145638Y0129423D01*
X0144638Y0130423D01*
X0133138Y0130423D01*
X0130241Y0133320D01*
X0130241Y0133486D01*
X0131983Y0131745D01*
X0132885Y0130842D01*
X0146862Y0130842D01*
X0146959Y0130745D01*
X0146959Y0119745D01*
X0150959Y0115745D01*
X0151862Y0114842D01*
X0158362Y0114842D01*
X0160664Y0112540D01*
X0160664Y0106965D01*
X0159831Y0106620D01*
X0158652Y0105441D01*
X0158014Y0103901D01*
X0158014Y0096234D01*
X0158652Y0094694D01*
X0159831Y0093515D01*
X0161371Y0092877D01*
X0163038Y0092877D01*
X0164578Y0093515D01*
X0165757Y0094694D01*
X0166395Y0096234D01*
X0166395Y0103901D01*
X0165757Y0105441D01*
X0164578Y0106620D01*
X0163745Y0106965D01*
X0163745Y0113816D01*
X0162843Y0114718D01*
X0159638Y0117923D01*
X0153138Y0117923D01*
X0150041Y0121021D01*
X0150041Y0132021D01*
X0149138Y0132923D01*
X0148138Y0133923D01*
X0134162Y0133923D01*
X0133125Y0134960D01*
X0148744Y0134960D01*
X0150459Y0133245D01*
X0150459Y0121745D01*
X0151362Y0120842D01*
X0153992Y0118212D01*
X0168220Y0118212D01*
X0170664Y0115768D01*
X0170664Y0106965D01*
X0169831Y0106620D01*
X0168652Y0105441D01*
X0168014Y0103901D01*
X0168014Y0096234D01*
X0168652Y0094694D01*
X0169831Y0093515D01*
X0171371Y0092877D01*
X0173038Y0092877D01*
X0174578Y0093515D01*
X0175757Y0094694D01*
X0176395Y0096234D01*
X0176395Y0103901D01*
X0175757Y0105441D01*
X0174578Y0106620D01*
X0173745Y0106965D01*
X0173745Y0117044D01*
X0170399Y0120391D01*
X0169496Y0121293D01*
X0155268Y0121293D01*
X0153541Y0123021D01*
X0153541Y0134521D01*
X0150922Y0137139D01*
X0150020Y0138041D01*
X0134178Y0138041D01*
X0134178Y0146701D01*
X0143573Y0146701D01*
X0144271Y0147398D01*
X0144271Y0150443D01*
X0147315Y0150443D01*
X0147565Y0150693D01*
X0148449Y0150693D01*
X0156717Y0142425D01*
X0167984Y0142425D01*
X0168428Y0141981D01*
X0168428Y0141967D01*
X0167507Y0141967D01*
X0166809Y0141270D01*
X0166809Y0135953D01*
X0167507Y0135255D01*
X0172430Y0135255D01*
X0173128Y0135953D01*
X0173128Y0141270D01*
X0172430Y0141967D01*
X0171509Y0141967D01*
X0171509Y0142425D01*
X0177945Y0142425D01*
X0178364Y0141415D01*
X0179446Y0140332D01*
X0180861Y0139746D01*
X0182392Y0139746D01*
X0183806Y0140332D01*
X0184888Y0141415D01*
X0185474Y0142829D01*
X0185474Y0144360D01*
X0184888Y0145774D01*
X0183806Y0146857D01*
X0183330Y0147054D01*
X0188099Y0147054D01*
X0188364Y0146415D01*
X0189446Y0145332D01*
X0190861Y0144746D01*
X0192392Y0144746D01*
X0193806Y0145332D01*
X0194888Y0146415D01*
X0195474Y0147829D01*
X0195474Y0149360D01*
X0194888Y0150774D01*
X0193806Y0151857D01*
X0192392Y0152442D01*
X0190861Y0152442D01*
X0189446Y0151857D01*
X0188364Y0150774D01*
X0188099Y0150135D01*
X0183729Y0150135D01*
X0184205Y0150453D01*
X0184768Y0151016D01*
X0185211Y0151678D01*
X0185516Y0152415D01*
X0185671Y0153196D01*
X0185671Y0153309D01*
X0181912Y0153309D01*
X0181912Y0153880D01*
X0185671Y0153880D01*
X0185671Y0153993D01*
X0185516Y0154774D01*
X0185211Y0155510D01*
X0184768Y0156173D01*
X0184205Y0156736D01*
X0183542Y0157179D01*
X0182806Y0157484D01*
X0182025Y0157639D01*
X0181912Y0157639D01*
X0181912Y0153880D01*
X0181340Y0153880D01*
X0181340Y0153309D01*
X0177581Y0153309D01*
X0177581Y0153196D01*
X0177737Y0152415D01*
X0178042Y0151678D01*
X0178484Y0151016D01*
X0179048Y0150453D01*
X0179523Y0150135D01*
X0179322Y0150135D01*
X0178420Y0149233D01*
X0175984Y0146797D01*
X0171509Y0146797D01*
X0171509Y0147255D01*
X0172430Y0147255D01*
X0173128Y0147953D01*
X0173128Y0153270D01*
X0172430Y0153967D01*
X0167507Y0153967D01*
X0166809Y0153270D01*
X0166809Y0147953D01*
X0167507Y0147255D01*
X0168428Y0147255D01*
X0168428Y0147241D01*
X0167984Y0146797D01*
X0158527Y0146797D01*
X0149582Y0155742D01*
X0148209Y0155742D01*
X0148209Y0156170D01*
X0145222Y0156170D01*
X0148181Y0156170D01*
X0148209Y0156170D02*
X0148209Y0156598D01*
X0152200Y0156598D01*
X0158027Y0162425D01*
X0167984Y0162425D01*
X0168428Y0161981D01*
X0168428Y0161967D01*
X0167507Y0161967D01*
X0166809Y0161270D01*
X0166809Y0155953D01*
X0167507Y0155255D01*
X0172430Y0155255D01*
X0173128Y0155953D01*
X0173128Y0161270D01*
X0172430Y0161967D01*
X0171509Y0161967D01*
X0171509Y0162425D01*
X0174527Y0162425D01*
X0176905Y0164803D01*
X0177808Y0165706D01*
X0177808Y0171973D01*
X0177889Y0172054D01*
X0178099Y0172054D01*
X0178364Y0171415D01*
X0179446Y0170332D01*
X0180861Y0169746D01*
X0182392Y0169746D01*
X0183806Y0170332D01*
X0184888Y0171415D01*
X0185474Y0172829D01*
X0185474Y0174360D01*
X0184888Y0175774D01*
X0183806Y0176857D01*
X0183330Y0177054D01*
X0188099Y0177054D01*
X0188364Y0176415D01*
X0189446Y0175332D01*
X0190861Y0174746D01*
X0192392Y0174746D01*
X0193806Y0175332D01*
X0194888Y0176415D01*
X0195474Y0177829D01*
X0195474Y0179360D01*
X0194888Y0180774D01*
X0193806Y0181857D01*
X0192392Y0182442D01*
X0190861Y0182442D01*
X0189446Y0181857D01*
X0188364Y0180774D01*
X0188099Y0180135D01*
X0177967Y0180135D01*
X0173436Y0175604D01*
X0173436Y0167516D01*
X0172717Y0166797D01*
X0171509Y0166797D01*
X0171509Y0167255D01*
X0172430Y0167255D01*
X0173128Y0167953D01*
X0173128Y0173270D01*
X0172430Y0173967D01*
X0167507Y0173967D01*
X0166809Y0173270D01*
X0166809Y0167953D01*
X0167507Y0167255D01*
X0168428Y0167255D01*
X0168428Y0167241D01*
X0167984Y0166797D01*
X0156217Y0166797D01*
X0155314Y0165894D01*
X0153253Y0163834D01*
X0152104Y0164983D01*
X0150140Y0164983D01*
X0148773Y0163616D01*
X0148209Y0163616D01*
X0148209Y0164044D01*
X0145222Y0164044D01*
X0148189Y0164044D01*
X0148209Y0164044D02*
X0148209Y0164222D01*
X0149265Y0164222D01*
X0150314Y0165271D01*
X0151487Y0166444D01*
X0152153Y0166444D01*
X0153133Y0166850D01*
X0153883Y0167600D01*
X0154289Y0168581D01*
X0154289Y0169642D01*
X0153883Y0170622D01*
X0153133Y0171372D01*
X0152853Y0171488D01*
X0152994Y0171629D01*
X0152994Y0172944D01*
X0153153Y0172944D01*
X0154133Y0173350D01*
X0154883Y0174100D01*
X0155289Y0175081D01*
X0155289Y0176142D01*
X0154883Y0177122D01*
X0154133Y0177872D01*
X0153153Y0178278D01*
X0152092Y0178278D01*
X0151478Y0178024D01*
X0151478Y0180726D01*
X0150781Y0181424D01*
X0145464Y0181424D01*
X0144766Y0180726D01*
X0144766Y0175803D01*
X0145464Y0175106D01*
X0146331Y0175106D01*
X0146331Y0173591D01*
X0144480Y0171740D01*
X0144271Y0171740D01*
X0144271Y0174784D01*
X0144021Y0175034D01*
X0144021Y0191831D01*
X0149260Y0197070D01*
X0201225Y0197070D01*
X0199604Y0195449D01*
X0198703Y0193275D01*
X0198703Y0190922D01*
X0199604Y0188748D01*
X0201268Y0187084D01*
X0203442Y0186183D01*
X0205795Y0186183D01*
X0207969Y0187084D01*
X0209633Y0188748D01*
X0210533Y0190922D01*
X0210533Y0193275D01*
X0209633Y0195449D01*
X0208011Y0197070D01*
X0222654Y0197070D01*
X0232329Y0187396D01*
X0232064Y0186756D01*
X0232064Y0185226D01*
X0232650Y0183811D01*
X0233732Y0182729D01*
X0235147Y0182143D01*
X0236677Y0182143D01*
X0238092Y0182729D01*
X0239174Y0183811D01*
X0239760Y0185226D01*
X0239760Y0186756D01*
X0239174Y0188171D01*
X0238092Y0189253D01*
X0236677Y0189839D01*
X0235147Y0189839D01*
X0234507Y0189574D01*
X0224833Y0199249D01*
X0223930Y0200152D01*
X0147984Y0200152D01*
X0142052Y0194220D01*
X0142052Y0194863D01*
X0147760Y0200570D01*
X0231984Y0200570D01*
X0240081Y0192473D01*
X0240081Y0152545D01*
X0237315Y0149778D01*
X0236675Y0150043D01*
X0235145Y0150043D01*
X0233730Y0149457D01*
X0232648Y0148375D01*
X0232062Y0146961D01*
X0232062Y0145430D01*
X0232648Y0144015D01*
X0233730Y0142933D01*
X0235145Y0142347D01*
X0236675Y0142347D01*
X0238090Y0142933D01*
X0239172Y0144015D01*
X0239758Y0145430D01*
X0239758Y0146961D01*
X0239493Y0147600D01*
X0242260Y0150367D01*
X0243163Y0151269D01*
X0243163Y0193749D01*
X0234163Y0202749D01*
X0233260Y0203652D01*
X0146484Y0203652D01*
X0140084Y0197251D01*
X0140084Y0198036D01*
X0145874Y0203826D01*
X0169496Y0203826D01*
X0172843Y0207173D01*
X0173745Y0208075D01*
X0173745Y0215217D01*
X0174578Y0215562D01*
X0175757Y0216741D01*
X0176395Y0218281D01*
X0176395Y0225949D01*
X0175757Y0227489D01*
X0174578Y0228668D01*
X0173038Y0229305D01*
X0171371Y0229305D01*
X0169831Y0228668D01*
X0168652Y0227489D01*
X0168014Y0225949D01*
X0168014Y0218281D01*
X0168652Y0216741D01*
X0169831Y0215562D01*
X0170664Y0215217D01*
X0170664Y0209352D01*
X0168220Y0206907D01*
X0144598Y0206907D01*
X0143696Y0206005D01*
X0138115Y0200425D01*
X0138115Y0201233D01*
X0144146Y0207263D01*
X0161622Y0207263D01*
X0162525Y0208166D01*
X0163745Y0209386D01*
X0163745Y0215217D01*
X0164578Y0215562D01*
X0165757Y0216741D01*
X0166395Y0218281D01*
X0166395Y0225949D01*
X0165757Y0227489D01*
X0164578Y0228668D01*
X0163038Y0229305D01*
X0161371Y0229305D01*
X0159831Y0228668D01*
X0158652Y0227489D01*
X0158014Y0225949D01*
X0158014Y0218281D01*
X0158652Y0216741D01*
X0159831Y0215562D01*
X0160664Y0215217D01*
X0160664Y0210663D01*
X0160346Y0210344D01*
X0142870Y0210344D01*
X0136147Y0203622D01*
X0136147Y0204351D01*
X0142638Y0210842D01*
X0150138Y0210842D01*
X0152843Y0213547D01*
X0153745Y0214449D01*
X0153745Y0215217D01*
X0154578Y0215562D01*
X0155757Y0216741D01*
X0156395Y0218281D01*
X0156395Y0225949D01*
X0155757Y0227489D01*
X0154578Y0228668D01*
X0153038Y0229305D01*
X0151371Y0229305D01*
X0149831Y0228668D01*
X0148652Y0227489D01*
X0148014Y0225949D01*
X0148014Y0218281D01*
X0148652Y0216741D01*
X0149831Y0215562D01*
X0150305Y0215366D01*
X0148862Y0213923D01*
X0142219Y0213923D01*
X0142541Y0214245D01*
X0143349Y0215053D01*
X0144578Y0215562D01*
X0145757Y0216741D01*
X0146395Y0218281D01*
X0146395Y0225949D01*
X0145757Y0227489D01*
X0144578Y0228668D01*
X0143038Y0229305D01*
X0141371Y0229305D01*
X0139831Y0228668D01*
X0138652Y0227489D01*
X0138014Y0225949D01*
X0138014Y0218281D01*
X0138652Y0216741D01*
X0138970Y0216423D01*
X0136362Y0216423D01*
X0130362Y0210423D01*
X0111681Y0210423D01*
X0108102Y0206844D01*
X0107200Y0205942D01*
X0107200Y0205098D01*
X0106479Y0204378D01*
X0106073Y0203397D01*
X0106073Y0202336D01*
X0106479Y0201356D01*
X0107229Y0200606D01*
X0108210Y0200200D01*
X0109271Y0200200D01*
X0110251Y0200606D01*
X0111001Y0201356D01*
X0111407Y0202336D01*
X0111407Y0203397D01*
X0111001Y0204378D01*
X0110497Y0204882D01*
X0112957Y0207342D01*
X0131638Y0207342D01*
X0132541Y0208245D01*
X0137638Y0213342D01*
X0140781Y0213342D01*
X0140459Y0213021D01*
X0133066Y0205627D01*
X0133066Y0186439D01*
X0132633Y0186872D01*
X0131653Y0187278D01*
X0130592Y0187278D01*
X0129611Y0186872D01*
X0128861Y0186122D01*
X0128822Y0186027D01*
X0128394Y0186455D01*
X0128340Y0186455D01*
X0128340Y0187179D01*
X0127643Y0187876D01*
X0124097Y0187876D01*
X0123400Y0187179D01*
X0123400Y0184623D01*
X0122041Y0183264D01*
X0122041Y0184874D01*
X0119414Y0184874D01*
X0119414Y0184954D01*
X0122041Y0184954D01*
X0122041Y0186868D01*
X0121946Y0187221D01*
X0121764Y0187538D01*
X0121505Y0187796D01*
X0121189Y0187979D01*
X0120836Y0188073D01*
X0119414Y0188073D01*
X0119414Y0184954D01*
X0119334Y0184954D01*
X0119334Y0184874D01*
X0116707Y0184874D01*
X0116707Y0182960D01*
X0116802Y0182607D01*
X0116984Y0182291D01*
X0117243Y0182032D01*
X0117559Y0181850D01*
X0117799Y0181785D01*
X0108638Y0181785D01*
X0106041Y0184383D01*
X0106041Y0208745D01*
X0109138Y0211842D01*
X0120138Y0211842D01*
X0121041Y0212745D01*
X0123349Y0215053D01*
X0124578Y0215562D01*
X0125757Y0216741D01*
X0126395Y0218281D01*
X0126395Y0225949D01*
X0125757Y0227489D01*
X0124578Y0228668D01*
X0123038Y0229305D01*
X0121371Y0229305D01*
X0119831Y0228668D01*
X0118652Y0227489D01*
X0118014Y0225949D01*
X0118014Y0218281D01*
X0118652Y0216741D01*
X0119666Y0215727D01*
X0118862Y0214923D01*
X0107862Y0214923D01*
X0102959Y0210021D01*
X0102959Y0183107D01*
X0106459Y0179607D01*
X0106459Y0179607D01*
X0107362Y0178704D01*
X0121839Y0178704D01*
X0122741Y0179607D01*
X0125087Y0181952D01*
X0127160Y0181952D01*
X0127160Y0175679D01*
X0126732Y0175679D01*
X0126554Y0175679D01*
X0126554Y0176711D01*
X0126494Y0176772D01*
X0126494Y0177593D01*
X0125104Y0178983D01*
X0123140Y0178983D01*
X0121750Y0177593D01*
X0121750Y0175629D01*
X0122973Y0174406D01*
X0122973Y0171740D01*
X0119929Y0171740D01*
X0119300Y0171111D01*
X0119260Y0171152D01*
X0118128Y0172284D01*
X0118128Y0173770D01*
X0117430Y0174467D01*
X0112507Y0174467D01*
X0111809Y0173770D01*
X0111809Y0168453D01*
X0112507Y0167755D01*
X0117299Y0167755D01*
X0117501Y0167553D01*
X0100648Y0167553D01*
X0100253Y0168508D01*
X0099503Y0169258D01*
X0098523Y0169664D01*
X0097462Y0169664D01*
X0096481Y0169258D01*
X0095469Y0167874D02*
X0080175Y0167874D01*
X0080175Y0166675D02*
X0095325Y0166675D01*
X0095740Y0165477D02*
X0080175Y0165477D01*
X0079909Y0164278D02*
X0095717Y0164278D01*
X0096121Y0164682D02*
X0096121Y0164682D01*
X0094519Y0163080D02*
X0061193Y0163080D01*
X0061347Y0163233D02*
X0061752Y0163792D01*
X0062066Y0164407D01*
X0062279Y0165064D01*
X0062379Y0165691D01*
X0055400Y0165691D01*
X0055400Y0161704D01*
X0058345Y0161704D01*
X0059027Y0161812D01*
X0059684Y0162025D01*
X0060299Y0162339D01*
X0060858Y0162745D01*
X0061347Y0163233D01*
X0062000Y0164278D02*
X0068217Y0164278D01*
X0068228Y0164259D02*
X0068487Y0164001D01*
X0068803Y0163818D01*
X0069156Y0163724D01*
X0073463Y0163724D01*
X0073463Y0169235D01*
X0074663Y0169235D01*
X0074663Y0170435D01*
X0073463Y0170435D01*
X0073463Y0169235D01*
X0067951Y0169235D01*
X0067951Y0164928D01*
X0068046Y0164576D01*
X0068228Y0164259D01*
X0067951Y0165477D02*
X0062345Y0165477D01*
X0062379Y0166491D02*
X0062279Y0167119D01*
X0062066Y0167776D01*
X0061752Y0168391D01*
X0061347Y0168950D01*
X0060858Y0169438D01*
X0060299Y0169844D01*
X0059684Y0170157D01*
X0059027Y0170371D01*
X0058345Y0170479D01*
X0055400Y0170479D01*
X0055400Y0166491D01*
X0062379Y0166491D01*
X0062350Y0166675D02*
X0067951Y0166675D01*
X0067951Y0167874D02*
X0062016Y0167874D01*
X0061224Y0169073D02*
X0067951Y0169073D01*
X0067951Y0170435D02*
X0067951Y0174742D01*
X0068046Y0175095D01*
X0068228Y0175412D01*
X0068487Y0175670D01*
X0068803Y0175853D01*
X0069156Y0175947D01*
X0073463Y0175947D01*
X0073463Y0170435D01*
X0067951Y0170435D01*
X0067951Y0171470D02*
X0036584Y0171470D01*
X0036584Y0172668D02*
X0067951Y0172668D01*
X0067951Y0173867D02*
X0036584Y0173867D01*
X0036584Y0175065D02*
X0068038Y0175065D01*
X0073463Y0175065D02*
X0074663Y0175065D01*
X0074663Y0173867D02*
X0073463Y0173867D01*
X0073463Y0172668D02*
X0074663Y0172668D01*
X0074663Y0171470D02*
X0073463Y0171470D01*
X0073463Y0170271D02*
X0059334Y0170271D01*
X0055400Y0170271D02*
X0054600Y0170271D01*
X0054600Y0170479D02*
X0051655Y0170479D01*
X0050973Y0170371D01*
X0050316Y0170157D01*
X0049700Y0169844D01*
X0049142Y0169438D01*
X0048653Y0168950D01*
X0048248Y0168391D01*
X0047934Y0167776D01*
X0047721Y0167119D01*
X0047621Y0166491D01*
X0054600Y0166491D01*
X0054600Y0165691D01*
X0055400Y0165691D01*
X0055400Y0166491D01*
X0054600Y0166491D01*
X0054600Y0170479D01*
X0054600Y0169073D02*
X0055400Y0169073D01*
X0055400Y0167874D02*
X0054600Y0167874D01*
X0054600Y0166675D02*
X0055400Y0166675D01*
X0055400Y0165477D02*
X0054600Y0165477D01*
X0054600Y0165691D02*
X0054600Y0161704D01*
X0051655Y0161704D01*
X0050973Y0161812D01*
X0050316Y0162025D01*
X0049700Y0162339D01*
X0049142Y0162745D01*
X0048653Y0163233D01*
X0048248Y0163792D01*
X0047934Y0164407D01*
X0047721Y0165064D01*
X0047621Y0165691D01*
X0054600Y0165691D01*
X0054600Y0164278D02*
X0055400Y0164278D01*
X0055400Y0163080D02*
X0054600Y0163080D01*
X0054600Y0161881D02*
X0055400Y0161881D01*
X0058834Y0160282D02*
X0060374Y0159644D01*
X0061553Y0158465D01*
X0062191Y0156925D01*
X0062191Y0155258D01*
X0061553Y0153718D01*
X0060374Y0152539D01*
X0058834Y0151901D01*
X0051166Y0151901D01*
X0049626Y0152539D01*
X0048447Y0153718D01*
X0047809Y0155258D01*
X0047809Y0156925D01*
X0048447Y0158465D01*
X0049626Y0159644D01*
X0051166Y0160282D01*
X0058834Y0160282D01*
X0059241Y0161881D02*
X0093320Y0161881D01*
X0093862Y0162423D02*
X0093862Y0162423D01*
X0092959Y0160683D02*
X0036584Y0160683D01*
X0036584Y0161881D02*
X0050759Y0161881D01*
X0048807Y0163080D02*
X0036584Y0163080D01*
X0036584Y0164278D02*
X0048000Y0164278D01*
X0047655Y0165477D02*
X0036584Y0165477D01*
X0036584Y0166675D02*
X0047650Y0166675D01*
X0047984Y0167874D02*
X0036584Y0167874D01*
X0036584Y0169073D02*
X0048776Y0169073D01*
X0050666Y0170271D02*
X0036584Y0170271D01*
X0036584Y0176264D02*
X0121750Y0176264D01*
X0121750Y0177462D02*
X0036584Y0177462D01*
X0036584Y0178661D02*
X0122818Y0178661D01*
X0122994Y0179859D02*
X0127160Y0179859D01*
X0127160Y0178661D02*
X0125426Y0178661D01*
X0126494Y0177462D02*
X0127160Y0177462D01*
X0127160Y0176264D02*
X0126554Y0176264D01*
X0126732Y0175679D02*
X0126732Y0172691D01*
X0126732Y0175501D01*
X0126622Y0175611D01*
X0126732Y0175679D02*
X0126732Y0172691D01*
X0126732Y0172691D01*
X0126732Y0173867D02*
X0126732Y0173867D01*
X0126732Y0175065D02*
X0126732Y0175065D01*
X0124764Y0175969D02*
X0124764Y0172691D01*
X0122973Y0172668D02*
X0118128Y0172668D01*
X0118030Y0173867D02*
X0122973Y0173867D01*
X0122314Y0175065D02*
X0080088Y0175065D01*
X0080175Y0173867D02*
X0105214Y0173867D01*
X0100907Y0172668D02*
X0080175Y0172668D01*
X0074663Y0169073D02*
X0073463Y0169073D01*
X0073463Y0167874D02*
X0074663Y0167874D01*
X0074663Y0166675D02*
X0073463Y0166675D01*
X0073463Y0165477D02*
X0074663Y0165477D01*
X0074663Y0164278D02*
X0073463Y0164278D01*
X0068845Y0158428D02*
X0068148Y0157730D01*
X0068148Y0147295D01*
X0068845Y0146598D01*
X0072072Y0146598D01*
X0072072Y0145349D01*
X0071802Y0145078D01*
X0071396Y0144098D01*
X0071396Y0143037D01*
X0071802Y0142057D01*
X0072552Y0141307D01*
X0073532Y0140901D01*
X0074593Y0140901D01*
X0075574Y0141307D01*
X0076324Y0142057D01*
X0076730Y0143037D01*
X0076730Y0144098D01*
X0076324Y0145078D01*
X0076054Y0145349D01*
X0076054Y0146598D01*
X0079281Y0146598D01*
X0079978Y0147295D01*
X0079978Y0157730D01*
X0079281Y0158428D01*
X0068845Y0158428D01*
X0068704Y0158286D02*
X0061627Y0158286D01*
X0062123Y0157087D02*
X0068148Y0157087D01*
X0068148Y0155889D02*
X0062191Y0155889D01*
X0061956Y0154690D02*
X0068148Y0154690D01*
X0068148Y0153492D02*
X0061327Y0153492D01*
X0059781Y0152293D02*
X0068148Y0152293D01*
X0068148Y0151095D02*
X0036584Y0151095D01*
X0036584Y0152293D02*
X0050219Y0152293D01*
X0048673Y0153492D02*
X0036584Y0153492D01*
X0036584Y0154690D02*
X0048044Y0154690D01*
X0047809Y0155889D02*
X0036584Y0155889D01*
X0036584Y0157087D02*
X0047877Y0157087D01*
X0048373Y0158286D02*
X0036584Y0158286D01*
X0036584Y0159484D02*
X0049467Y0159484D01*
X0060533Y0159484D02*
X0092959Y0159484D01*
X0092959Y0158286D02*
X0079422Y0158286D01*
X0079978Y0157087D02*
X0092959Y0157087D01*
X0092959Y0155889D02*
X0079978Y0155889D01*
X0079978Y0154690D02*
X0092959Y0154690D01*
X0092959Y0153492D02*
X0079978Y0153492D01*
X0079978Y0152293D02*
X0092959Y0152293D01*
X0092959Y0151095D02*
X0079978Y0151095D01*
X0079978Y0149896D02*
X0092959Y0149896D01*
X0092959Y0148698D02*
X0079978Y0148698D01*
X0079978Y0147499D02*
X0092959Y0147499D01*
X0092959Y0146301D02*
X0076054Y0146301D01*
X0076300Y0145102D02*
X0092959Y0145102D01*
X0092959Y0143904D02*
X0076730Y0143904D01*
X0076592Y0142705D02*
X0092959Y0142705D01*
X0092959Y0141507D02*
X0075774Y0141507D01*
X0072352Y0141507D02*
X0036584Y0141507D01*
X0036584Y0142705D02*
X0071534Y0142705D01*
X0071396Y0143904D02*
X0036584Y0143904D01*
X0036584Y0145102D02*
X0071826Y0145102D01*
X0072072Y0146301D02*
X0036584Y0146301D01*
X0036584Y0147499D02*
X0068148Y0147499D01*
X0068148Y0148698D02*
X0036584Y0148698D01*
X0036584Y0149896D02*
X0068148Y0149896D01*
X0092959Y0140308D02*
X0036584Y0140308D01*
X0036584Y0139110D02*
X0092959Y0139110D01*
X0092959Y0137911D02*
X0036584Y0137911D01*
X0036584Y0136713D02*
X0092959Y0136713D01*
X0092959Y0135514D02*
X0036584Y0135514D01*
X0036584Y0134316D02*
X0092959Y0134316D01*
X0092959Y0133117D02*
X0036584Y0133117D01*
X0036584Y0131919D02*
X0093285Y0131919D01*
X0094484Y0130720D02*
X0036584Y0130720D01*
X0036584Y0129522D02*
X0095682Y0129522D01*
X0096881Y0128323D02*
X0036584Y0128323D01*
X0036584Y0127125D02*
X0098079Y0127125D01*
X0100040Y0129522D02*
X0119682Y0129522D01*
X0120459Y0128323D02*
X0118738Y0128323D01*
X0119937Y0127125D02*
X0120459Y0127125D01*
X0120459Y0125926D02*
X0120041Y0125926D01*
X0120041Y0124728D02*
X0120459Y0124728D01*
X0120459Y0123529D02*
X0120041Y0123529D01*
X0120041Y0122331D02*
X0120459Y0122331D01*
X0120459Y0121132D02*
X0120041Y0121132D01*
X0120041Y0119934D02*
X0120459Y0119934D01*
X0120459Y0118735D02*
X0120041Y0118735D01*
X0120041Y0117537D02*
X0120459Y0117537D01*
X0120866Y0116338D02*
X0120041Y0116338D01*
X0120041Y0115140D02*
X0122064Y0115140D01*
X0121120Y0113941D02*
X0123263Y0113941D01*
X0122319Y0112742D02*
X0124462Y0112742D01*
X0123517Y0111544D02*
X0125660Y0111544D01*
X0126859Y0110345D02*
X0123745Y0110345D01*
X0123745Y0109147D02*
X0130557Y0109147D01*
X0130664Y0107948D02*
X0123745Y0107948D01*
X0124265Y0106750D02*
X0130144Y0106750D01*
X0128762Y0105551D02*
X0125647Y0105551D01*
X0126208Y0104353D02*
X0128201Y0104353D01*
X0128014Y0103154D02*
X0126395Y0103154D01*
X0126395Y0101956D02*
X0128014Y0101956D01*
X0128014Y0100757D02*
X0126395Y0100757D01*
X0126395Y0099559D02*
X0128014Y0099559D01*
X0128014Y0098360D02*
X0126395Y0098360D01*
X0126395Y0097162D02*
X0128014Y0097162D01*
X0128126Y0095963D02*
X0126283Y0095963D01*
X0125787Y0094765D02*
X0128623Y0094765D01*
X0129780Y0093566D02*
X0124630Y0093566D01*
X0119780Y0093566D02*
X0072336Y0093566D01*
X0072223Y0093453D02*
X0073111Y0094341D01*
X0073592Y0095502D01*
X0073592Y0096759D01*
X0073111Y0097920D01*
X0072223Y0098809D01*
X0071061Y0099290D01*
X0069805Y0099290D01*
X0068644Y0098809D01*
X0067755Y0097920D01*
X0067274Y0096759D01*
X0067274Y0096622D01*
X0066611Y0101024D01*
X0064464Y0105482D01*
X0064464Y0105482D01*
X0061098Y0109109D01*
X0056813Y0111583D01*
X0056813Y0111583D01*
X0051989Y0112684D01*
X0047054Y0112315D01*
X0042448Y0110507D01*
X0038579Y0107422D01*
X0036584Y0104495D01*
X0036584Y0217687D01*
X0038579Y0214761D01*
X0038579Y0214761D01*
X0038579Y0214761D01*
X0042448Y0211676D01*
X0042448Y0211676D01*
X0047054Y0209868D01*
X0051989Y0209498D01*
X0056813Y0210599D01*
X0061098Y0213074D01*
X0064464Y0216701D01*
X0066611Y0221159D01*
X0067274Y0225561D01*
X0067274Y0225424D01*
X0067755Y0224262D01*
X0068644Y0223374D01*
X0069805Y0222893D01*
X0071061Y0222893D01*
X0072223Y0223374D01*
X0073111Y0224262D01*
X0073592Y0225424D01*
X0073592Y0226680D01*
X0073111Y0227841D01*
X0072223Y0228730D01*
X0071061Y0229211D01*
X0069805Y0229211D01*
X0068644Y0228730D01*
X0067755Y0227841D01*
X0067274Y0226680D01*
X0067274Y0226543D01*
X0066611Y0230945D01*
X0064464Y0235403D01*
X0061098Y0239030D01*
X0059045Y0240216D01*
X0235095Y0240216D01*
X0231493Y0237343D01*
X0231493Y0237343D01*
X0228705Y0233254D01*
X0227247Y0228526D01*
X0227247Y0223578D01*
X0228705Y0218850D01*
X0228705Y0218849D01*
X0231493Y0214761D01*
X0235361Y0211676D01*
X0235361Y0211676D01*
X0239968Y0209868D01*
X0244902Y0209498D01*
X0249726Y0210599D01*
X0249726Y0210599D01*
X0254011Y0213074D01*
X0257377Y0216701D01*
X0257825Y0217632D01*
X0257825Y0104551D01*
X0257377Y0105482D01*
X0254011Y0109109D01*
X0249726Y0111583D01*
X0244902Y0112684D01*
X0244902Y0112684D01*
X0239968Y0112315D01*
X0235361Y0110507D01*
X0231493Y0107422D01*
X0231493Y0107422D01*
X0231493Y0107422D01*
X0228705Y0103333D01*
X0227247Y0098605D01*
X0227247Y0093657D01*
X0228705Y0088928D01*
X0231493Y0084840D01*
X0235095Y0081967D01*
X0059045Y0081967D01*
X0061098Y0083152D01*
X0064464Y0086780D01*
X0066611Y0091238D01*
X0067274Y0095640D01*
X0067274Y0095502D01*
X0067755Y0094341D01*
X0068644Y0093453D01*
X0069805Y0092972D01*
X0071061Y0092972D01*
X0072223Y0093453D01*
X0073287Y0094765D02*
X0118623Y0094765D01*
X0118126Y0095963D02*
X0073592Y0095963D01*
X0073425Y0097162D02*
X0118014Y0097162D01*
X0118014Y0098360D02*
X0072671Y0098360D01*
X0068195Y0098360D02*
X0067012Y0098360D01*
X0067193Y0097162D02*
X0067441Y0097162D01*
X0067579Y0094765D02*
X0067142Y0094765D01*
X0066961Y0093566D02*
X0068530Y0093566D01*
X0066781Y0092368D02*
X0227644Y0092368D01*
X0227275Y0093566D02*
X0225880Y0093566D01*
X0225766Y0093453D02*
X0226654Y0094341D01*
X0227135Y0095502D01*
X0227135Y0096759D01*
X0226654Y0097920D01*
X0225766Y0098809D01*
X0224605Y0099290D01*
X0223348Y0099290D01*
X0222187Y0098809D01*
X0221298Y0097920D01*
X0220817Y0096759D01*
X0220817Y0095502D01*
X0221298Y0094341D01*
X0222187Y0093453D01*
X0223348Y0092972D01*
X0224605Y0092972D01*
X0225766Y0093453D01*
X0226830Y0094765D02*
X0227247Y0094765D01*
X0227247Y0095963D02*
X0227135Y0095963D01*
X0227247Y0097162D02*
X0226969Y0097162D01*
X0227247Y0098360D02*
X0226214Y0098360D01*
X0227541Y0099559D02*
X0176395Y0099559D01*
X0176395Y0100757D02*
X0227911Y0100757D01*
X0228280Y0101956D02*
X0176395Y0101956D01*
X0176395Y0103154D02*
X0228650Y0103154D01*
X0228705Y0103333D02*
X0228705Y0103333D01*
X0229401Y0104353D02*
X0176208Y0104353D01*
X0175647Y0105551D02*
X0230218Y0105551D01*
X0231035Y0106750D02*
X0174265Y0106750D01*
X0173745Y0107948D02*
X0232153Y0107948D01*
X0233656Y0109147D02*
X0173745Y0109147D01*
X0173745Y0110345D02*
X0235159Y0110345D01*
X0235361Y0110507D02*
X0235361Y0110507D01*
X0238004Y0111544D02*
X0225219Y0111544D01*
X0224930Y0111255D02*
X0225628Y0111953D01*
X0225628Y0113070D01*
X0227760Y0113070D01*
X0230566Y0115876D01*
X0231468Y0116779D01*
X0231468Y0132661D01*
X0232107Y0132926D01*
X0233190Y0134008D01*
X0233776Y0135422D01*
X0233776Y0136953D01*
X0233190Y0138368D01*
X0232107Y0139450D01*
X0230693Y0140036D01*
X0229162Y0140036D01*
X0227748Y0139450D01*
X0226665Y0138368D01*
X0226080Y0136953D01*
X0226080Y0135422D01*
X0226665Y0134008D01*
X0227748Y0132926D01*
X0228387Y0132661D01*
X0228387Y0118055D01*
X0226484Y0116152D01*
X0225628Y0116152D01*
X0225628Y0117270D01*
X0224930Y0117967D01*
X0220007Y0117967D01*
X0219309Y0117270D01*
X0219309Y0111953D01*
X0220007Y0111255D01*
X0224930Y0111255D01*
X0225628Y0112742D02*
X0257825Y0112742D01*
X0257825Y0111544D02*
X0249794Y0111544D01*
X0249726Y0111583D02*
X0249726Y0111583D01*
X0251870Y0110345D02*
X0257825Y0110345D01*
X0257825Y0109147D02*
X0253946Y0109147D01*
X0254011Y0109109D02*
X0254011Y0109109D01*
X0255088Y0107948D02*
X0257825Y0107948D01*
X0257825Y0106750D02*
X0256200Y0106750D01*
X0257312Y0105551D02*
X0257825Y0105551D01*
X0257377Y0105482D02*
X0257377Y0105482D01*
X0257825Y0113941D02*
X0228631Y0113941D01*
X0229829Y0115140D02*
X0257825Y0115140D01*
X0257825Y0116338D02*
X0231028Y0116338D01*
X0231468Y0117537D02*
X0257825Y0117537D01*
X0257825Y0118735D02*
X0231468Y0118735D01*
X0231468Y0119934D02*
X0257825Y0119934D01*
X0257825Y0121132D02*
X0231468Y0121132D01*
X0231468Y0122331D02*
X0257825Y0122331D01*
X0257825Y0123529D02*
X0231468Y0123529D01*
X0231468Y0124728D02*
X0257825Y0124728D01*
X0257825Y0125926D02*
X0231468Y0125926D01*
X0231468Y0127125D02*
X0257825Y0127125D01*
X0257825Y0128323D02*
X0231468Y0128323D01*
X0231468Y0129522D02*
X0257825Y0129522D01*
X0257825Y0130720D02*
X0231468Y0130720D01*
X0231468Y0131919D02*
X0257825Y0131919D01*
X0257825Y0133117D02*
X0232299Y0133117D01*
X0233317Y0134316D02*
X0257825Y0134316D01*
X0257825Y0135514D02*
X0233776Y0135514D01*
X0233776Y0136713D02*
X0257825Y0136713D01*
X0257825Y0137911D02*
X0233379Y0137911D01*
X0232448Y0139110D02*
X0257825Y0139110D01*
X0257825Y0140308D02*
X0224662Y0140308D01*
X0224706Y0140202D02*
X0223476Y0143172D01*
X0221203Y0145445D01*
X0218233Y0146675D01*
X0215019Y0146675D01*
X0212049Y0145445D01*
X0209776Y0143172D01*
X0208546Y0140202D01*
X0208546Y0136987D01*
X0209776Y0134017D01*
X0212049Y0131744D01*
X0215019Y0130514D01*
X0218233Y0130514D01*
X0221203Y0131744D01*
X0223476Y0134017D01*
X0224706Y0136987D01*
X0224706Y0140202D01*
X0224706Y0139110D02*
X0227408Y0139110D01*
X0226476Y0137911D02*
X0224706Y0137911D01*
X0224593Y0136713D02*
X0226080Y0136713D01*
X0226080Y0135514D02*
X0224096Y0135514D01*
X0223600Y0134316D02*
X0226538Y0134316D01*
X0227556Y0133117D02*
X0222576Y0133117D01*
X0221378Y0131919D02*
X0228387Y0131919D01*
X0228387Y0130720D02*
X0218731Y0130720D01*
X0214521Y0130720D02*
X0210533Y0130720D01*
X0210533Y0131267D02*
X0209633Y0133441D01*
X0207969Y0135105D01*
X0205795Y0136005D01*
X0203442Y0136005D01*
X0201268Y0135105D01*
X0199604Y0133441D01*
X0198703Y0131267D01*
X0198703Y0128914D01*
X0199604Y0126740D01*
X0201268Y0125076D01*
X0203442Y0124176D01*
X0205795Y0124176D01*
X0207969Y0125076D01*
X0209633Y0126740D01*
X0210533Y0128914D01*
X0210533Y0131267D01*
X0210263Y0131919D02*
X0211875Y0131919D01*
X0210676Y0133117D02*
X0209767Y0133117D01*
X0209652Y0134316D02*
X0208758Y0134316D01*
X0209156Y0135514D02*
X0206981Y0135514D01*
X0208660Y0136713D02*
X0173128Y0136713D01*
X0173128Y0137911D02*
X0208546Y0137911D01*
X0208546Y0139110D02*
X0173128Y0139110D01*
X0173128Y0140308D02*
X0179504Y0140308D01*
X0178326Y0141507D02*
X0172890Y0141507D01*
X0167047Y0141507D02*
X0166197Y0141507D01*
X0166435Y0141270D02*
X0165737Y0141967D01*
X0160814Y0141967D01*
X0160117Y0141270D01*
X0160117Y0141086D01*
X0159653Y0141278D01*
X0158592Y0141278D01*
X0157611Y0140872D01*
X0156861Y0140122D01*
X0156455Y0139142D01*
X0156455Y0138081D01*
X0156861Y0137100D01*
X0157611Y0136350D01*
X0158592Y0135944D01*
X0159653Y0135944D01*
X0160117Y0136136D01*
X0160117Y0135953D01*
X0160814Y0135255D01*
X0165737Y0135255D01*
X0166435Y0135953D01*
X0166435Y0141270D01*
X0166435Y0140308D02*
X0166809Y0140308D01*
X0166809Y0139110D02*
X0166435Y0139110D01*
X0166435Y0137911D02*
X0166809Y0137911D01*
X0166809Y0136713D02*
X0166435Y0136713D01*
X0165996Y0135514D02*
X0167248Y0135514D01*
X0167620Y0132467D02*
X0167268Y0132372D01*
X0166951Y0132190D01*
X0166693Y0131931D01*
X0166539Y0131665D01*
X0165934Y0132270D01*
X0160617Y0132270D01*
X0159987Y0131640D01*
X0159653Y0131778D01*
X0158592Y0131778D01*
X0157611Y0131372D01*
X0156861Y0130622D01*
X0156455Y0129642D01*
X0156455Y0128581D01*
X0156861Y0127600D01*
X0157611Y0126850D01*
X0158592Y0126444D01*
X0159653Y0126444D01*
X0159987Y0126582D01*
X0160617Y0125952D01*
X0165934Y0125952D01*
X0166539Y0126557D01*
X0166693Y0126291D01*
X0166951Y0126032D01*
X0167268Y0125850D01*
X0167620Y0125755D01*
X0169584Y0125755D01*
X0169584Y0128727D01*
X0170353Y0128727D01*
X0170353Y0129495D01*
X0173521Y0129495D01*
X0173521Y0131262D01*
X0173427Y0131615D01*
X0173244Y0131931D01*
X0172986Y0132190D01*
X0172669Y0132372D01*
X0172317Y0132467D01*
X0170353Y0132467D01*
X0170353Y0129495D01*
X0169584Y0129495D01*
X0169584Y0132467D01*
X0167620Y0132467D01*
X0166686Y0131919D02*
X0166285Y0131919D01*
X0169584Y0131919D02*
X0170353Y0131919D01*
X0170353Y0130720D02*
X0169584Y0130720D01*
X0169584Y0129522D02*
X0170353Y0129522D01*
X0170353Y0128727D02*
X0173521Y0128727D01*
X0173521Y0126960D01*
X0173427Y0126607D01*
X0173244Y0126291D01*
X0172986Y0126032D01*
X0172669Y0125850D01*
X0172317Y0125755D01*
X0170353Y0125755D01*
X0170353Y0128727D01*
X0170353Y0128323D02*
X0169584Y0128323D01*
X0169584Y0127125D02*
X0170353Y0127125D01*
X0170353Y0125926D02*
X0169584Y0125926D01*
X0167135Y0125926D02*
X0153541Y0125926D01*
X0153541Y0124728D02*
X0202109Y0124728D01*
X0200418Y0125926D02*
X0172802Y0125926D01*
X0173521Y0127125D02*
X0199444Y0127125D01*
X0198948Y0128323D02*
X0173521Y0128323D01*
X0173521Y0129522D02*
X0198703Y0129522D01*
X0198703Y0130720D02*
X0173521Y0130720D01*
X0173251Y0131919D02*
X0198973Y0131919D01*
X0199470Y0133117D02*
X0153541Y0133117D01*
X0153541Y0131919D02*
X0160266Y0131919D01*
X0156960Y0130720D02*
X0153541Y0130720D01*
X0153541Y0129522D02*
X0156455Y0129522D01*
X0156562Y0128323D02*
X0153541Y0128323D01*
X0153541Y0127125D02*
X0157337Y0127125D01*
X0153541Y0123529D02*
X0228387Y0123529D01*
X0228387Y0122331D02*
X0154231Y0122331D01*
X0152270Y0119934D02*
X0151128Y0119934D01*
X0151072Y0121132D02*
X0150041Y0121132D01*
X0150041Y0122331D02*
X0150459Y0122331D01*
X0150459Y0123529D02*
X0150041Y0123529D01*
X0150041Y0124728D02*
X0150459Y0124728D01*
X0150459Y0125926D02*
X0150041Y0125926D01*
X0150041Y0127125D02*
X0150459Y0127125D01*
X0150459Y0128323D02*
X0150041Y0128323D01*
X0150041Y0129522D02*
X0150459Y0129522D01*
X0150459Y0130720D02*
X0150041Y0130720D01*
X0150041Y0131919D02*
X0150459Y0131919D01*
X0150459Y0133117D02*
X0148944Y0133117D01*
X0149388Y0134316D02*
X0133769Y0134316D01*
X0131809Y0131919D02*
X0131643Y0131919D01*
X0130610Y0133117D02*
X0130444Y0133117D01*
X0128484Y0130720D02*
X0127041Y0130720D01*
X0127041Y0129522D02*
X0129682Y0129522D01*
X0130881Y0128323D02*
X0127041Y0128323D01*
X0127041Y0127125D02*
X0143459Y0127125D01*
X0143459Y0125926D02*
X0127041Y0125926D01*
X0127041Y0124728D02*
X0143459Y0124728D01*
X0143459Y0123529D02*
X0127041Y0123529D01*
X0127041Y0122331D02*
X0143459Y0122331D01*
X0143459Y0121132D02*
X0127041Y0121132D01*
X0127128Y0119934D02*
X0143459Y0119934D01*
X0143459Y0118735D02*
X0128326Y0118735D01*
X0129525Y0117537D02*
X0143667Y0117537D01*
X0144866Y0116338D02*
X0140849Y0116338D01*
X0142048Y0115140D02*
X0146064Y0115140D01*
X0147263Y0113941D02*
X0143246Y0113941D01*
X0143745Y0112742D02*
X0148462Y0112742D01*
X0149660Y0111544D02*
X0143745Y0111544D01*
X0143745Y0110345D02*
X0150664Y0110345D01*
X0150664Y0109147D02*
X0143745Y0109147D01*
X0143745Y0107948D02*
X0150664Y0107948D01*
X0150144Y0106750D02*
X0144265Y0106750D01*
X0145647Y0105551D02*
X0148762Y0105551D01*
X0148201Y0104353D02*
X0146208Y0104353D01*
X0146395Y0103154D02*
X0148014Y0103154D01*
X0148014Y0101956D02*
X0146395Y0101956D01*
X0146395Y0100757D02*
X0148014Y0100757D01*
X0148014Y0099559D02*
X0146395Y0099559D01*
X0146395Y0098360D02*
X0148014Y0098360D01*
X0148014Y0097162D02*
X0146395Y0097162D01*
X0146283Y0095963D02*
X0148126Y0095963D01*
X0148623Y0094765D02*
X0145787Y0094765D01*
X0144630Y0093566D02*
X0149780Y0093566D01*
X0154630Y0093566D02*
X0159780Y0093566D01*
X0158623Y0094765D02*
X0155787Y0094765D01*
X0156283Y0095963D02*
X0158126Y0095963D01*
X0158014Y0097162D02*
X0156395Y0097162D01*
X0156395Y0098360D02*
X0158014Y0098360D01*
X0158014Y0099559D02*
X0156395Y0099559D01*
X0156395Y0100757D02*
X0158014Y0100757D01*
X0158014Y0101956D02*
X0156395Y0101956D01*
X0156395Y0103154D02*
X0158014Y0103154D01*
X0158201Y0104353D02*
X0156208Y0104353D01*
X0155647Y0105551D02*
X0158762Y0105551D01*
X0160144Y0106750D02*
X0154265Y0106750D01*
X0153745Y0107948D02*
X0160664Y0107948D01*
X0160664Y0109147D02*
X0153745Y0109147D01*
X0153745Y0110345D02*
X0160664Y0110345D01*
X0160664Y0111544D02*
X0153745Y0111544D01*
X0152819Y0112742D02*
X0160462Y0112742D01*
X0159263Y0113941D02*
X0151620Y0113941D01*
X0151564Y0115140D02*
X0150422Y0115140D01*
X0150366Y0116338D02*
X0149223Y0116338D01*
X0149167Y0117537D02*
X0148025Y0117537D01*
X0147969Y0118735D02*
X0146826Y0118735D01*
X0146959Y0119934D02*
X0146541Y0119934D01*
X0146541Y0121132D02*
X0146959Y0121132D01*
X0146959Y0122331D02*
X0146541Y0122331D01*
X0146541Y0123529D02*
X0146959Y0123529D01*
X0146959Y0124728D02*
X0146541Y0124728D01*
X0146541Y0125926D02*
X0146959Y0125926D01*
X0146959Y0127125D02*
X0146541Y0127125D01*
X0146541Y0128323D02*
X0146959Y0128323D01*
X0146959Y0129522D02*
X0145540Y0129522D01*
X0146959Y0130720D02*
X0132841Y0130720D01*
X0127285Y0131919D02*
X0127041Y0131919D01*
X0127160Y0133117D02*
X0126176Y0133117D01*
X0126138Y0133155D02*
X0126138Y0133155D01*
X0127160Y0134316D02*
X0124978Y0134316D01*
X0123779Y0135514D02*
X0127160Y0135514D01*
X0127160Y0136713D02*
X0122581Y0136713D01*
X0121819Y0133117D02*
X0102444Y0133117D01*
X0102510Y0134316D02*
X0101246Y0134316D01*
X0101312Y0135514D02*
X0100047Y0135514D01*
X0100113Y0136713D02*
X0099533Y0136713D01*
X0099533Y0137911D02*
X0099896Y0137911D01*
X0099896Y0139110D02*
X0099533Y0139110D01*
X0099533Y0140308D02*
X0099896Y0140308D01*
X0099896Y0141507D02*
X0099533Y0141507D01*
X0099533Y0142705D02*
X0099896Y0142705D01*
X0099896Y0143904D02*
X0099533Y0143904D01*
X0099533Y0145102D02*
X0099896Y0145102D01*
X0099896Y0146301D02*
X0099533Y0146301D01*
X0099533Y0147499D02*
X0099896Y0147499D01*
X0099896Y0148698D02*
X0099533Y0148698D01*
X0099533Y0149896D02*
X0099896Y0149896D01*
X0099896Y0151095D02*
X0099533Y0151095D01*
X0099533Y0152293D02*
X0099896Y0152293D01*
X0099896Y0153492D02*
X0099533Y0153492D01*
X0099533Y0154690D02*
X0099896Y0154690D01*
X0099533Y0155889D02*
X0100765Y0155889D01*
X0100799Y0155923D02*
X0100799Y0155923D01*
X0099635Y0157087D02*
X0101963Y0157087D01*
X0100834Y0158286D02*
X0103162Y0158286D01*
X0105122Y0155889D02*
X0119231Y0155889D01*
X0119231Y0154690D02*
X0117365Y0154690D01*
X0117383Y0154658D02*
X0117201Y0154975D01*
X0116942Y0155233D01*
X0116626Y0155416D01*
X0116273Y0155510D01*
X0114506Y0155510D01*
X0114506Y0152342D01*
X0113738Y0152342D01*
X0113738Y0155510D01*
X0111971Y0155510D01*
X0111618Y0155416D01*
X0111302Y0155233D01*
X0111043Y0154975D01*
X0110861Y0154658D01*
X0110766Y0154305D01*
X0110766Y0152342D01*
X0113738Y0152342D01*
X0113738Y0151573D01*
X0110766Y0151573D01*
X0110766Y0149609D01*
X0110861Y0149257D01*
X0111043Y0148940D01*
X0111302Y0148682D01*
X0111568Y0148528D01*
X0110963Y0147923D01*
X0110963Y0142606D01*
X0111660Y0141909D01*
X0111773Y0141909D01*
X0111455Y0141142D01*
X0111455Y0140081D01*
X0111861Y0139100D01*
X0112611Y0138350D01*
X0113592Y0137944D01*
X0114653Y0137944D01*
X0115633Y0138350D01*
X0116383Y0139100D01*
X0116789Y0140081D01*
X0116789Y0141142D01*
X0116471Y0141909D01*
X0116584Y0141909D01*
X0117281Y0142606D01*
X0117281Y0147923D01*
X0116676Y0148528D01*
X0116942Y0148682D01*
X0117201Y0148940D01*
X0117383Y0149257D01*
X0117478Y0149609D01*
X0117478Y0151573D01*
X0114506Y0151573D01*
X0114506Y0152342D01*
X0117478Y0152342D01*
X0117478Y0154305D01*
X0117383Y0154658D01*
X0117478Y0153492D02*
X0119200Y0153492D01*
X0118622Y0152611D02*
X0119000Y0152233D01*
X0122022Y0152233D01*
X0122022Y0152233D01*
X0122022Y0150246D01*
X0122022Y0152233D01*
X0119035Y0152233D01*
X0122022Y0152233D01*
X0122022Y0152233D01*
X0122022Y0151095D02*
X0122022Y0151095D01*
X0122973Y0149896D02*
X0117478Y0149896D01*
X0117478Y0151095D02*
X0119131Y0151095D01*
X0119035Y0152293D02*
X0114506Y0152293D01*
X0113738Y0152293D02*
X0102978Y0152293D01*
X0102978Y0151095D02*
X0110766Y0151095D01*
X0110766Y0149896D02*
X0102978Y0149896D01*
X0102978Y0148698D02*
X0111286Y0148698D01*
X0110963Y0147499D02*
X0102978Y0147499D01*
X0102978Y0146301D02*
X0110963Y0146301D01*
X0110963Y0145102D02*
X0107925Y0145102D01*
X0107653Y0145215D02*
X0106592Y0145215D01*
X0105611Y0144809D01*
X0104861Y0144059D01*
X0104455Y0143079D01*
X0104455Y0142018D01*
X0104861Y0141037D01*
X0105611Y0140287D01*
X0106592Y0139881D01*
X0107653Y0139881D01*
X0108633Y0140287D01*
X0109383Y0141037D01*
X0109789Y0142018D01*
X0109789Y0143079D01*
X0109383Y0144059D01*
X0108633Y0144809D01*
X0107653Y0145215D01*
X0106320Y0145102D02*
X0102978Y0145102D01*
X0102978Y0143904D02*
X0104797Y0143904D01*
X0104455Y0142705D02*
X0102978Y0142705D01*
X0102978Y0141507D02*
X0104667Y0141507D01*
X0105590Y0140308D02*
X0102978Y0140308D01*
X0102978Y0139110D02*
X0111857Y0139110D01*
X0111455Y0140308D02*
X0108654Y0140308D01*
X0109577Y0141507D02*
X0111606Y0141507D01*
X0110963Y0142705D02*
X0109789Y0142705D01*
X0109447Y0143904D02*
X0110963Y0143904D01*
X0116638Y0141507D02*
X0127160Y0141507D01*
X0127160Y0142705D02*
X0117281Y0142705D01*
X0117281Y0143904D02*
X0122558Y0143904D01*
X0121955Y0145102D02*
X0117281Y0145102D01*
X0117281Y0146301D02*
X0122021Y0146301D01*
X0122739Y0147499D02*
X0117281Y0147499D01*
X0116958Y0148698D02*
X0122973Y0148698D01*
X0124764Y0149491D02*
X0124764Y0145753D01*
X0126686Y0143904D02*
X0127160Y0143904D01*
X0127160Y0140308D02*
X0116789Y0140308D01*
X0116387Y0139110D02*
X0127160Y0139110D01*
X0127160Y0137911D02*
X0103272Y0137911D01*
X0096452Y0137911D02*
X0096041Y0137911D01*
X0096041Y0136713D02*
X0096452Y0136713D01*
X0096452Y0135514D02*
X0096041Y0135514D01*
X0096041Y0134316D02*
X0096888Y0134316D01*
X0096444Y0133117D02*
X0098087Y0133117D01*
X0097643Y0131919D02*
X0099285Y0131919D01*
X0098841Y0130720D02*
X0100484Y0130720D01*
X0096452Y0139110D02*
X0096041Y0139110D01*
X0096041Y0140308D02*
X0096452Y0140308D01*
X0096452Y0141507D02*
X0096041Y0141507D01*
X0096041Y0142705D02*
X0096452Y0142705D01*
X0096452Y0143904D02*
X0096041Y0143904D01*
X0096041Y0145102D02*
X0096452Y0145102D01*
X0096452Y0146301D02*
X0096041Y0146301D01*
X0096041Y0147499D02*
X0096452Y0147499D01*
X0096452Y0148698D02*
X0096041Y0148698D01*
X0096041Y0149896D02*
X0096452Y0149896D01*
X0096452Y0151095D02*
X0096041Y0151095D01*
X0096041Y0152293D02*
X0096452Y0152293D01*
X0096452Y0153492D02*
X0096041Y0153492D01*
X0096041Y0154690D02*
X0096452Y0154690D01*
X0096452Y0155889D02*
X0096041Y0155889D01*
X0096041Y0157087D02*
X0096452Y0157087D01*
X0096477Y0158286D02*
X0096041Y0158286D01*
X0096041Y0159484D02*
X0097675Y0159484D01*
X0096479Y0160683D02*
X0098874Y0160683D01*
X0097677Y0161881D02*
X0119231Y0161881D01*
X0124813Y0161691D02*
X0124813Y0160491D01*
X0125325Y0160491D01*
X0125258Y0160829D01*
X0125258Y0161111D01*
X0128122Y0161111D01*
X0128122Y0161111D01*
X0125258Y0161111D01*
X0125258Y0161393D01*
X0125318Y0161691D01*
X0124813Y0161691D01*
X0124813Y0160683D02*
X0125287Y0160683D01*
X0128122Y0161111D02*
X0128122Y0161111D01*
X0133022Y0161111D01*
X0133022Y0161111D01*
X0130986Y0161111D01*
X0128122Y0161111D01*
X0133622Y0161691D02*
X0133622Y0163975D01*
X0133340Y0163975D01*
X0133022Y0163912D01*
X0133022Y0164810D01*
X0133340Y0164747D01*
X0133622Y0164747D01*
X0133622Y0167611D01*
X0133622Y0167611D01*
X0133622Y0164747D01*
X0133904Y0164747D01*
X0134222Y0164810D01*
X0134222Y0163912D01*
X0133904Y0163975D01*
X0133622Y0163975D01*
X0133622Y0161691D01*
X0133622Y0161691D01*
X0133622Y0161881D02*
X0133622Y0161881D01*
X0134222Y0161111D02*
X0136486Y0161111D01*
X0139122Y0161111D01*
X0134222Y0161111D01*
X0134222Y0161111D01*
X0133622Y0160491D02*
X0133622Y0158247D01*
X0133622Y0160491D01*
X0133622Y0160491D01*
X0133622Y0159484D02*
X0133622Y0159484D01*
X0133622Y0158286D02*
X0133622Y0158286D01*
X0133622Y0158247D02*
X0133904Y0158247D01*
X0134222Y0158310D01*
X0134222Y0157412D01*
X0133904Y0157475D01*
X0133622Y0157475D01*
X0133622Y0154611D01*
X0133622Y0154611D01*
X0133622Y0152282D01*
X0133622Y0152282D01*
X0133622Y0154611D01*
X0133622Y0154611D01*
X0133622Y0157475D01*
X0133340Y0157475D01*
X0133022Y0157412D01*
X0133022Y0158310D01*
X0133340Y0158247D01*
X0133622Y0158247D01*
X0133146Y0158286D02*
X0133022Y0158286D01*
X0134098Y0158286D02*
X0134222Y0158286D01*
X0133622Y0157087D02*
X0133622Y0157087D01*
X0133622Y0155889D02*
X0133622Y0155889D01*
X0133622Y0154690D02*
X0133622Y0154690D01*
X0133622Y0153492D02*
X0133622Y0153492D01*
X0133622Y0152293D02*
X0133622Y0152293D01*
X0134178Y0146301D02*
X0152841Y0146301D01*
X0151643Y0147499D02*
X0144271Y0147499D01*
X0144271Y0148698D02*
X0150444Y0148698D01*
X0149245Y0149896D02*
X0144271Y0149896D01*
X0148209Y0155889D02*
X0160180Y0155889D01*
X0160117Y0155953D02*
X0160814Y0155255D01*
X0165737Y0155255D01*
X0166435Y0155953D01*
X0166435Y0161270D01*
X0165737Y0161967D01*
X0160814Y0161967D01*
X0160117Y0161270D01*
X0160117Y0161086D01*
X0159653Y0161278D01*
X0158592Y0161278D01*
X0157611Y0160872D01*
X0156861Y0160122D01*
X0156455Y0159142D01*
X0156455Y0158081D01*
X0156861Y0157100D01*
X0157611Y0156350D01*
X0158592Y0155944D01*
X0159653Y0155944D01*
X0160117Y0156136D01*
X0160117Y0155953D01*
X0160814Y0153967D02*
X0160117Y0153270D01*
X0160117Y0153086D01*
X0159653Y0153278D01*
X0158592Y0153278D01*
X0157611Y0152872D01*
X0156861Y0152122D01*
X0156455Y0151142D01*
X0156455Y0150081D01*
X0156861Y0149100D01*
X0157611Y0148350D01*
X0158592Y0147944D01*
X0159653Y0147944D01*
X0160117Y0148136D01*
X0160117Y0147953D01*
X0160814Y0147255D01*
X0165737Y0147255D01*
X0166435Y0147953D01*
X0166435Y0153270D01*
X0165737Y0153967D01*
X0160814Y0153967D01*
X0160339Y0153492D02*
X0151832Y0153492D01*
X0150634Y0154690D02*
X0177720Y0154690D01*
X0177737Y0154774D02*
X0177581Y0153993D01*
X0177581Y0153880D01*
X0181340Y0153880D01*
X0181340Y0157639D01*
X0181228Y0157639D01*
X0180446Y0157484D01*
X0179710Y0157179D01*
X0179048Y0156736D01*
X0178484Y0156173D01*
X0178042Y0155510D01*
X0177737Y0154774D01*
X0178295Y0155889D02*
X0173064Y0155889D01*
X0173128Y0157087D02*
X0179573Y0157087D01*
X0181340Y0157087D02*
X0181912Y0157087D01*
X0181912Y0155889D02*
X0181340Y0155889D01*
X0181340Y0154690D02*
X0181912Y0154690D01*
X0181912Y0153492D02*
X0202012Y0153492D01*
X0201908Y0153552D02*
X0202224Y0153369D01*
X0202577Y0153275D01*
X0204541Y0153275D01*
X0204541Y0158018D01*
X0205703Y0158018D01*
X0205703Y0153275D01*
X0207667Y0153275D01*
X0208020Y0153369D01*
X0208336Y0153552D01*
X0208594Y0153810D01*
X0208777Y0154127D01*
X0208872Y0154480D01*
X0208872Y0158018D01*
X0205703Y0158018D01*
X0205703Y0159180D01*
X0208872Y0159180D01*
X0208872Y0162719D01*
X0208777Y0163072D01*
X0208594Y0163388D01*
X0208336Y0163646D01*
X0208020Y0163829D01*
X0207667Y0163924D01*
X0205703Y0163924D01*
X0205703Y0159180D01*
X0204541Y0159180D01*
X0204541Y0158018D01*
X0201372Y0158018D01*
X0201372Y0154480D01*
X0201467Y0154127D01*
X0201650Y0153810D01*
X0201908Y0153552D01*
X0201372Y0154690D02*
X0192732Y0154690D01*
X0192806Y0154705D02*
X0193542Y0155010D01*
X0194205Y0155453D01*
X0194768Y0156016D01*
X0195211Y0156678D01*
X0195516Y0157415D01*
X0195671Y0158196D01*
X0195671Y0158309D01*
X0191912Y0158309D01*
X0191912Y0158880D01*
X0195671Y0158880D01*
X0195671Y0158993D01*
X0195516Y0159774D01*
X0195211Y0160510D01*
X0194768Y0161173D01*
X0194205Y0161736D01*
X0193542Y0162179D01*
X0192806Y0162484D01*
X0192025Y0162639D01*
X0191912Y0162639D01*
X0191912Y0158880D01*
X0191340Y0158880D01*
X0191340Y0158309D01*
X0187581Y0158309D01*
X0187581Y0158196D01*
X0187737Y0157415D01*
X0188042Y0156678D01*
X0188484Y0156016D01*
X0189048Y0155453D01*
X0189710Y0155010D01*
X0190446Y0154705D01*
X0191228Y0154550D01*
X0191340Y0154550D01*
X0191340Y0158309D01*
X0191912Y0158309D01*
X0191912Y0154550D01*
X0192025Y0154550D01*
X0192806Y0154705D01*
X0191912Y0154690D02*
X0191340Y0154690D01*
X0190520Y0154690D02*
X0185532Y0154690D01*
X0184958Y0155889D02*
X0188611Y0155889D01*
X0187872Y0157087D02*
X0183679Y0157087D01*
X0182806Y0159705D02*
X0183542Y0160010D01*
X0184205Y0160453D01*
X0184768Y0161016D01*
X0185211Y0161678D01*
X0185516Y0162415D01*
X0185671Y0163196D01*
X0185671Y0163309D01*
X0181912Y0163309D01*
X0181912Y0163880D01*
X0185671Y0163880D01*
X0185671Y0163993D01*
X0185516Y0164774D01*
X0185211Y0165510D01*
X0184768Y0166173D01*
X0184205Y0166736D01*
X0183542Y0167179D01*
X0182806Y0167484D01*
X0182025Y0167639D01*
X0181912Y0167639D01*
X0181912Y0163880D01*
X0181340Y0163880D01*
X0181340Y0163309D01*
X0177581Y0163309D01*
X0177581Y0163196D01*
X0177737Y0162415D01*
X0178042Y0161678D01*
X0178484Y0161016D01*
X0179048Y0160453D01*
X0179710Y0160010D01*
X0180446Y0159705D01*
X0181228Y0159550D01*
X0181340Y0159550D01*
X0181340Y0163309D01*
X0181912Y0163309D01*
X0181912Y0159550D01*
X0182025Y0159550D01*
X0182806Y0159705D01*
X0181912Y0160683D02*
X0181340Y0160683D01*
X0181340Y0161881D02*
X0181912Y0161881D01*
X0181912Y0163080D02*
X0181340Y0163080D01*
X0181340Y0163880D02*
X0177581Y0163880D01*
X0177581Y0163993D01*
X0177737Y0164774D01*
X0178042Y0165510D01*
X0178484Y0166173D01*
X0179048Y0166736D01*
X0179710Y0167179D01*
X0180446Y0167484D01*
X0181228Y0167639D01*
X0181340Y0167639D01*
X0181340Y0163880D01*
X0181340Y0164278D02*
X0181912Y0164278D01*
X0181912Y0165477D02*
X0181340Y0165477D01*
X0181340Y0166675D02*
X0181912Y0166675D01*
X0184265Y0166675D02*
X0188256Y0166675D01*
X0188364Y0166415D02*
X0189446Y0165332D01*
X0190861Y0164746D01*
X0192392Y0164746D01*
X0193806Y0165332D01*
X0194888Y0166415D01*
X0195474Y0167829D01*
X0195474Y0169360D01*
X0194888Y0170774D01*
X0193806Y0171857D01*
X0192392Y0172442D01*
X0190861Y0172442D01*
X0189446Y0171857D01*
X0188364Y0170774D01*
X0187778Y0169360D01*
X0187778Y0167829D01*
X0188364Y0166415D01*
X0189302Y0165477D02*
X0185225Y0165477D01*
X0185614Y0164278D02*
X0240081Y0164278D01*
X0240081Y0163080D02*
X0208772Y0163080D01*
X0208872Y0161881D02*
X0240081Y0161881D01*
X0240081Y0160683D02*
X0208872Y0160683D01*
X0208872Y0159484D02*
X0240081Y0159484D01*
X0240081Y0158286D02*
X0205703Y0158286D01*
X0204541Y0158286D02*
X0195671Y0158286D01*
X0195573Y0159484D02*
X0201372Y0159484D01*
X0201372Y0159180D02*
X0204541Y0159180D01*
X0204541Y0163924D01*
X0202577Y0163924D01*
X0202224Y0163829D01*
X0201908Y0163646D01*
X0201650Y0163388D01*
X0201467Y0163072D01*
X0201372Y0162719D01*
X0201372Y0159180D01*
X0201372Y0160683D02*
X0195095Y0160683D01*
X0193987Y0161881D02*
X0201372Y0161881D01*
X0201472Y0163080D02*
X0185648Y0163080D01*
X0185295Y0161881D02*
X0189265Y0161881D01*
X0189048Y0161736D02*
X0188484Y0161173D01*
X0188042Y0160510D01*
X0187737Y0159774D01*
X0187581Y0158993D01*
X0187581Y0158880D01*
X0191340Y0158880D01*
X0191340Y0162639D01*
X0191228Y0162639D01*
X0190446Y0162484D01*
X0189710Y0162179D01*
X0189048Y0161736D01*
X0188157Y0160683D02*
X0184435Y0160683D01*
X0178817Y0160683D02*
X0173128Y0160683D01*
X0173128Y0159484D02*
X0187679Y0159484D01*
X0187581Y0158286D02*
X0173128Y0158286D01*
X0172905Y0153492D02*
X0181340Y0153492D01*
X0177787Y0152293D02*
X0173128Y0152293D01*
X0173128Y0151095D02*
X0178432Y0151095D01*
X0179083Y0149896D02*
X0173128Y0149896D01*
X0173128Y0148698D02*
X0177885Y0148698D01*
X0176686Y0147499D02*
X0172674Y0147499D01*
X0167263Y0147499D02*
X0165981Y0147499D01*
X0166435Y0148698D02*
X0166809Y0148698D01*
X0166809Y0149896D02*
X0166435Y0149896D01*
X0166435Y0151095D02*
X0166809Y0151095D01*
X0166809Y0152293D02*
X0166435Y0152293D01*
X0166212Y0153492D02*
X0167032Y0153492D01*
X0166873Y0155889D02*
X0166371Y0155889D01*
X0166435Y0157087D02*
X0166809Y0157087D01*
X0166809Y0158286D02*
X0166435Y0158286D01*
X0166435Y0159484D02*
X0166809Y0159484D01*
X0166809Y0160683D02*
X0166435Y0160683D01*
X0165823Y0161881D02*
X0167421Y0161881D01*
X0172516Y0161881D02*
X0177958Y0161881D01*
X0177604Y0163080D02*
X0175182Y0163080D01*
X0176381Y0164278D02*
X0177638Y0164278D01*
X0177579Y0165477D02*
X0178028Y0165477D01*
X0177808Y0166675D02*
X0178987Y0166675D01*
X0177808Y0167874D02*
X0187778Y0167874D01*
X0187778Y0169073D02*
X0177808Y0169073D01*
X0177808Y0170271D02*
X0179594Y0170271D01*
X0178341Y0171470D02*
X0177808Y0171470D01*
X0173436Y0171470D02*
X0173128Y0171470D01*
X0173128Y0172668D02*
X0173436Y0172668D01*
X0173436Y0173867D02*
X0172530Y0173867D01*
X0173436Y0175065D02*
X0155283Y0175065D01*
X0155238Y0176264D02*
X0167589Y0176264D01*
X0167620Y0176255D02*
X0169584Y0176255D01*
X0169584Y0179227D01*
X0170353Y0179227D01*
X0170353Y0179995D01*
X0173521Y0179995D01*
X0173521Y0181762D01*
X0173427Y0182115D01*
X0173244Y0182431D01*
X0172986Y0182690D01*
X0172669Y0182872D01*
X0172317Y0182967D01*
X0170353Y0182967D01*
X0170353Y0179995D01*
X0169584Y0179995D01*
X0169584Y0182967D01*
X0167620Y0182967D01*
X0167268Y0182872D01*
X0166951Y0182690D01*
X0166693Y0182431D01*
X0166539Y0182165D01*
X0165934Y0182770D01*
X0160617Y0182770D01*
X0159987Y0182140D01*
X0159653Y0182278D01*
X0158592Y0182278D01*
X0157611Y0181872D01*
X0156861Y0181122D01*
X0156455Y0180142D01*
X0156455Y0179081D01*
X0156861Y0178100D01*
X0157611Y0177350D01*
X0158592Y0176944D01*
X0159653Y0176944D01*
X0159987Y0177082D01*
X0160617Y0176452D01*
X0165934Y0176452D01*
X0166539Y0177057D01*
X0166693Y0176791D01*
X0166951Y0176532D01*
X0167268Y0176350D01*
X0167620Y0176255D01*
X0169584Y0176264D02*
X0170353Y0176264D01*
X0170353Y0176255D02*
X0172317Y0176255D01*
X0172669Y0176350D01*
X0172986Y0176532D01*
X0173244Y0176791D01*
X0173427Y0177107D01*
X0173521Y0177460D01*
X0173521Y0179227D01*
X0170353Y0179227D01*
X0170353Y0176255D01*
X0170353Y0177462D02*
X0169584Y0177462D01*
X0169584Y0178661D02*
X0170353Y0178661D01*
X0170353Y0179859D02*
X0177691Y0179859D01*
X0176493Y0178661D02*
X0173521Y0178661D01*
X0173521Y0177462D02*
X0175294Y0177462D01*
X0174096Y0176264D02*
X0172348Y0176264D01*
X0173521Y0181058D02*
X0188647Y0181058D01*
X0190411Y0182256D02*
X0173345Y0182256D01*
X0170353Y0182256D02*
X0169584Y0182256D01*
X0169584Y0181058D02*
X0170353Y0181058D01*
X0166592Y0182256D02*
X0166448Y0182256D01*
X0160103Y0182256D02*
X0159705Y0182256D01*
X0158539Y0182256D02*
X0151466Y0182256D01*
X0151398Y0182137D02*
X0151580Y0182453D01*
X0151675Y0182806D01*
X0151675Y0184573D01*
X0148506Y0184573D01*
X0148506Y0181602D01*
X0150470Y0181602D01*
X0150823Y0181696D01*
X0151139Y0181879D01*
X0151398Y0182137D01*
X0151147Y0181058D02*
X0156835Y0181058D01*
X0156455Y0179859D02*
X0151478Y0179859D01*
X0151478Y0178661D02*
X0156629Y0178661D01*
X0157499Y0177462D02*
X0154543Y0177462D01*
X0154649Y0173867D02*
X0160714Y0173867D01*
X0160814Y0173967D02*
X0160117Y0173270D01*
X0160117Y0173086D01*
X0159653Y0173278D01*
X0158592Y0173278D01*
X0157611Y0172872D01*
X0156861Y0172122D01*
X0156455Y0171142D01*
X0156455Y0170081D01*
X0156861Y0169100D01*
X0157611Y0168350D01*
X0158592Y0167944D01*
X0159653Y0167944D01*
X0160117Y0168136D01*
X0160117Y0167953D01*
X0160814Y0167255D01*
X0165737Y0167255D01*
X0166435Y0167953D01*
X0166435Y0173270D01*
X0165737Y0173967D01*
X0160814Y0173967D01*
X0157407Y0172668D02*
X0152994Y0172668D01*
X0152897Y0171470D02*
X0156591Y0171470D01*
X0156455Y0170271D02*
X0154028Y0170271D01*
X0154289Y0169073D02*
X0156889Y0169073D01*
X0156095Y0166675D02*
X0152711Y0166675D01*
X0153996Y0167874D02*
X0160195Y0167874D01*
X0154897Y0165477D02*
X0150520Y0165477D01*
X0149435Y0164278D02*
X0149322Y0164278D01*
X0148209Y0164044D02*
X0145222Y0164044D01*
X0145222Y0164044D01*
X0145222Y0166013D02*
X0148524Y0166013D01*
X0151622Y0169111D01*
X0148122Y0172850D02*
X0145222Y0169950D01*
X0145408Y0172668D02*
X0144271Y0172668D01*
X0144271Y0173867D02*
X0146331Y0173867D01*
X0146331Y0175065D02*
X0144021Y0175065D01*
X0144021Y0176264D02*
X0144766Y0176264D01*
X0144766Y0177462D02*
X0144021Y0177462D01*
X0144021Y0178661D02*
X0144766Y0178661D01*
X0144766Y0179859D02*
X0144021Y0179859D01*
X0144021Y0181058D02*
X0145098Y0181058D01*
X0145421Y0181696D02*
X0145774Y0181602D01*
X0147738Y0181602D01*
X0147738Y0184573D01*
X0148506Y0184573D01*
X0148506Y0185342D01*
X0147738Y0185342D01*
X0147738Y0188313D01*
X0145774Y0188313D01*
X0145421Y0188219D01*
X0145105Y0188036D01*
X0144846Y0187778D01*
X0144664Y0187461D01*
X0144569Y0187109D01*
X0144569Y0185342D01*
X0147738Y0185342D01*
X0147738Y0184573D01*
X0144569Y0184573D01*
X0144569Y0182806D01*
X0144664Y0182453D01*
X0144846Y0182137D01*
X0145105Y0181879D01*
X0145421Y0181696D01*
X0144778Y0182256D02*
X0144021Y0182256D01*
X0144021Y0183455D02*
X0144569Y0183455D01*
X0144021Y0184653D02*
X0147738Y0184653D01*
X0148506Y0184653D02*
X0208546Y0184653D01*
X0208546Y0185202D02*
X0208546Y0181987D01*
X0209776Y0179017D01*
X0212049Y0176744D01*
X0215019Y0175514D01*
X0218233Y0175514D01*
X0221203Y0176744D01*
X0223476Y0179017D01*
X0224706Y0181987D01*
X0224706Y0185202D01*
X0223476Y0188172D01*
X0221203Y0190445D01*
X0218233Y0191675D01*
X0215019Y0191675D01*
X0212049Y0190445D01*
X0209776Y0188172D01*
X0208546Y0185202D01*
X0208815Y0185852D02*
X0151675Y0185852D01*
X0151675Y0185342D02*
X0151675Y0187109D01*
X0151580Y0187461D01*
X0151398Y0187778D01*
X0151139Y0188036D01*
X0150823Y0188219D01*
X0150470Y0188313D01*
X0148506Y0188313D01*
X0148506Y0185342D01*
X0151675Y0185342D01*
X0151675Y0187050D02*
X0201349Y0187050D01*
X0200103Y0188249D02*
X0150711Y0188249D01*
X0148506Y0188249D02*
X0147738Y0188249D01*
X0147738Y0187050D02*
X0148506Y0187050D01*
X0148506Y0185852D02*
X0147738Y0185852D01*
X0147738Y0183455D02*
X0148506Y0183455D01*
X0148506Y0182256D02*
X0147738Y0182256D01*
X0151675Y0183455D02*
X0208546Y0183455D01*
X0208546Y0182256D02*
X0192841Y0182256D01*
X0194605Y0181058D02*
X0208931Y0181058D01*
X0209427Y0179859D02*
X0207146Y0179859D01*
X0207383Y0179622D02*
X0206633Y0180372D01*
X0205653Y0180778D01*
X0204592Y0180778D01*
X0203611Y0180372D01*
X0202861Y0179622D01*
X0202455Y0178642D01*
X0202455Y0177581D01*
X0202861Y0176600D01*
X0203131Y0176330D01*
X0203131Y0174750D01*
X0202267Y0174750D01*
X0201569Y0174053D01*
X0201569Y0165193D01*
X0202267Y0164495D01*
X0207977Y0164495D01*
X0208675Y0165193D01*
X0208675Y0174053D01*
X0207977Y0174750D01*
X0207113Y0174750D01*
X0207113Y0176330D01*
X0207383Y0176600D01*
X0207789Y0177581D01*
X0207789Y0178642D01*
X0207383Y0179622D01*
X0207781Y0178661D02*
X0210133Y0178661D01*
X0211331Y0177462D02*
X0207740Y0177462D01*
X0207113Y0176264D02*
X0213210Y0176264D01*
X0208675Y0173867D02*
X0226644Y0173867D01*
X0226664Y0173819D02*
X0227746Y0172736D01*
X0229160Y0172150D01*
X0230691Y0172150D01*
X0232105Y0172736D01*
X0233188Y0173819D01*
X0233774Y0175233D01*
X0233774Y0176764D01*
X0233188Y0178178D01*
X0232105Y0179261D01*
X0230691Y0179846D01*
X0229160Y0179846D01*
X0227746Y0179261D01*
X0226664Y0178178D01*
X0226078Y0176764D01*
X0226078Y0175233D01*
X0226664Y0173819D01*
X0226147Y0175065D02*
X0207113Y0175065D01*
X0208675Y0172668D02*
X0227910Y0172668D01*
X0231941Y0172668D02*
X0240081Y0172668D01*
X0240081Y0171470D02*
X0208675Y0171470D01*
X0208675Y0170271D02*
X0240081Y0170271D01*
X0240081Y0169073D02*
X0208675Y0169073D01*
X0208675Y0167874D02*
X0240081Y0167874D01*
X0240081Y0166675D02*
X0208675Y0166675D01*
X0208675Y0165477D02*
X0240081Y0165477D01*
X0243163Y0165477D02*
X0257825Y0165477D01*
X0257825Y0166675D02*
X0243163Y0166675D01*
X0243163Y0167874D02*
X0257825Y0167874D01*
X0257825Y0169073D02*
X0243163Y0169073D01*
X0243163Y0170271D02*
X0257825Y0170271D01*
X0257825Y0171470D02*
X0243163Y0171470D01*
X0243163Y0172668D02*
X0257825Y0172668D01*
X0257825Y0173867D02*
X0243163Y0173867D01*
X0243163Y0175065D02*
X0257825Y0175065D01*
X0257825Y0176264D02*
X0243163Y0176264D01*
X0243163Y0177462D02*
X0257825Y0177462D01*
X0257825Y0178661D02*
X0243163Y0178661D01*
X0243163Y0179859D02*
X0257825Y0179859D01*
X0257825Y0181058D02*
X0243163Y0181058D01*
X0243163Y0182256D02*
X0257825Y0182256D01*
X0257825Y0183455D02*
X0243163Y0183455D01*
X0243163Y0184653D02*
X0257825Y0184653D01*
X0257825Y0185852D02*
X0243163Y0185852D01*
X0243163Y0187050D02*
X0257825Y0187050D01*
X0257825Y0188249D02*
X0243163Y0188249D01*
X0243163Y0189447D02*
X0257825Y0189447D01*
X0257825Y0190646D02*
X0243163Y0190646D01*
X0243163Y0191844D02*
X0257825Y0191844D01*
X0257825Y0193043D02*
X0243163Y0193043D01*
X0242670Y0194241D02*
X0257825Y0194241D01*
X0257825Y0195440D02*
X0241472Y0195440D01*
X0240273Y0196638D02*
X0257825Y0196638D01*
X0257825Y0197837D02*
X0239075Y0197837D01*
X0237876Y0199035D02*
X0257825Y0199035D01*
X0257825Y0200234D02*
X0236678Y0200234D01*
X0235479Y0201432D02*
X0257825Y0201432D01*
X0257825Y0202631D02*
X0234281Y0202631D01*
X0232321Y0200234D02*
X0147423Y0200234D01*
X0146868Y0199035D02*
X0146225Y0199035D01*
X0145669Y0197837D02*
X0145026Y0197837D01*
X0144471Y0196638D02*
X0143828Y0196638D01*
X0143272Y0195440D02*
X0142629Y0195440D01*
X0142074Y0194241D02*
X0142052Y0194241D01*
X0144034Y0191844D02*
X0198703Y0191844D01*
X0198703Y0193043D02*
X0145232Y0193043D01*
X0146431Y0194241D02*
X0199104Y0194241D01*
X0199600Y0195440D02*
X0147629Y0195440D01*
X0148828Y0196638D02*
X0200793Y0196638D01*
X0198818Y0190646D02*
X0144021Y0190646D01*
X0144021Y0189447D02*
X0199314Y0189447D01*
X0207887Y0187050D02*
X0209311Y0187050D01*
X0209134Y0188249D02*
X0209853Y0188249D01*
X0209922Y0189447D02*
X0211052Y0189447D01*
X0210419Y0190646D02*
X0212535Y0190646D01*
X0210533Y0191844D02*
X0227880Y0191844D01*
X0229079Y0190646D02*
X0220718Y0190646D01*
X0222201Y0189447D02*
X0230277Y0189447D01*
X0231476Y0188249D02*
X0223399Y0188249D01*
X0223941Y0187050D02*
X0232186Y0187050D01*
X0232064Y0185852D02*
X0224437Y0185852D01*
X0224706Y0184653D02*
X0232301Y0184653D01*
X0233006Y0183455D02*
X0224706Y0183455D01*
X0224706Y0182256D02*
X0234873Y0182256D01*
X0236950Y0182256D02*
X0240081Y0182256D01*
X0240081Y0181058D02*
X0224321Y0181058D01*
X0223825Y0179859D02*
X0240081Y0179859D01*
X0240081Y0178661D02*
X0232705Y0178661D01*
X0233484Y0177462D02*
X0240081Y0177462D01*
X0240081Y0176264D02*
X0233774Y0176264D01*
X0233704Y0175065D02*
X0240081Y0175065D01*
X0240081Y0173867D02*
X0233208Y0173867D01*
X0226078Y0176264D02*
X0220043Y0176264D01*
X0221921Y0177462D02*
X0226367Y0177462D01*
X0227146Y0178661D02*
X0223120Y0178661D01*
X0233436Y0190646D02*
X0240081Y0190646D01*
X0240081Y0191844D02*
X0232237Y0191844D01*
X0231039Y0193043D02*
X0239512Y0193043D01*
X0238313Y0194241D02*
X0229840Y0194241D01*
X0228642Y0195440D02*
X0237115Y0195440D01*
X0235916Y0196638D02*
X0227443Y0196638D01*
X0226245Y0197837D02*
X0234718Y0197837D01*
X0233519Y0199035D02*
X0225046Y0199035D01*
X0223086Y0196638D02*
X0208443Y0196638D01*
X0209637Y0195440D02*
X0224285Y0195440D01*
X0225483Y0194241D02*
X0210133Y0194241D01*
X0210533Y0193043D02*
X0226682Y0193043D01*
X0237623Y0189447D02*
X0240081Y0189447D01*
X0240081Y0188249D02*
X0239096Y0188249D01*
X0239638Y0187050D02*
X0240081Y0187050D01*
X0240081Y0185852D02*
X0239760Y0185852D01*
X0239523Y0184653D02*
X0240081Y0184653D01*
X0240081Y0183455D02*
X0238817Y0183455D01*
X0243163Y0164278D02*
X0257825Y0164278D01*
X0257825Y0163080D02*
X0243163Y0163080D01*
X0243163Y0161881D02*
X0257825Y0161881D01*
X0257825Y0160683D02*
X0243163Y0160683D01*
X0243163Y0159484D02*
X0257825Y0159484D01*
X0257825Y0158286D02*
X0243163Y0158286D01*
X0243163Y0157087D02*
X0257825Y0157087D01*
X0257825Y0155889D02*
X0243163Y0155889D01*
X0243163Y0154690D02*
X0257825Y0154690D01*
X0257825Y0153492D02*
X0243163Y0153492D01*
X0243163Y0152293D02*
X0257825Y0152293D01*
X0257825Y0151095D02*
X0242988Y0151095D01*
X0241790Y0149896D02*
X0257825Y0149896D01*
X0257825Y0148698D02*
X0240591Y0148698D01*
X0239535Y0147499D02*
X0257825Y0147499D01*
X0257825Y0146301D02*
X0239758Y0146301D01*
X0239622Y0145102D02*
X0257825Y0145102D01*
X0257825Y0143904D02*
X0239060Y0143904D01*
X0237540Y0142705D02*
X0257825Y0142705D01*
X0257825Y0141507D02*
X0224166Y0141507D01*
X0223669Y0142705D02*
X0234280Y0142705D01*
X0232759Y0143904D02*
X0222744Y0143904D01*
X0221546Y0145102D02*
X0232198Y0145102D01*
X0232062Y0146301D02*
X0219136Y0146301D01*
X0214116Y0146301D02*
X0194774Y0146301D01*
X0195338Y0147499D02*
X0232285Y0147499D01*
X0232971Y0148698D02*
X0195474Y0148698D01*
X0195252Y0149896D02*
X0234790Y0149896D01*
X0237030Y0149896D02*
X0237432Y0149896D01*
X0238631Y0151095D02*
X0194568Y0151095D01*
X0192752Y0152293D02*
X0239829Y0152293D01*
X0240081Y0153492D02*
X0208232Y0153492D01*
X0208872Y0154690D02*
X0240081Y0154690D01*
X0240081Y0155889D02*
X0208872Y0155889D01*
X0208872Y0157087D02*
X0240081Y0157087D01*
X0228387Y0129522D02*
X0210533Y0129522D01*
X0210288Y0128323D02*
X0228387Y0128323D01*
X0228387Y0127125D02*
X0209792Y0127125D01*
X0208819Y0125926D02*
X0228387Y0125926D01*
X0228387Y0124728D02*
X0207128Y0124728D01*
X0210092Y0117278D02*
X0209111Y0116872D01*
X0208361Y0116122D01*
X0207955Y0115142D01*
X0207955Y0114081D01*
X0208361Y0113100D01*
X0209111Y0112350D01*
X0210092Y0111944D01*
X0211153Y0111944D01*
X0212133Y0112350D01*
X0212403Y0112620D01*
X0212617Y0112620D01*
X0212617Y0111953D01*
X0213314Y0111255D01*
X0218237Y0111255D01*
X0218935Y0111953D01*
X0218935Y0117270D01*
X0218237Y0117967D01*
X0213314Y0117967D01*
X0212617Y0117270D01*
X0212617Y0116602D01*
X0212403Y0116602D01*
X0212133Y0116872D01*
X0211153Y0117278D01*
X0210092Y0117278D01*
X0208577Y0116338D02*
X0173745Y0116338D01*
X0173745Y0115140D02*
X0207955Y0115140D01*
X0208013Y0113941D02*
X0173745Y0113941D01*
X0173745Y0112742D02*
X0208719Y0112742D01*
X0213025Y0111544D02*
X0173745Y0111544D01*
X0170664Y0111544D02*
X0163745Y0111544D01*
X0163745Y0112742D02*
X0170664Y0112742D01*
X0170664Y0113941D02*
X0163620Y0113941D01*
X0162422Y0115140D02*
X0170664Y0115140D01*
X0170094Y0116338D02*
X0161223Y0116338D01*
X0160025Y0117537D02*
X0168896Y0117537D01*
X0170856Y0119934D02*
X0228387Y0119934D01*
X0228387Y0121132D02*
X0169658Y0121132D01*
X0172055Y0118735D02*
X0228387Y0118735D01*
X0227869Y0117537D02*
X0225361Y0117537D01*
X0225628Y0116338D02*
X0226670Y0116338D01*
X0219576Y0117537D02*
X0218668Y0117537D01*
X0218935Y0116338D02*
X0219309Y0116338D01*
X0219309Y0115140D02*
X0218935Y0115140D01*
X0218935Y0113941D02*
X0219309Y0113941D01*
X0219309Y0112742D02*
X0218935Y0112742D01*
X0218526Y0111544D02*
X0219718Y0111544D01*
X0212884Y0117537D02*
X0173253Y0117537D01*
X0170664Y0110345D02*
X0163745Y0110345D01*
X0163745Y0109147D02*
X0170664Y0109147D01*
X0170664Y0107948D02*
X0163745Y0107948D01*
X0164265Y0106750D02*
X0170144Y0106750D01*
X0168762Y0105551D02*
X0165647Y0105551D01*
X0166208Y0104353D02*
X0168201Y0104353D01*
X0168014Y0103154D02*
X0166395Y0103154D01*
X0166395Y0101956D02*
X0168014Y0101956D01*
X0168014Y0100757D02*
X0166395Y0100757D01*
X0166395Y0099559D02*
X0168014Y0099559D01*
X0168014Y0098360D02*
X0166395Y0098360D01*
X0166395Y0097162D02*
X0168014Y0097162D01*
X0168126Y0095963D02*
X0166283Y0095963D01*
X0165787Y0094765D02*
X0168623Y0094765D01*
X0169780Y0093566D02*
X0164630Y0093566D01*
X0174630Y0093566D02*
X0222073Y0093566D01*
X0221123Y0094765D02*
X0175787Y0094765D01*
X0176283Y0095963D02*
X0220817Y0095963D01*
X0220984Y0097162D02*
X0176395Y0097162D01*
X0176395Y0098360D02*
X0221738Y0098360D01*
X0228014Y0091169D02*
X0066578Y0091169D01*
X0066611Y0091238D02*
X0066611Y0091238D01*
X0066000Y0089971D02*
X0228384Y0089971D01*
X0228705Y0088928D02*
X0228705Y0088928D01*
X0228812Y0088772D02*
X0065423Y0088772D01*
X0064846Y0087574D02*
X0229629Y0087574D01*
X0230446Y0086375D02*
X0064088Y0086375D01*
X0064464Y0086780D02*
X0064464Y0086780D01*
X0062976Y0085177D02*
X0231263Y0085177D01*
X0231493Y0084840D02*
X0231493Y0084840D01*
X0231493Y0084840D01*
X0232573Y0083978D02*
X0061864Y0083978D01*
X0061098Y0083152D02*
X0061098Y0083152D01*
X0060453Y0082780D02*
X0234076Y0082780D01*
X0239968Y0112315D02*
X0239968Y0112315D01*
X0208590Y0140308D02*
X0183748Y0140308D01*
X0184926Y0141507D02*
X0209086Y0141507D01*
X0209583Y0142705D02*
X0185423Y0142705D01*
X0185474Y0143904D02*
X0210508Y0143904D01*
X0211707Y0145102D02*
X0193251Y0145102D01*
X0190002Y0145102D02*
X0185167Y0145102D01*
X0184362Y0146301D02*
X0188478Y0146301D01*
X0188685Y0151095D02*
X0184821Y0151095D01*
X0185465Y0152293D02*
X0190501Y0152293D01*
X0191340Y0155889D02*
X0191912Y0155889D01*
X0191912Y0157087D02*
X0191340Y0157087D01*
X0191340Y0158286D02*
X0191912Y0158286D01*
X0191912Y0159484D02*
X0191340Y0159484D01*
X0191340Y0160683D02*
X0191912Y0160683D01*
X0191912Y0161881D02*
X0191340Y0161881D01*
X0193951Y0165477D02*
X0201569Y0165477D01*
X0201569Y0166675D02*
X0194996Y0166675D01*
X0195474Y0167874D02*
X0201569Y0167874D01*
X0201569Y0169073D02*
X0195474Y0169073D01*
X0195097Y0170271D02*
X0201569Y0170271D01*
X0201569Y0171470D02*
X0194193Y0171470D01*
X0193161Y0175065D02*
X0203131Y0175065D01*
X0203131Y0176264D02*
X0194737Y0176264D01*
X0195322Y0177462D02*
X0202504Y0177462D01*
X0202463Y0178661D02*
X0195474Y0178661D01*
X0195267Y0179859D02*
X0203099Y0179859D01*
X0201569Y0173867D02*
X0185474Y0173867D01*
X0185407Y0172668D02*
X0201569Y0172668D01*
X0204541Y0163080D02*
X0205703Y0163080D01*
X0205703Y0161881D02*
X0204541Y0161881D01*
X0204541Y0160683D02*
X0205703Y0160683D01*
X0205703Y0159484D02*
X0204541Y0159484D01*
X0204541Y0157087D02*
X0205703Y0157087D01*
X0205703Y0155889D02*
X0204541Y0155889D01*
X0204541Y0154690D02*
X0205703Y0154690D01*
X0205703Y0153492D02*
X0204541Y0153492D01*
X0201372Y0155889D02*
X0194641Y0155889D01*
X0195380Y0157087D02*
X0201372Y0157087D01*
X0188156Y0170271D02*
X0183658Y0170271D01*
X0184911Y0171470D02*
X0189059Y0171470D01*
X0190091Y0175065D02*
X0185182Y0175065D01*
X0184399Y0176264D02*
X0188515Y0176264D01*
X0173436Y0170271D02*
X0173128Y0170271D01*
X0173128Y0169073D02*
X0173436Y0169073D01*
X0173436Y0167874D02*
X0173049Y0167874D01*
X0167406Y0173867D02*
X0165838Y0173867D01*
X0166435Y0172668D02*
X0166809Y0172668D01*
X0166809Y0171470D02*
X0166435Y0171470D01*
X0166435Y0170271D02*
X0166809Y0170271D01*
X0166809Y0169073D02*
X0166435Y0169073D01*
X0166356Y0167874D02*
X0166888Y0167874D01*
X0160728Y0161881D02*
X0157484Y0161881D01*
X0157422Y0160683D02*
X0156285Y0160683D01*
X0156597Y0159484D02*
X0155087Y0159484D01*
X0153888Y0158286D02*
X0156455Y0158286D01*
X0156874Y0157087D02*
X0152690Y0157087D01*
X0148209Y0156170D02*
X0145222Y0156170D01*
X0145222Y0156170D01*
X0142431Y0160491D02*
X0141919Y0160491D01*
X0141986Y0160829D01*
X0141986Y0161111D01*
X0139122Y0161111D01*
X0139122Y0161111D01*
X0139122Y0161111D01*
X0141986Y0161111D01*
X0141986Y0161393D01*
X0141926Y0161691D01*
X0142431Y0161691D01*
X0142431Y0160491D01*
X0142431Y0160683D02*
X0141957Y0160683D01*
X0134222Y0164278D02*
X0133022Y0164278D01*
X0133622Y0163080D02*
X0133622Y0163080D01*
X0133622Y0165477D02*
X0133622Y0165477D01*
X0133622Y0166675D02*
X0133622Y0166675D01*
X0133622Y0167611D02*
X0133622Y0169901D01*
X0133622Y0169901D01*
X0133622Y0167611D01*
X0133622Y0167611D01*
X0133622Y0167874D02*
X0133622Y0167874D01*
X0133622Y0169073D02*
X0133622Y0169073D01*
X0132638Y0172691D02*
X0132638Y0177095D01*
X0131622Y0178111D01*
X0127160Y0181058D02*
X0124192Y0181058D01*
X0122232Y0183455D02*
X0122041Y0183455D01*
X0122041Y0184653D02*
X0123400Y0184653D01*
X0123400Y0185852D02*
X0122041Y0185852D01*
X0121992Y0187050D02*
X0123400Y0187050D01*
X0119414Y0187050D02*
X0119334Y0187050D01*
X0119334Y0188073D02*
X0119334Y0184954D01*
X0116707Y0184954D01*
X0116707Y0186868D01*
X0116802Y0187221D01*
X0116984Y0187538D01*
X0117243Y0187796D01*
X0117559Y0187979D01*
X0117912Y0188073D01*
X0119334Y0188073D01*
X0119334Y0185852D02*
X0119414Y0185852D01*
X0116707Y0185852D02*
X0112506Y0185852D01*
X0112506Y0186086D02*
X0115478Y0186086D01*
X0115478Y0188050D01*
X0115383Y0188402D01*
X0115201Y0188719D01*
X0114942Y0188977D01*
X0114676Y0189131D01*
X0115281Y0189736D01*
X0115281Y0195053D01*
X0114584Y0195750D01*
X0114113Y0195750D01*
X0114113Y0196267D01*
X0114383Y0196537D01*
X0114789Y0197518D01*
X0114789Y0198579D01*
X0114383Y0199559D01*
X0113633Y0200309D01*
X0112653Y0200715D01*
X0111592Y0200715D01*
X0110611Y0200309D01*
X0109861Y0199559D01*
X0109455Y0198579D01*
X0109455Y0197518D01*
X0109861Y0196537D01*
X0110131Y0196267D01*
X0110131Y0195750D01*
X0109660Y0195750D01*
X0108963Y0195053D01*
X0108963Y0189736D01*
X0109568Y0189131D01*
X0109302Y0188977D01*
X0109043Y0188719D01*
X0108861Y0188402D01*
X0108766Y0188050D01*
X0108766Y0186086D01*
X0111738Y0186086D01*
X0111738Y0185317D01*
X0112506Y0185317D01*
X0112506Y0182149D01*
X0114273Y0182149D01*
X0114626Y0182243D01*
X0114942Y0182426D01*
X0115201Y0182684D01*
X0115383Y0183001D01*
X0115478Y0183354D01*
X0115478Y0185317D01*
X0112506Y0185317D01*
X0112506Y0186086D01*
X0111738Y0185852D02*
X0106041Y0185852D01*
X0106041Y0187050D02*
X0108766Y0187050D01*
X0108820Y0188249D02*
X0106041Y0188249D01*
X0106041Y0189447D02*
X0109252Y0189447D01*
X0108963Y0190646D02*
X0106041Y0190646D01*
X0106041Y0191844D02*
X0108963Y0191844D01*
X0108963Y0193043D02*
X0106041Y0193043D01*
X0106041Y0194241D02*
X0108963Y0194241D01*
X0109350Y0195440D02*
X0106041Y0195440D01*
X0106041Y0196638D02*
X0109819Y0196638D01*
X0109455Y0197837D02*
X0106041Y0197837D01*
X0106041Y0199035D02*
X0109644Y0199035D01*
X0109352Y0200234D02*
X0110536Y0200234D01*
X0111033Y0201432D02*
X0133066Y0201432D01*
X0133066Y0200234D02*
X0127508Y0200234D01*
X0127433Y0200309D02*
X0126453Y0200715D01*
X0125392Y0200715D01*
X0124411Y0200309D01*
X0123661Y0199559D01*
X0123255Y0198579D01*
X0123255Y0197518D01*
X0123661Y0196537D01*
X0123880Y0196319D01*
X0123880Y0195926D01*
X0123400Y0195447D01*
X0123400Y0190917D01*
X0124097Y0190220D01*
X0127643Y0190220D01*
X0128340Y0190917D01*
X0128340Y0195447D01*
X0127861Y0195926D01*
X0127861Y0196215D01*
X0128183Y0196537D01*
X0128589Y0197518D01*
X0128589Y0198579D01*
X0128183Y0199559D01*
X0127433Y0200309D01*
X0128400Y0199035D02*
X0133066Y0199035D01*
X0133066Y0197837D02*
X0128589Y0197837D01*
X0128225Y0196638D02*
X0133066Y0196638D01*
X0133066Y0195440D02*
X0128340Y0195440D01*
X0128340Y0194241D02*
X0133066Y0194241D01*
X0133066Y0193043D02*
X0128340Y0193043D01*
X0128340Y0191844D02*
X0133066Y0191844D01*
X0133066Y0190646D02*
X0128069Y0190646D01*
X0128340Y0187050D02*
X0130042Y0187050D01*
X0132202Y0187050D02*
X0133066Y0187050D01*
X0133066Y0188249D02*
X0115425Y0188249D01*
X0115478Y0187050D02*
X0116756Y0187050D01*
X0116707Y0184653D02*
X0115478Y0184653D01*
X0115478Y0183455D02*
X0116707Y0183455D01*
X0117019Y0182256D02*
X0114648Y0182256D01*
X0112506Y0182256D02*
X0111738Y0182256D01*
X0111738Y0182149D02*
X0111738Y0185317D01*
X0108766Y0185317D01*
X0108766Y0183354D01*
X0108861Y0183001D01*
X0109043Y0182684D01*
X0109302Y0182426D01*
X0109618Y0182243D01*
X0109971Y0182149D01*
X0111738Y0182149D01*
X0111738Y0183455D02*
X0112506Y0183455D01*
X0112506Y0184653D02*
X0111738Y0184653D01*
X0108766Y0184653D02*
X0106041Y0184653D01*
X0106969Y0183455D02*
X0108766Y0183455D01*
X0108167Y0182256D02*
X0109596Y0182256D01*
X0106207Y0179859D02*
X0036584Y0179859D01*
X0036584Y0181058D02*
X0105009Y0181058D01*
X0103810Y0182256D02*
X0036584Y0182256D01*
X0036584Y0183455D02*
X0102959Y0183455D01*
X0102959Y0184653D02*
X0036584Y0184653D01*
X0036584Y0185852D02*
X0102959Y0185852D01*
X0102959Y0187050D02*
X0036584Y0187050D01*
X0036584Y0188249D02*
X0102959Y0188249D01*
X0102959Y0189447D02*
X0036584Y0189447D01*
X0036584Y0190646D02*
X0102959Y0190646D01*
X0102959Y0191844D02*
X0036584Y0191844D01*
X0036584Y0193043D02*
X0102959Y0193043D01*
X0102959Y0194241D02*
X0036584Y0194241D01*
X0036584Y0195440D02*
X0102959Y0195440D01*
X0102959Y0196638D02*
X0036584Y0196638D01*
X0036584Y0197837D02*
X0102959Y0197837D01*
X0102959Y0199035D02*
X0036584Y0199035D01*
X0036584Y0200234D02*
X0102959Y0200234D01*
X0102959Y0201432D02*
X0036584Y0201432D01*
X0036584Y0202631D02*
X0102959Y0202631D01*
X0102959Y0203829D02*
X0036584Y0203829D01*
X0036584Y0205028D02*
X0102959Y0205028D01*
X0102959Y0206226D02*
X0036584Y0206226D01*
X0036584Y0207425D02*
X0102959Y0207425D01*
X0102959Y0208623D02*
X0036584Y0208623D01*
X0036584Y0209822D02*
X0047671Y0209822D01*
X0047054Y0209868D02*
X0047054Y0209868D01*
X0044118Y0211020D02*
X0036584Y0211020D01*
X0036584Y0212219D02*
X0041767Y0212219D01*
X0040264Y0213417D02*
X0036584Y0213417D01*
X0036584Y0214616D02*
X0038761Y0214616D01*
X0037861Y0215814D02*
X0036584Y0215814D01*
X0036584Y0217013D02*
X0037044Y0217013D01*
X0051989Y0209498D02*
X0051989Y0209498D01*
X0053406Y0209822D02*
X0102959Y0209822D01*
X0103959Y0211020D02*
X0057542Y0211020D01*
X0056813Y0210599D02*
X0056813Y0210599D01*
X0059618Y0212219D02*
X0105158Y0212219D01*
X0106356Y0213417D02*
X0061417Y0213417D01*
X0061098Y0213074D02*
X0061098Y0213074D01*
X0061098Y0213074D01*
X0062529Y0214616D02*
X0107555Y0214616D01*
X0108316Y0211020D02*
X0130959Y0211020D01*
X0132158Y0212219D02*
X0120515Y0212219D01*
X0121713Y0213417D02*
X0133356Y0213417D01*
X0133232Y0214836D02*
X0133889Y0215049D01*
X0134504Y0215363D01*
X0135063Y0215768D01*
X0135551Y0216257D01*
X0135957Y0216815D01*
X0136271Y0217431D01*
X0136484Y0218088D01*
X0136592Y0218770D01*
X0136592Y0221715D01*
X0132605Y0221715D01*
X0132605Y0222515D01*
X0136592Y0222515D01*
X0136592Y0225460D01*
X0136484Y0226142D01*
X0136271Y0226799D01*
X0135957Y0227414D01*
X0135551Y0227973D01*
X0135063Y0228461D01*
X0134504Y0228867D01*
X0133889Y0229181D01*
X0133232Y0229394D01*
X0132605Y0229494D01*
X0132605Y0222515D01*
X0131805Y0222515D01*
X0131805Y0229494D01*
X0131177Y0229394D01*
X0130521Y0229181D01*
X0129905Y0228867D01*
X0129347Y0228461D01*
X0128858Y0227973D01*
X0128452Y0227414D01*
X0128139Y0226799D01*
X0127925Y0226142D01*
X0127817Y0225460D01*
X0127817Y0222515D01*
X0131805Y0222515D01*
X0131805Y0221715D01*
X0132605Y0221715D01*
X0132605Y0214736D01*
X0133232Y0214836D01*
X0132605Y0215814D02*
X0131805Y0215814D01*
X0131805Y0214736D02*
X0131805Y0221715D01*
X0127817Y0221715D01*
X0127817Y0218770D01*
X0127925Y0218088D01*
X0128139Y0217431D01*
X0128452Y0216815D01*
X0128858Y0216257D01*
X0129347Y0215768D01*
X0129905Y0215363D01*
X0130521Y0215049D01*
X0131177Y0214836D01*
X0131805Y0214736D01*
X0131805Y0217013D02*
X0132605Y0217013D01*
X0132605Y0218211D02*
X0131805Y0218211D01*
X0131805Y0219410D02*
X0132605Y0219410D01*
X0132605Y0220609D02*
X0131805Y0220609D01*
X0131805Y0221807D02*
X0126395Y0221807D01*
X0126395Y0220609D02*
X0127817Y0220609D01*
X0127817Y0219410D02*
X0126395Y0219410D01*
X0126366Y0218211D02*
X0127906Y0218211D01*
X0128352Y0217013D02*
X0125870Y0217013D01*
X0124831Y0215814D02*
X0129300Y0215814D01*
X0134555Y0214616D02*
X0122912Y0214616D01*
X0119579Y0215814D02*
X0063641Y0215814D01*
X0064464Y0216701D02*
X0064464Y0216701D01*
X0064614Y0217013D02*
X0118540Y0217013D01*
X0118043Y0218211D02*
X0065191Y0218211D01*
X0065768Y0219410D02*
X0118014Y0219410D01*
X0118014Y0220609D02*
X0066345Y0220609D01*
X0066611Y0221159D02*
X0066611Y0221159D01*
X0066708Y0221807D02*
X0118014Y0221807D01*
X0118014Y0223006D02*
X0071333Y0223006D01*
X0069533Y0223006D02*
X0066889Y0223006D01*
X0067069Y0224204D02*
X0067813Y0224204D01*
X0067283Y0225403D02*
X0067250Y0225403D01*
X0067265Y0226601D02*
X0067274Y0226601D01*
X0067085Y0227800D02*
X0067738Y0227800D01*
X0066904Y0228998D02*
X0069291Y0228998D01*
X0071576Y0228998D02*
X0120629Y0228998D01*
X0118963Y0227800D02*
X0073129Y0227800D01*
X0073592Y0226601D02*
X0118284Y0226601D01*
X0118014Y0225403D02*
X0073583Y0225403D01*
X0073053Y0224204D02*
X0118014Y0224204D01*
X0123780Y0228998D02*
X0130162Y0228998D01*
X0131805Y0228998D02*
X0132605Y0228998D01*
X0132605Y0227800D02*
X0131805Y0227800D01*
X0131805Y0226601D02*
X0132605Y0226601D01*
X0132605Y0225403D02*
X0131805Y0225403D01*
X0131805Y0224204D02*
X0132605Y0224204D01*
X0132605Y0223006D02*
X0131805Y0223006D01*
X0132605Y0221807D02*
X0138014Y0221807D01*
X0138014Y0220609D02*
X0136592Y0220609D01*
X0136592Y0219410D02*
X0138014Y0219410D01*
X0138043Y0218211D02*
X0136504Y0218211D01*
X0136058Y0217013D02*
X0138540Y0217013D01*
X0135753Y0215814D02*
X0135109Y0215814D01*
X0136515Y0212219D02*
X0139658Y0212219D01*
X0138459Y0211020D02*
X0135316Y0211020D01*
X0134118Y0209822D02*
X0137261Y0209822D01*
X0136062Y0208623D02*
X0132919Y0208623D01*
X0131721Y0207425D02*
X0134864Y0207425D01*
X0133665Y0206226D02*
X0111841Y0206226D01*
X0110643Y0205028D02*
X0133066Y0205028D01*
X0133066Y0203829D02*
X0111228Y0203829D01*
X0111407Y0202631D02*
X0133066Y0202631D01*
X0136147Y0203829D02*
X0136355Y0203829D01*
X0136824Y0205028D02*
X0137553Y0205028D01*
X0138022Y0206226D02*
X0138752Y0206226D01*
X0139221Y0207425D02*
X0139950Y0207425D01*
X0140419Y0208623D02*
X0141149Y0208623D01*
X0141618Y0209822D02*
X0142347Y0209822D01*
X0143109Y0206226D02*
X0143917Y0206226D01*
X0142718Y0205028D02*
X0141910Y0205028D01*
X0141520Y0203829D02*
X0140712Y0203829D01*
X0140321Y0202631D02*
X0139513Y0202631D01*
X0139123Y0201432D02*
X0138315Y0201432D01*
X0141083Y0199035D02*
X0141868Y0199035D01*
X0142282Y0200234D02*
X0143066Y0200234D01*
X0143480Y0201432D02*
X0144265Y0201432D01*
X0144679Y0202631D02*
X0145463Y0202631D01*
X0140669Y0197837D02*
X0140084Y0197837D01*
X0144021Y0188249D02*
X0145533Y0188249D01*
X0144569Y0187050D02*
X0144021Y0187050D01*
X0144021Y0185852D02*
X0144569Y0185852D01*
X0148122Y0178265D02*
X0148122Y0172850D01*
X0152809Y0164278D02*
X0153698Y0164278D01*
X0153031Y0152293D02*
X0157033Y0152293D01*
X0156455Y0151095D02*
X0154229Y0151095D01*
X0155428Y0149896D02*
X0156531Y0149896D01*
X0156626Y0148698D02*
X0157264Y0148698D01*
X0157825Y0147499D02*
X0160570Y0147499D01*
X0156437Y0142705D02*
X0134178Y0142705D01*
X0134178Y0141507D02*
X0160354Y0141507D01*
X0157048Y0140308D02*
X0134178Y0140308D01*
X0134178Y0139110D02*
X0156455Y0139110D01*
X0156525Y0137911D02*
X0150150Y0137911D01*
X0151349Y0136713D02*
X0157249Y0136713D01*
X0160555Y0135514D02*
X0152547Y0135514D01*
X0153541Y0134316D02*
X0200478Y0134316D01*
X0202256Y0135514D02*
X0172689Y0135514D01*
X0155238Y0143904D02*
X0134178Y0143904D01*
X0134178Y0145102D02*
X0154040Y0145102D01*
X0153469Y0118735D02*
X0152326Y0118735D01*
X0140088Y0112742D02*
X0131319Y0112742D01*
X0132517Y0111544D02*
X0140664Y0111544D01*
X0140664Y0110345D02*
X0133716Y0110345D01*
X0133745Y0109147D02*
X0140664Y0109147D01*
X0140664Y0107948D02*
X0133745Y0107948D01*
X0134265Y0106750D02*
X0140144Y0106750D01*
X0138762Y0105551D02*
X0135647Y0105551D01*
X0136208Y0104353D02*
X0138201Y0104353D01*
X0138014Y0103154D02*
X0136395Y0103154D01*
X0136395Y0101956D02*
X0138014Y0101956D01*
X0138014Y0100757D02*
X0136395Y0100757D01*
X0136395Y0099559D02*
X0138014Y0099559D01*
X0138014Y0098360D02*
X0136395Y0098360D01*
X0136395Y0097162D02*
X0138014Y0097162D01*
X0138126Y0095963D02*
X0136283Y0095963D01*
X0135787Y0094765D02*
X0138623Y0094765D01*
X0139780Y0093566D02*
X0134630Y0093566D01*
X0120144Y0106750D02*
X0063287Y0106750D01*
X0062175Y0107948D02*
X0120664Y0107948D01*
X0120664Y0109147D02*
X0061032Y0109147D01*
X0058957Y0110345D02*
X0120359Y0110345D01*
X0119160Y0111544D02*
X0056881Y0111544D01*
X0051989Y0112684D02*
X0051989Y0112684D01*
X0047054Y0112315D02*
X0047054Y0112315D01*
X0045091Y0111544D02*
X0036584Y0111544D01*
X0036584Y0112742D02*
X0117962Y0112742D01*
X0116959Y0113941D02*
X0036584Y0113941D01*
X0036584Y0115140D02*
X0116959Y0115140D01*
X0116959Y0116338D02*
X0036584Y0116338D01*
X0036584Y0117537D02*
X0116959Y0117537D01*
X0116959Y0118735D02*
X0036584Y0118735D01*
X0036584Y0119934D02*
X0116959Y0119934D01*
X0116959Y0121132D02*
X0036584Y0121132D01*
X0036584Y0122331D02*
X0116959Y0122331D01*
X0116959Y0123529D02*
X0036584Y0123529D01*
X0036584Y0124728D02*
X0116959Y0124728D01*
X0116778Y0125926D02*
X0036584Y0125926D01*
X0036584Y0110345D02*
X0042246Y0110345D01*
X0042448Y0110507D02*
X0042448Y0110507D01*
X0040743Y0109147D02*
X0036584Y0109147D01*
X0036584Y0107948D02*
X0039240Y0107948D01*
X0038579Y0107422D02*
X0038579Y0107422D01*
X0038579Y0107422D01*
X0038121Y0106750D02*
X0036584Y0106750D01*
X0036584Y0105551D02*
X0037304Y0105551D01*
X0064399Y0105551D02*
X0118762Y0105551D01*
X0118201Y0104353D02*
X0065007Y0104353D01*
X0065584Y0103154D02*
X0118014Y0103154D01*
X0118014Y0101956D02*
X0066162Y0101956D01*
X0066651Y0100757D02*
X0118014Y0100757D01*
X0118014Y0099559D02*
X0066831Y0099559D01*
X0123541Y0118735D02*
X0123969Y0118735D01*
X0123959Y0119934D02*
X0123541Y0119934D01*
X0123541Y0121132D02*
X0123959Y0121132D01*
X0123959Y0122331D02*
X0123541Y0122331D01*
X0123541Y0123529D02*
X0123959Y0123529D01*
X0123959Y0124728D02*
X0123541Y0124728D01*
X0123541Y0125926D02*
X0123959Y0125926D01*
X0123959Y0127125D02*
X0123541Y0127125D01*
X0123541Y0128323D02*
X0123959Y0128323D01*
X0123959Y0129522D02*
X0123541Y0129522D01*
X0123959Y0130720D02*
X0122841Y0130720D01*
X0123018Y0131919D02*
X0121643Y0131919D01*
X0124025Y0117537D02*
X0125167Y0117537D01*
X0125223Y0116338D02*
X0126366Y0116338D01*
X0126422Y0115140D02*
X0127564Y0115140D01*
X0127620Y0113941D02*
X0128763Y0113941D01*
X0114506Y0153492D02*
X0113738Y0153492D01*
X0113738Y0154690D02*
X0114506Y0154690D01*
X0110879Y0154690D02*
X0103923Y0154690D01*
X0102978Y0153492D02*
X0110766Y0153492D01*
X0110856Y0167874D02*
X0112388Y0167874D01*
X0111809Y0169073D02*
X0111435Y0169073D01*
X0111435Y0170271D02*
X0111809Y0170271D01*
X0111809Y0171470D02*
X0111435Y0171470D01*
X0111435Y0172668D02*
X0111809Y0172668D01*
X0111906Y0173867D02*
X0111338Y0173867D01*
X0105117Y0169073D02*
X0104855Y0169073D01*
X0105695Y0167874D02*
X0100515Y0167874D01*
X0099688Y0169073D02*
X0101389Y0169073D01*
X0118942Y0171470D02*
X0119658Y0171470D01*
X0124764Y0175969D02*
X0124122Y0176611D01*
X0133066Y0189447D02*
X0114992Y0189447D01*
X0115281Y0190646D02*
X0117175Y0190646D01*
X0116904Y0190917D02*
X0117601Y0190220D01*
X0121147Y0190220D01*
X0121844Y0190917D01*
X0121844Y0195447D01*
X0121365Y0195926D01*
X0121365Y0196319D01*
X0121583Y0196537D01*
X0121989Y0197518D01*
X0121989Y0198579D01*
X0121583Y0199559D01*
X0120833Y0200309D01*
X0119853Y0200715D01*
X0118792Y0200715D01*
X0117811Y0200309D01*
X0117061Y0199559D01*
X0116655Y0198579D01*
X0116655Y0197518D01*
X0117061Y0196537D01*
X0117383Y0196215D01*
X0117383Y0195926D01*
X0116904Y0195447D01*
X0116904Y0190917D01*
X0116904Y0191844D02*
X0115281Y0191844D01*
X0115281Y0193043D02*
X0116904Y0193043D01*
X0116904Y0194241D02*
X0115281Y0194241D01*
X0114894Y0195440D02*
X0116904Y0195440D01*
X0117019Y0196638D02*
X0114425Y0196638D01*
X0114789Y0197837D02*
X0116655Y0197837D01*
X0116844Y0199035D02*
X0114600Y0199035D01*
X0113708Y0200234D02*
X0117736Y0200234D01*
X0120908Y0200234D02*
X0124336Y0200234D01*
X0123444Y0199035D02*
X0121800Y0199035D01*
X0121989Y0197837D02*
X0123255Y0197837D01*
X0123619Y0196638D02*
X0121625Y0196638D01*
X0121844Y0195440D02*
X0123400Y0195440D01*
X0123400Y0194241D02*
X0121844Y0194241D01*
X0121844Y0193043D02*
X0123400Y0193043D01*
X0123400Y0191844D02*
X0121844Y0191844D01*
X0121573Y0190646D02*
X0123671Y0190646D01*
X0108128Y0200234D02*
X0106041Y0200234D01*
X0106041Y0201432D02*
X0106448Y0201432D01*
X0106073Y0202631D02*
X0106041Y0202631D01*
X0106041Y0203829D02*
X0106252Y0203829D01*
X0106041Y0205028D02*
X0107129Y0205028D01*
X0107484Y0206226D02*
X0106041Y0206226D01*
X0106041Y0207425D02*
X0108682Y0207425D01*
X0109881Y0208623D02*
X0106041Y0208623D01*
X0107118Y0209822D02*
X0111079Y0209822D01*
X0126395Y0223006D02*
X0127817Y0223006D01*
X0127817Y0224204D02*
X0126395Y0224204D01*
X0126395Y0225403D02*
X0127817Y0225403D01*
X0128074Y0226601D02*
X0126125Y0226601D01*
X0125446Y0227800D02*
X0128732Y0227800D01*
X0134248Y0228998D02*
X0140629Y0228998D01*
X0138963Y0227800D02*
X0135677Y0227800D01*
X0136335Y0226601D02*
X0138284Y0226601D01*
X0138014Y0225403D02*
X0136592Y0225403D01*
X0136592Y0224204D02*
X0138014Y0224204D01*
X0138014Y0223006D02*
X0136592Y0223006D01*
X0143780Y0228998D02*
X0150629Y0228998D01*
X0148963Y0227800D02*
X0145446Y0227800D01*
X0146125Y0226601D02*
X0148284Y0226601D01*
X0148014Y0225403D02*
X0146395Y0225403D01*
X0146395Y0224204D02*
X0148014Y0224204D01*
X0148014Y0223006D02*
X0146395Y0223006D01*
X0146395Y0221807D02*
X0148014Y0221807D01*
X0148014Y0220609D02*
X0146395Y0220609D01*
X0146395Y0219410D02*
X0148014Y0219410D01*
X0148043Y0218211D02*
X0146366Y0218211D01*
X0145870Y0217013D02*
X0148540Y0217013D01*
X0149579Y0215814D02*
X0144831Y0215814D01*
X0142912Y0214616D02*
X0149555Y0214616D01*
X0151515Y0212219D02*
X0160664Y0212219D01*
X0160664Y0213417D02*
X0152713Y0213417D01*
X0153745Y0214616D02*
X0160664Y0214616D01*
X0159579Y0215814D02*
X0154831Y0215814D01*
X0155870Y0217013D02*
X0158540Y0217013D01*
X0158043Y0218211D02*
X0156366Y0218211D01*
X0156395Y0219410D02*
X0158014Y0219410D01*
X0158014Y0220609D02*
X0156395Y0220609D01*
X0156395Y0221807D02*
X0158014Y0221807D01*
X0158014Y0223006D02*
X0156395Y0223006D01*
X0156395Y0224204D02*
X0158014Y0224204D01*
X0158014Y0225403D02*
X0156395Y0225403D01*
X0156125Y0226601D02*
X0158284Y0226601D01*
X0158963Y0227800D02*
X0155446Y0227800D01*
X0153780Y0228998D02*
X0160629Y0228998D01*
X0163780Y0228998D02*
X0170629Y0228998D01*
X0168963Y0227800D02*
X0165446Y0227800D01*
X0166125Y0226601D02*
X0168284Y0226601D01*
X0168014Y0225403D02*
X0166395Y0225403D01*
X0166395Y0224204D02*
X0168014Y0224204D01*
X0168014Y0223006D02*
X0166395Y0223006D01*
X0166395Y0221807D02*
X0168014Y0221807D01*
X0168014Y0220609D02*
X0166395Y0220609D01*
X0166395Y0219410D02*
X0168014Y0219410D01*
X0168043Y0218211D02*
X0166366Y0218211D01*
X0165870Y0217013D02*
X0168540Y0217013D01*
X0169579Y0215814D02*
X0164831Y0215814D01*
X0163745Y0214616D02*
X0170664Y0214616D01*
X0170664Y0213417D02*
X0163745Y0213417D01*
X0163745Y0212219D02*
X0170664Y0212219D01*
X0170664Y0211020D02*
X0163745Y0211020D01*
X0163745Y0209822D02*
X0170664Y0209822D01*
X0169936Y0208623D02*
X0162982Y0208623D01*
X0161784Y0207425D02*
X0168738Y0207425D01*
X0170698Y0205028D02*
X0228351Y0205028D01*
X0228124Y0205255D02*
X0228943Y0204436D01*
X0230908Y0204436D01*
X0232297Y0205825D01*
X0232297Y0207790D01*
X0230908Y0209179D01*
X0229733Y0209179D01*
X0229128Y0209784D01*
X0229128Y0211270D01*
X0228430Y0211967D01*
X0223507Y0211967D01*
X0222809Y0211270D01*
X0222809Y0205953D01*
X0223507Y0205255D01*
X0228124Y0205255D01*
X0231500Y0205028D02*
X0257825Y0205028D01*
X0257825Y0206226D02*
X0232297Y0206226D01*
X0232297Y0207425D02*
X0257825Y0207425D01*
X0257825Y0208623D02*
X0231464Y0208623D01*
X0229128Y0209822D02*
X0240585Y0209822D01*
X0237032Y0211020D02*
X0229128Y0211020D01*
X0231675Y0214616D02*
X0173745Y0214616D01*
X0173745Y0213417D02*
X0233178Y0213417D01*
X0234681Y0212219D02*
X0173745Y0212219D01*
X0173745Y0211020D02*
X0213470Y0211020D01*
X0213111Y0210872D02*
X0214092Y0211278D01*
X0215153Y0211278D01*
X0216117Y0210879D01*
X0216117Y0211270D01*
X0216814Y0211967D01*
X0221737Y0211967D01*
X0222435Y0211270D01*
X0222435Y0205953D01*
X0221737Y0205255D01*
X0216814Y0205255D01*
X0216117Y0205953D01*
X0216117Y0206343D01*
X0215153Y0205944D01*
X0214092Y0205944D01*
X0213111Y0206350D01*
X0212361Y0207100D01*
X0211955Y0208081D01*
X0211955Y0209142D01*
X0212361Y0210122D01*
X0213111Y0210872D01*
X0212237Y0209822D02*
X0173745Y0209822D01*
X0173745Y0208623D02*
X0211955Y0208623D01*
X0212227Y0207425D02*
X0173095Y0207425D01*
X0171896Y0206226D02*
X0213410Y0206226D01*
X0215834Y0206226D02*
X0216117Y0206226D01*
X0216117Y0211020D02*
X0215774Y0211020D01*
X0222435Y0211020D02*
X0222809Y0211020D01*
X0222809Y0209822D02*
X0222435Y0209822D01*
X0222435Y0208623D02*
X0222809Y0208623D01*
X0222809Y0207425D02*
X0222435Y0207425D01*
X0222435Y0206226D02*
X0222809Y0206226D01*
X0231493Y0214761D02*
X0231493Y0214761D01*
X0231493Y0214761D01*
X0230775Y0215814D02*
X0174831Y0215814D01*
X0175870Y0217013D02*
X0229957Y0217013D01*
X0229140Y0218211D02*
X0176366Y0218211D01*
X0176395Y0219410D02*
X0228532Y0219410D01*
X0228163Y0220609D02*
X0176395Y0220609D01*
X0176395Y0221807D02*
X0227793Y0221807D01*
X0227423Y0223006D02*
X0224877Y0223006D01*
X0224605Y0222893D02*
X0225766Y0223374D01*
X0226654Y0224262D01*
X0227135Y0225424D01*
X0227135Y0226680D01*
X0226654Y0227841D01*
X0225766Y0228730D01*
X0224605Y0229211D01*
X0223348Y0229211D01*
X0222187Y0228730D01*
X0221298Y0227841D01*
X0220817Y0226680D01*
X0220817Y0225424D01*
X0221298Y0224262D01*
X0222187Y0223374D01*
X0223348Y0222893D01*
X0224605Y0222893D01*
X0223076Y0223006D02*
X0176395Y0223006D01*
X0176395Y0224204D02*
X0221357Y0224204D01*
X0220826Y0225403D02*
X0176395Y0225403D01*
X0176125Y0226601D02*
X0220817Y0226601D01*
X0221281Y0227800D02*
X0175446Y0227800D01*
X0173780Y0228998D02*
X0222834Y0228998D01*
X0225119Y0228998D02*
X0227392Y0228998D01*
X0227247Y0227800D02*
X0226672Y0227800D01*
X0227135Y0226601D02*
X0227247Y0226601D01*
X0227247Y0225403D02*
X0227127Y0225403D01*
X0227247Y0224204D02*
X0226596Y0224204D01*
X0227762Y0230197D02*
X0186763Y0230197D01*
X0186763Y0229976D02*
X0186763Y0231253D01*
X0185861Y0232155D01*
X0184662Y0232155D01*
X0184662Y0237558D01*
X0183759Y0238460D01*
X0182483Y0238460D01*
X0181581Y0237558D01*
X0179479Y0235456D01*
X0179479Y0234180D01*
X0180381Y0233278D01*
X0181581Y0233278D01*
X0181581Y0232155D01*
X0180381Y0232155D01*
X0179479Y0231253D01*
X0179479Y0229976D01*
X0180381Y0229074D01*
X0185861Y0229074D01*
X0186763Y0229976D01*
X0186621Y0231395D02*
X0228132Y0231395D01*
X0228502Y0232594D02*
X0184662Y0232594D01*
X0184662Y0233792D02*
X0229072Y0233792D01*
X0228705Y0233254D02*
X0228705Y0233254D01*
X0229889Y0234991D02*
X0184662Y0234991D01*
X0184662Y0236189D02*
X0230706Y0236189D01*
X0231549Y0237388D02*
X0184662Y0237388D01*
X0181410Y0237388D02*
X0062622Y0237388D01*
X0061510Y0238586D02*
X0233052Y0238586D01*
X0234555Y0239785D02*
X0059791Y0239785D01*
X0061098Y0239030D02*
X0061098Y0239030D01*
X0063734Y0236189D02*
X0180212Y0236189D01*
X0179479Y0234991D02*
X0064662Y0234991D01*
X0064464Y0235403D02*
X0064464Y0235403D01*
X0065239Y0233792D02*
X0179867Y0233792D01*
X0181581Y0232594D02*
X0065817Y0232594D01*
X0066394Y0231395D02*
X0179621Y0231395D01*
X0179479Y0230197D02*
X0066723Y0230197D01*
X0066611Y0230945D02*
X0066611Y0230945D01*
X0150316Y0211020D02*
X0160664Y0211020D01*
X0169499Y0203829D02*
X0257825Y0203829D01*
X0257825Y0209822D02*
X0246319Y0209822D01*
X0250455Y0211020D02*
X0257825Y0211020D01*
X0257825Y0212219D02*
X0252531Y0212219D01*
X0254330Y0213417D02*
X0257825Y0213417D01*
X0257825Y0214616D02*
X0255442Y0214616D01*
X0256555Y0215814D02*
X0257825Y0215814D01*
X0257377Y0216701D02*
X0257377Y0216701D01*
X0257527Y0217013D02*
X0257825Y0217013D01*
D25*
X0214622Y0208611D03*
X0205122Y0178111D03*
X0159122Y0179611D03*
X0152622Y0175611D03*
X0151622Y0169111D03*
X0159122Y0170611D03*
X0159122Y0158611D03*
X0159122Y0150611D03*
X0159122Y0138611D03*
X0159122Y0129111D03*
X0139122Y0154611D03*
X0133622Y0154611D03*
X0128122Y0154611D03*
X0128122Y0161111D03*
X0133622Y0161111D03*
X0139122Y0161111D03*
X0139122Y0167611D03*
X0133622Y0167611D03*
X0128122Y0167611D03*
X0131622Y0178111D03*
X0131122Y0184611D03*
X0125922Y0198048D03*
X0119322Y0198048D03*
X0112122Y0198048D03*
X0108740Y0202867D03*
X0103122Y0171111D03*
X0097992Y0166997D03*
X0107122Y0142548D03*
X0114122Y0140611D03*
X0124622Y0145611D03*
X0074063Y0143568D03*
X0210622Y0114611D03*
D26*
X0151122Y0162611D03*
X0150622Y0172611D03*
X0124122Y0176611D03*
X0229926Y0206807D03*
D27*
X0219276Y0208611D02*
X0214622Y0208611D01*
X0205122Y0178111D02*
X0205122Y0169623D01*
X0163276Y0170611D02*
X0159122Y0170611D01*
X0159122Y0179611D02*
X0163276Y0179611D01*
X0163276Y0158611D02*
X0159122Y0158611D01*
X0159122Y0150611D02*
X0163276Y0150611D01*
X0163276Y0138611D02*
X0159122Y0138611D01*
X0159122Y0129111D02*
X0163276Y0129111D01*
X0210622Y0114611D02*
X0215776Y0114611D01*
X0125870Y0193182D02*
X0125870Y0197996D01*
X0125922Y0198048D01*
X0119374Y0197996D02*
X0119374Y0193182D01*
X0119374Y0197996D02*
X0119322Y0198048D01*
X0112122Y0198048D02*
X0112122Y0192394D01*
X0108276Y0171111D02*
X0103122Y0171111D01*
X0114122Y0145265D02*
X0114122Y0140611D01*
X0074063Y0143568D02*
X0074063Y0152513D01*
M02*
