G75*
%MOIN*%
%OFA0B0*%
%FSLAX25Y25*%
%IPPOS*%
%LPD*%
%AMOC8*
5,1,8,0,0,1.08239X$1,22.5*
%
%ADD10C,0.00000*%
%ADD11C,0.05315*%
%ADD12C,0.09449*%
%ADD13C,0.12992*%
%ADD14R,0.03937X0.04331*%
%ADD15R,0.04331X0.03937*%
%ADD16R,0.04724X0.07874*%
%ADD17R,0.01200X0.03200*%
%ADD18R,0.03200X0.01200*%
%ADD19R,0.16929X0.16929*%
%ADD20R,0.02559X0.03543*%
%ADD21C,0.03937*%
%ADD22C,0.11811*%
%ADD23C,0.06000*%
%ADD24R,0.09449X0.09449*%
%ADD25C,0.02953*%
D10*
X0050748Y0080383D02*
X0243661Y0080383D01*
X0237755Y0096131D02*
X0237757Y0096284D01*
X0237763Y0096438D01*
X0237773Y0096591D01*
X0237787Y0096743D01*
X0237805Y0096896D01*
X0237827Y0097047D01*
X0237852Y0097198D01*
X0237882Y0097349D01*
X0237916Y0097499D01*
X0237953Y0097647D01*
X0237994Y0097795D01*
X0238039Y0097941D01*
X0238088Y0098087D01*
X0238141Y0098231D01*
X0238197Y0098373D01*
X0238257Y0098514D01*
X0238321Y0098654D01*
X0238388Y0098792D01*
X0238459Y0098928D01*
X0238534Y0099062D01*
X0238611Y0099194D01*
X0238693Y0099324D01*
X0238777Y0099452D01*
X0238865Y0099578D01*
X0238956Y0099701D01*
X0239050Y0099822D01*
X0239148Y0099940D01*
X0239248Y0100056D01*
X0239352Y0100169D01*
X0239458Y0100280D01*
X0239567Y0100388D01*
X0239679Y0100493D01*
X0239793Y0100594D01*
X0239911Y0100693D01*
X0240030Y0100789D01*
X0240152Y0100882D01*
X0240277Y0100971D01*
X0240404Y0101058D01*
X0240533Y0101140D01*
X0240664Y0101220D01*
X0240797Y0101296D01*
X0240932Y0101369D01*
X0241069Y0101438D01*
X0241208Y0101503D01*
X0241348Y0101565D01*
X0241490Y0101623D01*
X0241633Y0101678D01*
X0241778Y0101729D01*
X0241924Y0101776D01*
X0242071Y0101819D01*
X0242219Y0101858D01*
X0242368Y0101894D01*
X0242518Y0101925D01*
X0242669Y0101953D01*
X0242820Y0101977D01*
X0242973Y0101997D01*
X0243125Y0102013D01*
X0243278Y0102025D01*
X0243431Y0102033D01*
X0243584Y0102037D01*
X0243738Y0102037D01*
X0243891Y0102033D01*
X0244044Y0102025D01*
X0244197Y0102013D01*
X0244349Y0101997D01*
X0244502Y0101977D01*
X0244653Y0101953D01*
X0244804Y0101925D01*
X0244954Y0101894D01*
X0245103Y0101858D01*
X0245251Y0101819D01*
X0245398Y0101776D01*
X0245544Y0101729D01*
X0245689Y0101678D01*
X0245832Y0101623D01*
X0245974Y0101565D01*
X0246114Y0101503D01*
X0246253Y0101438D01*
X0246390Y0101369D01*
X0246525Y0101296D01*
X0246658Y0101220D01*
X0246789Y0101140D01*
X0246918Y0101058D01*
X0247045Y0100971D01*
X0247170Y0100882D01*
X0247292Y0100789D01*
X0247411Y0100693D01*
X0247529Y0100594D01*
X0247643Y0100493D01*
X0247755Y0100388D01*
X0247864Y0100280D01*
X0247970Y0100169D01*
X0248074Y0100056D01*
X0248174Y0099940D01*
X0248272Y0099822D01*
X0248366Y0099701D01*
X0248457Y0099578D01*
X0248545Y0099452D01*
X0248629Y0099324D01*
X0248711Y0099194D01*
X0248788Y0099062D01*
X0248863Y0098928D01*
X0248934Y0098792D01*
X0249001Y0098654D01*
X0249065Y0098514D01*
X0249125Y0098373D01*
X0249181Y0098231D01*
X0249234Y0098087D01*
X0249283Y0097941D01*
X0249328Y0097795D01*
X0249369Y0097647D01*
X0249406Y0097499D01*
X0249440Y0097349D01*
X0249470Y0097198D01*
X0249495Y0097047D01*
X0249517Y0096896D01*
X0249535Y0096743D01*
X0249549Y0096591D01*
X0249559Y0096438D01*
X0249565Y0096284D01*
X0249567Y0096131D01*
X0249565Y0095978D01*
X0249559Y0095824D01*
X0249549Y0095671D01*
X0249535Y0095519D01*
X0249517Y0095366D01*
X0249495Y0095215D01*
X0249470Y0095064D01*
X0249440Y0094913D01*
X0249406Y0094763D01*
X0249369Y0094615D01*
X0249328Y0094467D01*
X0249283Y0094321D01*
X0249234Y0094175D01*
X0249181Y0094031D01*
X0249125Y0093889D01*
X0249065Y0093748D01*
X0249001Y0093608D01*
X0248934Y0093470D01*
X0248863Y0093334D01*
X0248788Y0093200D01*
X0248711Y0093068D01*
X0248629Y0092938D01*
X0248545Y0092810D01*
X0248457Y0092684D01*
X0248366Y0092561D01*
X0248272Y0092440D01*
X0248174Y0092322D01*
X0248074Y0092206D01*
X0247970Y0092093D01*
X0247864Y0091982D01*
X0247755Y0091874D01*
X0247643Y0091769D01*
X0247529Y0091668D01*
X0247411Y0091569D01*
X0247292Y0091473D01*
X0247170Y0091380D01*
X0247045Y0091291D01*
X0246918Y0091204D01*
X0246789Y0091122D01*
X0246658Y0091042D01*
X0246525Y0090966D01*
X0246390Y0090893D01*
X0246253Y0090824D01*
X0246114Y0090759D01*
X0245974Y0090697D01*
X0245832Y0090639D01*
X0245689Y0090584D01*
X0245544Y0090533D01*
X0245398Y0090486D01*
X0245251Y0090443D01*
X0245103Y0090404D01*
X0244954Y0090368D01*
X0244804Y0090337D01*
X0244653Y0090309D01*
X0244502Y0090285D01*
X0244349Y0090265D01*
X0244197Y0090249D01*
X0244044Y0090237D01*
X0243891Y0090229D01*
X0243738Y0090225D01*
X0243584Y0090225D01*
X0243431Y0090229D01*
X0243278Y0090237D01*
X0243125Y0090249D01*
X0242973Y0090265D01*
X0242820Y0090285D01*
X0242669Y0090309D01*
X0242518Y0090337D01*
X0242368Y0090368D01*
X0242219Y0090404D01*
X0242071Y0090443D01*
X0241924Y0090486D01*
X0241778Y0090533D01*
X0241633Y0090584D01*
X0241490Y0090639D01*
X0241348Y0090697D01*
X0241208Y0090759D01*
X0241069Y0090824D01*
X0240932Y0090893D01*
X0240797Y0090966D01*
X0240664Y0091042D01*
X0240533Y0091122D01*
X0240404Y0091204D01*
X0240277Y0091291D01*
X0240152Y0091380D01*
X0240030Y0091473D01*
X0239911Y0091569D01*
X0239793Y0091668D01*
X0239679Y0091769D01*
X0239567Y0091874D01*
X0239458Y0091982D01*
X0239352Y0092093D01*
X0239248Y0092206D01*
X0239148Y0092322D01*
X0239050Y0092440D01*
X0238956Y0092561D01*
X0238865Y0092684D01*
X0238777Y0092810D01*
X0238693Y0092938D01*
X0238611Y0093068D01*
X0238534Y0093200D01*
X0238459Y0093334D01*
X0238388Y0093470D01*
X0238321Y0093608D01*
X0238257Y0093748D01*
X0238197Y0093889D01*
X0238141Y0094031D01*
X0238088Y0094175D01*
X0238039Y0094321D01*
X0237994Y0094467D01*
X0237953Y0094615D01*
X0237916Y0094763D01*
X0237882Y0094913D01*
X0237852Y0095064D01*
X0237827Y0095215D01*
X0237805Y0095366D01*
X0237787Y0095519D01*
X0237773Y0095671D01*
X0237763Y0095824D01*
X0237757Y0095978D01*
X0237755Y0096131D01*
X0243661Y0080383D02*
X0244042Y0080388D01*
X0244422Y0080401D01*
X0244802Y0080424D01*
X0245181Y0080457D01*
X0245559Y0080498D01*
X0245936Y0080548D01*
X0246312Y0080608D01*
X0246687Y0080676D01*
X0247059Y0080754D01*
X0247430Y0080841D01*
X0247798Y0080936D01*
X0248164Y0081041D01*
X0248527Y0081154D01*
X0248888Y0081276D01*
X0249245Y0081406D01*
X0249599Y0081546D01*
X0249950Y0081693D01*
X0250297Y0081850D01*
X0250640Y0082014D01*
X0250979Y0082187D01*
X0251314Y0082368D01*
X0251645Y0082557D01*
X0251970Y0082754D01*
X0252291Y0082958D01*
X0252607Y0083171D01*
X0252917Y0083391D01*
X0253223Y0083618D01*
X0253522Y0083853D01*
X0253816Y0084095D01*
X0254104Y0084343D01*
X0254386Y0084599D01*
X0254661Y0084862D01*
X0254930Y0085131D01*
X0255193Y0085406D01*
X0255449Y0085688D01*
X0255697Y0085976D01*
X0255939Y0086270D01*
X0256174Y0086569D01*
X0256401Y0086875D01*
X0256621Y0087185D01*
X0256834Y0087501D01*
X0257038Y0087822D01*
X0257235Y0088147D01*
X0257424Y0088478D01*
X0257605Y0088813D01*
X0257778Y0089152D01*
X0257942Y0089495D01*
X0258099Y0089842D01*
X0258246Y0090193D01*
X0258386Y0090547D01*
X0258516Y0090904D01*
X0258638Y0091265D01*
X0258751Y0091628D01*
X0258856Y0091994D01*
X0258951Y0092362D01*
X0259038Y0092733D01*
X0259116Y0093105D01*
X0259184Y0093480D01*
X0259244Y0093856D01*
X0259294Y0094233D01*
X0259335Y0094611D01*
X0259368Y0094990D01*
X0259391Y0095370D01*
X0259404Y0095750D01*
X0259409Y0096131D01*
X0259409Y0226052D01*
X0237755Y0226052D02*
X0237757Y0226205D01*
X0237763Y0226359D01*
X0237773Y0226512D01*
X0237787Y0226664D01*
X0237805Y0226817D01*
X0237827Y0226968D01*
X0237852Y0227119D01*
X0237882Y0227270D01*
X0237916Y0227420D01*
X0237953Y0227568D01*
X0237994Y0227716D01*
X0238039Y0227862D01*
X0238088Y0228008D01*
X0238141Y0228152D01*
X0238197Y0228294D01*
X0238257Y0228435D01*
X0238321Y0228575D01*
X0238388Y0228713D01*
X0238459Y0228849D01*
X0238534Y0228983D01*
X0238611Y0229115D01*
X0238693Y0229245D01*
X0238777Y0229373D01*
X0238865Y0229499D01*
X0238956Y0229622D01*
X0239050Y0229743D01*
X0239148Y0229861D01*
X0239248Y0229977D01*
X0239352Y0230090D01*
X0239458Y0230201D01*
X0239567Y0230309D01*
X0239679Y0230414D01*
X0239793Y0230515D01*
X0239911Y0230614D01*
X0240030Y0230710D01*
X0240152Y0230803D01*
X0240277Y0230892D01*
X0240404Y0230979D01*
X0240533Y0231061D01*
X0240664Y0231141D01*
X0240797Y0231217D01*
X0240932Y0231290D01*
X0241069Y0231359D01*
X0241208Y0231424D01*
X0241348Y0231486D01*
X0241490Y0231544D01*
X0241633Y0231599D01*
X0241778Y0231650D01*
X0241924Y0231697D01*
X0242071Y0231740D01*
X0242219Y0231779D01*
X0242368Y0231815D01*
X0242518Y0231846D01*
X0242669Y0231874D01*
X0242820Y0231898D01*
X0242973Y0231918D01*
X0243125Y0231934D01*
X0243278Y0231946D01*
X0243431Y0231954D01*
X0243584Y0231958D01*
X0243738Y0231958D01*
X0243891Y0231954D01*
X0244044Y0231946D01*
X0244197Y0231934D01*
X0244349Y0231918D01*
X0244502Y0231898D01*
X0244653Y0231874D01*
X0244804Y0231846D01*
X0244954Y0231815D01*
X0245103Y0231779D01*
X0245251Y0231740D01*
X0245398Y0231697D01*
X0245544Y0231650D01*
X0245689Y0231599D01*
X0245832Y0231544D01*
X0245974Y0231486D01*
X0246114Y0231424D01*
X0246253Y0231359D01*
X0246390Y0231290D01*
X0246525Y0231217D01*
X0246658Y0231141D01*
X0246789Y0231061D01*
X0246918Y0230979D01*
X0247045Y0230892D01*
X0247170Y0230803D01*
X0247292Y0230710D01*
X0247411Y0230614D01*
X0247529Y0230515D01*
X0247643Y0230414D01*
X0247755Y0230309D01*
X0247864Y0230201D01*
X0247970Y0230090D01*
X0248074Y0229977D01*
X0248174Y0229861D01*
X0248272Y0229743D01*
X0248366Y0229622D01*
X0248457Y0229499D01*
X0248545Y0229373D01*
X0248629Y0229245D01*
X0248711Y0229115D01*
X0248788Y0228983D01*
X0248863Y0228849D01*
X0248934Y0228713D01*
X0249001Y0228575D01*
X0249065Y0228435D01*
X0249125Y0228294D01*
X0249181Y0228152D01*
X0249234Y0228008D01*
X0249283Y0227862D01*
X0249328Y0227716D01*
X0249369Y0227568D01*
X0249406Y0227420D01*
X0249440Y0227270D01*
X0249470Y0227119D01*
X0249495Y0226968D01*
X0249517Y0226817D01*
X0249535Y0226664D01*
X0249549Y0226512D01*
X0249559Y0226359D01*
X0249565Y0226205D01*
X0249567Y0226052D01*
X0249565Y0225899D01*
X0249559Y0225745D01*
X0249549Y0225592D01*
X0249535Y0225440D01*
X0249517Y0225287D01*
X0249495Y0225136D01*
X0249470Y0224985D01*
X0249440Y0224834D01*
X0249406Y0224684D01*
X0249369Y0224536D01*
X0249328Y0224388D01*
X0249283Y0224242D01*
X0249234Y0224096D01*
X0249181Y0223952D01*
X0249125Y0223810D01*
X0249065Y0223669D01*
X0249001Y0223529D01*
X0248934Y0223391D01*
X0248863Y0223255D01*
X0248788Y0223121D01*
X0248711Y0222989D01*
X0248629Y0222859D01*
X0248545Y0222731D01*
X0248457Y0222605D01*
X0248366Y0222482D01*
X0248272Y0222361D01*
X0248174Y0222243D01*
X0248074Y0222127D01*
X0247970Y0222014D01*
X0247864Y0221903D01*
X0247755Y0221795D01*
X0247643Y0221690D01*
X0247529Y0221589D01*
X0247411Y0221490D01*
X0247292Y0221394D01*
X0247170Y0221301D01*
X0247045Y0221212D01*
X0246918Y0221125D01*
X0246789Y0221043D01*
X0246658Y0220963D01*
X0246525Y0220887D01*
X0246390Y0220814D01*
X0246253Y0220745D01*
X0246114Y0220680D01*
X0245974Y0220618D01*
X0245832Y0220560D01*
X0245689Y0220505D01*
X0245544Y0220454D01*
X0245398Y0220407D01*
X0245251Y0220364D01*
X0245103Y0220325D01*
X0244954Y0220289D01*
X0244804Y0220258D01*
X0244653Y0220230D01*
X0244502Y0220206D01*
X0244349Y0220186D01*
X0244197Y0220170D01*
X0244044Y0220158D01*
X0243891Y0220150D01*
X0243738Y0220146D01*
X0243584Y0220146D01*
X0243431Y0220150D01*
X0243278Y0220158D01*
X0243125Y0220170D01*
X0242973Y0220186D01*
X0242820Y0220206D01*
X0242669Y0220230D01*
X0242518Y0220258D01*
X0242368Y0220289D01*
X0242219Y0220325D01*
X0242071Y0220364D01*
X0241924Y0220407D01*
X0241778Y0220454D01*
X0241633Y0220505D01*
X0241490Y0220560D01*
X0241348Y0220618D01*
X0241208Y0220680D01*
X0241069Y0220745D01*
X0240932Y0220814D01*
X0240797Y0220887D01*
X0240664Y0220963D01*
X0240533Y0221043D01*
X0240404Y0221125D01*
X0240277Y0221212D01*
X0240152Y0221301D01*
X0240030Y0221394D01*
X0239911Y0221490D01*
X0239793Y0221589D01*
X0239679Y0221690D01*
X0239567Y0221795D01*
X0239458Y0221903D01*
X0239352Y0222014D01*
X0239248Y0222127D01*
X0239148Y0222243D01*
X0239050Y0222361D01*
X0238956Y0222482D01*
X0238865Y0222605D01*
X0238777Y0222731D01*
X0238693Y0222859D01*
X0238611Y0222989D01*
X0238534Y0223121D01*
X0238459Y0223255D01*
X0238388Y0223391D01*
X0238321Y0223529D01*
X0238257Y0223669D01*
X0238197Y0223810D01*
X0238141Y0223952D01*
X0238088Y0224096D01*
X0238039Y0224242D01*
X0237994Y0224388D01*
X0237953Y0224536D01*
X0237916Y0224684D01*
X0237882Y0224834D01*
X0237852Y0224985D01*
X0237827Y0225136D01*
X0237805Y0225287D01*
X0237787Y0225440D01*
X0237773Y0225592D01*
X0237763Y0225745D01*
X0237757Y0225899D01*
X0237755Y0226052D01*
X0243661Y0241800D02*
X0244042Y0241795D01*
X0244422Y0241782D01*
X0244802Y0241759D01*
X0245181Y0241726D01*
X0245559Y0241685D01*
X0245936Y0241635D01*
X0246312Y0241575D01*
X0246687Y0241507D01*
X0247059Y0241429D01*
X0247430Y0241342D01*
X0247798Y0241247D01*
X0248164Y0241142D01*
X0248527Y0241029D01*
X0248888Y0240907D01*
X0249245Y0240777D01*
X0249599Y0240637D01*
X0249950Y0240490D01*
X0250297Y0240333D01*
X0250640Y0240169D01*
X0250979Y0239996D01*
X0251314Y0239815D01*
X0251645Y0239626D01*
X0251970Y0239429D01*
X0252291Y0239225D01*
X0252607Y0239012D01*
X0252917Y0238792D01*
X0253223Y0238565D01*
X0253522Y0238330D01*
X0253816Y0238088D01*
X0254104Y0237840D01*
X0254386Y0237584D01*
X0254661Y0237321D01*
X0254930Y0237052D01*
X0255193Y0236777D01*
X0255449Y0236495D01*
X0255697Y0236207D01*
X0255939Y0235913D01*
X0256174Y0235614D01*
X0256401Y0235308D01*
X0256621Y0234998D01*
X0256834Y0234682D01*
X0257038Y0234361D01*
X0257235Y0234036D01*
X0257424Y0233705D01*
X0257605Y0233370D01*
X0257778Y0233031D01*
X0257942Y0232688D01*
X0258099Y0232341D01*
X0258246Y0231990D01*
X0258386Y0231636D01*
X0258516Y0231279D01*
X0258638Y0230918D01*
X0258751Y0230555D01*
X0258856Y0230189D01*
X0258951Y0229821D01*
X0259038Y0229450D01*
X0259116Y0229078D01*
X0259184Y0228703D01*
X0259244Y0228327D01*
X0259294Y0227950D01*
X0259335Y0227572D01*
X0259368Y0227193D01*
X0259391Y0226813D01*
X0259404Y0226433D01*
X0259409Y0226052D01*
X0243661Y0241800D02*
X0050748Y0241800D01*
X0044842Y0226052D02*
X0044844Y0226205D01*
X0044850Y0226359D01*
X0044860Y0226512D01*
X0044874Y0226664D01*
X0044892Y0226817D01*
X0044914Y0226968D01*
X0044939Y0227119D01*
X0044969Y0227270D01*
X0045003Y0227420D01*
X0045040Y0227568D01*
X0045081Y0227716D01*
X0045126Y0227862D01*
X0045175Y0228008D01*
X0045228Y0228152D01*
X0045284Y0228294D01*
X0045344Y0228435D01*
X0045408Y0228575D01*
X0045475Y0228713D01*
X0045546Y0228849D01*
X0045621Y0228983D01*
X0045698Y0229115D01*
X0045780Y0229245D01*
X0045864Y0229373D01*
X0045952Y0229499D01*
X0046043Y0229622D01*
X0046137Y0229743D01*
X0046235Y0229861D01*
X0046335Y0229977D01*
X0046439Y0230090D01*
X0046545Y0230201D01*
X0046654Y0230309D01*
X0046766Y0230414D01*
X0046880Y0230515D01*
X0046998Y0230614D01*
X0047117Y0230710D01*
X0047239Y0230803D01*
X0047364Y0230892D01*
X0047491Y0230979D01*
X0047620Y0231061D01*
X0047751Y0231141D01*
X0047884Y0231217D01*
X0048019Y0231290D01*
X0048156Y0231359D01*
X0048295Y0231424D01*
X0048435Y0231486D01*
X0048577Y0231544D01*
X0048720Y0231599D01*
X0048865Y0231650D01*
X0049011Y0231697D01*
X0049158Y0231740D01*
X0049306Y0231779D01*
X0049455Y0231815D01*
X0049605Y0231846D01*
X0049756Y0231874D01*
X0049907Y0231898D01*
X0050060Y0231918D01*
X0050212Y0231934D01*
X0050365Y0231946D01*
X0050518Y0231954D01*
X0050671Y0231958D01*
X0050825Y0231958D01*
X0050978Y0231954D01*
X0051131Y0231946D01*
X0051284Y0231934D01*
X0051436Y0231918D01*
X0051589Y0231898D01*
X0051740Y0231874D01*
X0051891Y0231846D01*
X0052041Y0231815D01*
X0052190Y0231779D01*
X0052338Y0231740D01*
X0052485Y0231697D01*
X0052631Y0231650D01*
X0052776Y0231599D01*
X0052919Y0231544D01*
X0053061Y0231486D01*
X0053201Y0231424D01*
X0053340Y0231359D01*
X0053477Y0231290D01*
X0053612Y0231217D01*
X0053745Y0231141D01*
X0053876Y0231061D01*
X0054005Y0230979D01*
X0054132Y0230892D01*
X0054257Y0230803D01*
X0054379Y0230710D01*
X0054498Y0230614D01*
X0054616Y0230515D01*
X0054730Y0230414D01*
X0054842Y0230309D01*
X0054951Y0230201D01*
X0055057Y0230090D01*
X0055161Y0229977D01*
X0055261Y0229861D01*
X0055359Y0229743D01*
X0055453Y0229622D01*
X0055544Y0229499D01*
X0055632Y0229373D01*
X0055716Y0229245D01*
X0055798Y0229115D01*
X0055875Y0228983D01*
X0055950Y0228849D01*
X0056021Y0228713D01*
X0056088Y0228575D01*
X0056152Y0228435D01*
X0056212Y0228294D01*
X0056268Y0228152D01*
X0056321Y0228008D01*
X0056370Y0227862D01*
X0056415Y0227716D01*
X0056456Y0227568D01*
X0056493Y0227420D01*
X0056527Y0227270D01*
X0056557Y0227119D01*
X0056582Y0226968D01*
X0056604Y0226817D01*
X0056622Y0226664D01*
X0056636Y0226512D01*
X0056646Y0226359D01*
X0056652Y0226205D01*
X0056654Y0226052D01*
X0056652Y0225899D01*
X0056646Y0225745D01*
X0056636Y0225592D01*
X0056622Y0225440D01*
X0056604Y0225287D01*
X0056582Y0225136D01*
X0056557Y0224985D01*
X0056527Y0224834D01*
X0056493Y0224684D01*
X0056456Y0224536D01*
X0056415Y0224388D01*
X0056370Y0224242D01*
X0056321Y0224096D01*
X0056268Y0223952D01*
X0056212Y0223810D01*
X0056152Y0223669D01*
X0056088Y0223529D01*
X0056021Y0223391D01*
X0055950Y0223255D01*
X0055875Y0223121D01*
X0055798Y0222989D01*
X0055716Y0222859D01*
X0055632Y0222731D01*
X0055544Y0222605D01*
X0055453Y0222482D01*
X0055359Y0222361D01*
X0055261Y0222243D01*
X0055161Y0222127D01*
X0055057Y0222014D01*
X0054951Y0221903D01*
X0054842Y0221795D01*
X0054730Y0221690D01*
X0054616Y0221589D01*
X0054498Y0221490D01*
X0054379Y0221394D01*
X0054257Y0221301D01*
X0054132Y0221212D01*
X0054005Y0221125D01*
X0053876Y0221043D01*
X0053745Y0220963D01*
X0053612Y0220887D01*
X0053477Y0220814D01*
X0053340Y0220745D01*
X0053201Y0220680D01*
X0053061Y0220618D01*
X0052919Y0220560D01*
X0052776Y0220505D01*
X0052631Y0220454D01*
X0052485Y0220407D01*
X0052338Y0220364D01*
X0052190Y0220325D01*
X0052041Y0220289D01*
X0051891Y0220258D01*
X0051740Y0220230D01*
X0051589Y0220206D01*
X0051436Y0220186D01*
X0051284Y0220170D01*
X0051131Y0220158D01*
X0050978Y0220150D01*
X0050825Y0220146D01*
X0050671Y0220146D01*
X0050518Y0220150D01*
X0050365Y0220158D01*
X0050212Y0220170D01*
X0050060Y0220186D01*
X0049907Y0220206D01*
X0049756Y0220230D01*
X0049605Y0220258D01*
X0049455Y0220289D01*
X0049306Y0220325D01*
X0049158Y0220364D01*
X0049011Y0220407D01*
X0048865Y0220454D01*
X0048720Y0220505D01*
X0048577Y0220560D01*
X0048435Y0220618D01*
X0048295Y0220680D01*
X0048156Y0220745D01*
X0048019Y0220814D01*
X0047884Y0220887D01*
X0047751Y0220963D01*
X0047620Y0221043D01*
X0047491Y0221125D01*
X0047364Y0221212D01*
X0047239Y0221301D01*
X0047117Y0221394D01*
X0046998Y0221490D01*
X0046880Y0221589D01*
X0046766Y0221690D01*
X0046654Y0221795D01*
X0046545Y0221903D01*
X0046439Y0222014D01*
X0046335Y0222127D01*
X0046235Y0222243D01*
X0046137Y0222361D01*
X0046043Y0222482D01*
X0045952Y0222605D01*
X0045864Y0222731D01*
X0045780Y0222859D01*
X0045698Y0222989D01*
X0045621Y0223121D01*
X0045546Y0223255D01*
X0045475Y0223391D01*
X0045408Y0223529D01*
X0045344Y0223669D01*
X0045284Y0223810D01*
X0045228Y0223952D01*
X0045175Y0224096D01*
X0045126Y0224242D01*
X0045081Y0224388D01*
X0045040Y0224536D01*
X0045003Y0224684D01*
X0044969Y0224834D01*
X0044939Y0224985D01*
X0044914Y0225136D01*
X0044892Y0225287D01*
X0044874Y0225440D01*
X0044860Y0225592D01*
X0044850Y0225745D01*
X0044844Y0225899D01*
X0044842Y0226052D01*
X0035000Y0226052D02*
X0035005Y0226433D01*
X0035018Y0226813D01*
X0035041Y0227193D01*
X0035074Y0227572D01*
X0035115Y0227950D01*
X0035165Y0228327D01*
X0035225Y0228703D01*
X0035293Y0229078D01*
X0035371Y0229450D01*
X0035458Y0229821D01*
X0035553Y0230189D01*
X0035658Y0230555D01*
X0035771Y0230918D01*
X0035893Y0231279D01*
X0036023Y0231636D01*
X0036163Y0231990D01*
X0036310Y0232341D01*
X0036467Y0232688D01*
X0036631Y0233031D01*
X0036804Y0233370D01*
X0036985Y0233705D01*
X0037174Y0234036D01*
X0037371Y0234361D01*
X0037575Y0234682D01*
X0037788Y0234998D01*
X0038008Y0235308D01*
X0038235Y0235614D01*
X0038470Y0235913D01*
X0038712Y0236207D01*
X0038960Y0236495D01*
X0039216Y0236777D01*
X0039479Y0237052D01*
X0039748Y0237321D01*
X0040023Y0237584D01*
X0040305Y0237840D01*
X0040593Y0238088D01*
X0040887Y0238330D01*
X0041186Y0238565D01*
X0041492Y0238792D01*
X0041802Y0239012D01*
X0042118Y0239225D01*
X0042439Y0239429D01*
X0042764Y0239626D01*
X0043095Y0239815D01*
X0043430Y0239996D01*
X0043769Y0240169D01*
X0044112Y0240333D01*
X0044459Y0240490D01*
X0044810Y0240637D01*
X0045164Y0240777D01*
X0045521Y0240907D01*
X0045882Y0241029D01*
X0046245Y0241142D01*
X0046611Y0241247D01*
X0046979Y0241342D01*
X0047350Y0241429D01*
X0047722Y0241507D01*
X0048097Y0241575D01*
X0048473Y0241635D01*
X0048850Y0241685D01*
X0049228Y0241726D01*
X0049607Y0241759D01*
X0049987Y0241782D01*
X0050367Y0241795D01*
X0050748Y0241800D01*
X0035000Y0226052D02*
X0035000Y0096131D01*
X0044842Y0096131D02*
X0044844Y0096284D01*
X0044850Y0096438D01*
X0044860Y0096591D01*
X0044874Y0096743D01*
X0044892Y0096896D01*
X0044914Y0097047D01*
X0044939Y0097198D01*
X0044969Y0097349D01*
X0045003Y0097499D01*
X0045040Y0097647D01*
X0045081Y0097795D01*
X0045126Y0097941D01*
X0045175Y0098087D01*
X0045228Y0098231D01*
X0045284Y0098373D01*
X0045344Y0098514D01*
X0045408Y0098654D01*
X0045475Y0098792D01*
X0045546Y0098928D01*
X0045621Y0099062D01*
X0045698Y0099194D01*
X0045780Y0099324D01*
X0045864Y0099452D01*
X0045952Y0099578D01*
X0046043Y0099701D01*
X0046137Y0099822D01*
X0046235Y0099940D01*
X0046335Y0100056D01*
X0046439Y0100169D01*
X0046545Y0100280D01*
X0046654Y0100388D01*
X0046766Y0100493D01*
X0046880Y0100594D01*
X0046998Y0100693D01*
X0047117Y0100789D01*
X0047239Y0100882D01*
X0047364Y0100971D01*
X0047491Y0101058D01*
X0047620Y0101140D01*
X0047751Y0101220D01*
X0047884Y0101296D01*
X0048019Y0101369D01*
X0048156Y0101438D01*
X0048295Y0101503D01*
X0048435Y0101565D01*
X0048577Y0101623D01*
X0048720Y0101678D01*
X0048865Y0101729D01*
X0049011Y0101776D01*
X0049158Y0101819D01*
X0049306Y0101858D01*
X0049455Y0101894D01*
X0049605Y0101925D01*
X0049756Y0101953D01*
X0049907Y0101977D01*
X0050060Y0101997D01*
X0050212Y0102013D01*
X0050365Y0102025D01*
X0050518Y0102033D01*
X0050671Y0102037D01*
X0050825Y0102037D01*
X0050978Y0102033D01*
X0051131Y0102025D01*
X0051284Y0102013D01*
X0051436Y0101997D01*
X0051589Y0101977D01*
X0051740Y0101953D01*
X0051891Y0101925D01*
X0052041Y0101894D01*
X0052190Y0101858D01*
X0052338Y0101819D01*
X0052485Y0101776D01*
X0052631Y0101729D01*
X0052776Y0101678D01*
X0052919Y0101623D01*
X0053061Y0101565D01*
X0053201Y0101503D01*
X0053340Y0101438D01*
X0053477Y0101369D01*
X0053612Y0101296D01*
X0053745Y0101220D01*
X0053876Y0101140D01*
X0054005Y0101058D01*
X0054132Y0100971D01*
X0054257Y0100882D01*
X0054379Y0100789D01*
X0054498Y0100693D01*
X0054616Y0100594D01*
X0054730Y0100493D01*
X0054842Y0100388D01*
X0054951Y0100280D01*
X0055057Y0100169D01*
X0055161Y0100056D01*
X0055261Y0099940D01*
X0055359Y0099822D01*
X0055453Y0099701D01*
X0055544Y0099578D01*
X0055632Y0099452D01*
X0055716Y0099324D01*
X0055798Y0099194D01*
X0055875Y0099062D01*
X0055950Y0098928D01*
X0056021Y0098792D01*
X0056088Y0098654D01*
X0056152Y0098514D01*
X0056212Y0098373D01*
X0056268Y0098231D01*
X0056321Y0098087D01*
X0056370Y0097941D01*
X0056415Y0097795D01*
X0056456Y0097647D01*
X0056493Y0097499D01*
X0056527Y0097349D01*
X0056557Y0097198D01*
X0056582Y0097047D01*
X0056604Y0096896D01*
X0056622Y0096743D01*
X0056636Y0096591D01*
X0056646Y0096438D01*
X0056652Y0096284D01*
X0056654Y0096131D01*
X0056652Y0095978D01*
X0056646Y0095824D01*
X0056636Y0095671D01*
X0056622Y0095519D01*
X0056604Y0095366D01*
X0056582Y0095215D01*
X0056557Y0095064D01*
X0056527Y0094913D01*
X0056493Y0094763D01*
X0056456Y0094615D01*
X0056415Y0094467D01*
X0056370Y0094321D01*
X0056321Y0094175D01*
X0056268Y0094031D01*
X0056212Y0093889D01*
X0056152Y0093748D01*
X0056088Y0093608D01*
X0056021Y0093470D01*
X0055950Y0093334D01*
X0055875Y0093200D01*
X0055798Y0093068D01*
X0055716Y0092938D01*
X0055632Y0092810D01*
X0055544Y0092684D01*
X0055453Y0092561D01*
X0055359Y0092440D01*
X0055261Y0092322D01*
X0055161Y0092206D01*
X0055057Y0092093D01*
X0054951Y0091982D01*
X0054842Y0091874D01*
X0054730Y0091769D01*
X0054616Y0091668D01*
X0054498Y0091569D01*
X0054379Y0091473D01*
X0054257Y0091380D01*
X0054132Y0091291D01*
X0054005Y0091204D01*
X0053876Y0091122D01*
X0053745Y0091042D01*
X0053612Y0090966D01*
X0053477Y0090893D01*
X0053340Y0090824D01*
X0053201Y0090759D01*
X0053061Y0090697D01*
X0052919Y0090639D01*
X0052776Y0090584D01*
X0052631Y0090533D01*
X0052485Y0090486D01*
X0052338Y0090443D01*
X0052190Y0090404D01*
X0052041Y0090368D01*
X0051891Y0090337D01*
X0051740Y0090309D01*
X0051589Y0090285D01*
X0051436Y0090265D01*
X0051284Y0090249D01*
X0051131Y0090237D01*
X0050978Y0090229D01*
X0050825Y0090225D01*
X0050671Y0090225D01*
X0050518Y0090229D01*
X0050365Y0090237D01*
X0050212Y0090249D01*
X0050060Y0090265D01*
X0049907Y0090285D01*
X0049756Y0090309D01*
X0049605Y0090337D01*
X0049455Y0090368D01*
X0049306Y0090404D01*
X0049158Y0090443D01*
X0049011Y0090486D01*
X0048865Y0090533D01*
X0048720Y0090584D01*
X0048577Y0090639D01*
X0048435Y0090697D01*
X0048295Y0090759D01*
X0048156Y0090824D01*
X0048019Y0090893D01*
X0047884Y0090966D01*
X0047751Y0091042D01*
X0047620Y0091122D01*
X0047491Y0091204D01*
X0047364Y0091291D01*
X0047239Y0091380D01*
X0047117Y0091473D01*
X0046998Y0091569D01*
X0046880Y0091668D01*
X0046766Y0091769D01*
X0046654Y0091874D01*
X0046545Y0091982D01*
X0046439Y0092093D01*
X0046335Y0092206D01*
X0046235Y0092322D01*
X0046137Y0092440D01*
X0046043Y0092561D01*
X0045952Y0092684D01*
X0045864Y0092810D01*
X0045780Y0092938D01*
X0045698Y0093068D01*
X0045621Y0093200D01*
X0045546Y0093334D01*
X0045475Y0093470D01*
X0045408Y0093608D01*
X0045344Y0093748D01*
X0045284Y0093889D01*
X0045228Y0094031D01*
X0045175Y0094175D01*
X0045126Y0094321D01*
X0045081Y0094467D01*
X0045040Y0094615D01*
X0045003Y0094763D01*
X0044969Y0094913D01*
X0044939Y0095064D01*
X0044914Y0095215D01*
X0044892Y0095366D01*
X0044874Y0095519D01*
X0044860Y0095671D01*
X0044850Y0095824D01*
X0044844Y0095978D01*
X0044842Y0096131D01*
X0035000Y0096131D02*
X0035005Y0095750D01*
X0035018Y0095370D01*
X0035041Y0094990D01*
X0035074Y0094611D01*
X0035115Y0094233D01*
X0035165Y0093856D01*
X0035225Y0093480D01*
X0035293Y0093105D01*
X0035371Y0092733D01*
X0035458Y0092362D01*
X0035553Y0091994D01*
X0035658Y0091628D01*
X0035771Y0091265D01*
X0035893Y0090904D01*
X0036023Y0090547D01*
X0036163Y0090193D01*
X0036310Y0089842D01*
X0036467Y0089495D01*
X0036631Y0089152D01*
X0036804Y0088813D01*
X0036985Y0088478D01*
X0037174Y0088147D01*
X0037371Y0087822D01*
X0037575Y0087501D01*
X0037788Y0087185D01*
X0038008Y0086875D01*
X0038235Y0086569D01*
X0038470Y0086270D01*
X0038712Y0085976D01*
X0038960Y0085688D01*
X0039216Y0085406D01*
X0039479Y0085131D01*
X0039748Y0084862D01*
X0040023Y0084599D01*
X0040305Y0084343D01*
X0040593Y0084095D01*
X0040887Y0083853D01*
X0041186Y0083618D01*
X0041492Y0083391D01*
X0041802Y0083171D01*
X0042118Y0082958D01*
X0042439Y0082754D01*
X0042764Y0082557D01*
X0043095Y0082368D01*
X0043430Y0082187D01*
X0043769Y0082014D01*
X0044112Y0081850D01*
X0044459Y0081693D01*
X0044810Y0081546D01*
X0045164Y0081406D01*
X0045521Y0081276D01*
X0045882Y0081154D01*
X0046245Y0081041D01*
X0046611Y0080936D01*
X0046979Y0080841D01*
X0047350Y0080754D01*
X0047722Y0080676D01*
X0048097Y0080608D01*
X0048473Y0080548D01*
X0048850Y0080498D01*
X0049228Y0080457D01*
X0049607Y0080424D01*
X0049987Y0080401D01*
X0050367Y0080388D01*
X0050748Y0080383D01*
X0210130Y0138594D02*
X0210132Y0138755D01*
X0210138Y0138915D01*
X0210148Y0139076D01*
X0210162Y0139236D01*
X0210180Y0139395D01*
X0210201Y0139555D01*
X0210227Y0139713D01*
X0210257Y0139871D01*
X0210290Y0140028D01*
X0210328Y0140185D01*
X0210369Y0140340D01*
X0210414Y0140494D01*
X0210463Y0140647D01*
X0210516Y0140799D01*
X0210572Y0140949D01*
X0210632Y0141098D01*
X0210696Y0141246D01*
X0210763Y0141392D01*
X0210834Y0141536D01*
X0210909Y0141678D01*
X0210987Y0141819D01*
X0211068Y0141957D01*
X0211153Y0142094D01*
X0211242Y0142228D01*
X0211333Y0142360D01*
X0211428Y0142490D01*
X0211526Y0142617D01*
X0211627Y0142742D01*
X0211731Y0142865D01*
X0211838Y0142984D01*
X0211948Y0143101D01*
X0212061Y0143216D01*
X0212177Y0143327D01*
X0212295Y0143436D01*
X0212416Y0143541D01*
X0212540Y0143644D01*
X0212666Y0143744D01*
X0212795Y0143840D01*
X0212926Y0143933D01*
X0213059Y0144023D01*
X0213194Y0144110D01*
X0213332Y0144193D01*
X0213471Y0144272D01*
X0213613Y0144349D01*
X0213756Y0144422D01*
X0213901Y0144491D01*
X0214048Y0144556D01*
X0214196Y0144618D01*
X0214346Y0144677D01*
X0214497Y0144731D01*
X0214649Y0144782D01*
X0214803Y0144829D01*
X0214958Y0144872D01*
X0215113Y0144911D01*
X0215270Y0144947D01*
X0215428Y0144979D01*
X0215586Y0145006D01*
X0215745Y0145030D01*
X0215904Y0145050D01*
X0216064Y0145066D01*
X0216225Y0145078D01*
X0216385Y0145086D01*
X0216546Y0145090D01*
X0216706Y0145090D01*
X0216867Y0145086D01*
X0217027Y0145078D01*
X0217188Y0145066D01*
X0217348Y0145050D01*
X0217507Y0145030D01*
X0217666Y0145006D01*
X0217824Y0144979D01*
X0217982Y0144947D01*
X0218139Y0144911D01*
X0218294Y0144872D01*
X0218449Y0144829D01*
X0218603Y0144782D01*
X0218755Y0144731D01*
X0218906Y0144677D01*
X0219056Y0144618D01*
X0219204Y0144556D01*
X0219351Y0144491D01*
X0219496Y0144422D01*
X0219639Y0144349D01*
X0219781Y0144272D01*
X0219920Y0144193D01*
X0220058Y0144110D01*
X0220193Y0144023D01*
X0220326Y0143933D01*
X0220457Y0143840D01*
X0220586Y0143744D01*
X0220712Y0143644D01*
X0220836Y0143541D01*
X0220957Y0143436D01*
X0221075Y0143327D01*
X0221191Y0143216D01*
X0221304Y0143101D01*
X0221414Y0142984D01*
X0221521Y0142865D01*
X0221625Y0142742D01*
X0221726Y0142617D01*
X0221824Y0142490D01*
X0221919Y0142360D01*
X0222010Y0142228D01*
X0222099Y0142094D01*
X0222184Y0141957D01*
X0222265Y0141819D01*
X0222343Y0141678D01*
X0222418Y0141536D01*
X0222489Y0141392D01*
X0222556Y0141246D01*
X0222620Y0141098D01*
X0222680Y0140949D01*
X0222736Y0140799D01*
X0222789Y0140647D01*
X0222838Y0140494D01*
X0222883Y0140340D01*
X0222924Y0140185D01*
X0222962Y0140028D01*
X0222995Y0139871D01*
X0223025Y0139713D01*
X0223051Y0139555D01*
X0223072Y0139395D01*
X0223090Y0139236D01*
X0223104Y0139076D01*
X0223114Y0138915D01*
X0223120Y0138755D01*
X0223122Y0138594D01*
X0223120Y0138433D01*
X0223114Y0138273D01*
X0223104Y0138112D01*
X0223090Y0137952D01*
X0223072Y0137793D01*
X0223051Y0137633D01*
X0223025Y0137475D01*
X0222995Y0137317D01*
X0222962Y0137160D01*
X0222924Y0137003D01*
X0222883Y0136848D01*
X0222838Y0136694D01*
X0222789Y0136541D01*
X0222736Y0136389D01*
X0222680Y0136239D01*
X0222620Y0136090D01*
X0222556Y0135942D01*
X0222489Y0135796D01*
X0222418Y0135652D01*
X0222343Y0135510D01*
X0222265Y0135369D01*
X0222184Y0135231D01*
X0222099Y0135094D01*
X0222010Y0134960D01*
X0221919Y0134828D01*
X0221824Y0134698D01*
X0221726Y0134571D01*
X0221625Y0134446D01*
X0221521Y0134323D01*
X0221414Y0134204D01*
X0221304Y0134087D01*
X0221191Y0133972D01*
X0221075Y0133861D01*
X0220957Y0133752D01*
X0220836Y0133647D01*
X0220712Y0133544D01*
X0220586Y0133444D01*
X0220457Y0133348D01*
X0220326Y0133255D01*
X0220193Y0133165D01*
X0220058Y0133078D01*
X0219920Y0132995D01*
X0219781Y0132916D01*
X0219639Y0132839D01*
X0219496Y0132766D01*
X0219351Y0132697D01*
X0219204Y0132632D01*
X0219056Y0132570D01*
X0218906Y0132511D01*
X0218755Y0132457D01*
X0218603Y0132406D01*
X0218449Y0132359D01*
X0218294Y0132316D01*
X0218139Y0132277D01*
X0217982Y0132241D01*
X0217824Y0132209D01*
X0217666Y0132182D01*
X0217507Y0132158D01*
X0217348Y0132138D01*
X0217188Y0132122D01*
X0217027Y0132110D01*
X0216867Y0132102D01*
X0216706Y0132098D01*
X0216546Y0132098D01*
X0216385Y0132102D01*
X0216225Y0132110D01*
X0216064Y0132122D01*
X0215904Y0132138D01*
X0215745Y0132158D01*
X0215586Y0132182D01*
X0215428Y0132209D01*
X0215270Y0132241D01*
X0215113Y0132277D01*
X0214958Y0132316D01*
X0214803Y0132359D01*
X0214649Y0132406D01*
X0214497Y0132457D01*
X0214346Y0132511D01*
X0214196Y0132570D01*
X0214048Y0132632D01*
X0213901Y0132697D01*
X0213756Y0132766D01*
X0213613Y0132839D01*
X0213471Y0132916D01*
X0213332Y0132995D01*
X0213194Y0133078D01*
X0213059Y0133165D01*
X0212926Y0133255D01*
X0212795Y0133348D01*
X0212666Y0133444D01*
X0212540Y0133544D01*
X0212416Y0133647D01*
X0212295Y0133752D01*
X0212177Y0133861D01*
X0212061Y0133972D01*
X0211948Y0134087D01*
X0211838Y0134204D01*
X0211731Y0134323D01*
X0211627Y0134446D01*
X0211526Y0134571D01*
X0211428Y0134698D01*
X0211333Y0134828D01*
X0211242Y0134960D01*
X0211153Y0135094D01*
X0211068Y0135231D01*
X0210987Y0135369D01*
X0210909Y0135510D01*
X0210834Y0135652D01*
X0210763Y0135796D01*
X0210696Y0135942D01*
X0210632Y0136090D01*
X0210572Y0136239D01*
X0210516Y0136389D01*
X0210463Y0136541D01*
X0210414Y0136694D01*
X0210369Y0136848D01*
X0210328Y0137003D01*
X0210290Y0137160D01*
X0210257Y0137317D01*
X0210227Y0137475D01*
X0210201Y0137633D01*
X0210180Y0137793D01*
X0210162Y0137952D01*
X0210148Y0138112D01*
X0210138Y0138273D01*
X0210132Y0138433D01*
X0210130Y0138594D01*
X0210130Y0183594D02*
X0210132Y0183755D01*
X0210138Y0183915D01*
X0210148Y0184076D01*
X0210162Y0184236D01*
X0210180Y0184395D01*
X0210201Y0184555D01*
X0210227Y0184713D01*
X0210257Y0184871D01*
X0210290Y0185028D01*
X0210328Y0185185D01*
X0210369Y0185340D01*
X0210414Y0185494D01*
X0210463Y0185647D01*
X0210516Y0185799D01*
X0210572Y0185949D01*
X0210632Y0186098D01*
X0210696Y0186246D01*
X0210763Y0186392D01*
X0210834Y0186536D01*
X0210909Y0186678D01*
X0210987Y0186819D01*
X0211068Y0186957D01*
X0211153Y0187094D01*
X0211242Y0187228D01*
X0211333Y0187360D01*
X0211428Y0187490D01*
X0211526Y0187617D01*
X0211627Y0187742D01*
X0211731Y0187865D01*
X0211838Y0187984D01*
X0211948Y0188101D01*
X0212061Y0188216D01*
X0212177Y0188327D01*
X0212295Y0188436D01*
X0212416Y0188541D01*
X0212540Y0188644D01*
X0212666Y0188744D01*
X0212795Y0188840D01*
X0212926Y0188933D01*
X0213059Y0189023D01*
X0213194Y0189110D01*
X0213332Y0189193D01*
X0213471Y0189272D01*
X0213613Y0189349D01*
X0213756Y0189422D01*
X0213901Y0189491D01*
X0214048Y0189556D01*
X0214196Y0189618D01*
X0214346Y0189677D01*
X0214497Y0189731D01*
X0214649Y0189782D01*
X0214803Y0189829D01*
X0214958Y0189872D01*
X0215113Y0189911D01*
X0215270Y0189947D01*
X0215428Y0189979D01*
X0215586Y0190006D01*
X0215745Y0190030D01*
X0215904Y0190050D01*
X0216064Y0190066D01*
X0216225Y0190078D01*
X0216385Y0190086D01*
X0216546Y0190090D01*
X0216706Y0190090D01*
X0216867Y0190086D01*
X0217027Y0190078D01*
X0217188Y0190066D01*
X0217348Y0190050D01*
X0217507Y0190030D01*
X0217666Y0190006D01*
X0217824Y0189979D01*
X0217982Y0189947D01*
X0218139Y0189911D01*
X0218294Y0189872D01*
X0218449Y0189829D01*
X0218603Y0189782D01*
X0218755Y0189731D01*
X0218906Y0189677D01*
X0219056Y0189618D01*
X0219204Y0189556D01*
X0219351Y0189491D01*
X0219496Y0189422D01*
X0219639Y0189349D01*
X0219781Y0189272D01*
X0219920Y0189193D01*
X0220058Y0189110D01*
X0220193Y0189023D01*
X0220326Y0188933D01*
X0220457Y0188840D01*
X0220586Y0188744D01*
X0220712Y0188644D01*
X0220836Y0188541D01*
X0220957Y0188436D01*
X0221075Y0188327D01*
X0221191Y0188216D01*
X0221304Y0188101D01*
X0221414Y0187984D01*
X0221521Y0187865D01*
X0221625Y0187742D01*
X0221726Y0187617D01*
X0221824Y0187490D01*
X0221919Y0187360D01*
X0222010Y0187228D01*
X0222099Y0187094D01*
X0222184Y0186957D01*
X0222265Y0186819D01*
X0222343Y0186678D01*
X0222418Y0186536D01*
X0222489Y0186392D01*
X0222556Y0186246D01*
X0222620Y0186098D01*
X0222680Y0185949D01*
X0222736Y0185799D01*
X0222789Y0185647D01*
X0222838Y0185494D01*
X0222883Y0185340D01*
X0222924Y0185185D01*
X0222962Y0185028D01*
X0222995Y0184871D01*
X0223025Y0184713D01*
X0223051Y0184555D01*
X0223072Y0184395D01*
X0223090Y0184236D01*
X0223104Y0184076D01*
X0223114Y0183915D01*
X0223120Y0183755D01*
X0223122Y0183594D01*
X0223120Y0183433D01*
X0223114Y0183273D01*
X0223104Y0183112D01*
X0223090Y0182952D01*
X0223072Y0182793D01*
X0223051Y0182633D01*
X0223025Y0182475D01*
X0222995Y0182317D01*
X0222962Y0182160D01*
X0222924Y0182003D01*
X0222883Y0181848D01*
X0222838Y0181694D01*
X0222789Y0181541D01*
X0222736Y0181389D01*
X0222680Y0181239D01*
X0222620Y0181090D01*
X0222556Y0180942D01*
X0222489Y0180796D01*
X0222418Y0180652D01*
X0222343Y0180510D01*
X0222265Y0180369D01*
X0222184Y0180231D01*
X0222099Y0180094D01*
X0222010Y0179960D01*
X0221919Y0179828D01*
X0221824Y0179698D01*
X0221726Y0179571D01*
X0221625Y0179446D01*
X0221521Y0179323D01*
X0221414Y0179204D01*
X0221304Y0179087D01*
X0221191Y0178972D01*
X0221075Y0178861D01*
X0220957Y0178752D01*
X0220836Y0178647D01*
X0220712Y0178544D01*
X0220586Y0178444D01*
X0220457Y0178348D01*
X0220326Y0178255D01*
X0220193Y0178165D01*
X0220058Y0178078D01*
X0219920Y0177995D01*
X0219781Y0177916D01*
X0219639Y0177839D01*
X0219496Y0177766D01*
X0219351Y0177697D01*
X0219204Y0177632D01*
X0219056Y0177570D01*
X0218906Y0177511D01*
X0218755Y0177457D01*
X0218603Y0177406D01*
X0218449Y0177359D01*
X0218294Y0177316D01*
X0218139Y0177277D01*
X0217982Y0177241D01*
X0217824Y0177209D01*
X0217666Y0177182D01*
X0217507Y0177158D01*
X0217348Y0177138D01*
X0217188Y0177122D01*
X0217027Y0177110D01*
X0216867Y0177102D01*
X0216706Y0177098D01*
X0216546Y0177098D01*
X0216385Y0177102D01*
X0216225Y0177110D01*
X0216064Y0177122D01*
X0215904Y0177138D01*
X0215745Y0177158D01*
X0215586Y0177182D01*
X0215428Y0177209D01*
X0215270Y0177241D01*
X0215113Y0177277D01*
X0214958Y0177316D01*
X0214803Y0177359D01*
X0214649Y0177406D01*
X0214497Y0177457D01*
X0214346Y0177511D01*
X0214196Y0177570D01*
X0214048Y0177632D01*
X0213901Y0177697D01*
X0213756Y0177766D01*
X0213613Y0177839D01*
X0213471Y0177916D01*
X0213332Y0177995D01*
X0213194Y0178078D01*
X0213059Y0178165D01*
X0212926Y0178255D01*
X0212795Y0178348D01*
X0212666Y0178444D01*
X0212540Y0178544D01*
X0212416Y0178647D01*
X0212295Y0178752D01*
X0212177Y0178861D01*
X0212061Y0178972D01*
X0211948Y0179087D01*
X0211838Y0179204D01*
X0211731Y0179323D01*
X0211627Y0179446D01*
X0211526Y0179571D01*
X0211428Y0179698D01*
X0211333Y0179828D01*
X0211242Y0179960D01*
X0211153Y0180094D01*
X0211068Y0180231D01*
X0210987Y0180369D01*
X0210909Y0180510D01*
X0210834Y0180652D01*
X0210763Y0180796D01*
X0210696Y0180942D01*
X0210632Y0181090D01*
X0210572Y0181239D01*
X0210516Y0181389D01*
X0210463Y0181541D01*
X0210414Y0181694D01*
X0210369Y0181848D01*
X0210328Y0182003D01*
X0210290Y0182160D01*
X0210257Y0182317D01*
X0210227Y0182475D01*
X0210201Y0182633D01*
X0210180Y0182793D01*
X0210162Y0182952D01*
X0210148Y0183112D01*
X0210138Y0183273D01*
X0210132Y0183433D01*
X0210130Y0183594D01*
D11*
X0191626Y0178594D03*
X0191626Y0168594D03*
X0191626Y0158594D03*
X0191626Y0148594D03*
X0181626Y0143594D03*
X0181626Y0153594D03*
X0181626Y0163594D03*
X0181626Y0173594D03*
X0229926Y0175998D03*
X0235912Y0185991D03*
X0235910Y0146195D03*
X0229928Y0136188D03*
D12*
X0204618Y0130091D03*
X0204618Y0192098D03*
D13*
X0216626Y0183594D03*
X0216626Y0138594D03*
D14*
X0215776Y0114611D03*
X0222469Y0114611D03*
X0169969Y0138611D03*
X0163276Y0138611D03*
X0163276Y0150611D03*
X0169969Y0150611D03*
X0169969Y0158611D03*
X0163276Y0158611D03*
X0163276Y0170611D03*
X0169969Y0170611D03*
X0219276Y0208611D03*
X0225969Y0208611D03*
X0114969Y0171111D03*
X0108276Y0171111D03*
X0112122Y0185702D03*
X0112122Y0192394D03*
X0114122Y0151957D03*
X0114122Y0145265D03*
D15*
X0148122Y0178265D03*
X0148122Y0184957D03*
X0163276Y0179611D03*
X0169969Y0179611D03*
X0169969Y0129111D03*
X0163276Y0129111D03*
D16*
X0205122Y0158599D03*
X0205122Y0169623D03*
D17*
X0142480Y0172691D03*
X0140512Y0172691D03*
X0138543Y0172691D03*
X0136575Y0172691D03*
X0134606Y0172691D03*
X0132638Y0172691D03*
X0130669Y0172691D03*
X0128701Y0172691D03*
X0126732Y0172691D03*
X0124764Y0172691D03*
X0124764Y0149491D03*
X0126732Y0149491D03*
X0128701Y0149491D03*
X0130669Y0149491D03*
X0132638Y0149491D03*
X0134606Y0149491D03*
X0136575Y0149491D03*
X0138543Y0149491D03*
X0140512Y0149491D03*
X0142480Y0149491D03*
D18*
X0145222Y0152233D03*
X0145222Y0154202D03*
X0145222Y0156170D03*
X0145222Y0158139D03*
X0145222Y0160107D03*
X0145222Y0162076D03*
X0145222Y0164044D03*
X0145222Y0166013D03*
X0145222Y0167981D03*
X0145222Y0169950D03*
X0122022Y0169950D03*
X0122022Y0167981D03*
X0122022Y0166013D03*
X0122022Y0164044D03*
X0122022Y0162076D03*
X0122022Y0160107D03*
X0122022Y0158139D03*
X0122022Y0156170D03*
X0122022Y0154202D03*
X0122022Y0152233D03*
D19*
X0133622Y0161091D03*
D20*
X0125870Y0184914D03*
X0119374Y0184914D03*
X0119374Y0193182D03*
X0125870Y0193182D03*
D21*
X0070433Y0226052D03*
X0070433Y0096131D03*
X0223976Y0096131D03*
X0223976Y0226052D03*
D22*
X0243661Y0226052D03*
X0243661Y0096131D03*
X0050748Y0096131D03*
X0050748Y0226052D03*
D23*
X0052000Y0166091D02*
X0058000Y0166091D01*
X0058000Y0156091D02*
X0052000Y0156091D01*
X0122205Y0103068D02*
X0122205Y0097068D01*
X0132205Y0097068D02*
X0132205Y0103068D01*
X0142205Y0103068D02*
X0142205Y0097068D01*
X0152205Y0097068D02*
X0152205Y0103068D01*
X0162205Y0103068D02*
X0162205Y0097068D01*
X0172205Y0097068D02*
X0172205Y0103068D01*
X0172205Y0219115D02*
X0172205Y0225115D01*
X0162205Y0225115D02*
X0162205Y0219115D01*
X0152205Y0219115D02*
X0152205Y0225115D01*
X0142205Y0225115D02*
X0142205Y0219115D01*
X0132205Y0219115D02*
X0132205Y0225115D01*
X0122205Y0225115D02*
X0122205Y0219115D01*
D24*
X0074063Y0169835D03*
X0074063Y0152513D03*
D25*
X0074063Y0143568D03*
X0097992Y0166997D03*
X0103122Y0171111D03*
X0128122Y0167611D03*
X0133622Y0167611D03*
X0139122Y0167611D03*
X0139122Y0161111D03*
X0133622Y0161111D03*
X0128122Y0161111D03*
X0128122Y0154611D03*
X0133622Y0154611D03*
X0139122Y0154611D03*
X0124622Y0145611D03*
X0114122Y0140611D03*
X0107122Y0142548D03*
X0131622Y0178111D03*
X0131122Y0184611D03*
X0125922Y0198048D03*
X0119322Y0198048D03*
X0112122Y0198048D03*
X0108740Y0202867D03*
X0152622Y0175611D03*
X0151622Y0169111D03*
X0159122Y0170611D03*
X0159122Y0179611D03*
X0159122Y0158611D03*
X0159122Y0150611D03*
X0159122Y0138611D03*
X0159122Y0129111D03*
X0205122Y0178111D03*
X0214622Y0208611D03*
X0210622Y0114611D03*
M02*
