G75*
%MOIN*%
%OFA0B0*%
%FSLAX25Y25*%
%IPPOS*%
%LPD*%
%AMOC8*
5,1,8,0,0,1.08239X$1,22.5*
%
%ADD10R,0.02520X0.04016*%
%ADD11R,0.04331X0.03937*%
%ADD12R,0.03937X0.04331*%
%ADD13R,0.04724X0.07874*%
%ADD14R,0.15000X0.15000*%
%ADD15R,0.17000X0.17000*%
%ADD16C,0.02756*%
%ADD17C,0.07480*%
%ADD18C,0.11811*%
%ADD19C,0.06000*%
%ADD20R,0.03346X0.01378*%
%ADD21R,0.03500X0.03100*%
%ADD22C,0.02953*%
D10*
X0211915Y0114860D03*
X0216954Y0114860D03*
D11*
X0217742Y0123214D03*
X0211049Y0123214D03*
X0220183Y0098198D03*
X0226876Y0098198D03*
X0258100Y0096446D03*
X0258100Y0089754D03*
X0261954Y0109002D03*
X0268647Y0109002D03*
X0267954Y0132502D03*
X0274647Y0132502D03*
X0361915Y0160754D03*
X0371915Y0160754D03*
X0381915Y0160754D03*
X0391915Y0160754D03*
X0391915Y0167446D03*
X0381915Y0167446D03*
X0371915Y0167446D03*
X0361915Y0167446D03*
X0205446Y0081600D03*
X0198754Y0081600D03*
X0116915Y0074946D03*
X0106915Y0074946D03*
X0096915Y0074946D03*
X0096915Y0068254D03*
X0106915Y0068254D03*
X0116915Y0068254D03*
D12*
X0191254Y0066600D03*
X0197946Y0066600D03*
X0206254Y0066600D03*
X0212946Y0066600D03*
X0248317Y0086868D03*
X0248317Y0093561D03*
X0264254Y0099100D03*
X0270946Y0099100D03*
X0323254Y0097600D03*
X0329946Y0097600D03*
X0329946Y0089100D03*
X0323254Y0089100D03*
X0323254Y0106100D03*
X0329946Y0106100D03*
X0329946Y0114600D03*
X0323254Y0114600D03*
X0323254Y0123100D03*
X0329946Y0123100D03*
X0329946Y0131600D03*
X0323254Y0131600D03*
X0249513Y0141639D03*
X0249513Y0148332D03*
X0226513Y0147332D03*
X0226513Y0140639D03*
D13*
X0240513Y0120498D03*
X0240513Y0109474D03*
D14*
X0378600Y0078809D03*
X0378600Y0141309D03*
D15*
X0378600Y0109809D03*
D16*
X0072411Y0109726D03*
X0072411Y0125474D03*
D17*
X0062600Y0097175D03*
X0062600Y0069025D03*
D18*
X0143529Y0052348D03*
X0336443Y0052348D03*
X0336443Y0182269D03*
X0143529Y0182269D03*
D19*
X0096600Y0059600D02*
X0096600Y0053600D01*
X0106600Y0053600D02*
X0106600Y0059600D01*
X0116600Y0059600D02*
X0116600Y0053600D01*
X0166600Y0053600D02*
X0166600Y0059600D01*
X0176600Y0059600D02*
X0176600Y0053600D01*
X0186600Y0053600D02*
X0186600Y0059600D01*
X0196600Y0059600D02*
X0196600Y0053600D01*
X0206600Y0053600D02*
X0206600Y0059600D01*
X0216600Y0059600D02*
X0216600Y0053600D01*
X0226600Y0053600D02*
X0226600Y0059600D01*
X0236600Y0059600D02*
X0236600Y0053600D01*
X0246600Y0053600D02*
X0246600Y0059600D01*
X0256600Y0059600D02*
X0256600Y0053600D01*
X0266600Y0053600D02*
X0266600Y0059600D01*
X0276600Y0059600D02*
X0276600Y0053600D01*
X0286600Y0053600D02*
X0286600Y0059600D01*
X0296600Y0059600D02*
X0296600Y0053600D01*
X0306600Y0053600D02*
X0306600Y0059600D01*
X0316600Y0059600D02*
X0316600Y0053600D01*
X0356600Y0053600D02*
X0356600Y0059600D01*
X0366600Y0059600D02*
X0366600Y0053600D01*
X0376915Y0053600D02*
X0376915Y0059600D01*
X0386915Y0059600D02*
X0386915Y0053600D01*
X0396915Y0053600D02*
X0396915Y0059600D01*
X0391600Y0173600D02*
X0391600Y0179600D01*
X0381600Y0179600D02*
X0381600Y0173600D01*
X0371600Y0173600D02*
X0371600Y0179600D01*
X0361600Y0179600D02*
X0361600Y0173600D01*
X0316600Y0173600D02*
X0316600Y0179600D01*
X0306600Y0179600D02*
X0306600Y0173600D01*
X0296600Y0173600D02*
X0296600Y0179600D01*
X0286600Y0179600D02*
X0286600Y0173600D01*
X0276600Y0173600D02*
X0276600Y0179600D01*
X0266600Y0179600D02*
X0266600Y0173600D01*
X0256600Y0173600D02*
X0256600Y0179600D01*
X0246600Y0179600D02*
X0246600Y0173600D01*
X0236600Y0173600D02*
X0236600Y0179600D01*
X0226600Y0179600D02*
X0226600Y0173600D01*
X0216600Y0173600D02*
X0216600Y0179600D01*
X0206600Y0179600D02*
X0206600Y0173600D01*
X0196600Y0173600D02*
X0196600Y0179600D01*
X0186600Y0179600D02*
X0186600Y0173600D01*
X0176600Y0173600D02*
X0176600Y0179600D01*
X0166600Y0179600D02*
X0166600Y0173600D01*
X0116600Y0173600D02*
X0116600Y0179600D01*
X0106600Y0179600D02*
X0106600Y0173600D01*
X0096600Y0173600D02*
X0096600Y0179600D01*
X0094230Y0147100D02*
X0094230Y0141100D01*
X0104230Y0141100D02*
X0104230Y0147100D01*
X0114230Y0147100D02*
X0114230Y0141100D01*
X0084230Y0141100D02*
X0084230Y0147100D01*
X0074230Y0147100D02*
X0074230Y0141100D01*
X0064230Y0141100D02*
X0064230Y0147100D01*
D20*
X0197769Y0077159D03*
X0206431Y0077159D03*
X0206431Y0074600D03*
X0206431Y0072041D03*
X0197769Y0072041D03*
X0197769Y0074600D03*
D21*
X0263650Y0088100D03*
X0271550Y0091800D03*
X0271550Y0084400D03*
D22*
X0271915Y0078600D03*
X0248600Y0078600D03*
X0212600Y0082600D03*
X0206915Y0082600D03*
X0188600Y0074600D03*
X0187600Y0066600D03*
X0211600Y0062600D03*
X0142100Y0074100D03*
X0096600Y0095600D03*
X0078600Y0091600D03*
X0079600Y0073100D03*
X0151600Y0097600D03*
X0175600Y0098600D03*
X0181600Y0097600D03*
X0180600Y0104100D03*
X0199600Y0105600D03*
X0203600Y0101600D03*
X0204600Y0115600D03*
X0201915Y0121600D03*
X0225915Y0115600D03*
X0240915Y0102600D03*
X0232915Y0099600D03*
X0248915Y0099600D03*
X0257915Y0101600D03*
X0256915Y0108600D03*
X0278600Y0098600D03*
X0309600Y0092600D03*
X0313600Y0108600D03*
X0299600Y0116600D03*
X0310600Y0126600D03*
X0304600Y0133600D03*
X0286600Y0133600D03*
X0278915Y0120600D03*
X0261128Y0132734D03*
X0249915Y0135600D03*
X0226915Y0136600D03*
X0212915Y0149600D03*
X0210915Y0154600D03*
X0223600Y0154600D03*
X0248600Y0154600D03*
X0166600Y0122600D03*
X0158600Y0119600D03*
X0151600Y0128600D03*
X0082600Y0116600D03*
X0351600Y0067600D03*
X0391915Y0079600D03*
X0389415Y0142100D03*
X0367730Y0141100D03*
M02*
