G75*
%MOIN*%
%OFA0B0*%
%FSLAX25Y25*%
%IPPOS*%
%LPD*%
%AMOC8*
5,1,8,0,0,1.08239X$1,22.5*
%
%ADD10C,0.00700*%
%ADD11C,0.05315*%
%ADD12C,0.09449*%
%ADD13C,0.06000*%
%ADD14C,0.01600*%
%ADD15C,0.02953*%
%ADD16C,0.02362*%
D10*
X0191019Y0230615D02*
X0195223Y0234818D01*
X0195223Y0235869D01*
X0194172Y0236920D01*
X0192070Y0236920D01*
X0191019Y0235869D01*
X0191019Y0230615D02*
X0195223Y0230615D01*
D11*
X0235912Y0185991D03*
X0229926Y0175998D03*
X0235910Y0146195D03*
X0229928Y0136188D03*
X0191626Y0148594D03*
X0191626Y0158594D03*
X0191626Y0168594D03*
X0191626Y0178594D03*
X0181626Y0173594D03*
X0181626Y0163594D03*
X0181626Y0153594D03*
X0181626Y0143594D03*
D12*
X0204618Y0130091D03*
X0204618Y0192098D03*
D13*
X0172205Y0222115D03*
X0162205Y0222115D03*
X0152205Y0222115D03*
X0142205Y0222115D03*
X0132205Y0222115D03*
X0122205Y0222115D03*
X0055000Y0166091D03*
X0055000Y0156091D03*
X0122205Y0100068D03*
X0132205Y0100068D03*
X0142205Y0100068D03*
X0152205Y0100068D03*
X0162205Y0100068D03*
X0172205Y0100068D03*
D14*
X0050748Y0082167D02*
X0048925Y0082286D01*
X0045404Y0083230D01*
X0042247Y0085052D01*
X0039670Y0087630D01*
X0037847Y0090787D01*
X0036904Y0094308D01*
X0036784Y0096131D01*
X0036784Y0226052D01*
X0036904Y0227875D01*
X0037847Y0231396D01*
X0039670Y0234553D01*
X0042247Y0237130D01*
X0045404Y0238953D01*
X0048925Y0239896D01*
X0050748Y0240016D01*
X0243661Y0240016D01*
X0245484Y0239896D01*
X0249005Y0238953D01*
X0252162Y0237130D01*
X0254740Y0234553D01*
X0256562Y0231396D01*
X0257506Y0227875D01*
X0257625Y0226052D01*
X0257625Y0225313D01*
X0257625Y0096131D01*
X0257506Y0094308D01*
X0256562Y0090787D01*
X0254740Y0087630D01*
X0252162Y0085052D01*
X0249005Y0083230D01*
X0245484Y0082286D01*
X0243661Y0082167D01*
X0050748Y0082167D01*
X0044798Y0083580D02*
X0249611Y0083580D01*
X0252288Y0085178D02*
X0042122Y0085178D01*
X0040523Y0086777D02*
X0253886Y0086777D01*
X0255170Y0088375D02*
X0039240Y0088375D01*
X0038317Y0089974D02*
X0046030Y0089974D01*
X0046392Y0089612D02*
X0044229Y0091775D01*
X0043058Y0094601D01*
X0043058Y0097660D01*
X0044229Y0100487D01*
X0046392Y0102650D01*
X0049218Y0103820D01*
X0052278Y0103820D01*
X0055104Y0102650D01*
X0057267Y0100487D01*
X0058438Y0097660D01*
X0058438Y0094601D01*
X0057267Y0091775D01*
X0055104Y0089612D01*
X0052278Y0088441D01*
X0049218Y0088441D01*
X0046392Y0089612D01*
X0044432Y0091572D02*
X0037637Y0091572D01*
X0037208Y0093171D02*
X0043651Y0093171D01*
X0043058Y0094769D02*
X0036873Y0094769D01*
X0036784Y0096368D02*
X0043058Y0096368D01*
X0043185Y0097966D02*
X0036784Y0097966D01*
X0036784Y0099565D02*
X0043847Y0099565D01*
X0044906Y0101163D02*
X0036784Y0101163D01*
X0036784Y0102762D02*
X0046663Y0102762D01*
X0054833Y0102762D02*
X0118690Y0102762D01*
X0118483Y0102555D02*
X0117814Y0100941D01*
X0117814Y0099194D01*
X0118483Y0097581D01*
X0119718Y0096346D01*
X0121331Y0095677D01*
X0123078Y0095677D01*
X0124692Y0096346D01*
X0125927Y0097581D01*
X0126595Y0099194D01*
X0126595Y0100941D01*
X0125927Y0102555D01*
X0124692Y0103790D01*
X0123078Y0104458D01*
X0121331Y0104458D01*
X0119718Y0103790D01*
X0118483Y0102555D01*
X0117906Y0101163D02*
X0056590Y0101163D01*
X0057649Y0099565D02*
X0117814Y0099565D01*
X0118323Y0097966D02*
X0058311Y0097966D01*
X0058438Y0096368D02*
X0119695Y0096368D01*
X0124714Y0096368D02*
X0129695Y0096368D01*
X0129718Y0096346D02*
X0131331Y0095677D01*
X0133078Y0095677D01*
X0134692Y0096346D01*
X0135927Y0097581D01*
X0136595Y0099194D01*
X0136595Y0100941D01*
X0135927Y0102555D01*
X0134692Y0103790D01*
X0133078Y0104458D01*
X0131331Y0104458D01*
X0129718Y0103790D01*
X0128483Y0102555D01*
X0127814Y0100941D01*
X0127814Y0099194D01*
X0128483Y0097581D01*
X0129718Y0096346D01*
X0128323Y0097966D02*
X0126087Y0097966D01*
X0126595Y0099565D02*
X0127814Y0099565D01*
X0127906Y0101163D02*
X0126503Y0101163D01*
X0125720Y0102762D02*
X0128690Y0102762D01*
X0131095Y0104360D02*
X0123314Y0104360D01*
X0121095Y0104360D02*
X0036784Y0104360D01*
X0036784Y0105959D02*
X0257625Y0105959D01*
X0257625Y0107557D02*
X0036784Y0107557D01*
X0036784Y0109156D02*
X0257625Y0109156D01*
X0257625Y0110754D02*
X0036784Y0110754D01*
X0036784Y0112353D02*
X0208826Y0112353D01*
X0208998Y0112181D02*
X0210052Y0111744D01*
X0211192Y0111744D01*
X0212246Y0112181D01*
X0213052Y0112987D01*
X0213489Y0114041D01*
X0213489Y0115181D01*
X0213052Y0116235D01*
X0212246Y0117041D01*
X0211192Y0117478D01*
X0210052Y0117478D01*
X0208998Y0117041D01*
X0208192Y0116235D01*
X0207755Y0115181D01*
X0207755Y0114041D01*
X0208192Y0112987D01*
X0208998Y0112181D01*
X0207792Y0113951D02*
X0036784Y0113951D01*
X0036784Y0115550D02*
X0207908Y0115550D01*
X0209256Y0117148D02*
X0036784Y0117148D01*
X0036784Y0118747D02*
X0257625Y0118747D01*
X0257625Y0120345D02*
X0036784Y0120345D01*
X0036784Y0121944D02*
X0257625Y0121944D01*
X0257625Y0123542D02*
X0036784Y0123542D01*
X0036784Y0125141D02*
X0200920Y0125141D01*
X0201154Y0124906D02*
X0203402Y0123976D01*
X0205835Y0123976D01*
X0208082Y0124906D01*
X0209802Y0126627D01*
X0210733Y0128874D01*
X0210733Y0131307D01*
X0209802Y0133554D01*
X0208082Y0135275D01*
X0205835Y0136205D01*
X0203402Y0136205D01*
X0201154Y0135275D01*
X0199434Y0133554D01*
X0198503Y0131307D01*
X0198503Y0128874D01*
X0199434Y0126627D01*
X0201154Y0124906D01*
X0199387Y0126740D02*
X0160805Y0126740D01*
X0160746Y0126681D02*
X0161552Y0127487D01*
X0161989Y0128541D01*
X0161989Y0129681D01*
X0161552Y0130735D01*
X0160746Y0131541D01*
X0159692Y0131978D01*
X0158552Y0131978D01*
X0157498Y0131541D01*
X0156692Y0130735D01*
X0156255Y0129681D01*
X0156255Y0128541D01*
X0156692Y0127487D01*
X0157498Y0126681D01*
X0158552Y0126244D01*
X0159692Y0126244D01*
X0160746Y0126681D01*
X0161905Y0128338D02*
X0198725Y0128338D01*
X0198503Y0129937D02*
X0161883Y0129937D01*
X0160752Y0131535D02*
X0198598Y0131535D01*
X0199260Y0133134D02*
X0036784Y0133134D01*
X0036784Y0134732D02*
X0200612Y0134732D01*
X0208625Y0134732D02*
X0209263Y0134732D01*
X0209606Y0133904D02*
X0211936Y0131575D01*
X0214979Y0130314D01*
X0218273Y0130314D01*
X0221317Y0131575D01*
X0223646Y0133904D01*
X0224906Y0136947D01*
X0224906Y0140242D01*
X0223646Y0143285D01*
X0221317Y0145614D01*
X0218273Y0146875D01*
X0214979Y0146875D01*
X0211936Y0145614D01*
X0209606Y0143285D01*
X0208346Y0140242D01*
X0208346Y0136947D01*
X0209606Y0133904D01*
X0209977Y0133134D02*
X0210377Y0133134D01*
X0210639Y0131535D02*
X0212032Y0131535D01*
X0210733Y0129937D02*
X0257625Y0129937D01*
X0257625Y0131535D02*
X0221221Y0131535D01*
X0222875Y0133134D02*
X0227257Y0133134D01*
X0227635Y0132756D02*
X0229122Y0132140D01*
X0230733Y0132140D01*
X0232221Y0132756D01*
X0233359Y0133895D01*
X0233976Y0135383D01*
X0233976Y0136993D01*
X0233359Y0138481D01*
X0232221Y0139620D01*
X0230733Y0140236D01*
X0229122Y0140236D01*
X0227635Y0139620D01*
X0226496Y0138481D01*
X0225880Y0136993D01*
X0225880Y0135383D01*
X0226496Y0133895D01*
X0227635Y0132756D01*
X0226149Y0134732D02*
X0223989Y0134732D01*
X0224651Y0136331D02*
X0225880Y0136331D01*
X0226267Y0137929D02*
X0224906Y0137929D01*
X0224906Y0139528D02*
X0227543Y0139528D01*
X0224540Y0141126D02*
X0257625Y0141126D01*
X0257625Y0139528D02*
X0232313Y0139528D01*
X0233588Y0137929D02*
X0257625Y0137929D01*
X0257625Y0136331D02*
X0233976Y0136331D01*
X0233706Y0134732D02*
X0257625Y0134732D01*
X0257625Y0133134D02*
X0232598Y0133134D01*
X0235105Y0142147D02*
X0236715Y0142147D01*
X0238203Y0142763D01*
X0239342Y0143902D01*
X0239958Y0145390D01*
X0239958Y0147000D01*
X0239342Y0148488D01*
X0238203Y0149627D01*
X0236715Y0150243D01*
X0235105Y0150243D01*
X0233617Y0149627D01*
X0232478Y0148488D01*
X0231862Y0147000D01*
X0231862Y0145390D01*
X0232478Y0143902D01*
X0233617Y0142763D01*
X0235105Y0142147D01*
X0233711Y0142725D02*
X0223878Y0142725D01*
X0222608Y0144323D02*
X0232304Y0144323D01*
X0231862Y0145922D02*
X0220574Y0145922D01*
X0212678Y0145922D02*
X0194678Y0145922D01*
X0195058Y0146301D02*
X0195674Y0147789D01*
X0195674Y0149400D01*
X0195058Y0150887D01*
X0193919Y0152026D01*
X0192431Y0152642D01*
X0190821Y0152642D01*
X0189333Y0152026D01*
X0188194Y0150887D01*
X0187578Y0149400D01*
X0187578Y0147789D01*
X0188194Y0146301D01*
X0189333Y0145163D01*
X0190821Y0144546D01*
X0192431Y0144546D01*
X0193919Y0145163D01*
X0195058Y0146301D01*
X0195563Y0147520D02*
X0232077Y0147520D01*
X0233109Y0149119D02*
X0195674Y0149119D01*
X0195128Y0150717D02*
X0257625Y0150717D01*
X0257625Y0149119D02*
X0238711Y0149119D01*
X0239743Y0147520D02*
X0257625Y0147520D01*
X0257625Y0145922D02*
X0239958Y0145922D01*
X0239516Y0144323D02*
X0257625Y0144323D01*
X0257625Y0142725D02*
X0238109Y0142725D01*
X0257625Y0152316D02*
X0193220Y0152316D01*
X0192620Y0154454D02*
X0193256Y0154661D01*
X0193851Y0154964D01*
X0194391Y0155357D01*
X0194864Y0155829D01*
X0195257Y0156370D01*
X0195560Y0156965D01*
X0195766Y0157600D01*
X0195871Y0158260D01*
X0195871Y0158509D01*
X0191712Y0158509D01*
X0191712Y0158680D01*
X0195871Y0158680D01*
X0195871Y0158929D01*
X0195766Y0159588D01*
X0195560Y0160224D01*
X0195257Y0160819D01*
X0194864Y0161360D01*
X0194391Y0161832D01*
X0193851Y0162225D01*
X0193256Y0162528D01*
X0192620Y0162735D01*
X0191960Y0162839D01*
X0191712Y0162839D01*
X0191712Y0158680D01*
X0191540Y0158680D01*
X0191540Y0158509D01*
X0187381Y0158509D01*
X0187381Y0158260D01*
X0187486Y0157600D01*
X0187692Y0156965D01*
X0187996Y0156370D01*
X0188388Y0155829D01*
X0188861Y0155357D01*
X0189401Y0154964D01*
X0189997Y0154661D01*
X0190632Y0154454D01*
X0191292Y0154350D01*
X0191540Y0154350D01*
X0191540Y0158509D01*
X0191712Y0158509D01*
X0191712Y0154350D01*
X0191960Y0154350D01*
X0192620Y0154454D01*
X0191712Y0155513D02*
X0191540Y0155513D01*
X0191540Y0157111D02*
X0191712Y0157111D01*
X0191540Y0158680D02*
X0187381Y0158680D01*
X0187381Y0158929D01*
X0187486Y0159588D01*
X0187692Y0160224D01*
X0187996Y0160819D01*
X0188388Y0161360D01*
X0188861Y0161832D01*
X0189401Y0162225D01*
X0189997Y0162528D01*
X0190632Y0162735D01*
X0191292Y0162839D01*
X0191540Y0162839D01*
X0191540Y0158680D01*
X0191540Y0158710D02*
X0191712Y0158710D01*
X0191712Y0160308D02*
X0191540Y0160308D01*
X0191540Y0161907D02*
X0191712Y0161907D01*
X0194289Y0161907D02*
X0257625Y0161907D01*
X0257625Y0163505D02*
X0185871Y0163505D01*
X0185871Y0163509D02*
X0181712Y0163509D01*
X0181712Y0163680D01*
X0185871Y0163680D01*
X0185871Y0163929D01*
X0185766Y0164588D01*
X0185560Y0165224D01*
X0185257Y0165819D01*
X0184864Y0166360D01*
X0184391Y0166832D01*
X0183851Y0167225D01*
X0183256Y0167528D01*
X0182620Y0167735D01*
X0181960Y0167839D01*
X0181712Y0167839D01*
X0181712Y0163680D01*
X0181540Y0163680D01*
X0181540Y0163509D01*
X0177381Y0163509D01*
X0177381Y0163260D01*
X0177486Y0162600D01*
X0177692Y0161965D01*
X0177996Y0161370D01*
X0178388Y0160829D01*
X0178861Y0160357D01*
X0179401Y0159964D01*
X0179997Y0159661D01*
X0180632Y0159454D01*
X0181292Y0159350D01*
X0181540Y0159350D01*
X0181540Y0163509D01*
X0181712Y0163509D01*
X0181712Y0159350D01*
X0181960Y0159350D01*
X0182620Y0159454D01*
X0183256Y0159661D01*
X0183851Y0159964D01*
X0184391Y0160357D01*
X0184864Y0160829D01*
X0185257Y0161370D01*
X0185560Y0161965D01*
X0185766Y0162600D01*
X0185871Y0163260D01*
X0185871Y0163509D01*
X0185599Y0165104D02*
X0189475Y0165104D01*
X0189333Y0165163D02*
X0190821Y0164546D01*
X0192431Y0164546D01*
X0193919Y0165163D01*
X0195058Y0166301D01*
X0195674Y0167789D01*
X0195674Y0169400D01*
X0195058Y0170887D01*
X0193919Y0172026D01*
X0192431Y0172642D01*
X0190821Y0172642D01*
X0189333Y0172026D01*
X0188194Y0170887D01*
X0187578Y0169400D01*
X0187578Y0167789D01*
X0188194Y0166301D01*
X0189333Y0165163D01*
X0188028Y0166702D02*
X0184521Y0166702D01*
X0181712Y0166702D02*
X0181540Y0166702D01*
X0181540Y0167839D02*
X0181540Y0163680D01*
X0177381Y0163680D01*
X0177381Y0163929D01*
X0177486Y0164588D01*
X0177692Y0165224D01*
X0177996Y0165819D01*
X0178388Y0166360D01*
X0178861Y0166832D01*
X0179401Y0167225D01*
X0179997Y0167528D01*
X0180632Y0167735D01*
X0181292Y0167839D01*
X0181540Y0167839D01*
X0180821Y0169546D02*
X0182431Y0169546D01*
X0183919Y0170163D01*
X0185058Y0171301D01*
X0185674Y0172789D01*
X0185674Y0174400D01*
X0185058Y0175887D01*
X0183919Y0177026D01*
X0182431Y0177642D01*
X0180821Y0177642D01*
X0179333Y0177026D01*
X0178194Y0175887D01*
X0177578Y0174400D01*
X0177578Y0172789D01*
X0178194Y0171301D01*
X0179333Y0170163D01*
X0180821Y0169546D01*
X0179969Y0169899D02*
X0161930Y0169899D01*
X0161989Y0170041D02*
X0161552Y0168987D01*
X0160746Y0168181D01*
X0159692Y0167744D01*
X0158552Y0167744D01*
X0157498Y0168181D01*
X0156692Y0168987D01*
X0156255Y0170041D01*
X0156255Y0171181D01*
X0156692Y0172235D01*
X0157498Y0173041D01*
X0158552Y0173478D01*
X0159692Y0173478D01*
X0160746Y0173041D01*
X0161552Y0172235D01*
X0161989Y0171181D01*
X0161989Y0170041D01*
X0161858Y0171498D02*
X0178113Y0171498D01*
X0177578Y0173096D02*
X0160614Y0173096D01*
X0157630Y0173096D02*
X0154043Y0173096D01*
X0154246Y0173181D02*
X0155052Y0173987D01*
X0155489Y0175041D01*
X0155489Y0176181D01*
X0155052Y0177235D01*
X0154246Y0178041D01*
X0153192Y0178478D01*
X0152052Y0178478D01*
X0150998Y0178041D01*
X0150192Y0177235D01*
X0149755Y0176181D01*
X0149755Y0175041D01*
X0149757Y0175036D01*
X0149165Y0174791D01*
X0148442Y0174068D01*
X0148050Y0173123D01*
X0148050Y0172099D01*
X0148442Y0171154D01*
X0149095Y0170501D01*
X0148755Y0169681D01*
X0148755Y0168541D01*
X0149192Y0167487D01*
X0149998Y0166681D01*
X0151052Y0166244D01*
X0152192Y0166244D01*
X0153246Y0166681D01*
X0154052Y0167487D01*
X0154489Y0168541D01*
X0154489Y0169681D01*
X0154052Y0170735D01*
X0153246Y0171541D01*
X0153004Y0171642D01*
X0153194Y0172099D01*
X0153194Y0172745D01*
X0154246Y0173181D01*
X0155346Y0174695D02*
X0177700Y0174695D01*
X0178600Y0176293D02*
X0155443Y0176293D01*
X0154396Y0177892D02*
X0156787Y0177892D01*
X0156692Y0177987D02*
X0157498Y0177181D01*
X0158552Y0176744D01*
X0159692Y0176744D01*
X0160746Y0177181D01*
X0161552Y0177987D01*
X0161989Y0179041D01*
X0161989Y0180181D01*
X0161552Y0181235D01*
X0160746Y0182041D01*
X0159692Y0182478D01*
X0158552Y0182478D01*
X0157498Y0182041D01*
X0156692Y0181235D01*
X0156255Y0180181D01*
X0156255Y0179041D01*
X0156692Y0177987D01*
X0156255Y0179490D02*
X0134154Y0179490D01*
X0134052Y0179735D02*
X0133246Y0180541D01*
X0132192Y0180978D01*
X0131052Y0180978D01*
X0129998Y0180541D01*
X0129192Y0179735D01*
X0128755Y0178681D01*
X0128755Y0177541D01*
X0129192Y0176487D01*
X0129998Y0175681D01*
X0131052Y0175244D01*
X0132192Y0175244D01*
X0133246Y0175681D01*
X0134052Y0176487D01*
X0134489Y0177541D01*
X0134489Y0178681D01*
X0134052Y0179735D01*
X0134489Y0177892D02*
X0150848Y0177892D01*
X0149802Y0176293D02*
X0133859Y0176293D01*
X0129385Y0176293D02*
X0126694Y0176293D01*
X0126694Y0176099D02*
X0126302Y0175154D01*
X0125579Y0174431D01*
X0124634Y0174039D01*
X0123611Y0174039D01*
X0122665Y0174431D01*
X0121942Y0175154D01*
X0121550Y0176099D01*
X0121550Y0177123D01*
X0121942Y0178068D01*
X0122665Y0178791D01*
X0123611Y0179183D01*
X0124634Y0179183D01*
X0125579Y0178791D01*
X0126302Y0178068D01*
X0126694Y0177123D01*
X0126694Y0176099D01*
X0125843Y0174695D02*
X0149069Y0174695D01*
X0148050Y0173096D02*
X0105191Y0173096D01*
X0105552Y0172735D02*
X0104746Y0173541D01*
X0103692Y0173978D01*
X0102552Y0173978D01*
X0101498Y0173541D01*
X0100692Y0172735D01*
X0100255Y0171681D01*
X0100255Y0170541D01*
X0100692Y0169487D01*
X0101498Y0168681D01*
X0102552Y0168244D01*
X0103692Y0168244D01*
X0104746Y0168681D01*
X0105552Y0169487D01*
X0105989Y0170541D01*
X0105989Y0171681D01*
X0105552Y0172735D01*
X0105989Y0171498D02*
X0148300Y0171498D01*
X0148845Y0169899D02*
X0141167Y0169899D01*
X0141075Y0169991D02*
X0140573Y0170326D01*
X0140016Y0170557D01*
X0139424Y0170675D01*
X0139122Y0170675D01*
X0138820Y0170675D01*
X0138228Y0170557D01*
X0137671Y0170326D01*
X0137169Y0169991D01*
X0136742Y0169564D01*
X0136407Y0169062D01*
X0136372Y0168978D01*
X0136337Y0169062D01*
X0136002Y0169564D01*
X0135575Y0169991D01*
X0135073Y0170326D01*
X0134516Y0170557D01*
X0133924Y0170675D01*
X0133622Y0170675D01*
X0133320Y0170675D01*
X0132728Y0170557D01*
X0132171Y0170326D01*
X0131669Y0169991D01*
X0131242Y0169564D01*
X0130907Y0169062D01*
X0130872Y0168978D01*
X0130837Y0169062D01*
X0130502Y0169564D01*
X0130075Y0169991D01*
X0129573Y0170326D01*
X0129016Y0170557D01*
X0128424Y0170675D01*
X0128122Y0170675D01*
X0127820Y0170675D01*
X0127228Y0170557D01*
X0126671Y0170326D01*
X0126169Y0169991D01*
X0125742Y0169564D01*
X0125407Y0169062D01*
X0125176Y0168505D01*
X0125058Y0167913D01*
X0125058Y0167611D01*
X0125058Y0167309D01*
X0125176Y0166717D01*
X0125407Y0166160D01*
X0125742Y0165658D01*
X0126169Y0165231D01*
X0126671Y0164896D01*
X0127228Y0164665D01*
X0127820Y0164547D01*
X0128122Y0164547D01*
X0128122Y0167611D01*
X0125058Y0167611D01*
X0128122Y0167611D01*
X0128122Y0167611D01*
X0128122Y0167611D01*
X0128122Y0170675D01*
X0128122Y0167611D01*
X0128122Y0167611D01*
X0128122Y0164547D01*
X0128424Y0164547D01*
X0129016Y0164665D01*
X0129573Y0164896D01*
X0130075Y0165231D01*
X0130502Y0165658D01*
X0130837Y0166160D01*
X0130872Y0166244D01*
X0130907Y0166160D01*
X0131242Y0165658D01*
X0131669Y0165231D01*
X0132171Y0164896D01*
X0132728Y0164665D01*
X0133320Y0164547D01*
X0133622Y0164547D01*
X0133622Y0167611D01*
X0128122Y0167611D01*
X0128122Y0167611D01*
X0130558Y0167611D01*
X0133622Y0167611D01*
X0133622Y0167611D01*
X0133622Y0167611D01*
X0133622Y0170675D01*
X0133622Y0167611D01*
X0133622Y0167611D01*
X0133622Y0164547D01*
X0133924Y0164547D01*
X0134516Y0164665D01*
X0135073Y0164896D01*
X0135575Y0165231D01*
X0136002Y0165658D01*
X0136337Y0166160D01*
X0136372Y0166244D01*
X0136407Y0166160D01*
X0136742Y0165658D01*
X0137169Y0165231D01*
X0137671Y0164896D01*
X0138228Y0164665D01*
X0138820Y0164547D01*
X0139122Y0164547D01*
X0139122Y0167611D01*
X0133622Y0167611D01*
X0133622Y0167611D01*
X0136686Y0167611D01*
X0139122Y0167611D01*
X0139122Y0167611D01*
X0139122Y0167611D01*
X0139122Y0170675D01*
X0139122Y0167611D01*
X0139122Y0167611D01*
X0139122Y0164547D01*
X0139424Y0164547D01*
X0140016Y0164665D01*
X0140573Y0164896D01*
X0141075Y0165231D01*
X0141502Y0165658D01*
X0141837Y0166160D01*
X0142068Y0166717D01*
X0142186Y0167309D01*
X0142186Y0167611D01*
X0139122Y0167611D01*
X0139122Y0167611D01*
X0142186Y0167611D01*
X0142186Y0167913D01*
X0142068Y0168505D01*
X0141837Y0169062D01*
X0141502Y0169564D01*
X0141075Y0169991D01*
X0139122Y0169899D02*
X0139122Y0169899D01*
X0139122Y0168301D02*
X0139122Y0168301D01*
X0139122Y0166702D02*
X0139122Y0166702D01*
X0139122Y0165104D02*
X0139122Y0165104D01*
X0139122Y0164175D02*
X0138820Y0164175D01*
X0138228Y0164057D01*
X0137671Y0163826D01*
X0137169Y0163491D01*
X0136742Y0163064D01*
X0136407Y0162562D01*
X0136372Y0162478D01*
X0136337Y0162562D01*
X0136002Y0163064D01*
X0135575Y0163491D01*
X0135073Y0163826D01*
X0134516Y0164057D01*
X0133924Y0164175D01*
X0133622Y0164175D01*
X0133320Y0164175D01*
X0132728Y0164057D01*
X0132171Y0163826D01*
X0131669Y0163491D01*
X0131242Y0163064D01*
X0130907Y0162562D01*
X0130872Y0162478D01*
X0130837Y0162562D01*
X0130502Y0163064D01*
X0130075Y0163491D01*
X0129573Y0163826D01*
X0129016Y0164057D01*
X0128424Y0164175D01*
X0128122Y0164175D01*
X0127820Y0164175D01*
X0127228Y0164057D01*
X0126671Y0163826D01*
X0126169Y0163491D01*
X0125742Y0163064D01*
X0125407Y0162562D01*
X0125176Y0162005D01*
X0125058Y0161413D01*
X0125058Y0161111D01*
X0125058Y0160809D01*
X0125176Y0160217D01*
X0125407Y0159660D01*
X0125742Y0159158D01*
X0126169Y0158731D01*
X0126671Y0158396D01*
X0127228Y0158165D01*
X0127820Y0158047D01*
X0128122Y0158047D01*
X0128122Y0161111D01*
X0125058Y0161111D01*
X0128122Y0161111D01*
X0128122Y0161111D01*
X0128122Y0161111D01*
X0128122Y0164175D01*
X0128122Y0161111D01*
X0128122Y0161111D01*
X0128122Y0158047D01*
X0128424Y0158047D01*
X0129016Y0158165D01*
X0129573Y0158396D01*
X0130075Y0158731D01*
X0130502Y0159158D01*
X0130837Y0159660D01*
X0130872Y0159744D01*
X0130907Y0159660D01*
X0131242Y0159158D01*
X0131669Y0158731D01*
X0132171Y0158396D01*
X0132728Y0158165D01*
X0133320Y0158047D01*
X0133622Y0158047D01*
X0133622Y0161111D01*
X0128122Y0161111D01*
X0128122Y0161111D01*
X0131186Y0161111D01*
X0133622Y0161111D01*
X0133622Y0161111D01*
X0133622Y0161111D01*
X0133622Y0164175D01*
X0133622Y0161111D01*
X0133622Y0161111D01*
X0133622Y0158047D01*
X0133924Y0158047D01*
X0134516Y0158165D01*
X0135073Y0158396D01*
X0135575Y0158731D01*
X0136002Y0159158D01*
X0136337Y0159660D01*
X0136372Y0159744D01*
X0136407Y0159660D01*
X0136742Y0159158D01*
X0137169Y0158731D01*
X0137671Y0158396D01*
X0138228Y0158165D01*
X0138820Y0158047D01*
X0139122Y0158047D01*
X0139122Y0161111D01*
X0133622Y0161111D01*
X0133622Y0161111D01*
X0136686Y0161111D01*
X0139122Y0161111D01*
X0139122Y0161111D01*
X0139122Y0161111D01*
X0139122Y0164175D01*
X0139122Y0161111D01*
X0139122Y0161111D01*
X0139122Y0158047D01*
X0139424Y0158047D01*
X0140016Y0158165D01*
X0140573Y0158396D01*
X0141075Y0158731D01*
X0141502Y0159158D01*
X0141837Y0159660D01*
X0142068Y0160217D01*
X0142186Y0160809D01*
X0142186Y0161111D01*
X0139122Y0161111D01*
X0139122Y0161111D01*
X0142186Y0161111D01*
X0142186Y0161413D01*
X0142068Y0162005D01*
X0141837Y0162562D01*
X0141502Y0163064D01*
X0141075Y0163491D01*
X0140573Y0163826D01*
X0140016Y0164057D01*
X0139424Y0164175D01*
X0139122Y0164175D01*
X0139122Y0163505D02*
X0139122Y0163505D01*
X0139122Y0161907D02*
X0139122Y0161907D01*
X0139122Y0160308D02*
X0139122Y0160308D01*
X0139122Y0158710D02*
X0139122Y0158710D01*
X0139122Y0157675D02*
X0138820Y0157675D01*
X0138228Y0157557D01*
X0137671Y0157326D01*
X0137169Y0156991D01*
X0136742Y0156564D01*
X0136407Y0156062D01*
X0136372Y0155978D01*
X0136337Y0156062D01*
X0136002Y0156564D01*
X0135575Y0156991D01*
X0135073Y0157326D01*
X0134516Y0157557D01*
X0133924Y0157675D01*
X0133622Y0157675D01*
X0133320Y0157675D01*
X0132728Y0157557D01*
X0132171Y0157326D01*
X0131669Y0156991D01*
X0131242Y0156564D01*
X0130907Y0156062D01*
X0130872Y0155978D01*
X0130837Y0156062D01*
X0130502Y0156564D01*
X0130075Y0156991D01*
X0129573Y0157326D01*
X0129016Y0157557D01*
X0128424Y0157675D01*
X0128122Y0157675D01*
X0127820Y0157675D01*
X0127228Y0157557D01*
X0126671Y0157326D01*
X0126169Y0156991D01*
X0125742Y0156564D01*
X0125407Y0156062D01*
X0125176Y0155505D01*
X0125058Y0154913D01*
X0125058Y0154611D01*
X0125058Y0154309D01*
X0125176Y0153717D01*
X0125407Y0153160D01*
X0125742Y0152658D01*
X0126169Y0152231D01*
X0126671Y0151896D01*
X0127228Y0151665D01*
X0127820Y0151547D01*
X0128122Y0151547D01*
X0128122Y0154611D01*
X0125058Y0154611D01*
X0128122Y0154611D01*
X0128122Y0154611D01*
X0128122Y0154611D01*
X0128122Y0157675D01*
X0128122Y0154611D01*
X0128122Y0154611D01*
X0128122Y0151547D01*
X0128424Y0151547D01*
X0129016Y0151665D01*
X0129573Y0151896D01*
X0130075Y0152231D01*
X0130502Y0152658D01*
X0130837Y0153160D01*
X0130872Y0153244D01*
X0130907Y0153160D01*
X0131242Y0152658D01*
X0131669Y0152231D01*
X0132171Y0151896D01*
X0132728Y0151665D01*
X0133320Y0151547D01*
X0133622Y0151547D01*
X0133622Y0154611D01*
X0128122Y0154611D01*
X0128122Y0154611D01*
X0131186Y0154611D01*
X0133622Y0154611D01*
X0133622Y0154611D01*
X0133622Y0154611D01*
X0133622Y0157675D01*
X0133622Y0154611D01*
X0133622Y0154611D01*
X0133622Y0151547D01*
X0133924Y0151547D01*
X0134516Y0151665D01*
X0135073Y0151896D01*
X0135575Y0152231D01*
X0136002Y0152658D01*
X0136337Y0153160D01*
X0136372Y0153244D01*
X0136407Y0153160D01*
X0136742Y0152658D01*
X0137169Y0152231D01*
X0137671Y0151896D01*
X0138228Y0151665D01*
X0138820Y0151547D01*
X0139122Y0151547D01*
X0139122Y0154611D01*
X0133622Y0154611D01*
X0133622Y0154611D01*
X0136686Y0154611D01*
X0139122Y0154611D01*
X0139122Y0154611D01*
X0139122Y0154611D01*
X0139122Y0157675D01*
X0139122Y0154611D01*
X0139122Y0154611D01*
X0139122Y0151547D01*
X0139424Y0151547D01*
X0140016Y0151665D01*
X0140573Y0151896D01*
X0141075Y0152231D01*
X0141502Y0152658D01*
X0141837Y0153160D01*
X0142068Y0153717D01*
X0142186Y0154309D01*
X0142186Y0154611D01*
X0139122Y0154611D01*
X0139122Y0154611D01*
X0142186Y0154611D01*
X0142186Y0154913D01*
X0142068Y0155505D01*
X0141837Y0156062D01*
X0141502Y0156564D01*
X0141075Y0156991D01*
X0140573Y0157326D01*
X0140016Y0157557D01*
X0139424Y0157675D01*
X0139122Y0157675D01*
X0139122Y0157111D02*
X0139122Y0157111D01*
X0139122Y0155513D02*
X0139122Y0155513D01*
X0139122Y0153914D02*
X0139122Y0153914D01*
X0139122Y0152316D02*
X0139122Y0152316D01*
X0137085Y0152316D02*
X0135660Y0152316D01*
X0133622Y0152316D02*
X0133622Y0152316D01*
X0133622Y0153914D02*
X0133622Y0153914D01*
X0133622Y0155513D02*
X0133622Y0155513D01*
X0133622Y0157111D02*
X0133622Y0157111D01*
X0133622Y0158710D02*
X0133622Y0158710D01*
X0133622Y0160308D02*
X0133622Y0160308D01*
X0133622Y0161907D02*
X0133622Y0161907D01*
X0133622Y0163505D02*
X0133622Y0163505D01*
X0133622Y0165104D02*
X0133622Y0165104D01*
X0133622Y0166702D02*
X0133622Y0166702D01*
X0133622Y0168301D02*
X0133622Y0168301D01*
X0133622Y0169899D02*
X0133622Y0169899D01*
X0131577Y0169899D02*
X0130167Y0169899D01*
X0128122Y0169899D02*
X0128122Y0169899D01*
X0128122Y0168301D02*
X0128122Y0168301D01*
X0128122Y0166702D02*
X0128122Y0166702D01*
X0128122Y0165104D02*
X0128122Y0165104D01*
X0128122Y0163505D02*
X0128122Y0163505D01*
X0128122Y0161907D02*
X0128122Y0161907D01*
X0128122Y0160308D02*
X0128122Y0160308D01*
X0128122Y0158710D02*
X0128122Y0158710D01*
X0128122Y0157111D02*
X0128122Y0157111D01*
X0128122Y0155513D02*
X0128122Y0155513D01*
X0128122Y0153914D02*
X0128122Y0153914D01*
X0128122Y0152316D02*
X0128122Y0152316D01*
X0126085Y0152316D02*
X0057358Y0152316D01*
X0057487Y0152369D02*
X0058722Y0153604D01*
X0059391Y0155218D01*
X0059391Y0156965D01*
X0058722Y0158578D01*
X0057487Y0159813D01*
X0055873Y0160482D01*
X0054127Y0160482D01*
X0052513Y0159813D01*
X0051278Y0158578D01*
X0050609Y0156965D01*
X0050609Y0155218D01*
X0051278Y0153604D01*
X0052513Y0152369D01*
X0054127Y0151701D01*
X0055873Y0151701D01*
X0057487Y0152369D01*
X0058850Y0153914D02*
X0125137Y0153914D01*
X0125179Y0155513D02*
X0059391Y0155513D01*
X0059330Y0157111D02*
X0126349Y0157111D01*
X0126201Y0158710D02*
X0058591Y0158710D01*
X0056293Y0160308D02*
X0125158Y0160308D01*
X0125157Y0161907D02*
X0056892Y0161907D01*
X0056761Y0161840D02*
X0057404Y0162168D01*
X0057988Y0162592D01*
X0058499Y0163103D01*
X0058923Y0163687D01*
X0059251Y0164330D01*
X0059474Y0165017D01*
X0059587Y0165730D01*
X0059587Y0165891D01*
X0055200Y0165891D01*
X0055200Y0161504D01*
X0055361Y0161504D01*
X0056074Y0161617D01*
X0056761Y0161840D01*
X0055200Y0161907D02*
X0054800Y0161907D01*
X0054800Y0161504D02*
X0054639Y0161504D01*
X0053926Y0161617D01*
X0053239Y0161840D01*
X0052596Y0162168D01*
X0052012Y0162592D01*
X0051501Y0163103D01*
X0051077Y0163687D01*
X0050749Y0164330D01*
X0050526Y0165017D01*
X0050413Y0165730D01*
X0050413Y0165891D01*
X0054800Y0165891D01*
X0055200Y0165891D01*
X0055200Y0166291D01*
X0059587Y0166291D01*
X0059587Y0166452D01*
X0059474Y0167166D01*
X0059251Y0167852D01*
X0058923Y0168496D01*
X0058499Y0169080D01*
X0057988Y0169590D01*
X0057404Y0170015D01*
X0056761Y0170343D01*
X0056074Y0170566D01*
X0055361Y0170679D01*
X0055200Y0170679D01*
X0055200Y0166291D01*
X0054800Y0166291D01*
X0054800Y0165891D01*
X0054800Y0161504D01*
X0053707Y0160308D02*
X0036784Y0160308D01*
X0036784Y0158710D02*
X0051409Y0158710D01*
X0050670Y0157111D02*
X0036784Y0157111D01*
X0036784Y0155513D02*
X0050609Y0155513D01*
X0051149Y0153914D02*
X0036784Y0153914D01*
X0036784Y0152316D02*
X0052642Y0152316D01*
X0053108Y0161907D02*
X0036784Y0161907D01*
X0036784Y0163505D02*
X0051209Y0163505D01*
X0050512Y0165104D02*
X0036784Y0165104D01*
X0036784Y0166702D02*
X0050452Y0166702D01*
X0050413Y0166452D02*
X0050413Y0166291D01*
X0054800Y0166291D01*
X0054800Y0170679D01*
X0054639Y0170679D01*
X0053926Y0170566D01*
X0053239Y0170343D01*
X0052596Y0170015D01*
X0052012Y0169590D01*
X0051501Y0169080D01*
X0051077Y0168496D01*
X0050749Y0167852D01*
X0050526Y0167166D01*
X0050413Y0166452D01*
X0050977Y0168301D02*
X0036784Y0168301D01*
X0036784Y0169899D02*
X0052437Y0169899D01*
X0054800Y0169899D02*
X0055200Y0169899D01*
X0055200Y0168301D02*
X0054800Y0168301D01*
X0054800Y0166702D02*
X0055200Y0166702D01*
X0055200Y0165104D02*
X0054800Y0165104D01*
X0054800Y0163505D02*
X0055200Y0163505D01*
X0058791Y0163505D02*
X0126191Y0163505D01*
X0126360Y0165104D02*
X0100153Y0165104D01*
X0100423Y0165373D02*
X0100859Y0166427D01*
X0100859Y0167567D01*
X0100423Y0168621D01*
X0099616Y0169427D01*
X0098562Y0169864D01*
X0097422Y0169864D01*
X0096368Y0169427D01*
X0095562Y0168621D01*
X0095125Y0167567D01*
X0095125Y0166427D01*
X0095562Y0165373D01*
X0096368Y0164566D01*
X0097422Y0164130D01*
X0098562Y0164130D01*
X0099616Y0164566D01*
X0100423Y0165373D01*
X0100859Y0166702D02*
X0125182Y0166702D01*
X0125135Y0168301D02*
X0103829Y0168301D01*
X0102415Y0168301D02*
X0100555Y0168301D01*
X0100521Y0169899D02*
X0057563Y0169899D01*
X0059023Y0168301D02*
X0095429Y0168301D01*
X0095125Y0166702D02*
X0059548Y0166702D01*
X0059488Y0165104D02*
X0095831Y0165104D01*
X0100255Y0171498D02*
X0036784Y0171498D01*
X0036784Y0173096D02*
X0101053Y0173096D01*
X0105723Y0169899D02*
X0126077Y0169899D01*
X0122401Y0174695D02*
X0036784Y0174695D01*
X0036784Y0176293D02*
X0121550Y0176293D01*
X0121869Y0177892D02*
X0036784Y0177892D01*
X0036784Y0179490D02*
X0129090Y0179490D01*
X0128755Y0177892D02*
X0126375Y0177892D01*
X0129498Y0182181D02*
X0130552Y0181744D01*
X0131692Y0181744D01*
X0132746Y0182181D01*
X0133552Y0182987D01*
X0133989Y0184041D01*
X0133989Y0185181D01*
X0133552Y0186235D01*
X0132746Y0187041D01*
X0131692Y0187478D01*
X0130552Y0187478D01*
X0129498Y0187041D01*
X0128692Y0186235D01*
X0128255Y0185181D01*
X0128255Y0184041D01*
X0128692Y0182987D01*
X0129498Y0182181D01*
X0128991Y0182687D02*
X0036784Y0182687D01*
X0036784Y0181089D02*
X0156631Y0181089D01*
X0161613Y0181089D02*
X0188396Y0181089D01*
X0188194Y0180887D02*
X0187578Y0179400D01*
X0187578Y0177789D01*
X0188194Y0176301D01*
X0189333Y0175163D01*
X0190821Y0174546D01*
X0192431Y0174546D01*
X0193919Y0175163D01*
X0195058Y0176301D01*
X0195674Y0177789D01*
X0195674Y0179400D01*
X0195058Y0180887D01*
X0193919Y0182026D01*
X0192431Y0182642D01*
X0190821Y0182642D01*
X0189333Y0182026D01*
X0188194Y0180887D01*
X0187616Y0179490D02*
X0161989Y0179490D01*
X0161457Y0177892D02*
X0187578Y0177892D01*
X0188202Y0176293D02*
X0184652Y0176293D01*
X0185552Y0174695D02*
X0190463Y0174695D01*
X0192790Y0174695D02*
X0226084Y0174695D01*
X0225878Y0175193D02*
X0226494Y0173705D01*
X0227633Y0172567D01*
X0229120Y0171950D01*
X0230731Y0171950D01*
X0232219Y0172567D01*
X0233357Y0173705D01*
X0233974Y0175193D01*
X0233974Y0176804D01*
X0233357Y0178291D01*
X0232219Y0179430D01*
X0230731Y0180046D01*
X0229120Y0180046D01*
X0227633Y0179430D01*
X0226494Y0178291D01*
X0225878Y0176804D01*
X0225878Y0175193D01*
X0225878Y0176293D02*
X0220637Y0176293D01*
X0221317Y0176575D02*
X0223646Y0178904D01*
X0224906Y0181947D01*
X0224906Y0185242D01*
X0223646Y0188285D01*
X0221317Y0190614D01*
X0218273Y0191875D01*
X0214979Y0191875D01*
X0211936Y0190614D01*
X0209606Y0188285D01*
X0208346Y0185242D01*
X0208346Y0181947D01*
X0209606Y0178904D01*
X0211936Y0176575D01*
X0214979Y0175314D01*
X0218273Y0175314D01*
X0221317Y0176575D01*
X0222634Y0177892D02*
X0226328Y0177892D01*
X0227778Y0179490D02*
X0223889Y0179490D01*
X0224551Y0181089D02*
X0257625Y0181089D01*
X0257625Y0182687D02*
X0238333Y0182687D01*
X0238205Y0182559D02*
X0239344Y0183698D01*
X0239960Y0185186D01*
X0239960Y0186796D01*
X0239344Y0188284D01*
X0238205Y0189423D01*
X0236717Y0190039D01*
X0235107Y0190039D01*
X0233619Y0189423D01*
X0232480Y0188284D01*
X0231864Y0186796D01*
X0231864Y0185186D01*
X0232480Y0183698D01*
X0233619Y0182559D01*
X0235107Y0181943D01*
X0236717Y0181943D01*
X0238205Y0182559D01*
X0239587Y0184286D02*
X0257625Y0184286D01*
X0257625Y0185884D02*
X0239960Y0185884D01*
X0239676Y0187483D02*
X0257625Y0187483D01*
X0257625Y0189081D02*
X0238546Y0189081D01*
X0233278Y0189081D02*
X0222849Y0189081D01*
X0223978Y0187483D02*
X0232148Y0187483D01*
X0231864Y0185884D02*
X0224640Y0185884D01*
X0224906Y0184286D02*
X0232237Y0184286D01*
X0233491Y0182687D02*
X0224906Y0182687D01*
X0232073Y0179490D02*
X0257625Y0179490D01*
X0257625Y0177892D02*
X0233523Y0177892D01*
X0233974Y0176293D02*
X0257625Y0176293D01*
X0257625Y0174695D02*
X0233767Y0174695D01*
X0232748Y0173096D02*
X0257625Y0173096D01*
X0257625Y0171498D02*
X0194448Y0171498D01*
X0195467Y0169899D02*
X0257625Y0169899D01*
X0257625Y0168301D02*
X0195674Y0168301D01*
X0195224Y0166702D02*
X0257625Y0166702D01*
X0257625Y0165104D02*
X0193777Y0165104D01*
X0195517Y0160308D02*
X0257625Y0160308D01*
X0257625Y0158710D02*
X0195871Y0158710D01*
X0195608Y0157111D02*
X0257625Y0157111D01*
X0257625Y0155513D02*
X0194548Y0155513D01*
X0190032Y0152316D02*
X0185674Y0152316D01*
X0185766Y0152600D02*
X0185871Y0153260D01*
X0185871Y0153509D01*
X0181712Y0153509D01*
X0181712Y0153680D01*
X0185871Y0153680D01*
X0185871Y0153929D01*
X0185766Y0154588D01*
X0185560Y0155224D01*
X0185257Y0155819D01*
X0184864Y0156360D01*
X0184391Y0156832D01*
X0183851Y0157225D01*
X0183256Y0157528D01*
X0182620Y0157735D01*
X0181960Y0157839D01*
X0181712Y0157839D01*
X0181712Y0153680D01*
X0181540Y0153680D01*
X0181540Y0153509D01*
X0177381Y0153509D01*
X0177381Y0153260D01*
X0177486Y0152600D01*
X0177692Y0151965D01*
X0177996Y0151370D01*
X0178388Y0150829D01*
X0178861Y0150357D01*
X0179401Y0149964D01*
X0179997Y0149661D01*
X0180632Y0149454D01*
X0181292Y0149350D01*
X0181540Y0149350D01*
X0181540Y0153509D01*
X0181712Y0153509D01*
X0181712Y0149350D01*
X0181960Y0149350D01*
X0182620Y0149454D01*
X0183256Y0149661D01*
X0183851Y0149964D01*
X0184391Y0150357D01*
X0184864Y0150829D01*
X0185257Y0151370D01*
X0185560Y0151965D01*
X0185766Y0152600D01*
X0185871Y0153914D02*
X0257625Y0153914D01*
X0257625Y0128338D02*
X0210511Y0128338D01*
X0209849Y0126740D02*
X0257625Y0126740D01*
X0257625Y0125141D02*
X0208317Y0125141D01*
X0211988Y0117148D02*
X0257625Y0117148D01*
X0257625Y0115550D02*
X0213336Y0115550D01*
X0213452Y0113951D02*
X0257625Y0113951D01*
X0257625Y0112353D02*
X0212418Y0112353D01*
X0237142Y0100487D02*
X0235972Y0097660D01*
X0235972Y0094601D01*
X0237142Y0091775D01*
X0239306Y0089612D01*
X0242132Y0088441D01*
X0245191Y0088441D01*
X0248017Y0089612D01*
X0250180Y0091775D01*
X0251351Y0094601D01*
X0251351Y0097660D01*
X0250180Y0100487D01*
X0248017Y0102650D01*
X0245191Y0103820D01*
X0242132Y0103820D01*
X0239306Y0102650D01*
X0237142Y0100487D01*
X0237819Y0101163D02*
X0176503Y0101163D01*
X0176595Y0100941D02*
X0175927Y0102555D01*
X0174692Y0103790D01*
X0173078Y0104458D01*
X0171331Y0104458D01*
X0169718Y0103790D01*
X0168483Y0102555D01*
X0167814Y0100941D01*
X0167814Y0099194D01*
X0168483Y0097581D01*
X0169718Y0096346D01*
X0171331Y0095677D01*
X0173078Y0095677D01*
X0174692Y0096346D01*
X0175927Y0097581D01*
X0176595Y0099194D01*
X0176595Y0100941D01*
X0176595Y0099565D02*
X0236761Y0099565D01*
X0236098Y0097966D02*
X0176087Y0097966D01*
X0174714Y0096368D02*
X0235972Y0096368D01*
X0235972Y0094769D02*
X0058438Y0094769D01*
X0057845Y0093171D02*
X0236564Y0093171D01*
X0237345Y0091572D02*
X0057065Y0091572D01*
X0055466Y0089974D02*
X0238943Y0089974D01*
X0248379Y0089974D02*
X0256093Y0089974D01*
X0256562Y0090787D02*
X0256562Y0090787D01*
X0256773Y0091572D02*
X0249978Y0091572D01*
X0250759Y0093171D02*
X0257201Y0093171D01*
X0257536Y0094769D02*
X0251351Y0094769D01*
X0251351Y0096368D02*
X0257625Y0096368D01*
X0257625Y0097966D02*
X0251224Y0097966D01*
X0250562Y0099565D02*
X0257625Y0099565D01*
X0257625Y0101163D02*
X0249504Y0101163D01*
X0247747Y0102762D02*
X0257625Y0102762D01*
X0257625Y0104360D02*
X0173314Y0104360D01*
X0171095Y0104360D02*
X0163314Y0104360D01*
X0163078Y0104458D02*
X0161331Y0104458D01*
X0159718Y0103790D01*
X0158483Y0102555D01*
X0157814Y0100941D01*
X0157814Y0099194D01*
X0158483Y0097581D01*
X0159718Y0096346D01*
X0161331Y0095677D01*
X0163078Y0095677D01*
X0164692Y0096346D01*
X0165927Y0097581D01*
X0166595Y0099194D01*
X0166595Y0100941D01*
X0165927Y0102555D01*
X0164692Y0103790D01*
X0163078Y0104458D01*
X0161095Y0104360D02*
X0153314Y0104360D01*
X0153078Y0104458D02*
X0151331Y0104458D01*
X0149718Y0103790D01*
X0148483Y0102555D01*
X0147814Y0100941D01*
X0147814Y0099194D01*
X0148483Y0097581D01*
X0149718Y0096346D01*
X0151331Y0095677D01*
X0153078Y0095677D01*
X0154692Y0096346D01*
X0155927Y0097581D01*
X0156595Y0099194D01*
X0156595Y0100941D01*
X0155927Y0102555D01*
X0154692Y0103790D01*
X0153078Y0104458D01*
X0151095Y0104360D02*
X0143314Y0104360D01*
X0143078Y0104458D02*
X0141331Y0104458D01*
X0139718Y0103790D01*
X0138483Y0102555D01*
X0137814Y0100941D01*
X0137814Y0099194D01*
X0138483Y0097581D01*
X0139718Y0096346D01*
X0141331Y0095677D01*
X0143078Y0095677D01*
X0144692Y0096346D01*
X0145927Y0097581D01*
X0146595Y0099194D01*
X0146595Y0100941D01*
X0145927Y0102555D01*
X0144692Y0103790D01*
X0143078Y0104458D01*
X0141095Y0104360D02*
X0133314Y0104360D01*
X0135720Y0102762D02*
X0138690Y0102762D01*
X0137906Y0101163D02*
X0136503Y0101163D01*
X0136595Y0099565D02*
X0137814Y0099565D01*
X0138323Y0097966D02*
X0136087Y0097966D01*
X0134714Y0096368D02*
X0139695Y0096368D01*
X0144714Y0096368D02*
X0149695Y0096368D01*
X0148323Y0097966D02*
X0146087Y0097966D01*
X0146595Y0099565D02*
X0147814Y0099565D01*
X0147906Y0101163D02*
X0146503Y0101163D01*
X0145720Y0102762D02*
X0148690Y0102762D01*
X0155720Y0102762D02*
X0158690Y0102762D01*
X0157906Y0101163D02*
X0156503Y0101163D01*
X0156595Y0099565D02*
X0157814Y0099565D01*
X0158323Y0097966D02*
X0156087Y0097966D01*
X0154714Y0096368D02*
X0159695Y0096368D01*
X0164714Y0096368D02*
X0169695Y0096368D01*
X0168323Y0097966D02*
X0166087Y0097966D01*
X0166595Y0099565D02*
X0167814Y0099565D01*
X0167906Y0101163D02*
X0166503Y0101163D01*
X0165720Y0102762D02*
X0168690Y0102762D01*
X0175720Y0102762D02*
X0239576Y0102762D01*
X0208601Y0136331D02*
X0160896Y0136331D01*
X0160746Y0136181D02*
X0161552Y0136987D01*
X0161989Y0138041D01*
X0161989Y0139181D01*
X0161552Y0140235D01*
X0160746Y0141041D01*
X0159692Y0141478D01*
X0158552Y0141478D01*
X0157498Y0141041D01*
X0156692Y0140235D01*
X0156255Y0139181D01*
X0156255Y0138041D01*
X0156692Y0136987D01*
X0157498Y0136181D01*
X0158552Y0135744D01*
X0159692Y0135744D01*
X0160746Y0136181D01*
X0161943Y0137929D02*
X0208346Y0137929D01*
X0208346Y0139528D02*
X0161846Y0139528D01*
X0160542Y0141126D02*
X0178370Y0141126D01*
X0178194Y0141301D02*
X0179333Y0140163D01*
X0180821Y0139546D01*
X0182431Y0139546D01*
X0183919Y0140163D01*
X0185058Y0141301D01*
X0185674Y0142789D01*
X0185674Y0144400D01*
X0185058Y0145887D01*
X0183919Y0147026D01*
X0182431Y0147642D01*
X0180821Y0147642D01*
X0179333Y0147026D01*
X0178194Y0145887D01*
X0177578Y0144400D01*
X0177578Y0142789D01*
X0178194Y0141301D01*
X0177605Y0142725D02*
X0116063Y0142725D01*
X0115746Y0143041D02*
X0114692Y0143478D01*
X0113552Y0143478D01*
X0112498Y0143041D01*
X0111692Y0142235D01*
X0111255Y0141181D01*
X0111255Y0140041D01*
X0111692Y0138987D01*
X0112498Y0138181D01*
X0113552Y0137744D01*
X0114692Y0137744D01*
X0115746Y0138181D01*
X0116552Y0138987D01*
X0116989Y0140041D01*
X0116989Y0141181D01*
X0116552Y0142235D01*
X0115746Y0143041D01*
X0116989Y0141126D02*
X0157702Y0141126D01*
X0156399Y0139528D02*
X0116776Y0139528D01*
X0115139Y0137929D02*
X0156301Y0137929D01*
X0157348Y0136331D02*
X0036784Y0136331D01*
X0036784Y0137929D02*
X0113105Y0137929D01*
X0111468Y0139528D02*
X0036784Y0139528D01*
X0036784Y0141126D02*
X0072466Y0141126D01*
X0072439Y0141137D02*
X0073493Y0140701D01*
X0074633Y0140701D01*
X0075687Y0141137D01*
X0076493Y0141944D01*
X0076930Y0142997D01*
X0076930Y0144138D01*
X0076493Y0145192D01*
X0075687Y0145998D01*
X0074633Y0146435D01*
X0073493Y0146435D01*
X0072439Y0145998D01*
X0071633Y0145192D01*
X0071196Y0144138D01*
X0071196Y0142997D01*
X0071633Y0141944D01*
X0072439Y0141137D01*
X0071309Y0142725D02*
X0036784Y0142725D01*
X0036784Y0144323D02*
X0071273Y0144323D01*
X0072362Y0145922D02*
X0036784Y0145922D01*
X0036784Y0147520D02*
X0122477Y0147520D01*
X0122192Y0147235D02*
X0122998Y0148041D01*
X0124052Y0148478D01*
X0125192Y0148478D01*
X0126246Y0148041D01*
X0127052Y0147235D01*
X0127489Y0146181D01*
X0127489Y0145041D01*
X0127052Y0143987D01*
X0126246Y0143181D01*
X0125192Y0142744D01*
X0124052Y0142744D01*
X0122998Y0143181D01*
X0122192Y0143987D01*
X0121755Y0145041D01*
X0121755Y0146181D01*
X0122192Y0147235D01*
X0121755Y0145922D02*
X0075763Y0145922D01*
X0076853Y0144323D02*
X0104843Y0144323D01*
X0104692Y0144172D02*
X0104255Y0143118D01*
X0104255Y0141978D01*
X0104692Y0140924D01*
X0105498Y0140118D01*
X0106552Y0139681D01*
X0107692Y0139681D01*
X0108746Y0140118D01*
X0109552Y0140924D01*
X0109989Y0141978D01*
X0109989Y0143118D01*
X0109552Y0144172D01*
X0108746Y0144978D01*
X0107692Y0145415D01*
X0106552Y0145415D01*
X0105498Y0144978D01*
X0104692Y0144172D01*
X0104255Y0142725D02*
X0076817Y0142725D01*
X0075660Y0141126D02*
X0104608Y0141126D01*
X0109401Y0144323D02*
X0122052Y0144323D01*
X0127192Y0144323D02*
X0177578Y0144323D01*
X0178229Y0145922D02*
X0127489Y0145922D01*
X0126767Y0147520D02*
X0180526Y0147520D01*
X0182727Y0147520D02*
X0187690Y0147520D01*
X0187578Y0149119D02*
X0161607Y0149119D01*
X0161552Y0148987D02*
X0161989Y0150041D01*
X0161989Y0151181D01*
X0161552Y0152235D01*
X0160746Y0153041D01*
X0159692Y0153478D01*
X0158552Y0153478D01*
X0157498Y0153041D01*
X0156692Y0152235D01*
X0156255Y0151181D01*
X0156255Y0150041D01*
X0156692Y0148987D01*
X0157498Y0148181D01*
X0158552Y0147744D01*
X0159692Y0147744D01*
X0160746Y0148181D01*
X0161552Y0148987D01*
X0161989Y0150717D02*
X0178500Y0150717D01*
X0177578Y0152316D02*
X0161472Y0152316D01*
X0159692Y0155744D02*
X0160746Y0156181D01*
X0161552Y0156987D01*
X0161989Y0158041D01*
X0161989Y0159181D01*
X0161552Y0160235D01*
X0160746Y0161041D01*
X0159692Y0161478D01*
X0158552Y0161478D01*
X0157498Y0161041D01*
X0156692Y0160235D01*
X0156255Y0159181D01*
X0156255Y0158041D01*
X0156692Y0156987D01*
X0157498Y0156181D01*
X0158552Y0155744D01*
X0159692Y0155744D01*
X0161604Y0157111D02*
X0179245Y0157111D01*
X0179401Y0157225D02*
X0178861Y0156832D01*
X0178388Y0156360D01*
X0177996Y0155819D01*
X0177692Y0155224D01*
X0177486Y0154588D01*
X0177381Y0153929D01*
X0177381Y0153680D01*
X0181540Y0153680D01*
X0181540Y0157839D01*
X0181292Y0157839D01*
X0180632Y0157735D01*
X0179997Y0157528D01*
X0179401Y0157225D01*
X0181540Y0157111D02*
X0181712Y0157111D01*
X0181712Y0155513D02*
X0181540Y0155513D01*
X0181540Y0153914D02*
X0181712Y0153914D01*
X0181712Y0152316D02*
X0181540Y0152316D01*
X0181540Y0150717D02*
X0181712Y0150717D01*
X0184752Y0150717D02*
X0188124Y0150717D01*
X0188705Y0155513D02*
X0185413Y0155513D01*
X0184008Y0157111D02*
X0187645Y0157111D01*
X0187381Y0158710D02*
X0161989Y0158710D01*
X0161479Y0160308D02*
X0178927Y0160308D01*
X0177722Y0161907D02*
X0153614Y0161907D01*
X0153694Y0162099D02*
X0153302Y0161154D01*
X0152579Y0160431D01*
X0151634Y0160039D01*
X0150611Y0160039D01*
X0149665Y0160431D01*
X0148942Y0161154D01*
X0148550Y0162099D01*
X0148550Y0163123D01*
X0148942Y0164068D01*
X0149665Y0164791D01*
X0150611Y0165183D01*
X0151634Y0165183D01*
X0152579Y0164791D01*
X0153302Y0164068D01*
X0153694Y0163123D01*
X0153694Y0162099D01*
X0153535Y0163505D02*
X0177381Y0163505D01*
X0177653Y0165104D02*
X0151824Y0165104D01*
X0150420Y0165104D02*
X0140884Y0165104D01*
X0141053Y0163505D02*
X0148709Y0163505D01*
X0148630Y0161907D02*
X0142088Y0161907D01*
X0142086Y0160308D02*
X0149961Y0160308D01*
X0152283Y0160308D02*
X0156765Y0160308D01*
X0156255Y0158710D02*
X0141043Y0158710D01*
X0140895Y0157111D02*
X0156640Y0157111D01*
X0156772Y0152316D02*
X0141160Y0152316D01*
X0142107Y0153914D02*
X0177381Y0153914D01*
X0177839Y0155513D02*
X0142065Y0155513D01*
X0137349Y0157111D02*
X0135395Y0157111D01*
X0135543Y0158710D02*
X0137201Y0158710D01*
X0137191Y0163505D02*
X0135553Y0163505D01*
X0135384Y0165104D02*
X0137360Y0165104D01*
X0137077Y0169899D02*
X0135667Y0169899D01*
X0131860Y0165104D02*
X0129884Y0165104D01*
X0130053Y0163505D02*
X0131691Y0163505D01*
X0131701Y0158710D02*
X0130043Y0158710D01*
X0129895Y0157111D02*
X0131849Y0157111D01*
X0131585Y0152316D02*
X0130160Y0152316D01*
X0142062Y0166702D02*
X0149976Y0166702D01*
X0148855Y0168301D02*
X0142109Y0168301D01*
X0153268Y0166702D02*
X0178731Y0166702D01*
X0181540Y0165104D02*
X0181712Y0165104D01*
X0181712Y0163505D02*
X0181540Y0163505D01*
X0181540Y0161907D02*
X0181712Y0161907D01*
X0181712Y0160308D02*
X0181540Y0160308D01*
X0184325Y0160308D02*
X0187735Y0160308D01*
X0188963Y0161907D02*
X0185530Y0161907D01*
X0187578Y0168301D02*
X0160866Y0168301D01*
X0157378Y0168301D02*
X0154390Y0168301D01*
X0154399Y0169899D02*
X0156314Y0169899D01*
X0156386Y0171498D02*
X0153290Y0171498D01*
X0156255Y0150717D02*
X0036784Y0150717D01*
X0036784Y0149119D02*
X0156637Y0149119D01*
X0157492Y0131535D02*
X0036784Y0131535D01*
X0036784Y0129937D02*
X0156361Y0129937D01*
X0156339Y0128338D02*
X0036784Y0128338D01*
X0036784Y0126740D02*
X0157439Y0126740D01*
X0184883Y0141126D02*
X0208712Y0141126D01*
X0209374Y0142725D02*
X0185647Y0142725D01*
X0185674Y0144323D02*
X0210645Y0144323D01*
X0188574Y0145922D02*
X0185024Y0145922D01*
X0183283Y0169899D02*
X0187785Y0169899D01*
X0188805Y0171498D02*
X0185139Y0171498D01*
X0185674Y0173096D02*
X0227103Y0173096D01*
X0212615Y0176293D02*
X0207359Y0176293D01*
X0207552Y0176487D02*
X0207989Y0177541D01*
X0207989Y0178681D01*
X0207552Y0179735D01*
X0206746Y0180541D01*
X0205692Y0180978D01*
X0204552Y0180978D01*
X0203498Y0180541D01*
X0202692Y0179735D01*
X0202255Y0178681D01*
X0202255Y0177541D01*
X0202692Y0176487D01*
X0203498Y0175681D01*
X0204552Y0175244D01*
X0205692Y0175244D01*
X0206746Y0175681D01*
X0207552Y0176487D01*
X0207989Y0177892D02*
X0210619Y0177892D01*
X0209364Y0179490D02*
X0207654Y0179490D01*
X0208701Y0181089D02*
X0194856Y0181089D01*
X0195637Y0179490D02*
X0202590Y0179490D01*
X0202255Y0177892D02*
X0195674Y0177892D01*
X0195050Y0176293D02*
X0202885Y0176293D01*
X0208346Y0182687D02*
X0133253Y0182687D01*
X0133989Y0184286D02*
X0208346Y0184286D01*
X0208612Y0185884D02*
X0133698Y0185884D01*
X0128546Y0185884D02*
X0036784Y0185884D01*
X0036784Y0184286D02*
X0128255Y0184286D01*
X0126492Y0195181D02*
X0127546Y0195618D01*
X0128352Y0196424D01*
X0128789Y0197478D01*
X0128789Y0198618D01*
X0128352Y0199672D01*
X0127546Y0200478D01*
X0126492Y0200915D01*
X0125352Y0200915D01*
X0124298Y0200478D01*
X0123492Y0199672D01*
X0123055Y0198618D01*
X0123055Y0197478D01*
X0123492Y0196424D01*
X0124298Y0195618D01*
X0125352Y0195181D01*
X0126492Y0195181D01*
X0127203Y0195475D02*
X0199398Y0195475D01*
X0199434Y0195562D02*
X0198503Y0193315D01*
X0198503Y0190882D01*
X0199434Y0188635D01*
X0201154Y0186914D01*
X0203402Y0185983D01*
X0205835Y0185983D01*
X0208082Y0186914D01*
X0209802Y0188635D01*
X0210733Y0190882D01*
X0210733Y0193315D01*
X0209802Y0195562D01*
X0208082Y0197282D01*
X0205835Y0198213D01*
X0203402Y0198213D01*
X0201154Y0197282D01*
X0199434Y0195562D01*
X0198736Y0193877D02*
X0036784Y0193877D01*
X0036784Y0195475D02*
X0110841Y0195475D01*
X0110498Y0195618D02*
X0111552Y0195181D01*
X0112692Y0195181D01*
X0113746Y0195618D01*
X0114552Y0196424D01*
X0114989Y0197478D01*
X0114989Y0198618D01*
X0114552Y0199672D01*
X0113746Y0200478D01*
X0112692Y0200915D01*
X0111552Y0200915D01*
X0110498Y0200478D01*
X0109692Y0199672D01*
X0109255Y0198618D01*
X0109255Y0197478D01*
X0109692Y0196424D01*
X0110498Y0195618D01*
X0109422Y0197074D02*
X0036784Y0197074D01*
X0036784Y0198673D02*
X0109278Y0198673D01*
X0109310Y0200000D02*
X0110364Y0200436D01*
X0111171Y0201243D01*
X0111607Y0202297D01*
X0111607Y0203437D01*
X0111171Y0204491D01*
X0110364Y0205297D01*
X0109310Y0205734D01*
X0108170Y0205734D01*
X0107116Y0205297D01*
X0106310Y0204491D01*
X0105873Y0203437D01*
X0105873Y0202297D01*
X0106310Y0201243D01*
X0107116Y0200436D01*
X0108170Y0200000D01*
X0109310Y0200000D01*
X0109965Y0200271D02*
X0110291Y0200271D01*
X0111430Y0201870D02*
X0257625Y0201870D01*
X0257625Y0203468D02*
X0111594Y0203468D01*
X0110595Y0205067D02*
X0228030Y0205067D01*
X0227746Y0205351D02*
X0228469Y0204627D01*
X0229414Y0204236D01*
X0230437Y0204236D01*
X0231382Y0204627D01*
X0232106Y0205351D01*
X0232497Y0206296D01*
X0232497Y0207319D01*
X0232106Y0208264D01*
X0231382Y0208987D01*
X0230437Y0209379D01*
X0229414Y0209379D01*
X0228469Y0208987D01*
X0227746Y0208264D01*
X0227354Y0207319D01*
X0227354Y0206296D01*
X0227746Y0205351D01*
X0227354Y0206665D02*
X0216731Y0206665D01*
X0217052Y0206987D02*
X0217489Y0208041D01*
X0217489Y0209181D01*
X0217052Y0210235D01*
X0216246Y0211041D01*
X0215192Y0211478D01*
X0214052Y0211478D01*
X0212998Y0211041D01*
X0212192Y0210235D01*
X0211755Y0209181D01*
X0211755Y0208041D01*
X0212192Y0206987D01*
X0212998Y0206181D01*
X0214052Y0205744D01*
X0215192Y0205744D01*
X0216246Y0206181D01*
X0217052Y0206987D01*
X0217489Y0208264D02*
X0227745Y0208264D01*
X0232106Y0208264D02*
X0257625Y0208264D01*
X0257625Y0209862D02*
X0217207Y0209862D01*
X0215234Y0211461D02*
X0257625Y0211461D01*
X0257625Y0213059D02*
X0036784Y0213059D01*
X0036784Y0211461D02*
X0214010Y0211461D01*
X0212037Y0209862D02*
X0036784Y0209862D01*
X0036784Y0208264D02*
X0211755Y0208264D01*
X0212514Y0206665D02*
X0036784Y0206665D01*
X0036784Y0205067D02*
X0106885Y0205067D01*
X0105886Y0203468D02*
X0036784Y0203468D01*
X0036784Y0201870D02*
X0106050Y0201870D01*
X0107516Y0200271D02*
X0036784Y0200271D01*
X0036784Y0192278D02*
X0198503Y0192278D01*
X0198587Y0190680D02*
X0036784Y0190680D01*
X0036784Y0189081D02*
X0199249Y0189081D01*
X0200586Y0187483D02*
X0036784Y0187483D01*
X0036784Y0214658D02*
X0257625Y0214658D01*
X0257625Y0216256D02*
X0036784Y0216256D01*
X0036784Y0217855D02*
X0121017Y0217855D01*
X0121331Y0217724D02*
X0119718Y0218393D01*
X0118483Y0219628D01*
X0117814Y0221242D01*
X0117814Y0222988D01*
X0118483Y0224602D01*
X0119718Y0225837D01*
X0121331Y0226505D01*
X0123078Y0226505D01*
X0124692Y0225837D01*
X0125927Y0224602D01*
X0126595Y0222988D01*
X0126595Y0221242D01*
X0125927Y0219628D01*
X0124692Y0218393D01*
X0123078Y0217724D01*
X0121331Y0217724D01*
X0123392Y0217855D02*
X0130471Y0217855D01*
X0130444Y0217864D02*
X0131130Y0217641D01*
X0131844Y0217528D01*
X0132005Y0217528D01*
X0132005Y0221915D01*
X0132405Y0221915D01*
X0132405Y0222315D01*
X0136792Y0222315D01*
X0136792Y0222476D01*
X0136679Y0223189D01*
X0136456Y0223876D01*
X0136128Y0224519D01*
X0135704Y0225103D01*
X0135193Y0225614D01*
X0134609Y0226038D01*
X0133966Y0226366D01*
X0133279Y0226589D01*
X0132566Y0226702D01*
X0132405Y0226702D01*
X0132405Y0222315D01*
X0132005Y0222315D01*
X0132005Y0226702D01*
X0131844Y0226702D01*
X0131130Y0226589D01*
X0130444Y0226366D01*
X0129800Y0226038D01*
X0129216Y0225614D01*
X0128706Y0225103D01*
X0128281Y0224519D01*
X0127953Y0223876D01*
X0127730Y0223189D01*
X0127617Y0222476D01*
X0127617Y0222315D01*
X0132005Y0222315D01*
X0132005Y0221915D01*
X0127617Y0221915D01*
X0127617Y0221754D01*
X0127730Y0221041D01*
X0127953Y0220354D01*
X0128281Y0219711D01*
X0128706Y0219126D01*
X0129216Y0218616D01*
X0129800Y0218191D01*
X0130444Y0217864D01*
X0132005Y0217855D02*
X0132405Y0217855D01*
X0132405Y0217528D02*
X0132566Y0217528D01*
X0133279Y0217641D01*
X0133966Y0217864D01*
X0134609Y0218191D01*
X0135193Y0218616D01*
X0135704Y0219126D01*
X0136128Y0219711D01*
X0136456Y0220354D01*
X0136679Y0221041D01*
X0136792Y0221754D01*
X0136792Y0221915D01*
X0132405Y0221915D01*
X0132405Y0217528D01*
X0133938Y0217855D02*
X0141017Y0217855D01*
X0141331Y0217724D02*
X0139718Y0218393D01*
X0138483Y0219628D01*
X0137814Y0221242D01*
X0137814Y0222988D01*
X0138483Y0224602D01*
X0139718Y0225837D01*
X0141331Y0226505D01*
X0143078Y0226505D01*
X0144692Y0225837D01*
X0145927Y0224602D01*
X0146595Y0222988D01*
X0146595Y0221242D01*
X0145927Y0219628D01*
X0144692Y0218393D01*
X0143078Y0217724D01*
X0141331Y0217724D01*
X0143392Y0217855D02*
X0151017Y0217855D01*
X0151331Y0217724D02*
X0153078Y0217724D01*
X0154692Y0218393D01*
X0155927Y0219628D01*
X0156595Y0221242D01*
X0156595Y0222988D01*
X0155927Y0224602D01*
X0154692Y0225837D01*
X0153078Y0226505D01*
X0151331Y0226505D01*
X0149718Y0225837D01*
X0148483Y0224602D01*
X0147814Y0222988D01*
X0147814Y0221242D01*
X0148483Y0219628D01*
X0149718Y0218393D01*
X0151331Y0217724D01*
X0153392Y0217855D02*
X0161017Y0217855D01*
X0161331Y0217724D02*
X0163078Y0217724D01*
X0164692Y0218393D01*
X0165927Y0219628D01*
X0166595Y0221242D01*
X0166595Y0222988D01*
X0165927Y0224602D01*
X0164692Y0225837D01*
X0163078Y0226505D01*
X0161331Y0226505D01*
X0159718Y0225837D01*
X0158483Y0224602D01*
X0157814Y0222988D01*
X0157814Y0221242D01*
X0158483Y0219628D01*
X0159718Y0218393D01*
X0161331Y0217724D01*
X0163392Y0217855D02*
X0171017Y0217855D01*
X0171331Y0217724D02*
X0173078Y0217724D01*
X0174692Y0218393D01*
X0175927Y0219628D01*
X0176595Y0221242D01*
X0176595Y0222988D01*
X0175927Y0224602D01*
X0174692Y0225837D01*
X0173078Y0226505D01*
X0171331Y0226505D01*
X0169718Y0225837D01*
X0168483Y0224602D01*
X0167814Y0222988D01*
X0167814Y0221242D01*
X0168483Y0219628D01*
X0169718Y0218393D01*
X0171331Y0217724D01*
X0173392Y0217855D02*
X0257625Y0217855D01*
X0257625Y0219453D02*
X0247825Y0219453D01*
X0248017Y0219533D02*
X0245191Y0218362D01*
X0242132Y0218362D01*
X0239306Y0219533D01*
X0237142Y0221696D01*
X0235972Y0224522D01*
X0235972Y0227582D01*
X0237142Y0230408D01*
X0239306Y0232571D01*
X0242132Y0233742D01*
X0245191Y0233742D01*
X0248017Y0232571D01*
X0250180Y0230408D01*
X0251351Y0227582D01*
X0251351Y0224522D01*
X0250180Y0221696D01*
X0248017Y0219533D01*
X0249536Y0221052D02*
X0257625Y0221052D01*
X0257625Y0222650D02*
X0250576Y0222650D01*
X0251238Y0224249D02*
X0257625Y0224249D01*
X0257625Y0225847D02*
X0251351Y0225847D01*
X0251351Y0227446D02*
X0257534Y0227446D01*
X0257192Y0229044D02*
X0250745Y0229044D01*
X0249946Y0230643D02*
X0256764Y0230643D01*
X0256074Y0232241D02*
X0248347Y0232241D01*
X0252255Y0237037D02*
X0196517Y0237037D01*
X0196963Y0236590D02*
X0195913Y0237641D01*
X0194893Y0238660D01*
X0191349Y0238660D01*
X0189279Y0236590D01*
X0189279Y0235148D01*
X0190298Y0234129D01*
X0191740Y0234129D01*
X0192791Y0235179D01*
X0193123Y0235179D01*
X0189279Y0231336D01*
X0189279Y0229894D01*
X0190298Y0228874D01*
X0191740Y0228874D01*
X0195944Y0228874D01*
X0196963Y0229894D01*
X0196963Y0231336D01*
X0195944Y0232355D01*
X0195221Y0232355D01*
X0195944Y0233078D01*
X0196963Y0234097D01*
X0196963Y0236590D01*
X0196963Y0235438D02*
X0253854Y0235438D01*
X0255151Y0233840D02*
X0196706Y0233840D01*
X0196058Y0232241D02*
X0238976Y0232241D01*
X0237377Y0230643D02*
X0196963Y0230643D01*
X0196114Y0229044D02*
X0236578Y0229044D01*
X0235972Y0227446D02*
X0058438Y0227446D01*
X0058438Y0227582D02*
X0057267Y0230408D01*
X0055104Y0232571D01*
X0052278Y0233742D01*
X0049218Y0233742D01*
X0046392Y0232571D01*
X0044229Y0230408D01*
X0043058Y0227582D01*
X0043058Y0224522D01*
X0044229Y0221696D01*
X0046392Y0219533D01*
X0049218Y0218362D01*
X0052278Y0218362D01*
X0055104Y0219533D01*
X0057267Y0221696D01*
X0058438Y0224522D01*
X0058438Y0227582D01*
X0057832Y0229044D02*
X0190128Y0229044D01*
X0189279Y0230643D02*
X0057032Y0230643D01*
X0055434Y0232241D02*
X0190184Y0232241D01*
X0191783Y0233840D02*
X0039258Y0233840D01*
X0038335Y0232241D02*
X0046062Y0232241D01*
X0044464Y0230643D02*
X0037645Y0230643D01*
X0037217Y0229044D02*
X0043664Y0229044D01*
X0043058Y0227446D02*
X0036876Y0227446D01*
X0036784Y0225847D02*
X0043058Y0225847D01*
X0043172Y0224249D02*
X0036784Y0224249D01*
X0036784Y0222650D02*
X0043834Y0222650D01*
X0044873Y0221052D02*
X0036784Y0221052D01*
X0036784Y0219453D02*
X0046585Y0219453D01*
X0054911Y0219453D02*
X0118657Y0219453D01*
X0117893Y0221052D02*
X0056623Y0221052D01*
X0057662Y0222650D02*
X0117814Y0222650D01*
X0118336Y0224249D02*
X0058324Y0224249D01*
X0058438Y0225847D02*
X0119742Y0225847D01*
X0124667Y0225847D02*
X0129537Y0225847D01*
X0128143Y0224249D02*
X0126073Y0224249D01*
X0126595Y0222650D02*
X0127645Y0222650D01*
X0127729Y0221052D02*
X0126517Y0221052D01*
X0125752Y0219453D02*
X0128468Y0219453D01*
X0132005Y0219453D02*
X0132405Y0219453D01*
X0132405Y0221052D02*
X0132005Y0221052D01*
X0132005Y0222650D02*
X0132405Y0222650D01*
X0132405Y0224249D02*
X0132005Y0224249D01*
X0132005Y0225847D02*
X0132405Y0225847D01*
X0134872Y0225847D02*
X0139742Y0225847D01*
X0138336Y0224249D02*
X0136266Y0224249D01*
X0136765Y0222650D02*
X0137814Y0222650D01*
X0137893Y0221052D02*
X0136681Y0221052D01*
X0135941Y0219453D02*
X0138657Y0219453D01*
X0145752Y0219453D02*
X0148657Y0219453D01*
X0147893Y0221052D02*
X0146517Y0221052D01*
X0146595Y0222650D02*
X0147814Y0222650D01*
X0148336Y0224249D02*
X0146073Y0224249D01*
X0144667Y0225847D02*
X0149742Y0225847D01*
X0154667Y0225847D02*
X0159742Y0225847D01*
X0158336Y0224249D02*
X0156073Y0224249D01*
X0156595Y0222650D02*
X0157814Y0222650D01*
X0157893Y0221052D02*
X0156517Y0221052D01*
X0155752Y0219453D02*
X0158657Y0219453D01*
X0165752Y0219453D02*
X0168657Y0219453D01*
X0167893Y0221052D02*
X0166517Y0221052D01*
X0166595Y0222650D02*
X0167814Y0222650D01*
X0168336Y0224249D02*
X0166073Y0224249D01*
X0164667Y0225847D02*
X0169742Y0225847D01*
X0174667Y0225847D02*
X0235972Y0225847D01*
X0236085Y0224249D02*
X0176073Y0224249D01*
X0176595Y0222650D02*
X0236747Y0222650D01*
X0237787Y0221052D02*
X0176517Y0221052D01*
X0175752Y0219453D02*
X0239498Y0219453D01*
X0232497Y0206665D02*
X0257625Y0206665D01*
X0257625Y0205067D02*
X0231822Y0205067D01*
X0221158Y0190680D02*
X0257625Y0190680D01*
X0257625Y0192278D02*
X0210733Y0192278D01*
X0210650Y0190680D02*
X0212095Y0190680D01*
X0210403Y0189081D02*
X0209987Y0189081D01*
X0209274Y0187483D02*
X0208651Y0187483D01*
X0210500Y0193877D02*
X0257625Y0193877D01*
X0257625Y0195475D02*
X0209838Y0195475D01*
X0208291Y0197074D02*
X0257625Y0197074D01*
X0257625Y0198673D02*
X0128767Y0198673D01*
X0128622Y0197074D02*
X0200946Y0197074D01*
X0189279Y0235438D02*
X0040556Y0235438D01*
X0042154Y0237037D02*
X0189726Y0237037D01*
X0191324Y0238635D02*
X0044854Y0238635D01*
X0113953Y0200271D02*
X0117491Y0200271D01*
X0117698Y0200478D02*
X0116892Y0199672D01*
X0116455Y0198618D01*
X0116455Y0197478D01*
X0116892Y0196424D01*
X0117698Y0195618D01*
X0118752Y0195181D01*
X0119892Y0195181D01*
X0120946Y0195618D01*
X0121752Y0196424D01*
X0122189Y0197478D01*
X0122189Y0198618D01*
X0121752Y0199672D01*
X0120946Y0200478D01*
X0119892Y0200915D01*
X0118752Y0200915D01*
X0117698Y0200478D01*
X0116478Y0198673D02*
X0114967Y0198673D01*
X0114822Y0197074D02*
X0116622Y0197074D01*
X0118041Y0195475D02*
X0113403Y0195475D01*
X0120603Y0195475D02*
X0124641Y0195475D01*
X0123222Y0197074D02*
X0122022Y0197074D01*
X0122167Y0198673D02*
X0123078Y0198673D01*
X0124091Y0200271D02*
X0121153Y0200271D01*
X0127753Y0200271D02*
X0257625Y0200271D01*
X0249555Y0238635D02*
X0194918Y0238635D01*
X0112181Y0142725D02*
X0109989Y0142725D01*
X0109636Y0141126D02*
X0111255Y0141126D01*
D15*
X0114122Y0140611D03*
X0107122Y0142548D03*
X0124622Y0145611D03*
X0128122Y0154611D03*
X0133622Y0154611D03*
X0139122Y0154611D03*
X0139122Y0161111D03*
X0133622Y0161111D03*
X0128122Y0161111D03*
X0128122Y0167611D03*
X0133622Y0167611D03*
X0139122Y0167611D03*
X0131622Y0178111D03*
X0131122Y0184611D03*
X0125922Y0198048D03*
X0119322Y0198048D03*
X0112122Y0198048D03*
X0108740Y0202867D03*
X0103122Y0171111D03*
X0097992Y0166997D03*
X0074063Y0143568D03*
X0151622Y0169111D03*
X0152622Y0175611D03*
X0159122Y0179611D03*
X0159122Y0170611D03*
X0159122Y0158611D03*
X0159122Y0150611D03*
X0159122Y0138611D03*
X0159122Y0129111D03*
X0205122Y0178111D03*
X0214622Y0208611D03*
X0210622Y0114611D03*
D16*
X0151122Y0162611D03*
X0150622Y0172611D03*
X0124122Y0176611D03*
X0229926Y0206807D03*
M02*
